<svg fill="none" height="167" viewBox="0 0 246 167" width="246" xmlns="http://www.w3.org/2000/svg"><path d="m34.2693 163.9c18.9264 0 34.2692-15.344 34.2692-34.272s-15.3428-34.2725-34.2692-34.2725-34.2693 15.3445-34.2693 34.2725 15.3429 34.272 34.2693 34.272z" fill="#f2f2f2"/><path d="m75.7237 144.828c-16.752 0-32.9857-5.809-45.9352-16.437s-21.81344-25.418-25.08162-41.8496c-3.26819-16.4315-.73836-33.4879 7.15842-48.263 7.8968-14.7752 20.672-26.3549 36.1487-32.76615 15.4768-6.411261 32.6976-7.25736 48.7283-2.39414s29.8787 15.13489 39.1857 29.06479 13.497 30.6561 11.855 47.3288-9.014 32.2603-20.859 44.1063c-6.708 6.746-14.688 12.093-23.476 15.734-8.7885 3.641-18.2118 5.502-27.7243 5.476zm0-144.274855c-39.6209 0-71.85494 32.236555-71.85494 71.860955 0 39.6239 32.23404 71.8609 71.85494 71.8609 39.6213 0 71.8553-32.237 71.8553-71.8609 0-39.6244-32.234-71.860955-71.8553-71.860955z" fill="#2f2e41"/><path d="m113.448 95.3352-.008.0042-35.6878 19.8736-39.0788-19.541-.6734-.3368 2.0282-40.5666 35.2901-25.1514.3895.2435 36.5232 22.8795z" fill="#0c97f0"/><path d="m113.44 95.3407-35.6874 19.8733-39.0788-19.5407 34.6167-24.271z" fill="#000" opacity=".3"/><path d="m113.448 95.3339-40.158-23.9342 2.4177-41.5403 36.5233 22.8795z" fill="#000" opacity=".1"/><g fill="#f2f2f2"><path d="m39.5089 67.2826-.1984-.2807 35.6841-25.1894 37.6954 23.6357-.183.2913-37.5013-23.5143z"/><path d="m38.8179 81.0659-.1929-.2842 35.503-24.1059.093.0528 38.501 21.8227-.169.299-38.4087-21.7702z"/><path d="m52.3627 102.621-.1811-.292 35.781-22.1734v-42.5072h.3437v42.6986z"/><path d="m66.4072 109.635-.1826-.291 34.4524-21.6113v-42.1272h.344v42.3174z"/><path d="m100.548 102.618-40.0685-22.2648.0057-.1071 2.1093-41.6953.3431.0175-2.1039 41.5882 39.8813 22.1605z"/><path d="m87.9422 109.645-39.619-20.764.0062-.1103 2.3355-41.716.3432.0192-2.3292 41.6055 39.4229 20.6606z"/></g><path d="m120.219 29.5763c7.631 0 13.818-6.1872 13.818-13.8194 0-7.63224-6.187-13.8194-13.818-13.8194-7.632 0-13.819 6.18716-13.819 13.8194 0 7.6322 6.187 13.8194 13.819 13.8194z" fill="#3f3d56"/><path d="m245.689 163.348h-237.67435v.552h237.67435z" fill="#2f2e41"/><path d="m218.096 89.0128 3.158 8.6524s-3.296 9.8888 0 10.1628c3.296.275 3.708-9.4761 3.708-9.4761l-1.785-10.4378z" fill="#ffb9b9"/><path d="m219.606 60.7188 2.335 2.3347v11.1246s1.373 2.0601 1.098 2.6094c-.274.5494-.549.5494-.274.9614.274.412.549.6867.274.9614-.134.1783-.206.3952-.206.618 0 .2229.072.4398.206.6181.275.2746.824.6867.412 1.0987s-.961.1373-.412 1.6481c.549 1.5107 1.511 1.9227 1.236 2.4721-.275.5493-.275 1.9227-.275 1.9227l-5.905.8241-1.236-15.5194z" fill="#d0cde1"/><path d="m224.275 86.9492-6.867.2746.275 2.8841 6.043-1.0988z" fill="#3f3d56"/><path d="m205.393 46.3711-.825 8.2406 8.377 1.236.618-4.7383.619-4.7383z" fill="#ffb9b9"/><path d="m205.393 46.3711-.825 8.2406 8.377 1.236.618-4.7383.619-4.7383z" fill="#000" opacity=".1"/><path d="m187.196 85.5781 4.669 10.0258s.824 4.6691 2.06 4.8071c1.236.137 2.472-4.8071 2.472-4.8071l-1.648-2.6094-1.922-7.4164z" fill="#ffb9b9"/><path d="m196.947 94.6405-3.845 6.0435s-3.708 57.545-3.159 57.133c.55-.412 2.335-.549 3.021-1.648.687-1.099 4.944 0 4.944 0l2.472-2.61v-2.06c0-.412 4.944-31.863 4.944-31.863v7.966s-1.511 29.254.961 28.979 7.553-1.923 7.553-1.923 7.279-54.6612 5.082-56.7213c-2.198-2.0601-3.159-6.7297-3.159-6.7297z" fill="#2f2e41"/><path d="m209.992 49.0479c3.641 0 6.592-2.9515 6.592-6.5923s-2.951-6.5923-6.592-6.5923c-3.64 0-6.592 2.9515-6.592 6.5923s2.952 6.5923 6.592 6.5923z" fill="#ffb9b9"/><path d="m195.299 55.9087-.962-.5493s-4.257 2.8841-5.63 9.3391-2.335 8.1031-2.335 8.1031-1.373.2746-.412 1.236c.962.9614.962.8241.138 1.3734-.824.5494-1.374-.5493-.824.5494.549 1.0987 1.236.824.686 1.5107-.549.6867-1.51.6867-.961 1.2361s-.549 1.7854.137 2.3348c.687.5493.962.6867.962 1.6481-.005.561.088 1.1186.274 1.648h7.141s-1.373-2.6094-.961-3.1588c.412-.5493.549-1.0987.275-1.3734-.275-.2747-1.099.2747-.275-.412s1.099-.2747.824-1.0987c-.275-.8241-.824-.412-.275-.8241.55-.412.962-.2746.687-.6867-.275-.412-.824-.412-.275-.6867.55-.2747.962 0 .824-.6867-.137-.6867-.274-.412 0-.6867.275-.2747 3.159-9.6138 3.159-9.8885 0-.2746-2.197-8.9271-2.197-8.9271z" fill="#d0cde1"/><path d="m193.924 83.793-8.652.5494 2.198 2.0601 6.042.1374z" fill="#3f3d56"/><path d="m196.397 94.0938-1.786 3.2961s5.356.6867 7.279 1.3734c1.922.6867 6.866 1.6477 6.866 1.6477l1.236-4.8065z" fill="#3f3d56"/><path d="m212.052 95.602 1.51 4.532 6.043-1.2359-.687-4.2575z" fill="#3f3d56"/><path d="m214.524 51.2454s-.412-.2747-1.373.2747c-.961.5493-4.12.824-5.631-.8241-1.51-1.648-2.609-3.0214-3.021-2.7468-.412.2747-.686 3.4335-.686 3.4335l-1.374 1.0988-8.102 2.8841.687 18.5409 1.236 4.2576s-.962 3.2961.274 5.2189c1.236 1.9227-.686 2.6094-.686 2.6094s-.412.5494-.138 1.9228c.275 1.3734-.274 6.455-.274 6.455s11.672 5.2189 23.895.6867l-1.374-5.2189-.686-11.6739s.686-1.9228.549-2.7468c-.137-.8241 4.12-12.3606 4.12-12.3606s-.687-5.7683-4.257-7.0044c-3.571-1.2361-4.12-2.4721-4.12-2.4721s1.648-1.7854.961-2.3348z" fill="#d0cde1"/><path d="m203.355 43.2973s-.685-1.0269-.422-2.1327c.158-.6279.22-1.2758.185-1.9221.294-.958.664-1.8913 1.105-2.791.553-1.0005.29-1.4218 2.028-1.7378 1.737-.3159 1.026-2.5803 5.607-.1316.155.2158.37.381.618.4747.249.0937.519.1118.778.0519.948-.1843 1.29 1.1322 1.29 1.1322s.632-.3687.869.1579 1.926-.316 1.926 3.2385c0 3.5546-1.922 6.7297-1.922 6.7297s.14-5.9792-2.993-6.5848c-3.133-.6055-6.502-2.3697-7.319-.1053-.44 1.2709-1.028 2.4859-1.75 3.6204z" fill="#2f2e41"/><path d="m215.486 44.7184c.341 0 .618-.3689.618-.824 0-.4552-.277-.8241-.618-.8241s-.618.3689-.618.8241c0 .4551.277.824.618.824z" fill="#ffb9b9"/><path d="m211.984 154.172.966 2.898s0 2.897.965 4.346c.966 1.449 1.932 4.588-1.931 4.829-3.863.242-5.554-1.207-5.554-1.207s.725-1.932 0-2.656c-.724-.724 0-2.173 0-2.173l.725-5.796z" fill="#2f2e41"/><path d="m193.169 154.172-.965 2.898s0 2.897-.966 4.346-1.932 4.588 1.931 4.829c3.864.242 5.554-1.207 5.554-1.207s-.724-1.932 0-2.656 0-2.173 0-2.173l-.724-5.796z" fill="#2f2e41"/></svg>