<svg width="215" height="340" viewBox="0 0 215 340" fill="none" xmlns="http://www.w3.org/2000/svg">
<g clip-path="url(#clip0_639_2632)">
<path d="M201.801 -0.00170898H12.5968C5.63984 -0.00170898 6.69371e-05 5.63805 6.95119e-05 12.595L0.000186021 327.402C0.000188596 334.359 5.63996 339.998 12.597 339.998H201.801C208.758 339.998 214.398 334.359 214.398 327.402L214.398 12.595C214.398 5.63805 208.758 -0.00170898 201.801 -0.00170898Z" fill="url(#paint0_linear_639_2632)"/>
<path d="M0.000110626 280.113L214.384 280.113L214.384 327.403C214.384 330.747 213.055 333.955 210.69 336.32C208.325 338.685 205.117 340.014 201.773 340.014L12.6109 340.014C9.26634 340.014 6.05873 338.685 3.69375 336.32C1.32876 333.955 0.000129394 330.747 0.000128154 327.403L0.000110626 280.113Z" fill="#1D1D1B"/>
<path d="M203.048 305.811L207.532 313.994L198.102 322.191L203.048 305.811Z" fill="#008438"/>
<path d="M199.937 305.811L204.421 313.994L195.005 322.191L199.937 305.811Z" fill="#EC7303"/>
<path d="M135.37 310.771L137.542 310.771C138.115 310.807 138.687 310.701 139.209 310.462C139.596 310.215 139.872 309.829 139.98 309.383C140.134 308.865 140.092 308.501 139.868 308.305C139.377 308.033 138.813 307.925 138.256 307.996L136.211 307.996L135.37 310.771ZM128.084 319.178L132.554 304.367L139.7 304.367C141.263 304.2 142.838 304.549 144.184 305.362C144.94 306.035 145.08 307.114 144.632 308.641C144.39 309.479 143.953 310.247 143.357 310.883C142.732 311.522 141.963 312.002 141.115 312.284C141.432 312.321 141.736 312.435 141.999 312.616C142.263 312.797 142.479 313.038 142.628 313.321C142.849 314.061 142.825 314.852 142.558 315.577L142.012 317.65C141.844 318.225 141.9 318.533 142.152 318.561L141.984 319.108L137.15 319.108C137.15 318.762 137.178 318.454 137.234 318.183C137.256 317.974 137.298 317.767 137.36 317.566L137.808 316.095C137.918 315.838 137.975 315.562 137.975 315.282C137.975 315.003 137.918 314.727 137.808 314.47C137.598 314.162 137.122 314.007 136.407 314.007L134.361 314.007L132.82 319.108L128.084 319.178Z" fill="white"/>
<path d="M157.887 308.262L154.595 319.191L150.587 319.191L151.092 317.594C150.451 318.173 149.723 318.646 148.934 318.995C148.212 319.304 147.435 319.462 146.65 319.458C146.073 319.473 145.499 319.363 144.968 319.135C144.521 318.924 144.153 318.575 143.917 318.14C143.706 317.706 143.618 317.221 143.665 316.739C143.785 315.786 144.001 314.847 144.31 313.937L146.019 308.262L150.391 308.262L148.696 313.867C148.471 314.412 148.403 315.009 148.499 315.59C148.625 315.913 148.962 316.067 149.522 316.067C149.781 316.075 150.038 316.03 150.279 315.936C150.519 315.843 150.739 315.701 150.923 315.52C151.367 315.051 151.685 314.477 151.848 313.853L153.53 308.248L157.887 308.262Z" fill="white"/>
<path d="M163.548 311.065L165.089 311.065C165.81 311.11 166.531 311 167.205 310.743C167.629 310.474 167.935 310.053 168.06 309.566C168.228 308.992 168.186 308.599 167.92 308.375C167.327 308.077 166.659 307.96 166 308.039L164.459 308.039L163.548 311.065ZM156.304 319.22L160.76 304.41L166.911 304.41C167.967 304.388 169.023 304.468 170.064 304.648C170.704 304.757 171.309 305.016 171.829 305.405C172.355 305.845 172.712 306.454 172.838 307.128C172.956 307.947 172.879 308.782 172.614 309.566C172.193 311.098 171.264 312.442 169.98 313.377C168.601 314.283 166.976 314.739 165.328 314.68L162.525 314.68L161.124 319.22L156.304 319.22Z" fill="white"/>
<path d="M178.821 314.329C178.224 314.534 177.616 314.708 177 314.848C175.823 315.142 175.164 315.52 175.024 316.011C174.969 316.126 174.949 316.256 174.966 316.382C174.984 316.509 175.038 316.628 175.122 316.725C175.236 316.825 175.37 316.9 175.515 316.946C175.659 316.991 175.812 317.007 175.963 316.991C176.586 317.023 177.203 316.846 177.714 316.487C178.198 316.069 178.541 315.511 178.695 314.89C178.695 314.735 178.779 314.623 178.793 314.539L178.821 314.329ZM177.756 319.205L177.756 318.168C177.099 318.632 176.376 318.996 175.612 319.247C174.87 319.487 174.094 319.605 173.314 319.598C172.841 319.645 172.363 319.59 171.913 319.435C171.463 319.28 171.052 319.03 170.708 318.701C170.456 318.325 170.302 317.893 170.26 317.442C170.219 316.992 170.291 316.538 170.47 316.123C170.725 315.137 171.34 314.282 172.193 313.727C173.482 313.078 174.888 312.697 176.327 312.606C176.565 312.606 176.901 312.606 177.308 312.494C178.709 312.339 179.536 311.989 179.704 311.429C179.788 311.106 179.704 310.882 179.536 310.742C179.187 310.559 178.793 310.481 178.401 310.518C178.009 310.499 177.621 310.591 177.28 310.784C176.964 310.974 176.722 311.265 176.593 311.611L172.39 311.611C172.568 311.007 172.869 310.446 173.274 309.964C173.679 309.481 174.179 309.088 174.744 308.808C176.193 308.115 177.791 307.792 179.396 307.87C180.215 307.856 181.033 307.936 181.834 308.108C182.404 308.214 182.944 308.444 183.417 308.78C183.794 309.078 184.052 309.5 184.146 309.971C184.208 310.613 184.121 311.26 183.893 311.863L182.058 317.944C182.01 318.123 182.01 318.312 182.058 318.491C182.092 318.64 182.176 318.774 182.296 318.869L182.198 319.177L177.756 319.205Z" fill="white"/>
<path d="M182.156 323.507L183.123 320.27L184.37 320.27C184.71 320.289 185.049 320.217 185.351 320.06C185.477 319.98 185.585 319.876 185.67 319.753C185.754 319.63 185.812 319.491 185.841 319.345C185.897 319.197 185.93 319.041 185.939 318.883C185.953 318.682 185.953 318.481 185.939 318.28L185.267 308.276L189.708 308.276L189.708 314.903L193.576 308.276L197.695 308.276L190.857 319.149C190.073 320.368 189.456 321.209 189.162 321.657C188.868 322.046 188.524 322.395 188.139 322.694C187.721 323.015 187.246 323.253 186.738 323.395C185.973 323.554 185.192 323.62 184.412 323.591L183.389 323.591L182.226 323.521" fill="white"/>
<path d="M129.161 324.286L131.422 324.286C131.869 324.286 132.202 324.413 132.421 324.666C132.642 324.917 132.704 325.27 132.606 325.726C132.524 326.119 132.329 326.461 132.021 326.753C131.715 327.042 131.309 327.187 130.803 327.187L129.223 327.187L128.774 329.312L128.094 329.312L129.161 324.286ZM131.669 324.977C131.532 324.907 131.332 324.871 131.07 324.871L129.715 324.871L129.346 326.612L130.7 326.612C131.006 326.612 131.267 326.547 131.484 326.417C131.703 326.287 131.848 326.058 131.918 325.73C131.996 325.36 131.913 325.11 131.669 324.977ZM135.616 326.588C135.936 326.588 136.201 326.525 136.413 326.397C136.628 326.269 136.77 326.039 136.841 325.706C136.916 325.348 136.838 325.104 136.605 324.974C136.479 324.905 136.3 324.871 136.068 324.871L134.405 324.871L134.043 326.588L135.616 326.588ZM133.851 324.286L136.177 324.286C136.56 324.286 136.864 324.342 137.087 324.454C137.514 324.668 137.667 325.064 137.546 325.641C137.482 325.942 137.367 326.188 137.2 326.38C137.036 326.571 136.83 326.725 136.581 326.842C136.761 326.921 136.887 327.026 136.957 327.156C137.028 327.286 137.038 327.497 136.988 327.789L136.868 328.463C136.834 328.655 136.82 328.797 136.827 328.891C136.834 329.05 136.885 329.153 136.981 329.199L136.957 329.312L136.123 329.312C136.109 329.268 136.102 329.212 136.102 329.144C136.102 329.075 136.119 328.943 136.153 328.747L136.29 327.909C136.343 327.581 136.267 327.36 136.064 327.249C135.946 327.187 135.747 327.156 135.469 327.156L133.92 327.156L133.465 329.312L132.784 329.312L133.851 324.286ZM138.897 324.286L142.561 324.286L142.427 324.902L139.427 324.902L139.106 326.428L141.88 326.428L141.757 327.009L138.982 327.009L138.62 328.713L141.671 328.713L141.545 329.312L137.83 329.312L138.897 324.286ZM143.57 324.286L145.831 324.286C146.278 324.286 146.611 324.413 146.83 324.666C147.051 324.917 147.113 325.27 147.015 325.726C146.933 326.119 146.738 326.461 146.43 326.753C146.124 327.042 145.718 327.187 145.212 327.187L143.631 327.187L143.183 329.312L142.503 329.312L143.57 324.286ZM146.077 324.977C145.941 324.907 145.741 324.871 145.479 324.871L144.124 324.871L143.755 326.612L145.109 326.612C145.415 326.612 145.676 326.547 145.893 326.417C146.112 326.287 146.256 326.058 146.327 325.73C146.405 325.36 146.321 325.11 146.077 324.977ZM149.604 327.252L149.314 325.032L148.031 327.252L149.604 327.252ZM149.119 324.286L149.888 324.286L150.644 329.312L149.899 329.312L149.707 327.806L147.719 327.806L146.857 329.312L146.159 329.312L149.119 324.286ZM152.485 324.286L153.172 324.286L152.105 329.312L151.417 329.312L152.485 324.286ZM155.266 328.73C155.496 328.73 155.69 328.706 155.847 328.658C156.13 328.569 156.383 328.398 156.607 328.145C156.785 327.942 156.936 327.682 157.062 327.365C157.137 327.176 157.192 327 157.226 326.838C157.358 326.216 157.337 325.732 157.161 325.388C156.988 325.043 156.626 324.871 156.077 324.871L154.869 324.871L154.051 328.73L155.266 328.73ZM154.311 324.286L156.347 324.286C157.038 324.286 157.521 324.531 157.797 325.022C158.044 325.464 158.093 326.031 157.944 326.722C157.833 327.256 157.63 327.738 157.336 328.169C156.822 328.931 156.135 329.312 155.273 329.312L153.244 329.312L154.311 324.286Z" fill="white"/>
<path d="M13.4864 321.957L14.2013 326.999L13.0588 326.999L12.9527 325.962L11.0952 325.962L10.5273 326.999L9.42577 326.999L12.2959 321.957L13.4864 321.957ZM12.6346 323.109L11.5638 325.094L12.8432 325.094L12.6346 323.109ZM19.2643 322.347C19.5083 322.607 19.5733 323.009 19.4592 323.554C19.3315 324.149 19.0909 324.57 18.7374 324.816C18.3839 325.063 17.9278 325.186 17.3691 325.186L16.2983 325.186L15.9152 326.999L14.8684 326.999L15.9391 321.957L18.1354 321.957C18.6417 321.957 19.0179 322.087 19.2643 322.347ZM17.7796 322.832L16.7978 322.832L16.4831 324.317L17.4649 324.317C17.7134 324.317 17.9198 324.257 18.084 324.136C18.2482 324.015 18.3577 323.823 18.4125 323.561C18.4695 323.299 18.4398 323.112 18.3235 323C18.2095 322.888 18.0282 322.832 17.7796 322.832ZM23.5609 326.092L23.3693 326.999L19.5482 326.999L20.6189 321.957L24.3169 321.957L24.1253 322.849L21.457 322.849L21.2313 323.92L23.6806 323.92L23.4925 324.796L21.0431 324.796L20.7694 326.092L23.5609 326.092ZM24.9943 326.999L23.7696 326.999L25.935 324.43L24.919 321.957L26.1779 321.957L26.7286 323.595L28.0012 321.957L29.2191 321.957L27.1597 324.389L28.2441 326.999L26.9647 326.999L26.3694 325.282L24.9943 326.999Z" fill="white"/>
<path d="M11.8964 312.969L11.0837 313.642C10.9366 313.764 10.7579 313.842 10.5683 313.866C10.3788 313.89 10.1861 313.861 10.0129 313.78C9.83964 313.699 9.69289 313.571 9.58974 313.41C9.48659 313.249 9.43128 313.062 9.43025 312.871L9.43024 307.911C9.42918 307.674 9.50274 307.444 9.64042 307.252L9.64042 307.154C9.72572 307.03 9.83731 306.926 9.96725 306.851C10.0972 306.775 10.2423 306.728 10.3922 306.715C10.542 306.702 10.693 306.721 10.8343 306.773C10.9757 306.825 11.1039 306.907 11.2098 307.014L14.6567 310.503M14.3064 307.701L15.1191 307.014C15.3248 306.85 15.5865 306.773 15.8482 306.799C16.11 306.825 16.3511 306.953 16.5203 307.154C16.6737 307.334 16.7582 307.562 16.7585 307.799L16.7585 312.745C16.758 312.983 16.69 313.216 16.5624 313.417L16.5624 313.515C16.4445 313.681 16.2812 313.809 16.0922 313.883C15.9032 313.958 15.6966 313.976 15.4974 313.936C15.3056 313.894 15.1303 313.796 14.993 313.656L11.5461 310.167" stroke="url(#paint1_linear_639_2632)" stroke-width="0.882754" stroke-linecap="round"/>
<path d="M22.7836 307.295C23.2373 307.284 23.6862 307.39 24.0867 307.604C24.4739 307.804 24.7914 308.116 24.9975 308.501C25.2164 308.935 25.327 309.415 25.3198 309.902L25.3198 313.545L24.0587 313.545L24.0587 310.084C24.0913 309.624 23.9401 309.171 23.6383 308.823C23.4952 308.667 23.3188 308.546 23.1222 308.469C22.9257 308.391 22.7141 308.359 22.5034 308.374C22.2909 308.362 22.0784 308.396 21.8801 308.474C21.6819 308.551 21.5026 308.67 21.3544 308.823C21.0577 309.173 20.9116 309.626 20.948 310.084L20.948 313.545L19.6169 313.545L19.6169 307.352L21.0181 307.352L21.0181 308.066C21.2318 307.81 21.4998 307.604 21.8028 307.464C22.1165 307.347 22.4491 307.29 22.7836 307.295Z" fill="white"/>
<path d="M32.62 310.336C32.6358 310.545 32.6358 310.756 32.62 310.966L27.856 310.966C27.8594 311.192 27.9098 311.414 28.0038 311.619C28.0979 311.824 28.2337 312.007 28.4024 312.157C28.5657 312.309 28.7576 312.427 28.9669 312.504C29.1762 312.581 29.3987 312.615 29.6215 312.606C29.9128 312.615 30.2006 312.539 30.4494 312.387C30.6983 312.235 30.8975 312.014 31.0227 311.751L32.4239 311.751C32.2397 312.314 31.8816 312.805 31.401 313.152C30.8713 313.519 30.2375 313.706 29.5934 313.684C29.0356 313.698 28.4842 313.563 27.9961 313.292C27.5316 313.027 27.1488 312.639 26.8891 312.171C26.625 311.65 26.4904 311.074 26.4968 310.49C26.4844 309.907 26.6142 309.33 26.8751 308.808C27.1298 308.342 27.5079 307.954 27.968 307.687C28.4688 307.424 29.0275 307.289 29.5934 307.295C30.1356 307.287 30.6708 307.417 31.1488 307.673C31.5989 307.925 31.9682 308.299 32.2137 308.752C32.4812 309.237 32.621 309.782 32.62 310.336ZM31.2188 309.943C31.2217 309.729 31.178 309.516 31.0909 309.321C31.0039 309.125 30.8754 308.95 30.7144 308.808C30.377 308.516 29.9418 308.361 29.4954 308.374C29.2868 308.367 29.079 308.402 28.8841 308.477C28.6892 308.551 28.5112 308.664 28.3604 308.808C28.1964 308.951 28.0624 309.125 27.9662 309.32C27.87 309.514 27.8134 309.726 27.7999 309.943L31.2188 309.943Z" fill="white"/>
<path d="M36.5712 313.686C36.018 313.698 35.4716 313.563 34.9879 313.294C34.5196 313.029 34.1321 312.641 33.8669 312.173C33.5962 311.655 33.4612 311.076 33.4746 310.492C33.4591 309.905 33.5993 309.325 33.8809 308.81C34.1511 308.341 34.5433 307.954 35.0159 307.689C35.5127 307.428 36.0661 307.293 36.6273 307.297C37.184 307.293 37.7329 307.428 38.2246 307.689C38.7036 307.945 39.0979 308.335 39.3596 308.81C39.6455 309.324 39.7905 309.904 39.78 310.492C39.7928 311.077 39.6424 311.654 39.3456 312.159C39.0727 312.64 38.6696 313.033 38.1826 313.294C37.6875 313.56 37.1329 313.695 36.5712 313.686ZM36.5712 312.579C36.8901 312.579 37.2035 312.497 37.482 312.341C37.7814 312.18 38.0291 311.937 38.1966 311.641C38.3844 311.288 38.4762 310.891 38.4628 310.492C38.4756 310.098 38.3888 309.708 38.2106 309.357C38.059 309.063 37.8269 308.819 37.5415 308.653C37.2562 308.487 36.9293 308.405 36.5992 308.418C36.2772 308.416 35.9596 308.493 35.6744 308.642C35.3938 308.816 35.166 309.063 35.0159 309.357C34.8425 309.709 34.7606 310.099 34.7777 310.492C34.7434 311.051 34.9238 311.602 35.2821 312.033C35.4451 312.211 35.6446 312.352 35.8671 312.447C36.0895 312.541 36.3297 312.586 36.5712 312.579Z" fill="white"/>
<path d="M43.1711 313.684C42.7194 313.691 42.2711 313.606 41.854 313.432C41.4982 313.269 41.1897 313.018 40.9572 312.703C40.7289 312.416 40.601 312.062 40.5929 311.695L41.91 311.695C41.9262 311.824 41.9679 311.949 42.0329 312.062C42.0978 312.175 42.1847 312.274 42.2884 312.353C42.5421 312.531 42.8476 312.62 43.1571 312.605C43.4457 312.619 43.7323 312.551 43.9838 312.409C44.0766 312.351 44.1534 312.27 44.2072 312.175C44.261 312.08 44.2902 311.972 44.2921 311.863C44.2929 311.753 44.2597 311.645 44.197 311.555C44.1343 311.465 44.0451 311.396 43.9418 311.358C43.6084 311.201 43.2613 311.074 42.9049 310.98C42.4425 310.854 42.0642 310.728 41.7699 310.616C41.4762 310.493 41.2166 310.3 41.0133 310.055C40.7883 309.785 40.6733 309.44 40.691 309.088C40.6824 308.764 40.7864 308.447 40.9852 308.192C41.1948 307.9 41.481 307.672 41.812 307.533C42.212 307.369 42.6409 307.288 43.073 307.295C43.6858 307.265 44.2886 307.459 44.7685 307.841C44.98 308.01 45.1522 308.223 45.2732 308.465C45.3942 308.707 45.461 308.972 45.4691 309.242L44.18 309.242C44.1768 309.115 44.1449 308.989 44.0867 308.875C44.0285 308.761 43.9455 308.661 43.8437 308.584C43.6119 308.405 43.3234 308.315 43.031 308.332C42.7558 308.319 42.4829 308.387 42.2463 308.528C42.1646 308.584 42.0977 308.66 42.0514 308.747C42.005 308.835 41.9806 308.933 41.9801 309.032C41.9802 309.109 41.9965 309.185 42.0279 309.255C42.0593 309.325 42.1051 309.387 42.1623 309.439C42.2866 309.56 42.4344 309.656 42.5966 309.719L43.3673 309.957C43.7415 310.046 44.1072 310.168 44.4602 310.321C44.7496 310.439 45.0083 310.621 45.2169 310.854C45.4418 311.124 45.5569 311.469 45.5391 311.821C45.5432 312.157 45.4402 312.486 45.2449 312.759C45.0409 313.053 44.7527 313.278 44.4182 313.404C44.0288 313.59 43.6026 313.686 43.1711 313.684Z" fill="url(#paint2_linear_639_2632)"/>
<path d="M52.5312 307.392L52.5312 313.586L51.2561 313.586L51.2561 312.857C51.0408 313.118 50.7672 313.324 50.4574 313.46C50.1299 313.6 49.7769 313.672 49.4205 313.67C48.9644 313.677 48.513 313.576 48.1034 313.375C47.7225 313.167 47.4071 312.856 47.1926 312.479C46.9768 312.043 46.8664 311.563 46.8704 311.077L46.8704 307.434L48.1454 307.434L48.1454 310.881C48.1106 311.347 48.256 311.809 48.5518 312.17C48.8632 312.451 49.2676 312.606 49.6868 312.606C50.106 312.606 50.5103 312.451 50.8217 312.17C51.1263 311.812 51.2818 311.351 51.2561 310.881L51.2561 307.434L52.5312 307.392Z" fill="url(#paint3_linear_639_2632)"/>
<path d="M55.5016 308.261C55.6782 307.952 55.9347 307.695 56.2443 307.519C56.5853 307.339 56.9658 307.247 57.3512 307.252L57.3512 308.584L57.0289 308.584C56.6112 308.554 56.1985 308.69 55.88 308.962C55.5877 309.341 55.4522 309.817 55.5016 310.293L55.5016 313.544L54.2125 313.544L54.2125 307.35L55.5016 307.35L55.5016 308.261Z" fill="url(#paint4_linear_639_2632)"/>
<path d="M61.0225 307.294C61.4609 307.286 61.8945 307.387 62.2836 307.589C62.634 307.748 62.9378 307.994 63.1663 308.303L63.1663 307.393L64.4554 307.393L64.4554 313.684C64.4714 314.212 64.3456 314.734 64.0911 315.197C63.8596 315.648 63.4985 316.019 63.0542 316.262C62.5585 316.525 62.0036 316.655 61.4429 316.64C60.6958 316.67 59.959 316.459 59.3411 316.038C59.0754 315.862 58.853 315.628 58.6905 315.354C58.5279 315.08 58.4294 314.772 58.4023 314.455L59.6774 314.455C59.763 314.787 59.9674 315.076 60.2518 315.267C60.5984 315.476 60.9965 315.582 61.4008 315.576C61.6278 315.583 61.8539 315.544 62.0657 315.462C62.2775 315.381 62.4707 315.257 62.6339 315.099C62.8094 314.913 62.9438 314.692 63.0283 314.451C63.1128 314.209 63.1455 313.953 63.1243 313.698L63.1243 312.661C62.8866 312.969 62.5855 313.222 62.2415 313.404C61.8518 313.604 61.4186 313.705 60.9805 313.698C60.4566 313.709 59.9408 313.567 59.4952 313.292C59.05 313.014 58.6871 312.622 58.4443 312.157C58.1865 311.634 58.0569 311.058 58.066 310.475C58.0564 309.902 58.1863 309.334 58.4443 308.822C58.6842 308.358 59.0488 307.971 59.4969 307.704C59.9449 307.437 60.4588 307.3 60.9805 307.309L61.0225 307.294ZM63.1663 310.489C63.1781 310.099 63.0862 309.712 62.9001 309.368C62.7357 309.076 62.4994 308.83 62.2135 308.654C61.9333 308.49 61.6131 308.408 61.2887 308.415C60.9648 308.411 60.6455 308.493 60.3639 308.654C60.072 308.822 59.8339 309.07 59.6774 309.368C59.491 309.702 59.3989 310.079 59.4111 310.461C59.3994 310.852 59.4912 311.239 59.6774 311.582C59.8374 311.885 60.0741 312.142 60.3639 312.325C60.6444 312.489 60.9636 312.576 61.2887 312.577C61.6144 312.58 61.9344 312.493 62.2135 312.325C62.4994 312.149 62.7357 311.903 62.9001 311.61C63.085 311.266 63.1768 310.88 63.1663 310.489Z" fill="url(#paint5_linear_639_2632)"/>
<path d="M71.8116 310.336C71.8274 310.546 71.8274 310.756 71.8116 310.966L67.0336 310.966C67.0408 311.19 67.0923 311.41 67.1851 311.614C67.278 311.818 67.4103 312.002 67.5745 312.154C67.7386 312.307 67.9314 312.425 68.1416 312.502C68.3518 312.58 68.5752 312.615 68.7991 312.606C69.0908 312.617 69.3793 312.541 69.6285 312.389C69.8777 312.237 70.0766 312.015 70.2003 311.751L71.6015 311.751C71.4114 312.311 71.0545 312.8 70.5786 313.152C70.0438 313.519 69.4055 313.706 68.757 313.685C68.1995 313.695 67.649 313.56 67.1597 313.292C66.6995 313.026 66.3214 312.638 66.0667 312.171C65.796 311.653 65.661 311.074 65.6744 310.49C65.662 309.907 65.7918 309.33 66.0527 308.808C66.3031 308.338 66.6822 307.95 67.1457 307.687C67.6414 307.424 68.1955 307.289 68.757 307.295C69.2995 307.284 69.8356 307.414 70.3124 307.673C70.7649 307.926 71.1384 308.3 71.3913 308.752C71.6637 309.236 71.8084 309.781 71.8116 310.336ZM70.4104 309.943C70.4193 309.728 70.3783 309.514 70.2909 309.317C70.2034 309.12 70.0717 308.946 69.906 308.808C69.5708 308.512 69.1341 308.356 68.687 308.374C68.2662 308.364 67.8583 308.52 67.552 308.808C67.2257 309.1 67.0248 309.507 66.9915 309.943L70.4104 309.943Z" fill="url(#paint6_linear_639_2632)"/>
<path d="M100.578 174.252L96.2343 177.867C95.4402 178.53 94.4729 178.952 93.4467 179.083C92.4205 179.214 91.3782 179.049 90.4428 178.607C89.5074 178.165 88.718 177.465 88.1676 176.589C87.6172 175.713 87.3289 174.698 87.3367 173.663L87.3367 147.125C87.3416 145.845 87.7269 144.597 88.4437 143.537L88.78 143.047C89.2383 142.385 89.8362 141.832 90.5313 141.427C91.2265 141.021 92.0022 140.773 92.8037 140.7C93.6052 140.626 94.413 140.729 95.1704 141.002C95.9277 141.274 96.6161 141.709 97.1872 142.276L115.683 160.996M113.777 145.583L118.121 141.954C118.917 141.297 119.884 140.88 120.908 140.752C121.932 140.624 122.971 140.79 123.904 141.231C124.838 141.672 125.626 142.369 126.178 143.242C126.729 144.114 127.021 145.126 127.019 146.158L127.019 172.78C127.024 174.061 126.638 175.313 125.912 176.367L125.575 176.872C125.121 177.539 124.524 178.096 123.828 178.505C123.132 178.914 122.354 179.163 121.551 179.236C120.747 179.308 119.937 179.201 119.179 178.924C118.421 178.646 117.735 178.203 117.168 177.629L98.6864 158.895" stroke="black" stroke-width="4.73605" stroke-linecap="round"/>
<path d="M15.933 19.26L16.5518 21.795L17.1795 19.26L17.7862 19.26L18.417 21.78L19.0747 19.26L19.6154 19.26L18.6813 22.4768L18.1196 22.4768L17.4648 19.9869L16.8311 22.4768L16.2694 22.4768L15.3413 19.26L15.933 19.26ZM20.3783 19.26L20.997 21.795L21.6247 19.26L22.2315 19.26L22.8622 21.78L23.52 19.26L24.0606 19.26L23.1265 22.4768L22.5649 22.4768L21.9101 19.9869L21.2763 22.4768L20.7147 22.4768L19.7866 19.26L20.3783 19.26ZM24.8235 19.26L25.4422 21.795L26.07 19.26L26.6767 19.26L27.3075 21.78L27.9652 19.26L28.5059 19.26L27.5718 22.4768L27.0101 22.4768L26.3553 19.9869L25.7216 22.4768L25.1599 22.4768L24.2318 19.26L24.8235 19.26ZM28.8122 21.822L29.44 21.822L29.44 22.4768L28.8122 22.4768L28.8122 21.822ZM30.5032 18.362L31.0499 18.362L31.0499 19.26L31.5635 19.26L31.5635 19.7015L31.0499 19.7015L31.0499 21.801C31.0499 21.9131 31.0879 21.9882 31.164 22.0263C31.206 22.0483 31.2761 22.0593 31.3742 22.0593C31.4003 22.0593 31.4283 22.0593 31.4583 22.0593C31.4884 22.0573 31.5234 22.0543 31.5635 22.0503L31.5635 22.4768C31.5014 22.4948 31.4363 22.5078 31.3682 22.5159C31.3022 22.5239 31.2301 22.5279 31.152 22.5279C30.8997 22.5279 30.7285 22.4638 30.6384 22.3356C30.5483 22.2055 30.5032 22.0373 30.5032 21.831L30.5032 19.7015L30.0677 19.7015L30.0677 19.26L30.5032 19.26L30.5032 18.362ZM32.1221 19.26L32.6357 19.26L32.6357 19.8157C32.6778 19.7075 32.7809 19.5764 32.9451 19.4222C33.1093 19.266 33.2985 19.1879 33.5128 19.1879C33.5228 19.1879 33.5398 19.1889 33.5638 19.1909C33.5879 19.1929 33.6289 19.1969 33.687 19.2029L33.687 19.7736C33.6549 19.7676 33.6249 19.7636 33.5969 19.7616C33.5708 19.7596 33.5418 19.7586 33.5098 19.7586C33.2374 19.7586 33.0282 19.8467 32.882 20.0229C32.7359 20.1971 32.6628 20.3984 32.6628 20.6266L32.6628 22.4768L32.1221 22.4768L32.1221 19.26ZM34.57 21.6208C34.57 21.777 34.6271 21.9001 34.7412 21.9902C34.8554 22.0803 34.9905 22.1254 35.1467 22.1254C35.3369 22.1254 35.5211 22.0813 35.6994 21.9932C35.9997 21.8471 36.1499 21.6078 36.1499 21.2754L36.1499 20.8399C36.0838 20.8819 35.9987 20.917 35.8946 20.945C35.7905 20.973 35.6883 20.9931 35.5882 21.0051L35.2608 21.0471C35.0646 21.0732 34.9174 21.1142 34.8193 21.1703C34.6531 21.2644 34.57 21.4146 34.57 21.6208ZM35.8796 20.5275C36.0037 20.5115 36.0868 20.4594 36.1289 20.3713C36.1529 20.3233 36.1649 20.2542 36.1649 20.1641C36.1649 19.9799 36.0988 19.8467 35.9667 19.7646C35.8365 19.6805 35.6493 19.6385 35.405 19.6385C35.1227 19.6385 34.9224 19.7145 34.8043 19.8667C34.7382 19.9508 34.6952 20.076 34.6751 20.2422L34.1705 20.2422C34.1806 19.8457 34.3087 19.5704 34.555 19.4162C34.8033 19.26 35.0906 19.1819 35.417 19.1819C35.7955 19.1819 36.1028 19.254 36.3391 19.3982C36.5734 19.5423 36.6905 19.7666 36.6905 20.071L36.6905 21.9242C36.6905 21.9802 36.7015 22.0253 36.7236 22.0593C36.7476 22.0934 36.7966 22.1104 36.8707 22.1104C36.8948 22.1104 36.9218 22.1094 36.9518 22.1074C36.9819 22.1034 37.0139 22.0984 37.0479 22.0924L37.0479 22.4918C36.9638 22.5159 36.8998 22.5309 36.8557 22.5369C36.8117 22.5429 36.7516 22.5459 36.6755 22.5459C36.4893 22.5459 36.3541 22.4798 36.27 22.3477C36.226 22.2776 36.1949 22.1785 36.1769 22.0503C36.0668 22.1945 35.9086 22.3196 35.7024 22.4257C35.4961 22.5319 35.2688 22.5849 35.0206 22.5849C34.7222 22.5849 34.4779 22.4948 34.2877 22.3146C34.0995 22.1324 34.0054 21.9051 34.0054 21.6328C34.0054 21.3345 34.0985 21.1032 34.2847 20.939C34.4709 20.7748 34.7152 20.6737 35.0175 20.6356L35.8796 20.5275ZM37.5796 19.26L38.0932 19.26L38.0932 19.7166C38.2454 19.5283 38.4065 19.3932 38.5767 19.3111C38.7469 19.229 38.9362 19.1879 39.1444 19.1879C39.601 19.1879 39.9093 19.3471 40.0695 19.6655C40.1576 19.8397 40.2017 20.089 40.2017 20.4134L40.2017 22.4768L39.652 22.4768L39.652 20.4494C39.652 20.2532 39.623 20.095 39.5649 19.9749C39.4688 19.7746 39.2946 19.6745 39.0423 19.6745C38.9141 19.6745 38.809 19.6875 38.7269 19.7135C38.5787 19.7576 38.4486 19.8457 38.3365 19.9779C38.2464 20.084 38.1873 20.1941 38.1593 20.3082C38.1332 20.4204 38.1202 20.5816 38.1202 20.7918L38.1202 22.4768L37.5796 22.4768L37.5796 19.26ZM41.325 21.4676C41.341 21.6478 41.3861 21.786 41.4601 21.8821C41.5963 22.0563 41.8326 22.1434 42.169 22.1434C42.3692 22.1434 42.5454 22.1004 42.6976 22.0143C42.8498 21.9262 42.9259 21.791 42.9259 21.6088C42.9259 21.4706 42.8648 21.3655 42.7427 21.2934C42.6646 21.2494 42.5104 21.1983 42.2801 21.1402L41.8506 21.0321C41.5763 20.964 41.374 20.8879 41.2439 20.8038C41.0116 20.6577 40.8955 20.4554 40.8955 20.1971C40.8955 19.8928 41.0046 19.6465 41.2229 19.4582C41.4431 19.27 41.7385 19.1759 42.1089 19.1759C42.5935 19.1759 42.9429 19.3181 43.1572 19.6024C43.2913 19.7826 43.3564 19.9769 43.3524 20.1851L42.8418 20.1851C42.8318 20.063 42.7887 19.9518 42.7126 19.8517C42.5885 19.7095 42.3732 19.6385 42.0669 19.6385C41.8626 19.6385 41.7074 19.6775 41.6013 19.7556C41.4972 19.8337 41.4451 19.9368 41.4451 20.065C41.4451 20.2051 41.5142 20.3173 41.6524 20.4014C41.7325 20.4514 41.8506 20.4955 42.0068 20.5335L42.3642 20.6206C42.7527 20.7147 43.013 20.8058 43.1451 20.8939C43.3554 21.0321 43.4605 21.2494 43.4605 21.5457C43.4605 21.832 43.3514 22.0793 43.1331 22.2876C42.9169 22.4958 42.5865 22.6 42.142 22.6C41.6634 22.6 41.324 22.4918 41.1238 22.2756C40.9255 22.0573 40.8194 21.788 40.8054 21.4676L41.325 21.4676ZM45.3197 19.1669C45.6821 19.1669 45.9765 19.255 46.2027 19.4312C46.431 19.6074 46.5682 19.9108 46.6142 20.3413L46.0886 20.3413C46.0566 20.1431 45.9835 19.9789 45.8694 19.8487C45.7552 19.7166 45.572 19.6505 45.3197 19.6505C44.9753 19.6505 44.729 19.8187 44.5808 20.1551C44.4847 20.3733 44.4367 20.6426 44.4367 20.963C44.4367 21.2854 44.5047 21.5567 44.6409 21.777C44.7771 21.9972 44.9913 22.1074 45.2837 22.1074C45.5079 22.1074 45.6851 22.0393 45.8153 21.9031C45.9474 21.765 46.0386 21.5767 46.0886 21.3385L46.6142 21.3385C46.5542 21.765 46.404 22.0773 46.1637 22.2756C45.9234 22.4718 45.6161 22.5699 45.2416 22.5699C44.8211 22.5699 44.4857 22.4167 44.2354 22.1104C43.9851 21.802 43.86 21.4176 43.86 20.957C43.86 20.3923 43.9971 19.9528 44.2715 19.6385C44.5458 19.3241 44.8952 19.1669 45.3197 19.1669ZM48.4314 22.1284C48.7898 22.1284 49.0351 21.9932 49.1672 21.7229C49.3014 21.4506 49.3685 21.1482 49.3685 20.8158C49.3685 20.5155 49.3204 20.2712 49.2243 20.083C49.0721 19.7866 48.8098 19.6385 48.4374 19.6385C48.107 19.6385 47.8667 19.7646 47.7165 20.0169C47.5664 20.2692 47.4913 20.5736 47.4913 20.93C47.4913 21.2724 47.5664 21.5577 47.7165 21.786C47.8667 22.0143 48.105 22.1284 48.4314 22.1284ZM48.4524 19.1669C48.8669 19.1669 49.2173 19.3051 49.5036 19.5814C49.79 19.8577 49.9331 20.2642 49.9331 20.8008C49.9331 21.3194 49.807 21.7479 49.5547 22.0863C49.3024 22.4247 48.9109 22.5939 48.3803 22.5939C47.9378 22.5939 47.5864 22.4448 47.3261 22.1464C47.0658 21.8461 46.9356 21.4436 46.9356 20.939C46.9356 20.3984 47.0728 19.9678 47.3471 19.6475C47.6214 19.3271 47.9899 19.1669 48.4524 19.1669ZM50.5939 19.26L51.1075 19.26L51.1075 19.8157C51.1496 19.7075 51.2527 19.5764 51.4169 19.4222C51.5811 19.266 51.7703 19.1879 51.9846 19.1879C51.9946 19.1879 52.0116 19.1889 52.0356 19.1909C52.0597 19.1929 52.1007 19.1969 52.1588 19.2029L52.1588 19.7736C52.1267 19.7676 52.0967 19.7636 52.0687 19.7616C52.0426 19.7596 52.0136 19.7586 51.9816 19.7586C51.7092 19.7586 51.5 19.8467 51.3538 20.0229C51.2076 20.1971 51.1346 20.3984 51.1346 20.6266L51.1346 22.4768L50.5939 22.4768L50.5939 19.26ZM53.9849 22.1134C54.2372 22.1134 54.4465 22.0083 54.6127 21.798C54.7809 21.5858 54.865 21.2694 54.865 20.8489C54.865 20.5926 54.8279 20.3723 54.7538 20.1881C54.6137 19.8337 54.3574 19.6565 53.9849 19.6565C53.6105 19.6565 53.3542 19.8437 53.216 20.2181C53.1419 20.4184 53.1049 20.6727 53.1049 20.981C53.1049 21.2293 53.1419 21.4406 53.216 21.6148C53.3562 21.9472 53.6125 22.1134 53.9849 22.1134ZM52.5853 19.275L53.1109 19.275L53.1109 19.7015C53.219 19.5554 53.3372 19.4422 53.4653 19.3621C53.6475 19.242 53.8618 19.1819 54.1081 19.1819C54.4725 19.1819 54.7819 19.3221 55.0362 19.6024C55.2905 19.8807 55.4176 20.2792 55.4176 20.7978C55.4176 21.4987 55.2344 21.9992 54.868 22.2996C54.6357 22.4898 54.3654 22.5849 54.057 22.5849C53.8147 22.5849 53.6115 22.5319 53.4473 22.4257C53.3512 22.3657 53.2441 22.2626 53.1259 22.1164L53.1259 23.7593L52.5853 23.7593L52.5853 19.275ZM56.0514 19.275L56.601 19.275L56.601 22.4768L56.0514 22.4768L56.0514 19.275ZM56.0514 18.0646L56.601 18.0646L56.601 18.6773L56.0514 18.6773L56.0514 18.0646ZM57.421 19.26L57.9346 19.26L57.9346 19.7166C58.0868 19.5283 58.248 19.3932 58.4182 19.3111C58.5884 19.229 58.7776 19.1879 58.9858 19.1879C59.4424 19.1879 59.7507 19.3471 59.9109 19.6655C59.999 19.8397 60.0431 20.089 60.0431 20.4134L60.0431 22.4768L59.4934 22.4768L59.4934 20.4494C59.4934 20.2532 59.4644 20.095 59.4063 19.9749C59.3102 19.7746 59.136 19.6745 58.8837 19.6745C58.7556 19.6745 58.6504 19.6875 58.5683 19.7135C58.4202 19.7576 58.29 19.8457 58.1779 19.9779C58.0878 20.084 58.0287 20.1941 58.0007 20.3082C57.9746 20.4204 57.9616 20.5816 57.9616 20.7918L57.9616 22.4768L57.421 22.4768L57.421 19.26ZM60.9531 18.362L61.4998 18.362L61.4998 19.26L62.0134 19.26L62.0134 19.7015L61.4998 19.7015L61.4998 21.801C61.4998 21.9131 61.5378 21.9882 61.6139 22.0263C61.656 22.0483 61.7261 22.0593 61.8242 22.0593C61.8502 22.0593 61.8782 22.0593 61.9083 22.0593C61.9383 22.0573 61.9734 22.0543 62.0134 22.0503L62.0134 22.4768C61.9513 22.4948 61.8862 22.5078 61.8182 22.5159C61.7521 22.5239 61.68 22.5279 61.6019 22.5279C61.3496 22.5279 61.1784 22.4638 61.0883 22.3356C60.9982 22.2055 60.9531 22.0373 60.9531 21.831L60.9531 19.7015L60.5176 19.7015L60.5176 19.26L60.9531 19.26L60.9531 18.362ZM62.6862 21.822L63.3139 21.822L63.3139 22.4768L62.6862 22.4768L62.6862 21.822ZM65.5095 19.1669C65.872 19.1669 66.1663 19.255 66.3926 19.4312C66.6208 19.6074 66.758 19.9108 66.8041 20.3413L66.2784 20.3413C66.2464 20.1431 66.1733 19.9789 66.0592 19.8487C65.945 19.7166 65.7618 19.6505 65.5095 19.6505C65.1651 19.6505 64.9188 19.8187 64.7707 20.1551C64.6745 20.3733 64.6265 20.6426 64.6265 20.963C64.6265 21.2854 64.6946 21.5567 64.8307 21.777C64.9669 21.9972 65.1811 22.1074 65.4735 22.1074C65.6977 22.1074 65.875 22.0393 66.0051 21.9031C66.1373 21.765 66.2284 21.5767 66.2784 21.3385L66.8041 21.3385C66.744 21.765 66.5938 22.0773 66.3535 22.2756C66.1132 22.4718 65.8059 22.5699 65.4314 22.5699C65.0109 22.5699 64.6755 22.4167 64.4252 22.1104C64.1749 21.802 64.0498 21.4176 64.0498 20.957C64.0498 20.3923 64.187 19.9528 64.4613 19.6385C64.7356 19.3241 65.085 19.1669 65.5095 19.1669ZM68.6212 22.1284C68.9796 22.1284 69.2249 21.9932 69.3571 21.7229C69.4912 21.4506 69.5583 21.1482 69.5583 20.8158C69.5583 20.5155 69.5102 20.2712 69.4141 20.083C69.2619 19.7866 68.9996 19.6385 68.6272 19.6385C68.2968 19.6385 68.0565 19.7646 67.9063 20.0169C67.7562 20.2692 67.6811 20.5736 67.6811 20.93C67.6811 21.2724 67.7562 21.5577 67.9064 21.786C68.0565 22.0143 68.2948 22.1284 68.6212 22.1284ZM68.6422 19.1669C69.0567 19.1669 69.4071 19.3051 69.6935 19.5814C69.9798 19.8577 70.123 20.2642 70.123 20.8008C70.123 21.3194 69.9968 21.7479 69.7445 22.0863C69.4922 22.4247 69.1008 22.5939 68.5701 22.5939C68.1276 22.5939 67.7762 22.4448 67.5159 22.1464C67.2556 21.8461 67.1254 21.4436 67.1254 20.939C67.1254 20.3984 67.2626 19.9678 67.5369 19.6475C67.8112 19.3271 68.1797 19.1669 68.6422 19.1669ZM70.7687 19.26L71.3034 19.26L71.3034 19.7166C71.4315 19.5584 71.5476 19.4432 71.6518 19.3711C71.83 19.249 72.0322 19.1879 72.2585 19.1879C72.5148 19.1879 72.721 19.251 72.8772 19.3771C72.9653 19.4492 73.0454 19.5554 73.1175 19.6955C73.2376 19.5233 73.3788 19.3962 73.541 19.3141C73.7032 19.23 73.8854 19.1879 74.0876 19.1879C74.5202 19.1879 74.8145 19.3441 74.9707 19.6565C75.0548 19.8247 75.0968 20.0509 75.0968 20.3353L75.0968 22.4768L74.5352 22.4768L74.5352 20.2422C74.5352 20.0279 74.4811 19.8807 74.373 19.8006C74.2669 19.7206 74.1367 19.6805 73.9825 19.6805C73.7703 19.6805 73.5871 19.7516 73.4329 19.8938C73.2807 20.0359 73.2046 20.2732 73.2046 20.6056L73.2046 22.4768L72.655 22.4768L72.655 20.3773C72.655 20.1591 72.6289 19.9999 72.5769 19.8998C72.4948 19.7496 72.3416 19.6745 72.1173 19.6745C71.9131 19.6745 71.7269 19.7536 71.5587 19.9118C71.3925 20.07 71.3094 20.3563 71.3094 20.7708L71.3094 22.4768L70.7687 22.4768L70.7687 19.26Z" fill="white"/>
<path d="M57.1409 15.2018C56.2273 15.2586 55.3276 14.957 54.6328 14.361C54.3988 14.1391 54.2219 13.864 54.117 13.5591C54.0121 13.2542 53.9824 12.9284 54.0303 12.6095C54.2091 11.8802 54.5467 11.1994 55.019 10.6157C55.4913 10.0319 56.0867 9.55969 56.7626 9.23266C58.0015 8.49087 59.4106 8.08068 60.8541 8.04164C61.7681 7.98179 62.669 8.28376 63.3623 8.88236C63.5962 9.10428 63.7732 9.37938 63.878 9.68431C63.9829 9.98923 64.0127 10.315 63.9648 10.6339C63.786 11.3632 63.4484 12.044 62.9761 12.6277C62.5038 13.2115 61.9084 13.6837 61.2324 14.0107C59.9935 14.7525 58.5844 15.1627 57.1409 15.2018ZM60.8541 9.19062C59.6175 9.22203 58.4103 9.57452 57.3511 10.2135C56.8325 10.4639 56.3708 10.8183 55.9948 11.2546C55.6188 11.6908 55.3364 12.1997 55.1652 12.7497C55.1383 12.8944 55.1486 13.0437 55.1951 13.1834C55.2417 13.3231 55.323 13.4487 55.4315 13.5483C55.9145 13.9325 56.5259 14.1179 57.1409 14.0668C58.3831 14.0304 59.5947 13.6732 60.6579 13.0299C61.1766 12.7795 61.6383 12.4251 62.0143 11.9888C62.3903 11.5526 62.6726 11.0437 62.8438 10.4937C62.867 10.349 62.8549 10.2008 62.8085 10.0618C62.7622 9.92274 62.683 9.79694 62.5776 9.69505C62.0869 9.31629 61.4716 9.13619 60.8541 9.19062Z" fill="black"/>
<path fill-rule="evenodd" clip-rule="evenodd" d="M77.3321 8.79874C77.6468 8.79782 77.9595 8.84993 78.2569 8.95287C78.4662 9.02837 78.6407 9.1779 78.7473 9.37323C78.8338 9.54681 78.8724 9.74025 78.8594 9.93371C78.8313 10.1577 78.7548 10.3728 78.6352 10.5642C78.4776 10.8074 78.2784 11.0208 78.0467 11.1948C77.7801 11.4228 77.4887 11.6202 77.178 11.7833C76.8502 11.9605 76.502 12.097 76.1411 12.1896C75.7505 12.2801 75.351 12.3271 74.9501 12.3298L74.5718 12.3298L74.3756 12.3298L74.1654 12.3298L74.2635 11.2088L74.4036 11.2088L74.5718 11.2088L74.838 11.2088C74.9917 11.2239 75.1466 11.2239 75.3004 11.2088C75.4214 11.2236 75.5437 11.2236 75.6647 11.2088C75.7738 11.1596 75.8772 11.0985 75.973 11.0266C76.0572 10.9675 76.1327 10.8967 76.1971 10.8165C76.2104 10.7517 76.2104 10.685 76.1971 10.6203C76.2032 10.5644 76.2032 10.508 76.1971 10.4522C76.1887 10.4221 76.1727 10.3947 76.1506 10.3726C76.1285 10.3505 76.1011 10.3345 76.071 10.326C75.9973 10.3087 75.9206 10.3087 75.8468 10.326L74.6698 10.326L71.9936 14.964L69.6676 14.964L73.0585 9.07898L77.3321 8.79874ZM70.0599 8.79874C70.4159 8.7983 70.7699 8.85023 71.1108 8.95287C71.3404 9.01663 71.5424 9.15459 71.6853 9.34521C71.7785 9.50709 71.8268 9.69088 71.8254 9.87766C71.8216 10.0871 71.7584 10.2912 71.6433 10.4662C71.5219 10.6448 71.3756 10.8052 71.2089 10.9426C71.025 11.1177 70.8231 11.2727 70.6064 11.405C70.3689 11.5459 70.1206 11.6678 69.8637 11.7693C69.6045 11.867 69.3373 11.942 69.065 11.9935L69.2052 14.5436L66.5429 14.5436L66.7671 11.3629L67.0473 11.3629C67.2759 11.3782 67.5053 11.3782 67.7339 11.3629C67.9238 11.3295 68.1111 11.2827 68.2944 11.2228C68.444 11.2301 68.5939 11.2254 68.7428 11.2088C68.848 11.1444 68.9425 11.064 69.023 10.9706C69.0765 10.9054 69.1058 10.8237 69.1058 10.7394C69.1058 10.6551 69.0765 10.5734 69.023 10.5082C68.9503 10.4301 68.8586 10.3721 68.7568 10.3401C68.5984 10.323 68.4387 10.323 68.2804 10.3401L67.2575 10.3401L64.6232 14.908L62.2832 14.908L65.6741 9.02293L70.0599 8.79874ZM54.6467 10.1999L54.3665 10.1999L54.0442 10.1999L53.876 10.1999L53.7079 10.1999L52.8392 10.1999C52.4961 10.2055 52.1541 10.2383 51.8163 10.298C51.4739 10.3556 51.1366 10.4399 50.8074 10.5502C50.475 10.66 50.1661 10.8311 49.8966 11.0547C49.6294 11.2777 49.4061 11.5485 49.2381 11.8533C49.0716 12.1008 48.966 12.384 48.9298 12.6801C48.9145 12.7834 48.9229 12.8888 48.9545 12.9884C48.986 13.0879 49.0399 13.1789 49.112 13.2545C49.2897 13.4084 49.5007 13.5187 49.7285 13.5768C50.0242 13.6625 50.3316 13.7004 50.6393 13.6889L51.0316 13.6889L51.494 13.6889L51.7322 13.6889L51.9844 13.6889L52.2366 13.6889L52.5029 13.6889L52.9092 13.6889L51.8443 15.0901L51.2278 15.1602L50.6393 15.1602L50.0928 15.1602L49.6164 15.1602C49.028 15.1733 48.4401 15.1169 47.8649 14.992C47.4909 14.9167 47.146 14.737 46.87 14.4736C46.6892 14.2526 46.56 13.9941 46.4917 13.7169C46.415 13.4467 46.415 13.1605 46.4917 12.8902L46.4917 12.7081C46.5083 12.647 46.5369 12.5898 46.5758 12.5399C46.5697 12.5122 46.5697 12.4836 46.5758 12.4559L46.5758 12.3578L46.5758 12.2737L46.5758 12.1896L46.5758 11.7272L46.5758 11.6432C46.5758 11.6432 46.5758 11.6432 46.5758 11.5591C46.5686 11.5268 46.5686 11.4933 46.5758 11.461L46.6459 11.3629C46.9349 11.0168 47.2642 10.7063 47.6267 10.4381C48.0677 10.1126 48.5366 9.82661 49.0279 9.58341C49.5761 9.314 50.1547 9.1117 50.7514 8.9809C51.567 8.78049 52.4059 8.69094 53.2455 8.71467L53.6939 8.71467L54.1703 8.71467L54.6467 8.71467L55.1231 8.71467L54.6467 10.1999Z" fill="black"/>
<path fill-rule="evenodd" clip-rule="evenodd" d="M46.758 10.1995L46.3377 10.1155L45.9593 10.1155L45.6231 10.1155L45.3148 10.1155L44.8804 10.1155C44.7499 10.136 44.6227 10.1737 44.5021 10.2276C44.4073 10.2553 44.3174 10.2979 44.2359 10.3537C44.1735 10.3986 44.121 10.4558 44.0817 10.5218C44.0767 10.559 44.0767 10.5967 44.0817 10.6339C44.0749 10.6757 44.0749 10.7183 44.0817 10.76L44.1798 10.8721L44.3059 10.9702L44.418 11.0543L44.5441 11.1243C44.6843 11.1851 44.8125 11.2705 44.9225 11.3765C45.0255 11.4643 45.107 11.5745 45.1607 11.6988C45.2188 11.8129 45.2567 11.9361 45.2728 12.0631C45.2868 12.1888 45.2868 12.3157 45.2728 12.4414C45.261 12.4779 45.261 12.5171 45.2728 12.5535L45.2728 12.6656C45.1476 12.871 44.9805 13.0477 44.7823 13.1841C44.5332 13.3622 44.2654 13.5125 43.9837 13.6325C43.6384 13.7803 43.2759 13.8838 42.9047 13.9407C42.4403 14.0041 41.9722 14.0369 41.5035 14.0388L41.0411 14.0388L40.5647 14.0388L40.0603 14.0388L39.5418 13.9688L40.1163 12.5676L40.2985 12.5676L40.4666 12.6376L40.6628 12.6376C40.7326 12.6469 40.8032 12.6469 40.873 12.6376L40.9571 12.6376L41.1252 12.6376L41.2933 12.6376L41.5456 12.6376L41.7978 12.6376C41.9282 12.6515 42.0597 12.6515 42.1901 12.6376C42.3193 12.6261 42.4465 12.5978 42.5684 12.5535C42.6759 12.5181 42.7793 12.4711 42.8767 12.4134C42.9568 12.353 43.0236 12.2767 43.0729 12.1892C43.0794 12.1737 43.0828 12.157 43.0828 12.1402C43.0828 12.1233 43.0794 12.1067 43.0729 12.0911L43.0729 12.6096C43.0794 12.582 43.0794 12.5532 43.0729 12.5255L43.0168 12.4695C43.0208 12.4416 43.0208 12.4133 43.0168 12.3854L42.9468 12.3153L42.8627 12.3153L42.7646 12.2453L42.5684 12.0911L42.3723 11.937L42.2462 11.8249L42.036 11.6568L41.9239 11.5307L41.8398 11.3906L41.7698 11.2084C41.7617 11.1433 41.7617 11.0774 41.7698 11.0122C41.7558 10.9429 41.7558 10.8714 41.7698 10.802C41.7624 10.7275 41.7624 10.6524 41.7698 10.5779L41.7698 10.4938C41.7615 10.4616 41.7615 10.4279 41.7698 10.3957C41.7637 10.368 41.7637 10.3393 41.7698 10.3116L41.7698 10.2135C41.9066 10.0174 42.0719 9.84262 42.2602 9.6951C42.4988 9.51633 42.7575 9.36586 43.0308 9.24672C43.3705 9.09395 43.7284 8.98563 44.0957 8.92445C44.5591 8.85095 45.0279 8.81813 45.4969 8.82636L46.3096 8.82636L46.772 8.82636L47.2064 8.82636L46.758 10.1995ZM40.0883 8.79834L42.036 8.79834L38.6591 14.291L36.0108 14.291L35.2402 10.9282L33.1244 14.3471L31.1206 14.3471L34.4975 8.85439L37.1878 8.85439L37.8324 12.4835L40.0883 8.79834ZM28.6826 11.6007L28.8647 10.0454L26.9591 11.6288L28.6826 11.6007ZM31.0226 8.79834L30.6723 14.291L28.2482 14.291L28.4443 12.7497L25.754 12.7497L23.8204 14.3471L21.4524 14.3471L28.2342 8.85439L31.0226 8.79834ZM21.8867 8.79834C22.2279 8.7983 22.5674 8.84546 22.8956 8.93846C23.1189 8.99123 23.3141 9.12634 23.4421 9.31678C23.5245 9.4671 23.5679 9.63574 23.5682 9.8072C23.5494 10.0029 23.482 10.1907 23.372 10.3537C23.2508 10.5198 23.1096 10.6704 22.9516 10.802C22.7691 10.9645 22.5721 11.1099 22.3631 11.2364C22.1299 11.3683 21.8862 11.4808 21.6345 11.5727C21.3872 11.6739 21.1284 11.7445 20.8639 11.7829L20.9479 14.1649L18.4258 14.1649L18.706 11.1944L18.9442 11.1944C19.1682 11.2092 19.3928 11.2092 19.6168 11.1944C19.9521 11.1409 20.275 11.027 20.5696 10.8581C20.6763 10.8078 20.7717 10.7363 20.8498 10.6479C20.919 10.613 20.9772 10.5597 21.018 10.4938C21.0055 10.417 20.9657 10.3473 20.9059 10.2976C20.841 10.22 20.7523 10.1659 20.6537 10.1435C20.5052 10.1194 20.3538 10.1194 20.2053 10.1435L19.1684 10.1435L16.5342 14.4171L14.3343 14.4171L17.7252 8.92445L21.8867 8.79834ZM9.62624 10.0174L10.3829 8.79834L17.2628 8.79834L16.5061 10.0174L14.2362 10.0174L11.6019 14.3471L9.24792 14.3471L11.8822 10.1435L9.62624 10.0174Z" fill="black"/>
<path fill-rule="evenodd" clip-rule="evenodd" d="M51.3678 10.7045C53.644 10.1052 56.051 10.2375 58.2477 11.0828C60.043 9.69143 62.287 9.00826 64.5531 9.16318L64.9314 9.24726C64.9866 9.25788 65.0362 9.28766 65.0715 9.33133C65.0882 9.35733 65.0989 9.38668 65.103 9.41731C65.107 9.44793 65.1043 9.47906 65.0949 9.50849C65.0855 9.53792 65.0698 9.56493 65.0488 9.58759C65.0278 9.61025 65.0021 9.628 64.9735 9.63959C64.3009 9.90582 63.3621 10.074 62.8156 10.2841C61.6175 10.6706 60.5599 11.4017 59.775 12.3859C59.5648 12.6802 59.4667 12.8764 59.1865 13.2967C56.8993 11.8319 54.238 11.0583 51.5219 11.0688C51.1997 11.0688 51.1436 10.9847 51.2137 10.8867C51.253 10.8167 51.3053 10.7549 51.3678 10.7045Z" fill="#EC1C24"/>
</g>
<defs>
<linearGradient id="paint0_linear_639_2632" x1="0.000127764" y1="169.991" x2="214.398" y2="169.991" gradientUnits="userSpaceOnUse">
<stop stop-color="#FDCE38"/>
<stop offset="1" stop-color="#F6C758"/>
</linearGradient>
<linearGradient id="paint1_linear_639_2632" x1="14.3344" y1="307.168" x2="11.5881" y2="314.328" gradientUnits="userSpaceOnUse">
<stop stop-color="#4167AE"/>
<stop offset="1" stop-color="#4EA3DB"/>
</linearGradient>
<linearGradient id="paint2_linear_639_2632" x1="43.4934" y1="310.49" x2="68.9252" y2="310.49" gradientUnits="userSpaceOnUse">
<stop stop-color="#4EA4DB"/>
<stop offset="1" stop-color="#4064AC"/>
</linearGradient>
<linearGradient id="paint3_linear_639_2632" x1="43.4935" y1="310.545" x2="68.9252" y2="310.545" gradientUnits="userSpaceOnUse">
<stop stop-color="#4EA4DB"/>
<stop offset="1" stop-color="#4064AC"/>
</linearGradient>
<linearGradient id="paint4_linear_639_2632" x1="43.4933" y1="310.447" x2="68.9251" y2="310.447" gradientUnits="userSpaceOnUse">
<stop stop-color="#4EA4DB"/>
<stop offset="1" stop-color="#4064AC"/>
</linearGradient>
<linearGradient id="paint5_linear_639_2632" x1="43.4935" y1="311.974" x2="68.9253" y2="311.974" gradientUnits="userSpaceOnUse">
<stop stop-color="#4EA4DB"/>
<stop offset="1" stop-color="#4064AC"/>
</linearGradient>
<linearGradient id="paint6_linear_639_2632" x1="43.4934" y1="310.49" x2="68.9252" y2="310.49" gradientUnits="userSpaceOnUse">
<stop stop-color="#4EA4DB"/>
<stop offset="1" stop-color="#4064AC"/>
</linearGradient>
<clipPath id="clip0_639_2632">
<rect width="214.398" height="340" fill="white"/>
</clipPath>
</defs>
</svg>
