<svg width="25" height="24" viewBox="0 0 25 24" fill="none" xmlns="http://www.w3.org/2000/svg">
<path d="M18.6723 22.1183C17.4746 23.2793 16.167 23.096 14.9082 22.546C13.5761 21.9839 12.354 21.9594 10.9486 22.546C9.18878 23.3037 8.25999 23.0837 7.20898 22.1183C1.24515 15.9713 2.12506 6.61027 8.89548 6.26809C10.5453 6.35363 11.6941 7.17242 12.6595 7.24574C14.1016 6.95245 15.4826 6.10922 17.0224 6.21921C18.8678 6.36585 20.261 7.0991 21.1776 8.41893C17.3646 10.7042 18.269 15.7269 21.7642 17.1323C21.0676 18.9654 20.1632 20.7863 18.66 22.1305L18.6723 22.1183ZM12.5373 6.19477C12.354 3.46955 14.566 1.22095 17.108 1.00098C17.4624 4.15391 14.2483 6.50028 12.5373 6.19477Z" fill="white"/>
</svg>
