<svg fill="none" height="112" viewBox="0 0 111 112" width="111" xmlns="http://www.w3.org/2000/svg"><g fill="#0c97f0"><path d="m69.5401 1.15352c-5.9198 1.08973-11.006 4.76488-13.8911 9.99988-.8335 1.517-1.8807 4.4016-2.1158 5.8118l-.1495.8547-1.9662-1.9444c-3.9109-3.8461-8.3133-5.6409-13.8484-5.6409h-2.3721l-.748.7478-.7694.7692.1282 2.9274c.0855 2.3076.2138 3.3119.6625 4.8076 2.415 8.0768 8.9117 13.4399 17.396 14.3587l1.325.1496v7.7777 7.7776l-23.5508.0427-23.57217.0641-1.17541.577c-1.51733.7478-2.84233 2.0726-3.59032 3.5683l-.577014 1.1965v24.8928 24.8924l.577014 1.197c.74799 1.496 2.07299 2.82 3.59032 3.568l1.17541.577 19.98187.064c14.7887.043 20.1314-.021 20.5802-.192 1.0472-.427 1.4746-1.731.9617-2.863-.5343-1.197-.2564-1.175-15.2375-1.175h-13.7843v-.513c0-.834-.8334-3.333-1.6455-4.851-1.4746-2.8414-3.9323-5.2986-6.6891-6.7089-1.51737-.7692-4.03915-1.6025-4.82987-1.6025h-.51291v-12.3502-12.3289l1.23952-.235c2.88508-.5556 5.66326-2.0727 7.94996-4.359 2.2867-2.2862 3.8041-5.064 4.3597-7.9486l.2351-1.2393h36.6512 36.6512l.2351 1.2393c.5556 2.8846 2.073 5.6624 4.3597 7.9486 2.2867 2.2863 5.0646 3.8034 7.9496 4.359l1.24.235v12.3289 12.3502h-.513c-.919 0-3.804 1.0256-5.471 1.9444-2.0943 1.1752-4.5734 3.6538-5.7488 5.7478-.9189 1.6662-1.9447 4.5512-1.9447 5.4702v.513h-13.7843c-14.981 0-14.7032-.022-15.2375 1.175-.5129 1.132-.0855 2.436.9617 2.863.4488.171 5.7915.235 20.5802.192l19.9814-.064 1.219-.598c1.538-.748 2.778-1.987 3.526-3.526l.598-1.218v-24.8924-24.8928l-.598-1.2179c-.748-1.5384-1.988-2.7777-3.526-3.5256l-1.219-.5983-20.6225-.0641-20.623-.0427 1.7097-.7478c5.8129-2.5427 10.1726-7.8845 11.4548-14.1024.4702-2.2435.5343-5.9187.1283-6.7307-.6412-1.2606-3.0775-1.6239-6.796-.9615-4.3811.7692-7.7149 2.4786-10.8137 5.5769l-1.5601 1.5384v-4.7649-4.7435l1.5601-.1282c8.4843-.7265 15.7504-7.2221 17.4814-15.64079.4702-2.24356.5343-5.91871.1283-6.73067-.4488-.91879-1.5174-1.282027-3.6758-1.26066-1.0472 0-2.5859.14957-3.4194.29914zm3.0988 4.76488c0 1.3675-.7907 4.1025-1.7524 6.0256-1.2823 2.564-4.0178 5.299-6.5823 6.581-1.9447.9616-4.6589 1.7522-6.048 1.7522h-.8548l.1496-1.3034c.6625-5.7051 4.5947-10.81184 9.9375-12.82036 1.4105-.53418 3.4835-1.00425 4.4665-1.02562.6625-.02137.6839.02137.6839.79058zm-31.4367 8.9315c5.1504 1.282 9.5101 5.235 11.1129 10.0853.5343 1.5384 1.0258 4.4657.8121 4.6794-.0855.0641-1.0044 0-2.0302-.1923-3.4408-.5983-6.0908-1.9658-8.4843-4.3375-2.5004-2.4786-4.1674-5.8546-4.5093-9.1452l-.1496-1.4316h.919c.5129 0 1.56.1496 2.3294.3419zm31.4367 16.8801c0 1.4102-.6839 3.8247-1.6456 5.8546-.8334 1.7307-1.2609 2.2863-2.9278 3.9529-2.7355 2.7136-5.7488 4.2094-9.1681 4.5299l-1.496.1282.1496-1.3248c.7693-6.8375 6.1762-12.5639 12.9081-13.6964 2.0516-.3418 2.1798-.2991 2.1798.5556zm-58.4282 22.6706c-.9831 4.252-4.53068 7.8204-8.61253 8.7178l-.70525.1495v-3.611c0-4.017.1496-4.5512 1.53871-5.4059.64113-.3846 1.08992-.4274 4.31697-.4274h3.5903zm90.0783-.0855c1.304.8547 1.475 1.5171 1.475 5.4273 0 1.923-.086 3.4828-.171 3.4828-.107 0-.684-.1496-1.304-.3419-3.291-.9615-6.24-3.782-7.4368-7.0511-.2565-.7693-.4915-1.5171-.4915-1.688 0-.2778.5984-.3206 3.6117-.3206 3.3766 0 3.6326.0214 4.3166.4915zm-97.60091 42.6703c2.37217.8119 4.21011 2.2222 5.72741 4.3586.8548 1.24 1.8807 3.633 1.8807 4.423 0 .107-1.5601.193-3.4621.193-3.9323 0-4.5948-.171-5.44964-1.475-.47016-.683-.49154-.94-.49154-4.316 0-2.8845.06412-3.611.27783-3.611.17096 0 .85484.1923 1.51734.4274zm99.03291 3.2906c-.064 3.376-.107 3.782-.513 4.337-.855 1.176-1.538 1.347-5.4066 1.347h-3.4835l.1069-.599c.7052-3.483 3.7822-6.9868 7.2872-8.2902 2.244-.8333 2.095-1.0683 2.009 3.2052z"/><path d="m52.8705 62.4994c-6.8601 1.1111-12.5661 6.1537-14.4681 12.7989-.6412 2.2436-.6839 6.7093-.0855 8.8674 1.4318 5.2136 4.9794 9.4229 9.8306 11.6451 2.5645 1.1966 3.9536 1.4744 7.1807 1.4744 2.3721 0 3.1842-.0855 4.5947-.4701 5.9839-1.7308 10.7282-6.5598 12.4166-12.6494.5342-1.9444.5342-6.6025 0-8.5469-1.667-6.0683-6.4113-10.9186-12.3097-12.6066-1.5815-.4487-5.7061-.7479-7.1593-.5128zm6.0907 4.6366c6.9456 2.2222 10.9206 9.0811 9.1895 15.8331-1.2395 4.8718-4.8725 8.5042-9.7451 9.7435-6.1335 1.5811-12.6516-1.688-15.1948-7.5854-.8762-2.0299-1.0258-2.7563-1.0258-5.2349s.1496-3.2051 1.0258-5.235c1.2609-2.97 3.5262-5.2991 6.5182-6.7093 1.0685-.5128 1.7096-.7265 3.5689-1.1752.7907-.1923 4.7016.0641 5.6633.3632z"/><path d="m22.5027 73.2471c-1.0472.2564-2.8637 1.3461-3.4193 2.0085-.2992.3632-.7908 1.1324-1.1113 1.7307-.4702.9188-.5557 1.3675-.5557 2.906-.0213 1.6666.0428 1.923.7053 3.1623.8121 1.4957 1.4959 2.1367 3.0988 2.9914.9189.4701 1.3677.5556 2.9064.5556s1.9875-.0855 2.9065-.5556c1.6028-.8547 2.2867-1.4957 3.0987-2.9914.6625-1.2393.7267-1.4957.7053-3.1623 0-1.5385-.0855-1.9872-.5557-2.906-.8334-1.6025-1.4959-2.2863-2.9278-3.0555-1.3891-.7265-3.5048-1.047-4.8512-.6837zm3.4194 4.9144c.5556.5769.6625.8333.6625 1.7308 0 .9188-.1069 1.1538-.7053 1.7521s-.8334.7051-1.7524.7051c-.9189 0-1.154-.1068-1.7524-.7051s-.7053-.8333-.7053-1.7308c0-1.1111.5343-1.9658 1.496-2.3931.7907-.3419 2.0516-.0641 2.7569.641z"/><path d="m84.9272 73.2491c-2.8851.7479-4.9367 3.2051-5.1932 6.1324-.2137 2.6923 1.1327 5.1281 3.5903 6.4743 1.2823.7051 1.5174.7692 3.2057.7692 1.5387-.0214 1.9875-.1068 2.9064-.5769 1.6029-.8547 2.2867-1.4957 3.0988-2.9914.6625-1.2393.7266-1.4957.7053-3.1624 0-1.5384-.0855-1.9871-.5557-2.9059-.8334-1.6025-1.4959-2.2863-2.9278-3.0555-1.3891-.7265-3.5048-1.047-4.8298-.6838zm3.3979 4.9145c.5557.5769.6625.8333.6625 1.7307 0 .9188-.1068 1.1539-.7052 1.7521-.5984.5983-.8335.7052-1.7524.7052-.919 0-1.154-.1069-1.7524-.7052-.5984-.5982-.7053-.8333-.7053-1.7307 0-1.1111.5343-1.9658 1.496-2.3931.7907-.3419 2.0516-.0641 2.7568.641z"/><path d="m54.2811 106.26c-1.8593 1.026-1.0686 3.974 1.0472 3.974 1.0899 0 2.1371-1.047 2.1371-2.115 0-1.603-1.7738-2.65-3.1843-1.859z"/></g></svg>