<svg fill="none" height="106" viewBox="0 0 106 106" width="106" xmlns="http://www.w3.org/2000/svg"><g fill="#0c97f0"><path d="m92.3225 1.71386v1.70938h1.325 1.3464l-3.4194 3.41875-3.4193 3.41871h-10.2581-10.2367l-7.0738 7.0512-7.0524 7.0512 1.2395 1.2179 1.2181 1.2393 6.5823-6.5811 6.5609-6.5597h10.2367 10.258l3.9109-3.88884 3.9109-3.88883v1.32477 1.32476h1.7097 1.7098v-3.73926c0-5.085387.278-4.8076138-4.8086-4.8076138h-3.7399z"/><path d="m18.8492 17.417c-3.6544.7905-7.2875 3.6537-8.89033 6.987-1.88064 3.9316-1.85927 7.2649.08553 12.1366.4915 1.2393.9403 2.3718 1.0044 2.5.0855.1923-.1282.2777-.6839.2777-2.75684 0-5.23587 2.4359-5.23587 5.1282 0 1.3461.49153 2.4358 1.60282 3.5255 1.23952 1.2393 2.17984 1.6026 4.21005 1.6026h1.3891l.4702 1.4316c1.0044 3.1196 3.4194 6.2178 6.1976 7.9699l1.496.9616.0213 1.8375v1.8376l-5.706 1.4316c-7.07381 1.7735-8.20647 2.2863-10.66413 4.7222-1.36774 1.3461-1.92339 2.094-2.62863 3.5256-1.495969 3.0768-1.51734 3.1409-1.51734 18.2262v13.4186l.534274.513.512906.534h26.30762 26.3077l.5129-.534c.5343-.513.5343-.513.5343-5.128v-4.5943h6.3044 6.3258l.5129.5342c.5129.4914.5343.6624.5343 2.8846 0 2.2225-.0214 2.3935-.5343 2.8845-.5129.534-.5129.534-5.129.534h-4.5948v1.71 1.709h4.6803c4.7871 0 5.5564-.107 6.7105-.897.577-.406.577-.406 1.1754 0 .3205.213.8975.512 1.3036.641 1.0685.363 29.2352.363 30.4532 0 1.176-.342 2.95-2.116 3.292-3.291.32-1.111.341-5.5555 0-6.517-.129-.406-.428-.9829-.642-1.3034-.406-.5983-.406-.5983 0-1.1752.706-1.0256.898-1.9871.898-4.5512 0-2.564-.192-3.5256-.898-4.5298-.406-.5983-.406-.5983 0-1.1752.706-1.0256.898-1.9872.898-4.5512 0-2.5641-.192-3.5256-.898-4.5512-.406-.577-.406-.577 0-1.1752.706-1.0043.898-1.9658.898-4.5299s-.192-3.5256-.898-4.5298c-.406-.5983-.406-.5983 0-1.1752.214-.3419.513-.9188.642-1.3248.341-.9615.32-5.4059 0-6.517-.342-1.1752-2.116-2.9487-3.292-3.2905-.598-.171-2.8633-.2564-7.223-.2564h-6.3258v-3.3974-3.3974l3.8041-.0855c4.1032-.1068 5.2572-.3846 7.6077-1.7521 3.014-1.7735 5.3-5.5341 5.621-9.252.107-1.453.085-1.5384-.449-2.094l-.577-.5769-4.958.0855c-5.2572.1068-5.8129.1923-8.1851 1.4102-1.2609.641-3.0988 2.2436-3.8254 3.3333-.3419.5342-.6838.9829-.748.9829-.0641 0-.2991-.2991-.4915-.641-.5556-.9188-2.4363-2.735-3.5476-3.376-.5129-.2992-1.56-.7906-2.3508-1.0898-1.325-.4914-1.6883-.5341-6.3685-.6196l-4.9581-.0855-.5556.5556c-.3847.3846-.5343.7692-.5343 1.3675 0 2.7991 1.3677 6.0469 3.4194 8.1195 1.4959 1.4957 2.6286 2.2222 4.6802 2.9914 1.2609.4915 1.8165.5556 5.2145.641l3.7827.0855v3.3974 3.3974h-6.3258c-4.3597 0-6.625.0854-7.2234.2564-1.2395.3632-2.9492 2.1153-3.3125 3.3973-.2992 1.0898-.2351 5.9829.0855 6.688.1496.3632.1282.3846-.2351.2137-.6411-.2992-29.4706-.3633-30.6032-.0642-.5129.1496-1.3678.6411-1.9234 1.1325-1.4746 1.3248-1.7525 1.1538-1.7525-1.047v-1.7735l1.2396-.6837c.6625-.3846 2.0088-1.4957 2.9705-2.4572 1.4319-1.4316 1.902-2.1154 2.7141-3.7607.5129-1.1111 1.0258-2.3717 1.1113-2.8204l.1283-.7906h1.3891c2.0516 0 2.9919-.3633 4.2314-1.6026 2.1799-2.158 2.1799-4.893 0-7.0511-1.1326-1.1325-2.1798-1.6026-3.633-1.6026-.5557 0-.7694-.0854-.6839-.2777.0641-.1282.5129-1.2607 1.0044-2.5 1.9448-4.8717 1.9662-8.205.0855-12.1366-1.1113-2.3076-3.5903-4.7862-5.8984-5.8973-2.6927-1.282-3.6544-1.4103-11.6044-1.3889-5.1077 0-7.4157.0855-8.3988.2992zm17.5242 3.6965c3.5689 1.4316 5.9839 4.658 6.3044 8.3759.1496 1.7735-.1496 3.1624-1.2395 5.9187l-.8762 2.2009h-1.6456c-2.0516 0-4.0177-.4701-5.6205-1.3248-1.3464-.7265-3.4408-2.7991-4.2529-4.2093-.9403-1.6881-2.3294-1.5812-3.5475.2777-2.2654 3.4829-5.5351 5.235-9.7025 5.2564h-1.6455l-.8762-2.2009c-.4702-1.1965-.9617-2.6068-1.0686-3.1409-1.1113-4.9359 2.0516-10.0426 7.0524-11.4101.9404-.2564 2.5646-.3205 8.5271-.2778 7.1379.0427 7.4157.0641 8.5911.5342zm44.0242 13.8673c1.9234.8974 3.2056 2.1367 4.1246 3.9743.406.8119.748 1.6239.748 1.7948 0 .2778-.5343.3205-3.4621.2351-3.398-.0641-3.5262-.0855-4.9154-.7479-1.9233-.8974-3.2056-2.1367-4.1246-3.9743-.406-.8119-.7479-1.6239-.7479-1.7948 0-.2778.5342-.3205 3.4834-.2351 3.3766.0641 3.5049.0855 4.894.7479zm21.9694-.4915c0 .1496-.342.9616-.748 1.7735-.919 1.8376-2.2013 3.0769-4.1246 3.9743-1.3892.6624-1.5174.6838-4.894.7479-2.9492.0854-3.4835.0427-3.4835-.2351 0-.7051 1.5601-3.3546 2.4363-4.1666 1.0472-.9615 2.6928-1.8803 3.9109-2.1581.4488-.1068 2.1799-.1923 3.8682-.2136 2.4367-.0214 3.0347.0427 3.0347.2777zm-71.7424 4.1666c2.0944 1.4103 5.1718 2.3718 7.6294 2.3718h1.0686v3.3547c0 2.158-.1069 3.846-.3206 4.658-1.6028 6.8161-8.4629 10.5981-15.3016 8.4614-3.4194-1.0683-6.4327-4.0384-7.6935-7.564-.3847-1.1111-.4702-1.9017-.5557-5.1281l-.1068-3.782h1.0899c1.4959 0 4.0818-.5555 5.4709-1.1752 1.6029-.7051 3.4835-2.0299 4.4879-3.141l.8549-.9615 1.1754 1.1111c.6411.6197 1.6456 1.4316 2.2012 1.7948zm-18.6569 5.7906v1.7093h-1.1754c-1.43182 0-2.24391-.6196-2.24391-1.7093 0-1.0898.81209-1.7094 2.24391-1.7094h1.1754zm33.6593-1.1752c.342.3205.5343.7692.5343 1.1752 0 1.0897-.8121 1.7093-2.244 1.7093h-1.1754v-1.7093-1.7094h1.1754c.9831 0 1.2823.0854 1.7097.5342zm29.5988 14.8502v3.4187h-1.1754c-.9831 0-1.2823-.0855-1.7097-.5342-.5129-.4914-.5342-.6624-.5342-2.8845 0-2.2222.0213-2.3932.5342-2.8846.4274-.4487.7266-.5342 1.7097-.5342h1.1754zm6.8387 0v3.4187h-1.7097-1.7096v-3.4187-3.4188h1.7096 1.7097zm6.8387 0v3.4187h-1.7097-1.7096v-3.4187-3.4188h1.7096 1.7097zm6.8387 0v3.4187h-1.7096-1.7097v-3.4187-3.4188h1.7097 1.7096zm6.3041-2.8846c.513.4914.535.6624.535 2.8846 0 2.2221-.022 2.3931-.535 2.8845-.427.4487-.726.5342-1.709.5342h-1.1757v-3.4187-3.4188h1.1757c.983 0 1.282.0855 1.709.5342zm-74.0928 6.1965h2.821v1.3888 1.3889l-1.7097 1.7094-1.7097 1.7094-1.7096-1.7094-1.7097-1.7094v-1.5384-1.5598l.5984.1495c.3205.1069 1.8592.171 3.4193.171zm39.8996 4.0597c.5129.4915.5343.6624.5343 2.8846s-.0214 2.3931-.5343 2.8846l-.5129.5342h-7.373-7.3516l-1.902-1.8803c-2.3294-2.3077-3.7613-3.0769-7.8431-4.1453l-3.0133-.7692 13.7415-.0214 13.7415-.0213zm34.1932 0c.513.4915.535.6624.535 2.8846s-.022 2.3931-.535 2.8846l-.513.5342h-14.3395-14.3399l-.5129-.5342c-.5129-.4915-.5342-.6624-.5342-2.8846s.0213-2.3931.5342-2.8846l.5129-.5341h14.3399 14.3395zm-78.7516 2.9914 1.6028 1.6026-1.1754 1.1752-1.1754 1.1752-1.4746-2.4572c-.8121-1.3675-1.4319-2.5-1.3891-2.5427.1068-.1069 1.4746-.5129 1.7951-.5342.1282-.0214.9403.7051 1.8166 1.5811zm10.8137-1.3675c.5129.1283.9403.2992.9403.3633s-.6411 1.2179-1.4319 2.5427l-1.4532 2.4145-1.1754-1.1752-1.1754-1.1752 1.6028-1.6026c.8762-.876 1.6242-1.6025 1.667-1.6025.0427 0 .4915.1068 1.0258.235zm-15.5367 5.3418c1.3463 2.2222 2.6072 4.1453 2.8209 4.2735.9831.5128 1.4746.2564 3.74-1.9872l2.2225-2.1794 2.2226 2.1794c2.2653 2.2436 2.7569 2.5 3.7399 1.9872.2137-.1282 1.4746-2.0513 2.821-4.2735 1.4532-2.4358 2.5645-4.0811 2.7569-4.0811.8548 0 6.1334 1.5598 7.0951 2.0726 2.4149 1.3034 4.5093 4.1453 5.0649 6.8589.1496.7479.2351 5.235.2351 13.1836v12.0722h-3.4193-3.4194v-9.4013-9.4016h-1.7097-1.7096v9.4016 9.4013h-13.6775-13.6774v-9.4013-9.4016h-1.7097-1.7096v9.4016 9.4013h-3.41939-3.41936v-12.0722c0-7.9486.08549-12.4357.23509-13.1836.55564-2.7136 2.65-5.5555 5.06491-6.8589 1.00444-.5555 6.00525-2.0085 6.98835-2.0512.3419-.0214.9617.8547 2.8637 4.0597zm49.2814 3.2906c.5129.4914.5343.6624.5343 2.8846s-.0214 2.3931-.5343 2.8845l-.5129.5342h-6.3258-6.3044v-1.9017c0-1.688-.2137-3.5042-.5557-4.5725-.1068-.3419.2992-.3633 6.5395-.3633h6.6464zm7.373 2.8846v3.4187h-1.1754c-.9831 0-1.2823-.0855-1.7097-.5342-.5129-.4914-.5342-.6623-.5342-2.8845s.0213-2.3932.5342-2.8846c.4274-.4487.7266-.5342 1.7097-.5342h1.1754zm6.8387 0v3.4187h-1.7097-1.7096v-3.4187-3.4188h1.7096 1.7097zm6.8387 0v3.4187h-1.7097-1.7096v-3.4187-3.4188h1.7096 1.7097zm6.8387 0v3.4187h-1.7096-1.7097v-3.4187-3.4188h1.7097 1.7096zm6.3041-2.8846c.513.4914.535.6624.535 2.8846s-.022 2.3931-.535 2.8845c-.427.4487-.726.5342-1.709.5342h-1.1757v-3.4187-3.4188h1.1757c.983 0 1.282.0855 1.709.5342zm-34.1932 10.2562c.5129.4915.5343.6624.5343 2.8846s-.0214 2.3931-.5343 2.8846l-.5129.5342h-6.3258-6.3044v-3.4188-3.4187h6.3044 6.3258zm34.1932 0c.513.4915.535.6624.535 2.8846s-.022 2.3931-.535 2.8846l-.513.5342h-14.3395-14.3399l-.5129-.5342c-.5129-.4915-.5342-.6624-.5342-2.8846s.0213-2.3931.5342-2.8846l.5129-.5341h14.3399 14.3395zm-26.8202 13.1409v3.4185h-1.1754c-.9831 0-1.2823-.085-1.7097-.534-.5129-.491-.5342-.662-.5342-2.8845 0-2.2222.0213-2.3932.5342-2.8846.4274-.4487.7266-.5342 1.7097-.5342h1.1754zm6.8387 0v3.4185h-1.7097-1.7096v-3.4185-3.4188h1.7096 1.7097zm6.8387 0v3.4185h-1.7097-1.7096v-3.4185-3.4188h1.7096 1.7097zm6.8387 0v3.4185h-1.7096-1.7097v-3.4185-3.4188h1.7097 1.7096zm6.3041-2.8846c.513.4914.535.6624.535 2.8846 0 2.2225-.022 2.3935-.535 2.8845-.427.449-.726.534-1.709.534h-1.1757v-3.4185-3.4188h1.1757c.983 0 1.282.0855 1.709.5342z"/></g></svg>