<svg fill="none" height="106" viewBox="0 0 106 106" width="106" xmlns="http://www.w3.org/2000/svg"><g fill="#0c97f0"><path d="m37.3177 7.95764c-.9025.3185-2.1237 1.61021-2.3715 2.49496-.1415.4777-.1946 7.9095-.1946 24.3479v23.6755h-11.2913c-12.6539 0-11.9106-.0708-13.0432 1.3094-.51328.6547-.53098.7432-.58408 2.7604l-.07079 2.0879-1.64589.0708c-1.52202.0531-1.699.0885-2.31842.584-1.11496.9201-1.30964 1.4686-1.30964 3.8043s.19468 2.8842 1.30964 3.8044c.61942.4954.7964.5308 2.33611.5839l1.6636.0708v1.7341 1.734l-1.6636.0708c-1.53971.0531-1.71669.0885-2.33611.5839-1.11496.9202-1.30964 1.4687-1.30964 3.8044s.19468 2.8842 1.30964 3.8044c.61942.4954.7964.5308 2.33611.5839l1.6636.0708v1.734 1.7341l-1.6636.0708c-1.53971.0531-1.71669.0885-2.33611.5839-1.16806.9555-1.32734 1.451-1.27424 4.0167.05309 2.1942.07079 2.2473.58403 2.902.30086.3538.8141.7962 1.15035.9732.60173.3185 2.05295.3362 42.98804.3362 32.8648 0 42.5279-.0531 43.0942-.2124.9557-.2831 2.2653-1.5925 2.5485-2.548.1592-.5662.2123-6.6886.2123-26.4182v-25.6927l-.4424-.4247c-.5486-.5662-1.2212-.5662-1.7698 0l-.4424.4247v25.675 25.675l-.4425.4247-.4247.4424h-23.0249-23.0072v-1.7518-1.7518l1.6636-.0708c1.5397-.0531 1.7167-.0884 2.3361-.5839 1.115-.9201 1.3097-1.4687 1.3097-3.8044s-.1947-2.8842-1.3097-3.8043c-.6194-.4955-.7964-.5309-2.3361-.5839l-1.6636-.0708v-1.7341-1.7341l1.6636-.0708c1.5397-.053 1.7167-.0884 2.3361-.5839 1.115-.9201 1.3097-1.4686 1.3097-3.8043s-.1947-2.8843-1.3097-3.8044c-.6194-.4955-.7964-.5308-2.3361-.5839l-1.6636-.0708v-1.7341-1.7341l1.6636-.0707c1.5397-.0531 1.7167-.0885 2.3361-.584 1.1681-.9555 1.3274-1.4509 1.2743-4.0167-.0531-2.1941-.0708-2.2472-.584-2.9019-1.0619-1.3094-1.0973-1.3094-7.2915-1.3094h-5.5395v-23.6224-23.6401l.4425-.4247.4247-.4424h18.0695 18.0695l.4247.4424c.4248.407.4425.5308.4425 2.6542v2.2118h-15.4325c-15.0078 0-15.4679.0177-16.0166.3539-1.1503.7078-1.1149.1947-1.1149 13.0941s-.0354 12.3863 1.1149 13.0941c.5487.3362 1.0442.3539 21.0959.3539 20.0516 0 20.5471-.0177 21.0958-.3539 1.1149-.6724 1.1149-.7078 1.1149-8.0511v-6.6355h2.2122c2.1238 0 2.2477.0177 2.6547.4423l.4425.4247v4.8838 4.8837l.4424.4247c.5486.5662 1.2212.5662 1.7698 0l.4424-.4247v-5.0961c0-5.4146-.1061-6.2816-.9025-7.8918-.5133-1.0263-15.5387-16.04911-16.5652-16.56226-1.8583-.92012-1.3981-.90243-21.202-.90243-15.4148.0177-18.5296.05309-19.1137.26543zm46.9878 10.61686 6.2827 6.2816h-5.8934-5.8934l-.4247-.4424-.4424-.4247v-5.8569c0-3.2028.0176-5.8393.053-5.8393.0177 0 2.8671 2.8312 6.3182 6.2817zm-9.0259 2.6011c0 1.5925.0885 3.2027.1947 3.592.2477.9024 1.6459 2.3003 2.5838 2.548.3717.1062 1.9645.1947 3.5573.1947h2.867v6.1931 6.1932h-19.556-19.5561v-10.7938-10.7938h14.9546 14.9547zm-27.1662 41.7241v1.681h-17.7863-17.7863l-.0531-1.4864c-.0354-.8139-.0177-1.5925.0354-1.7341.0885-.1946 3.1502-.23 17.8394-.1946l17.7509.0531zm-5.3093 6.1931v1.681h-17.7863-17.78636l-.05309-1.4863c-.0354-.814-.0177-1.5926.0354-1.7341.08849-.1947 3.15025-.2301 17.83945-.1947l17.7509.0531zm5.3093 6.1932v1.681h-17.7863-17.7863l-.0531-1.4864c-.0354-.814-.0177-1.5925.0354-1.7341.0885-.1946 3.1502-.23 17.8394-.1946l17.7509.0531zm-5.3093 6.1931v1.681h-17.7863-17.78636l-.05309-1.4864c-.0354-.8139-.0177-1.5925.0354-1.734.08849-.1947 3.15025-.2301 17.83945-.1947l17.7509.0531zm5.3093 6.1931v1.681l-13.061.0885-13.0787.0885-.3362.4247c-.4248.5308-.4248 1.097 0 1.6279l.3362.4246 10.424.0885 10.4064.0885v1.681 1.681h-17.7863-17.78636v-1.681-1.681l4.91996-.0885c4.92-.0885 4.9377-.0885 5.274-.5131.4247-.5309.4247-1.0971 0-1.6279-.3186-.3893-.4955-.4247-2.6193-.5132l-2.2653-.0885-.0531-1.4863c-.0354-.814-.0177-1.5925.0354-1.7341.0885-.1946 3.1502-.23 17.8394-.1946l17.7509.053z"/><path d="m23.3366 18.9825c-.7964.5131-7.1677 11.0946-7.1677 11.9085 0 1.2386.8495 1.7518 2.9733 1.7518h1.0972v10.5814c0 9.9798.0177 10.5991.3363 11.1831.5663 1.0793 1.2212 1.3271 3.5573 1.3271s2.9909-.2478 3.5572-1.3271c.3186-.584.3363-1.2033.3363-11.1831v-10.5814h1.115c2.106 0 2.9555-.5132 2.9555-1.7695 0-.4954-.6725-1.7164-3.2918-6.0162-1.8052-2.9727-3.4157-5.5384-3.575-5.6977-.4778-.4954-1.2919-.5662-1.8936-.1769zm3.0971 7.0602c1.2211 1.9995 2.2476 3.7159 2.2653 3.7866.0354.0885-.3186.1593-.7964.1593-1.0619 0-1.8406.4424-2.2299 1.2917-.2655.5485-.3009 1.681-.3009 11.2538v10.6345h-1.2388-1.2389v-10.6345c0-9.5728-.0354-10.7053-.3008-11.2538-.3894-.8493-1.1681-1.2917-2.23-1.2917-.4778 0-.8318-.0708-.7964-.1416.1593-.3892 4.4953-7.4494 4.5661-7.4671.0531 0 1.0795 1.6456 2.3007 3.6628z"/><path d="m10.9305 38.2874c-1.11495.6724-1.13265.8317-1.13265 8.5465 0 6.4586.0177 7.0071.33625 7.5734.5663 1.0793 1.2212 1.3271 3.5573 1.3271s2.9909-.2478 3.5572-1.3271c.3186-.5663.3363-1.1148.3363-7.5734 0-7.7148-.0177-7.8741-1.1327-8.5465-.8141-.4954-4.7076-.4954-5.5217 0zm3.9997 8.5996v6.2816h-1.2388-1.2389v-6.2816-6.2816h1.2389 1.2388z"/><path d="m43.1583 48.2999c-.2478.23-.4425.637-.4425.8847s.1947.6547.4425.8848l.4247.4423h21.3436 21.3436l.4247-.4423c.5663-.5486.5663-1.221 0-1.7695l-.4247-.4424h-21.3436-21.3436z"/><path d="m43.1583 53.6085c-.2478.23-.4425.637-.4425.8847s.1947.6547.4425.8847l.4247.4424h21.3436 21.3436l.4247-.4424c.5663-.5485.5663-1.2209 0-1.7694l-.4247-.4424h-21.3436-21.3436z"/><path d="m56.7852 58.9171c-.2478.23-.4424.637-.4424.8847s.1946.6547.4424.8847l.4248.4424h14.5299 14.5299l.4247-.4424c.2478-.23.4425-.637.4425-.8847s-.1947-.6547-.4425-.8847l-.4247-.4424h-14.5299-14.5299z"/><path d="m65.1036 64.2257c-.2478.23-.4425.637-.4425.8847s.1947.6547.4425.8847l.4247.4424h10.3709 10.371l.4247-.4424c.2478-.23.4425-.637.4425-.8847s-.1947-.6547-.4425-.8847l-.4247-.4424h-10.371-10.3709z"/><path d="m84.8013 76.1168c-.1593.1769-1.0796 1.5394-2.053 3.0435l-1.7698 2.7072-.991-1.8756c-1.2035-2.2118-1.5929-2.5834-2.7609-2.5834-1.1327 0-1.5043.3362-2.8317 2.4772-.6017.9732-1.1503 1.7695-1.2034 1.7695-.0708 0-.5133-.7609-.9911-1.6987-1.0796-2.088-1.5928-2.548-2.7609-2.548-.6548 0-.9733.1061-1.3096.3893-.7256.6547-3.4688 5.2553-3.4688 5.8392 0 .9378 1.0619 1.5041 1.9468 1.0263.177-.0885.8672-1.044 1.522-2.1234.6548-1.0616 1.2389-1.9464 1.2919-1.9464.0708 0 .531.7963 1.0442 1.7695 1.115 2.088 1.5397 2.4773 2.6901 2.4773 1.1327 0 1.5043-.3362 2.8316-2.4773.6018-.9732 1.1504-1.7695 1.2035-1.7695.0708 0 .4778.6901.9203 1.5395 1.0088 1.9464 1.4512 2.4772 2.3007 2.7249.5663.177.7787.1593 1.3627-.1238.5487-.2831 1.0619-.9201 2.9202-3.6982 2.3361-3.5213 2.5485-4.0167 1.9821-4.8307-.3362-.4954-1.4689-.5485-1.8759-.0884z"/><path d="m65.0505 88.0278c-.5309.4955-.5309 1.451 0 1.9464.3717.3539.5664.3539 10.7957.3539h10.424l.4248-.4423c.2478-.2301.4424-.6371.4424-.8848s-.1946-.6547-.4424-.8847l-.4248-.4424h-10.424c-10.2293 0-10.424 0-10.7957.3539z"/></g></svg>