<svg fill="none" height="182" viewBox="0 0 256 182" width="256" xmlns="http://www.w3.org/2000/svg"><clipPath id="a"><path d="m.385742 35.2793h187.716v121.816h-187.716z"/></clipPath><path d="m64.7835 144.05c-23.164-16.938-38.8788-39.792-35.3394-62.3478 3.5294-22.6611 26.1488-45.2205 55.7609-58.5564 29.458-13.42749 66.043-17.75056 95.739-10.2567 29.85 7.5855 52.975 27.1849 62.279 50.01 9.313 22.9305 4.67 49.2059-13.326 69.8379-18.13 20.751-49.613 35.859-80.604 37.738-30.991 1.878-61.4798-9.368-84.5095-26.425z" fill="#cae8fc"/><g clip-path="url(#a)"><path d="m6.33509 128.774c.93028-9.503 6.55301-18.989 15.49931-22.307-3.3059 9.842-3.0264 20.538.7888 30.195 1.4849 3.718 3.5233 7.7 2.3172 11.518-.7504 2.376-2.6894 4.229-4.8799 5.414-2.1906 1.184-4.6403 1.785-7.0594 2.375l-.4685.409c-4.0895-8.627-7.1278-18.101-6.19751-27.604z" fill="#f0f0f0"/><path d="m21.9288 106.642c-5.0513 5.967-8.2305 13.587-8.7863 21.399-.1202 1.689-.0953 3.413.316 5.064.4132 1.606 1.2486 3.072 2.4195 4.246 1.0697 1.117 2.2931 2.135 3.0731 3.492.8221 1.43.8952 3.078.3984 4.633-.6078 1.903-1.8626 3.474-3.143 4.968-1.4217 1.658-2.9246 3.358-3.4909 5.522-.0686.262-.4711.14-.4026-.122.9853-3.765 4.5544-5.982 6.1952-9.392.7657-1.592 1.0567-3.424.2574-5.062-.699-1.432-1.9597-2.483-3.0526-3.604-1.1475-1.177-2.0378-2.478-2.5203-4.064-.4935-1.622-.5859-3.348-.5094-5.033.202-3.819 1.0026-7.582 2.3727-11.152 1.5411-4.083 3.7687-7.872 6.5864-11.203.1745-.207.4598.103.2864.308z" fill="#fff"/><path d="m13.1892 125.492c-1.3071-.282-2.4717-1.019-3.28566-2.081-.81395-1.061-1.22431-2.378-1.15779-3.715.00321-.054.02743-.105.06755-.142.04013-.037.09302-.057.14754-.056s.10641.024.14472.063c.03832.039.06008.091.06069.145-.06425 1.245.31812 2.471 1.07805 3.458.76.987 1.8475 1.67 3.0663 1.925.2648.056.1419.459-.1214.403z" fill="#fff"/><path d="m15.2609 136.857c2.3096-1.463 3.9832-3.744 4.6872-6.387.0696-.262.4721-.14.4027.122-.7378 2.749-2.4843 5.119-4.891 6.636-.2295.144-.4271-.227-.1989-.371z" fill="#fff"/><path d="m16.9974 113.843c.4831.214 1.0118.305 1.5387.264.527-.04 1.0356-.211 1.4802-.497.2275-.147.4249.225.1988.371-.4927.313-1.0546.502-1.6367.548-.582.046-1.1666-.051-1.7024-.284-.0524-.017-.096-.054-.1221-.103-.0262-.049-.0328-.105-.0185-.159.0163-.053.053-.098.1021-.124.049-.026.1065-.032.1599-.016z" fill="#fff"/><path d="m49.7895 122.667c-.1394.096-.2789.192-.4185.292-1.8684 1.301-3.6282 2.751-5.2619 4.337-.1282.121-.2564.245-.3809.369-3.8954 3.862-7.0402 8.415-9.2748 13.427-.8874 1.995-1.6218 4.055-2.1969 6.162-.7941 2.909-1.4238 6.127-3.083 8.533-.1703.253-.3561.495-.5563.725l-15.5501.406c-.0358-.017-.0716-.03-.1076-.047l-.6201.044c.022-.11.0473-.225.0694-.336.0125-.064.0285-.128.0411-.192.0094-.043.0191-.086.0251-.125.0031-.015.0064-.029.0096-.04.0061-.039.0159-.075.0221-.111.1395-.639.2838-1.279.4328-1.919-.0001-.003-.0001-.003.0032-.007 1.1477-4.873 2.712-9.692 4.9575-14.121.0676-.133.1349-.27.2096-.404 1.0233-1.99 2.2073-3.894 3.5405-5.692.7331-.982 1.5155-1.926 2.344-2.829 2.1453-2.328 4.6432-4.305 7.4022-5.856 5.5005-3.093 11.928-4.39 17.9353-2.746.1536.042.304.085.4577.13z" fill="#f0f0f0"/><path d="m49.7597 122.866c-7.6227 1.72-14.7455 5.889-19.8891 11.792-1.1121 1.276-2.1292 2.668-2.794 4.234-.6364 1.531-.8513 3.205-.6226 4.848.1825 1.536.547 3.086.3533 4.639-.2042 1.638-1.1372 2.998-2.4695 3.94-1.6301 1.153-3.577 1.651-5.4978 2.072-2.1327.468-4.3553.919-6.1093 2.306-.2125.168-.4605-.172-.2483-.34 3.0516-2.412 7.2351-2.032 10.5971-3.766 1.5687-.81 2.9032-2.097 3.2505-3.887.3036-1.565-.0708-3.163-.2691-4.717-.2082-1.631-.1363-3.206.4323-4.763.5816-1.592 1.5465-3.026 2.621-4.325 2.4587-2.928 5.3619-5.45 8.6035-7.475 3.6868-2.332 7.7449-4.015 11.9988-4.977.2633-.059.3048.36.0432.419z" fill="#fff"/><path d="m31.4416 132.651c-.8743-1.013-1.3604-2.304-1.3716-3.642s.4533-2.637 1.3105-3.664c.1741-.207.5041.054.3297.262-.8.955-1.2325 2.164-1.2195 3.41.0129 1.247.4705 2.447 1.2902 3.385.1779.204-.1625.451-.3393.249z" fill="#fff"/><path d="m26.2591 142.973c2.7243.223 5.4326-.589 7.5849-2.276.2131-.167.4612.173.2483.34-2.243 1.751-5.0631 2.59-7.8975 2.352-.2702-.023-.2044-.439.0643-.416z" fill="#fff"/><path d="m41.4905 125.642c.2567.463.6241.854 1.0693 1.139.4451.285.954.455 1.481.495.2703.019.2042.435-.0643.416-.5821-.047-1.1439-.235-1.6364-.549s-.9007-.744-1.1889-1.252c-.0312-.046-.0438-.101-.0354-.156.0085-.055.0374-.104.0809-.138.0451-.033.1012-.046.1563-.038.055.009.1044.039.1375.083z" fill="#fff"/><path d="m141.055 43.6175c-.232-.6861-3.144-3.0184-1.36-3.4104l1.463 1.9524 6.727-6.7318.676.6771z" fill="#0c97f0"/><path d="m141.055 66.5081c-.232-.6861-3.144-3.0183-1.36-3.4103l1.463 1.9524 6.727-6.7318.676.677z" fill="#0c97f0"/><path d="m141.055 89.7268c-.232-.6861-3.144-3.0183-1.36-3.4103l1.463 1.9524 6.727-6.7318.676.6771z" fill="#0c97f0"/><path d="m134.861 70.9554c1.146 0 2.076-.93 2.076-2.0773s-.93-2.0773-2.076-2.0773c-1.147 0-2.076.93-2.076 2.0773s.929 2.0773 2.076 2.0773z" fill="#3f3d56"/><path d="m134.861 48.3109c1.146 0 2.076-.93 2.076-2.0773s-.93-2.0774-2.076-2.0774c-1.147 0-2.076.9301-2.076 2.0774s.929 2.0773 2.076 2.0773z" fill="#3f3d56"/><path d="m188.102 41.457h-33.418v.4155h33.418z" fill="#3f3d56"/><path d="m135.898 95.0941c1.147 0 2.076-.93 2.076-2.0773s-.929-2.0773-2.076-2.0773c-1.146 0-2.075.93-2.075 2.0773s.929 2.0773 2.075 2.0773z" fill="#3f3d56"/><path d="m188.102 64.3477h-33.418v.4154h33.418z" fill="#3f3d56"/><path d="m188.102 87.5664h-33.418v.4155h33.418z" fill="#3f3d56"/><path d="m146.297 92.8209h-10.378v-10.5943h7.057v.4154h-6.642v9.7635h9.548v-4.7779h.415z" fill="#3f3d56"/><path d="m146.297 69.5553h-10.378v-10.5944h7.057v.4155h-6.642v9.7635h9.548v-4.7779h.415z" fill="#3f3d56"/><path d="m146.297 45.8737h-10.378v-10.5944h7.057v.4155h-6.642v9.7634h9.548v-4.7778h.415z" fill="#3f3d56"/><path d="m78.5359 73.0385s-2.7737 11.7205.6164 11.7205c3.39 0 11.403-13.2627 11.403-13.2627l-2.7737-3.3928-4.9785 6.9175-.2608-3.5247z" fill="#a0616a"/><path d="m89.8165 72.0085c1.4903 0 2.6984-1.2091 2.6984-2.7005 0-1.4915-1.2081-2.7006-2.6984-2.7006-1.4902 0-2.6983 1.2091-2.6983 2.7006 0 1.4914 1.2081 2.7005 2.6983 2.7005z" fill="#a0616a"/><path d="m76.1844 152.868 3.5916-.001 1.7089-13.865h-5.3013z" fill="#a0616a"/><path d="m76.0578 156.617h11.0453v-.14c-.0001-1.141-.4531-2.235-1.2593-3.042s-1.8997-1.261-3.0399-1.261h-.0002l-2.0176-1.531-3.7643 1.532h-.9642z" fill="#2f2e41"/><path d="m37.5483 148.381 3.2138 1.605 7.7157-11.642-4.7433-2.369z" fill="#a0616a"/><path d="m35.7617 151.682 9.883 4.936.0624-.125c.509-1.021.5921-2.203.2307-3.285-.3613-1.082-1.1374-1.977-2.1576-2.486h-.0002l-1.1217-2.273-4.0518-.311-.8627-.431z" fill="#2f2e41"/><path d="m118.668 156.631h-118.282258v.465h118.282258z" fill="#ccc"/><path d="m52.962 94.3035s-1.4354 17.2725-1.7436 20.9735c-.2113 2.321-.7295 4.602-1.5409 6.786 0 0-.6164 1.234-.6164 2.467l-6.9857 12.706s-2.1346 1.571-1.8265 2.804c.3082 1.234-1.287 1.974-1.287 1.974l7.3565 1.419s-.3081-.925.6164-1.234c.9246-.308 1.6606-2.983 1.6606-2.983l10.3278-16.845 7.3965-15.421s4.3147 13.879 5.2392 15.421c0 0 3.3901 17.273 4.0065 18.815s.9246 1.542.6164 2.159-.3082 1.234 0 1.542c.3082.309 6.1638 0 6.1638 0l-1.541-21.899-2.7737-26.2168-14.1767-4.3181z" fill="#2f2e41"/><path d="m66.8421 53.0676c3.5744 0 6.472-2.8999 6.472-6.4772 0-3.5772-2.8976-6.4771-6.472-6.4771s-6.472 2.8999-6.472 6.4771c0 3.5773 2.8976 6.4772 6.472 6.4772z" fill="#a0616a"/><path d="m78.6474 62.535-7.7045-4.6716s-.2135-2.901-2.4087-3.0375c-1.1021-.0685-2.756-.1733-5.2379-.3334-.5245-.0339-.8785 2.8381-1.4796 2.7991l-8.1327 2.1591 1.2328 20.9736s-1.8491 8.3277-1.2328 9.8699c.6164 1.5422-1.5409 2.1591-.9245 2.4675.6163.3084 0 2.4675 0 2.4675s12.0194 6.1688 25.2715 1.5421l-1.2327-4.0096c.1677-.5242.1992-1.0825.0913-1.6222-.1078-.5397-.3514-1.0429-.7077-1.4622 0 0 1.2327-1.8506-.3082-3.3928 0 0 .6164-2.7759-.9246-4.0096l-.3082-4.3181.9246-2.1591z" fill="#e6e6e6"/><path d="m61.2258 50.2909-.1809-.4205c-.0233-.0544-2.3121-5.4694-.2834-8.8096.9391-1.5463 2.6468-2.4193 5.0754-2.5946 3.8-.275 6.4007.6271 7.7321 2.6794.2232.3478.3487.7494.3632 1.1626.0145.4131-.0824.8225-.2807 1.1852-.1983.3626-.4905.6651-.846.8757-.3555.2105-.7611.3213-1.1741.3207h-.0511l-.6982-.9074-.0407.0883c-.2527.5473-.8333.847-1.5133.7813-.1156-.0083-.2181.0916-.3004.3054-.0276.0936-.08.1779-.1515.2442s-.1595.1121-.2548.1327c-.5024.0978-1.2185-.5355-1.5391-.8512-.0124.0727-.0402.1418-.0815.2028-.0414.061-.0954.1123-.1583.1506-.3378.1951-.8635-.0597-1.0144-.1409-1.2021.2557-1.9803.1873-2.3137-.2029-.226 1.6003-.711 4.4807-1.2927 4.6404-.0608.014-.1245.008-.1816-.017-.0572-.025-.1048-.0677-.1358-.1219-.1401-.1819-.2653-.2726-.3434-.2471-.1892.0602-.3009.6838-.3169 1.0863z" fill="#2f2e41"/><path d="m75.2576 62.8436 3.0744-.4998c2.2146 2.1295 3.7232 4.8877 4.3222 7.9023.9245 4.9349 1.2327 5.8603 1.2327 5.8603l-7.3965 1.8506-4.0065-7.7109z" fill="#e6e6e6"/><path d="m61.6152 69.2611-1.8999 24.1041 48.4847 3.8277 1.9-24.1041z" fill="#fff"/><g fill="#0c97f0"><path d="m66.7958 71.1288c-1.1865-.848-2.693-.9093-3.2685-.8971.1756.5485.7212 1.9551 1.9077 2.8035 1.1894.8501 2.694.9096 3.2686.8977-.1755-.5483-.7211-1.9555-1.9078-2.8041z"/><path d="m71.4759 86.4658-7.7852-.6147c-.23-.0181-.4614.0093-.6808.0806-.2195.0713-.4228.1852-.5983.3351-.1755.15-.3197.333-.4245.5388-.1048.2057-.1681.4301-.1862.6603-.0182.2303.0091.4618.0804.6814.0713.2197.1851.4231.3349.5988.1498.1756.3328.32.5383.4248.2056.1049.4298.1682.6599.1864l7.7852.6146c.4646.0367.9247-.1128 1.2791-.4157.3544-.3028.5741-.7341.6107-1.1991.0367-.4649-.1127-.9254-.4153-1.2801s-.7336-.5746-1.1982-.6112z"/><path d="m108.189 70.7454-43.6497-3.4463c-.5077-.04-1.0183.0204-1.5027.1779-.4843.1575-.9329.4089-1.3202.7399s-.7056.7351-.9368 1.1892c-.2312.4542-.3708.9494-.4107 1.4575l-1.6787 21.2824c-.0807 1.0265.2492 2.043.9172 2.826.668.7831 1.6194 1.2686 2.645 1.3498l43.6496 3.4463c.507.04 1.018-.0205 1.502-.178.485-.1575.933-.4089 1.321-.7399.387-.331.705-.7351.936-1.1892.232-.4541.371-.9494.411-1.4575l1.595-20.228.033-.4133.05-.6431c.04-.5081-.02-1.0191-.177-1.5038-.158-.4848-.409-.9338-.74-1.3213-.33-.3876-.734-.7062-1.188-.9375-.454-.2314-.949-.3711-1.456-.4111zm-1.289 18.5169-.277 3.5062c-.05.6193-.344 1.1933-.816 1.5966s-1.085.6031-1.704.5557l-5.8396-.4605c-.6188-.0506-1.1924-.3443-1.5954-.817-.403-.4726-.6026-1.0857-.5552-1.7052l.2766-3.5063c.0508-.6191.3443-1.1931.8165-1.5963.4722-.4033 1.0847-.6032 1.7037-.556l5.8374.4611c.619.0508 1.193.3444 1.596.8168s.603 1.0853.557 1.7049zm-45.4853-1.8283c.0453-.5674.3136-1.0936.7461-1.4632s.9938-.5525 1.5609-.5084l7.7849.615c.2812.0217.5554.0987.8069.2266.2515.1278.4753.304.6587.5184.1835.2145.3229.463.4103.7314s.121.5514.0991.8328-.0991.5558-.227.8073c-.1279.2516-.3041.4755-.5186.6589-.2144.1834-.4628.3227-.7311.4099-.2682.0873-.551.1208-.8322.0986l-.004.001-7.785-.615c-.2811-.0222-.5552-.0997-.8064-.2281-.2511-.1283-.4746-.305-.6575-.5199-.1829-.2148-.3216-.4637-.4083-.7323s-.1196-.5517-.0968-.833zm1.6666-17.3419-.0532-.218.2239-.0205c.0876-.0094 2.1585-.1955 3.7705.9569s2.1063 3.1743 2.1278 3.2589l.0512.2185-.2234.0225c-.3172.0236-.6357.0215-.9525-.0063-1.0078-.059-1.9813-.388-2.8185-.9526-1.612-1.1524-2.1063-3.1744-2.1258-3.2594z"/><path d="m100.351 91.5885-2.5302-.1998c-.1805-.0139-.3591.0444-.4967.1622-.1375.1177-.2228.2853-.237.4659-.0143.1806.0437.3595.1611.4974.1174.1378.2847.2235.4651.238l2.5307.1998c.18.0139.359-.0444.496-.1621.138-.1178.223-.2854.237-.466.015-.1806-.043-.3595-.161-.4973-.117-.1379-.285-.2235-.465-.2381z"/><path d="m105.022 91.9556-2.53-.1997c-.181-.0138-.359.0446-.497.1623-.137.1178-.222.2853-.237.4658-.014.1805.044.3593.161.4972.118.1379.285.2235.465.2382l2.53.1998c.181.0137.359-.0446.497-.1624.137-.1177.222-.2852.237-.4658.014-.1805-.044-.3593-.161-.4971-.118-.1379-.285-.2236-.465-.2383z"/><path d="m100.489 89.8346-2.53-.1998c-.1804-.0138-.3589.0446-.4964.1623-.1374.1178-.2226.2853-.2368.4658-.0143.1805.0436.3593.1609.4972s.2845.2235.4648.2382l2.5305.1998c.18.0139.359-.0444.496-.1622.138-.1177.223-.2853.237-.4659.015-.1806-.043-.3595-.161-.4974-.117-.1379-.284-.2235-.465-.238z"/><path d="m105.16 90.2037-2.53-.1997c-.181-.0139-.359.0444-.497.1621-.137.1178-.223.2853-.237.4659s.044.3595.161.4974c.118.1379.285.2235.465.2381l2.531.1997c.18.014.359-.0443.496-.1621.138-.1178.223-.2853.237-.4659.015-.1806-.043-.3595-.161-.4974-.117-.1379-.284-.2235-.465-.2381z"/><path d="m100.627 88.0826-2.5298-.1997c-.1805-.0139-.3591.0444-.4967.1621-.1376.1178-.2228.2853-.2371.466-.0142.1806.0438.3594.1612.4973s.2847.2235.4651.2381l2.5303.1997c.18.0138.359-.0445.496-.1623.138-.1177.223-.2852.237-.4658.014-.1805-.043-.3593-.161-.4971-.117-.1379-.284-.2236-.465-.2383z"/><path d="m105.298 88.4517-2.53-.1997c-.18-.0138-.359.0446-.496.1623-.138.1178-.223.2853-.237.4658s.044.3593.161.4972c.117.1378.284.2235.465.2382l2.53.1997c.18.0138.359-.0445.496-.1623.138-.1177.223-.2852.237-.4658.014-.1805-.044-.3593-.161-.4971-.117-.1379-.284-.2236-.465-.2383z"/></g><path d="m59.7205 77.5798-.0325.4143 51.239 4.0283.032-.4144z" fill="#fff"/><path d="m111.699 75.5637-.032.4134-1.783-.14-18.9992-1.4936.0342-.4138 18.997 1.494z" fill="#3f3d56"/><path d="m49.0613 71.1693s-2.7737 11.7206.6163 11.7206c3.3901 0 11.4031-13.2627 11.4031-13.2627l-2.7738-3.3928-4.9785 6.9175-.2607-3.5247z" fill="#a0616a"/><path d="m60.3414 70.1374c1.4903 0 2.6984-1.2091 2.6984-2.7005 0-1.4915-1.2081-2.7006-2.6984-2.7006-1.4902 0-2.6983 1.2091-2.6983 2.7006 0 1.4914 1.2081 2.7005 2.6983 2.7005z" fill="#a0616a"/><path d="m55.9294 61.2998-1.8492-1.8506s-3.6983 2.1591-4.0065 4.3181c-.3081 2.1591-1.8491 8.9447-1.8491 8.9447l5.7015.4626 1.8492-2.7759z" fill="#e6e6e6"/></g></svg>