<svg width="20" height="20" viewBox="0 0 20 20" fill="none" xmlns="http://www.w3.org/2000/svg">
<path d="M11.0997 2.21118C8.79806 2.21118 6.94528 4.0834 6.94528 6.37785C6.94528 8.6734 8.79806 10.5445 11.0997 10.5445C13.4014 10.5445 15.2786 8.67563 15.2786 6.37785C15.2783 6.34058 15.2706 6.30374 15.2558 6.26951C15.1936 4.02618 13.362 2.21229 11.1003 2.21229L11.0997 2.21118ZM11.0997 2.76674C13.1014 2.76674 14.7231 4.3834 14.7231 6.37785C14.7231 8.37396 13.1008 9.98896 11.0997 9.98896C10.6259 9.98955 10.1567 9.89646 9.71897 9.71504C9.28127 9.53363 8.88375 9.26746 8.54928 8.93186C8.21482 8.59626 7.95 8.19784 7.77007 7.75953C7.59014 7.32122 7.49864 6.85165 7.50084 6.37785C7.49864 5.90404 7.59014 5.43448 7.77007 4.99617C7.95 4.55785 8.21482 4.15944 8.54928 3.82384C8.88375 3.48823 9.28127 3.22207 9.71897 3.04065C10.1567 2.85924 10.6259 2.76615 11.0997 2.76674ZM9.72306 4.4334V4.43896H9.71028V4.99451H10.2808C10.7997 4.99451 11.0614 5.24007 11.1553 5.54451H9.72306V6.10007H11.1553C11.0608 6.40507 10.7997 6.65007 10.2808 6.65007H10.0842L10.082 6.6484L10.0803 6.65063H9.71028V7.20618H9.85862L11.5697 8.8784L11.9586 8.48118L10.6181 7.17229C10.8875 7.12216 11.1362 6.99371 11.333 6.803C11.5299 6.6123 11.6661 6.36779 11.7247 6.10007H12.4836V5.54451H11.7247C11.6819 5.34451 11.5892 5.15563 11.4592 4.98896H12.4836V4.4334H9.72306ZM17.4019 12.2517C17.337 12.2517 17.2708 12.2573 17.2058 12.2678H17.2047V12.2612C17.0286 12.289 16.857 12.354 16.7003 12.4523L12.9803 14.7723C12.9608 14.3123 12.7842 13.9301 12.4792 13.7001C12.1569 13.4573 11.7397 13.369 11.2942 13.369H9.69251C9.45528 13.369 9.02695 13.2006 8.59584 13.0045C8.16417 12.809 7.73362 12.5878 7.30862 12.5617H4.88862C4.28973 12.5673 3.78584 12.7934 3.37751 12.999C2.96862 13.2051 2.63528 13.3701 2.48917 13.3701H1.11084V13.9256H2.48862C2.90028 13.9256 3.23751 13.6912 3.62584 13.4951C4.01362 13.2995 4.4314 13.1212 4.89028 13.1173H7.27362C7.5014 13.1312 7.92973 13.3134 8.36584 13.5117C8.80139 13.709 9.24695 13.9256 9.69251 13.9256H11.2942C11.6636 13.9256 11.9592 14.0051 12.1447 14.1451C12.3308 14.2851 12.4403 14.4801 12.4403 14.8451C12.4403 15.094 12.3625 15.2573 12.2625 15.404C12.2275 15.4478 12.1958 15.5045 12.1558 15.5406C11.9997 15.6767 11.767 15.7934 11.2942 15.7934H8.09195V16.349H11.2942C11.7364 16.349 12.0631 16.2401 12.3336 16.0823C13.7208 14.7951 15.5025 13.839 16.9947 12.9245C17.0831 12.8679 17.1819 12.8298 17.2853 12.8123C17.3888 12.7949 17.4947 12.7985 17.5967 12.823C17.6987 12.8475 17.7947 12.8923 17.8789 12.9548C17.9632 13.0173 18.0339 13.0962 18.087 13.1867L18.2114 13.3878C18.4469 13.7728 18.3308 14.2856 17.952 14.5212H17.9508L13.5231 17.2973C13.5164 17.3028 13.4731 17.3123 13.3731 17.3495L13.3647 17.3551L13.3569 17.3606C13.2825 17.394 13.1714 17.4123 13.0458 17.4123H1.11084V17.9678H13.0453C13.217 17.9678 13.4036 17.9484 13.5847 17.8667C13.6242 17.8545 13.7058 17.8434 13.8181 17.7734L18.2453 14.9967C18.8842 14.5984 19.0786 13.7445 18.6858 13.1023L18.5608 12.9017H18.5597C18.439 12.7029 18.269 12.5386 18.0662 12.4248C17.8633 12.3109 17.6346 12.2513 17.4019 12.2517Z" fill="white"/>
</svg>
