<svg width="247" height="247" viewBox="0 0 247 247" fill="none" xmlns="http://www.w3.org/2000/svg">
<path fill-rule="evenodd" clip-rule="evenodd" d="M217.755 128.473C217.755 142.42 214.725 155.659 209.291 167.565C209.258 167.631 209.242 167.696 209.209 167.746C206.937 172.702 204.236 177.445 201.157 181.891C198.028 186.419 194.521 190.667 190.668 194.587C189.136 196.151 187.555 197.649 185.909 199.098C183.653 201.091 181.298 202.985 178.861 204.763C171.237 210.312 162.74 214.742 153.618 217.821C149.6 219.171 145.467 220.258 141.218 221.065C135.471 222.152 129.543 222.728 123.484 222.728C98.4049 222.728 75.5985 212.93 58.7202 196.941C44.6412 183.62 34.6624 165.984 30.8915 146.158C29.8706 140.79 29.3107 135.274 29.2449 129.626C29.2449 129.247 29.2449 128.852 29.2449 128.473C29.2449 112.994 32.9828 98.3882 39.5859 85.4948C40.1952 84.3092 40.8209 83.1401 41.4796 81.971C47.8193 70.8066 56.3819 61.0583 66.5583 53.3354C72.4205 48.873 78.8425 45.1021 85.6597 42.1052C97.2357 37.017 110.03 34.2012 123.5 34.2012C140.609 34.2012 156.647 38.7624 170.479 46.7323C174.283 48.9224 177.922 51.3759 181.364 54.06C187.341 58.72 192.759 64.0882 197.452 70.0162C198.292 71.07 199.099 72.1404 199.889 73.2436C202.326 76.6028 204.533 80.1267 206.509 83.7988C213.688 97.1038 217.755 112.319 217.755 128.473Z" fill="#DBEDFF"/>
<path fill-rule="evenodd" clip-rule="evenodd" d="M179.684 213.046C179.47 213.145 179.256 213.243 179.026 213.342C178.812 213.441 178.581 213.54 178.367 213.639C178.153 213.737 177.922 213.836 177.708 213.918C177.511 214.001 177.297 214.083 177.099 214.165C176.605 214.363 176.095 214.561 175.601 214.758C175.419 214.824 175.238 214.89 175.041 214.956C174.81 215.038 174.596 215.121 174.366 215.186C174.168 215.252 173.954 215.318 173.74 215.4C173.674 215.417 173.625 215.433 173.559 215.45C173.378 215.516 173.18 215.565 172.999 215.631C172.768 215.697 172.538 215.763 172.324 215.845C172.093 215.911 171.863 215.977 171.632 216.043C171.451 216.092 171.27 216.141 171.072 216.191C170.99 216.207 170.908 216.24 170.809 216.257C170.677 216.29 170.529 216.323 170.397 216.356C170.315 216.372 170.232 216.388 170.167 216.421C169.738 216.537 169.31 216.635 168.866 216.734C168.668 216.784 168.487 216.817 168.289 216.866C168.223 216.882 168.141 216.899 168.075 216.915C167.878 216.948 167.68 216.998 167.482 217.031C167.252 217.08 167.021 217.113 166.791 217.162C166.56 217.195 166.33 217.245 166.116 217.278C165.852 217.327 165.572 217.36 165.309 217.409C165.128 217.442 164.947 217.459 164.782 217.492C164.337 217.558 163.893 217.607 163.448 217.656C163.349 217.673 163.234 217.673 163.135 217.689C162.971 217.706 162.789 217.722 162.625 217.739C162.493 217.755 162.361 217.755 162.246 217.772C162.131 217.788 161.999 217.788 161.884 217.805C161.703 217.821 161.538 217.838 161.357 217.838C161.258 217.854 161.159 217.854 161.06 217.854C160.896 217.87 160.731 217.87 160.566 217.887C160.056 217.92 159.546 217.936 159.052 217.953C158.854 217.953 158.656 217.969 158.459 217.969C156.861 218.002 155.264 217.936 153.667 217.821C149.649 219.171 145.516 220.258 141.268 221.065C135.521 222.152 129.593 222.728 123.533 222.728C98.4542 222.728 75.6478 212.93 58.7695 196.941C44.6905 183.62 34.7117 165.984 30.9408 146.158L29.4094 130.778L29.2942 129.626L25.0293 86.944L39.6352 85.4785L58.1273 83.6507L64.9445 82.9755L65.2738 82.9426L77.7885 81.6911L99.6727 79.5011L162.444 73.2273L165.671 72.8979L165.721 73.4084L170.002 116.288L170.051 116.749L170.595 122.216L170.94 125.674L173.641 152.745L173.872 154.984L174.431 160.632L178.729 203.676L178.844 204.796L179.684 213.046Z" fill="#4FA1F3"/>
<path fill-rule="evenodd" clip-rule="evenodd" d="M207.233 70.5597L207.068 73.5237L206.508 83.7989L203.314 142.371L203.05 147.228L202.244 162.131L201.173 181.891L195.328 195.673L186.666 204.5L189.449 207.019C189.251 207.167 189.054 207.332 188.856 207.48C188.675 207.612 188.494 207.76 188.313 207.892C188.313 207.908 188.296 207.908 188.296 207.908C188.099 208.056 187.918 208.188 187.72 208.32C187.489 208.484 187.242 208.649 187.012 208.814C186.897 208.896 186.781 208.978 186.666 209.061C185.925 209.571 185.168 210.049 184.394 210.526C184.13 210.675 183.883 210.839 183.62 210.987C183.422 211.103 183.208 211.218 183.011 211.333C182.912 211.399 182.796 211.448 182.698 211.514C182.549 211.597 182.401 211.679 182.253 211.761C182.072 211.86 181.891 211.959 181.693 212.058C181.249 212.288 180.804 212.519 180.343 212.749C180.145 212.848 179.931 212.947 179.734 213.046H179.717C179.503 213.145 179.289 213.243 179.059 213.342C178.844 213.441 178.614 213.54 178.4 213.639C178.186 213.737 177.955 213.836 177.741 213.918C177.544 214.001 177.33 214.083 177.132 214.165C176.638 214.363 176.127 214.561 175.633 214.758C175.452 214.824 175.271 214.89 175.074 214.956C174.843 215.038 174.629 215.121 174.398 215.186C174.201 215.252 173.987 215.318 173.773 215.4C173.707 215.417 173.657 215.433 173.592 215.45C173.41 215.516 173.213 215.565 173.032 215.631C172.801 215.697 172.571 215.763 172.357 215.845C172.126 215.911 171.896 215.977 171.665 216.043C171.484 216.092 171.303 216.141 171.105 216.191C171.023 216.207 170.94 216.24 170.842 216.257C170.71 216.29 170.562 216.323 170.43 216.356C170.348 216.372 170.265 216.388 170.199 216.421C169.771 216.537 169.343 216.635 168.899 216.734C168.701 216.784 168.52 216.817 168.322 216.866C168.256 216.882 168.174 216.899 168.108 216.915C167.911 216.948 167.713 216.998 167.515 217.031C167.285 217.08 167.054 217.113 166.824 217.162C166.593 217.195 166.363 217.245 166.149 217.278C165.885 217.327 165.605 217.36 165.342 217.409C165.161 217.442 164.98 217.459 164.815 217.492C164.37 217.558 163.926 217.607 163.481 217.656C163.382 217.673 163.267 217.673 163.168 217.689C163.004 217.706 162.822 217.722 162.658 217.739C162.526 217.755 162.394 217.755 162.279 217.772C162.164 217.788 162.032 217.788 161.917 217.805C161.736 217.821 161.571 217.838 161.39 217.838C161.291 217.854 161.192 217.854 161.093 217.854C160.929 217.87 160.764 217.87 160.599 217.887C160.089 217.92 159.578 217.936 159.084 217.953C158.887 217.953 158.689 217.969 158.492 217.969C156.894 218.002 155.297 217.936 153.7 217.821C149.682 219.171 145.549 220.258 141.3 221.065C135.554 222.152 129.626 222.728 123.566 222.728C98.4872 222.728 75.6808 212.93 58.8025 196.941L59.3459 186.946V186.88L62.5898 127.485L65.0104 82.9591L65.1916 79.6163L66.0972 62.8533L78.579 63.5284L170.957 68.5672L180.705 69.0941L197.518 70.0163L204.104 70.3785L207.233 70.5597Z" fill="#ACD3FA"/>
<path fill-rule="evenodd" clip-rule="evenodd" d="M209.291 167.565C208.863 176.786 206.36 186.007 201.321 193.846C201.042 194.307 194.998 194.619 194.702 195.064C203.824 202.589 195.7 193.213 187.5 202.5C184.898 199.997 189.877 206.014 186.633 209.061C173.312 219.319 156.384 216.438 141.235 221.065C115.382 212.914 100.035 182.335 108.598 157.026C124.109 103.855 205.092 112.154 209.291 167.565Z" fill="#4FA1F3"/>
<path fill-rule="evenodd" clip-rule="evenodd" d="M170.068 116.749L149.814 118.757L134.352 120.305L90.5008 124.685L62.7051 127.468L62.524 127.485L58.3414 127.896L29.3601 130.795L29.2448 129.642L24.6506 83.667L41.496 81.9874L65.1257 79.6162L77.9862 78.3318L78.1508 78.3154L140.922 72.058L165.358 69.6045L165.737 73.4083L170.035 116.287L170.068 116.749Z" fill="#4FA1F3"/>
<path fill-rule="evenodd" clip-rule="evenodd" d="M65.4714 79.5835L58.1108 80.3245L58.7036 196.908L65.4714 79.5835Z" fill="#3588DC"/>
<path fill-rule="evenodd" clip-rule="evenodd" d="M207.085 73.5236L206.525 83.7988L203.33 142.371L202.244 162.131L200.251 162.032L172.834 160.533L163.267 160.007L115.728 157.421L106.885 156.927L61.1573 154.441H61.042L62.524 127.485L65.1257 79.6163L66.5583 53.3519L67.2335 41.1172L85.6597 42.1217L170.479 46.7488L181.677 47.3581L207.085 73.5236Z" fill="#ACD3FA"/>
<path d="M78.7434 59.5004L78.2456 68.6257L170.617 73.6647L171.114 64.5394L78.7434 59.5004Z" fill="#DBEDFF"/>
<path d="M77.9895 78.3171L77.4917 87.4424L133.46 90.4956L133.958 81.3703L77.9895 78.3171Z" fill="#DBEDFF"/>
<path d="M76.8649 114.792L76.3672 123.917L165.334 128.77L165.832 119.645L76.8649 114.792Z" fill="#DBEDFF"/>
<path d="M76.2174 136.655L75.7197 145.78L102.454 147.238L102.952 138.113L76.2174 136.655Z" fill="#DBEDFF"/>
<path fill-rule="evenodd" clip-rule="evenodd" d="M209.225 166.857C207.48 231.274 114.114 235.621 106.309 171.747C101.122 100.2 207.48 94.8644 209.225 166.857Z" fill="#3D97F2"/>
<path d="M157.635 209.209C181.29 209.209 200.465 190.033 200.465 166.379C200.465 142.725 181.29 123.549 157.635 123.549C133.981 123.549 114.806 142.725 114.806 166.379C114.806 190.033 133.981 209.209 157.635 209.209Z" fill="#DBEDFF"/>
<path d="M173.888 154.968C173.872 154.194 173.806 153.453 173.658 152.728C173.131 149.863 171.698 147.36 169.327 145.186C166.346 142.469 162.378 141.07 157.389 141.07C152.663 141.07 148.875 142.371 145.994 144.923C143.902 146.767 142.404 149.188 141.515 152.201C140.741 154.803 142.519 157.471 145.203 157.783C147.327 158.03 149.336 156.713 149.929 154.671C150.456 152.893 151.214 151.51 152.251 150.522C153.651 149.221 155.396 148.579 157.471 148.579C159.645 148.579 161.472 149.287 162.971 150.736C164.436 152.152 165.177 153.799 165.177 155.676C165.177 156.664 164.947 157.586 164.469 158.426C164.206 158.887 163.794 159.414 163.234 160.006C162.609 160.682 161.818 161.439 160.847 162.295C158.772 164.123 157.356 165.523 156.549 166.478C155.396 167.878 154.556 169.261 154.046 170.627C153.354 172.406 152.992 174.53 152.992 176.984C152.992 178.696 154.392 180.096 156.104 180.096H158.261C159.924 180.096 161.291 178.795 161.374 177.132C161.439 175.798 161.571 174.761 161.752 174.069C161.983 173.213 162.329 172.455 162.823 171.797C163.366 171.056 164.535 169.903 166.314 168.322C169.261 165.704 171.237 163.464 172.242 161.637C172.439 161.274 172.62 160.912 172.785 160.533C173.493 158.903 173.855 157.158 173.855 155.297C173.888 155.182 173.888 155.083 173.888 154.968ZM157.356 182.352C154.787 182.352 152.696 184.443 152.696 187.012C152.696 189.597 154.787 191.672 157.356 191.672C159.941 191.672 162.016 189.581 162.016 187.012C162.016 184.443 159.924 182.352 157.356 182.352Z" fill="#3D97F2"/>
<path fill-rule="evenodd" clip-rule="evenodd" d="M207.085 73.5237L199.889 73.2602L180.475 72.5357L181.364 54.0601L181.677 47.3582L207.085 73.5237Z" fill="#4FA1F3"/>
</svg>
