<svg fill="none" height="119" viewBox="0 0 130 119" width="130" xmlns="http://www.w3.org/2000/svg"><clipPath id="a"><path d="m0 0h130v119h-130z"/></clipPath><g clip-path="url(#a)"><path d="m59.6925 65.4724c-.0232 0-.0378-.0006-.0429-.0009l-2.7796.0003v-.4073h2.7897c.0645.0023 1.3823.0393 2.5965-1.4248 1.8094-2.182 3.2953-7.5837.0987-20.9257-4.2983-17.9403-.7134-33.78951 1.0274-39.77099.0858-.29593.1011-.60762.0448-.91046-.0563-.30283-.1826-.58851-.3691-.83445-.1865-.245948-.428-.445427-.7054-.582673-.2775-.137246-.5832-.208501-.8931-.208135h-41.5121c-.3157.00042-.6267.074787-.908.217062-.2812.142276-.5248.348455-.7109.601796-.7374 1.00809-1.7494 2.94471-2.3827 6.44644l-.4033-.07199c.647-3.57781 1.6919-5.5714 2.4545-6.613891.2242-.305266.5176-.553706.8565-.725147.3388-.1714418.7136-.26105476 1.0938-.26156089h41.5122c.3735-.0003571.7419.08558919 1.0761.25104789.3343.16546.6253.405899.85.702321.2246.29642.3769.64071.4447 1.00565.0677.36495.0492.74056-.0542 1.09715-1.7319 5.95046-5.2982 21.71743-1.0225 39.56353 3.2415 13.5297 1.6832 19.0484-.1948 21.2956-1.2387 1.4821-2.6036 1.5571-2.8663 1.5571z" fill="#e6e6e6"/><path d="m52.2131 72.906c-.0232 0-.0379-.0006-.043-.0009l-2.7796.0003v-.4073h2.7897c.0649.002 1.3824.0393 2.5965-1.4248 1.8094-2.182 3.2953-7.5837.0987-20.9257-4.2983-17.9403-.7133-33.7895 1.0275-39.771.0857-.2959.1011-.60762.0448-.91045-.0563-.30284-.1827-.58851-.3692-.83446-.1865-.24594-.428-.44542-.7054-.58267s-.5831-.2085-.893-.20813h-41.5122c-.3156.00042-.6267.07478-.9079.21706-.2813.14227-.5249.34845-.7109.60179-.7375 1.00809-1.74947 2.94476-2.38272 6.44646l-.40339-.072c.64701-3.5778 1.69193-5.57141 2.45461-6.6139.2241-.30526.5175-.5537.8564-.72514.3389-.17145.7136-.26106 1.0939-.26157h41.5122c.3734-.00035.7418.08559 1.0761.25105s.6252.4059.8499.70232c.2247.29643.3769.64071.4447 1.00566.0678.36494.0492.74058-.0542 1.09718-1.7318 5.9504-5.2982 21.7174-1.0224 39.5635 3.2415 13.5297 1.6832 19.0484-.1949 21.2955-1.2387 1.4821-2.6036 1.5572-2.8662 1.5572z" fill="#fff"/><path d="m44.7333 80.3376c-.0232 0-.0378-.0005-.0429-.0008l-40.87238.0003c-.39351.0004-.78114-.095-1.12896-.2779-.34782-.1828-.64524-.4477-.86622-.7713-.22098-.3235-.3588-.696-.40138-1.0847-.04259-.3888.01135-.782.1571-1.1453 1.48298-3.682 3.47974-12.5158.19088-30.3104-3.88356-21.0121-.40674-28.6059 1.26834-30.8956.22413-.3052.51755-.5537.85643-.7251.33888-.1715.71366-.2611 1.09393-.2616h41.51216c.3734-.0003.7418.0856 1.0761.2511.3343.1654.6252.4059.8499.7023s.3769.6407.4447 1.0057c.0678.3649.0492.7405-.0542 1.0971-1.7318 5.9505-5.2982 21.7174-1.0224 39.5635 3.2415 13.5297 1.6832 19.0484-.1948 21.2956-1.2388 1.4821-2.6037 1.5571-2.8663 1.5571zm-39.74516-65.0651c-.31562.0004-.62669.0748-.90796.2171-.28128.1423-.52484.3484-.71091.6018-1.644 2.2471-5.05163 9.7255-1.19674 30.5826 3.14185 16.999 1.61806 25.9879-.2135 30.5353-.12344.3-.16978.6259-.13482.9481.03495.3223.15009.6308.33504.8978.18338.2695.43051.4902.71972.6427s.61165.2321.93904.2319h40.88239c.0646.003 1.3824.0393 2.5966-1.4249 1.8093-2.182 3.2952-7.5837.0986-20.9257-4.2982-17.9403-.7133-33.7895 1.0275-39.771.0858-.2959.1011-.6076.0448-.9104s-.1827-.5885-.3692-.8345c-.1865-.2459-.428-.4454-.7054-.5826-.2774-.1373-.5831-.2085-.893-.2082z" fill="#3f3d56"/><path d="m39.4395 33.1939h-32.58259c-.43479 0-.85178-.1717-1.15922-.4772s-.48016-.7199-.48016-1.152.17272-.8465.48016-1.152.72443-.4772 1.15922-.4772h32.58259c.4348 0 .8518.1717 1.1592.4772.3075.3055.4802.7199.4802 1.152s-.1727.8465-.4802 1.152c-.3074.3055-.7244.4772-1.1592.4772z" fill="#0c97f0"/><g fill="#fff"><path d="m39.4395 40.1177h-32.58259c-.43479 0-.85178-.1716-1.15922-.4772-.30744-.3055-.48016-.7199-.48016-1.152 0-.432.17272-.8464.48016-1.152.30744-.3055.72443-.4771 1.15922-.4771h32.58259c.4348 0 .8518.1716 1.1592.4771.3075.3056.4802.72.4802 1.152 0 .4321-.1727.8465-.4802 1.152-.3074.3056-.7244.4772-1.1592.4772z"/><path d="m39.4395 47.0415h-32.58259c-.43479 0-.85178-.1716-1.15922-.4771-.30744-.3056-.48016-.72-.48016-1.152 0-.4321.17272-.8465.48016-1.152.30744-.3056.72443-.4772 1.15922-.4772h32.58259c.4348 0 .8518.1716 1.1592.4772.3075.3055.4802.7199.4802 1.152 0 .432-.1727.8464-.4802 1.152-.3074.3055-.7244.4771-1.1592.4771z"/><path d="m41.8985 53.9654h-32.58261c-.43479 0-.85177-.1717-1.15922-.4772-.30744-.3055-.48016-.7199-.48016-1.152s.17272-.8465.48016-1.152c.30745-.3055.72443-.4772 1.15922-.4772h32.58261c.4348 0 .8518.1717 1.1592.4772.3075.3055.4802.7199.4802 1.152s-.1727.8465-.4802 1.152c-.3074.3055-.7244.4772-1.1592.4772z"/><path d="m41.8985 60.8892h-32.58261c-.43479 0-.85177-.1717-1.15922-.4772-.30744-.3055-.48016-.7199-.48016-1.152s.17272-.8464.48016-1.152c.30745-.3055.72443-.4771 1.15922-.4771h32.58261c.4348 0 .8518.1716 1.1592.4771.3075.3056.4802.7199.4802 1.152s-.1727.8465-.4802 1.152c-.3074.3055-.7244.4772-1.1592.4772z"/></g><path d="m22.2261 26.27h-15.36919c-.43479 0-.85178-.1716-1.15922-.4771-.30744-.3056-.48016-.7199-.48016-1.152s.17272-.8465.48016-1.152.72443-.4772 1.15922-.4772h15.36919c.4348 0 .8517.1717 1.1592.4772.3074.3055.4801.7199.4801 1.152s-.1727.8464-.4801 1.152c-.3075.3055-.7244.4771-1.1592.4771z" fill="#0c97f0"/><path d="m20.2416 72.0543c.3308-1.392 1.8849-1.8482 3.1555-1.7972.8028.0539 1.5991.1791 2.3793.3742.8165.1815 1.6249.3964 2.4294.6244 1.4751.418 2.935.9236 4.4344 1.2505 1.2483.2721 2.6048.4317 3.8497.056 1.1966-.3611 2.2118-1.2476 2.5373-2.4732.3069-1.155-.1144-2.4178-1.2406-2.9456-1.027-.4813-2.3243-.2366-2.8333.8519-.574 1.2273-.0005 2.5658.9083 3.4539.5165.482 1.0823.9091 1.6881 1.2743.6148.4164 1.2992.721 2.0213.8996 1.1854.2517 2.5976-.1191 3.209-1.2446.1359-.2548.2176-.5346.2401-.8221.0362-.3914-.5788-.389-.6148 0-.1036 1.1207-1.4243 1.6456-2.412 1.5226-.6667-.1097-1.3033-.3553-1.87-.7212-.5468-.3169-1.0651-.6802-1.5488-1.086-.8377-.7204-1.6229-1.906-1.0603-3.0301.4581-.9154 1.6523-.9063 2.3787-.316.8796.715.7227 2.0126.1426 2.8616-.6424.9401-1.8068 1.3342-2.9046 1.3767-1.1928.0462-2.3757-.2259-3.5158-.5476-1.4165-.3997-2.8189-.8471-4.2423-1.2235-.8081-.2136-1.6223-.4064-2.445-.5565-.7778-.1703-1.5768-.2253-2.3708-.1631-1.2828.1472-2.5923.8893-2.9082 2.2185-.0908.3824.5018.5456.5928.1625z" fill="#3f3d56"/><path d="m83.0502 106.595c.0354 4.01.331 8.014.8849 11.986.0193.139.0405.279.0599.418l37.788-.21c.111-.138.22-.278.326-.42.353-.47.684-.953.987-1.452 1.459-2.407 2.127-5.224 1.458-7.168l-.012-.03c-.145-.426-.373-.819-.67-1.157-1.526-1.707-4.612-1.423-7.412-.045 2.512-2.732 4.511-6.179 4.663-9.2562.149-3.0013-1.43-5.1454-3.143-6.9675-.056-.0603-.112-.1188-.168-.1774-.028-.0301-.057-.0585-.084-.0887-1.336-1.3885-2.894-2.7574-5.149-2.5918-2.474.1819-5.216 2.2407-7.139 4.6397-1.922 2.3973-3.2 5.1207-4.495 7.7789-1.2967 2.656-2.6996 5.38-4.7804 7.65 2.8183-3.542 5.0904-7.573 5.9304-11.4931.839-3.9202.1-7.6853-2.4115-9.5315-.7626-.5433-1.645-.8971-2.5733-1.0319-.1084-.0179-.2185-.0324-.3303-.0453-2.3252-.2629-5.1015.5363-7.4636 2.4466-2.6013 2.1034-4.4048 5.2216-5.3022 8.1817-.8972 2.9605-.9929 5.8095-.9639 8.5645z" fill="#f2f2f2"/><path d="m107.773 118.867.723-.004c.229-.143.46-.283.692-.423.143-.09.288-.176.433-.264 2.397-1.455 4.809-2.85 7.235-4.186 2.425-1.338 4.862-2.613 7.311-3.827.065-.028.118-.078.149-.141.032-.063.041-.135.025-.203-.003-.009-.007-.018-.012-.025-.034-.064-.111-.091-.222-.036-.3.15-.603.299-.903.452-2.456 1.235-4.901 2.531-7.335 3.889-2.433 1.358-4.852 2.775-7.257 4.252-.051.031-.102.063-.152.093-.229.141-.457.282-.687.423z" fill="#fff"/><path d="m98.4565 118.92.4469-.003c.1007-.14.1998-.28.3006-.42 2.368-3.3 4.735-6.6 7.102-9.899 3.876-5.402 7.75-10.8042 11.624-16.2062.023-.0291.04-.0623.05-.0978.033-.1196-.055-.1898-.169-.1774-.047.0068-.093.0237-.134.0494-.04.0258-.075.0598-.102.1-2.173 3.0294-4.345 6.0577-6.517 9.085-3.856 5.375-7.711 10.749-11.5653 16.123-.2452.341-.4904.684-.7356 1.025-.1007.14-.2015.28-.3006.421z" fill="#fff"/><path d="m88.5021 116.341c.0228.749.0726 1.485.1377 2.215.0126.139.0253.279.0379.418l.4688-.002c-.0143-.14-.0287-.279-.0413-.419-.099-1.054-.1693-2.12-.1789-3.215-.0124-3.035.2853-6.064.8885-9.04.6412-3.204 1.5619-6.3465 2.7517-9.3919 1.2487-3.2119 2.7542-6.3193 4.5021-9.2923.0329-.0485.0476-.1069.0414-.1651-.0194-.1328-.1973-.1721-.3303-.0452-.0263.0249-.0489.0533-.0672.0844-.2163.3696-.4286.7402-.6369 1.1119-1.6835 2.9896-3.1244 6.1078-4.3091 9.325-1.1284 3.0552-1.9867 6.2022-2.5653 9.4062-.5419 2.972-.7761 5.991-.6991 9.01z" fill="#fff"/><path d="m42.8297 72.1987c-.0777-.0644-.1345-.1501-.1633-.2464-.0287-.0964-.0282-.1991.0017-.2951.0298-.096.0876-.1811.1661-.2446.0784-.0634.174-.1024.2747-.1119 1.1177-.1073 2.2457.0076 3.3182.3379l10.9255 3.3532c.1414.0434.2729.1141.3868.2079.1139.0939.2082.2092.2773.3392.0691.1301.1117.2724.1255.4189.0138.1464-.0016.2941-.0453.4347-.0437.1405-.1148.2711-.2092.3844-.0945.1132-.2105.2068-.3414.2755s-.2741.1111-.4214.1248c-.1474.0136-.296-.0017-.4374-.0451l-10.9256-3.3531c-1.0732-.3282-2.07-.8654-2.9322-1.5803z" fill="#3f3d56"/><path d="m87.6149 86.1274c-.2968-.1237-.5627-.3106-.7789-.5475-.2163-.2368-.3777-.5179-.4728-.8235-.0951-.3055-.1216-.6281-.0777-.9449s.1571-.6203.3318-.8889l-1.8727-9.7325 4.773-.3698.2881 9.5198c.4346.3215.7355.7903.8456 1.3175.1101.5273.0218 1.0763-.2483 1.5431-.27.4669-.703.819-1.2169.9898s-1.0729.1483-1.5712-.0631z" fill="#ffb8b8"/><path d="m84.45 81.106-4.8613-22.4993c-.1996-.9241-.0217-1.8891.4947-2.6829.5163-.7937 1.3288-1.3511 2.2587-1.5495s1.9011-.0215 2.6998.4916c.7987.5132 1.3595 1.3206 1.5592 2.2447l4.8614 22.499c.051.2376.0051.4857-.1276.6897-.1327.2041-.3414.3475-.5804.3988l-5.2093 1.1115c-.1184.0253-.2406.0272-.3598.0055-.1191-.0217-.2328-.0665-.3345-.1318-.1017-.0654-.1894-.15-.2582-.249-.0688-.0991-.1173-.2107-.1427-.3283z" fill="#0c97f0"/><path d="m76.4706 116.497h-2.5121l-1.1953-9.63h3.708z" fill="#ffb8b8"/><path d="m72.1639 115.785h4.8452v3.032h-7.8958c0-.398.0789-.793.2322-1.16.1533-.368.378-.702.6613-.984.2833-.281.6196-.505.9897-.657s.7668-.231 1.1674-.231z" fill="#2f2e41"/><path d="m84.8725 116.294h-2.5121l-1.1954-9.63h3.7081z" fill="#ffb8b8"/><path d="m80.5658 115.58h4.8451v3.032h-7.8958c0-.398.0789-.793.2323-1.16.1533-.368.378-.702.6612-.984.2833-.281.6196-.505.9898-.657.3701-.153.7668-.231 1.1674-.231z" fill="#2f2e41"/><path d="m73.4607 114.702c-.0942-.077-.172-.172-.2288-.279-.0569-.107-.0917-.224-.1024-.345l-2.9206-31.9273c-.0114-.1239.0028-.2488.0417-.3671.0388-.1183.1015-.2275.1842-.321.0827-.0934.1837-.1692.2968-.2226s.2359-.0833.3611-.088l14.6478-.5459c.1267-.0047.2531.0167.3712.0627.1181.0461.2253.1158.315.2049.0898.0891.16.1956.2065.313.0464.1173.068.2428.0634.3688l-1.1709 31.8045c-.0086.223-.0984.435-.2526.596-.1542.162-.3622.263-.5855.283l-2.9535.267c-.1225.011-.2459-.002-.3631-.039s-.2257-.097-.3192-.177c-.0936-.079-.1701-.176-.2253-.285-.0552-.11-.0878-.229-.0959-.351l-1.3555-20.2047c-.0009-.0388-.0097-.0771-.0257-.1125-.016-.0355-.0389-.0674-.0674-.0939-.0286-.0265-.0621-.0471-.0988-.0606-.0366-.0135-.0756-.0196-.1146-.018h-.0013c-.0391-.0015-.0782.0047-.1149.0184s-.0703.0346-.0988.0613c-.0285.0268-.0513.059-.0671.0946-.0159.0357-.0243.0741-.025.1131l-1.213 20.3413c-.0121.218-.1024.424-.2544.581-.1521.158-.3558.256-.5743.276l-2.5802.257c-.1212.012-.2436.001-.3602-.035-.1166-.035-.2249-.093-.3187-.17z" fill="#2f2e41"/><path d="m79.0951 49.5933c2.7797 0 5.0331-2.2393 5.0331-5.0017s-2.2534-5.0018-5.0331-5.0018-5.0331 2.2394-5.0331 5.0018 2.2534 5.0017 5.0331 5.0017z" fill="#ffb8b8"/><path d="m69.403 82.3679c-.0897-.1012-.1555-.2209-.1928-.3504-.0373-.1296-.0452-.2658-.023-.3988.9292-5.6127.4055-13.8629-.1975-19.7957-.1574-1.5738.1053-3.161.7615-4.6018s1.6829-2.6844 2.9765-3.6055l2.6286-2.2389c.1747-.1471.3976-.2255.6265-.2203l6.53.1853c.2355.0064.4595.1025.6258.2683l1.009 2.2206.0104.0076c1.2025.8783 2.1671 2.0391 2.8078 3.3785.6406 1.3394.9373 2.8158.8634 4.297l-.9612 19.7406c-.0123.2296-.1105.4462-.2753.6075s-.3843.2555-.6155.2642l-15.8502.5534c-.0102.0002-.0204.0005-.0306.0005-.1313.0001-.2611-.0276-.3807-.0815-.1196-.0538-.2263-.1324-.3127-.2306z" fill="#0c97f0"/><path d="m50.391 74.13c-.0079-.3197.0549-.6373.1838-.9303.129-.2931.321-.5544.5626-.7657s.5269-.3674.8358-.4572c.3088-.0899.6338-.1114.9519-.063l8.1692-5.6814 2.293 4.1764-8.6224 4.1575c-.1173.5257-.4246.9904-.8636 1.3061-.439.3156-.9792.4602-1.5184.4064-.5391-.0538-1.0397-.3022-1.4068-.6983-.3671-.396-.5753-.9121-.5851-1.4505z" fill="#ffb8b8"/><path d="m57.2658 75.1168c-.1198-.018-.2348-.0593-.3384-.1217s-.1937-.1446-.2652-.2419l-3.1526-4.2684c-.1444-.196-.2047-.441-.1676-.6811.037-.2402.1684-.456.3653-.6l18.6673-13.6164c.7668-.5592 1.7257-.7929 2.6658-.6496.4655.071.9124.2324 1.3151.475.4028.2426.7535.5616 1.0321.9389.2787.3773.4799.8054.592 1.26.1122.4545.1331.9266.0617 1.3892s-.2338.9066-.4779 1.3069c-.2441.4002-.5652.7487-.9448 1.0256l-18.6674 13.6164c-.1574.1155-.3479.1778-.5436.1778-.0475 0-.0949-.0036-.1418-.0107z" fill="#0c97f0"/><path d="m79.3527 49.044c.6675-.8132.5944-2.0521.0587-2.9565s-1.4451-1.5273-2.3808-2.0138c-.9357-.4866-1.9298-.8692-2.8104-1.4485s-.8422-3.0317-1.0766-4.055l.5592.1851c-.2149-.2733-.2839-1.0807-.4988-1.354.6319.0621 1.1178.6583 1.7497.7204l-.3646-.9727c2.1669-.1328 3.5141 1.3636 5.6811 1.2308 1.0736-.0657 2.2396-.1074 3.1222.5037.7669.531 1.1552 1.45 1.4099 2.3438.547 1.9189.632 4.0685-.3127 5.8282s-3.1223 2.9455-5.0248 2.3101z" fill="#2f2e41"/><path d="m51.7198 118.929h78.0752c.054 0 .107-.022.145-.06s.06-.09.06-.144-.022-.106-.06-.144-.091-.06-.145-.06h-78.0752c-.0543 0-.1065.022-.1449.06s-.06.09-.06.144.0216.106.06.144.0906.06.1449.06z" fill="#3f3d56"/></g></svg>