<svg width="353" height="319" viewBox="0 0 353 319" fill="none" xmlns="http://www.w3.org/2000/svg">
<path d="M48.5973 249.156C98.0806 249.156 138.195 246.814 138.195 243.924C138.195 241.034 98.0806 238.691 48.5973 238.691C-0.885937 238.691 -41.0001 241.034 -41.0001 243.924C-41.0001 246.814 -0.885937 249.156 48.5973 249.156Z" fill="#F5F5F5"/>
<g clip-path="url(#clip0_2_924)">
<path d="M68.7452 175.592C70.3244 171.059 82.7758 177.224 87.8284 184.736C91.1936 189.739 93.2496 195.08 94.2094 202.254C94.0942 194.068 93.9637 185.274 93.8358 176.974C92.8142 174.905 90.4807 170.134 88.8023 166.353C83.2022 153.738 69.8865 149.041 65.2864 141.076C59.2586 130.641 59.2936 114.986 64.4246 109.337C68.8839 104.428 83.6504 137.621 85.3136 141.329C91.0345 154.085 92.6977 163.551 93.7696 172.721C93.6474 164.926 93.5309 157.769 93.4348 152.246C93.1223 134.234 92.7314 128.441 92.5526 126.658C91.9358 125.787 91.2083 124.773 90.785 124.228C87.2116 119.628 79.2826 114.151 75.3203 107.463C69.5345 97.6986 70.4695 86.0116 74.5279 81.6598C78.7709 77.1094 86.2721 87.8639 90.2548 98.5197C94.2374 109.176 92.5354 119.374 93.6525 128.224C93.8861 129.96 94.126 136.552 94.3514 145.697C95.5595 135.857 97.9661 129.266 102.426 123.123C107.912 115.569 112.647 106.369 117.167 107.558C121.687 108.747 119.254 120.92 115.678 129.466C112.494 137.076 96.7847 144.667 94.4698 150.786C94.7422 163.182 94.986 178.885 95.1585 193.506C96.3971 185.953 95.5455 185.319 100.62 173.757C103.637 166.883 116.007 158.406 117.482 163.129C118.93 167.764 116.715 176.778 112.046 183.03C108.279 188.073 99.9208 188.067 97.9865 191.196C97.5352 191.926 96.0432 194.725 95.1909 196.334C95.3927 214.184 95.4831 229.94 95.3831 235.312L94.5722 235.366C94.6111 233.979 94.513 224.899 94.3539 212.883C92.3247 206.489 78.6614 202.757 74.4407 196.108C70.0252 189.15 66.8509 181.03 68.7452 175.592Z" fill="#E6E6E6"/>
<path d="M81.5927 243.4H107.817C109.25 243.4 110.485 242.391 110.769 240.987L112.631 231.809H76.7788L78.6406 240.987C78.9251 242.391 80.1599 243.4 81.5927 243.4Z" fill="#F0F0F0"/>
<path d="M76.0289 235.367H113.381C114.276 235.367 115.028 234.695 115.128 233.805L115.892 227.02C116.009 225.977 115.193 225.064 114.144 225.064H75.2651C74.2161 225.064 73.4001 225.977 73.5179 227.02L74.2817 233.805C74.3816 234.695 75.134 235.367 76.0289 235.367Z" fill="#F0F0F0"/>
<path d="M284.939 48.4785H99.2144V135.374H284.939V48.4785Z" fill="#E6E6E6"/>
<path d="M287.737 48.4785H100.522V135.374H287.737V48.4785Z" fill="#F0F0F0"/>
<path d="M284.939 135.374H99.2144V139.806H284.939V135.374Z" fill="#E6E6E6"/>
<path d="M292.398 135.374H105.183V139.806H292.398V135.374Z" fill="#F0F0F0"/>
<path d="M283.82 131.457V52.3959L104.439 52.3959L104.439 131.457L283.82 131.457Z" fill="#FAFAFA"/>
<path d="M123.686 131.457L134.588 52.3963H151.601L140.698 131.457H123.686Z" fill="white"/>
<path d="M106.252 127.558C106.098 127.558 105.972 127.433 105.972 127.278V54.9442C105.972 54.7895 106.098 54.6641 106.252 54.6641C106.407 54.6641 106.532 54.7895 106.532 54.9442V127.279C106.532 127.433 106.407 127.558 106.252 127.558Z" fill="#F0F0F0"/>
<path d="M144.353 131.457L155.255 52.3963H161.888L150.985 131.457H144.353Z" fill="white"/>
<path d="M283.82 131.457V52.3958H283.323V131.457H283.82Z" fill="#E6E6E6"/>
<path opacity="0.6" d="M288.663 58.3018H102.939L102.578 53.9181H288.303L288.663 58.3018Z" fill="#EBEBEB"/>
<path opacity="0.6" d="M288.663 65.4912H102.939L102.578 61.1075H288.303L288.663 65.4912Z" fill="#EBEBEB"/>
<path opacity="0.6" d="M288.663 72.6806H102.939L102.578 68.2969H288.303L288.663 72.6806Z" fill="#EBEBEB"/>
<path opacity="0.6" d="M288.663 79.8699H102.939L102.578 75.4863H288.303L288.663 79.8699Z" fill="#EBEBEB"/>
<path opacity="0.6" d="M288.663 87.0593H102.939L102.578 82.6757H288.303L288.663 87.0593Z" fill="#EBEBEB"/>
<path opacity="0.6" d="M288.663 94.2487H102.939L102.578 89.8651H288.303L288.663 94.2487Z" fill="#EBEBEB"/>
<path d="M314.173 157.218H285.829V243.401H314.173V157.218Z" fill="#E6E6E6"/>
<path d="M306.604 243.401H314.173V231.504H298.669L306.604 243.401Z" fill="#FAFAFA"/>
<path d="M236.892 157.218H208.548V243.401H236.892V157.218Z" fill="#E6E6E6"/>
<path d="M314.173 157.218H230.287V239.306H314.173V157.218Z" fill="#FAFAFA"/>
<path d="M237.855 243.401H230.287V231.504H245.791L237.855 243.401Z" fill="#FAFAFA"/>
<path d="M308.302 187.807H236.158V208.35H308.302V187.807Z" fill="#F0F0F0"/>
<path d="M308.302 212.74H236.158V233.283H308.302V212.74Z" fill="#F0F0F0"/>
<path d="M293.991 190.003H250.469C248.826 190.003 247.494 188.671 247.494 187.028V186.028H296.966V187.028C296.966 188.671 295.633 190.003 293.991 190.003Z" fill="#FAFAFA"/>
<path d="M308.302 162.873H236.158V183.416H308.302V162.873Z" fill="#F0F0F0"/>
<path d="M293.991 165.069H250.469C248.826 165.069 247.494 163.737 247.494 162.094V161.094H296.966V162.094C296.966 163.737 295.633 165.069 293.991 165.069Z" fill="#FAFAFA"/>
<path d="M293.991 214.937H250.469C248.826 214.937 247.494 213.605 247.494 211.962V210.961H296.966V211.962C296.966 213.605 295.633 214.937 293.991 214.937Z" fill="#FAFAFA"/>
<path d="M147.942 202.168H125.532V243.401H147.942V202.168Z" fill="#E0E0E0"/>
<path d="M205.062 243.4H130.021L122.138 187.453H197.179L205.062 243.4Z" fill="#E6E6E6"/>
<path d="M216.009 243.4H133.003L125.12 187.453H208.126L216.009 243.4Z" fill="#F0F0F0"/>
<path d="M141.128 234.655L134.488 196.199H200.001L206.641 234.655H141.128Z" fill="white"/>
<path d="M169.278 234.655L147.009 196.199H153.996L176.264 234.655H169.278Z" fill="#FAFAFA"/>
<path d="M179.225 234.655L156.957 196.199H168.87L191.138 234.655H179.225Z" fill="#FAFAFA"/>
<path d="M353 243.4H34.7447V243.559H353V243.4Z" fill="#EBEBEB"/>
<path d="M321.111 253.646H300.029V253.805H321.111V253.646Z" fill="#EBEBEB"/>
<path d="M245.57 255.373H240.037V255.532H245.57V255.373Z" fill="#EBEBEB"/>
<path d="M299.392 247.735H287.176V247.894H299.392V247.735Z" fill="#EBEBEB"/>
<path d="M95.6282 248.804H68.1354V248.963H95.6282V248.804Z" fill="#EBEBEB"/>
<path d="M105.327 248.804H101.296V248.963H105.327V248.804Z" fill="#EBEBEB"/>
<path d="M178.053 251.492H118.427V251.651H178.053V251.492Z" fill="#EBEBEB"/>
<path d="M185.607 215.013H62.697C60.6939 215.013 59.0638 213.383 59.0638 211.38V38.6107C59.0638 36.6076 60.6939 34.9775 62.697 34.9775H185.607C187.609 34.9775 189.239 36.6076 189.239 38.6107V211.38C189.239 213.383 187.609 215.013 185.607 215.013ZM62.697 35.1373C60.7811 35.1373 59.2229 36.6954 59.2229 38.6113V211.381C59.2229 213.297 60.7811 214.855 62.697 214.855H185.607C187.522 214.855 189.08 213.297 189.08 211.381V38.6107C189.08 36.6954 187.522 35.1366 185.607 35.1366L62.697 35.1373Z" fill="#EBEBEB"/>
<path d="M323.281 215.013H200.372C198.369 215.013 196.74 213.383 196.74 211.38V38.6107C196.74 36.6076 198.37 34.9775 200.372 34.9775H323.281C325.285 34.9775 326.915 36.6076 326.915 38.6107V211.38C326.915 213.383 325.285 215.013 323.281 215.013ZM200.372 35.1373C198.457 35.1373 196.899 36.6954 196.899 38.6113V211.381C196.899 213.297 198.457 214.855 200.372 214.855H323.281C325.197 214.855 326.755 213.297 326.755 211.381V38.6107C326.755 36.6954 325.197 35.1366 323.281 35.1366L200.372 35.1373Z" fill="#EBEBEB"/>
<path d="M193.872 272.147C262.031 272.147 317.285 268.92 317.285 264.94C317.285 260.959 262.031 257.733 193.872 257.733C125.714 257.733 70.46 260.959 70.46 264.94C70.46 268.92 125.714 272.147 193.872 272.147Z" fill="#F5F5F5"/>
<path d="M135.174 240.637L136.821 241.358C136.243 241.937 135.127 242.321 134.185 241.909C133.117 241.441 132.615 240.229 132.923 239.133C133.031 238.752 133.223 238.432 133.525 238.158L129.055 226.728C127.446 226.795 126.765 225.289 126.803 224.252L128.439 224.978C128.824 225.146 129.268 224.973 129.436 224.588C129.605 224.202 129.427 223.754 129.041 223.585L127.393 222.865C127.971 222.286 129.086 221.902 130.028 222.315C131.096 222.783 131.665 223.968 131.356 225.064C131.249 225.445 131.122 225.74 130.82 226.014L135.291 237.444C136.545 237.515 137.514 238.909 137.477 239.945L135.807 239.233C135.422 239.064 134.962 239.245 134.793 239.63C134.624 240.015 134.789 240.469 135.174 240.637Z" fill="#407BFF"/>
<path opacity="0.2" d="M135.174 240.637L136.821 241.358C136.243 241.937 135.127 242.321 134.185 241.909C133.117 241.441 132.615 240.229 132.923 239.133C133.031 238.752 133.223 238.432 133.525 238.158L129.055 226.728C127.446 226.795 126.765 225.289 126.803 224.252L128.439 224.978C128.824 225.146 129.268 224.973 129.436 224.588C129.605 224.202 129.427 223.754 129.041 223.585L127.393 222.865C127.971 222.286 129.086 221.902 130.028 222.315C131.096 222.783 131.665 223.968 131.356 225.064C131.249 225.445 131.122 225.74 130.82 226.014L135.291 237.444C136.545 237.515 137.514 238.909 137.477 239.945L135.807 239.233C135.422 239.064 134.962 239.245 134.793 239.63C134.624 240.015 134.789 240.469 135.174 240.637Z" fill="white"/>
<path d="M122.418 230.539L120.673 230.972C120.778 230.161 121.428 229.176 122.426 228.928C123.558 228.646 124.695 229.3 125.119 230.356C125.266 230.723 125.309 231.095 125.237 231.496L135.753 237.825C136.986 236.79 138.445 237.568 139.047 238.412L137.309 238.836C136.901 238.937 136.655 239.345 136.757 239.753C136.858 240.162 137.273 240.408 137.681 240.307L139.427 239.872C139.322 240.683 138.673 241.667 137.674 241.915C136.542 242.197 135.369 241.604 134.945 240.547C134.797 240.18 134.718 239.87 134.79 239.469L124.274 233.139C123.237 233.849 121.619 233.336 121.016 232.491L122.773 232.038C123.182 231.936 123.436 231.513 123.335 231.105C123.233 230.696 122.826 230.437 122.418 230.539Z" fill="#407BFF"/>
<path opacity="0.2" d="M122.418 230.539L120.673 230.972C120.778 230.161 121.428 229.176 122.426 228.928C123.558 228.646 124.695 229.3 125.119 230.356C125.266 230.723 125.309 231.095 125.237 231.496L135.753 237.825C136.986 236.79 138.445 237.568 139.047 238.412L137.309 238.836C136.901 238.937 136.655 239.345 136.757 239.753C136.858 240.162 137.273 240.408 137.681 240.307L139.427 239.872C139.322 240.683 138.673 241.667 137.674 241.915C136.542 242.197 135.369 241.604 134.945 240.547C134.797 240.18 134.718 239.87 134.79 239.469L124.274 233.139C123.237 233.849 121.619 233.336 121.016 232.491L122.773 232.038C123.182 231.936 123.436 231.513 123.335 231.105C123.233 230.696 122.826 230.437 122.418 230.539Z" fill="white"/>
<path d="M157.768 225.277L157.767 225.281L157.795 225.206H141.542L137.731 235.274H153.915L153.905 235.3H155.242L158.671 226.323L157.768 225.277Z" fill="#263238"/>
<path opacity="0.2" d="M157.768 225.277L157.767 225.281L157.795 225.206H141.542L137.731 235.274H153.915L153.905 235.3H155.242L158.671 226.323L157.768 225.277Z" fill="white"/>
<path opacity="0.4" d="M157.795 225.206L153.984 235.274L137.731 235.274L141.542 225.206H157.795Z" fill="black"/>
<path d="M129.583 232.253L133.345 237.084L134.694 236.881L130.726 232.253H129.583Z" fill="#263238"/>
<path opacity="0.1" d="M129.583 232.253L133.345 237.084L134.694 236.881L130.726 232.253H129.583Z" fill="white"/>
<path d="M130.726 227.683L134.487 232.514L135.837 232.311L131.869 227.683H130.726Z" fill="#263238"/>
<path opacity="0.1" d="M130.726 227.683L134.487 232.514L135.837 232.311L131.869 227.683H130.726Z" fill="white"/>
<path d="M125.877 243.479H153.984V235.274H125.877V243.479Z" fill="#263238"/>
<path opacity="0.2" d="M125.877 243.479H153.984V235.274H125.877V243.479Z" fill="white"/>
<path d="M128.926 232.761H154.746V231.463H128.926V232.761Z" fill="#263238"/>
<path opacity="0.2" d="M128.926 232.761H154.746V231.463H128.926V232.761Z" fill="white"/>
<path opacity="0.2" d="M144.835 232.761H154.746V231.463H144.835V232.761Z" fill="black"/>
<path d="M130.451 228.95H156.271V227.652H130.451V228.95Z" fill="#263238"/>
<path opacity="0.2" d="M130.451 228.95H156.271V227.652H130.451V228.95Z" fill="white"/>
<path opacity="0.2" d="M146.36 228.95H156.271V227.652H146.36V228.95Z" fill="black"/>
<path opacity="0.2" d="M142.93 243.479H153.984V235.274H142.93V243.479Z" fill="black"/>
<path d="M120.667 120.745H107.392C105.134 120.745 103.304 122.575 103.304 124.833V136.386C103.304 138.644 105.134 140.474 107.392 140.474H109.881L108.944 144.122L112.63 140.474H120.668C122.925 140.474 124.756 138.644 124.756 136.386V124.833C124.755 122.575 122.925 120.745 120.667 120.745Z" fill="#407BFF"/>
<path opacity="0.7" d="M120.667 120.745H107.392C105.134 120.745 103.304 122.575 103.304 124.833V136.386C103.304 138.644 105.134 140.474 107.392 140.474H109.881L108.944 144.122L112.63 140.474H120.668C122.925 140.474 124.756 138.644 124.756 136.386V124.833C124.755 122.575 122.925 120.745 120.667 120.745Z" fill="white"/>
<path d="M114.029 137.088C117.551 137.088 120.405 134.233 120.405 130.712C120.405 127.191 117.551 124.336 114.029 124.336C110.508 124.336 107.654 127.191 107.654 130.712C107.654 134.233 110.508 137.088 114.029 137.088Z" stroke="#407BFF" stroke-width="0.924213" stroke-miterlimit="10"/>
<path d="M110.968 130.712L112.981 132.896L117.091 128.541" stroke="#407BFF" stroke-width="0.924213" stroke-miterlimit="10" stroke-linecap="round" stroke-linejoin="round"/>
<path d="M281.942 131.143L277.002 132.748L280.976 137.45C280.976 137.45 282.847 135.856 283.868 134.069C284.294 133.322 284.048 132.372 283.306 131.939L281.942 131.143Z" fill="#7F3E3B"/>
<path d="M274.728 136.607L277.691 140.205L280.976 137.45L277.002 132.748L274.728 136.607Z" fill="#7F3E3B"/>
<path d="M283.535 92.7256C284.742 96.0342 285.849 99.3434 286.898 102.7C287.932 106.064 288.919 109.422 289.76 112.951L290.061 114.305L290.201 115.012L290.27 115.365L290.288 115.454L290.307 115.589L290.345 115.86C290.522 117.301 290.372 118.434 290.172 119.484C289.757 121.563 289.081 123.327 288.338 125.039C286.825 128.44 285.011 131.495 282.888 134.458L279.587 132.632C280.756 129.461 281.91 126.194 282.776 123.048C283.192 121.481 283.55 119.899 283.656 118.532C283.704 117.863 283.671 117.237 283.579 116.954L283.306 115.959L282.951 114.784C281.952 111.596 280.813 108.319 279.686 105.064C278.565 101.802 277.434 98.5159 276.349 95.2481L283.535 92.7256Z" fill="#7F3E3B"/>
<path d="M256.045 73.0351C256.129 73.4317 255.989 73.8059 255.732 73.8709C255.475 73.9358 255.199 73.6665 255.115 73.27C255.031 72.8735 255.171 72.4992 255.428 72.4343C255.685 72.3693 255.961 72.6379 256.045 73.0351Z" fill="#263238"/>
<path d="M256.025 73.7964C256.025 73.7964 255.616 76.3106 254.867 77.6632C255.701 78.1425 256.819 77.5448 256.819 77.5448L256.025 73.7964Z" fill="#630F0F"/>
<path d="M254.995 70.6266C254.919 70.6266 254.846 70.5909 254.799 70.5254C254.724 70.4178 254.75 70.2695 254.858 70.1937C254.896 70.167 255.814 69.5388 257.013 70.0321C257.134 70.0824 257.192 70.2211 257.143 70.3427C257.092 70.4643 256.954 70.5228 256.832 70.4719C255.872 70.076 255.138 70.5788 255.131 70.5839C255.089 70.6126 255.042 70.6266 254.995 70.6266Z" fill="#263238"/>
<path d="M269.688 74.296C270.132 78.9165 269.477 83.3905 270.511 87.4075C270.511 87.4075 269.363 91.1356 262.533 91.1356C255.024 91.1356 259.089 87.4075 259.089 87.4075C263.225 86.4286 263.237 83.388 262.633 80.5319L269.688 74.296Z" fill="#7F3E3B"/>
<path d="M271.966 88.6876C272.55 87.5075 272.938 85.8366 271.728 85.4133C270.397 84.9481 263.29 84.7934 260.711 85.6667C258.132 86.5406 258.761 88.9339 258.761 88.9339L271.966 88.6876Z" fill="#263238"/>
<path d="M287.311 256.318C287.805 256.201 288.314 255.973 288.664 255.796C288.71 255.772 288.738 255.723 288.735 255.67C288.731 255.618 288.696 255.573 288.647 255.556C288.423 255.481 286.45 254.83 285.931 255.273C285.851 255.342 285.762 255.469 285.798 255.682C285.847 255.97 285.989 256.174 286.219 256.289C286.508 256.435 286.905 256.414 287.311 256.318ZM288.255 255.705C287.391 256.101 286.685 256.233 286.335 256.057C286.182 255.98 286.09 255.842 286.055 255.639C286.038 255.539 286.07 255.497 286.099 255.471C286.369 255.241 287.459 255.465 288.255 255.705Z" fill="#407BFF"/>
<path d="M288.635 255.807C288.659 255.801 288.682 255.788 288.7 255.77C288.733 255.735 288.744 255.686 288.729 255.64C288.709 255.576 288.216 254.065 287.476 253.705C287.283 253.611 287.089 253.599 286.899 253.67C286.605 253.779 286.57 253.984 286.575 254.097C286.603 254.719 287.948 255.637 288.572 255.806C288.593 255.811 288.614 255.811 288.635 255.807ZM287.045 253.896C287.149 253.871 287.253 253.885 287.362 253.938C287.836 254.169 288.22 255.027 288.388 255.462C287.74 255.175 286.851 254.452 286.834 254.084C286.833 254.05 286.829 253.972 286.989 253.913C287.007 253.906 287.026 253.9 287.045 253.896Z" fill="#407BFF"/>
<path d="M252.543 260.202C253.051 260.202 253.598 260.097 253.979 260.005C254.03 259.993 254.069 259.951 254.077 259.899C254.086 259.848 254.062 259.796 254.018 259.768C253.818 259.643 252.047 258.556 251.44 258.868C251.346 258.916 251.231 259.019 251.217 259.235C251.199 259.526 251.289 259.757 251.486 259.923C251.734 260.131 252.125 260.202 252.543 260.202ZM253.602 259.822C252.671 260.009 251.954 259.975 251.653 259.723C251.522 259.612 251.464 259.458 251.477 259.251C251.484 259.15 251.524 259.116 251.559 259.099C251.874 258.937 252.883 259.406 253.602 259.822Z" fill="#407BFF"/>
<path d="M253.949 260.009C253.973 260.009 253.998 260.002 254.019 259.988C254.059 259.962 254.082 259.916 254.078 259.869C254.073 259.801 253.942 258.218 253.304 257.696C253.138 257.561 252.951 257.504 252.75 257.529C252.439 257.567 252.357 257.759 252.336 257.87C252.221 258.481 253.319 259.684 253.886 259.992C253.906 260.004 253.928 260.009 253.949 260.009ZM252.84 257.784C252.947 257.784 253.045 257.821 253.139 257.898C253.548 258.232 253.723 259.155 253.787 259.617C253.222 259.188 252.523 258.28 252.591 257.919C252.597 257.885 252.612 257.808 252.781 257.787C252.802 257.785 252.821 257.784 252.84 257.784Z" fill="#407BFF"/>
<path d="M259.857 259.81H254.834L254.783 248.175H259.807L259.857 259.81Z" fill="#7F3E3B"/>
<path d="M294.863 255.505L290.026 256.392L286.557 244.943L291.393 244.057L294.863 255.505Z" fill="#7F3E3B"/>
<path d="M289.106 255.105L294.598 253.806C294.798 253.759 294.999 253.858 295.081 254.045L296.906 258.202C297.095 258.633 296.825 259.147 296.363 259.248C294.438 259.668 293.484 259.775 291.069 260.346C289.583 260.698 286.552 261.577 284.5 262.063C282.493 262.538 281.778 260.564 282.582 260.179C286.186 258.457 287.38 256.975 288.372 255.595C288.55 255.347 288.814 255.174 289.106 255.105Z" fill="#263238"/>
<path d="M254.89 259.228H260.376C260.582 259.228 260.754 259.371 260.791 259.572L261.61 264.037C261.695 264.5 261.327 264.939 260.853 264.931C258.875 264.897 256.02 264.781 253.532 264.781C250.623 264.781 249.587 264.94 246.176 264.94C244.113 264.94 243.621 262.855 244.492 262.666C248.456 261.806 250.186 261.713 253.664 259.619C254.042 259.392 254.455 259.228 254.89 259.228Z" fill="#263238"/>
<path d="M281.711 88.7047C286.399 92.0044 287.812 100.509 287.812 100.509L277.184 105.897C277.184 105.897 274.486 100.666 273.304 95.3499C272.185 90.3189 278.378 86.3592 281.711 88.7047Z" fill="#407BFF"/>
<path opacity="0.2" d="M276.396 94.1285L280.584 104.161L277.187 105.898C277.187 105.898 275.705 103.014 274.437 99.3262L276.396 94.1285Z" fill="black"/>
<path d="M250.452 110.774C250.488 116.381 250.827 123.357 251.663 132.015H278.54C278.869 128.068 277.22 109.459 281.221 90.8281C281.518 89.4425 280.591 88.093 279.191 87.8754C277.478 87.6093 275.136 87.3038 272.844 87.193C269.417 87.0288 264.449 86.9193 261.423 87.193C259.777 87.3426 258.166 87.6055 256.841 87.8633C254.547 88.3095 252.724 90.0223 252.117 92.2781C251.537 94.4346 250.945 97.7495 250.646 102.751C250.509 105.057 250.433 107.71 250.452 110.774Z" fill="#407BFF"/>
<path opacity="0.2" d="M258.933 100.225C257.157 101.53 253.758 102.128 250.664 102.395C250.715 101.574 250.779 100.798 250.849 100.066C251.682 99.6266 252.485 99.2256 253.242 98.8564L258.933 100.225Z" fill="black"/>
<g opacity="0.2">
<path d="M254.783 248.179L254.809 254.644H259.835L259.81 248.179H254.783Z" fill="black"/>
<path d="M291.395 244.06L286.557 244.946L288.347 250.848L293.186 249.96L291.395 244.06Z" fill="black"/>
</g>
<path d="M268.972 68.8844C269.707 73.8314 270.387 76.6804 268.48 79.7968C265.611 84.484 259.182 83.7571 257 79.1844C255.036 75.0688 254.163 67.67 258.475 64.5377C262.723 61.4519 268.235 63.9375 268.972 68.8844Z" fill="#7F3E3B"/>
<path d="M258.693 72.496C256.832 71.6781 257.008 68.7431 257.574 67.5058C255.417 68.2486 252.298 68.6725 251.736 66.4803C251.174 64.2882 253.084 63.581 251.916 61.7065C250.75 59.8326 254.462 57.7811 256.195 60.3985C257.928 63.0158 262.201 61.865 264.965 59.3374C266.975 57.4985 269.916 59.8676 268.748 62.2724C268.748 62.2724 274.795 61.8835 273.593 65.9851C272.39 70.0868 270.693 70.2351 271.082 73.1522C271.345 75.1273 271.577 79.1393 269.208 79.7051C266.346 80.3887 259.201 77.8529 258.693 72.496Z" fill="#263238"/>
<path opacity="0.2" d="M258.659 77.8516C258.112 78.2462 257.545 78.6663 256.966 79.1119C256.979 79.1374 256.985 79.1565 256.998 79.1819C257.596 80.4358 258.519 81.4033 259.601 82.0526C259.961 81.7031 260.162 80.5275 260.84 80.5453C262.856 80.5981 266.76 79.7554 267.407 77.4786L258.659 77.8516Z" fill="black"/>
<path d="M260.226 72.426C260.367 73.6945 260.131 74.8829 259.748 75.6569C259.171 76.8211 258.27 76.0789 257.917 74.6468C257.599 73.3572 257.516 71.1975 258.342 70.5629C259.155 69.9366 260.065 70.9754 260.226 72.426Z" fill="#7F3E3B"/>
<path d="M261.197 132.015C261.197 132.015 265.416 170.409 267.991 184.794C270.811 200.545 285.412 249.988 285.412 249.988L294.412 248.072C294.412 248.072 284.362 201.817 283.008 186.222C281.539 169.296 278.536 132.015 278.536 132.015L261.197 132.015Z" fill="#407BFF"/>
<path opacity="0.3" d="M261.197 132.015C261.197 132.015 265.416 170.409 267.991 184.794C270.811 200.545 285.412 249.988 285.412 249.988L294.412 248.072C294.412 248.072 284.362 201.817 283.008 186.222C281.611 170.131 281.609 170.165 278.536 132.015L261.197 132.015Z" fill="black"/>
<path d="M283.396 246.951C283.358 246.959 284.928 250.237 284.928 250.237L295.054 248.081L294.33 245.011L283.396 246.951Z" fill="#263238"/>
<path opacity="0.2" d="M264.272 145.695C270.814 146.987 269.168 171.573 267.886 184.218C266.329 175.279 264.211 158.08 262.78 145.872C263.227 145.654 263.722 145.585 264.272 145.695Z" fill="black"/>
<path d="M251.664 132.015C251.664 132.015 249.522 169.579 249.477 184.899C249.43 200.835 252.982 253.014 252.982 253.014H261.493C261.493 253.014 263.783 201.766 264.767 186.116C265.839 169.053 269.329 132.015 269.329 132.015H251.664Z" fill="#407BFF"/>
<path opacity="0.3" d="M251.664 132.015C251.664 132.015 249.522 169.579 249.477 184.899C249.43 200.835 252.982 253.014 252.982 253.014H261.493C261.493 253.014 263.783 201.766 264.767 186.116C265.839 169.053 269.329 132.015 269.329 132.015H251.664Z" fill="black"/>
<path d="M251.475 249.624C251.435 249.624 251.818 253.157 251.818 253.157H262.171L262.573 250.004L251.475 249.624Z" fill="#263238"/>
<path d="M262.309 96.5835C261.293 96.6828 260.431 96.7343 259.499 96.7617C258.584 96.7916 257.672 96.8037 256.757 96.8005C254.929 96.7802 253.094 96.6879 251.25 96.481C249.405 96.283 247.551 95.9845 245.684 95.5256C243.817 95.0769 241.937 94.4518 240.069 93.5327L239.857 93.4283C238.212 92.6186 237.534 90.6283 238.343 88.9829C238.431 88.804 238.545 88.622 238.659 88.4667C239.529 87.2981 240.372 86.4833 241.234 85.7125C242.094 84.9519 242.954 84.2676 243.82 83.6171C245.549 82.3116 247.319 81.1589 249.096 80.0387C250.882 78.9337 252.685 77.8847 254.512 76.8867C256.354 75.9039 258.176 74.9383 260.087 74.051C261.037 73.6099 262.164 74.0224 262.605 74.972C262.987 75.7931 262.73 76.7473 262.039 77.2756L262.018 77.2915C260.417 78.5174 258.77 79.7363 257.174 80.9839C255.565 82.22 253.965 83.4567 252.403 84.7176C250.835 85.9658 249.309 87.2529 247.867 88.5456C247.146 89.1923 246.457 89.8517 245.837 90.5093C245.226 91.1591 244.646 91.8332 244.336 92.3443L242.926 87.2783C244.222 87.7824 245.684 88.144 247.205 88.419C248.73 88.6831 250.315 88.8556 251.922 88.9676C253.531 89.0695 255.163 89.1229 256.8 89.1236C257.618 89.1287 258.439 89.1198 259.257 89.0956C260.057 89.0657 260.926 89.037 261.638 88.9975L261.725 88.9925C263.824 88.8747 265.622 90.4806 265.74 92.5798C265.856 94.6249 264.328 96.3836 262.309 96.5835Z" fill="#7F3E3B"/>
<path d="M265.873 73.0217L262.676 73.7276C262.676 73.7276 258.419 73.1987 257.444 76.408L259.967 78.5613L263.861 79.1768C264.478 79.2742 265.111 79.1717 265.666 78.884L266.66 78.3684C267.117 78.1316 267.422 77.6785 267.47 77.1661L267.706 74.6397C267.8 73.6188 266.874 72.8009 265.873 73.0217Z" fill="#7F3E3B"/>
<path d="M259.661 100.303C254.307 101.788 248.204 99.9321 248.204 99.9321L250.449 87.9447C250.449 87.9447 255.768 87.4788 259.089 87.4082C267.636 87.2274 269.312 97.6261 259.661 100.303Z" fill="#407BFF"/>
<path d="M76.7072 239.421L79.9225 239.367L80.7206 231.937L77.5048 231.991L76.7072 239.421Z" fill="#E4897B"/>
<path opacity="0.2" d="M80.7197 231.939L80.3089 235.768L77.0922 235.823L77.5025 231.993L80.7197 231.939Z" fill="black"/>
<path d="M84.2455 205.12C84.2543 215.3 81.3883 234.646 81.3883 234.646L76.008 235.481C76.008 235.481 75.4849 217.432 75.2825 207.441C75.2515 205.968 71.1508 198.865 66.9262 191.924C64.7506 188.346 62.5395 184.808 60.8338 182.104C59.0053 179.207 57.7567 177.269 57.7567 177.269L70.526 172.491C70.526 172.491 84.2368 195.331 84.2455 205.12Z" fill="#407BFF"/>
<path d="M82.1388 234.959L75.662 235.371L75.5483 233.286L82.6615 232.725L82.1388 234.959Z" fill="#263238"/>
<path d="M80.0797 238.917C80.0764 238.885 80.094 238.854 80.1231 238.84C80.2724 238.77 81.5898 238.156 81.9729 238.389C82.0464 238.433 82.0871 238.504 82.0903 238.595C82.0954 238.746 82.0422 238.869 81.9322 238.959C81.5672 239.258 80.6508 239.102 80.1374 238.983C80.1342 238.982 80.131 238.981 80.1277 238.979C80.1014 238.97 80.0824 238.946 80.0797 238.917ZM80.3962 238.883C81.1009 239.024 81.6314 239.01 81.8361 238.842C81.9082 238.783 81.9415 238.705 81.9378 238.601C81.9364 238.562 81.923 238.537 81.893 238.519C81.8847 238.514 81.8759 238.51 81.8657 238.506C81.6273 238.414 80.9156 238.658 80.3962 238.883Z" fill="#407BFF"/>
<path d="M80.1088 238.969C80.0875 238.953 80.0764 238.926 80.0801 238.9C80.0852 238.863 80.2072 238.004 80.63 237.683C80.7589 237.585 80.9031 237.546 81.0575 237.566C81.2659 237.595 81.3218 237.702 81.3324 237.787C81.3763 238.151 80.5792 238.818 80.1841 238.979C80.1656 238.986 80.1457 238.986 80.1277 238.979C80.1208 238.977 80.1143 238.974 80.1088 238.969ZM81.0357 237.717C80.9211 237.702 80.8186 237.73 80.7215 237.803C80.4442 238.014 80.3079 238.526 80.2566 238.776C80.6624 238.552 81.2072 238.025 81.1808 237.807C81.179 237.794 81.1748 237.759 81.1129 237.735C81.0935 237.728 81.0686 237.721 81.0357 237.717Z" fill="#407BFF"/>
<path d="M79.8296 238.528L76.3195 238.414C76.1882 238.41 76.0704 238.498 76.0366 238.624L75.2843 241.448C75.2062 241.74 75.4197 242.027 75.7233 242.032C76.9904 242.051 78.8236 242.036 80.4151 242.088C82.276 242.148 83.4599 242.063 85.6425 242.133C86.9622 242.175 87.3832 240.859 86.8356 240.721C84.3435 240.093 82.7118 240.205 80.5939 238.802C80.3633 238.649 80.1069 238.536 79.8296 238.528Z" fill="#263238"/>
<path opacity="0.2" d="M66.9268 191.924C64.7512 188.346 62.54 184.808 60.8344 182.104C61.9069 180.698 63.186 179.774 63.186 179.774C63.186 179.774 66.9134 186.28 66.9268 191.924Z" fill="black"/>
<path d="M40.431 239.033L43.5349 239.877L46.3704 232.963L43.2669 232.12L40.431 239.033Z" fill="#E4897B"/>
<path opacity="0.2" d="M46.369 232.965L44.9078 236.529L41.8034 235.685L43.2646 232.121L46.369 232.965Z" fill="black"/>
<path d="M70.851 169.73L70.5904 174.198L62.8455 180.38C62.8455 180.38 62.3145 201.174 60.1116 205.729C57.9088 210.284 47.3085 234.15 47.3085 234.15L41.5118 232.376C41.5118 232.376 50.7216 204.324 51.6491 202.667C52.5765 201.01 47.699 176.82 54.2332 165.383L70.851 169.73Z" fill="#407BFF"/>
<path d="M80.4027 149.793C80.7308 151.875 81.0048 153.954 81.2456 156.047C81.4785 158.141 81.6911 160.23 81.8329 162.369L81.9184 163.755C81.9512 164.074 82.034 164.409 82.1629 164.753C82.4226 165.438 82.8736 166.159 83.4512 166.842C84.0219 167.532 84.7128 168.185 85.454 168.807C85.8288 169.113 86.2082 169.425 86.6056 169.716C86.9956 170.002 87.429 170.295 87.7969 170.544L86.8519 172.761C86.2618 172.585 85.7641 172.397 85.2373 172.176C84.7202 171.957 84.2031 171.726 83.704 171.454C82.6999 170.92 81.7262 170.284 80.8131 169.493C79.906 168.704 79.0427 167.752 78.4013 166.542C78.0811 165.942 77.808 165.28 77.6555 164.568C77.6088 164.393 77.5876 164.21 77.5552 164.03L77.4896 163.587L77.3829 162.834L76.4471 156.679C76.1389 154.617 75.8454 152.546 75.5862 150.479L80.4027 149.793Z" fill="#DC897C"/>
<path d="M73.6804 144.09C71.88 146.585 74.9669 156.124 74.9669 156.124L82.0954 154.388C82.0954 154.388 81.7529 149.943 80.4752 146.205C79.1638 142.368 75.6559 141.352 73.6804 144.09Z" fill="#407BFF"/>
<path opacity="0.7" d="M73.6804 144.09C71.88 146.585 74.9669 156.124 74.9669 156.124L82.0954 154.388C82.0954 154.388 81.7529 149.943 80.4752 146.205C79.1638 142.368 75.6559 141.352 73.6804 144.09Z" fill="white"/>
<path opacity="0.2" d="M76.1028 149.192C77.3454 150.375 78.0575 153.423 77.6064 155.481L74.966 156.124C74.966 156.124 73.7793 152.46 73.307 149.08C73.9997 148.527 74.6795 147.837 76.1028 149.192Z" fill="black"/>
<path d="M60.5797 138.228C60.3505 141.893 59.7617 145.505 59.0381 148.848C58.5071 151.293 57.899 153.592 57.2978 155.661C55.8902 160.509 54.5196 164.105 54.2331 165.383C56.6684 166.022 65.8458 168.423 70.8509 169.73C79.0681 153.239 77.9438 142.934 77.9438 142.934C77.9438 142.934 76.2719 141.971 74.2266 141.146C73.9581 141.036 73.6813 140.932 73.3994 140.83C71.575 140.172 68.484 139.436 66.3343 138.982C65.8823 138.887 65.4212 138.802 64.9706 138.727C62.6753 138.346 60.5797 138.228 60.5797 138.228Z" fill="#407BFF"/>
<path opacity="0.7" d="M60.5797 138.228C60.3505 141.893 59.7617 145.505 59.0381 148.848C58.5071 151.293 57.899 153.592 57.2978 155.661C55.8902 160.509 54.5196 164.105 54.2331 165.383C56.6684 166.022 65.8458 168.423 70.8509 169.73C79.0681 153.239 77.9438 142.934 77.9438 142.934C77.9438 142.934 76.2719 141.971 74.2266 141.146C73.9581 141.036 73.6813 140.932 73.3994 140.83C71.575 140.172 68.484 139.436 66.3343 138.982C65.8823 138.887 65.4212 138.802 64.9706 138.727C62.6753 138.346 60.5797 138.228 60.5797 138.228Z" fill="white"/>
<path d="M72.3126 141.916C71.4558 140.395 72.4022 139.082 73.5459 137.986L71.7636 132.402C70.9064 134.628 69.0085 138.508 66.7751 138.971C66.9877 139.945 67.4013 140.968 68.1527 141.916H72.3126Z" fill="#E4897B"/>
<path opacity="0.2" d="M72.49 134.679L73.5459 137.983C73.2229 138.291 72.9174 138.616 72.6646 138.96C71.8892 138.313 71.3023 136.664 71.7691 135.723C72.002 135.253 72.288 134.84 72.49 134.679Z" fill="black"/>
<path d="M83.2672 132.679C83.1803 133.105 79.3971 132.2 78.8088 131.378C78.2205 130.556 80.1337 130.103 81.3254 130.719C82.5172 131.335 83.2672 132.679 83.2672 132.679Z" fill="#407BFF"/>
<path opacity="0.3" d="M83.2672 132.679C83.1803 133.105 79.3971 132.2 78.8088 131.378C78.2205 130.556 80.1337 130.103 81.3254 130.719C82.5172 131.335 83.2672 132.679 83.2672 132.679Z" fill="black"/>
<path d="M81.5006 130.537C81.4872 131.832 80.4978 134.179 79.1129 132.859C77.728 131.54 81.5237 128.311 81.5006 130.537Z" fill="#263238"/>
<path d="M79.441 135.998C79.1993 136.407 78.9442 136.78 78.6803 137.11C76.7728 139.51 72.9659 139.391 71.5463 136.697C71.4498 136.521 71.3661 136.336 71.2959 136.139C70.5223 133.998 71.3573 132.323 72.5223 129.365C73.6873 126.407 77.5422 125.519 79.806 127.919C81.7797 130.006 80.8874 133.572 79.441 135.998Z" fill="#E4897B"/>
<path d="M74.6739 124.24C74.6739 124.24 73.8444 124.43 72.9202 125.28C71.2026 126.861 69.9512 129.23 72.1272 131.617C73.703 131.024 74.4798 128.847 74.6739 128.221V124.24Z" fill="#263238"/>
<path d="M70.2917 131.245C70.1762 132.093 70.4664 132.913 70.9049 133.463C71.5648 134.289 72.5209 133.849 72.8624 132.905C73.1697 132.054 73.1965 130.6 72.282 130.114C71.3809 129.635 70.4239 130.275 70.2917 131.245Z" fill="#E4897B"/>
<path d="M76.5385 132.165C76.4289 132.399 76.4654 132.646 76.6198 132.716C76.7741 132.786 76.9876 132.653 77.0967 132.419C77.2062 132.184 77.1697 131.938 77.0154 131.867C76.8615 131.798 76.648 131.931 76.5385 132.165Z" fill="#263238"/>
<path d="M79.2044 133.376C79.0953 133.61 79.1314 133.857 79.2857 133.927C79.4401 133.998 79.6536 133.864 79.7626 133.63C79.8721 133.396 79.8356 133.149 79.6813 133.078C79.5274 133.009 79.3139 133.142 79.2044 133.376Z" fill="#263238"/>
<path d="M78.3024 133.108C78.3024 133.108 78.2446 134.659 78.5459 135.562C77.9637 135.741 77.337 135.241 77.337 135.241L78.3024 133.108Z" fill="#DE5753"/>
<path d="M75.6554 135.564C75.746 135.621 75.8449 135.675 75.953 135.724C75.9914 135.741 76.0367 135.724 76.0543 135.686C76.0723 135.648 76.0547 135.603 76.0173 135.586C74.9817 135.114 74.8343 134.177 74.8324 134.168C74.8264 134.127 74.7876 134.098 74.746 134.104C74.7044 134.11 74.6753 134.149 74.6813 134.19C74.6869 134.228 74.8144 135.036 75.6554 135.564Z" fill="#263238"/>
<path d="M76.1157 130.936C76.1605 130.964 76.2192 130.968 76.2695 130.941C76.8707 130.621 77.3661 130.882 77.3712 130.884C77.4451 130.925 77.538 130.897 77.5787 130.824C77.6194 130.75 77.5921 130.658 77.5186 130.619C77.4927 130.604 76.8717 130.277 76.1258 130.675C76.0514 130.714 76.0232 130.806 76.0625 130.88C76.0759 130.903 76.0944 130.922 76.1157 130.936Z" fill="#263238"/>
<path d="M80.7778 132.987C80.8023 133.002 80.8314 133.011 80.8629 133.01C80.947 133.008 81.0144 132.939 81.0126 132.855C80.9973 132.017 80.4035 131.648 80.3786 131.628C80.307 131.584 80.2127 131.606 80.1683 131.677C80.124 131.748 80.1452 131.841 80.2155 131.885C80.2409 131.899 80.6947 132.189 80.7071 132.862C80.7085 132.915 80.7363 132.961 80.7778 132.987Z" fill="#263238"/>
<path d="M81.3841 131.378C79.2566 129.73 76.5444 128.978 74.4211 128.635C72.4386 128.314 70.9705 128.353 70.9705 128.353C71.0629 127.162 72.5879 124.437 73.5463 124.239C74.8208 123.975 77.8541 124.204 78.3684 124.397C79.4848 124.815 81.709 126.428 81.8762 127.105C82.2233 128.525 81.3841 131.378 81.3841 131.378Z" fill="#407BFF"/>
<path d="M74.4197 128.634C74.4197 128.634 77.239 128.005 79.7025 128.961C82.166 129.918 83.2672 132.679 83.2672 132.679C83.2672 132.679 83.0482 132.112 81.0126 131.377C78.7548 130.563 76.8389 130.551 74.4197 128.634Z" fill="#407BFF"/>
<path opacity="0.1" d="M78.3684 124.398C78.3684 124.398 75.8494 125.484 75.6738 125.659C75.4982 125.831 74.4211 128.635 74.4211 128.635C72.4386 128.315 70.9705 128.354 70.9705 128.354C71.0629 127.163 72.5879 124.438 73.5463 124.239C74.8213 123.975 77.8541 124.204 78.3684 124.398Z" fill="black"/>
<path opacity="0.1" d="M74.4197 128.634C74.4197 128.634 77.239 128.005 79.7025 128.961C82.166 129.918 83.2672 132.679 83.2672 132.679C83.2672 132.679 83.0482 132.112 81.0126 131.377C78.7548 130.563 76.8389 130.551 74.4197 128.634Z" fill="black"/>
<path opacity="0.3" d="M79.441 135.998C79.1993 136.407 78.9442 136.78 78.6803 137.11C76.7728 139.51 72.9659 139.391 71.5463 136.697C71.4146 135.11 71.9641 132.517 73.0542 130.961L73.5463 130.433C73.5463 130.433 72.9354 132.785 73.1156 133.25C73.2959 133.712 74.6013 133.119 75.2081 133.501C75.819 133.888 76.0477 134.679 76.0477 134.679L75.6739 134.916C75.6739 134.916 74.9396 133.743 74.6716 133.712C74.3989 133.686 73.1244 134.846 73.2386 135.25C73.3573 135.655 73.1595 135.857 73.5463 136.033C73.9331 136.208 74.8606 135.602 74.8606 135.602L75.3703 136.064C75.3703 136.064 74.557 136.93 74.6803 137.105C74.8033 137.277 75.6166 137.597 76.197 137.365C76.7774 137.132 76.7552 135.861 76.8652 135.73C76.9793 135.598 75.9728 135.163 75.9728 135.163L76.2806 134.679C76.2806 134.679 77.5509 135.488 77.5995 135.73C77.6434 135.976 77.3929 136.701 77.6082 136.701C77.7663 136.701 78.7552 136.468 79.441 135.998Z" fill="black"/>
<path d="M80.5658 128.47L80.4955 128.2L80.6942 128.004L81.136 128.125C81.0958 127.944 80.959 127.789 80.7668 127.737C80.5842 127.686 80.398 127.741 80.2705 127.863C80.2515 127.852 80.2317 127.844 80.2099 127.838L78.9881 127.491C78.9664 127.485 78.9447 127.482 78.923 127.482C78.8758 127.312 78.7437 127.17 78.5607 127.12C78.3684 127.067 78.1725 127.13 78.045 127.266L78.4867 127.387L78.557 127.658L78.3583 127.853L77.9165 127.732C77.9567 127.914 78.0935 128.068 78.2857 128.121C78.4683 128.171 78.6545 128.116 78.782 127.994C78.801 128.005 78.8213 128.013 78.8426 128.019L80.0644 128.366C80.0861 128.372 80.1078 128.375 80.1295 128.376C80.1767 128.546 80.3088 128.688 80.4914 128.737C80.6836 128.79 80.88 128.728 81.0071 128.592L80.5658 128.47Z" fill="white"/>
<path d="M87.2225 170.274L90.3394 171.267L87.8551 173.911C87.8551 173.911 85.1278 172.858 85.7294 171.475L87.2225 170.274Z" fill="#E4897B"/>
<path d="M91.9143 174.704L90.9795 176.39L87.8552 173.911L90.3395 171.267L91.9143 174.704Z" fill="#E4897B"/>
<path d="M60.3732 144.886C58.9467 146.52 57.4896 148.212 56.1079 149.892C55.4092 150.73 54.7406 151.584 54.0978 152.428C53.4652 153.263 52.8547 154.151 52.4434 154.899C52.345 155.079 52.2655 155.251 52.2239 155.353C52.2064 155.395 52.1925 155.435 52.1953 155.394C52.1934 155.389 52.1934 155.377 52.1948 155.352L52.1851 155.142C52.1634 154.931 52.1084 154.715 52.0105 154.51C51.9564 154.405 51.9203 154.335 51.8621 154.251C51.8085 154.173 51.7383 154.094 51.6995 154.049C51.6523 153.998 51.601 153.949 51.547 153.905C51.4934 153.862 51.4712 153.843 51.4291 153.814C51.3404 153.755 51.2937 153.731 51.2489 153.708C51.1888 153.682 51.175 153.676 51.1458 153.666C51.1112 153.657 51.107 153.655 51.0964 153.653C51.0604 153.649 51.0969 153.669 51.1643 153.683C51.2914 153.717 51.5091 153.747 51.7313 153.766C52.186 153.804 52.7031 153.811 53.2263 153.803C53.7517 153.8 54.29 153.785 54.8325 153.759C57.004 153.658 59.2443 153.493 61.4652 153.36L61.9448 155.722C59.7591 156.456 57.5696 157.052 55.2836 157.499C54.1301 157.718 52.9915 157.913 51.6685 157.964C51.3293 157.973 50.985 157.98 50.5557 157.933C50.3455 157.91 50.1052 157.874 49.8016 157.787C49.7239 157.764 49.6519 157.744 49.5534 157.705C49.4596 157.669 49.3792 157.639 49.2581 157.577C49.1505 157.523 49.0419 157.465 48.8977 157.364C48.8279 157.313 48.7743 157.277 48.6958 157.21C48.6167 157.141 48.5405 157.068 48.4684 156.991C48.4023 156.924 48.315 156.814 48.2415 156.706C48.1662 156.593 48.1029 156.497 48.04 156.358C47.9143 156.088 47.8372 155.805 47.8131 155.523C47.8062 155.452 47.802 155.381 47.8007 155.31L47.8011 155.239L47.8048 155.103C47.8076 155.007 47.815 154.926 47.8238 154.852C47.858 154.532 47.9166 154.298 47.9767 154.072C48.1001 153.636 48.2401 153.29 48.3825 152.964C48.9536 151.69 49.6056 150.708 50.2618 149.708C50.9194 148.721 51.6172 147.792 52.3173 146.873C53.7378 145.043 55.1985 143.317 56.7757 141.612L60.3732 144.886Z" fill="#DC897C"/>
<path d="M59.5968 138.267C56.558 138.749 51.7896 146.59 51.7896 146.59L58.388 150.878C58.388 150.878 61.028 147.65 62.8565 144.118C64.8491 140.27 63.278 137.683 59.5968 138.267Z" fill="#407BFF"/>
<path opacity="0.7" d="M59.5968 138.267C56.558 138.749 51.7896 146.59 51.7896 146.59L58.388 150.878C58.388 150.878 61.028 147.65 62.8565 144.118C64.8491 140.27 63.278 137.683 59.5968 138.267Z" fill="white"/>
<path d="M66.3348 138.981L67.9646 137.801L70.9961 141.859L72.1624 139.83L73.4004 140.83C73.4004 140.83 74.4882 142.394 73.4004 144.532L70.9711 142.544L68.3574 144.218C68.3574 144.218 65.5746 140.973 66.3348 138.981Z" fill="#407BFF"/>
<path d="M62.6582 132.973C65.5224 136.614 64.8934 141.88 61.2525 144.744C57.6148 147.606 52.3482 146.977 49.4845 143.336C47.4942 140.806 47.1924 137.49 48.417 134.743L52.996 140.564L57.4586 139.921L59.137 135.733L54.558 129.912C57.5164 129.369 60.6684 130.443 62.6582 132.973Z" fill="#407BFF"/>
<path d="M95.0288 201.234C92.1647 197.593 92.7936 192.327 96.4346 189.463C100.072 186.601 105.339 187.23 108.203 190.871C110.193 193.401 110.495 196.717 109.27 199.464L104.691 193.643L100.228 194.286L98.5501 198.474L103.129 204.295C100.171 204.838 97.0187 203.764 95.0288 201.234Z" fill="#407BFF"/>
<g opacity="0.2">
<path d="M62.6582 132.973C65.5224 136.614 64.8934 141.88 61.2525 144.744C57.6148 147.606 52.3482 146.977 49.4845 143.336C47.4942 140.806 47.1924 137.49 48.417 134.743L52.996 140.564L57.4586 139.921L59.137 135.733L54.558 129.912C57.5164 129.369 60.6684 130.443 62.6582 132.973Z" fill="white"/>
<path d="M95.0288 201.234C92.1647 197.593 92.7936 192.327 96.4346 189.463C100.072 186.601 105.339 187.23 108.203 190.871C110.193 193.401 110.495 196.717 109.27 199.464L104.691 193.643L100.228 194.286L98.5501 198.474L103.129 204.295C100.171 204.838 97.0187 203.764 95.0288 201.234Z" fill="white"/>
</g>
<path d="M99.2525 193.048C97.3329 194.559 94.5524 194.226 93.0423 192.307L57.6934 147.37C56.1833 145.45 56.5155 142.669 58.4351 141.159C60.3547 139.649 63.1352 139.981 64.6454 141.901L99.9942 186.838C101.504 188.758 101.172 191.538 99.2525 193.048Z" fill="#407BFF"/>
<path opacity="0.2" d="M99.2525 193.048C97.3329 194.559 94.5524 194.226 93.0423 192.307L57.6934 147.37C56.1833 145.45 56.5155 142.669 58.4351 141.159C60.3547 139.649 63.1352 139.981 64.6454 141.901L99.9942 186.838C101.504 188.758 101.172 191.538 99.2525 193.048Z" fill="white"/>
<path opacity="0.2" d="M97.1817 190.416C96.1956 191.192 94.7672 191.022 93.9914 190.035L60.1245 146.982C59.3486 145.996 59.5191 144.567 60.5053 143.792C61.4914 143.016 62.9198 143.186 63.6956 144.172L97.5625 187.226C98.3384 188.212 98.1679 189.64 97.1817 190.416Z" fill="black"/>
<path d="M60.7674 153.947L63.1865 151.77L64.3848 155.71C64.3848 155.71 61.9176 157.1 61.0405 155.861L60.7674 153.947Z" fill="#E4897B"/>
<path d="M65.8473 151.583L66.687 154.886L64.3848 155.71L63.1865 151.77L65.8473 151.583Z" fill="#E4897B"/>
<path d="M46.8329 235.803L40.716 233.636L41.4313 231.674L48.192 233.956L46.8329 235.803Z" fill="#263238"/>
<path d="M44.0123 238.917C44.0091 238.885 44.0267 238.854 44.0562 238.84C44.2055 238.77 45.523 238.156 45.9061 238.389C45.9795 238.433 46.0202 238.504 46.0234 238.595C46.0285 238.746 45.9754 238.869 45.8654 238.959C45.5003 239.258 44.584 239.102 44.0706 238.983C44.0673 238.982 44.0641 238.981 44.0609 238.979C44.0341 238.97 44.0156 238.946 44.0123 238.917ZM44.3289 238.883C45.0336 239.024 45.5641 239.01 45.7693 238.842C45.8414 238.783 45.8746 238.705 45.8709 238.601C45.8695 238.562 45.8561 238.537 45.8261 238.519C45.8178 238.514 45.809 238.51 45.7988 238.506C45.5599 238.414 44.8488 238.658 44.3289 238.883Z" fill="#407BFF"/>
<path d="M44.0414 238.969C44.0202 238.953 44.0091 238.926 44.0128 238.9C44.0179 238.863 44.1399 238.004 44.5627 237.683C44.6916 237.585 44.8358 237.546 44.9901 237.566C45.1986 237.595 45.2545 237.702 45.2651 237.787C45.309 238.151 44.5119 238.818 44.1168 238.979C44.0983 238.986 44.0784 238.986 44.0604 238.979C44.0539 238.977 44.0474 238.974 44.0414 238.969ZM44.9689 237.717C44.8543 237.702 44.7512 237.73 44.6547 237.803C44.3774 238.014 44.2415 238.526 44.1898 238.776C44.5955 238.552 45.1403 238.025 45.114 237.807C45.1121 237.794 45.1084 237.759 45.0461 237.735C45.0262 237.728 45.0012 237.721 44.9689 237.717Z" fill="#407BFF"/>
<path d="M43.7624 238.528L40.2518 238.414C40.1205 238.41 40.0027 238.498 39.969 238.624L39.2166 241.448C39.1386 241.74 39.352 242.027 39.6556 242.032C40.9227 242.051 42.7559 242.036 44.3474 242.088C46.2083 242.148 47.3922 242.063 49.5748 242.133C50.8945 242.175 51.3155 240.859 50.7679 240.721C48.2758 240.093 46.6441 240.205 44.5263 238.802C44.2961 238.649 44.0397 238.536 43.7624 238.528Z" fill="#263238"/>
<path d="M53.6782 165.611L58.2318 166.838L57.8233 168.508L53.0012 167.348L53.6782 165.611Z" fill="#263238"/>
<path d="M58.7462 166.974L69.4938 169.871L69.2434 171.264L58.285 168.622L58.7462 166.974Z" fill="#263238"/>
<path d="M71.0011 170.275L70.8518 171.651L69.6037 171.352L69.8847 169.976L71.0011 170.275Z" fill="#263238"/>
<path d="M63.1384 168.266L62.8505 169.617C62.8256 169.733 62.8986 169.848 63.0146 169.876L65.5437 170.471C65.6634 170.499 65.7831 170.423 65.808 170.302L66.0728 169.03C66.0964 168.917 66.0275 168.804 65.9157 168.774L63.4101 168.1C63.2882 168.067 63.1648 168.143 63.1384 168.266Z" fill="white"/>
<path d="M75.4591 151.42L75.3888 151.149L75.5875 150.953L76.0293 151.075C75.9891 150.893 75.8523 150.739 75.6601 150.686C75.4776 150.636 75.2913 150.69 75.1638 150.812C75.1448 150.802 75.125 150.793 75.1032 150.787L73.8814 150.441C73.8597 150.435 73.838 150.432 73.8163 150.432C73.7692 150.261 73.637 150.12 73.454 150.07C73.2618 150.017 73.0658 150.079 72.9383 150.215L73.3801 150.337L73.4503 150.607L73.2516 150.803L72.8098 150.682C72.85 150.863 72.9868 151.017 73.179 151.07C73.3616 151.121 73.5478 151.066 73.6753 150.944C73.6943 150.955 73.7146 150.963 73.7359 150.969L74.9577 151.316C74.9794 151.322 75.0011 151.324 75.0228 151.325C75.07 151.495 75.2021 151.637 75.3847 151.687C75.5769 151.74 75.7733 151.677 75.9004 151.542L75.4591 151.42Z" fill="#407BFF"/>
<path d="M83.9253 141.006C83.7853 141.006 83.6675 140.899 83.6554 140.757L82.2411 123.761C82.2284 123.612 82.3391 123.482 82.4887 123.469C82.6287 123.458 82.7681 123.567 82.7809 123.717L84.1952 140.713C84.2079 140.862 84.0972 140.992 83.9476 141.005C83.94 141.006 83.933 141.006 83.9253 141.006Z" fill="#407BFF"/>
<path d="M84.7649 151.101C84.6248 151.101 84.5071 150.994 84.495 150.852L84.0666 145.707C84.0539 145.559 84.1646 145.428 84.3142 145.415C84.4574 145.397 84.5943 145.513 84.6064 145.663L85.0347 150.808C85.0475 150.957 84.9367 151.087 84.7871 151.1C84.7801 151.101 84.7725 151.101 84.7649 151.101Z" fill="#407BFF"/>
<path d="M227.961 199.464H96.5378C93.1847 199.464 90.2128 196.721 89.9334 193.367L82.532 104.4C82.2532 101.047 84.7681 98.3027 88.1219 98.3027H219.545C222.898 98.3027 225.87 101.046 226.149 104.4L233.551 193.367C233.83 196.72 231.314 199.464 227.961 199.464Z" fill="white"/>
<path d="M227.961 199.718H96.5377C93.0471 199.718 89.9709 196.878 89.6806 193.388L82.2793 104.421C82.1373 102.724 82.6726 101.123 83.7846 99.9143C84.8915 98.7113 86.4319 98.0487 88.1218 98.0487H219.545C223.035 98.0487 226.112 100.889 226.402 104.379L233.804 193.345C233.946 195.043 233.41 196.643 232.298 197.851C231.191 199.055 229.651 199.718 227.961 199.718ZM88.1218 98.5573C86.5757 98.5573 85.1684 99.1613 84.1589 100.259C83.1436 101.361 82.6561 102.824 82.7853 104.379L90.1866 193.346C90.4559 196.579 93.3049 199.209 96.5384 199.209H227.961C229.508 199.209 230.915 198.605 231.925 197.508C232.94 196.405 233.428 194.942 233.298 193.388L225.896 104.421C225.627 101.188 222.779 98.5573 219.546 98.5573H88.1218Z" fill="#407BFF"/>
<path d="M219.545 98.3033H88.1219C84.7687 98.3033 82.2532 101.047 82.532 104.4H226.149C225.87 101.047 222.898 98.3033 219.545 98.3033Z" fill="#407BFF"/>
<path d="M91.198 101.352C91.2585 102.078 90.7187 102.667 89.9925 102.667C89.2662 102.667 88.6284 102.078 88.568 101.352C88.5075 100.625 89.0473 100.037 89.7735 100.037C90.4998 100.037 91.1376 100.625 91.198 101.352Z" fill="white"/>
<path d="M96.5447 101.352C96.6052 102.078 96.0654 102.667 95.3391 102.667C94.6129 102.667 93.9757 102.078 93.9153 101.352C93.8548 100.625 94.3946 100.037 95.1208 100.037C95.8471 100.037 96.4842 100.625 96.5447 101.352Z" fill="white"/>
<path d="M101.891 101.352C101.952 102.078 101.412 102.667 100.686 102.667C99.9596 102.667 99.3218 102.078 99.262 101.352C99.2015 100.625 99.7413 100.037 100.468 100.037C101.194 100.037 101.831 100.625 101.891 101.352Z" fill="white"/>
<path d="M216.556 187.805H106.003C103.338 187.805 100.975 185.624 100.753 182.959L95.5906 120.906C95.3691 118.24 97.3684 116.059 100.034 116.059H210.586C213.251 116.059 215.614 118.24 215.836 120.906L220.998 182.959C221.221 185.624 219.221 187.805 216.556 187.805Z" fill="#F0F0F0"/>
<path d="M234.609 193.131H95.2131V193.201H234.609V193.131Z" fill="#EBEBEB"/>
<path d="M220.642 197.618H211.408V197.688H220.642V197.618Z" fill="#EBEBEB"/>
<path d="M187.554 198.375H185.131V198.445H187.554V198.375Z" fill="#EBEBEB"/>
<path d="M211.128 195.029H205.778V195.099H211.128V195.029Z" fill="#EBEBEB"/>
<path d="M121.88 195.498H109.838V195.568H121.88V195.498Z" fill="#EBEBEB"/>
<path d="M126.128 195.498H124.362V195.568H126.128V195.498Z" fill="#EBEBEB"/>
<path d="M157.982 196.675H131.866V196.745H157.982V196.675Z" fill="#EBEBEB"/>
<path d="M161.291 180.697H107.456C106.579 180.697 105.865 179.983 105.865 179.106V103.433C105.865 102.556 106.579 101.842 107.456 101.842H161.291C162.168 101.842 162.882 102.556 162.882 103.433V179.106C162.882 179.983 162.168 180.697 161.291 180.697ZM107.456 101.912C106.617 101.912 105.935 102.594 105.935 103.433V179.106C105.935 179.945 106.617 180.628 107.456 180.628H161.291C162.129 180.628 162.812 179.945 162.812 179.106V103.433C162.812 102.594 162.129 101.911 161.291 101.911L107.456 101.912Z" fill="#EBEBEB"/>
<path d="M221.592 180.697H167.758C166.881 180.697 166.167 179.983 166.167 179.106V103.433C166.167 102.556 166.881 101.842 167.758 101.842H221.592C222.47 101.842 223.183 102.556 223.183 103.433V179.106C223.184 179.983 222.47 180.697 221.592 180.697ZM167.758 101.912C166.919 101.912 166.237 102.594 166.237 103.433V179.106C166.237 179.945 166.919 180.628 167.758 180.628H221.592C222.431 180.628 223.114 179.945 223.114 179.106V103.433C223.114 102.594 222.431 101.911 221.592 101.911L167.758 101.912Z" fill="#EBEBEB"/>
<path d="M158.591 130.799V137.146L161.859 137.454C162.3 139.582 163.143 141.56 164.296 143.317L162.197 145.853L166.685 150.341L169.221 148.242C170.978 149.395 172.957 150.238 175.084 150.679L175.392 153.948H181.739L182.047 150.679C184.175 150.238 186.153 149.395 187.91 148.242L190.446 150.341L194.934 145.853L192.835 143.317C193.988 141.56 194.831 139.582 195.272 137.454L198.541 137.146V130.799L195.272 130.491C194.831 128.363 193.988 126.385 192.835 124.628L194.934 122.092L190.446 117.604L187.91 119.703C186.153 118.55 184.175 117.707 182.047 117.266L181.739 113.997H175.392L175.084 117.266C172.957 117.707 170.978 118.55 169.221 119.703L166.685 117.604L162.197 122.092L164.296 124.628C163.143 126.385 162.3 128.363 161.859 130.491L158.591 130.799ZM178.566 125.38C183.311 125.38 187.158 129.227 187.158 133.973C187.158 138.718 183.311 142.565 178.566 142.565C173.82 142.565 169.973 138.718 169.973 133.973C169.973 129.227 173.82 125.38 178.566 125.38Z" fill="#B1C6F4"/>
<path d="M147.867 159.203L149.689 160.712L152.914 157.487L151.405 155.665C152.234 154.402 152.84 152.98 153.156 151.452L155.505 151.231V146.671L153.156 146.449C152.839 144.92 152.234 143.499 151.405 142.237L152.913 140.415L149.689 137.19L147.867 138.698C146.604 137.87 145.183 137.264 143.654 136.947L143.433 134.598L138.872 134.599L138.651 136.947C137.122 137.264 135.701 137.87 134.438 138.698L132.616 137.19L129.392 140.415L130.9 142.237C130.072 143.499 129.466 144.92 129.149 146.449L126.801 146.671V151.231L129.149 151.452C129.466 152.98 130.071 154.402 130.9 155.665L129.392 157.487L132.616 160.712L134.438 159.203C135.701 160.031 137.122 160.637 138.651 160.954L138.872 163.302H143.433L143.654 160.954C145.183 160.637 146.604 160.031 147.867 159.203ZM134.979 148.95C134.979 145.541 137.743 142.777 141.153 142.777C144.562 142.777 147.327 145.541 147.327 148.95C147.327 152.36 144.562 155.124 141.153 155.124C137.743 155.124 134.979 152.36 134.979 148.95Z" fill="#B1C6F4"/>
<path d="M168.135 190.095C169.955 189.717 171.648 188.996 173.151 188.009L175.32 189.805L179.159 185.966L177.363 183.796C178.35 182.294 179.071 180.601 179.448 178.781L182.244 178.518V173.088L179.448 172.825C179.071 171.005 178.349 169.313 177.363 167.81L179.159 165.641L175.32 161.802L173.151 163.597C171.648 162.611 169.956 161.889 168.135 161.512L167.872 158.716H162.442L162.179 161.512C160.359 161.889 158.667 162.611 157.164 163.597L154.995 161.802L151.155 165.641L152.951 167.81C151.965 169.313 151.243 171.005 150.866 172.825L148.07 173.088V178.518L150.866 178.781C151.243 180.601 151.965 182.294 152.951 183.797L151.155 185.966L154.995 189.805L157.164 188.009C158.667 188.996 160.359 189.717 162.179 190.095L162.442 192.89H167.872L168.135 190.095ZM157.807 175.803C157.807 171.744 161.098 168.453 165.157 168.453C169.217 168.453 172.508 171.744 172.508 175.803C172.508 179.863 169.217 183.153 165.157 183.153C161.098 183.153 157.807 179.863 157.807 175.803Z" fill="#B1C6F4"/>
<path d="M207.162 145.409H213.158C213.738 145.409 214.1 144.782 213.81 144.28L210.812 139.088C210.523 138.586 209.799 138.586 209.509 139.088L206.511 144.28C206.221 144.782 206.583 145.409 207.162 145.409ZM210.564 140.505L210.431 143.092H209.884L209.746 140.505H210.564ZM209.718 143.981C209.718 143.744 209.901 143.556 210.155 143.556C210.415 143.556 210.603 143.744 210.603 143.981C210.603 144.219 210.415 144.413 210.155 144.413C209.901 144.413 209.718 144.219 209.718 143.981Z" fill="#A0BDFE"/>
<path d="M119.453 121.992H125.449C126.029 121.992 126.391 121.365 126.101 120.863L123.103 115.67C122.814 115.168 122.09 115.168 121.8 115.67L118.802 120.863C118.512 121.365 118.874 121.992 119.453 121.992ZM122.855 117.087L122.722 119.674H122.175L122.037 117.087H122.855ZM122.009 120.564C122.009 120.326 122.192 120.138 122.446 120.138C122.706 120.138 122.894 120.326 122.894 120.564C122.894 120.801 122.706 120.995 122.446 120.995C122.191 120.995 122.009 120.801 122.009 120.564Z" fill="#A0BDFE"/>
<path d="M135.539 185.879H141.535C142.115 185.879 142.477 185.252 142.187 184.75L139.189 179.557C138.9 179.056 138.176 179.056 137.886 179.557L134.888 184.75C134.598 185.252 134.96 185.879 135.539 185.879ZM138.941 180.974L138.808 183.561H138.261L138.123 180.974H138.941ZM138.095 184.451C138.095 184.213 138.277 184.025 138.532 184.025C138.791 184.025 138.979 184.213 138.979 184.451C138.979 184.688 138.791 184.882 138.532 184.882C138.277 184.882 138.095 184.689 138.095 184.451Z" fill="#A0BDFE"/>
<path d="M191.677 178.366H197.673C198.252 178.366 198.614 177.739 198.325 177.237L195.327 172.044C195.037 171.542 194.313 171.542 194.024 172.044L191.026 177.237C190.736 177.739 191.098 178.366 191.677 178.366ZM195.079 173.461L194.946 176.048H194.399L194.261 173.461H195.079ZM194.233 176.938C194.233 176.7 194.415 176.512 194.669 176.512C194.929 176.512 195.117 176.7 195.117 176.938C195.117 177.175 194.929 177.369 194.669 177.369C194.415 177.369 194.233 177.175 194.233 176.938Z" fill="#A0BDFE"/>
<path d="M195.989 112.67H199.309C199.63 112.67 199.83 112.323 199.67 112.045L198.01 109.17C197.849 108.892 197.448 108.892 197.288 109.17L195.628 112.045C195.468 112.323 195.668 112.67 195.989 112.67ZM197.872 109.955L197.799 111.387H197.496L197.419 109.955H197.872ZM197.404 111.88C197.404 111.748 197.505 111.644 197.646 111.644C197.79 111.644 197.894 111.748 197.894 111.88C197.894 112.011 197.79 112.118 197.646 112.118C197.505 112.118 197.404 112.011 197.404 111.88Z" fill="#A0BDFE"/>
<path d="M113.18 156.638H116.5C116.821 156.638 117.021 156.291 116.861 156.013L115.201 153.138C115.04 152.86 114.639 152.86 114.479 153.138L112.819 156.013C112.658 156.291 112.859 156.638 113.18 156.638ZM115.063 153.922L114.99 155.355H114.687L114.61 153.922H115.063ZM114.595 155.848C114.595 155.716 114.696 155.612 114.837 155.612C114.981 155.612 115.085 155.716 115.085 155.848C115.085 155.979 114.981 156.086 114.837 156.086C114.696 156.086 114.595 155.979 114.595 155.848Z" fill="#A0BDFE"/>
<path d="M176.754 135.39H180.074C180.395 135.39 180.595 135.042 180.435 134.765L178.775 131.889C178.614 131.611 178.213 131.611 178.053 131.889L176.393 134.765C176.232 135.042 176.433 135.39 176.754 135.39ZM178.637 132.674L178.564 134.106H178.26L178.184 132.674H178.637ZM178.169 134.599C178.169 134.467 178.27 134.363 178.41 134.363C178.554 134.363 178.658 134.467 178.658 134.599C178.658 134.73 178.554 134.837 178.41 134.837C178.27 134.837 178.169 134.73 178.169 134.599Z" fill="#A0BDFE"/>
<path d="M149.592 111.147H140.967V116.848H149.592V111.147Z" fill="#B1C6F4"/>
<path d="M149.611 111.147H140.967V112.083H149.611V111.147Z" fill="#A0BDFE"/>
<path d="M130.742 132.288H122.117V137.989H130.742V132.288Z" fill="#B1C6F4"/>
<path d="M130.76 132.288H122.117V133.224H130.76V132.288Z" fill="#A0BDFE"/>
<path d="M129.548 172.868H120.923V178.568H129.548V172.868Z" fill="#B1C6F4"/>
<path d="M129.567 172.868H120.923V173.803H129.567V172.868Z" fill="#A0BDFE"/>
<path d="M195.962 158.176H187.337V163.876H195.962V158.176Z" fill="#B1C6F4"/>
<path d="M195.981 158.176H187.337V159.111H195.981V158.176Z" fill="#A0BDFE"/>
<path d="M214.867 165.573H206.242V171.273H214.867V165.573Z" fill="#B1C6F4"/>
<path d="M214.886 165.573H206.242V166.508H214.886V165.573Z" fill="#A0BDFE"/>
<path d="M211.695 122.977H203.07V128.678H211.695V122.977Z" fill="#B1C6F4"/>
<path d="M211.713 122.977H203.07V123.913H211.713V122.977Z" fill="#A0BDFE"/>
</g>
<defs>
<clipPath id="clip0_2_924">
<rect width="318.255" height="318.255" fill="white" transform="translate(34.7447)"/>
</clipPath>
</defs>
</svg>
