<svg fill="none" height="163" viewBox="0 0 203 163" width="203" xmlns="http://www.w3.org/2000/svg"><clipPath id="a"><path d="m.5 0h202v163h-202z"/></clipPath><g clip-path="url(#a)"><path d="m84.4071 138.757 2.2161-.714-1.6952-8.906-3.2708 1.054z" fill="#a0616a"/><path d="m86.3723 136.722-.0022.001-2.3234.904-.0023.001-.5376.21 1.198 5.177.0637.278 1.5753-.507-.0368-.285-.1621-1.295.982 1.032.2133.225 4.1739-1.343c.2481-.08.4438-.252.5592-.468.1268-.227.1619-.506.0742-.774-.0886-.881-4.1303-1.546-4.7231-1.875l-.4822-1.505z" fill="#2f2e41"/><path d="m80.34 107.822c.3596.297.6121.704.7188 1.159l.4758 2.036 5.0191 21.715-5.4937 2.069c-3.5385-7.077-5.6524-11.512-5.772-16.488-.0335-1.379.0874-2.801.3723-4.332 0 0-3.5772 2.44-7.8282 5.232-.3732.245-.7524.494-1.1367.743-3.5265 2.301-7.3279 4.715-9.8629 6.129-1.5423.86-3.018.854-4.3419.328-3.7792-1.491-6.3545-7.18-5.8543-8.943l5.7091-8.515 7.0629 3.528.7383.368 12.3529-7.265c1.8024-1.06 4.0736-.878 5.6857.454z" fill="#2f2e41"/><g fill="#f2f2f2"><path d="m195.815 65.7475c1.744-3.2159 2.877-6.3689 3.281-9.2772-1.617-.1894-3.047-.0574-4.296.3627 2.151-3.5908 3.586-8.0129 1.718-10.283-1.177-1.2514-2.698-2.1882-4.496-2.8104.582-2.6962.589-5.2223-.074-7.4431-3.074-10.3398-23.422 8.289-36.407.226-5.444-3.379-11.305.8785-16.051 7.7251.651 2.2768 1.854 4.3927 3.542 6.0543-2.151-.1538-4.267-.7877-6.151-1.841-5.079 9.1327-8.148 20.5654-6.611 25.7341.997 3.3534 3.386 5.6068 6.737 6.7674-.582 2.6962 11.98 22.0506 14.294 22.0306 6.153-.053 8.067-14.0593 12.175 3.889l-9.152 56.001h13.255v-57.753c3.689-5.7068 7.498-1.89 16.279-6.3315 26.931-13.6231 15.45-28.6384 11.957-33.051z"/><path d="m83.2502 40.991c2.1886-4.0356 3.6098-7.9922 4.1176-11.6417-2.0292-.2377-3.824-.0721-5.3913.4552 2.6984-4.506 4.4998-10.0552 2.155-12.9039-1.4766-1.5704-3.385-2.7459-5.6408-3.5267.7295-3.38342.7383-6.55336-.0934-9.34021-3.8578-12.9751-29.3917 10.40171-45.6867.28365-6.8314-4.2402281-14.1851 1.10247-20.1411 9.69406.8171 2.857 2.3258 5.5123 4.4444 7.5973-2.6993-.193-5.3548-.9884-7.71855-2.3102-6.37325 11.4603-10.225221 25.8069-8.296322 32.293 1.251882 4.2081 4.248842 7.0359 8.453912 8.4922-.72954 3.3834 15.03336 27.6711 17.93786 27.6458 7.7215-.0671 10.1224-17.6428 15.2778 4.8804l-11.4842 70.2741h16.6335v-72.4733c4.6283-7.161 9.409-2.3713 20.4271-7.9449 33.795-17.0953 19.388-35.9375 15.0052-41.4748z"/><path d="m117.288 158.646c.481.03.746-.568.383-.917l-.036-.144c.004-.011.009-.023.014-.034.486-1.161 2.133-1.153 2.614.009.428 1.032.972 2.066 1.106 3.157.06.482.033.972-.073 1.445 1.001-2.193 1.529-4.588 1.529-6.996 0-.605-.033-1.21-.101-1.814-.056-.493-.132-.984-.231-1.47-.537-2.628-1.698-5.131-3.372-7.222-.805-.441-1.477-1.13-1.882-1.957-.146-.298-.26-.618-.314-.945.091.012.345-1.386.276-1.472.128-.194.356-.291.496-.48.693-.942 1.649-.778 2.148.503 1.065.539 1.076 1.432.422 2.292-.416.547-.473 1.287-.838 1.872.037.049.076.095.114.143.688.886 1.284 1.837 1.786 2.836-.142-1.111.068-2.449.425-3.311.406-.983 1.168-1.811 1.839-2.66.806-1.021 2.459-.575 2.601.718.001.013.003.025.004.038-.1.056-.197.116-.293.179-.544.361-.356 1.206.289 1.306l.015.002c-.036.36-.098.716-.188 1.067.861 3.336-.998 4.551-3.651 4.606-.059.03-.116.06-.175.089.269.758.484 1.536.643 2.325.143.697.242 1.401.298 2.109.069.892.063 1.789-.013 2.68l.005-.031c.191-.982.722-1.898 1.494-2.533 1.151-.947 2.775-1.296 4.016-2.057.597-.366 1.363.107 1.259.801l-.006.033c-.184.076-.365.163-.539.261-.099.056-.197.116-.292.179-.544.361-.356 1.206.288 1.306l.015.002c.01.001.019.003.03.004-.317.755-.759 1.454-1.311 2.058-.539 2.912-2.851 3.189-5.323 2.34h-.002c-.27 1.181-.665 2.333-1.173 3.432h-4.191c-.015-.046-.028-.095-.042-.141.388.024.778.001 1.16-.069-.311-.383-.622-.768-.933-1.15-.007-.008-.013-.015-.019-.023-.158-.196-.317-.39-.475-.585v-.001c-.01-.6.062-1.199.204-1.78z"/><path d="m141.564 157.291c.654.041 1.016-.774.521-1.248l-.049-.196c.006-.016.013-.032.019-.047.662-1.581 2.903-1.57 3.559.013.582 1.405 1.323 2.812 1.506 4.297.082.656.045 1.324-.1 1.967 1.364-2.985 2.081-6.245 2.081-9.524 0-.823-.045-1.647-.137-2.469-.075-.672-.18-1.34-.315-2.002-.73-3.578-2.31-6.985-4.59-9.831-1.096-.601-2.01-1.539-2.562-2.664-.199-.406-.354-.842-.428-1.287.125.016.471-1.887.377-2.004.173-.264.485-.396.674-.654.945-1.282 2.245-1.058 2.924.685 1.451.733 1.465 1.95.575 3.12-.566.745-.644 1.752-1.141 2.55.051.065.104.129.155.194.938 1.205 1.749 2.5 2.432 3.861-.193-1.512.092-3.334.578-4.508.554-1.338 1.591-2.465 2.505-3.622 1.097-1.389 3.347-.783 3.54.978.002.018.004.035.006.052-.136.076-.269.158-.399.244-.74.491-.484 1.641.393 1.777l.02.003c-.049.49-.133.975-.255 1.453 1.171 4.542-1.359 6.196-4.971 6.27-.08.041-.158.082-.238.121.367 1.033.659 2.092.876 3.166.194.949.329 1.908.405 2.871.094 1.215.085 2.436-.017 3.649l.006-.043c.26-1.336.984-2.584 2.035-3.449 1.566-1.288 3.778-1.763 5.467-2.799.813-.499 1.855.146 1.713 1.09-.002.015-.005.03-.007.046-.252.102-.497.221-.734.354-.136.077-.269.158-.399.244-.74.491-.484 1.642.393 1.777l.02.004c.015.002.027.004.041.006-.431 1.026-1.033 1.979-1.785 2.801-.733 3.964-3.88 4.341-7.247 3.186h-.002c-.368 1.607-.906 3.176-1.597 4.672h-5.705c-.02-.064-.039-.129-.057-.193.528.033 1.059.002 1.579-.094-.424-.52-.847-1.045-1.27-1.565-.01-.011-.019-.021-.027-.031-.214-.266-.431-.531-.646-.797v-.001c-.013-.817.084-1.632.278-2.423z"/><path d="m173.565 158.646c.48.03.746-.568.382-.917l-.036-.144c.005-.011.01-.023.014-.034.486-1.161 2.133-1.153 2.615.009.427 1.032.972 2.066 1.106 3.157.06.482.033.972-.074 1.445 1.002-2.193 1.529-4.588 1.529-6.996 0-.605-.033-1.21-.101-1.814-.055-.493-.132-.984-.231-1.47-.536-2.628-1.697-5.131-3.372-7.222-.805-.441-1.476-1.13-1.882-1.957-.146-.298-.26-.618-.314-.945.092.012.346-1.386.277-1.472.127-.194.356-.291.495-.48.694-.942 1.649-.778 2.148.503 1.066.539 1.076 1.432.422 2.292-.416.547-.473 1.287-.838 1.872.038.049.077.095.114.143.689.886 1.284 1.837 1.786 2.836-.142-1.111.068-2.449.425-3.311.407-.983 1.169-1.811 1.84-2.66.806-1.021 2.458-.575 2.6.718.002.013.003.025.004.038-.099.056-.197.116-.292.179-.544.361-.356 1.206.288 1.306l.015.002c-.036.36-.098.716-.188 1.067.861 3.336-.997 4.551-3.651 4.606-.059.03-.116.06-.174.089.268.758.483 1.536.642 2.325.143.697.242 1.401.298 2.109.069.892.063 1.789-.012 2.68l.004-.031c.191-.982.723-1.898 1.495-2.533 1.15-.947 2.775-1.296 4.016-2.057.597-.366 1.362.107 1.258.801l-.005.033c-.185.076-.365.163-.539.261-.1.056-.198.116-.293.179-.544.361-.356 1.206.289 1.306l.014.002c.011.001.02.003.03.004-.317.755-.758 1.454-1.311 2.058-.538 2.912-2.85 3.189-5.323 2.34h-.002c-.27 1.181-.665 2.333-1.173 3.432h-4.19c-.015-.046-.029-.095-.042-.141.387.024.778.001 1.159-.069-.311-.383-.622-.768-.932-1.15-.008-.008-.014-.015-.02-.023-.158-.196-.317-.39-.475-.585v-.001c-.01-.6.062-1.199.205-1.78z"/><path d="m69.5265 157.166c.6698.042 1.0399-.792.5332-1.278l-.0504-.2c.0066-.016.0133-.033.02-.049.6774-1.618 2.973-1.607 3.6446.014.5961 1.439 1.355 2.88 1.5419 4.401.0837.671.0461 1.355-.1026 2.014 1.3967-3.057 2.1317-6.396 2.1317-9.753 0-.844-.0461-1.687-.1403-2.529-.0775-.688-.1843-1.372-.3225-2.05-.7475-3.664-2.3663-7.153-4.7011-10.068-1.1224-.615-2.0584-1.576-2.6238-2.728-.2031-.416-.3623-.863-.4377-1.318.1278.017.4817-1.933.3853-2.052.178-.271.4966-.406.6911-.67.9669-1.313 2.299-1.084 2.9944.701 1.4857.752 1.5 1.998.5885 3.196-.58.763-.6597 1.794-1.1685 2.611.0523.067.1068.132.1591.199.96 1.234 1.7904 2.56 2.4903 3.953-.1978-1.548.0943-3.414.5922-4.616.5667-1.37 1.6291-2.524 2.5646-3.709 1.1237-1.423 3.428-.802 3.626 1.002.0019.017.0038.035.0056.052-.139.079-.2751.162-.4081.25-.7585.503-.4963 1.681.4024 1.82l.0203.004c-.0502.501-.1361.998-.2617 1.487 1.2002 4.651-1.3909 6.345-5.0906 6.422-.0817.042-.1612.083-.2429.123.3748 1.058.6743 2.143.8962 3.242.199.972.3372 1.954.4147 2.94.0963 1.245.0879 2.495-.0168 3.738l.0063-.044c.2659-1.369 1.0072-2.647 2.0836-3.532 1.6034-1.32 3.8687-1.806 5.5985-2.867.8327-.511 1.8997.149 1.7544 1.117-.0023.015-.0047.031-.0071.046-.2576.105-.5088.227-.7517.363-.139.079-.2751.162-.4081.25-.7585.503-.4964 1.681.4024 1.82l.0203.003c.0147.002.0273.004.0419.007-.4419 1.051-1.0575 2.027-1.8281 2.868-.7504 4.06-3.9735 4.446-7.4212 3.263h-.0021c-.377 1.645-.9277 3.253-1.6355 4.785h-5.8423c-.021-.065-.0398-.133-.0587-.198.5403.034 1.0847.003 1.6166-.096-.4334-.533-.8669-1.07-1.3004-1.603-.0104-.011-.0188-.021-.0272-.032-.2199-.273-.4418-.543-.6617-.816h-.0001c-.0138-.838.0864-1.673.2849-2.483z"/><path d="m37.9896 158.646c.4804.03.7459-.568.3825-.917l-.0362-.144c.0048-.011.0095-.023.0144-.034.4858-1.161 2.1324-1.153 2.6141.009.4276 1.032.9719 2.066 1.1059 3.157.0601.482.0331.972-.0735 1.445 1.0018-2.193 1.529-4.588 1.529-6.996 0-.605-.0331-1.21-.1007-1.814-.0555-.493-.1321-.984-.2313-1.47-.5362-2.628-1.6972-5.131-3.3719-7.222-.8051-.441-1.4765-1.13-1.882-1.957-.1457-.298-.2599-.618-.3139-.945.0916.012.3454-1.386.2763-1.472.1277-.194.3562-.291.4957-.48.6935-.942 1.649-.778 2.1478.503 1.0656.539 1.0759 1.432.4221 2.292-.416.547-.4731 1.287-.8381 1.872.0375.049.0766.095.1141.143.6886.886 1.2842 1.837 1.7862 2.836-.1419-1.111.0676-2.449.4248-3.311.4065-.983 1.1685-1.811 1.8395-2.66.806-1.021 2.4588-.575 2.6008.718.0014.013.0027.025.004.038-.0996.056-.1973.116-.2927.179-.544.361-.356 1.206.2887 1.306l.0145.002c-.036.36-.0976.716-.1877 1.067.8608 3.336-.9976 4.551-3.6513 4.606-.0586.03-.1157.06-.1743.089.2689.758.4837 1.536.6429 2.325.1427.697.2418 1.401.2974 2.109.0691.892.0631 1.789-.012 2.68l.0045-.031c.1907-.982.7224-1.898 1.4945-2.533 1.15-.947 2.7749-1.296 4.0156-2.057.5973-.366 1.3626.107 1.2584.801l-.0051.033c-.1847.076-.365.163-.5392.261-.0997.056-.1973.116-.2927.179-.544.361-.356 1.206.2886 1.306l.0146.002c.0105.001.0196.003.0301.004-.317.755-.7585 1.454-1.3113 2.058-.5382 2.912-2.8501 3.189-5.323 2.34h-.0015c-.2704 1.181-.6654 2.333-1.1731 3.432h-4.1905c-.015-.046-.0285-.095-.0421-.141.3876.024.7781.001 1.1596-.069-.3109-.383-.6218-.768-.9328-1.15-.0075-.008-.0135-.015-.0195-.023-.1577-.196-.3169-.39-.4746-.585l-.0001-.001c-.0099-.6.062-1.199.2044-1.78z"/></g><path d="m55.083 89.2813s-7.4186-.3493-5.7843 1.7169c1.0635 1.3445 6.0214 8.9172 8.8342 10.4328 1.4007.755 3.1454.145 3.777-1.317l5.2417-12.1392-3.4391-1.2502-4.1611 9.605z" fill="#a0616a"/><path d="m65.4984 88.5565c1.4128 0 2.558-1.1477 2.558-2.5634s-1.1452-2.5634-2.558-2.5634c-1.4127 0-2.558 1.1477-2.558 2.5634s1.1453 2.5634 2.558 2.5634z" fill="#a0616a"/><path d="m68.4451 100.129-9.9539-.9998.0404-.1353c2.0063-6.7114 3.6448-12.5655 3.3708-16.2361-.0078-.1044.0429-.2034.1325-.2587.0908-.0556.2036-.0562.2946-.0012l10.5241 6.3835-.7915 3.5875z" fill="#e6e6e6"/><path d="m57.3413 106.547 2.2925 7.493-10.4317 1.13 3.7208-9.555z" fill="#a0616a"/><path d="m59.8945 100.75c-.2488 1.78-.3069 3.463.0047 4.4.0828.249 1.3236 2.07 1.3953 2.33.6404 2.326-2.093 2.796-2.093 2.796l-10.4862 3.489c-.6038.201-1.1121-.5-.7263-1.007.8601-1.13 1.6458-2.763 1.5898-4.926-.0872-3.371-1.5757-8.7309-2.3985-11.4565-.3385-1.1216-.2569-2.3269.2279-3.3932l1.1706-2.5745 1.7023-3.7403.5488-2.7241 4.8835.233.6023 2.2162 4.5439 6.9514c.1837.282.3046.5966.3581.9205.0721.4055.0372.8296-.1046 1.2281-.4721 1.326-.9535 3.3464-1.2186 5.2574z" fill="#0c97f0"/><path d="m46.325 81.0075c1.951 2.4375-1.5092 6.3618.6116 8.6526-.407.1631-.8418.226-1.279.205-.021-.0745-.0442-.1491-.0675-.2214-.1883-.5872-.4395-1.1535-.7534-1.6848.0604.5779.0139 1.1698-.1395 1.7314-.3279-.1002-.6442-.2446-.9372-.4217-.0372-.021-.0698-.042-.107-.0676-.9581-1.7921-1.3278-3.901-.9906-5.9051-.6465.9344-1.2697 1.9155-1.6139 2.9945-1.1651-1.8457-1.9743-3.95-1.9232-6.1219.0512-2.4166 1.3488-4.8961 3.5534-5.8795.9092-.4055 1.9882-.5872 2.6231-1.3562.3418-.4102.5046-.9368.7511-1.4122s.6302-.9368 1.1604-1.0137c.3163-.0443.6535.1305.8279.3821-.8581.9415-.8093 2.4702-.5302 3.7542.2976 1.3796 1.1976 3.0901.279 4.1597-.5651.6595-3.3324-.1258-1.465 2.2045z" fill="#2f2e41"/><path d="m57.679 78.9272c-.1259-.4418.7423 2.2588.3233 2.3076-1.9081.2193-4.5274 1.3613-5.8564 1.8941-.0599-.007-.1197-.014-.1778-.0227-.1426-.0156-.2816-.0383-.4189-.0644-3.0946-.5867-4.2846-5.3503-4.2846-5.3938 0-.2141.5129-6.0958 1.3209-6.1829.2095-.0226.4224-.0348.639-.0348h2.0049c.426-.0905.8484-.1532 1.2585-.1828h.0036c5.7791-.6604 8.5695 1.8842 6.9213 5.157-.0018.0034-.0053.0069-.0071.0104-.0862.1289-.1619.2507-.2288.3674-.0651.1097-.1197.2141-.1672.3134-.3679.766.5778 1.73-.0493 1.9099-.834.2393 2.1934 8.1045-1.1076 8.1045 1.6057.4575.1737-6.9641-.1738-8.1829z" fill="#2f2e41"/><path d="m54.076 83.5411c2.6217 0 4.7469-2.1297 4.7469-4.7569 0-2.6271-2.1252-4.7569-4.7469-4.7569-2.6216 0-4.7469 2.1298-4.7469 4.7569 0 2.6272 2.1253 4.7569 4.7469 4.7569z" fill="#a0616a"/><path d="m59.4126 76.6631c-.079.042-.1558.0793-.2348.1189-.0838.0396-.1675.0792-.2489.1165-.5302.24-1.0278.4101-1.4836.487-.1279-.4008-.3-.7876-.5139-1.1512.0418.4032.0069.8157-.1024 1.2072-.6348-.0117-1.1673-.2517-1.5696-.7784-.021-.5429-.1419-1.0836-.3605-1.5846.0419.5546-.1116 1.1209-.4186 1.5846l.0814 6.5227c-1.6278 1.0836 1.8883 4.7376 1.3953 5.5928-.1419-.0163-4.9765-6.0845-5.1137-6.1102-3.0952-.5872-5.0602-5.6953-4.8091-5.9843 0-.8506.1977-1.6522.5512-2.37.4581-.9321 1.1767-1.7151 2.0673-2.2534.5232-.254 1.0767-.4614 1.6511-.6199.0139-.0047.0256-.007.0395-.0116.1744-.0467.3535-.0909.5302-.1259.3651-.0769.7349-.1351 1.1116-.1701.0279-.0023.0535-.0023.0791-.0023.1534 0 .2976.0419.4232.1165h.0046c.0907.0559.1721.1258.2349.212.1093.1399.1721.3123.1721.5034h1.7604c.0651 0 .1302 0 .1953.0047 2.4534.0978 4.4231 2.0297 4.551 4.4463.0046.0839.0069.1654.0069.2493z" fill="#2f2e41"/><path d="m52.1608 72.0089c0 1.7308-1.4001 3.1338-3.1273 3.1338-1.7271 0-3.1273-1.403-3.1273-3.1338s1.4002-3.1339 3.1273-3.1339c1.7272 0 3.1273 1.4031 3.1273 3.1339z" fill="#2f2e41"/><path d="m198.043 141.93v-9.128c1.228-.505 2.093-1.714 2.093-3.126s-.865-2.621-2.093-3.126v-3.865c0-.451-.365-.816-.814-.816-.45 0-.814.365-.814.816v3.612c-32.734 1.17-65.2 2.282-82.321 0v-3.612c0-.451-.365-.816-.814-.816-.45 0-.814.365-.814.816v3.612h-81.8565v-3.612c0-.451-.3644-.816-.8139-.816s-.8139.365-.8139.816v3.78c-1.3495.441-2.3255 1.711-2.3255 3.211s.976 2.769 2.3255 3.211v8.958c-1.3495.442-2.3255 1.711-2.3255 3.211s.976 2.77 2.3255 3.211v13.335c0 .45.3644.815.8139.815s.8139-.365.8139-.815v-13.167h81.8565v13.167c0 .45.364.815.814.815.449 0 .814-.365.814-.815v-13.167h82.321v13.167c0 .45.364.815.814.815.449 0 .814-.365.814-.815v-13.42c1.228-.505 2.093-1.714 2.093-3.126s-.865-2.621-2.093-3.126zm-167.4335-8.875c31.8466-2.593 63.0072-4.797 81.8565 0-1.741 2.9-1.774 5.775 0 8.622-21.7228 2.57-50.7939 1.745-81.8565 0 .977-2.558.7967-5.49 0-8.622zm83.4845 8.622v-8.622h82.321c-3.446 2.797-3.971 5.66 0 8.622-15.931 5.454-51.393 1.653-82.321 0z" fill="#e6e6e6"/><path d="m68.3281 103.708c-.1687 0-.3397-.017-.5115-.052l-9.7382-1.983c-.62-.126-1.1427-.521-1.4338-1.084-.2912-.563-.3121-1.2191-.0574-1.7994l3.7656-8.5838c.2064-.4709.6902-.7706 1.202-.7392l8.7456.4888c.2369.0103.3722-.1356.4254-.279.0531-.1436.044-.3475-.1407-.4897l-8.4139-6.4724c-.0576-.0451-.0701-.1247-.029-.1853.0412-.0605.1195-.078.1823-.0407l10.7841 6.309c.7939.4647 1.1625 1.4048.8963 2.2865l-3.2673 10.8242c-.329 1.09-1.3158 1.8-2.4095 1.8zm-6.1214-21.0188.0008.0005z" fill="#3f3d56"/><path d="m57.1195 93.4393s-5.0896-5.4201-5.3486-2.7964c-.1685 1.7073-1.8594 10.6041-.8896 13.6541.4829 1.518 2.1599 2.296 3.6287 1.684l12.1899-5.072-1.6043-3.2945-9.6551 4.0035z" fill="#a0616a"/><path d="m66.8861 100.896c1.4128 0 2.558-1.1474 2.558-2.5631s-1.1452-2.5634-2.558-2.5634c-1.4127 0-2.558 1.1477-2.558 2.5634s1.1453 2.5631 2.558 2.5631z" fill="#a0616a"/><path d="m19.7949 162.723c0 .153.1233.277.2768.277h182.1513c.153 0 .277-.124.277-.277 0-.154-.124-.278-.277-.278h-182.1513c-.1535 0-.2768.124-.2768.278z" fill="#ccc"/><path d="m54.0615 155.095 1.871 1.388 6.2333-6.571-2.7614-2.049z" fill="#a0616a"/><path d="m56.4303 157.114.9391-1.271-.5141-.335-2.09-1.367-.4845-.315-3.4995 3.994-.1875.214 1.3284.986.2102-.195.954-.887-.2629 1.4-.0583.307 3.522 2.614c.2103.156.4626.215.704.184.26-.031.506-.165.6734-.392.6627-.585-1.155-4.262-1.2343-4.937z" fill="#2f2e41"/><path d="m76.8748 135.445-.4721.543-1.372 1.575-14.6667 16.758-4.8835-3.263c3.6696-7.009 6.0299-11.318 9.9925-14.32 1.0977-.832 2.3209-1.563 3.7278-2.225 0 0-4.0649-1.487-8.8089-3.316-.4162-.161-.8395-.324-1.265-.492-3.9231-1.526-8.0973-3.211-10.7228-4.449-1.5975-.752-2.4533-1.957-2.7998-3.341-.9976-3.946 2.1092-9.361 3.83-9.984l10.2321-.324 1.2627 7.807.1325.816s3.7487 1.815 7.6834 3.63c.5906.271 1.1836.543 1.7697.809.9301.42 1.8371.825 2.6789 1.191.0192.008.0385.017.0578.025 2.4395 1.056 3.9581 3.529 3.7813 6.186z" fill="#2f2e41"/></g></svg>