<svg width="200" height="200" viewBox="0 0 200 200" fill="none" xmlns="http://www.w3.org/2000/svg">
<circle opacity="0.5" cx="100" cy="100" r="100" fill="#FFEFC3"/>
<circle opacity="0.6" cx="100" cy="100" r="80" fill="#FFEFC3"/>
<path d="M144.838 142.631C147.449 139.033 149.344 134.828 150.272 130.183C153.715 112.939 142.529 96.1697 125.286 92.7262C108.043 89.2826 91.273 100.469 87.8295 117.712C86.9017 122.357 87.0365 126.967 88.0647 131.293L144.838 142.631Z" fill="#FAB673"/>
<path d="M148.604 112.097C145.762 112.308 141.737 112.064 136.311 110.593C125.665 107.705 113.972 98.9189 104.011 95.8853C96.6623 99.8291 90.9079 106.618 88.4644 115.105C92.0394 113.162 97.0802 111.3 103.607 110.939C118.15 110.134 132.757 117.291 141.018 118.41C144.534 118.887 147.761 118.476 150.306 117.847C149.92 115.869 149.347 113.945 148.604 112.097V112.097Z" fill="#FBCD9F"/>
<path d="M141.803 131.52C136.734 130.272 120.57 117.455 105.218 118.115C96.6362 118.484 90.7919 120.113 87.3064 121.478C87.0409 124.837 87.3156 128.141 88.0649 131.293L144.838 142.631C147.377 139.132 149.239 135.059 150.193 130.566C147.513 131.436 144.27 132.128 141.803 131.52Z" fill="#FBCD9F"/>
<path d="M80.6786 67.1391V67.124C80.6777 67.1265 80.6769 67.1291 80.6765 67.1316C80.6756 67.1291 80.6748 67.1265 80.6744 67.124V67.1391C80.4766 67.8569 80.0192 68.3702 79.3022 68.6789C80.0192 68.9876 80.4766 69.5008 80.6744 70.2186V70.2337C80.6752 70.2312 80.6761 70.2287 80.6765 70.2261C80.6773 70.2287 80.6782 70.2312 80.6786 70.2337V70.2186C80.8764 69.5008 81.3338 68.9876 82.0507 68.6789C81.3338 68.3702 80.8764 67.8569 80.6786 67.1391Z" fill="#FFCC3C"/>
<path d="M136.521 55.0195V55.0044C136.52 55.0069 136.519 55.0094 136.519 55.012C136.518 55.0094 136.517 55.0069 136.517 55.0044V55.0195C136.319 55.7373 135.861 56.2505 135.145 56.5592C135.861 56.8679 136.319 57.3812 136.517 58.099V58.1141C136.518 58.1116 136.518 58.109 136.519 58.1065C136.52 58.109 136.52 58.1116 136.521 58.1141V58.099C136.719 57.3812 137.176 56.8679 137.893 56.5592C137.176 56.2505 136.719 55.7373 136.521 55.0195Z" fill="#FFCC3C"/>
<path d="M144.254 81.9956V81.9805C144.253 81.983 144.253 81.9855 144.252 81.988C144.251 81.9855 144.25 81.983 144.25 81.9805V81.9956C144.052 82.7134 143.595 83.2266 142.878 83.5353C143.595 83.844 144.052 84.3573 144.25 85.075V85.0902C144.251 85.0876 144.252 85.0851 144.252 85.0826C144.253 85.0851 144.254 85.0876 144.254 85.0902V85.075C144.452 84.3573 144.909 83.844 145.626 83.5353C144.909 83.2266 144.452 82.7134 144.254 81.9956Z" fill="#FFCC3C"/>
<path d="M48.744 110.949V110.934C48.7432 110.936 48.7423 110.939 48.7419 110.941C48.7411 110.939 48.7402 110.936 48.7398 110.934V110.949C48.542 111.666 48.0846 112.18 47.3677 112.488C48.0846 112.797 48.542 113.31 48.7398 114.028V114.043C48.7407 114.041 48.7415 114.038 48.7419 114.036C48.7428 114.038 48.7436 114.041 48.744 114.043V114.028C48.9418 113.31 49.3992 112.797 50.1162 112.488C49.3992 112.18 48.9418 111.666 48.744 110.949Z" fill="#FFCC3C"/>
<path d="M147.967 60.1522V60.1216C147.965 60.127 147.964 60.1317 147.962 60.1371C147.961 60.1317 147.959 60.127 147.958 60.1216V60.1522C147.563 61.5874 146.648 62.6143 145.214 63.2317C146.648 63.8491 147.562 64.876 147.958 66.3111V66.3418C147.959 66.3363 147.961 66.3317 147.962 66.3262C147.964 66.3317 147.965 66.3363 147.967 66.3418V66.3111C148.362 64.876 149.277 63.8491 150.711 63.2317C149.277 62.6143 148.363 61.5874 147.967 60.1522Z" fill="#FFCC3C"/>
<path d="M77.1257 100.031V100C77.1245 100.005 77.1228 100.01 77.1215 100.016C77.1203 100.01 77.1186 100.005 77.1173 100V100.031C76.7217 101.466 75.8069 102.493 74.373 103.11C75.8069 103.728 76.7213 104.754 77.1173 106.19V106.22C77.1186 106.215 77.1203 106.21 77.1215 106.205C77.1228 106.21 77.1245 106.215 77.1257 106.22V106.19C77.5214 104.754 78.4361 103.728 79.87 103.11C78.4361 102.493 77.5218 101.466 77.1257 100.031Z" fill="#FFCC3C"/>
<path d="M69.8025 53.4799V53.4492C69.8012 53.4547 69.7995 53.4593 69.7983 53.4648C69.797 53.4593 69.7953 53.4547 69.7941 53.4492V53.4799C69.3984 54.915 68.4837 55.9419 67.0498 56.5593C68.4837 57.1767 69.398 58.2036 69.7941 59.6388V59.6694C69.7953 59.664 69.797 59.6593 69.7983 59.6539C69.7995 59.6593 69.8012 59.664 69.8025 59.6694V59.6388C70.1981 58.2036 71.1129 57.1767 72.5468 56.5593C71.1129 55.9419 70.1985 54.915 69.8025 53.4799Z" fill="#FFCC3C"/>
<path d="M115.078 72.199C121.538 72.199 126.774 66.9624 126.774 60.5028C126.774 54.0432 121.538 48.8066 115.078 48.8066C108.618 48.8066 103.382 54.0432 103.382 60.5028C103.382 66.9624 108.618 72.199 115.078 72.199Z" fill="#FBCD9F"/>
<path d="M117.383 49.0344C117.453 50.7912 117.335 52.6241 116.749 53.8602C115.282 56.9572 113 57.9354 107.783 60.5029C105.647 61.5546 104.772 63.5147 104.484 65.4635C105.315 67.2351 106.577 68.7639 108.135 69.9151C108.486 68.443 109.151 66.8046 110.391 65.4337C113.488 62.0103 118.216 65.2707 123.685 62.4996C125.134 61.765 126.084 60.5495 126.697 59.1593C126.118 54.0983 122.31 50.0188 117.383 49.0339L117.383 49.0344Z" fill="#FAB673"/>
<path d="M60.2023 99.1599C65.5563 99.1599 69.8967 94.8195 69.8967 89.4654C69.8967 84.1113 65.5563 79.771 60.2023 79.771C54.8482 79.771 50.5078 84.1113 50.5078 89.4654C50.5078 94.8195 54.8482 99.1599 60.2023 99.1599Z" fill="#FBCD9F"/>
<path d="M45.525 98.0741C44.6648 98.0741 44.1617 97.8843 43.9911 97.4971C43.748 96.9439 44.2675 96.1505 45.5792 95.0711C46.7468 94.1102 48.5217 92.9485 50.712 91.7107C50.8128 91.6536 50.9409 91.6893 50.998 91.7901C51.0551 91.8909 51.0194 92.019 50.9186 92.0761C48.7493 93.3021 46.995 94.45 45.8459 95.3954C44.265 96.6961 44.3208 97.2031 44.3754 97.3278C44.4418 97.479 45.0122 98.1703 49.722 96.9288C53.0144 96.0611 57.2279 94.5277 61.5858 92.6108C65.9437 90.6943 69.9215 88.6254 72.7863 86.785C76.8843 84.1528 76.7604 83.2654 76.6936 83.1142C76.6394 82.9907 76.3076 82.6102 74.3122 82.8865C72.8611 83.0877 70.8577 83.593 68.5191 84.3485C68.4087 84.3842 68.2902 84.3238 68.255 84.2133C68.2193 84.1028 68.2797 83.9844 68.3902 83.9491C70.7519 83.1864 72.7796 82.6748 74.2547 82.4707C75.9128 82.241 76.8364 82.3964 77.0779 82.9453C77.2728 83.3884 76.9821 83.9789 76.1892 84.7505C75.4907 85.43 74.4222 86.2335 73.0131 87.1386C70.1303 88.9904 66.1319 91.0702 61.7546 92.9955C57.3774 94.9208 53.1421 96.4618 49.8287 97.3349C48.2092 97.7617 46.8946 98.0065 45.9219 98.062C45.782 98.0699 45.6493 98.0741 45.5246 98.0741H45.525Z" fill="#FAB673"/>
<path d="M157.75 150.495C142.373 136.636 122.013 128.2 99.6822 128.2C77.3516 128.2 56.9913 136.636 41.6143 150.495" fill="#FFFAEC"/>
<path d="M157.75 150.705C157.7 150.705 157.65 150.687 157.609 150.651C153.771 147.192 149.602 144.06 145.219 141.343C140.789 138.596 136.088 136.242 131.247 134.346C121.195 130.407 110.575 128.41 99.682 128.41C88.7893 128.41 78.1692 130.407 68.1169 134.346C63.276 136.242 58.5749 138.597 54.1448 141.343C49.7612 144.06 45.5927 147.191 41.7548 150.651C41.6687 150.729 41.5359 150.721 41.4582 150.635C41.3805 150.549 41.3877 150.416 41.4738 150.339C45.3306 146.863 49.5193 143.716 53.9238 140.986C58.3758 138.226 63.0996 135.861 67.964 133.955C78.065 129.997 88.7368 127.99 99.6824 127.99C110.628 127.99 121.299 129.997 131.401 133.955C136.265 135.861 140.989 138.226 145.441 140.986C149.846 143.716 154.034 146.863 157.891 150.339C157.977 150.416 157.984 150.549 157.907 150.635C157.865 150.681 157.808 150.705 157.75 150.705L157.75 150.705Z" fill="#FFCC3C"/>
<path d="M50.1162 143.742V140.203C50.1162 140.203 54.8253 135.068 60.4734 131.901C70.1712 126.465 75.1474 127.119 75.1474 127.119L82.0476 129.993C82.0476 129.993 77.4838 136.421 68.2611 141.084C61.5331 144.487 55.845 145.786 55.845 145.786" fill="#FFFAEC"/>
<path d="M55.8447 145.997C55.7489 145.997 55.6624 145.931 55.6402 145.834C55.6141 145.721 55.6851 145.608 55.7981 145.582C55.8548 145.569 61.5407 144.248 68.1662 140.897C72.9022 138.503 76.3772 135.633 78.4583 133.647C80.2396 131.948 81.3316 130.588 81.718 130.083L75.0946 127.324C74.906 127.306 73.6733 127.215 71.4565 127.684C67.4317 128.536 63.3182 130.547 60.5764 132.084C55.3466 135.016 50.8711 139.705 50.3267 140.286V143.742C50.3267 143.858 50.2327 143.952 50.1167 143.952C50.0008 143.952 49.9067 143.858 49.9067 143.742V140.203C49.9067 140.15 49.9265 140.099 49.9618 140.061C50.0092 140.009 54.7582 134.864 60.371 131.718C63.1489 130.16 67.3178 128.124 71.4044 127.266C73.8673 126.748 75.1231 126.903 75.1752 126.911C75.1937 126.913 75.2113 126.918 75.2285 126.925L82.1287 129.799C82.1875 129.823 82.232 129.874 82.2497 129.935C82.2673 129.996 82.256 130.062 82.219 130.114C82.2077 130.131 81.0401 131.763 78.7582 133.941C76.6553 135.949 73.1432 138.851 68.3565 141.272C61.6827 144.647 55.9493 145.978 55.8922 145.991C55.8766 145.995 55.8607 145.996 55.8451 145.996L55.8447 145.997Z" fill="#FFCC3C"/>
<path d="M52.9793 140.487C52.8953 140.487 52.816 140.436 52.7836 140.353C52.7412 140.245 52.7945 140.123 52.9025 140.081C52.9163 140.076 54.3868 139.494 61.4134 136.25C68.4076 133.02 71.0906 130.1 71.1166 130.071C71.1943 129.985 71.327 129.978 71.4131 130.055C71.4992 130.133 71.5064 130.266 71.4287 130.352C71.401 130.382 70.7353 131.115 69.1842 132.261C67.7604 133.312 65.2866 134.924 61.5893 136.631C54.5384 139.887 53.1125 140.45 53.0554 140.472C53.0302 140.482 53.0045 140.486 52.9789 140.486L52.9793 140.487Z" fill="#FFCC3C"/>
<path d="M115.409 129.625C115.409 129.625 120.58 128.2 121.319 128.2C123.5 128.2 126.951 128.597 134.842 132.256C142.733 135.916 147.439 139.932 147.439 139.932L150.253 144.454C150.253 144.454 142.716 145.421 132.384 141.418C122.051 137.416 116.905 133.07 116.905 133.07" fill="#FFFAEC"/>
<path d="M148.028 144.768C147.255 144.768 146.297 144.738 145.177 144.647C142.265 144.41 137.669 143.691 132.309 141.614C129.354 140.47 124.936 138.553 120.66 135.922C118.098 134.346 116.783 133.242 116.77 133.231C116.682 133.156 116.67 133.024 116.746 132.935C116.82 132.847 116.953 132.835 117.042 132.91C117.055 132.921 118.353 134.01 120.892 135.572C123.235 137.013 127.144 139.163 132.461 141.223C137.775 143.282 142.327 143.993 145.211 144.228C147.576 144.421 149.229 144.333 149.897 144.278L147.279 140.072C146.902 139.757 142.237 135.917 134.754 132.447C131.208 130.802 128.307 129.694 125.887 129.059C123.694 128.484 122.294 128.41 121.319 128.41C120.736 128.41 116.896 129.434 115.465 129.828C115.353 129.858 115.237 129.793 115.207 129.681C115.176 129.569 115.242 129.454 115.353 129.423C115.885 129.276 120.573 127.99 121.319 127.99C123.704 127.99 127.186 128.474 134.931 132.066C139.02 133.962 142.238 135.955 144.218 137.293C146.366 138.744 147.564 139.763 147.576 139.773C147.593 139.787 147.607 139.804 147.618 139.822L150.432 144.344C150.47 144.405 150.474 144.48 150.444 144.545C150.413 144.61 150.352 144.654 150.281 144.663C150.23 144.669 149.436 144.768 148.028 144.768V144.768Z" fill="#FFCC3C"/>
<path d="M144.252 140.108C144.244 140.108 144.237 140.108 144.229 140.106C144.17 140.1 138.311 139.438 131.851 136.57C129.989 135.743 127.27 134.414 124.894 132.776C123.465 131.79 122.845 131.167 122.819 131.141C122.738 131.058 122.739 130.925 122.821 130.844C122.904 130.762 123.037 130.763 123.118 130.846C123.143 130.871 125.639 133.353 132.022 136.187C138.419 139.027 144.217 139.683 144.274 139.689C144.389 139.702 144.473 139.806 144.46 139.921C144.448 140.028 144.357 140.108 144.252 140.108V140.108Z" fill="#FFCC3C"/>
</svg>
