<svg width="20" height="20" viewBox="0 0 20 20" fill="none" xmlns="http://www.w3.org/2000/svg">
<path d="M3.6042 3.60414L3.07387 3.07381V3.07381L3.6042 3.60414ZM2.33782 4.87052L1.58783 4.87429C1.5899 5.28556 1.92279 5.61844 2.33405 5.62051L2.33782 4.87052ZM4.8796 5.6333C5.29381 5.63539 5.63128 5.30129 5.63336 4.88708C5.63545 4.47287 5.30135 4.1354 4.88714 4.13332L4.8796 5.6333ZM3.07502 2.3212C3.07294 1.90699 2.73547 1.5729 2.32126 1.57498C1.90705 1.57706 1.57296 1.91453 1.57504 2.32874L3.07502 2.3212ZM1.82667 8.78492C1.88292 8.37454 1.59584 7.99627 1.18547 7.94002C0.775089 7.88377 0.396813 8.17084 0.340563 8.58122L1.82667 8.78492ZM16.8623 3.13777C13.0421 -0.682421 6.86879 -0.721108 3.07387 3.07381L4.13453 4.13447C7.33364 0.935364 12.5572 0.95395 15.8016 4.19843L16.8623 3.13777ZM3.13783 16.8622C6.95802 20.6824 13.1313 20.7211 16.9262 16.9262L15.8656 15.8655C12.6665 19.0646 7.44297 19.0461 4.19849 15.8016L3.13783 16.8622ZM16.9262 16.9262C20.7212 13.1313 20.6825 6.95796 16.8623 3.13777L15.8016 4.19843C19.0461 7.44291 19.0647 12.6664 15.8656 15.8655L16.9262 16.9262ZM3.07387 3.07381L1.80749 4.34019L2.86815 5.40085L4.13453 4.13447L3.07387 3.07381ZM2.33405 5.62051L4.8796 5.6333L4.88714 4.13332L2.34159 4.12053L2.33405 5.62051ZM3.08781 4.86675L3.07502 2.3212L1.57504 2.32874L1.58783 4.87429L3.08781 4.86675ZM0.340563 8.58122C-0.060869 11.5099 0.87398 14.5984 3.13783 16.8622L4.19849 15.8016C2.27792 13.881 1.48669 11.2652 1.82667 8.78492L0.340563 8.58122Z" fill="#73B3FF"/>
</svg>
