<svg width="20" height="20" viewBox="0 0 20 20" fill="none" xmlns="http://www.w3.org/2000/svg">
<path d="M3.60423 3.60414L3.0739 3.07381V3.07381L3.60423 3.60414ZM2.33785 4.87052L1.58786 4.87429C1.58993 5.28556 1.92282 5.61844 2.33408 5.62051L2.33785 4.87052ZM4.87964 5.6333C5.29384 5.63539 5.63131 5.30129 5.63339 4.88708C5.63548 4.47287 5.30138 4.1354 4.88717 4.13332L4.87964 5.6333ZM3.07505 2.3212C3.07297 1.90699 2.7355 1.5729 2.32129 1.57498C1.90708 1.57706 1.57299 1.91453 1.57507 2.32874L3.07505 2.3212ZM1.8267 8.78492C1.88295 8.37454 1.59587 7.99627 1.1855 7.94002C0.775119 7.88377 0.396844 8.17084 0.340594 8.58122L1.8267 8.78492ZM16.8623 3.13777C13.0421 -0.682421 6.86882 -0.721108 3.0739 3.07381L4.13456 4.13447C7.33367 0.935364 12.5572 0.95395 15.8017 4.19843L16.8623 3.13777ZM3.13786 16.8622C6.95805 20.6824 13.1314 20.7211 16.9263 16.9262L15.8656 15.8655C12.6665 19.0646 7.443 19.0461 4.19852 15.8016L3.13786 16.8622ZM16.9263 16.9262C20.7212 13.1313 20.6825 6.95796 16.8623 3.13777L15.8017 4.19843C19.0461 7.44291 19.0647 12.6664 15.8656 15.8655L16.9263 16.9262ZM3.0739 3.07381L1.80752 4.34019L2.86818 5.40085L4.13456 4.13447L3.0739 3.07381ZM2.33408 5.62051L4.87964 5.6333L4.88717 4.13332L2.34162 4.12053L2.33408 5.62051ZM3.08784 4.86675L3.07505 2.3212L1.57507 2.32874L1.58786 4.87429L3.08784 4.86675ZM0.340594 8.58122C-0.0608385 11.5099 0.87401 14.5984 3.13786 16.8622L4.19852 15.8016C2.27795 13.881 1.48673 11.2652 1.8267 8.78492L0.340594 8.58122Z" fill="#73B3FF"/>
</svg>
