<svg width="280" height="283" viewBox="0 0 280 283" fill="none" xmlns="http://www.w3.org/2000/svg">
<path d="M140 280C217.32 280 280 217.32 280 140C280 62.6801 217.32 0 140 0C62.6801 0 0 62.6801 0 140C0 217.32 62.6801 280 140 280Z" fill="url(#paint0_linear_45_2934)"/>
<g filter="url(#filter0_d_45_2934)">
<mask id="mask0_45_2934" style="mask-type:alpha" maskUnits="userSpaceOnUse" x="0" y="0" width="280" height="280">
<path d="M140 280C217.32 280 280 217.32 280 140C280 62.6801 217.32 0 140 0C62.6801 0 0 62.6801 0 140C0 217.32 62.6801 280 140 280Z" fill="url(#paint1_linear_45_2934)"/>
</mask>
<g mask="url(#mask0_45_2934)">
<path d="M220.267 80.2666H59.7334C54.5787 80.2666 50.4 84.4453 50.4 89.5999V285.6C50.4 290.755 54.5787 294.933 59.7334 294.933H220.267C225.421 294.933 229.6 290.755 229.6 285.6V89.5999C229.6 84.4453 225.421 80.2666 220.267 80.2666Z" fill="white"/>
</g>
</g>
<path d="M123.2 98.9336H74.6667C71.5739 98.9336 69.0667 101.441 69.0667 104.534C69.0667 107.626 71.5739 110.134 74.6667 110.134H123.2C126.293 110.134 128.8 107.626 128.8 104.534C128.8 101.441 126.293 98.9336 123.2 98.9336Z" fill="#E1EBFA"/>
<path d="M123.2 177.333H74.6667C71.5739 177.333 69.0667 179.84 69.0667 182.933C69.0667 186.026 71.5739 188.533 74.6667 188.533H123.2C126.293 188.533 128.8 186.026 128.8 182.933C128.8 179.84 126.293 177.333 123.2 177.333Z" fill="#E1EBFA"/>
<path d="M201.6 126.933H78.4C74.2763 126.933 70.9333 130.276 70.9333 134.399V153.066C70.9333 157.19 74.2763 160.533 78.4 160.533H201.6C205.724 160.533 209.067 157.19 209.067 153.066V134.399C209.067 130.276 205.724 126.933 201.6 126.933Z" stroke="#2E8EFF" stroke-width="2"/>
<path d="M201.6 203.467H78.4C73.2453 203.467 69.0667 207.645 69.0667 212.8V227.733C69.0667 232.888 73.2453 237.067 78.4 237.067H201.6C206.755 237.067 210.933 232.888 210.933 227.733V212.8C210.933 207.645 206.755 203.467 201.6 203.467Z" fill="#DFEAFB"/>
<path d="M98.9333 59.7331C103.057 59.7331 106.4 56.3902 106.4 52.2665C106.4 48.1427 103.057 44.7998 98.9333 44.7998C94.8096 44.7998 91.4667 48.1427 91.4667 52.2665C91.4667 56.3902 94.8096 59.7331 98.9333 59.7331Z" fill="white"/>
<path d="M140 59.7331C144.124 59.7331 147.467 56.3902 147.467 52.2665C147.467 48.1427 144.124 44.7998 140 44.7998C135.876 44.7998 132.533 48.1427 132.533 52.2665C132.533 56.3902 135.876 59.7331 140 59.7331Z" fill="#2E8EFF"/>
<path d="M181.067 59.7331C185.19 59.7331 188.533 56.3902 188.533 52.2665C188.533 48.1427 185.19 44.7998 181.067 44.7998C176.943 44.7998 173.6 48.1427 173.6 52.2665C173.6 56.3902 176.943 59.7331 181.067 59.7331Z" fill="white"/>
<path d="M160.533 164.266C165.688 164.266 169.866 160.088 169.866 154.933C169.866 149.778 165.688 145.6 160.533 145.6C155.379 145.6 151.2 149.778 151.2 154.933C151.2 160.088 155.379 164.266 160.533 164.266Z" fill="#DFEAFB"/>
<path d="M167.826 194.824C166.333 194.824 164.939 194.824 163.669 194.744C162.106 194.638 160.602 194.103 159.323 193.197C158.043 192.292 157.039 191.051 156.419 189.612L148.544 174.048C147.966 173.375 147.678 172.502 147.741 171.617C147.805 170.733 148.215 169.91 148.883 169.327C149.431 168.887 150.113 168.65 150.815 168.657C151.332 168.672 151.84 168.799 152.303 169.029C152.766 169.259 153.174 169.587 153.498 169.99L157.074 174.871L157.129 174.934V156.389C157.129 155.469 157.494 154.587 158.145 153.936C158.795 153.285 159.678 152.92 160.598 152.92C161.518 152.92 162.4 153.285 163.051 153.936C163.701 154.587 164.067 155.469 164.067 156.389V168.522C164.027 168.076 164.08 167.626 164.223 167.201C164.366 166.776 164.596 166.386 164.899 166.055C165.201 165.724 165.569 165.46 165.979 165.279C166.39 165.098 166.833 165.005 167.281 165.005C167.73 165.005 168.173 165.098 168.583 165.279C168.993 165.46 169.361 165.724 169.664 166.055C169.966 166.386 170.196 166.776 170.34 167.201C170.483 167.626 170.536 168.076 170.496 168.522V171.052C170.455 170.605 170.509 170.155 170.652 169.731C170.795 169.306 171.025 168.915 171.328 168.585C171.63 168.254 171.998 167.989 172.408 167.808C172.818 167.628 173.262 167.534 173.71 167.534C174.158 167.534 174.602 167.628 175.012 167.808C175.422 167.989 175.79 168.254 176.093 168.585C176.395 168.915 176.625 169.306 176.768 169.731C176.912 170.155 176.965 170.605 176.925 171.052V173.001C176.884 172.554 176.937 172.104 177.081 171.679C177.224 171.255 177.454 170.864 177.756 170.533C178.059 170.202 178.427 169.938 178.837 169.757C179.247 169.576 179.691 169.483 180.139 169.483C180.587 169.483 181.031 169.576 181.441 169.757C181.851 169.938 182.219 170.202 182.521 170.533C182.824 170.864 183.054 171.255 183.197 171.679C183.34 172.104 183.394 172.554 183.353 173.001V184.83C183.29 188.468 181.645 194.602 175.861 194.602C175.441 194.62 171.883 194.826 167.834 194.826L167.826 194.824Z" fill="#2E8EFF" stroke="white"/>
<defs>
<filter id="filter0_d_45_2934" x="44.4" y="71.2666" width="191.2" height="211.733" filterUnits="userSpaceOnUse" color-interpolation-filters="sRGB">
<feFlood flood-opacity="0" result="BackgroundImageFix"/>
<feColorMatrix in="SourceAlpha" type="matrix" values="0 0 0 0 0 0 0 0 0 0 0 0 0 0 0 0 0 0 127 0" result="hardAlpha"/>
<feOffset dy="-3"/>
<feGaussianBlur stdDeviation="3"/>
<feColorMatrix type="matrix" values="0 0 0 0 0.788235 0 0 0 0 0.803922 0 0 0 0 0.85098 0 0 0 0.349 0"/>
<feBlend mode="normal" in2="BackgroundImageFix" result="effect1_dropShadow_45_2934"/>
<feBlend mode="normal" in="SourceGraphic" in2="effect1_dropShadow_45_2934" result="shape"/>
</filter>
<linearGradient id="paint0_linear_45_2934" x1="140" y1="0" x2="140" y2="280" gradientUnits="userSpaceOnUse">
<stop stop-color="#E3ECFA"/>
<stop offset="1" stop-color="#DAE7FF"/>
</linearGradient>
<linearGradient id="paint1_linear_45_2934" x1="140" y1="0" x2="140" y2="280" gradientUnits="userSpaceOnUse">
<stop stop-color="#E3ECFA"/>
<stop offset="1" stop-color="#DAE7FF"/>
</linearGradient>
</defs>
</svg>
