<svg width="24" height="24" viewBox="0 0 24 24" fill="none" xmlns="http://www.w3.org/2000/svg">
<path d="M19 11.686C18.8013 10.2535 18.138 8.92617 17.1123 7.90851C16.0865 6.89086 14.7553 6.2393 13.3236 6.05422C11.8919 5.86914 10.4392 6.1608 9.18923 6.88427C7.93926 7.60774 6.96139 8.72289 6.40625 10.0579M6 6.80186V10.0579H9.25M6 13.314C6.1987 14.7465 6.86201 16.0738 7.88773 17.0915C8.91346 18.1091 10.2447 18.7607 11.6764 18.9458C13.1081 19.1309 14.5608 18.8392 15.8108 18.1157C17.0607 17.3923 18.0386 16.2771 18.5938 14.9421M19 18.1981V14.9421H15.75" stroke="#2E8EFF" stroke-width="2" stroke-linecap="round" stroke-linejoin="round"/>
</svg>
