<svg width="80" height="80" viewBox="0 0 80 80" fill="none" xmlns="http://www.w3.org/2000/svg">
<path d="M68.75 16.25V40C68.75 51.875 61.5625 60.3125 54.375 65.775C49.9857 69.1015 45.1456 71.7867 40 73.75C40 73.75 11.25 63.75 11.25 40V16.25L40 6.25L68.75 16.25Z" fill="white"/>
<path d="M40 75C39.8593 74.9984 39.7198 74.9731 39.5875 74.925C39.2875 74.825 10 64.3625 10 40V16.25C10.001 15.9916 10.0821 15.7399 10.2321 15.5295C10.3821 15.3191 10.5936 15.1603 10.8375 15.075L39.5875 5.07503C39.8546 4.98166 40.1454 4.98166 40.4125 5.07503L69.1625 15.075C69.4064 15.1603 69.6179 15.3191 69.7679 15.5295C69.9179 15.7399 69.999 15.9916 70 16.25V40C70 50.125 64.8625 59.375 55.125 66.775C50.634 70.1887 45.6748 72.9377 40.4 74.9375C40.2709 74.9799 40.1358 75.0011 40 75ZM12.5 17.1375V40C12.5 61.05 36.5375 71.0875 40 72.4125C44.8597 70.4892 49.4384 67.9203 53.6125 64.775C62.825 57.775 67.5 49.4375 67.5 40V17.1375L40 7.57503L12.5 17.1375Z" fill="#0091EA"/>
<path d="M63.75 20V40C63.75 49.375 57.8125 56.25 51.875 60.775C48.2362 63.5392 44.2421 65.8011 40 67.5C40 67.5 16.25 58.75 16.25 40V20L40 12.5L63.75 20Z" fill="#80D8FF"/>
<path d="M40 68.75C39.8508 68.7513 39.7027 68.7259 39.5625 68.675C38.5625 68.3 15 59.4 15 40V20C14.9873 19.7242 15.0663 19.4521 15.2246 19.226C15.3829 18.9998 15.6116 18.8325 15.875 18.75L39.625 11.25C39.8691 11.1732 40.1309 11.1732 40.375 11.25L64.125 18.75C64.3884 18.8325 64.617 18.9998 64.7753 19.226C64.9336 19.4521 65.0126 19.7242 65 20V40C65 48.075 60.725 55.6 52.6375 61.775C48.9024 64.6173 44.7981 66.9386 40.4375 68.675C40.2973 68.7259 40.1491 68.7513 40 68.75ZM17.5 20.9125V40C17.5 56.3125 36.8375 64.875 40 66.1625C43.9574 64.5131 47.6911 62.3712 51.1125 59.7875C58.675 54.025 62.5 47.375 62.5 40V20.9125L40 13.75L17.5 20.9125Z" fill="#0091EA"/>
<path d="M40 56.25C42.0711 56.25 43.75 54.5711 43.75 52.5C43.75 50.4289 42.0711 48.75 40 48.75C37.9289 48.75 36.25 50.4289 36.25 52.5C36.25 54.5711 37.9289 56.25 40 56.25Z" fill="white"/>
<path d="M40 21.25C40.9946 21.25 41.9484 21.6451 42.6516 22.3483C43.3549 23.0516 43.75 24.0054 43.75 25C43.75 27.075 42.075 43.75 40 43.75C37.925 43.75 36.25 27.075 36.25 25C36.25 24.0054 36.6451 23.0516 37.3483 22.3483C38.0516 21.6451 39.0054 21.25 40 21.25Z" fill="white"/>
<path d="M40 57.5C39.0111 57.5 38.0444 57.2068 37.2222 56.6573C36.3999 56.1079 35.759 55.327 35.3806 54.4134C35.0022 53.4998 34.9031 52.4945 35.0961 51.5245C35.289 50.5546 35.7652 49.6637 36.4645 48.9645C37.1637 48.2652 38.0546 47.789 39.0246 47.5961C39.9945 47.4031 40.9998 47.5022 41.9134 47.8806C42.8271 48.259 43.6079 48.8999 44.1574 49.7221C44.7068 50.5444 45 51.5111 45 52.5C45 53.8261 44.4732 55.0979 43.5355 56.0355C42.5979 56.9732 41.3261 57.5 40 57.5ZM40 50C39.5055 50 39.0222 50.1466 38.6111 50.4213C38.2 50.696 37.8795 51.0865 37.6903 51.5433C37.5011 52.0001 37.4516 52.5028 37.548 52.9877C37.6445 53.4727 37.8826 53.9181 38.2322 54.2678C38.5819 54.6174 39.0273 54.8555 39.5123 54.952C39.9972 55.0484 40.4999 54.9989 40.9567 54.8097C41.4135 54.6205 41.804 54.3 42.0787 53.8889C42.3534 53.4778 42.5 52.9945 42.5 52.5C42.5 51.837 42.2366 51.2011 41.7678 50.7322C41.2989 50.2634 40.663 50 40 50ZM40 45C38.475 45 37.35 43.425 36.1125 35.3375C35.425 30.8375 35 26.0875 35 25C35 23.6739 35.5268 22.4021 36.4645 21.4645C37.4022 20.5268 38.6739 20 40 20C41.3261 20 42.5979 20.5268 43.5355 21.4645C44.4732 22.4021 45 23.6739 45 25C45 26.0875 44.575 30.8375 43.8875 35.3375C42.65 43.425 41.525 45 40 45ZM40 22.5C39.337 22.5 38.7011 22.7634 38.2322 23.2322C37.7634 23.7011 37.5 24.337 37.5 25C37.5 27.5 38.75 38.2125 40 41.7C41.25 38.2125 42.5 27.5 42.5 25C42.5 24.337 42.2366 23.7011 41.7678 23.2322C41.2989 22.7634 40.663 22.5 40 22.5Z" fill="#0091EA"/>
</svg>
