<svg fill="none" height="69" viewBox="0 0 70 69" width="70" xmlns="http://www.w3.org/2000/svg" xmlns:xlink="http://www.w3.org/1999/xlink"><linearGradient id="a"><stop offset="0" stop-color="#b38746"/><stop offset=".3892" stop-color="#d9973b"/><stop offset=".75" stop-color="#ad6c10"/><stop offset=".8582" stop-color="#d3953d"/><stop offset="1" stop-color="#b07f35"/></linearGradient><linearGradient id="b" gradientUnits="userSpaceOnUse" x1="3.32868" x2="66.2112" xlink:href="#a" y1="57.4902" y2="57.4902"/><linearGradient id="c"><stop offset=".00000051" stop-color="#ffee76"/><stop offset="1" stop-color="#1d1d1b"/></linearGradient><linearGradient id="d" gradientUnits="userSpaceOnUse" x1="18.2916" x2="43.0246" xlink:href="#c" y1="64.1703" y2="64.1703"/><linearGradient id="e"><stop offset=".00000047" stop-color="#fff"/><stop offset="1" stop-color="#663d1f"/></linearGradient><linearGradient id="f" gradientUnits="userSpaceOnUse" x1="56.1961" x2="66.2113" xlink:href="#e" y1="55.4332" y2="55.4332"/><linearGradient id="g"><stop offset="0" stop-color="#663d1f"/><stop offset="1" stop-color="#fff"/></linearGradient><linearGradient id="h" gradientUnits="userSpaceOnUse" x1="3.32877" x2="9.7849" xlink:href="#g" y1="54.4119" y2="54.4119"/><linearGradient id="i"><stop offset=".00000008" stop-color="#ffe878"/><stop offset="1" stop-color="#e6a729"/></linearGradient><linearGradient id="j" gradientUnits="userSpaceOnUse" x1="3.32868" x2="66.2112" xlink:href="#i" y1="46.1879" y2="46.1879"/><linearGradient id="k" gradientUnits="userSpaceOnUse" x1="6.49561" x2="63.044" y1="46.1874" y2="46.1874"><stop offset=".00000008" stop-color="#ffe878"/><stop offset="1" stop-color="#ed9e1f"/></linearGradient><linearGradient id="l" gradientUnits="userSpaceOnUse" x1="6.49561" x2="63.044" xlink:href="#a" y1="39.5509" y2="39.5509"/><linearGradient id="m"><stop offset=".00000047" stop-color="#e0c0a8"/><stop offset="1" stop-color="#663d1f"/></linearGradient><linearGradient id="n" gradientUnits="userSpaceOnUse" x1="6.8031" x2="62.7127" xlink:href="#m" y1="47.0077" y2="47.0077"/><linearGradient id="o" gradientUnits="userSpaceOnUse" x1="7.12087" x2="70.0034" xlink:href="#a" y1="50.0737" y2="50.0737"/><linearGradient id="p" gradientUnits="userSpaceOnUse" x1="22.0838" x2="46.8168" xlink:href="#c" y1="56.7538" y2="56.7538"/><linearGradient id="q" gradientUnits="userSpaceOnUse" x1="59.9882" x2="70.0035" xlink:href="#e" y1="48.0165" y2="48.0165"/><linearGradient id="r" gradientUnits="userSpaceOnUse" x1="7.12087" x2="13.5769" xlink:href="#g" y1="46.9954" y2="46.9954"/><linearGradient id="s" gradientUnits="userSpaceOnUse" x1="7.12087" x2="70.0034" xlink:href="#i" y1="38.7714" y2="38.7714"/><linearGradient id="t"><stop offset=".00000008" stop-color="#f0cc62"/><stop offset="1" stop-color="#ed9e1f"/></linearGradient><linearGradient id="u" gradientUnits="userSpaceOnUse" x1="10.2878" x2="66.8362" xlink:href="#t" y1="38.7709" y2="38.7709"/><linearGradient id="v" gradientUnits="userSpaceOnUse" x1="10.2878" x2="66.8362" xlink:href="#a" y1="32.1344" y2="32.1344"/><linearGradient id="w"><stop offset="0" stop-color="#663d1f"/><stop offset="1" stop-color="#e0c0a8"/></linearGradient><linearGradient id="x" gradientUnits="userSpaceOnUse" x1="10.5567" x2="66.4663" xlink:href="#w" y1="39.3355" y2="39.3355"/><linearGradient id="y" gradientUnits="userSpaceOnUse" x1=".005197" x2="62.8876" xlink:href="#a" y1="42.6532" y2="42.6532"/><linearGradient id="z" gradientUnits="userSpaceOnUse" x1="14.968" x2="39.7009" xlink:href="#c" y1="49.3332" y2="49.3332"/><linearGradient id="A" gradientUnits="userSpaceOnUse" x1="52.8724" x2="62.8876" xlink:href="#e" y1="40.596" y2="40.596"/><linearGradient id="B" gradientUnits="userSpaceOnUse" x1=".005197" x2="6.46121" xlink:href="#g" y1="39.5749" y2="39.5749"/><linearGradient id="C" gradientUnits="userSpaceOnUse" x1=".005197" x2="62.8876" xlink:href="#i" y1="31.3508" y2="31.3508"/><linearGradient id="D" gradientUnits="userSpaceOnUse" x1="3.17203" x2="59.7204" xlink:href="#t" y1="31.3503" y2="31.3503"/><linearGradient id="E" gradientUnits="userSpaceOnUse" x1="4.47029" x2="60.3799" xlink:href="#m" y1="31.8522" y2="31.8522"/><linearGradient id="F" gradientUnits="userSpaceOnUse" x1="3.17261" x2="59.721" xlink:href="#a" y1="24.7139" y2="24.7139"/><linearGradient id="G" gradientUnits="userSpaceOnUse" x1="5.94744" x2="68.8299" xlink:href="#a" y1="35.2366" y2="35.2366"/><linearGradient id="H" gradientUnits="userSpaceOnUse" x1="20.9099" x2="45.6429" xlink:href="#c" y1="41.9127" y2="41.9127"/><linearGradient id="I" gradientUnits="userSpaceOnUse" x1="58.8144" x2="68.8295" xlink:href="#e" y1="33.1796" y2="33.1796"/><linearGradient id="J" gradientUnits="userSpaceOnUse" x1="5.94704" x2="12.4031" xlink:href="#g" y1="32.1582" y2="32.1582"/><linearGradient id="K" gradientUnits="userSpaceOnUse" x1="5.94744" x2="68.8299" xlink:href="#i" y1="23.9305" y2="23.9305"/><linearGradient id="L" gradientUnits="userSpaceOnUse" x1="9.11437" x2="65.6628" xlink:href="#t" y1="23.9299" y2="23.9299"/><linearGradient id="M" gradientUnits="userSpaceOnUse" x1="9.11446" x2="65.6629" xlink:href="#a" y1="17.2935" y2="17.2935"/><linearGradient id="N" gradientUnits="userSpaceOnUse" x1="9.2935" x2="65.2031" xlink:href="#w" y1="23.6899" y2="23.6899"/><linearGradient id="O" gradientUnits="userSpaceOnUse" x1="1.19358" x2="64.0761" xlink:href="#a" y1="27.0282" y2="27.0282"/><linearGradient id="P" gradientUnits="userSpaceOnUse" x1="16.1565" x2="40.8895" xlink:href="#c" y1="33.7083" y2="33.7083"/><linearGradient id="Q" gradientUnits="userSpaceOnUse" x1="54.0604" x2="64.0757" xlink:href="#e" y1="24.9712" y2="24.9712"/><linearGradient id="R" gradientUnits="userSpaceOnUse" x1="1.19358" x2="7.64971" xlink:href="#g" y1="23.95" y2="23.95"/><linearGradient id="S" gradientUnits="userSpaceOnUse" x1="1.19358" x2="64.0761" xlink:href="#i" y1="15.7259" y2="15.7259"/><linearGradient id="T" gradientUnits="userSpaceOnUse" x1="4.361" x2="60.9093" xlink:href="#t" y1="15.7253" y2="15.7253"/><linearGradient id="U" gradientUnits="userSpaceOnUse" x1="4.361" x2="60.9093" xlink:href="#a" y1="9.08891" y2="9.08891"/><g clip-rule="evenodd" fill-rule="evenodd"><path d="m3.33057 53.0844c0 8.657 14.07793 15.6723 31.43913 15.6723 17.3613 0 31.4392-7.0153 31.4392-15.6723v-6.85h-62.87833z" fill="url(#b)"/><path d="m30.6717 61.7905c1.3464.0827 2.7046.1299 4.0982.1299 2.8581 0 5.6217-.189 8.2554-.5433v6.8382c-2.6337.3543-3.8029.5433-8.2554.5433s-11.6923-.8503-16.4755-2.3266v-6.8382c3.6849 1.1337 7.8775 1.9014 12.3773 2.1967z" fill="url(#d)" opacity=".5"/><path d="m56.1938 57.7016c6.106-2.8463 9.9444-6.8854 10.0152-11.3852v6.7555c0 4.5234-3.8501 8.6098-10.0152 11.4679z" fill="url(#f)" opacity=".5"/><path d="m9.77912 55.7418v6.85c-4.05096-2.6337-6.46027-5.9406-6.46027-9.5192v-6.8499c.02362 3.5785 2.43293 6.8736 6.46027 9.5191z" fill="url(#h)" opacity=".5"/><path d="m39.2815 65.3673c0 .8622-.0708 1.6653-.1889 2.3503-.0118.0709-.0827.1299-.1536.1299-.0826 0-.1417-.059-.1535-.1299-.1181-.685-.189-1.4881-.189-2.3503 0-.8621.0709-1.6652.189-2.3502.0118-.0709.0827-.1299.1535-.1299.0827 0 .1418.059.1536.1299.1181.685.1889 1.4881.1889 2.3502zm4.1337-.4251c0 .8621-.0591 1.6652-.1772 2.3502-.0118.0709-.0709.1299-.1535.1299-.0709 0-.1418-.059-.1536-.1299-.1063-.685-.1771-1.4881-.1771-2.3502 0-.8622.059-1.6653.1771-2.3503.0118-.0709.0709-.1299.1536-.1299.0708 0 .1417.059.1535.1299.1181.6968.1772 1.4999.1772 2.3503zm4.0982-.7086c0 .8621-.0591 1.6652-.1654 2.3502-.0118.0709-.0708.1299-.1417.1299s-.1299-.059-.1417-.1299c-.1063-.685-.1654-1.4881-.1654-2.3502 0-.8622.0591-1.6653.1654-2.3503.0118-.0709.0708-.1299.1417-.1299s.1299.059.1417.1299c.1063.685.1654 1.4881.1654 2.3503zm4.0273-1.0512c0 .8622-.0591 1.6653-.1654 2.3503-.0118.0708-.0708.1299-.1299.1299-.0708 0-.1299-.0591-.1299-.1299-.1063-.685-.1653-1.4881-.1653-2.3503 0-.8621.059-1.6652.1653-2.3502.0118-.0709.0709-.13.1299-.13.0709 0 .1299.0591.1299.13.1063.685.1654 1.4881.1654 2.3502zm3.9092-1.429c0 .8621-.059 1.6652-.1535 2.3502-.0118.0709-.0591.13-.1299.13-.0591 0-.1181-.0591-.1299-.13-.0945-.685-.1536-1.4881-.1536-2.3502 0-.8622.0591-1.6653.1536-2.3503.0118-.0709.059-.1299.1299-.1299.059 0 .1181.059.1299.1299.0945.685.1535 1.4881.1535 2.3503zm3.7085-1.8779c0 .8622-.0473 1.6653-.1418 2.3503-.0118.0708-.059.1299-.1181.1299-.059 0-.1062-.0591-.1181-.1299-.0944-.685-.1417-1.4881-.1417-2.3503 0-.8621.0473-1.6653.1417-2.3503.0119-.0708.0591-.1299.1181-.1299.0591 0 .1181.0591.1181.1299.0945.685.1418 1.4882.1418 2.3503zm3.3659-2.4565c0 .8621-.0472 1.6652-.1417 2.3502-.0118.0709-.0591.1299-.1181.1299-.0591 0-.1063-.059-.1181-.1299-.0827-.685-.1417-1.4881-.1417-2.3502 0-.8622.0472-1.6653.1417-2.3503.0118-.0709.059-.1299.1181-.1299.059 0 .1063.059.1181.1299.0827.685.1417 1.4881.1417 2.3503zm-32.2659 7.9483c0 .8622.0709 1.6653.189 2.3503.0118.0709.0827.1299.1535.1299.0827 0 .1417-.059.1536-.1299.1181-.685.1889-1.4881.1889-2.3503 0-.8621-.0708-1.6652-.1889-2.3502-.0119-.0709-.0827-.1299-.1536-.1299-.0827 0-.1417.059-.1535.1299-.1181.685-.189 1.4881-.189 2.3502zm-4.1336-.4251c0 .8621.059 1.6652.1772 2.3502.0118.0709.0708.1299.1535.1299s.1417-.059.1535-.1299c.1063-.685.1772-1.4881.1772-2.3502 0-.8622-.0591-1.6653-.1772-2.3503-.0118-.0709-.0708-.1299-.1535-.1299s-.1417.059-.1535.1299c-.1182.6968-.1772 1.4999-.1772 2.3503zm-4.0982-.7086c0 .8621.0591 1.6652.1653 2.3502.0119.0709.0709.1299.1418.1299.0708 0 .1299-.059.1417-.1299.1063-.685.1653-1.4881.1653-2.3502 0-.8622-.059-1.6653-.1653-2.3503-.0118-.0709-.0709-.1299-.1417-.1299-.0709 0-.1299.059-.1418.1299-.1062.685-.1653 1.4881-.1653 2.3503zm-4.0273-1.0512c0 .8622.059 1.6653.1653 2.3503.0118.0708.0709.1299.1299.1299.0709 0 .1299-.0591.1299-.1299.1063-.685.1654-1.4881.1654-2.3503 0-.8621-.0591-1.6652-.1654-2.3502-.0118-.0709-.0708-.13-.1299-.13-.0708 0-.1299.0591-.1299.13-.1063.685-.1653 1.4881-.1653 2.3502zm-3.9093-1.429c0 .8621.0591 1.6652.1536 2.3502.0118.0709.059.13.1299.13.059 0 .1181-.0591.1299-.13.0945-.685.1535-1.4881.1535-2.3502 0-.8622-.059-1.6653-.1535-2.3503-.0118-.0709-.059-.1299-.1299-.1299-.0591 0-.1181.059-.1299.1299-.0945.685-.1536 1.4881-.1536 2.3503zm-3.7084-1.8779c0 .8622.0472 1.6653.1417 2.3503.0118.0708.0591.1299.1181.1299.0591 0 .1181-.0591.1181-.1299.0945-.685.1417-1.4881.1417-2.3503 0-.8621-.0472-1.6653-.1417-2.3503-.0118-.0708-.059-.1299-.1181-.1299-.059 0-.1181.0591-.1181.1299-.0945.685-.1417 1.4882-.1417 2.3503zm-3.36596-2.4565c0 .8621.04724 1.6652.14172 2.3502.01181.0709.05905.1299.1181.1299.05906 0 .1063-.059.11811-.1299.08267-.685.14172-1.4881.14172-2.3502 0-.8622-.04724-1.6653-.14172-2.3503-.01181-.0709-.05905-.1299-.11811-.1299-.05905 0-.10629.059-.1181.1299-.08267.685-.14172 1.4881-.14172 2.3503zm27.40006 8.0901c0 .8621.0708 1.6652.1889 2.3502.0118.0709.0827.1299.1654.1299s.1535-.059.1653-.1299c.1181-.685.189-1.4881.189-2.3502 0-.8622-.0709-1.6653-.189-2.3503-.0118-.0709-.0826-.1299-.1653-.1299s-.1536.059-.1654.1299c-.1181.685-.1889 1.4881-.1889 2.3503zm-30.04558-11.2789c0 .8621.04724 1.6652.12991 2.3502.01181.0709.05905.1299.1063.1299.04724 0 .09448-.059.10629-.1299.08267-.685.12991-1.4881.12991-2.3502 0-.8622-.04724-1.6653-.12991-2.3503-.01181-.0709-.05905-.1299-.10629-.1299-.04725 0-.09449.059-.1063.1299-.08267.685-.12991 1.4881-.12991 2.3503zm60.79968 0c0 .8621-.0472 1.6652-.1299 2.3502-.0118.0709-.059.1299-.1063.1299-.059 0-.0944-.059-.1063-.1299-.0826-.685-.1299-1.4881-.1299-2.3502 0-.8622.0473-1.6653.1299-2.3503.0119-.0709.0591-.1299.1063-.1299.0591 0 .0945.059.1063.1299.0827.685.1299 1.4881.1299 2.3503z" fill="#663d1f" opacity=".65"/><path d="m3.59033 46.5765c0 8.7869 13.85357 15.9086 30.93137 15.9086 17.0895 0 30.9313-7.1217 30.9313-15.9086s-13.8536-15.9085-30.9313-15.9085c-17.0778.0118-30.93137 7.1334-30.93137 15.9085z" fill="#ffee76"/><path d="m3.33057 46.1884c0 8.6924 14.07793 15.7314 31.43913 15.7314 17.3613 0 31.4392-7.039 31.4392-15.7314s-14.0779-15.7314-31.4392-15.7314c-17.3612 0-31.43913 7.039-31.43913 15.7314z" fill="url(#j)"/><path d="m6.29534 45.4438c-.20078 7.7594 12.37726 14.3732 28.10866 14.7865 15.7196.4134 28.6401-5.539 28.8409-13.2985.2008-7.7594-12.3773-14.3731-28.1087-14.7865-15.7196-.4134-28.64008 5.5391-28.84086 13.2985z" fill="#ffee76"/><path d="m6.49561 46.1878c0 7.8185 12.66069 14.1489 28.27399 14.1489s28.274-6.3304 28.274-14.1489c0-7.8184-12.6607-14.1487-28.274-14.1487s-28.27399 6.3303-28.27399 14.1487z" fill="url(#k)"/><path d="m62.9964 47.0618c-.8976-7.4051-13.1922-13.2748-28.2268-13.2748s-27.31735 5.8697-28.22675 13.2748c-.03543-.2834-.04724-.5787-.04724-.874 0-7.8184 12.66069-14.1487 28.27399-14.1487s28.274 6.3303 28.274 14.1487c0 .2953-.0118.5788-.0472.874z" fill="url(#l)"/><path d="m6.80322 47.003c0 7.724 12.51898 13.9835 27.95508 13.9835 15.4362 0 27.9552-6.2595 27.9552-13.9835s-12.519-13.9835-27.9552-13.9835c-15.4361 0-27.95508 6.2595-27.95508 13.9835z" fill="url(#n)"/><path d="m7.12158 45.6586c0 8.657 14.07792 15.6724 31.43922 15.6724 17.3612 0 31.4391-7.0154 31.4391-15.6724v-6.85h-62.87832z" fill="url(#o)"/><path d="m34.4627 54.3647c1.3464.0827 2.7046.1299 4.0982.1299 2.8581 0 5.6217-.189 8.2554-.5433v6.8382c-2.6337.3543-3.8029.5433-8.2554.5433s-11.6923-.8504-16.4755-2.3267v-6.8381c3.6849 1.1456 7.8894 1.9132 12.3773 2.1967z" fill="url(#p)" opacity=".5"/><path d="m59.9849 50.2875c6.1059-2.8463 9.9443-6.8854 10.0152-11.3852v6.7556c0 4.5233-3.8502 8.6097-10.0152 11.4678z" fill="url(#q)" opacity=".5"/><path d="m13.5818 48.316v6.85c-4.05091-2.6337-6.46022-5.9406-6.46022-9.5191v-6.85c.02362 3.5903 2.42112 6.8854 6.46022 9.5191z" fill="url(#r)" opacity=".5"/><path d="m43.0726 57.9533c0 .8621-.0709 1.6652-.189 2.3502-.0118.0709-.0827.13-.1535.13-.0827 0-.1418-.0591-.1536-.13-.1181-.685-.1889-1.4881-.1889-2.3502 0-.8622.0708-1.6653.1889-2.3503.0118-.0709.0827-.1299.1536-.1299.0826 0 .1417.059.1535.1299.1181.685.189 1.4881.189 2.3503zm4.1454-.4252c0 .8621-.0591 1.6653-.1772 2.3503-.0118.0708-.0708.1299-.1535.1299-.0709 0-.1417-.0591-.1535-.1299-.1063-.685-.1772-1.4882-.1772-2.3503 0-.8622.0591-1.6653.1772-2.3503.0118-.0708.0708-.1299.1535-.1299.0709 0 .1417.0591.1535.1299.1063.685.1772 1.4881.1772 2.3503zm4.0982-.7204c0 .8621-.0591 1.6652-.1654 2.3502-.0118.0709-.0708.13-.1417.13-.0708 0-.1299-.0591-.1417-.13-.1063-.685-.1654-1.4881-.1654-2.3502 0-.8622.0591-1.6653.1654-2.3503.0118-.0709.0709-.1299.1417-.1299.0709 0 .1299.059.1417.1299.0945.685.1654 1.4999.1654 2.3503zm4.0155-1.0393c0 .8621-.059 1.6652-.1653 2.3502-.0119.0709-.0709.1299-.13.1299-.059 0-.1299-.059-.1299-.1299-.1063-.685-.1653-1.4881-.1653-2.3502 0-.8622.059-1.6653.1653-2.3503.0118-.0709.0709-.1299.1299-.1299.0591 0 .13.059.13.1299.1063.685.1653 1.4881.1653 2.3503zm3.9092-1.4291c0 .8622-.059 1.6653-.1535 2.3503-.0118.0708-.0591.1299-.1299.1299-.0591 0-.1181-.0591-.1299-.1299-.0945-.685-.1536-1.4881-.1536-2.3503 0-.8621.0591-1.6653.1536-2.3503.0118-.0708.059-.1299.1299-.1299.059 0 .1181.0591.1299.1299.0945.685.1535 1.4882.1535 2.3503zm3.7085-1.8778c0 .8621-.0473 1.6652-.1417 2.3502-.0118.0709-.0591.1299-.1181.1299-.0591 0-.1181-.059-.1181-.1299-.0945-.685-.1418-1.4881-.1418-2.3502 0-.8622.0473-1.6653.1418-2.3503.0118-.0709.059-.1299.1181-.1299.059 0 .1181.059.1181.1299.0944.685.1417 1.4881.1417 2.3503zm3.3659-2.4566c0 .8622-.0472 1.6652-.1417 2.3502-.0118.0709-.059.13-.1181.13-.059 0-.1063-.0591-.1181-.13-.0827-.685-.1417-1.488-.1417-2.3502s.0472-1.6653.1417-2.3503c.0118-.0708.0591-.1299.1181-.1299.0591 0 .1063.0591.1181.1299.0827.685.1417 1.4881.1417 2.3503zm-32.2659 7.9484c0 .8621.0709 1.6652.189 2.3502.0118.0709.0827.13.1535.13.0827 0 .1418-.0591.1536-.13.1181-.685.1889-1.4881.1889-2.3502 0-.8622-.0708-1.6653-.1889-2.3503-.0118-.0709-.0827-.1299-.1536-.1299-.0826 0-.1417.059-.1535.1299-.1181.685-.189 1.4881-.189 2.3503zm-4.1336-.4252c0 .8621.0591 1.6653.1772 2.3503.0118.0708.0708.1299.1535.1299s.1417-.0591.1535-.1299c.1063-.685.1772-1.4882.1772-2.3503 0-.8622-.0591-1.6653-.1772-2.3503-.0118-.0708-.0708-.1299-.1535-.1299s-.1417.0591-.1535.1299c-.1181.685-.1772 1.4881-.1772 2.3503zm-4.0982-.7204c0 .8621.0591 1.6652.1654 2.3502.0118.0709.0708.13.1417.13s.1299-.0591.1417-.13c.1063-.685.1654-1.4881.1654-2.3502 0-.8622-.0591-1.6653-.1654-2.3503-.0118-.0709-.0708-.1299-.1417-.1299s-.1299.059-.1417.1299c-.1063.685-.1654 1.4999-.1654 2.3503zm-4.0273-1.0393c0 .8621.059 1.6652.1653 2.3502.0118.0709.0709.1299.1299.1299.0709 0 .13-.059.13-.1299.1063-.685.1653-1.4881.1653-2.3502 0-.8622-.059-1.6653-.1653-2.3503-.0118-.0709-.0709-.1299-.13-.1299-.0708 0-.1299.059-.1299.1299-.1063.685-.1653 1.4881-.1653 2.3503zm-3.9092-1.4291c0 .8622.059 1.6653.1535 2.3503.0118.0708.059.1299.1299.1299.0591 0 .1181-.0591.1299-.1299.0945-.685.1536-1.4881.1536-2.3503 0-.8621-.0591-1.6653-.1536-2.3503-.0118-.0708-.059-.1299-.1299-.1299-.059 0-.1181.0591-.1299.1299-.0945.685-.1535 1.4882-.1535 2.3503zm-3.7085-1.8778c0 .8621.0473 1.6652.1417 2.3502.0118.0709.0591.1299.1181.1299.0591 0 .1181-.059.1181-.1299.0945-.685.1418-1.4881.1418-2.3502 0-.8622-.0473-1.6653-.1418-2.3503-.0118-.0709-.059-.1299-.1181-.1299-.059 0-.1181.059-.1181.1299-.0944.685-.1417 1.4881-.1417 2.3503zm-3.3541-2.4566c0 .8622.0472 1.6652.1417 2.3502.0118.0709.059.13.1181.13.059 0 .1063-.0591.1181-.13.0827-.685.1417-1.488.1417-2.3502s-.0472-1.6653-.1417-2.3503c-.0118-.0708-.0591-.1299-.1181-.1299-.0591 0-.1063.0591-.1181.1299-.0945.685-.1417 1.4881-.1417 2.3503zm27.3882 8.0901c0 .8622.0708 1.6652.189 2.3502.0118.0709.0826.13.1653.13s.1535-.0591.1653-.13c.1181-.685.189-1.488.189-2.3502s-.0709-1.6653-.189-2.3503c-.0118-.0708-.0826-.1299-.1653-.1299s-.1535.0591-.1653.1299c-.1182.685-.189 1.4881-.189 2.3503zm-30.04557-11.2789c0 .8622.04724 1.6653.12992 2.3503.01181.0708.05905.1299.10629.1299.05905 0 .09448-.0591.10629-.1299.08268-.685.12992-1.4881.12992-2.3503 0-.8621-.04724-1.6653-.12992-2.3503-.01181-.0708-.05905-.1299-.10629-.1299-.05905 0-.09448.0591-.10629.1299-.08268.685-.12992 1.4882-.12992 2.3503zm60.79977 0c0 .8622-.0473 1.6653-.13 2.3503-.0118.0708-.059.1299-.1062.1299-.0591 0-.0945-.0591-.1063-.1299-.0827-.685-.13-1.4881-.13-2.3503 0-.8621.0473-1.6653.13-2.3503.0118-.0708.059-.1299.1063-.1299.059 0 .0944.0591.1062.1299.0827.685.13 1.4882.13 2.3503z" fill="#663d1f" opacity=".65"/><path d="m7.38135 39.1625c0 8.7869 13.85355 15.9085 30.93135 15.9085s30.9313-7.1216 30.9313-15.9085-13.8535-15.9086-30.9313-15.9086-30.93135 7.1217-30.93135 15.9086z" fill="#ffee76"/><path d="m7.12158 38.7743c0 8.6925 14.07792 15.7314 31.43922 15.7314 17.3612 0 31.4391-7.0389 31.4391-15.7314 0-8.6924-14.0779-15.7313-31.4391-15.7313-17.3613 0-31.43922 7.0389-31.43922 15.7313z" fill="url(#s)"/><path d="m10.0864 38.0297c-.20082 7.7594 12.3772 14.3732 28.1086 14.7866 15.7196.4133 28.6401-5.5391 28.8409-13.2985s-12.3773-14.3732-28.1087-14.7866c-15.7195-.4133-28.6401 5.5391-28.8408 13.2985z" fill="#ffee76"/><path d="m10.2866 38.7738c0 7.8184 12.6607 14.1488 28.274 14.1488s28.274-6.3304 28.274-14.1488c0-7.8185-12.6607-14.1488-28.274-14.1488s-28.274 6.3303-28.274 14.1488z" fill="url(#u)"/><path d="m66.7874 39.6478c-.8976-7.4051-13.1922-13.2749-28.2268-13.2749s-27.3173 5.8698-28.2267 13.2749c-.0355-.2835-.0473-.5788-.0473-.874 0-7.8185 12.6607-14.1488 28.274-14.1488s28.274 6.3303 28.274 14.1488c0 .2952-.0118.5787-.0472.874z" fill="url(#v)"/><path d="m10.5586 39.3311c0 7.724 12.519 13.9835 27.9551 13.9835s27.9551-6.2595 27.9551-13.9835-12.519-13.9834-27.9551-13.9834-27.9551 6.2594-27.9551 13.9834z" fill="url(#x)"/><path d="m0 38.2407c0 8.6569 14.078 15.6723 31.4392 15.6723s31.4391-7.0154 31.4391-15.6723v-6.8501h-62.8783z" fill="url(#y)"/><path d="m27.3528 46.9467c1.3464.0827 2.7046.1299 4.0982.1299 2.8581 0 5.6218-.1889 8.2555-.5433v6.8382c-2.6337.3544-3.803.5433-8.2555.5433s-11.6922-.8503-16.4754-2.3266v-6.8382c3.6848 1.1456 7.8775 1.9015 12.3772 2.1967z" fill="url(#z)" opacity=".5"/><path d="m52.875 42.8579c6.106-2.8463 9.9443-6.8855 10.0152-11.3852v6.7555c0 4.5234-3.8502 8.6097-10.0152 11.4678z" fill="url(#A)" opacity=".5"/><path d="m6.46027 40.898v6.8618c-4.05096-2.6337-6.46027-5.9406-6.46027-9.5191v-6.8501c.0236207 3.5786 2.43294 6.8737 6.46027 9.5074z" fill="url(#B)" opacity=".5"/><path d="m35.9623 50.5353c0 .8622-.0709 1.6653-.189 2.3503-.0118.0708-.0826.1299-.1535.1299-.0827 0-.1417-.0591-.1535-.1299-.1181-.685-.189-1.4881-.189-2.3503 0-.8621.0709-1.6653.189-2.3503.0118-.0708.0826-.1299.1535-.1299.0827 0 .1417.0591.1535.1299.1181.685.189 1.4882.189 2.3503zm4.1336-.4252c0 .8622-.059 1.6653-.1771 2.3503-.0118.0709-.0709.1299-.1536.1299-.0708 0-.1417-.059-.1535-.1299-.1063-.685-.1772-1.4881-.1772-2.3503 0-.8621.0591-1.6652.1772-2.3502.0118-.0709.0709-.13.1535-.13.0709 0 .1418.0591.1536.13.1181.685.1771 1.4881.1771 2.3502zm4.0982-.7204c0 .8622-.059 1.6653-.1653 2.3503-.0118.0708-.0709.1299-.1418.1299-.0708 0-.1299-.0591-.1417-.1299-.1063-.685-.1653-1.4881-.1653-2.3503s.059-1.6653.1653-2.3503c.0118-.0708.0709-.1299.1417-.1299.0709 0 .13.0591.1418.1299.1063.685.1653 1.4881.1653 2.3503zm4.0273-1.0511c0 .8621-.059 1.6653-.1653 2.3503-.0118.0708-.0709.1298-.1299.1298-.0709 0-.1299-.059-.1299-.1298-.1063-.685-.1654-1.4882-.1654-2.3503 0-.8622.0591-1.6653.1654-2.3503.0118-.0708.0708-.1299.1299-.1299.0709 0 .1299.0591.1299.1299.1063.685.1653 1.4881.1653 2.3503zm3.9093-1.4291c0 .8622-.0591 1.6653-.1536 2.3503-.0118.0708-.059.1299-.1299.1299-.059 0-.1181-.0591-.1299-.1299-.0945-.685-.1535-1.4881-.1535-2.3503 0-.8621.059-1.6652.1535-2.3502.0118-.0709.0591-.13.1299-.13.0591 0 .1181.0591.1299.13.0945.685.1536 1.4881.1536 2.3502zm3.7084-1.8778c0 .8621-.0472 1.6652-.1417 2.3502-.0118.0709-.0591.13-.1181.13-.0591 0-.1181-.0591-.1181-.13-.0945-.685-.1417-1.4881-.1417-2.3502 0-.8622.0472-1.6653.1417-2.3503.0118-.0708.059-.1299.1181-.1299.059 0 .1181.0591.1181.1299.0827.685.1417 1.4881.1417 2.3503zm3.3542-2.4448c0 .8622-.0473 1.6653-.1418 2.3503-.0118.0708-.059.1299-.1181.1299-.059 0-.1063-.0591-.1181-.1299-.0826-.685-.1417-1.4881-.1417-2.3503 0-.8621.0473-1.6652.1417-2.3502.0118-.0709.0591-.13.1181-.13.0591 0 .1063.0591.1181.13.0945.685.1418 1.4881.1418 2.3502zm-32.2541 7.9484c0 .8622.0708 1.6653.1889 2.3503.0119.0708.0827.1299.1536.1299.0708 0 .1417-.0591.1535-.1299.1181-.685.189-1.4881.189-2.3503 0-.8621-.0709-1.6653-.189-2.3503-.0118-.0708-.0827-.1299-.1535-.1299-.0709 0-.1417.0591-.1536.1299-.1299.685-.1889 1.4882-.1889 2.3503zm-4.1455-.4252c0 .8622.0591 1.6653.1772 2.3503.0118.0709.0709.1299.1535.1299.0827 0 .1418-.059.1536-.1299.1063-.685.1771-1.4881.1771-2.3503 0-.8621-.059-1.6652-.1771-2.3502-.0118-.0709-.0709-.13-.1536-.13-.0826 0-.1417.0591-.1535.13-.1063.685-.1772 1.4881-.1772 2.3502zm-4.0982-.7204c0 .8622.0591 1.6653.1654 2.3503.0118.0708.0709.1299.1417.1299.0709 0 .1299-.0591.1417-.1299.1063-.685.1654-1.4881.1654-2.3503s-.0591-1.6653-.1654-2.3503c-.0118-.0708-.0708-.1299-.1417-.1299-.0708 0-.1299.0591-.1417.1299-.1063.685-.1654 1.4881-.1654 2.3503zm-4.0273-1.0511c0 .8621.0591 1.6653.1654 2.3503.0118.0708.0708.1298.1299.1298.0708 0 .1299-.059.1299-.1298.1063-.685.1653-1.4882.1653-2.3503 0-.8622-.059-1.6653-.1653-2.3503-.0118-.0708-.0709-.1299-.1299-.1299-.0709 0-.1299.0591-.1299.1299-.1063.685-.1654 1.4881-.1654 2.3503zm-3.8974-1.4291c0 .8622.059 1.6653.1535 2.3503.0118.0708.0591.1299.1299.1299.0709 0 .1182-.0591.13-.1299.0944-.685.1535-1.4881.1535-2.3503 0-.8621-.0591-1.6652-.1535-2.3502-.0118-.0709-.0591-.13-.13-.13-.0708 0-.1181.0591-.1299.13-.1063.685-.1535 1.4881-.1535 2.3502zm-3.72026-1.8778c0 .8621.04724 1.6652.14172 2.3502.01181.0709.05905.13.1181.13.05906 0 .1063-.0591.11811-.13.09448-.685.14172-1.4881.14172-2.3502 0-.8622-.04724-1.6653-.14172-2.3503-.01181-.0708-.05905-.1299-.11811-.1299-.05905 0-.1181.0591-.1181.1299-.08267.685-.14172 1.4881-.14172 2.3503zm-3.35415-2.4448c0 .8622.04724 1.6653.14173 2.3503.01181.0708.05905.1299.1181.1299s.10629-.0591.1181-.1299c.08268-.685.14173-1.4881.14173-2.3503 0-.8621-.04724-1.6652-.14173-2.3502-.01181-.0709-.05905-.13-.1181-.13s-.10629.0591-.1181.13c-.09449.685-.14173 1.4881-.14173 2.3502zm27.40001 8.0901c0 .8622.0709 1.6653.189 2.3503.0118.0708.0827.1299.1653.1299.0827 0 .1536-.0591.1654-.1299.1181-.685.1889-1.4881.1889-2.3503 0-.8621-.0708-1.6652-.1889-2.3502-.0118-.0709-.0827-.13-.1654-.13-.0826 0-.1535.0591-.1653.13-.1181.685-.189 1.4881-.189 2.3502zm-30.05734-11.2789c0 .8622.04724 1.6653.12992 2.3503.01181.0709.05905.1299.10629.1299.05905 0 .09448-.059.10629-.1299.08268-.685.12992-1.4881.12992-2.3503 0-.8621-.04724-1.6652-.12992-2.3502-.01181-.0709-.05905-.1299-.10629-.1299-.05905 0-.09448.059-.10629.1299-.08268.685-.12992 1.4881-.12992 2.3502zm60.81154 0c0 .8622-.0472 1.6653-.1299 2.3503-.0118.0709-.0591.1299-.1063.1299-.0591 0-.0945-.059-.1063-.1299-.0827-.685-.1299-1.4881-.1299-2.3503 0-.8621.0472-1.6652.1299-2.3502.0118-.0709.059-.1299.1063-.1299.059 0 .0945.059.1063.1299.0827.685.1299 1.4881.1299 2.3502z" fill="#663d1f" opacity=".65"/><path d="m.260254 31.7445c0 8.7869 13.853546 15.9085 30.931346 15.9085 17.0896 0 30.9313-7.1216 30.9313-15.9085s-13.8535-15.9086-30.9313-15.9086-30.931346 7.1217-30.931346 15.9086z" fill="#ffee76"/><path d="m0 31.3564c0 8.6924 14.078 15.7314 31.4392 15.7314s31.4391-7.039 31.4391-15.7314c0-8.6925-14.0779-15.7314-31.4391-15.7314s-31.4392 7.0389-31.4392 15.7314z" fill="url(#C)"/><path d="m2.97649 30.6028c-.20077 7.7594 12.37721 14.3732 28.10861 14.7866 15.7196.4133 28.6402-5.5391 28.8409-13.2985.2008-7.7594-12.3772-14.3732-28.1086-14.7866-15.7314-.4015-28.64013 5.5509-28.84091 13.2985z" fill="#ffee76"/><path d="m3.17676 31.3558c0 7.8185 12.66074 14.1488 28.27404 14.1488 15.6132 0 28.274-6.3303 28.274-14.1488 0-7.8184-12.6608-14.1488-28.274-14.1488-15.6251 0-28.27404 6.3304-28.27404 14.1488z" fill="url(#D)"/><path d="m4.47607 31.8546c0 7.7239 12.51903 13.9834 27.95513 13.9834s27.9551-6.2595 27.9551-13.9834c0-7.724-12.519-13.9835-27.9551-13.9835-15.448 0-27.95513 6.2595-27.95513 13.9835z" fill="url(#E)"/><path d="m59.6663 32.2181c-.8976-7.4051-13.1922-13.2748-28.2268-13.2748s-27.31733 5.8697-28.22673 13.2748c-.03543-.2835-.04724-.5787-.04724-.874 0-7.8184 12.66067-14.1488 28.27397-14.1488s28.274 6.3304 28.274 14.1488c.0118.2953-.0118.5905-.0472.874z" fill="url(#F)"/><path d="m5.95264 30.8266c0 8.657 14.07796 15.6723 31.43916 15.6723s31.4392-7.0153 31.4392-15.6723v-6.85h-62.87836z" fill="url(#G)"/><path d="m33.2933 39.5288c1.3464.0826 2.7045.1299 4.0982.1299 2.8581 0 5.6217-.189 8.2554-.5433v6.8382c-2.6337.3543-3.8029.5433-8.2554.5433s-11.6923-.8504-16.4755-2.3267v-6.8382c3.6848 1.1338 7.8775 1.9015 12.3773 2.1968z" fill="url(#H)" opacity=".5"/><path d="m58.8154 35.4438c6.106-2.8463 9.9443-6.8855 10.0152-11.3852v6.7555c0 4.5234-3.8502 8.6098-10.0152 11.4679z" fill="url(#I)" opacity=".5"/><path d="m12.4007 33.4839v6.8618c-4.05096-2.6337-6.46027-5.9406-6.46027-9.5191v-6.85c.02362 3.5785 2.43293 6.8736 6.46027 9.5073z" fill="url(#J)" opacity=".5"/><path d="m41.9032 43.1094c0 .8622-.0709 1.6653-.189 2.3503-.0118.0708-.0826.1299-.1535.1299-.0827 0-.1417-.0591-.1535-.1299-.1181-.685-.189-1.4881-.189-2.3503 0-.8621.0709-1.6652.189-2.3502.0118-.0709.0827-.13.1535-.13.0827 0 .1417.0591.1535.13.1181.685.189 1.4881.189 2.3502zm4.1336-.4133c0 .8621-.059 1.6652-.1771 2.3502-.0118.0709-.0709.1299-.1535.1299-.0709 0-.1418-.059-.1536-.1299-.1063-.685-.1771-1.4881-.1771-2.3502 0-.8622.059-1.6653.1771-2.3503.0118-.0709.0709-.1299.1536-.1299.0708 0 .1417.059.1535.1299.1181.685.1771 1.4881.1771 2.3503zm4.0982-.7205c0 .8622-.059 1.6653-.1653 2.3503-.0118.0709-.0709.1299-.1417.1299-.0709 0-.13-.059-.1418-.1299-.1063-.685-.1653-1.4881-.1653-2.3503 0-.8621.059-1.6652.1653-2.3502.0118-.0709.0709-.1299.1418-.1299.0708 0 .1299.059.1417.1299.1063.685.1653 1.4881.1653 2.3502zm4.0274-1.0511c0 .8622-.0591 1.6653-.1654 2.3503-.0118.0709-.0708.1299-.1299.1299-.0709 0-.1299-.059-.1299-.1299-.1063-.685-.1654-1.4881-.1654-2.3503s.0591-1.6652.1654-2.3502c.0118-.0709.0709-.13.1299-.13.0709 0 .1299.0591.1299.13.1063.685.1654 1.488.1654 2.3502zm3.9092-1.429c0 .8621-.0591 1.6652-.1535 2.3502-.0119.0709-.0591.1299-.13.1299-.059 0-.1181-.059-.1299-.1299-.0945-.685-.1535-1.4881-.1535-2.3502 0-.8622.059-1.6653.1535-2.3503.0118-.0709.0591-.1299.1299-.1299.0591 0 .1181.059.13.1299.0944.685.1535 1.4881.1535 2.3503zm3.7084-1.8779c0 .8622-.0472 1.6653-.1417 2.3503-.0118.0708-.059.1299-.1181.1299-.059 0-.1181-.0591-.1181-.1299-.0945-.685-.1417-1.4881-.1417-2.3503 0-.8621.0472-1.6653.1417-2.3503.0118-.0708.0591-.1299.1181-.1299.0591 0 .1181.0591.1181.1299.0945.685.1417 1.4882.1417 2.3503zm3.3542-2.4447c0 .8621-.0473 1.6652-.1417 2.3502-.0118.0709-.0591.1299-.1181.1299-.0591 0-.1063-.059-.1181-.1299-.0827-.685-.1418-1.4881-.1418-2.3502 0-.8622.0473-1.6653.1418-2.3503.0118-.0708.059-.1299.1181-.1299.059 0 .1063.0591.1181.1299.0944.685.1417 1.4881.1417 2.3503zm-32.2541 7.9365c0 .8622.0709 1.6653.189 2.3503.0118.0708.0826.1299.1535.1299.0827 0 .1417-.0591.1535-.1299.1181-.685.189-1.4881.189-2.3503 0-.8621-.0709-1.6652-.189-2.3502-.0118-.0709-.0826-.13-.1535-.13-.0827 0-.1417.0591-.1535.13-.13.685-.189 1.4881-.189 2.3502zm-4.1454-.4133c0 .8621.059 1.6652.1771 2.3502.0118.0709.0709.1299.1536.1299.0826 0 .1417-.059.1535-.1299.1063-.685.1771-1.4881.1771-2.3502 0-.8622-.059-1.6653-.1771-2.3503-.0118-.0709-.0709-.1299-.1535-.1299-.0827 0-.1418.059-.1536.1299-.1063.685-.1771 1.4881-.1771 2.3503zm-4.0982-.7205c0 .8622.059 1.6653.1653 2.3503.0118.0709.0709.1299.1417.1299.0709 0 .13-.059.1418-.1299.1063-.685.1653-1.4881.1653-2.3503 0-.8621-.059-1.6652-.1653-2.3502-.0118-.0709-.0709-.1299-.1418-.1299-.0708 0-.1299.059-.1417.1299-.1063.685-.1653 1.4881-.1653 2.3502zm-4.0274-1.0511c0 .8622.0591 1.6653.1654 2.3503.0118.0709.0708.1299.1299.1299.0709 0 .1299-.059.1417-.1299.1063-.685.1654-1.4881.1654-2.3503s-.0591-1.6652-.1654-2.3502c-.0118-.0709-.0708-.13-.1417-.13s-.1299.0591-.1299.13c-.1063.685-.1654 1.488-.1654 2.3502zm-3.8974-1.429c0 .8621.0591 1.6652.1536 2.3502.0118.0709.059.1299.1299.1299.059 0 .1181-.059.1299-.1299.0945-.685.1535-1.4881.1535-2.3502 0-.8622-.059-1.6653-.1535-2.3503-.0118-.0709-.0591-.1299-.1299-.1299-.0591 0-.1181.059-.1299.1299-.1063.685-.1536 1.4881-.1536 2.3503zm-3.7202-1.8779c0 .8622.0472 1.6653.1417 2.3503.0118.0708.059.1299.1181.1299.059 0 .1063-.0591.1181-.1299.0945-.685.1417-1.4881.1417-2.3503 0-.8621-.0472-1.6653-.1417-2.3503-.0118-.0708-.0591-.1299-.1181-.1299-.0591 0-.1181.0591-.1181.1299-.0827.685-.1417 1.4882-.1417 2.3503zm-3.35419-2.4447c0 .8621.04725 1.6652.14173 2.3502.01181.0709.05905.1299.1181.1299s.10626-.059.11806-.1299c.0827-.685.1418-1.4881.1418-2.3502 0-.8622-.0473-1.6653-.1418-2.3503-.0118-.0708-.05901-.1299-.11806-.1299s-.10629.0591-.1181.1299c-.09448.685-.14173 1.4881-.14173 2.3503zm27.39999 8.0782c0 .8622.0709 1.6653.189 2.3503.0118.0709.0827.1299.1654.1299.0826 0 .1535-.059.1653-.1299.1181-.685.189-1.4881.189-2.3503 0-.8621-.0709-1.6652-.189-2.3502-.0118-.0709-.0827-.1299-.1653-.1299-.0827 0-.1536.059-.1654.1299-.1181.685-.189 1.4881-.189 2.3502zm-30.05732-11.267c0 .8621.04724 1.6652.12992 2.3502.01181.0709.05905.1299.10629.1299.05905 0 .09448-.059.10629-.1299.08267-.685.12992-1.4881.12992-2.3502 0-.8622-.04725-1.6653-.12992-2.3503-.01181-.0709-.05905-.1299-.10629-.1299-.05905 0-.09448.059-.10629.1299-.08268.685-.12992 1.4881-.12992 2.3503zm60.81152 0c0 .8621-.0472 1.6652-.1299 2.3502-.0118.0709-.059.1299-.1063.1299-.059 0-.0945-.059-.1063-.1299-.0827-.685-.1299-1.4881-.1299-2.3502 0-.8622.0472-1.6653.1299-2.3503.0118-.0709.0591-.1299.1063-.1299.0591 0 .0945.059.1063.1299.0827.685.1299 1.4881.1299 2.3503z" fill="#663d1f" opacity=".65"/><path d="m6.21191 24.3304c0 8.7869 13.85359 15.9086 30.93129 15.9086 17.0896 0 30.9314-7.1217 30.9314-15.9086s-13.8536-15.90852-30.9314-15.90852c-17.0895 0-30.93129 7.12162-30.93129 15.90852z" fill="#ffee76"/><path d="m5.95264 23.9267c0 8.6924 14.07796 15.7314 31.43916 15.7314s31.4392-7.039 31.4392-15.7314-14.078-15.73139-31.4392-15.73139c-17.373 0-31.43916 7.05079-31.43916 15.73139z" fill="url(#K)"/><path d="m8.91643 23.1859c-.20077 7.7594 12.37727 14.3732 28.10867 14.7866 15.7196.4133 28.6401-5.5391 28.8409-13.2985s-12.3773-14.3732-28.1087-14.78656-28.64009 5.55086-28.84087 13.29846z" fill="#ffee76"/><path d="m9.11768 23.9262c0 7.8184 12.66072 14.1488 28.27402 14.1488s28.274-6.3304 28.274-14.1488c0-7.8185-12.6607-14.14886-28.274-14.14886s-28.27402 6.34216-28.27402 14.14886z" fill="url(#L)"/><path d="m65.6067 24.8001c-.8976-7.4051-13.1922-13.2748-28.2267-13.2748-15.0346 0-27.3174 5.8697-28.2268 13.2748-.03543-.2834-.04724-.5787-.04724-.8739 0-7.8185 12.66074-14.14886 28.27404-14.14886s28.274 6.33036 28.274 14.14886c.0118.2952-.0118.5905-.0473.8739z" fill="url(#M)"/><path d="m9.29492 23.6944c0 7.724 12.51898 13.9835 27.95508 13.9835 15.4362 0 27.9552-6.2595 27.9552-13.9835s-12.519-13.98346-27.9552-13.98346c-15.4361 0-27.95508 6.25946-27.95508 13.98346z" fill="url(#N)"/><path d="m1.19287 22.6156c0 8.657 14.07793 15.6724 31.43913 15.6724 17.3613 0 31.4392-7.0154 31.4392-15.6724v-6.85h-62.87833z" fill="url(#O)"/><path d="m28.534 31.3217c1.3464.0827 2.7046.1299 4.0982.1299 2.8581 0 5.6217-.1889 8.2554-.5432v6.8381c-2.6337.3544-3.8029.5433-8.2554.5433s-11.6923-.8503-16.4755-2.3266v-6.8382c3.6849 1.1456 7.8894 1.9015 12.3773 2.1967z" fill="url(#P)" opacity=".5"/><path d="m54.0557 27.2328c6.1059-2.8463 9.9443-6.8854 10.0151-11.3851v6.7555c0 4.5234-3.8501 8.6097-10.0151 11.4678z" fill="url(#Q)" opacity=".5"/><path d="m7.65313 25.2731v6.85c-4.05095-2.6337-6.46026-5.9406-6.46026-9.5192v-6.85c.02362 3.5904 2.42112 6.8854 6.46026 9.5192z" fill="url(#R)" opacity=".5"/><path d="m37.1434 34.9103c0 .8622-.0709 1.6653-.189 2.3503-.0118.0708-.0827.1299-.1535.1299-.0827 0-.1418-.0591-.1536-.1299-.1181-.685-.1889-1.4881-.1889-2.3503 0-.8621.0708-1.6652.1889-2.3502.0118-.0709.0827-.13.1536-.13.0826 0 .1417.0591.1535.13.1299.685.189 1.4881.189 2.3502zm4.1454-.4251c0 .8621-.0591 1.6652-.1772 2.3502-.0118.0709-.0708.1299-.1535.1299-.0709 0-.1417-.059-.1535-.1299-.1063-.685-.1772-1.4881-.1772-2.3502 0-.8622.0591-1.6653.1772-2.3503.0118-.0709.0708-.1299.1535-.1299.0709 0 .1417.059.1535.1299.1063.685.1772 1.4881.1772 2.3503zm4.0982-.7205c0 .8622-.0591 1.6653-.1654 2.3503-.0118.0708-.0708.1299-.1417.1299-.0708 0-.1299-.0591-.1417-.1299-.1063-.685-.1653-1.4881-.1653-2.3503s.059-1.6652.1653-2.3502c.0118-.0709.0709-.13.1417-.13.0709 0 .1299.0591.1417.13.0945.685.1654 1.488.1654 2.3502zm4.0273-1.0511c0 .8622-.059 1.6653-.1653 2.3503-.0118.0708-.0709.1298-.1299.1298-.0709 0-.13-.059-.13-.1298-.1062-.685-.1653-1.4881-.1653-2.3503s.0591-1.6653.1653-2.3503c.0119-.0708.0709-.1299.13-.1299.0708 0 .1299.0591.1299.1299.1063.685.1653 1.4881.1653 2.3503zm3.8974-1.4291c0 .8622-.059 1.6653-.1535 2.3503-.0118.0709-.059.1299-.1299.1299-.0591 0-.1181-.059-.1299-.1299-.0945-.685-.1536-1.4881-.1536-2.3503 0-.8621.0591-1.6652.1536-2.3502.0118-.0709.059-.1299.1299-.1299.059 0 .1181.059.1299.1299.1063.685.1535 1.4881.1535 2.3502zm3.7203-1.8778c0 .8621-.0472 1.6653-.1417 2.3503-.0118.0708-.0591.1299-.1181.1299-.0591 0-.1063-.0591-.1181-.1299-.0945-.685-.1418-1.4882-.1418-2.3503 0-.8622.0473-1.6653.1418-2.3503.0118-.0708.059-.1299.1181-.1299.059 0 .1181.0591.1181.1299.0826.685.1417 1.4881.1417 2.3503zm3.3541-2.4448c0 .8622-.0472 1.6653-.1417 2.3503-.0118.0709-.059.1299-.1181.1299-.059 0-.1063-.059-.1181-.1299-.0827-.685-.1417-1.4881-.1417-2.3503 0-.8621.0472-1.6652.1417-2.3502.0118-.0709.0591-.1299.1181-.1299.0591 0 .1063.059.1181.1299.0945.685.1417 1.4881.1417 2.3502zm-32.2659 7.9484c0 .8622.0709 1.6653.189 2.3503.0118.0708.0827.1299.1535.1299.0827 0 .1418-.0591.1536-.1299.1181-.685.1889-1.4881.1889-2.3503 0-.8621-.0708-1.6652-.1889-2.3502-.0118-.0709-.0827-.13-.1536-.13-.0826 0-.1417.0591-.1535.13-.1181.685-.189 1.4881-.189 2.3502zm-4.1336-.4251c0 .8621.0591 1.6652.1772 2.3502.0118.0709.0708.1299.1535.1299.0709 0 .1417-.059.1535-.1299.1063-.685.1772-1.4881.1772-2.3502 0-.8622-.0591-1.6653-.1772-2.3503-.0118-.0709-.0708-.1299-.1535-.1299-.0709 0-.1417.059-.1535.1299-.1181.685-.1772 1.4881-.1772 2.3503zm-4.0982-.7205c0 .8622.0591 1.6653.1654 2.3503.0118.0708.0708.1299.1417.1299s.1299-.0591.1417-.1299c.1063-.685.1654-1.4881.1654-2.3503s-.0591-1.6652-.1654-2.3502c-.0118-.0709-.0708-.13-.1417-.13s-.1299.0591-.1417.13c-.1063.685-.1654 1.488-.1654 2.3502zm-4.0273-1.0511c0 .8622.059 1.6653.1653 2.3503.0118.0708.0709.1298.1299.1298.0709 0 .13-.059.13-.1298.1063-.685.1653-1.4881.1653-2.3503s-.059-1.6653-.1653-2.3503c-.0118-.0708-.0709-.1299-.13-.1299-.0708 0-.1299.0591-.1299.1299-.1063.685-.1653 1.4881-.1653 2.3503zm-3.9092-1.4291c0 .8622.059 1.6653.1535 2.3503.0118.0709.059.1299.1299.1299s.1181-.059.1299-.1299c.0945-.685.1536-1.4881.1536-2.3503 0-.8621-.0591-1.6652-.1536-2.3502-.0118-.0709-.059-.1299-.1299-.1299s-.1181.059-.1299.1299c-.0945.685-.1535 1.4881-.1535 2.3502zm-3.70849-1.8778c0 .8621.04724 1.6653.14172 2.3503.01181.0708.05905.1299.11811.1299.05905 0 .1181-.0591.1181-.1299.09448-.685.14172-1.4882.14172-2.3503 0-.8622-.04724-1.6653-.14172-2.3503-.01181-.0708-.05905-.1299-.1181-.1299-.05906 0-.11811.0591-.11811.1299-.09448.685-.14172 1.4881-.14172 2.3503zm-3.35415-2.4448c0 .8622.04725 1.6653.14173 2.3503.01181.0709.05905.1299.1181.1299.05906 0 .1063-.059.11811-.1299.08267-.685.14172-1.4881.14172-2.3503 0-.8621-.04724-1.6652-.14172-2.3502-.01181-.0709-.05905-.1299-.11811-.1299-.05905 0-.10629.059-.1181.1299-.09448.685-.14173 1.4881-.14173 2.3502zm27.38824 8.0901c0 .8622.0709 1.6653.189 2.3503.0118.0709.0826.1299.1653.1299s.1535-.059.1653-.1299c.1181-.685.189-1.4881.189-2.3503 0-.8621-.0709-1.6652-.189-2.3502-.0118-.0709-.0826-.13-.1653-.13s-.1535.0591-.1653.13c-.1181.685-.189 1.4881-.189 2.3502zm-30.04557-11.2788c0 .8621.04725 1.6652.12992 2.3502.01181.0709.05905.1299.10629.1299s.09448-.059.1063-.1299c.08267-.685.12991-1.4881.12991-2.3502 0-.8622-.04724-1.6653-.12991-2.3503-.01182-.0709-.05906-.1299-.1063-.1299s-.09448.059-.10629.1299c-.08267.685-.12992 1.4881-.12992 2.3503zm60.81157 0c0 .8621-.0473 1.6652-.1299 2.3502-.0118.0709-.0591.1299-.1063.1299-.0591 0-.0945-.059-.1063-.1299-.0827-.685-.1299-1.4881-.1299-2.3502 0-.8622.0472-1.6653.1299-2.3503.0118-.0709.059-.1299.1063-.1299.059 0 .0945.059.1063.1299.0826.685.1299 1.4881.1299 2.3503z" fill="#663d1f" opacity=".65"/><path d="m1.45312 16.1195c0 8.7869 13.85358 15.9085 30.93138 15.9085 17.0895 0 30.9313-7.1216 30.9313-15.9085 0-8.78691-13.8536-15.908562-30.9313-15.908562-17.0778 0-30.93138 7.121652-30.93138 15.908562z" fill="#ffee76"/><path d="m1.19287 15.7314c0 8.6924 14.07793 15.7314 31.43913 15.7314 17.3613 0 31.4392-7.039 31.4392-15.7314 0-8.69242-14.0779-15.7314-31.4392-15.7314-17.3612 0-31.43913 7.03898-31.43913 15.7314z" fill="url(#S)"/><path d="m4.15716 14.9778c-.20078 7.7594 12.37724 14.3732 28.10864 14.7866 15.7196.4133 28.6401-5.5391 28.8409-13.2985.2008-7.75941-12.3772-14.3732-28.1086-14.78656-15.7196-.40156-28.62836 5.55084-28.84094 13.29846z" fill="#ffee76"/><path d="m4.3584 15.7309c0 7.8184 12.6607 14.1487 28.274 14.1487s28.274-6.3303 28.274-14.1487c0-7.8185-12.6607-14.14887-28.274-14.14887s-28.274 6.33037-28.274 14.14887z" fill="url(#T)"/><path d="m60.8591 16.5931c-.8975-7.4051-13.1921-13.27484-28.2267-13.27484s-27.31737 5.86974-28.22676 13.27484c-.03543-.2835-.04724-.5787-.04724-.874 0-7.81842 12.6607-14.14879 28.274-14.14879s28.274 6.33037 28.274 14.14879c0 .2953-.0118.5905-.0473.874z" fill="url(#U)"/></g></svg>