<svg width="80" height="80" viewBox="0 0 80 80" fill="none" xmlns="http://www.w3.org/2000/svg">
<path d="M59.2668 34.4498L52.6001 39.9998L59.2668 45.5498C60.022 46.1744 60.629 46.9588 61.0441 47.8466C61.4591 48.7343 61.6717 49.7032 61.6667 50.6832V66.6665C61.6654 67.1081 61.4894 67.5313 61.1771 67.8436C60.8648 68.1559 60.4416 68.3319 60 68.3332H20C19.5584 68.3319 19.1352 68.1559 18.8229 67.8436C18.5106 67.5313 18.3346 67.1081 18.3333 66.6665V50.6832C18.3283 49.7032 18.5409 48.7343 18.956 47.8466C19.371 46.9588 19.978 46.1744 20.7332 45.5498L27.3999 39.9998L20.7332 34.4498C19.978 33.8253 19.371 33.0408 18.956 32.1531C18.5409 31.2653 18.3283 30.2965 18.3333 29.3165V13.3332C18.3346 12.8915 18.5106 12.4684 18.8229 12.1561C19.1352 11.8438 19.5584 11.6678 20 11.6665H60C60.4416 11.6678 60.8648 11.8438 61.1771 12.1561C61.4894 12.4684 61.6654 12.8915 61.6667 13.3332V29.3165C61.6717 30.2965 61.4591 31.2653 61.0441 32.1531C60.629 33.0408 60.022 33.8253 59.2668 34.4498Z" fill="#80D8FF"/>
<path d="M55 51.5165V58.3331C54.9961 59.658 54.4681 60.9275 53.5312 61.8644C52.5944 62.8012 51.3249 63.3292 50 63.3331H30C29.2385 63.3332 28.4873 63.1572 27.805 62.819C27.1227 62.4807 26.5279 61.9893 26.0669 61.3831C25.684 60.909 25.3953 60.3658 25.2165 59.7831C25.0772 59.3122 25.0043 58.8242 25 58.3331V51.5165C24.9983 50.8037 25.1491 50.0988 25.4423 49.4491C25.7355 48.7994 26.1643 48.22 26.7 47.7498L36.7 38.9998C37.616 38.2057 38.7877 37.7686 40 37.7686C41.2123 37.7686 42.384 38.2057 43.3 38.9998L51.0498 45.7831L53.3 47.7498L53.3167 47.7665C53.8468 48.2367 54.2711 48.8141 54.5613 49.4606C54.8515 50.1071 55.001 50.8079 55 51.5165Z" fill="#FEFEFE"/>
<path d="M53.3334 48.0998V55.7665C53.3261 57.2567 52.7297 58.6836 51.6744 59.7358C50.6191 60.7881 49.1905 61.3802 47.7002 61.3831H26.0669C25.6839 60.909 25.3953 60.3658 25.2164 59.7831C25.0771 59.3122 25.0043 58.8242 25 58.3331V51.5165C24.9983 50.8037 25.1491 50.0988 25.4423 49.4491C25.7355 48.7994 26.1643 48.22 26.7 47.7498L36.7 38.9998C37.616 38.2057 38.7877 37.7686 40 37.7686C41.2123 37.7686 42.384 38.2057 43.3 38.9998L51.0499 45.7831L53.3 47.7498L53.3167 47.7665C53.3306 47.877 53.3361 47.9884 53.3334 48.0998Z" fill="#FEFEFE"/>
<path d="M68.3333 9.16668C68.335 9.71432 68.2284 10.2569 68.0196 10.7632C67.8107 11.2694 67.5039 11.7294 67.1166 12.1167C66.7294 12.5039 66.2694 12.8108 65.7631 13.0196C65.2569 13.2284 64.7143 13.335 64.1667 13.3333H15.8333C15.0861 13.3351 14.3522 13.1347 13.7097 12.7532C13.0671 12.3718 12.5397 11.8236 12.1834 11.1667L12.1668 11.15C11.8219 10.5153 11.6481 9.80181 11.6624 9.07961C11.6768 8.35741 11.8789 7.65138 12.2488 7.03094C12.6187 6.41049 13.1437 5.89698 13.7722 5.5409C14.4007 5.18482 15.111 4.99841 15.8333 5.00001H64.1667C64.859 4.99934 65.5406 5.17118 66.1499 5.50001L66.1666 5.51668C66.8235 5.87294 67.3717 6.40033 67.7532 7.04293C68.1347 7.68553 68.3351 8.41938 68.3333 9.16668ZM68.3333 70.8333C68.335 71.381 68.2284 71.9235 68.0196 72.4298C67.8107 72.9361 67.5039 73.3961 67.1166 73.7833C66.7294 74.1706 66.2694 74.4774 65.7631 74.6862C65.2569 74.895 64.7143 75.0017 64.1667 75H15.8333C14.9774 74.9982 14.1426 74.7334 13.4421 74.2415C12.7415 73.7497 12.209 73.0545 11.9165 72.25C11.7475 71.797 11.6628 71.3169 11.6667 70.8333C11.665 70.2857 11.7716 69.7431 11.9804 69.2368C12.1892 68.7306 12.4961 68.2706 12.8833 67.8833C13.2706 67.4961 13.7306 67.1892 14.2368 66.9804C14.7431 66.7716 15.2857 66.665 15.8333 66.6667H64.1667C64.6503 66.6628 65.1305 66.7475 65.5835 66.9167C66.3879 67.2091 67.0831 67.7417 67.5749 68.4422C68.0667 69.1427 68.3315 69.9774 68.3333 70.8333Z" fill="white"/>
<path d="M60 68.3332H20C19.7811 68.3332 19.5643 68.2902 19.3621 68.2064C19.1599 68.1227 18.9761 67.9999 18.8213 67.8451C18.6666 67.6904 18.5438 67.5066 18.4601 67.3044C18.3763 67.1021 18.3333 66.8854 18.3333 66.6665V50.6753C18.3321 49.6977 18.5465 48.7318 18.9611 47.8465C19.3758 46.9611 19.9806 46.1781 20.7324 45.5532L27.3967 39.9998L20.7324 34.4465C19.9806 33.8216 19.3758 33.0386 18.9612 32.1532C18.5465 31.2679 18.3321 30.302 18.3333 29.3244V13.3332C18.3333 13.1143 18.3763 12.8975 18.4601 12.6953C18.5438 12.4931 18.6666 12.3093 18.8213 12.1545C18.9761 11.9998 19.1599 11.877 19.3621 11.7933C19.5643 11.7095 19.7811 11.6664 20 11.6665H60C60.442 11.6665 60.8659 11.8421 61.1785 12.1547C61.4911 12.4672 61.6667 12.8911 61.6667 13.3332C61.6667 13.7752 61.4911 14.1991 61.1785 14.5117C60.8659 14.8242 60.442 14.9998 60 14.9998H21.6667V29.3244C21.6661 29.8131 21.7733 30.2959 21.9806 30.7384C22.1879 31.181 22.4903 31.5723 22.8662 31.8846L29.5304 37.4379C29.9058 37.7508 30.2078 38.1424 30.4151 38.5849C30.6224 39.0274 30.7299 39.5101 30.73 39.9988C30.73 40.4875 30.6227 40.9702 30.4156 41.4128C30.2084 41.8554 29.9065 42.247 29.5312 42.56L22.8662 48.115C22.4903 48.4273 22.1879 48.8187 21.9806 49.2612C21.7732 49.7038 21.6661 50.1866 21.6667 50.6753V64.9998H58.3333V50.6753C58.3339 50.1866 58.2267 49.7038 58.0194 49.2613C57.812 48.8187 57.5097 48.4274 57.1338 48.1151L50.4696 42.5617C50.0942 42.2489 49.7921 41.8573 49.5849 41.4148C49.3776 40.9723 49.2701 40.4896 49.27 40.0009C49.2699 39.5122 49.3773 39.0295 49.5844 38.5869C49.7916 38.1443 50.0935 37.7527 50.4687 37.4397L57.1337 31.8847C57.5096 31.5724 57.812 31.181 58.0194 30.7385C58.2267 30.2959 58.3339 29.8131 58.3333 29.3244V21.6665C58.3333 21.2245 58.5089 20.8006 58.8215 20.488C59.134 20.1754 59.558 19.9998 60 19.9998C60.442 19.9998 60.8659 20.1754 61.1785 20.488C61.4911 20.8006 61.6667 21.2245 61.6667 21.6665V29.3244C61.6679 30.302 61.4535 31.2679 61.0388 32.1532C60.6242 33.0386 60.0194 33.8216 59.2676 34.4465L52.6033 39.9998L59.2676 45.5532C60.0194 46.1781 60.6241 46.9611 61.0388 47.8465C61.4535 48.7318 61.6679 49.6977 61.6667 50.6753V66.6665C61.6667 66.8854 61.6236 67.1021 61.5399 67.3044C61.4562 67.5066 61.3334 67.6904 61.1786 67.8451C61.0239 67.9999 60.8401 68.1227 60.6379 68.2064C60.4356 68.2902 60.2189 68.3332 60 68.3332Z" fill="#0091EA"/>
<path d="M50 63.3333H30C28.6744 63.3319 27.4034 62.8046 26.4661 61.8673C25.5287 60.9299 25.0014 59.659 25 58.3333V51.5121C25.0001 50.7994 25.1525 50.095 25.447 49.446C25.7414 48.797 26.1711 48.2184 26.7073 47.749L36.7073 38.999C37.6206 38.205 38.7901 37.7679 40.0003 37.7682C41.2105 37.7685 42.3798 38.2062 43.2926 39.0007L53.2926 47.749C53.8288 48.2184 54.2586 48.797 54.553 49.446C54.8475 50.095 54.9999 50.7994 55 51.5121V58.3333C54.9985 59.659 54.4713 60.9299 53.5339 61.8673C52.5966 62.8046 51.3256 63.3319 50 63.3333ZM40 41.097C39.5967 41.0961 39.2068 41.2419 38.903 41.5072L28.903 50.2588C28.7241 50.415 28.5806 50.6076 28.4824 50.8238C28.3841 51.04 28.3333 51.2747 28.3333 51.5122V58.3333C28.3338 58.7752 28.5095 59.1989 28.822 59.5114C29.1344 59.8238 29.5581 59.9996 30 60H50C50.4419 59.9996 50.8656 59.8238 51.178 59.5114C51.4905 59.1989 51.6662 58.7752 51.6667 58.3333V51.5121C51.6667 51.2746 51.6159 51.0399 51.5176 50.8237C51.4193 50.6075 51.2759 50.4148 51.097 50.2587L41.097 41.5087C40.7937 41.2424 40.4036 41.096 40 41.097ZM63.3333 15H16.6667C15.3406 15 14.0688 14.4732 13.1311 13.5355C12.1934 12.5979 11.6667 11.3261 11.6667 10C11.6667 8.67392 12.1934 7.40215 13.1311 6.46447C14.0688 5.52678 15.3406 5 16.6667 5H63.3333C64.6594 5 65.9312 5.52678 66.8689 6.46447C67.8065 7.40215 68.3333 8.67392 68.3333 10C68.3333 11.3261 67.8065 12.5979 66.8689 13.5355C65.9312 14.4732 64.6594 15 63.3333 15ZM16.6667 8.33333C16.2246 8.33333 15.8007 8.50893 15.4881 8.82149C15.1756 9.13405 15 9.55797 15 10C15 10.442 15.1756 10.866 15.4881 11.1785C15.8007 11.4911 16.2246 11.6667 16.6667 11.6667H63.3333C63.7754 11.6667 64.1993 11.4911 64.5118 11.1785C64.8244 10.866 65 10.442 65 10C65 9.55797 64.8244 9.13405 64.5118 8.82149C64.1993 8.50893 63.7754 8.33333 63.3333 8.33333H16.6667ZM63.3333 75H16.6667C15.3406 75 14.0688 74.4732 13.1311 73.5355C12.1934 72.5978 11.6667 71.3261 11.6667 70C11.6667 68.6739 12.1934 67.4021 13.1311 66.4645C14.0688 65.5268 15.3406 65 16.6667 65H63.3333C64.6594 65 65.9312 65.5268 66.8689 66.4645C67.8065 67.4021 68.3333 68.6739 68.3333 70C68.3333 71.3261 67.8065 72.5978 66.8689 73.5355C65.9312 74.4732 64.6594 75 63.3333 75ZM16.6667 68.3333C16.2246 68.3333 15.8007 68.5089 15.4881 68.8215C15.1756 69.134 15 69.558 15 70C15 70.442 15.1756 70.866 15.4881 71.1785C15.8007 71.4911 16.2246 71.6667 16.6667 71.6667H63.3333C63.7754 71.6667 64.1993 71.4911 64.5118 71.1785C64.8244 70.866 65 70.442 65 70C65 69.558 64.8244 69.134 64.5118 68.8215C64.1993 68.5089 63.7754 68.3333 63.3333 68.3333H16.6667Z" fill="#0091EA"/>
</svg>
