<svg fill="none" height="86" viewBox="0 0 82 86" width="82" xmlns="http://www.w3.org/2000/svg">
    <clipPath id="a">
        <path d="m.5.875h81v85h-81z"/>
    </clipPath>
    <g clip-path="url(#a)">
        <g fill="#e6e6e6">
            <path d="m56.9998 11.2449-.1552.1633 10.6482 10.1588.1552-.1634z"/>
            <path d="m67.665 20.3008-.2249.0136.0679 1.1099-1.1097-.0134-.0024.2256 1.3515.0161z"/>
            <path d="m58.0969 11.1724-.0025.2256-1.1095-.0133.0678 1.1098-.225.0137-.0821-1.352z"/>
            <path d="m62.2463 17.6447c.6836 0 1.2377-.5553 1.2377-1.2403s-.5541-1.2403-1.2377-1.2403-1.2378.5553-1.2378 1.2403.5542 1.2403 1.2378 1.2403z"/>
            <path d="m25.2252 11.2436-10.6482 10.1587.1552.1634 10.6482-10.1588z"/>
            <path d="m14.4778 21.6526 1.3515-.0161-.0025-.2256-1.1096.0134.0678-1.1099-.2248-.0136z"/>
            <path d="m25.4796 11.1562-.0823 1.352-.2249-.0137.0678-1.1098-1.1096.0133-.0024-.2256z"/>
            <path d="m19.9787 17.6447c.6836 0 1.2377-.5553 1.2377-1.2403s-.5541-1.2403-1.2377-1.2403-1.2377.5553-1.2377 1.2403.5541 1.2403 1.2377 1.2403z"/>
        </g>
        <path d="m50.3393 26.5832h-18.6785c-.2685-.0003-.5259-.1074-.7158-.2976-.1898-.1902-.2966-.4482-.2969-.7172v-23.6786c.0003-.26905.1071-.52699.2969-.71723.1899-.190249.4473-.297264.7158-.29757h18.6785c.2685.000306.5259.107321.7158.29757.1898.19024.2966.44818.2969.71723v23.6786c-.0003.269-.1071.527-.2969.7172-.1899.1902-.4473.2973-.7158.2976zm-18.6785-25.48269c-.2089.00024-.4091.08347-.5567.23144-.1477.14797-.2308.34859-.231.55785v23.6786c.0002.2092.0833.4098.231.5578.1476.148.3478.2312.5567.2315h18.6785c.2088-.0003.4091-.0835.5567-.2315.1477-.148.2307-.3486.231-.5578v-23.6786c-.0003-.20926-.0833-.40988-.231-.55785-.1476-.14797-.3479-.2312-.5567-.23144z"
              fill="#3f3d56"/>
        <path d="m39.4462 12.2576h-4.1115c-.1342-.0001-.2629-.0536-.3579-.1488-.0949-.0951-.1483-.2241-.1484-.3586v-4.86194c.0001-.13453.0535-.2635.1484-.35862.095-.09513.2237-.14863.3579-.14878h4.1115c.1343.00015.263.05365.3579.14878.095.09512.1483.22409.1485.35862v4.86194c-.0001.1345-.0535.2635-.1485.3586-.0949.0952-.2236.1487-.3579.1488z"
              fill="#0c97f0"/>
        <path d="m47.4353 14.5115h-4.1116c-.1342-.0001-.2629-.0536-.3578-.1488-.095-.0951-.1484-.2241-.1485-.3586v-4.86194c.0001-.13452.0535-.26349.1485-.35862.0949-.09512.2236-.14863.3578-.14877h4.1116c.1342.00014.2629.05365.3578.14877.095.09513.1484.2241.1485.35862v4.86194c-.0001.1345-.0535.2635-.1485.3586-.0949.0952-.2236.1487-.3578.1488z"
              fill="#ccc"/>
        <path d="m41.0216 21.3904h-4.1116c-.1342-.0001-.2629-.0536-.3578-.1488-.095-.0951-.1484-.224-.1485-.3586v-4.8619c.0001-.1346.0535-.2635.1485-.3586.0949-.0952.2236-.1487.3578-.1488h4.1116c.1342.0001.2629.0536.3578.1488.095.0951.1484.224.1485.3586v4.8619c-.0001.1346-.0535.2635-.1485.3586-.0949.0952-.2236.1487-.3578.1488z"
              fill="#ff6584"/>
        <path d="m80.4873 50.9308h-18.6786c-.2685-.0003-.5259-.1073-.7157-.2976-.1899-.1902-.2967-.4481-.297-.7172v-23.6785c.0003-.2691.1071-.527.297-.7173.1898-.1902.4472-.2972.7157-.2975h18.6786c.2684.0003.5259.1073.7157.2975.1899.1903.2966.4482.297.7173v23.6785c-.0004.2691-.1071.527-.297.7173-.1898.1902-.4473.2972-.7157.2975zm-18.6786-25.4826c-.2088.0002-.409.0834-.5567.2314-.1476.148-.2307.3486-.2309.5579v23.6785c.0002.2093.0833.4099.2309.5579.1477.1479.3479.2312.5567.2314h18.6786c.2088-.0002.409-.0835.5567-.2314.1476-.148.2307-.3486.2309-.5579v-23.6785c-.0002-.2093-.0833-.4099-.2309-.5579-.1477-.148-.3479-.2312-.5567-.2314z"
              fill="#3f3d56"/>
        <path d="m74.3549 30.4645h-6.4137c-.1194 0-.2339-.0475-.3183-.1321-.0844-.0845-.1318-.1993-.1318-.3189s.0474-.2343.1318-.3189.1989-.1321.3183-.1321h6.4137c.1194 0 .2338.0475.3183.1321.0844.0846.1318.1993.1318.3189s-.0474.2344-.1318.3189c-.0845.0846-.1989.1321-.3183.1321z"
              fill="#0c97f0"/>
        <path d="m77.5055 34.7497h-12.7149c-.0592.0001-.1178-.0115-.1725-.0341s-.1044-.0558-.1463-.0977-.0751-.0917-.0977-.1464c-.0227-.0548-.0344-.1135-.0344-.1728s.0117-.118.0344-.1728c.0226-.0548.0558-.1045.0977-.1464s.0916-.0751.1463-.0977c.0547-.0227.1133-.0342.1725-.0341h12.7149c.0592-.0001.1178.0114.1725.0341.0547.0226.1044.0558.1463.0977.0418.0419.0751.0916.0977.1464.0227.0548.0344.1135.0344.1728s-.0117.118-.0344.1728c-.0226.0547-.0559.1045-.0977.1464-.0419.0419-.0916.0751-.1463.0977s-.1133.0342-.1725.0341z"
              fill="#ccc"/>
        <path d="m77.5055 37.1188h-12.7149c-.0592.0001-.1178-.0115-.1725-.0341s-.1044-.0558-.1463-.0977-.0751-.0916-.0977-.1464c-.0227-.0548-.0344-.1135-.0344-.1728s.0117-.118.0344-.1728c.0226-.0547.0558-.1045.0977-.1464s.0916-.0751.1463-.0977.1133-.0342.1725-.0341h12.7149c.0592-.0001.1178.0115.1725.0341s.1044.0558.1463.0977c.0418.0419.0751.0917.0977.1464.0227.0548.0344.1135.0344.1728s-.0117.118-.0344.1728c-.0226.0548-.0559.1045-.0977.1464-.0419.0419-.0916.0751-.1463.0977s-.1133.0342-.1725.0341z"
              fill="#ccc"/>
        <path d="m77.5055 39.486h-12.7149c-.0592.0001-.1178-.0115-.1725-.0341s-.1044-.0558-.1463-.0977-.0751-.0916-.0977-.1464c-.0227-.0548-.0344-.1135-.0344-.1728s.0117-.118.0344-.1728c.0226-.0547.0558-.1045.0977-.1464s.0916-.0751.1463-.0977.1133-.0342.1725-.0341h12.7149c.0592-.0001.1178.0115.1725.0341s.1044.0558.1463.0977c.0418.0419.0751.0917.0977.1464.0227.0548.0344.1135.0344.1728s-.0117.118-.0344.1728c-.0226.0548-.0559.1045-.0977.1464-.0419.0419-.0916.0751-.1463.0977s-.1133.0342-.1725.0341z"
              fill="#ccc"/>
        <path d="m77.5055 41.8532h-12.7149c-.0592.0001-.1178-.0115-.1725-.0341s-.1044-.0558-.1463-.0977-.0751-.0916-.0977-.1464c-.0227-.0548-.0344-.1135-.0344-.1728s.0117-.118.0344-.1728c.0226-.0548.0558-.1045.0977-.1464s.0916-.0751.1463-.0977.1133-.0342.1725-.0341h12.7149c.0592-.0001.1178.0115.1725.0341s.1044.0558.1463.0977c.0418.0419.0751.0916.0977.1464.0227.0548.0344.1135.0344.1728s-.0117.118-.0344.1728c-.0226.0548-.0559.1045-.0977.1464-.0419.0419-.0916.0751-.1463.0977s-.1133.0342-.1725.0341z"
              fill="#ccc"/>
        <path d="m77.5055 44.2223h-12.7149c-.0592.0001-.1178-.0114-.1725-.0341-.0547-.0226-.1044-.0558-.1463-.0977s-.0751-.0916-.0977-.1464c-.0227-.0548-.0344-.1135-.0344-.1728s.0117-.118.0344-.1727c.0226-.0548.0558-.1046.0977-.1465s.0916-.0751.1463-.0977.1133-.0342.1725-.0341h12.7149c.0592-.0001.1178.0115.1725.0341s.1044.0558.1463.0977c.0418.0419.0751.0917.0977.1465.0227.0547.0344.1134.0344.1727s-.0117.118-.0344.1728c-.0226.0548-.0559.1045-.0977.1464-.0419.0419-.0916.0751-.1463.0977-.0547.0227-.1133.0342-.1725.0341z"
              fill="#ccc"/>
        <path d="m77.5055 46.5895h-12.7149c-.0592.0001-.1178-.0114-.1725-.0341-.0547-.0226-.1044-.0558-.1463-.0977s-.0751-.0916-.0977-.1464c-.0227-.0548-.0344-.1135-.0344-.1728s.0117-.118.0344-.1728c.0226-.0547.0558-.1045.0977-.1464s.0916-.0751.1463-.0977.1133-.0342.1725-.0341h12.7149c.0592-.0001.1178.0115.1725.0341s.1044.0558.1463.0977c.0418.0419.0751.0917.0977.1464.0227.0548.0344.1135.0344.1728s-.0117.118-.0344.1728c-.0226.0548-.0559.1045-.0977.1464-.0419.0419-.0916.0751-.1463.0977-.0547.0227-.1133.0342-.1725.0341z"
              fill="#ccc"/>
        <path d="m20.1912 50.9308h-18.67851c-.26849-.0003-.525892-.1073-.715743-.2975-.18985-.1903-.296642-.4482-.296947-.7173v-23.6785c.000305-.2691.107097-.527.296947-.7173.189851-.1902.447253-.2972.715743-.2975h18.67851c.2685.0003.5259.1073.7158.2975.1898.1903.2966.4482.2969.7173v23.6785c-.0003.2691-.1071.527-.2969.7172-.1899.1903-.4473.2973-.7158.2976zm-18.67851-25.4826c-.20882.0002-.40903.0834-.556691.2314-.147662.148-.230723.3486-.230958.5579v23.6785c.000235.2093.083296.4099.230958.5579.147661.1479.347871.2312.556691.2314h18.67851c.2089-.0002.4091-.0835.5567-.2314.1477-.148.2307-.3486.231-.5579v-23.6785c-.0003-.2093-.0833-.4099-.231-.5579-.1476-.148-.3478-.2312-.5567-.2314z"
              fill="#3f3d56"/>
        <path d="m17.2289 30.8122h-5.6261c-.1194 0-.2339-.0475-.3183-.1321s-.1318-.1993-.1318-.3189.0474-.2344.1318-.3189c.0844-.0846.1989-.1321.3183-.1321h5.6261c.1193 0 .2338.0475.3182.1321.0844.0845.1319.1993.1319.3189s-.0475.2343-.1319.3189-.1989.1321-.3182.1321z"
              fill="#3f3d56"/>
        <path d="m17.2289 33.1813h-5.6261c-.1194 0-.2339-.0475-.3183-.1321-.0844-.0845-.1318-.1993-.1318-.3189s.0474-.2343.1318-.3189.1989-.1321.3183-.1321h5.6261c.1193 0 .2338.0475.3182.1321s.1319.1993.1319.3189-.0475.2344-.1319.3189c-.0844.0846-.1989.1321-.3182.1321z"
              fill="#3f3d56"/>
        <path d="m8.71615 34.5291h-4.11153c-.13425-.0001-.26296-.0536-.35788-.1488-.09493-.0951-.14832-.2241-.14847-.3586v-4.862c.00015-.1345.05354-.2635.14847-.3586.09492-.0951.22363-.1486.35788-.1488h4.11153c.13424.0002.26295.0537.35788.1488.09492.0951.14831.2241.14846.3586v4.862c-.00015.1345-.05354.2635-.14846.3586-.09493.0952-.22364.1487-.35788.1488z"
              fill="#0c97f0"/>
        <path d="m17.19 38.029h-12.71497c-.05917.0001-.11778-.0115-.17248-.0341-.05469-.0226-.1044-.0558-.14628-.0977s-.0751-.0917-.09777-.1465c-.02266-.0547-.03433-.1134-.03433-.1727s.01167-.118.03433-.1728c.02267-.0548.05589-.1045.09777-.1464s.09159-.0751.14628-.0977c.0547-.0227.11331-.0342.17248-.0341h12.71497c.0591-.0001.1177.0114.1724.0341.0547.0226.1044.0558.1463.0977s.0751.0916.0978.1464c.0226.0548.0343.1135.0343.1728s-.0117.118-.0343.1727c-.0227.0548-.0559.1046-.0978.1465s-.0916.0751-.1463.0977-.1133.0342-.1724.0341z"
              fill="#ccc"/>
        <path d="m17.19 40.3962h-12.71497c-.05917.0001-.11778-.0115-.17248-.0341-.05469-.0227-.1044-.0559-.14628-.0978-.04188-.0418-.0751-.0916-.09777-.1464-.02266-.0547-.03433-.1135-.03433-.1727 0-.0593.01167-.1181.03433-.1728.02267-.0548.05589-.1045.09777-.1464s.09159-.0751.14628-.0978c.0547-.0226.11331-.0342.17248-.0341h12.71497c.0591-.0001.1177.0115.1724.0341.0547.0227.1044.0559.1463.0978s.0751.0916.0978.1464c.0226.0547.0343.1135.0343.1728 0 .0592-.0117.118-.0343.1727-.0227.0548-.0559.1046-.0978.1464-.0419.0419-.0916.0751-.1463.0978-.0547.0226-.1133.0342-.1724.0341z"
              fill="#ccc"/>
        <path d="m17.19 42.7653h-12.71497c-.05917.0001-.11778-.0115-.17248-.0341-.05469-.0226-.1044-.0558-.14628-.0977s-.0751-.0916-.09777-.1464c-.02266-.0548-.03433-.1135-.03433-.1728s.01167-.118.03433-.1728c.02267-.0547.05589-.1045.09777-.1464s.09159-.0751.14628-.0977c.0547-.0226.11331-.0342.17248-.0341h12.71497c.0591-.0001.1177.0115.1724.0341s.1044.0558.1463.0977.0751.0917.0978.1464c.0226.0548.0343.1135.0343.1728s-.0117.118-.0343.1728c-.0227.0548-.0559.1045-.0978.1464s-.0916.0751-.1463.0977-.1133.0342-.1724.0341z"
              fill="#ccc"/>
        <path d="m17.19 45.1325h-12.71497c-.05917.0001-.11778-.0115-.17248-.0341-.05469-.0226-.1044-.0558-.14628-.0977s-.0751-.0917-.09777-.1464c-.02266-.0548-.03433-.1135-.03433-.1728s.01167-.118.03433-.1728c.02267-.0548.05589-.1045.09777-.1464s.09159-.0751.14628-.0977c.0547-.0226.11331-.0342.17248-.0341h12.71497c.0591-.0001.1177.0115.1724.0341s.1044.0558.1463.0977.0751.0916.0978.1464c.0226.0548.0343.1135.0343.1728s-.0117.118-.0343.1728c-.0227.0547-.0559.1045-.0978.1464s-.0916.0751-.1463.0977-.1133.0342-.1724.0341z"
              fill="#ccc"/>
        <path d="m17.19 47.4997h-12.71497c-.05917.0001-.11778-.0115-.17248-.0341-.05469-.0226-.1044-.0558-.14628-.0977s-.0751-.0917-.09777-.1465c-.02266-.0547-.03433-.1134-.03433-.1727s.01167-.118.03433-.1728c.02267-.0548.05589-.1045.09777-.1464s.09159-.0751.14628-.0977c.0547-.0227.11331-.0342.17248-.0341h12.71497c.0591-.0001.1177.0114.1724.0341.0547.0226.1044.0558.1463.0977s.0751.0916.0978.1464c.0226.0548.0343.1135.0343.1728s-.0117.118-.0343.1727c-.0227.0548-.0559.1046-.0978.1465s-.0916.0751-.1463.0977-.1133.0342-.1724.0341z"
              fill="#ccc"/>
        <path d="m27.2526 64.6545v-4.862c.0001-.1345.0535-.2634.1484-.3586.095-.0951.2237-.1486.3579-.1487h4.1115c.1343.0001.263.0536.3579.1487.0949.0952.1483.2241.1485.3586v4.862c-.0002.1345-.0536.2635-.1485.3586s-.2236.1487-.3579.1488h-4.1115c-.1342-.0001-.2629-.0537-.3579-.1488-.0949-.0951-.1483-.2241-.1484-.3586z"
              fill="#e6e6e6"/>
        <path d="m28.7335 63.0354v-4.862c.0002-.1345.0536-.2635.1485-.3586s.2236-.1486.3579-.1488h4.1115c.1342.0002.263.0537.3579.1488s.1483.2241.1484.3586v4.862c-.0001.1345-.0535.2635-.1484.3586s-.2237.1486-.3579.1488h-4.1115c-.1343-.0002-.263-.0537-.3579-.1488s-.1483-.2241-.1485-.3586z"
              fill="#0c97f0"/>
        <path d="m47.1645 61.4797c-.1547-.0895-.2879-.212-.3903-.3588s-.1714-.3142-.2021-.4906c-.0308-.1764-.0227-.3574.0239-.5302.0466-.1729.1304-.3334.2456-.4703l-1.2745-9.3349 2.6548.1306.4168 9.1052c.2167.2091.3493.4906.3726.7912.0234.3006-.064.5992-.2458.8395-.1817.2402-.445.4054-.7401.464-.2951.0587-.6014.0069-.8609-.1456z"
              fill="#ffb8b8"/>
        <path d="m48.5862 50.5499c-.0544.0642-.1241.1136-.2027.1436l-2.3857.9124c-.1199.0459-.2527.0439-.3711-.0054s-.2135-.1422-.2657-.2596l-2.1133-4.7594c-.2029-.4415-.2375-.9421-.0971-1.4074.1038-.3321.295-.6299.5536-.8622.2585-.2323.5748-.3904.9155-.4576.262-.0541.5327-.0502.7931.0112.312.0697.6018.2163.843.4264.2413.2102.4265.4774.5388.7773l1.879 4.9772c.0316.0841.0402.1752.0248.2637s-.0541.1713-.1122.2398z"
              fill="#ccc"/>
        <path d="m36.1538 84.2637h-1.6507l-.5984-6.4102 2.2494.0302z" fill="#ffb8b8"/>
        <path d="m33.3242 83.791h3.1834v2.0086h-5.1878c0-.2638.0519-.525.1526-.7687s.2484-.4651.4345-.6516.4071-.3344.6503-.4354c.2431-.1009.5038-.1529.767-.1529z"
              fill="#2f2e41"/>
        <path d="m43.8284 84.2649h-1.6507l-.7852-6.3801 2.4362.0001z" fill="#ffb8b8"/>
        <path d="m40.9987 83.791h3.1834v2.0086h-5.1878c0-.2638.0518-.525.1525-.7687.1008-.2437.2484-.4651.4345-.6516.1862-.1865.4071-.3344.6503-.4354.2432-.1009.5038-.1529.7671-.1529z"
              fill="#2f2e41"/>
        <path d="m44.036 81.9938-2.5925-.1923c-.1475-.0112-.2858-.0758-.389-.1819s-.1641-.2463-.1715-.3943l-.578-11.9716c-.0056-.1149-.0528-.2238-.1328-.3063-.08-.0824-.1873-.1328-.3017-.1417-.1145-.0088-.2282.0245-.3199.0938-.0916.0692-.1549.1696-.178.2823l-2.4116 11.793c-.0298.1451-.1115.2743-.2297.3633-.1182.0889-.2647.1316-.4121.12l-2.3435-.1879c-.0803-.0064-.1586-.0288-.2301-.0659-.0716-.0371-.1351-.0882-.1867-.1501-.0517-.062-.0904-.1337-.1141-.2109-.0237-.0771-.0317-.1583-.0237-.2386l2.1741-21.7865c.0085-.0852.0349-.1676.0774-.2418s.1002-.1386.1693-.1889.148-.0854.2316-.103c.0835-.0176.1699-.0173.2533.0009l8.2678 1.801c.1369.0301.2592.1068.3462.217.0869.1102.1332.2471.1308.3876l-.385 20.7087c-.0031.1588-.068.3101-.181.4214-.113.1114-.265.174-.4234.1744-.0154 0-.0308-.0006-.0462-.0017z"
              fill="#2f2e41"/>
        <path d="m41.7679 40.6022c1.8263 0 3.3069-1.4836 3.3069-3.3138s-1.4806-3.3138-3.3069-3.3138c-1.8264 0-3.307 1.4836-3.307 3.3138s1.4806 3.3138 3.307 3.3138z"
              fill="#ffb8b8"/>
        <path d="m36.637 60.4993c-.318-.2857-.5704-.6371-.7399-1.0299-.1695-.3929-.2521-.8178-.2421-1.2457 0-4.7628 4.114-15.4036 4.243-15.7357.0126-.0799.1212-.1145.6906-.5.5699-.3858 1.3916-.4451 2.4424-.1761.1068.0274.204.0836.2812.1625.0771.079.1312.1776.1563.2852l.1955.283c.017.0718.0506.1385.098.1949.0475.0564.1075.1008.1752.1297.8473.3578 3.5408 2.0074 2.623 8.2156-.8526 5.7669-1.1986 9.1585-1.3077 10.3491-.0129.1413-.0748.2735-.175.3737-.1001.1003-.2322.1621-.3732.1748-.4155.0373-1.1286.0868-1.9778.0868-1.9686 0-4.6689-.2661-6.0895-1.5679z"
              fill="#ccc"/>
        <path d="m32.6856 58.7341c-.0787-.1608-.1212-.3369-.1246-.5159s.0325-.3566.105-.5203c.0725-.1636.1799-.3093.3147-.4269.1348-.1175.2937-.204.4655-.2533l4.1325-8.463 2.1318 1.5908-4.717 7.7934c.0636.2946.0172.6024-.1305.865-.1478.2626-.3865.4618-.671.5598-.2845.0981-.5949.0881-.8726-.0279-.2777-.1161-.5032-.3302-.6338-.6017z"
              fill="#ffb8b8"/>
        <path d="m39.9439 50.452c-.0809.023-.1662.0251-.2481.0061l-2.4885-.5745c-.1249-.0288-.2341-.1046-.3051-.2117-.0709-.107-.0982-.2373-.0762-.3639l.8917-5.1321c.077-.4798.3267-.9149.702-1.2228.2708-.2178.5952-.3584.9391-.4069s.6944-.0031 1.0147.1313c.2476.1014.4702.2557.6523.4521.2203.2321.3794.5156.4629.8249.0835.3092.0887.6344.0151.9462l-1.2073 5.1821c-.0205.0875-.0641.1679-.1261.2328s-.1402.112-.2265.1364z"
              fill="#ccc"/>
        <path d="m40.9936 40.2821c-.1609-.1645-.2797-.3656-.3463-.5862-.0666-.2205-.0789-.4539-.0359-.6802.1153-.6044.183-.9998.1958-1.1437.0439-.4922-.4525-.8906-.9438-.954-.019-.0025-.035-.0041-.0483-.0052.0125.0123.026.0249.0378.036.0933.0879.2094.1972.1818.3101-.0166.0679-.0786.1161-.1894.1471-.7683.2155-1.36.0177-1.8621-.6228-.1412-.182-.2382-.3944-.2835-.6204-.1799-.8844.2994-1.6383.7332-2.1149.3577-.393.9376-.8701 1.6688-.911.5687-.0318 1.2449.2961 1.4473.887.0954-.1418.2225-.2593.3712-.3433.1486-.084.3148-.1321.4852-.1406.3883-.0084.7703.0981 1.0985.3062 1.6034.9204 2.2926 3.113 1.5048 4.788-.4955 1.0536-1.5691 1.838-2.8018 2.047-.0772.0132-.1553.0198-.2336.0198-.183-.0003-.3641-.0375-.5324-.1095s-.3204-.1772-.4473-.3094z"
              fill="#2f2e41"/>
        <path d="m25.4864 85.8753h26.255c.0357 0 .07-.0142.0952-.0395.0253-.0253.0395-.0596.0395-.0954s-.0142-.0701-.0395-.0954c-.0252-.0253-.0595-.0395-.0952-.0395h-26.255c-.0357 0-.0699.0142-.0952.0395-.0252.0253-.0394.0596-.0394.0954s.0142.0701.0394.0954c.0253.0253.0595.0395.0952.0395z"
              fill="#3f3d56"/>
    </g>
</svg>