<svg fill="none" height="55" viewBox="0 0 83 55" width="83" xmlns="http://www.w3.org/2000/svg">
    <path d="m48.8522 4.10352h-8.9807v.17258h8.9807z" fill="#ccc"/>
    <path d="m32.8576 4.10352h-28.48187v.17258h28.48187z" fill="#ccc"/>
    <path d="m4.37576 7.72732c1.93672 0 3.50674-1.58379 3.50674-3.53749s-1.57002-3.537486-3.50674-3.537486-3.506741 1.583786-3.506741 3.537486 1.570021 3.53749 3.506741 3.53749z"
          fill="#0c97f0"/>
    <path d="m20.3701 7.72732c1.9368 0 3.5068-1.58379 3.5068-3.53749s-1.57-3.537486-3.5068-3.537486c-1.9367 0-3.5067 1.583786-3.5067 3.537486s1.57 3.53749 3.5067 3.53749z"
          fill="#3f3d56"/>
    <path d="m36.3641 7.81407c-.7105 0-1.4051-.21254-1.9958-.61073-.5908-.39819-1.0512-.96415-1.3231-1.62632s-.3431-1.3908-.2044-2.09376c.1386-.70295.4807-1.34866.9831-1.85546s1.1425-.851935 1.8393-.991761c.6969-.139826 1.4192-.068063 2.0756.206216.6564.274275 1.2174.738755 1.6122 1.334685.3947.59594.6054 1.29657.6054 2.0133 0 .9611-.3785 1.88283-1.0522 2.56243s-1.5874 1.0614-2.5401 1.0614zm0-7.075076c-.6767 0-1.3382.202412-1.9008.581636-.5626.37923-1.0011.91824-1.2601 1.54887-.2589.63064-.3267 1.32457-.1946 1.99404.132.66948.4578 1.28443.9363 1.76709.4784.48267 1.0881.81137 1.7517.94454.6637.13316 1.3516.06482 1.9767-.1964.6252-.26122 1.1595-.70357 1.5354-1.27112.376-.56756.5766-1.23482.5766-1.91741 0-.91533-.3604-1.79317-1.002-2.4404-.6417-.64723-1.5119-1.010846-2.4192-1.010846z"
          fill="#ccc"/>
    <path d="m52.3582 7.81407c-.7105 0-1.405-.21254-1.9958-.61073s-1.0512-.96415-1.3231-1.62632-.343-1.3908-.2044-2.09376c.1386-.70295.4807-1.34866.9831-1.85546s1.1425-.851935 1.8394-.991761c.6968-.139826 1.4191-.068063 2.0755.206216.6564.274275 1.2175.738755 1.6122 1.334685.3947.59594.6054 1.29657.6054 2.0133 0 .9611-.3784 1.88283-1.0521 2.56243s-1.5875 1.0614-2.5402 1.0614zm0-7.075076c-.6767 0-1.3381.202412-1.9007.581636-.5627.37923-1.0012.91824-1.2601 1.54887-.259.63064-.3267 1.32457-.1947 1.99404.132.66948.4578 1.28443.9363 1.76709.4785.48267 1.0881.81137 1.7518.94454.6636.13316 1.3515.06482 1.9766-.1964.6252-.26122 1.1595-.70357 1.5355-1.27112.3759-.56756.5765-1.23482.5765-1.91741 0-.45323-.0885-.90201-.2604-1.32074-.1719-.41872-.4239-.79918-.7416-1.11966s-.6949-.5747-1.11-.74814c-.415-.173438-.8599-.262706-1.3092-.262706z"
          fill="#ccc"/>
    <path d="m4.10573 5.24373c-.0616.00005-.12155-.0201-.1708-.05743l-.00304-.0023-.64363-.4966c-.0602-.04656-.0996-.11534-.10953-.1912s.01042-.15259.05658-.21332c.04615-.06073.11433-.10047.18953-.11049.07521-.01001.15127.01052.21147.05708l.41685.32248.98505-1.29645c.04613-.0607.11428-.10042.18944-.11044.07517-.01001.1512.0105.21137.05703l-.00607.00852.00626-.00852c.06012.0466.09945.11536.10936.19118s-.01041.15252-.0565.21324l-1.1587 1.52418c-.02684.03514-.06135.06357-.10084.08307-.0395.01951-.08292.02957-.1269.0294z"
          fill="#fff"/>
    <path d="m63.1717 19.3254c.0655.0302.1286.0657.1885.1061l5.9927-2.5801.2138-1.5924 2.3945-.0149-.1415 3.6526-7.9097 2.1104c-.0166.0554-.0366.1097-.0598.1627-.1144.2461-.2983.4527-.5287.5938-.2304.141-.4969.2103-.7662.199-.2692-.0113-.5292-.1025-.7472-.2623s-.3843-.3811-.4781-.6359c-.0938-.2549-.1108-.532-.049-.7966s.1998-.5049.3966-.6906c.1967-.1858.4435-.3088.7093-.3535s.5388-.0092.7847.102z"
          fill="#feb8b8"/>
    <path d="m72.8319 52.4204h-1.6381l-.7792-6.3735h2.4175z" fill="#feb8b8"/>
    <path d="m70.024 51.9479h3.1591v2.0059h-5.1482c0-.5322.2096-1.0425.5826-1.4188s.879-.5877 1.4065-.5877z"
          fill="#2f2e41"/>
    <path d="m79.2025 51.9538-1.63.1617-1.3949-6.2657 2.4059-.2385z" fill="#feb8b8"/>
    <path d="m76.361 51.7635 3.1433-.3123.1949 1.9964-5.1222.509c-.0517-.5295.1072-1.0579.4417-1.4692.3346-.4113.8174-.6717 1.3422-.7239z"
          fill="#2f2e41"/>
    <path d="m73.2879 8.49764c1.8124 0 3.2816-1.48209 3.2816-3.31034 0-1.82826-1.4692-3.31035-3.2816-3.31035-1.8123 0-3.2816 1.48209-3.2816 3.31035 0 1.82825 1.4693 3.31034 3.2816 3.31034z"
          fill="#feb8b8"/>
    <path d="m70.8279 51.1324c-.1408.0003-.2772-.0496-.3851-.1408-.1079-.0913-.1804-.218-.2048-.3579-.8473-4.7468-3.6192-20.2712-3.6855-20.7015-.0015-.0099-.0023-.0199-.0022-.0299v-1.1577c-.0001-.0421.0129-.0832.0373-.1175l.3661-.5169c.0174-.0249.0402-.0454.0667-.06s.056-.0229.0861-.0242c2.0876-.0987 8.9231-.3881 9.2533.0281.3316.4178.2138 1.6858.187 1.9355l.0014.026 3.0712 19.8127c.024.158-.0146.3193-.1076.4488-.0929.1295-.2327.2169-.389.2433l-1.9181.3187c-.1429.0232-.2892-.0062-.4124-.0827-.1233-.0765-.2152-.1951-.259-.3342-.5933-1.9123-2.5826-8.3454-3.272-10.8347-.0037-.0164-.0135-.0308-.0272-.0403-.0138-.0095-.0306-.0135-.0471-.0111-.0165.0025-.0315.011-.042.0241-.0106.0131-.0158.0297-.0148.0465.0345 2.3729.1177 8.4269.147 10.5179l.0031.2253c.0012.1524-.0543.2998-.1555.413-.1013.1132-.2409.184-.3914.1984l-1.8496.169c-.0186.0016-.0372.0023-.0559.0021z"
          fill="#2f2e41"/>
    <path d="m71.2055 9.79995c-.5727.34345-.9154.97445-1.112 1.61765-.3641 1.189-.5832 2.4182-.6526 3.6606l-.2079 3.7197-2.5727 9.862c2.2299 1.9032 3.5159 1.4706 6.5176-.0862 3.0016-1.5567 3.3445.519 3.3445.519l.6002-8.3912.8575-9.1695c-.1925-.2338-.4104-.4451-.6496-.6299-.7926-.6219-1.7148-1.05418-2.6971-1.26431-.9822-.21013-1.999-.19262-2.9736.05122z"
          fill="#0c97f0"/>
    <path d="m70.3695 21.3156c.0692.0261.1362.0577.2004.0944l5.9256-2.9922.0983-1.6208 2.4443-.17.1309 3.6948-7.9185 2.6419c-.0646.2799-.2122.5334-.4231.7266-.2109.1933-.4751.3172-.7575.3552-.2824.0381-.5696-.0115-.8233-.1421-.2538-.1307-.4621-.3361-.5973-.5891s-.1908-.5415-.1595-.8272c.0314-.2857.1482-.5549.335-.772.1868-.217.4346-.3715.7106-.443.2759-.0714.5669-.0564.8342.043z"
          fill="#feb8b8"/>
    <path d="m77.9372 11.573c1.4578.519 1.7148 6.1425 1.7148 6.1425-1.7151-.9515-3.7733.6056-3.7733.6056s-.4287-1.4708-.9433-3.3738c-.1554-.5354-.174-1.1016-.054-1.6462.1199-.5445.3745-1.0496.7399-1.4681 0 0 .8579-.7793 2.3159-.26z"
          fill="#0c97f0"/>
    <path d="m76.2298 6.06186c-.4089-.32996-.9667.26955-.9667.26955l-.327-2.9689s-2.0443.24706-3.3529-.08251-1.5128 1.19652-1.5128 1.19652c-.0675-.61632-.0812-1.23742-.0409-1.85614.0818-.74242 1.1447-1.48484 3.0256-1.979814 1.8808-.494976 2.862 1.649854 2.862 1.649854 1.3091.65943.722 4.10177.3127 3.77144z"
          fill="#2f2e41"/>
    <path d="m82.131 53.9551h-69.9702v.2096h69.9702z" fill="#e6e6e6"/>
    <path d="m18.9109 50.253c.2994.1062.6209.1328.9335.0773.3125-.0556.6056-.1914.851-.3944.6251-.5291.821-1.401.9804-2.2083l.4716-2.3878-.9873.6859c-.7101.4931-1.4361 1.0022-1.9278 1.7166-.4917.7143-.7062 1.6895-.3112 2.4625"
          fill="#e6e6e6"/>
    <path d="m19.0634 53.3105c-.1243-.9134-.2521-1.8385-.1649-2.7616.0774-.8199.3253-1.6206.8301-2.2771.268-.3479.594-.6459.9635-.8807.0963-.0613.185.0927.0891.1538-.6394.4075-1.134 1.0093-1.4125 1.7186-.3074.7889-.3568 1.6487-.3036 2.4866.0321.5067.0999 1.0101.1683 1.5129.0054.0227.002.0467-.0094.067-.0115.0203-.0301.0355-.0523.0425-.0225.0061-.0466.003-.0669-.0086-.0203-.0117-.0353-.0309-.0416-.0536z"
          fill="#f2f2f2"/>
    <path d="m19.958 51.8427c.1284.1969.3049.3571.5125.4652s.4393.1604.6728.152c.6-.0288 1.1002-.4512 1.5505-.852l1.3318-1.1861-.8814-.0425c-.6338-.0307-1.2841-.0592-1.8883.138s-1.1606.6718-1.2709 1.3018"
          fill="#e6e6e6"/>
    <path d="m18.7123 53.836c.5978-1.0678 1.2922-2.2547 2.5322-2.634.3447-.1051.7062-.1428 1.065-.111.1131.0096.0848.1857-.0285.1759-.6014-.0504-1.2016.1098-1.6996.4536-.4793.3291-.8524.7865-1.1682 1.2718-.1935.2967-.3668.6069-.54.9163-.0553.0988-.2166.0275-.1609-.0726z"
          fill="#f2f2f2"/>
    <g fill="#e6e6e6">
        <path d="m60.8791 23.0213h-29.9556c-.1471-.0002-.2881-.0592-.3921-.1641-.1039-.1049-.1624-.2471-.1626-.3955v-7.4959c.0002-.1483.0587-.2906.1626-.3955.104-.1049.245-.1639.3921-.1641h29.9556c.1471.0002.2881.0592.3921.1641s.1625.2472.1626.3955v7.4959c-.0001.1484-.0586.2906-.1626.3955s-.245.1639-.3921.1641zm-29.9556-8.3912c-.0883.0001-.1729.0356-.2353.0985-.0624.063-.0975.1483-.0976.2373v7.4959c.0001.089.0352.1744.0976.2374.0624.0629.147.0983.2353.0984h29.9556c.0883-.0001.1729-.0355.2353-.0984.0624-.063.0975-.1484.0976-.2374v-7.496c-.0001-.089-.0352-.1744-.0976-.2373-.0624-.063-.147-.0984-.2353-.0985z"/>
        <path d="m40.7967 16.9062c-.0999 0-.1957.0401-.2663.1113-.0707.0713-.1104.1679-.1104.2687 0 .1007.0397.1974.1104.2686.0706.0713.1664.1113.2663.1113h17.7546c.0998 0 .1956-.04.2663-.1113.0706-.0712.1103-.1679.1103-.2686 0-.1008-.0397-.1974-.1103-.2687-.0707-.0712-.1665-.1113-.2663-.1113z"/>
        <path d="m40.7967 19.1875c-.0999 0-.1957.04-.2663.1113-.0707.0712-.1104.1679-.1104.2686 0 .1008.0397.1974.1104.2687.0706.0712.1664.1112.2663.1112h7.6398c.0999 0 .1957-.04.2663-.1112.0706-.0713.1103-.1679.1103-.2687 0-.1007-.0397-.1974-.1103-.2686-.0706-.0713-.1664-.1113-.2663-.1113z"/>
        <path d="m35.5993 20.6879c1.248 0 2.2597-1.0205 2.2597-2.2795 0-1.2589-1.0117-2.2795-2.2597-2.2795s-2.2597 1.0206-2.2597 2.2795c0 1.259 1.0117 2.2795 2.2597 2.2795z"/>
    </g>
    <path d="m35.2441 19.6757c-.0759.0001-.1498-.0247-.2105-.0707l-.0038-.0028-.7931-.6121c-.0743-.0574-.1229-.1421-.1351-.2357-.0123-.0935.0127-.1881.0696-.263s.1409-.1239.2336-.1363c.0928-.0124.1866.0129.2608.0703l.5137.3973 1.2139-1.5976c.0569-.0748.1409-.1237.2335-.1361.0926-.0123.1863.0129.2604.0702l-.0075.0106.0078-.0106c.0741.0575.1226.1422.1348.2356s-.0128.1879-.0696.2628l-1.4278 1.8794c-.033.0432-.0755.0782-.1241.1023-.0486.024-.1021.0364-.1562.0363z"
          fill="#0c97f0"/>
</svg>