<svg fill="none" height="88" viewBox="0 0 76 88" width="76" xmlns="http://www.w3.org/2000/svg">
    <clipPath id="a">
        <path d="m.75.574219h75v87h-75z"/>
    </clipPath>
    <g clip-path="url(#a)">
        <path d="m75.75 77.8008h-20.1304v-.2603c5.2698 0 10.3238-2.091 14.05-5.8129 3.7263-3.7218 5.8197-8.7698 5.8197-14.0333v-14.0322h.2607z"
              fill="#f2f2f2"/>
        <path d="m20.8234 27.0842c-.5352.2036-1.0816.3762-1.6367.517-.7332.1784-1.1471.2612-1.8548-.0132-.0248-.0096-.0485-.0191-.0709-.0285-1.3413-.5696-2.4879-1.5164-3.3003-2.7252-.8123-1.2087-1.2553-2.6273-1.275-4.0829-.0035-.05-.0035-.1025-.0035-.1537-.0007-.2467.0111-.4933.0353-.7388.0311-.3344.0846-.6664.1604-.9936l-.0071-.0013c-.5729-.5852-.7934-1.3867-.7203-2.1921.0501-.5461.2236-1.0736.5074-1.5429.2839-.4694.6707-.8682 1.1312-1.1666.7219-.4533 1.5358-.7402 2.3826-.8399.2274-.0262.456-.0395.6849-.0397h2.1503c.4441-.1039.8953-.1749 1.3498-.2126h.0036c4.3277-.3585 7.7405 2.5071 7.4222 5.9938-.0023.0038-.0059.0077-.0082.0115-.092.1498-.1733.292-.2452.4277-.0696.1267-.1285.2484-.1792.3636-.3949.8912 1.4819 14.7181.8087 14.928-.3831.1191-1.9275-10.1698-1.6504-8.2133.3489 2.4546-3.6911-.0334-5.6848.7027z"
              fill="#2f2e41"/>
        <path d="m27.3428 52.0795 5.999 12.7652-23.0769-2.3345 4.8172-12.2543z" fill="#ffb6b6"/>
        <path d="m39.3854 77.6733c-4.013 1.3341-8.2419 1.8999-12.4649 1.6675l-1.8364-2.9745s-.0769 1.1078-.1916 2.8014c-2.0103-.2327-3.9943-.6528-5.9262-1.2549-3.6636-1.1443-7.0978-2.9173-10.57899-4.5523-.70509-4.1982-.96967-10.6719 2.92859-14.4406l20.9821 3.8403s3.3664 2.515 2.4658 3.4158c-.9006.8995-1.04.7602-.4483 1.3512.5917.5911 1.8702 1.3812 1.8833 1.898.0052.2018 1.4401 3.8611 3.1866 8.2481z"
              fill="#2f2e41"/>
        <path d="m23.6787 27.4121-5.0692.3533-3.2764 3.1623-1.1475.2045c-1.0314.1837-1.9595.7391-2.6083 1.5607-.6487.8217-.9731 1.8527-.9114 2.8973.236 3.9942.7645 9.9622 1.869 11.8984 1.7127 3.0024 3.1274 2.0604 1.7127 3.0024-1.4146.942-2.3644.2018-1.7127 1.6905s-.8808 3.3982-.8808 3.3982l-.6101.6094.6471.2648 20.618 2.6797s-1.7828-8.0062-.6679-9.9729 3.8182-7.9118 1.4056-10.238l-2.359-8.2915-4.0577-1.1953z"
              fill="#0c97f0"/>
        <path d="m54.3651 60.2717c-.3393-.0108-.6721-.095-.9756-.2469-.3034-.1518-.5702-.3677-.7819-.6327s-.3633-.5728-.4442-.902c-.0809-.3293-.0892-.6721-.0244-1.0049l-9.6715-6.5422 1.154-3.1168 11.4301 7.8541c.5527.1506 1.0308.4985 1.3439.9777.313.4793.4392 1.0566.3546 1.6225-.0846.566-.3742 1.0813-.8137 1.4483-.4396.3669-.9987.5601-1.5713.5429z"
              fill="#ffb6b6"/>
        <path d="m27.0479 30.2404-1.4053.5558 7.4969 14.6246 15.5197 10.5663 2.2372-3.7766-11.8139-10.1922-4.7297-9.0601c-.6656-1.275-1.7806-2.2585-3.1297-2.7604-1.3491-.502-2.8366-.4868-4.1752.0426z"
              fill="#0c97f0"/>
        <path d="m20.8804 26.1254c2.8112 0 5.0902-2.2763 5.0902-5.0842s-2.279-5.0842-5.0902-5.0842c-2.8113 0-5.0902 2.2763-5.0902 5.0842s2.2789 5.0842 5.0902 5.0842z"
              fill="#ffb6b6"/>
        <g fill="#2f2e41">
            <path d="m25.3068 18.8913c-.0849.0447-.1686.0859-.2535.1272-.0884.0423-.1768.0847-.2664.1248-1.7035.7712-3.0911.8572-3.9328-.252-.023-.5836-.1545-1.1577-.3878-1.6932.0412.5984-.1167 1.1937-.4492 1.6932h-1.6952c-1.746 1.1575-2.6419 2.2207-1.43 6.0205.079.2496.6201 9.1185.7745 9.8003-2.6431-1.0127-4.923-11.7644-4.9808-14.5974-.0035-.0459-.0035-.0942-.0035-.1413-.0007-.2269.0111-.4538.0354-.6794.0311-.3081.0846-.6135.1603-.9137l-.0071-.0012c-.2689-.2568-.4741-.5728-.5991-.9228-.1251-.3499-.1666-.7243-.1212-1.0931.4434-.5798.9921-1.0712 1.6174-1.4483.5687-.275 1.1614-.4973 1.7707-.6641.0153-.0035.0283-.0071.0436-.0106.1863-.0506.3773-.0966.5683-.1366.3935-.0824.7915-.1426 1.1918-.1801.0295-.0012.0578-.0036.0837-.0036.1602.0001.3173.0432.4551.1248.0011 0 .0011.0012.0035.0012.1323.079.2421.1907.3187.3243.0766.1337.1175.2847.1187.4387h1.8885c.0696 0 .1392.0024.2087.0059 2.6301.1048 4.7439 1.2281 4.8794 3.8104.0059.0895.0083.1766.0083.2661z"/>
            <path d="m14.1412 19.0974c1.852 0 3.3534-1.4996 3.3534-3.3495 0-1.8498-1.5014-3.3495-3.3534-3.3495-1.8521 0-3.3535 1.4997-3.3535 3.3495 0 1.8499 1.5014 3.3495 3.3535 3.3495z"/>
            <path d="m18.7451 14.1981c-.3809 1.8103-2.2606 2.893-4.0588 2.4501-.8635-.2127-1.6071-.7593-2.0671-1.5196-.46-.7602-.5989-1.6719-.3859-2.5344.4434-1.7961 2.6257-1.2783 4.0588-2.4501 2.0273-1.6578 2.9668 1.6126 2.453 4.054z"/>
        </g>
        <path d="m11.2942 64.5895c2.8581-11.6414 8.5212-21.6474 17.8999-29.487.363-.5964.948-1.0247 1.6267-1.1908s1.3956-.0566 1.9936.3046l22.2956 13.5023c.5971.3626 1.0259.9469 1.1922 1.6248s.0566 1.394-.305 1.9912c-3.5797 11.9454-8.9413 22.3108-17.8998 29.487-.363.5965-.948 1.0247-1.6267 1.1908-.6787.1662-1.3956.0566-1.9935-.3046l-22.2957-13.5023c-.5971-.3625-1.0259-.9469-1.1922-1.6247-.1663-.6779-.0567-1.394.3049-1.9913z"
              fill="#f2f2f2"/>
        <path d="m15.2571 68.5128c-.5971-.3625-1.0259-.9468-1.1922-1.6247-.1664-.6779-.0567-1.394.3049-1.9912 2.8581-11.6415 8.5211-21.6475 17.8998-29.4871.2403-.3904.5796-.7104.9835-.9278l-.4388-.2657c-.5979-.3612-1.3149-.4707-1.9935-.3046-.6787.1661-1.2637.5943-1.6267 1.1907-9.3787 7.8396-15.0418 17.8456-17.8998 29.4871-.3617.5972-.4713 1.3133-.305 1.9912s.5951 1.2622 1.1922 1.6247l22.2956 13.5024c.3968.2385.8497.368 1.3128.3753s.9198-.1078 1.324-.3336z"
              fill="#000" opacity=".2"/>
        <path d="m41.4042 62.0087-14.9659-9.0068c-.2378-.1435-.4088-.3754-.4755-.6448-.0667-.2693-.0236-.5541.1197-.7918.1434-.2377.3754-.4088.645-.4757.2696-.067.5547-.0244.7929.1185l14.9658 9.0068c.2372.1438.4077.3757.474.6448.0664.269.0232.5534-.1199.7908-.1432.2374-.3748.4084-.644.4755-.2692.0672-.5541.025-.7922-.1173z"
              fill="#fff"/>
        <path d="m32.698 50.0659-3.2925-1.9815c-.2386-.1426-.4107-.374-.4785-.6433-.0678-.2694-.0257-.5546.1171-.7929.1427-.2383.3744-.4102.6441-.4779.2696-.0677.5552-.0257.7938.1169l.0056.0034 3.2925 1.9815c.2373.1438.4078.3756.4742.6448.0664.2691.0232.5535-.12.7909s-.3748.4084-.644.4755c-.2693.0672-.5542.0249-.7923-.1174z"
              fill="#fff"/>
        <path d="m39.0256 65.9529-14.9658-9.0068c-.2381-.1432-.4095-.3749-.4765-.6442-.0671-.2694-.0244-.5543.1187-.7922s.375-.4093.6445-.4765c.2696-.0673.5549-.0249.7932.1178l.0021.0013 14.9659 9.0068c.2372.1438.4076.3757.474.6447.0663.2691.0232.5535-.12.7909s-.3748.4083-.6439.4755c-.2692.0671-.5541.025-.7922-.1173z"
              fill="#fff"/>
        <path d="m43.3047 45.027c2.4141 0 4.3712-1.9547 4.3712-4.366s-1.9571-4.3661-4.3712-4.3661c-2.4142 0-4.3712 1.9548-4.3712 4.3661s1.957 4.366 4.3712 4.366z"
              fill="#3f3d56"/>
        <path d="m35.7698 87.4448c5.1599 0 9.3429-4.178 9.3429-9.3318s-4.183-9.3318-9.3429-9.3318-9.3428 4.178-9.3428 9.3318 4.1829 9.3318 9.3428 9.3318z"
              fill="#fff"/>
        <path d="m35.7699 87.5743c-1.8736 0-3.7051-.5549-5.263-1.5946-1.5578-1.0397-2.772-2.5175-3.489-4.2464-.717-1.729-.9046-3.6314-.5391-5.4669.3655-1.8354 1.2677-3.5214 2.5926-4.8446 1.3248-1.3233 3.0127-2.2245 4.8504-2.5896 1.8376-.3651 3.7423-.1777 5.4733.5384 1.731.7162 3.2105 1.9289 4.2514 3.4849 1.041 1.556 1.5966 3.3854 1.5966 5.2568-.0028 2.5086-1.0018 4.9136-2.7778 6.6875-1.7759 1.7738-4.1838 2.7716-6.6954 2.7745zm0-18.6636c-1.822 0-3.6032.5397-5.1182 1.5508s-2.6958 2.4482-3.393 4.1296c-.6973 1.6813-.8797 3.5315-.5243 5.3164.3555 1.7849 1.2329 3.4245 2.5213 4.7114 1.2884 1.2868 2.9299 2.1632 4.717 2.5182 1.787.3551 3.6394.1728 5.3227-.5236 1.6834-.6965 3.1222-1.8759 4.1345-3.3891 1.0122-1.5132 1.5525-3.2922 1.5525-5.1121-.0027-2.4396-.9742-4.7784-2.7013-6.5035-1.7271-1.725-4.0687-2.6953-6.5112-2.6981z"
              fill="#3f3d56"/>
        <path d="m34.4953 82.9695c-.1613 0-.3205-.0375-.4648-.1096s-.2698-.1767-.3665-.3057l-2.5489-3.3945c-.082-.109-.1417-.2331-.1757-.3652s-.0415-.2696-.0223-.4047c.0193-.135.065-.2649.1345-.3823.0696-.1173.1616-.2199.2709-.3017.1092-.0818.2335-.1414.3658-.1752s.27-.0412.4051-.0219c.1352.0194.2652.0651.3827.1347.1174.0696.22.1616.3018.2708l1.6676 2.2206 4.2829-6.4167c.0757-.1134.173-.2108.2864-.2867.1134-.0758.2407-.1286.3745-.1554.1338-.0267.2716-.0269.4055-.0004.1339.0264.2613.079.3748.1546.1136.0756.2111.1728.287.2861.076.1133.1288.2404.1556.374.0268.1337.0269.2713.0004.4051-.0264.1337-.079.2609-.1547.3743l-5.0978 7.6376c-.0922.1381-.2162.2521-.3617.3325-.1454.0804-.308.1247-.4742.1294-.0096.0002-.0193.0003-.0289.0003z"
              fill="#0c97f0"/>
        <path d="m65.9426 30.824c.3713-.0317.6543-.2665.6323-.5245-.0221-.2579-.341-.4414-.7123-.4096-.3712.0317-.6543.2665-.6322.5245.0221.2579.341.4413.7122.4096z"
              fill="#fff"/>
        <path d="m48.6965 11.5349c.0637-.251-.1775-.5286-.5387-.62s-.7056.0379-.7693.2889.1775.5285.5387.6199c.3612.0915.7056-.0379.7693-.2888z"
              fill="#fff"/>
        <path d="m1.01066 34.7129h-.26066v-34.138681h20.1304v.260355c-5.2698 0-10.3237 2.090936-14.05004 5.812816-3.72629 3.72191-5.8197 8.76981-5.8197 14.03341z"
              fill="#f2f2f2"/>
        <path d="m12.6845 64.7125c-.3331-.1364-.6326-.3434-.8778-.6067s-.4301-.5767-.5421-.9185c-.112-.3417-.1483-.7037-.1065-1.0608.0418-.3572.1609-.701.3488-1.0077l-7.18195-10.0836 2.30403-2.67 8.44242 12.0388c.4934.3545.8394.8773.9725 1.4695.1332.5922.0442 1.2126-.25 1.7437s-.7732.9359-1.3463 1.1377c-.5731.2019-1.2004.1868-1.7631-.0424z"
              fill="#ffb6b6"/>
        <path d="m12.8495 32.7582c-.3633-.2135-.7909-.2907-1.2061-.2177s-.7908.2914-1.0592.6161l-9.703829 13.5552 8.992879 12.7574 3.51895-3.7752-5.47392-8.5917 7.27492-6.9183c.5978-1.3081.6891-2.7911.2563-4.1626-.4329-1.3714-1.3591-2.534-2.6-3.2632z"
              fill="#0c97f0"/>
    </g>
</svg>