<svg fill="none" height="99" viewBox="0 0 50 99" width="50" xmlns="http://www.w3.org/2000/svg">
    <path d="m49.5879 23.9607h-.536v-14.70302c0-2.2569-.8965-4.42135-2.4924-6.01722-1.5959-1.59586-3.7603-2.492413-6.0172-2.492413h-31.15094c-1.1175-.000018-2.22406.220072-3.2565.647703-1.03245.42763-1.97055 1.05443-2.76075 1.84461-.79021.79018-1.41704 1.72827-1.84471 2.7607-.42766 1.03243-.64779 2.13898-.647808 3.25648v80.66166c0 2.2569.896548 4.4214 2.492418 6.0173 1.59586 1.5958 3.76032 2.4924 6.01722 2.4924h31.15067c2.2569 0 4.4213-.8966 6.0172-2.4924 1.5958-1.5959 2.4924-3.7604 2.4924-6.0173v-55.4927h.536z"
          fill="#3f3d56"/>
    <path d="m47.3064 8.68735v81.80125c-.0003 1.7111-.68 3.3521-1.8899 4.5622-1.2098 1.2101-2.8507 1.8903-4.5619 1.8909h-31.78996c-1.71182.0002-3.35363-.6795-4.56434-1.8897-1.21071-1.2101-1.89115-2.8516-1.89166-4.5634v-81.80125c.00051-1.71176.68092-3.35321 1.89157-4.56335s2.8524-1.88984 4.56415-1.88962h3.85634c-.1894.46564-.2614.97067-.2099 1.4707.0515.50002.2251.97973.5055 1.39696.2803.41722.6589.7592 1.1024.99586.4434.23666.9383.36076 1.4409.3614h18.1241c.5026-.00064.9975-.12474 1.4409-.3614.4435-.23666.8221-.57864 1.1024-.99586.2804-.41723.454-.89694.5055-1.39696.0516-.50003-.0205-1.00506-.2099-1.4707h4.1308c1.7111.00029 3.3521.68008 4.5622 1.88991 1.2101 1.20984 1.8902 2.85069 1.8908 4.56182z"
          fill="#fff"/>
    <path d="m24.9516 41.5263c7.3299 0 13.272-5.942 13.272-13.2719s-5.9421-13.272-13.272-13.272-13.2719 5.9421-13.2719 13.272 5.942 13.2719 13.2719 13.2719z"
          fill="#0c97f0"/>
    <g fill="#e6e6e6">
        <path d="m39.4265 55.8074h-28.2491c-.1387-.0002-.2717-.0553-.3697-.1534-.0981-.0981-.1533-.231-.1534-.3697v-7.0073c.0002-.1387.0553-.2716.1534-.3697.0981-.098.231-.1532.3697-.1534h28.2491c.1387.0002.2716.0554.3697.1534.0981.0981.1532.231.1534.3697v7.0074c-.0002.1387-.0553.2716-.1534.3697s-.231.1532-.3697.1534zm-28.2491-7.8443c-.0832.0001-.163.0332-.2219.092-.0589.0589-.0919.1387-.092.2219v7.0074c.0001.0832.0331.163.092.2219s.1387.092.2219.092h28.2491c.0833 0 .1631-.0331.2219-.092.0589-.0589.092-.1387.092-.2219v-7.0074c0-.0832-.0331-.163-.092-.2219-.0588-.0588-.1386-.0919-.2219-.092z"/>
        <path d="m19.9133 50.2773c-.0971 0-.1902.0386-.2589.1073s-.1073.1618-.1073.259c0 .0971.0386.1902.1073.2589s.1618.1073.2589.1073h17.2632c.0971.0037.1917-.0313.263-.0973.0712-.066.1134-.1577.1171-.2547.0037-.0971-.0313-.1917-.0973-.2629-.066-.0713-.1576-.1134-.2547-.1172-.0054-.0002-.0107-.0003-.0161-.0002h-17.2752z"/>
        <path d="m19.9133 52.4727c-.0971 0-.1902.0385-.2589.1072s-.1073.1618-.1073.259c0 .0971.0386.1902.1073.2589s.1618.1073.2589.1073h17.2632c.0971.0037.1917-.0313.263-.0973.0712-.066.1134-.1576.1171-.2547s-.0313-.1917-.0973-.2629c-.066-.0713-.1576-.1134-.2547-.1171-.0054-.0003-.0107-.0003-.0161-.0003h-17.2752z"/>
        <path d="m39.4265 67.4871h-28.2491c-.1387-.0002-.2717-.0553-.3697-.1534-.0981-.0981-.1533-.231-.1534-.3697v-7.0073c.0002-.1387.0553-.2716.1534-.3697s.231-.1532.3697-.1534h28.2491c.1387.0002.2716.0553.3697.1534s.1532.231.1534.3697v7.0074c-.0002.1387-.0554.2716-.1534.3696-.0981.098-.231.1532-.3697.1534zm-28.2491-7.8443c-.0832 0-.163.0331-.2219.092s-.0919.1387-.092.2219v7.0074c.0001.0832.0331.163.092.2219.0589.0588.1387.0919.2219.092h28.2491c.0833-.0001.1631-.0332.2219-.092.0589-.0589.092-.1387.092-.2219v-7.0074c0-.0832-.0331-.163-.092-.2219-.0588-.0589-.1386-.092-.2219-.092z"/>
        <path d="m19.9133 61.9922c-.0971 0-.1902.0386-.2589.1073-.0687.0686-.1073.1618-.1073.2589s.0386.1903.1073.2589c.0687.0687.1618.1073.2589.1073h17.2633c.0957-.0005.1874-.0385.2555-.1059.0681-.0673.107-.1586.1086-.2544.0016-.0957-.0344-.1883-.1002-.2578-.0659-.0695-.1563-.1105-.252-.1142h-17.2752z"/>
        <path d="m19.9133 64.1914c-.0971 0-.1902.0386-.2589.1073s-.1073.1618-.1073.2589.0386.1903.1073.259c.0687.0686.1618.1072.2589.1072h17.2633c.0957-.0005.1874-.0385.2555-.1059.0681-.0673.107-.1586.1086-.2544.0016-.0957-.0344-.1882-.1002-.2578-.0659-.0695-.1563-.1105-.252-.1142h-17.2752z"/>
        <path d="m39.4265 79.2039h-28.2491c-.1387-.0002-.2717-.0553-.3697-.1534-.0981-.0981-.1533-.2311-.1534-.3697v-7.0073c.0002-.1387.0553-.2716.1534-.3697s.231-.1532.3697-.1534h28.2491c.1387.0002.2716.0553.3697.1534s.1532.231.1534.3697v7.0074c-.0002.1387-.0553.2716-.1534.3697s-.231.1532-.3697.1534zm-28.2491-7.8443c-.0832 0-.163.0331-.2219.092s-.0919.1387-.092.2219v7.0074c.0001.0832.0331.163.092.2219.0589.0588.1387.0919.2219.092h28.2491c.0833-.0001.1631-.0332.2219-.092.0589-.0589.092-.1387.092-.2219v-7.0074c0-.0832-.0331-.163-.092-.2219-.0588-.0589-.1386-.092-.2219-.092z"/>
        <path d="m19.9133 73.7129c-.0971 0-.1902.0386-.2589.1072-.0687.0687-.1073.1619-.1073.259s.0386.1903.1073.259c.0687.0686.1618.1072.2589.1072h17.2632c.0481.0019.0961-.0058.1412-.0225s.0865-.0421.1218-.0748.0638-.072.0839-.1157.0313-.0909.0332-.139c.0018-.048-.0058-.096-.0225-.1411s-.0421-.0865-.0748-.1218-.072-.0638-.1157-.0839-.0909-.0314-.139-.0332c-.0054-.0002-.0107-.0003-.0161-.0003h-17.2752z"/>
        <path d="m19.9133 75.9102c-.0971 0-.1902.0385-.2589.1072s-.1073.1618-.1073.259c0 .0971.0386.1902.1073.2589s.1618.1073.2589.1073h17.2632c.0481.0018.0961-.0058.1412-.0225s.0865-.0421.1218-.0748.0638-.072.0839-.1157.0313-.0909.0332-.139c.0018-.0481-.0058-.096-.0225-.1411-.0167-.0452-.0421-.0865-.0748-.1218s-.072-.0638-.1157-.0839-.0909-.0314-.139-.0332c-.0054-.0002-.0107-.0003-.0161-.0003h-17.2752z"/>
    </g>
    <path d="m14.7018 53.9333c1.2134 0 2.1971-.9837 2.1971-2.1971 0-1.2135-.9837-2.1971-2.1971-2.1971-1.2135 0-2.1972.9836-2.1972 2.1971 0 1.2134.9837 2.1971 2.1972 2.1971z"
          fill="#0c97f0"/>
    <path d="m13.65 51.3262c-.0253 0-.0458.1639-.0458.3661s.0205.3663.0458.3663h2.1604c.0253.0033.0462-.1579.0466-.3601.0141-.1259-.0014-.2533-.045-.3722h-2.162z"
          fill="#e6e6e6"/>
    <path d="m14.7018 65.656c1.2134 0 2.1971-.9837 2.1971-2.1972 0-1.2134-.9837-2.1971-2.1971-2.1971-1.2135 0-2.1972.9837-2.1972 2.1971 0 1.2135.9837 2.1972 2.1972 2.1972z"
          fill="#0c97f0"/>
    <path d="m13.65 63.0488c-.0253 0-.0458.164-.0458.3662 0 .2021.0205.3662.0458.3662h2.1604c.0253.0033.0462-.1579.0466-.36.0141-.1259-.0014-.2533-.045-.3722h-2.162z"
          fill="#e6e6e6"/>
    <path d="m14.7018 77.3767c1.2134 0 2.1971-.9837 2.1971-2.1971 0-1.2135-.9837-2.1972-2.1971-2.1972-1.2135 0-2.1972.9837-2.1972 2.1972 0 1.2134.9837 2.1971 2.1972 2.1971z"
          fill="#0c97f0"/>
    <path d="m13.65 74.7695c-.0253 0-.0458.164-.0458.3662 0 .2021.0205.3662.0458.3662h2.1604c.0253.0033.0462-.1579.0466-.36.0141-.1259-.0014-.2533-.045-.3722h-2.162z"
          fill="#e6e6e6"/>
    <path d="m22.0846 24.6092-.7775.7775 6.5114 6.5114.7775-.7775z" fill="#fff"/>
    <path d="m28.5961 25.3869-.7775-.7775-6.5114 6.5114.7775.7775z" fill="#fff"/>
</svg>