<svg width="16" height="16" viewBox="0 0 16 16" fill="none" xmlns="http://www.w3.org/2000/svg">
<path d="M12.7609 3.33336C13.9398 4.53586 14.6666 6.18305 14.6666 8.00002C14.6666 9.83857 13.9224 11.5033 12.7188 12.7093M3.33331 12.761C2.09907 11.551 1.33331 9.86495 1.33331 8.00002C1.33331 6.15667 2.08146 4.48805 3.29067 3.28125" stroke="#FF4949" stroke-linecap="round" stroke-linejoin="round"/>
<path d="M10.8566 5.36281C11.5639 6.03934 12 6.96606 12 7.9883C12 9.02267 11.5535 9.95924 10.8313 10.6378M5.2 10.6668C4.45946 9.98611 4 9.03751 4 7.9883C4 6.95122 4.44889 6.01245 5.17441 5.3335" stroke="#FF4949" stroke-linecap="round" stroke-linejoin="round"/>
<circle cx="8.00002" cy="7.99984" r="1.33333" stroke="#FF4949"/>
</svg>
