<svg height="712.71263" viewBox="0 0 806 712.71263" width="806" xmlns="http://www.w3.org/2000/svg"><path d="m770.29584 711.7651-1.07324-.40235c-.23584-.08886-23.7085-9.082-34.70411-29.47363-10.99609-20.39258-5.61181-44.94531-5.55615-45.19043l.25342-1.11816 1.07275.40234c.23584.08887 23.708 9.082 34.7041 29.47363 10.9961 20.39258 5.61182 44.94532 5.55616 45.19043zm-34.0166-30.8251c9.29638 17.24122 27.84521 26.07911 32.54492 28.09668.89355-5.03711 3.6958-25.40625-5.59229-42.63086-9.28711-17.22265-27.84326-26.07421-32.54492-28.09668-.89404 5.03994-3.69531 25.40713 5.59229 42.63086z" fill="#3f3d56" transform="translate(0 .00002)"/><path d="m742.92163 674.73605c19.76056 11.88861 27.371 35.50268 27.371 35.50268s-24.42779 4.33881-44.18835-7.5498-27.371-35.50263-27.371-35.50263 24.42779-4.33887 44.18835 7.54975z" fill="#0c97f0" transform="translate(0 .00002)"/><path d="m424.79175 381.96429a12.52013 12.52013 0 0 1 18.45947-2.87711 11.918 11.918 0 0 1 1.21039 1.15509l49.211-7.16434 2.73877-37.00512a10.73344 10.73344 0 0 1 21.40857 1.58127q-.00733.09877-.01642.19738l-4.79712 51.92527-.02313.11557a9.72362 9.72362 0 0 1 -9.39484 6.82034l-57.88263-.99939a11.71287 11.71287 0 0 1 -.72607.99188 12.52078 12.52078 0 0 1 -18.66761.76392q-.3738-.38278-.70825-.791a12.55948 12.55948 0 0 1 -.81213-14.71376z" fill="#ffb7b7" transform="translate(0 .00002)"/><path d="m524.006 697.479-14.036-.001-6.677-54.137 20.715.001z" fill="#ffb7b7"/><path d="m527.58527 711.08419-45.25653-.00171v-.57248a17.616 17.616 0 0 1 17.61511-17.61474h.0011l27.64111.0011z" fill="#2f2e41" transform="translate(0 .00002)"/><path d="m622.082 684.754-13.284 4.53-23.798-49.082 19.607-6.687z" fill="#ffb7b7"/><path d="m629.86218 696.47494-42.83362 14.60925-.18481-.54175a17.616 17.616 0 0 1 10.985-22.35852l.001-.00036 26.16138-8.92273z" fill="#2f2e41" transform="translate(0 .00002)"/><path d="m539.46124 224.126s-13.96991-4.61358-22.9505 13.84086-22.9505 38.7543-22.9505 38.7543l7.98279 1.84543s1.99567-12.91809 6.985-14.76355l-1.99567 16.609s59.871 19.37713 86.81293-1.84543l-.99787-6.45908s3.9914.92273 3.9914 6.45908l2.99353-2.76816s-2.99353-5.53632-11.97425-12.91809c-5.89453-4.84506-7.9201-14.06278-8.61621-19.82584a23.10194 23.10194 0 0 0 -5.9732-13.06512c-5.96815-6.396-16.84285-13.19397-33.30745-5.8634z" fill="#2f2e41" transform="translate(0 .00002)"/><circle cx="544.61072" cy="263.08761" fill="#ffb7b7" r="25.5152"/><g transform="translate(0 .00002)"><path d="m510.59039 309.61294-4.6391-1.54639s-9.27826 3.86594-9.27826 10.82462-1.54638 34.79345-1.54638 34.79345l20.8761 2.31958z" fill="#cbcbcb"/><path d="m593.62225 461.69747a12.06379 12.06379 0 0 1 -.27588-15.744l-13.02325-109.06691a9.7219 9.7219 0 0 1 19.418-1.00061q.00284.05342.00494.10684l11.65064 109.18265a11.71108 11.71108 0 0 1 1.16455 1.36346 12.14374 12.14374 0 0 1 -2.7243 16.95642q-.20088.1452-.40748.28217a12.155 12.155 0 0 1 -10.27014 1.48492 12.00615 12.00615 0 0 1 -5.53708-3.56494z" fill="#ffb7b7"/><path d="m581.69482 353.68462 20.8761-2.31955s-1.54638-27.83474-1.54638-34.79345-9.27826-10.82462-9.27826-10.82462l-4.63916 1.54636z" fill="#cbcbcb"/><path d="m513.68317 392.30447s-17.78333 32.51349-17.78333 71.946-1.54639 220.35853-1.54639 220.35853 23.19562 10.82465 37.113-2.31958l12.371-200.25568 48.71082 196.38971s23.19562 4.63916 34.02026-3.09277l-20.876-136.85413s-8.50506-128.34918-31.70068-137.62744-60.30868-8.54464-60.30868-8.54464z" fill="#2f2e41"/><path d="m517.03937 263.24938c9.03259-6.537 16.34424-14.06632 21.18091-23.02274 0 0 16.57641 18.41822 26.70642 19.33911s.9209-22.10183.9209-22.10183l-18.41822-4.60465-17.49731 1.84183-13.81366 9.20911z" fill="#2f2e41"/><path d="m570.12585 301.10787s.73633-.39526-43.29632 1.20871l-18.429 5.07538-2.4494.67459s2.31958 46.39127 8.50507 54.89633 4.6391 13.1442 3.09277 13.91739-5.41229-.77319-3.09277 3.09274 5.41229 1.54639 2.31958 3.86594-4.63916 10.82462-4.63916 10.82462l68.04053 9.27826s2.31958-30.15433 8.50506-45.61808 7.73187-21.64926 7.73187-21.64926l-4.63908-30.92749z" fill="#cbcbcb"/><path d="m440.76672 169.22353h-3.91266v-107.18672a62.03672 62.03672 0 0 0 -62.03662-62.03681h-227.08978a62.03676 62.03676 0 0 0 -62.03693 62.03657v588.035a62.03674 62.03674 0 0 0 62.03666 62.0368h227.08969a62.03677 62.03677 0 0 0 62.037-62.03656v-404.55094h3.91266z" fill="#3f3d56"/><path d="m423.65088 62.47263v587.17a46.28864 46.28864 0 0 1 -46.24725 46.33h-228.26273a46.29739 46.29739 0 0 1 -46.33-46.26471v-587.2353a46.29736 46.29736 0 0 1 46.26471-46.33h27.7453a22.008 22.008 0 0 0 20.38 30.32h130.1a22.008 22.008 0 0 0 20.38-30.32h29.64a46.28851 46.28851 0 0 1 46.33 46.24691v.08311z" fill="#fff"/><path d="m423.65076 149.34266v-20h-30.27v-110.34a46.18578 46.18578 0 0 0 -16.06006-2.8601h-3.93994v113.2001h-105v-82.88h-20v82.88h-88v-113.2h-11.23976a45.88934 45.88934 0 0 0 -8.76025.83v112.37h-37.5698v20h37.56983v46.26056l-37.56935 21.68978v23.1l37.56934-21.68973v137.6394h-37.56983v20h37.56983v199h-37.56983v20h37.56983v99.79993a45.90089 45.90089 0 0 0 8.76025.83h11.23975v-100.63h88v100.63h20v-100.63h105v100.63h3.93994a46.18452 46.18452 0 0 0 16.06006-2.86v-97.7699h30.27v-20h-30.27v-87h30v-20h-30v-92h30.27v-20h-30.27v-122h30.27v-20h-30.27v-65zm-203.13916 0-.00049.0003-60.12988 34.72-.00049.00024v-34.72054zm-60.13086 57.81056.00049-.00024 87.99951-50.80976v199.99942h-88zm0 368.18945v-199h88v199zm213 0h-105v-87h105zm0-107h-105v-92h105zm0-112h-105v-122h105zm0-142h-105v-65h105z" fill="#e5e5e5"/><path d="m440.38086 214.71261c0 63.51272-115 205-115 205s-115-141.48728-115-205a115 115 0 0 1 230 0z" fill="#0c97f0"/><path d="m393.3822 209.71261a68 68 0 1 1 -68-68 67.96875 67.96875 0 0 1 68 67.93756z" fill="#fff"/></g><circle cx="325.14557" cy="211.22241" fill="#0c97f0" r="25.33334"/><path d="m361.912 269.08257a68.07245 68.07245 0 0 1 -73.06983-.01 37.999 37.999 0 0 1 73.06983.01z" fill="#0c97f0" transform="translate(0 .00002)"/><circle cx="325.38089" cy="471.71259" fill="#0c97f0" r="31"/><path d="m805 712.71261h-804a1 1 0 0 1 0-2h804a1 1 0 0 1 0 2z" fill="#cbcbcb" transform="translate(0 .00002)"/></svg>