<svg width="47" height="46" viewBox="0 0 47 46" fill="none" xmlns="http://www.w3.org/2000/svg">
    <defs>
        <linearGradient id="gradient_paint" x1="23.8851" y1="3.66602" x2="9.12677" y2="42.1666"
                        gradientUnits="userSpaceOnUse">
            <stop stop-color="#3370F9"/>
            <stop offset="1" stop-color="#39AAF4"/>
        </linearGradient>
    </defs>
    <path d="M17.2361 37.3899L12.8735 41.0254C10.5636 42.9503 7.13064 42.6382 5.20573 40.3283C4.39037 39.3499 3.94385 38.1166 3.94385 36.8429V10.1645C3.94385 8.88088 4.33061 7.62707 5.05371 6.56652L5.39243 6.06973C6.6666 4.20095 8.95431 3.3019 11.1599 3.80317C12.1828 4.03565 13.118 4.5556 13.8553 5.30178L32.4273 24.0976M30.521 8.67012L34.8819 5.03253C37.1908 3.10651 40.624 3.41695 42.55 5.72593C43.3658 6.70396 43.813 7.93706 43.8136 9.21069L43.8264 35.8891C43.827 37.1727 43.4408 38.4267 42.7182 39.4876L42.3797 39.9846C41.1065 41.854 38.8192 42.7541 36.6134 42.2539C35.5904 42.0219 34.6549 41.5024 33.9173 40.7566L15.3362 21.9697"
          stroke="url(#gradient_paint)" stroke-width="5.93413" stroke-linecap="round"/>

</svg>
