<svg width="127" height="127" viewBox="0 0 127 127" fill="none" xmlns="http://www.w3.org/2000/svg">
<g clip-path="url(#clip0_674_31615)">
<path d="M63.4999 111.963C90.2654 111.963 111.963 90.2655 111.963 63.5C111.963 36.7345 90.2654 15.0368 63.4999 15.0368C36.7345 15.0368 15.0367 36.7345 15.0367 63.5C15.0367 90.2655 36.7345 111.963 63.4999 111.963Z" fill="#EAF4FF"/>
<path fill-rule="evenodd" clip-rule="evenodd" d="M104.75 36.4829L104.648 37.8799L104.064 46.2365L95.8257 45.6607L91.9649 102.726C83.9724 108.534 74.1341 111.963 63.5 111.963C51.1556 111.963 39.8865 107.349 31.3267 99.7458C32.4443 83.0749 34.4339 53.4331 35.4076 39.624C35.56 37.5073 36.5421 35.5346 38.1423 34.1461C39.7425 32.7575 41.8338 32.0548 43.9505 32.2072L96.5115 35.8902V35.9071L103.7 36.4151L104.75 36.4829Z" fill="#2E8EFF"/>
<path d="M39.291 82.8669L38.8605 89.0243L67.3754 91.0183L67.806 84.8608L39.291 82.8669Z" fill="#387CFB"/>
<path d="M40.2209 70.3943L39.7903 76.5517L54.2674 77.564L54.6979 71.4066L40.2209 70.3943Z" fill="#387CFB"/>
<path d="M41.0613 57.4632L40.6307 63.6206L55.0403 64.6282L55.4708 58.4708L41.0613 57.4632Z" fill="#387CFB"/>
<path d="M38.4085 95.4698L37.9779 101.627L76.3076 104.307L76.7381 98.1501L38.4085 95.4698Z" fill="#387CFB"/>
<path fill-rule="evenodd" clip-rule="evenodd" d="M94.1663 69.3251L61.849 67.056C61.3325 67.0221 60.8838 66.6835 60.7145 66.1924C60.5451 65.7013 60.6721 65.1595 61.0531 64.8039C64.9647 61.1209 73.1774 53.3908 77.2753 49.5469C77.6647 49.1829 78.2405 49.0897 78.7231 49.3183C79.2057 49.5469 79.502 50.0465 79.4681 50.5883L78.8755 59.0296L94.8182 60.1472L94.1663 69.3251ZM95.9189 43.688C96.0628 41.6221 97.028 39.6917 98.5859 38.3371C100.152 36.9739 102.193 36.2966 104.259 36.4405C108.077 36.7115 110.964 40.0135 110.719 43.8319C110.422 48.3955 110.084 53.5347 110.084 53.5347L95.3008 52.4933C95.3008 52.4933 95.6225 47.9975 95.9189 43.688Z" fill="#387CFB"/>
<path d="M61.994 64.9909L61.9918 64.9907C61.6742 64.9699 61.4003 64.7618 61.2973 64.4631C61.1904 64.1533 61.2719 63.82 61.5044 63.6031L61.506 63.6016C65.4176 59.9186 73.6296 52.1891 77.7271 48.3456C77.9685 48.1202 78.3242 48.0642 78.6191 48.2039C78.9143 48.3437 79.0997 48.6582 79.0793 48.9889C79.0793 48.9894 79.0793 48.9898 79.0792 48.9903L78.4868 57.4283L78.4518 57.927L78.9505 57.962L102.208 59.5961L102.209 59.5962C102.327 59.6043 102.43 59.6563 102.5 59.7374C102.58 59.8296 102.615 59.938 102.608 60.0435C102.545 60.924 102.448 62.3137 102.35 63.7029L102.35 63.7064C102.253 65.0973 102.155 66.4873 102.092 67.3672L102.092 67.3687C102.084 67.4753 102.032 67.5841 101.946 67.6635C101.857 67.7391 101.75 67.7754 101.634 67.7679C101.634 67.7679 101.634 67.7679 101.633 67.7678L61.994 64.9909Z" fill="white" stroke="#EAF4FF"/>
<path fill-rule="evenodd" clip-rule="evenodd" d="M83.7692 82.4145L60.5112 80.7805C60.2657 80.7635 60.0371 80.645 59.8762 80.4672C59.7154 80.2809 59.6307 80.0354 59.6476 79.7899C59.7746 78.0288 60.0371 74.2273 60.1641 72.4662C60.181 72.2207 60.2911 71.9921 60.4774 71.8312C60.6636 71.6703 60.9007 71.5857 61.1547 71.6026L93.8445 73.8971L93.091 84.6243L85.3609 91.8887C84.9714 92.2528 84.3957 92.3459 83.9131 92.1173C83.4305 91.8887 83.1342 91.3807 83.168 90.8473L83.7692 82.4145Z" fill="#387CFB"/>
<path d="M84.3612 81.0431L84.3951 80.5453L83.8974 80.5103L60.6394 78.8763L60.6388 78.8762C60.5322 78.8689 60.4235 78.8162 60.3441 78.7306C60.2677 78.6398 60.2326 78.5253 60.2395 78.4285C60.303 77.5474 60.4004 76.1566 60.4977 74.7666L60.4978 74.766C60.5952 73.3751 60.6925 71.9851 60.756 71.1052L60.756 71.1052L60.7561 71.1036C60.7634 70.9967 60.8161 70.8901 60.9058 70.8126C60.9952 70.7354 61.1117 70.6969 61.2217 70.7044C61.2218 70.7044 61.2218 70.7044 61.2219 70.7044L100.854 73.4815L100.856 73.4816C101.174 73.5024 101.448 73.7106 101.551 74.0093L101.551 74.0093L101.553 74.0165C101.662 74.3162 101.581 74.65 101.349 74.8721C97.4367 78.5558 89.2259 86.2841 85.1289 90.1271C84.8875 90.3522 84.532 90.4081 84.2372 90.2685C83.9397 90.1276 83.7591 89.8219 83.7851 89.4893L83.7854 89.4844L84.3612 81.0431Z" fill="white" stroke="#EAF4FF"/>
<path d="M31.8855 57.1077C41.0318 57.1077 48.4463 49.6932 48.4463 40.5469C48.4463 31.4006 41.0318 23.9861 31.8855 23.9861C22.7392 23.9861 15.3247 31.4006 15.3247 40.5469C15.3247 49.6932 22.7392 57.1077 31.8855 57.1077Z" fill="#2E8EFF"/>
<path d="M35.4414 41.6899C35.4414 40.1743 35.2213 38.9975 34.781 38.1677C34.3408 37.338 33.7142 36.9231 32.9014 36.9231C32.0886 36.9231 31.4706 37.338 31.0472 38.1677C30.6239 38.9975 30.4122 40.1743 30.4122 41.6899C30.4122 43.2054 30.6239 44.3907 31.0472 45.2289C31.4706 46.0671 32.0886 46.482 32.9014 46.482C33.7142 46.482 34.3408 46.0671 34.781 45.2289C35.2213 44.3907 35.4414 43.2054 35.4414 41.6899ZM39.8695 41.6899C39.8695 43.0191 39.7002 44.2045 39.353 45.2374C39.0059 46.2788 38.5318 47.1424 37.9137 47.8451C37.2956 48.5479 36.5675 49.0728 35.7124 49.4369C34.8572 49.8009 33.9344 49.9787 32.9268 49.9787C31.9108 49.9787 30.971 49.8009 30.1159 49.4369C29.2608 49.0728 28.5242 48.5479 27.9146 47.8451C27.305 47.1424 26.8224 46.2788 26.4837 45.2374C26.145 44.2045 25.9757 43.0191 25.9757 41.6899C25.9757 40.3606 26.145 39.1837 26.4837 38.1508C26.8224 37.1263 27.2965 36.2627 27.9146 35.56C28.5326 34.8573 29.2608 34.3323 30.1159 33.9683C30.971 33.6042 31.9108 33.4264 32.9268 33.4264C33.9259 33.4264 34.8572 33.6127 35.7124 33.9683C36.5675 34.3323 37.3041 34.8573 37.9137 35.56C38.5233 36.2627 39.0059 37.1263 39.353 38.1508C39.7002 39.1837 39.8695 40.3606 39.8695 41.6899Z" fill="#0757ED"/>
<path d="M34.5779 40.1744C34.5779 38.6588 34.3578 37.482 33.9175 36.6522C33.4772 35.8225 32.8507 35.4076 32.0379 35.4076C31.2251 35.4076 30.607 35.8225 30.1837 36.6522C29.7604 37.482 29.5487 38.6588 29.5487 40.1744C29.5487 41.6899 29.7604 42.8752 30.1837 43.7134C30.607 44.5516 31.2251 44.9665 32.0379 44.9665C32.8507 44.9665 33.4772 44.5516 33.9175 43.7134C34.3578 42.8752 34.5779 41.6984 34.5779 40.1744ZM39.006 40.1744C39.006 41.5036 38.8366 42.689 38.4895 43.7219C38.1424 44.7633 37.6683 45.6269 37.0502 46.3296C36.4321 47.0324 35.704 47.5573 34.8488 47.9214C33.9937 48.2854 33.0708 48.4632 32.0633 48.4632C31.0473 48.4632 30.1075 48.2854 29.2524 47.9214C28.3972 47.5573 27.6606 47.0324 27.051 46.3296C26.4414 45.6269 25.9588 44.7633 25.6202 43.7219C25.2815 42.689 25.1122 41.5036 25.1122 40.1744C25.1122 38.8451 25.2815 37.6682 25.6202 36.6353C25.9588 35.6108 26.433 34.7472 27.051 34.0445C27.6691 33.3418 28.3972 32.8168 29.2524 32.4528C30.1075 32.0887 31.0473 31.9109 32.0633 31.9109C33.0624 31.9109 33.9937 32.0972 34.8488 32.4528C35.704 32.8168 36.4406 33.3418 37.0502 34.0445C37.6598 34.7472 38.1424 35.6108 38.4895 36.6353C38.8282 37.6682 39.006 38.8451 39.006 40.1744Z" fill="white"/>
<path d="M11.9888 32.7236C11.9465 32.7236 11.8957 32.7152 11.8449 32.7067L3.43748 30.6662C3.11574 30.59 2.92101 30.2683 2.99721 29.9466C3.07341 29.6248 3.39514 29.4301 3.71688 29.5063L12.1243 31.5468C12.446 31.623 12.6407 31.9447 12.5645 32.2664C12.4968 32.5458 12.2513 32.7236 11.9888 32.7236ZM21.3614 23.097C21.1243 23.097 20.8957 22.9531 20.8111 22.716L18.2541 16.0528C18.1356 15.748 18.288 15.4008 18.5928 15.2908C18.8976 15.1722 19.2447 15.3246 19.3548 15.6294L21.9117 22.2927C22.0303 22.5975 21.8779 22.9446 21.5731 23.0547C21.5053 23.0801 21.4376 23.097 21.3614 23.097ZM14.859 27.0848C14.7066 27.0848 14.5542 27.0256 14.4357 26.907L6.46008 18.9314C6.23148 18.7028 6.23148 18.3218 6.46008 18.0932C6.68868 17.8646 7.06968 17.8646 7.29828 18.0932L15.2739 26.0688C15.5025 26.2974 15.5025 26.6784 15.2739 26.907C15.1553 27.0256 15.0029 27.0848 14.859 27.0848Z" fill="#3D7CF2"/>
</g>
<defs>
<clipPath id="clip0_674_31615">
<rect width="127" height="127" fill="white"/>
</clipPath>
</defs>
</svg>
