<svg fill="none" height="83" viewBox="0 0 120 83" width="120" xmlns="http://www.w3.org/2000/svg"><clipPath id="a"><path d="m0 0h120v83h-120z"/></clipPath><g clip-path="url(#a)"><path d="m85.7997 56.7545c0 7.5114-4.4712 10.1341-9.9867 10.1341s-9.9866-2.6227-9.9866-10.1341 9.9866-17.067 9.9866-17.067 9.9867 9.5556 9.9867 17.067z" fill="#0c97f0"/><path d="m75.5515 59.4532 4.2565-7.7771-4.2405 6.791.046-2.8266 2.9336-5.6266-2.9214 4.8785.0826-5.0837 3.1414-4.4794-3.1284 3.68.0517-9.3218-.3108 11.8118-3.181-4.8629 3.1426 5.8597-.2977 5.6776-.0087-.1507-3.682-5.138 3.6707 5.6704-.0372.7101-.0066.0107.0031.0583-.7551 7.5765h1.0087l.1211-.6121 3.6617-5.6565-3.6526 5.0971z" fill="#3f3d56"/><path d="m120 32.6022c0 14.3486-8.541 19.3586-19.077 19.3586-10.5359 0-19.077-5.01-19.077-19.3586 0-14.3485 19.077-32.6022 19.077-32.6022s19.077 18.2537 19.077 32.6022z" fill="#f2f2f2"/><path d="m100.228 49.7659.195-12.0084 8.132-14.8562-8.101 12.9723.088-5.3995 5.604-10.7482-5.581 9.3194v.0001l.158-9.7113 6.001-8.557-5.976 7.0299.099-17.807-.621 23.5733.051-.9725-6.1007-9.3266 6.0037 11.1933-.5689 10.8458-.017-.2878-7.0334-9.8149 7.0122 10.8318-.0711 1.3564-.0128.0204.0059.1113-1.4423 27.5167h1.9269l.2315-14.2128 6.995-10.8053z" fill="#3f3d56"/><path d="m119.217 62.6437c0 4.2827-27.8177 20.3553-60.3365 20.3553s-58.8805-8.3182-58.8805-12.6009c0-4.2826 25.7147.8078 58.2335.8078s60.9835-12.8448 60.9835-8.5622z" fill="#3f3d56"/><path d="m119.217 62.6437c0 4.2827-27.8177 20.3553-60.3365 20.3553s-58.8805-8.3182-58.8805-12.6009c0-4.2826 25.7147.8078 58.2335.8078s60.9835-12.8448 60.9835-8.5622z" fill="#000" opacity=".1"/><path d="m119.217 62.6439c0 4.2827-27.8177 15.5089-60.3365 15.5089s-58.8805-3.4718-58.8805-7.7544c0-4.2827 25.7146-4.0388 58.2335-4.0388 32.5188 0 60.9835-7.9983 60.9835-3.7157z" fill="#3f3d56"/><path d="m59.5394 73.1442c13.8092 0 25.0037-.8647 25.0037-1.9315 0-1.0667-11.1945-1.9315-25.0037-1.9315s-25.0038.8648-25.0038 1.9315c0 1.0668 11.1946 1.9315 25.0038 1.9315z" fill="#000" opacity=".1"/><path d="m39.7313 32.5078s7.3201.1354 5.9645 1.4215c-1.3555 1.2861-6.4389 0-6.4389 0z" fill="#a0616a"/><path d="m24.4798 16.8875s2.9555-.5271 3.9831 1.8557 3.1381 9.1783 3.1381 9.1783 5.6479 3.7336 6.6751 3.611c1.0273-.1227 2.7834.1276 2.4613 1.2469s-.1791 2.3884-.9207 2.544c-.7416.1555-1.9211-1.3293-2.8238-.6141s-8.9474-1.8971-9.4638-2.4383c-.5165-.5413-4.8086-12.2615-4.8086-12.2615s.1717-3.1602 1.7593-3.122z" fill="#0c97f0"/><path d="m30.8185 67.1992.3389 2.843-2.8467.7447-1.6267-.7447v-2.5045z" fill="#a0616a"/><path d="m23.1595 69.0273.3389 2.843-2.8467.7447-1.6267-.7447v-2.5045z" fill="#a0616a"/><path d="m31.0896 36.1294 1.2878 4.6706 1.8978 9.4767s.5422 2.3015-.5423 5.0768c-1.0844 2.7753-3.05 11.8458-2.6433 12.3873.4066.5415-4.609.9477-4.5412.4062.0678-.5416.7456-7.9875.7456-7.9875s.9489-6.566 1.4233-7.3783c.4745-.8123-2.1689-2.843-2.1689-2.843s-.6778 7.7844-1.6944 8.4613c-1.0167.6769-.8811 11.169-1.3556 11.3043-.4744.1354-3.9311.677-4.3378 0-.4067-.6769 0-11.9812 0-11.9812s2.3045-8.5967 1.83-9.8151c-.4744-1.2184-.2033-6.4306-.2033-6.4306s-1.7623-3.9937-.8134-6.0921z" fill="#2f2e41"/><path d="m30.8863 10.1372s-2.8467 3.5199-2.7111 5.0768c.1355 1.5569-4.4734-2.843-4.4734-2.843s3.3211-4.46757 3.3211-5.41524c0-.94766 3.8634 3.18144 3.8634 3.18144z" fill="#a0616a"/><path d="m30.8524 11.4566c2.4706 0 4.4734-2.00017 4.4734-4.46754s-2.0028-4.46758-4.4734-4.46758-4.4734 2.00021-4.4734 4.46758 2.0028 4.46754 4.4734 4.46754z" fill="#a0616a"/><path d="m19.5788 33.5966c-.2027.7541-.4541 1.609-.4182 2.3292.0231.4664 1.2627.7724 2.9768.9727 1.5894.1862 3.5869.281 5.4026.3297 1.9066.0514 3.6113.0514 4.4307.0514 2.44 0 .4745-1.5568-.4744-2.3014s-.7456-11.3043-.6778-12.6582c.0678-1.3538-.61-5.2798-.61-6.0244s-1.5948-2.688-1.5948-2.688-.3708 1.0634-1.8619-.3581-3.4567-1.8276-3.4567-1.8276c-1.4911.5415-3.9989 6.4983-4.1345 7.5136-.0549.4123-.0095 2.5235.0827 4.934.1335 3.5233.3667 7.6883.5273 8.1303.1268.3486-.0135.9334-.1918 1.5968z" fill="#0c97f0"/><path d="m26.8196 37.5508.4744 1.6923-1.83 1.8953-.61-2.64z" fill="#a0616a"/><path d="m27.4296 69.2985s1.4233 1.6246 2.5078.5415c1.0844-1.083 1.0166-1.7599 1.22-1.7599.2033 0 3.2533 2.7076 3.2533 2.7076s5.219 1.2184 2.3723 2.0984-10.9123.2708-10.9123 0c0-.2707-.2034-3.8584.5422-3.8584z" fill="#2f2e41"/><path d="m19.7706 71.1247s1.4234 1.6246 2.5078.5415c1.0845-1.083 1.0167-1.76 1.22-1.76.2034 0 3.2534 2.7077 3.2534 2.7077s5.2189 1.2184 2.3722 2.0984-10.9123.2707-10.9123 0c0-.2708-.2033-3.8584.5423-3.8584z" fill="#2f2e41"/><path d="m25.83 10.555c-.1445.0933-.3326.1878-.4773.0948-.538-1.33991-.9401-2.73031-1.2003-4.15035-.0914-.49879-.1548-1.05329.1227-1.47795.1094-.16748.2669-.30445.3471-.48771.1214-.27755.0415-.5988.0818-.89898.0845-.62886.6797-1.06748 1.2783-1.2802.5986-.21273 1.2486-.27871 1.8192-.55785.5417-.26504.9756-.70461 1.478-1.038172.5023-.333565 1.1458-.561635 1.7052-.336235.495.199399.8032.703207 1.271.959727.3175.17408.6858.22252 1.0402.29724.9848.20868 1.9094.63769 2.7043 1.25477.1934.13778.3601.30946.4921.5067.6003.98704-.4745 2.32897-.0003 3.38225l-1.0251-.80786c-.2738-.23915-.5825-.43511-.9156-.58111-.3395-.12845-.7417-.14397-1.0501.04737-.4329.26853-.5503.82954-.7015 1.31554s-.4856 1.02493-.995 1.01248c-.6928-.01693-.9351-.98253-1.5569-1.28825-.4053-.19929-.9154-.06804-1.261.22261-.3455.29064-.5528.71235-.7049 1.13717-.095.26548-.1841.56475-.3529.79487-.1862.25381-.4242.27423-.6231.46377-.5175.49337-.8357 1.00237-1.4759 1.41537z" fill="#2f2e41"/><path d="m19.5788 33.5969c.8425 1.2205 1.792 2.4795 2.5586 3.3019 1.5894.1862 3.5869.281 5.4026.3297-.3244-.4393-.73-.8124-1.1949-1.0993-.8811-.5415-2.9822-6.9721-2.9822-6.9721s2.5755-6.6337 3.2533-9.1382c.6778-2.5046-1.9656-3.9261-1.9656-3.9261-1.22-1.0154-3.3211 1.3538-3.3211 1.3538s-1.0723 3.2302-2.0862 6.4232c.1335 3.5233.3667 7.6883.5273 8.1303.1267.3486-.0135.9334-.1918 1.5968z" fill="#000" opacity=".1"/><path d="m24.4473 15.5518s2.6434 1.4215 1.9656 3.926c-.6778 2.5046-3.2534 9.1383-3.2534 9.1383s2.1012 6.4306 2.9823 6.9721 2.1011 1.8276 1.1522 2.5045-1.6267 1.76-2.3045 1.4215c-.6777-.3384-.6777-2.2338-1.83-2.2338-1.1522 0-5.8289-7.0398-5.8967-7.7844-.0677-.7446 3.8634-12.5904 3.8634-12.5904s2.1011-2.3692 3.3211-1.3538z" fill="#0c97f0"/><path d="m79.4126 34.0529-.7625-.7615c-.4447-.4442-1.0479-.6937-1.6769-.6937s-1.2322.2495-1.6769.6937l-14.79 14.7707-14.7899-14.7707c-.4447-.4442-1.0479-.6937-1.6769-.6937s-1.2322.2495-1.6769.6937l-.7625.7615c-.2203.2199-.3949.481-.5141.7684-.1192.2873-.1805.5953-.1805.9063 0 .3111.0613.6191.1805.9064.1192.2874.2938.5485.5141.7684l14.7899 14.7708-14.7899 14.7707c-.2203.22-.3949.4811-.5141.7684-.1192.2874-.1805.5954-.1805.9064s.0613.619.1805.9064c.1192.2873.2938.5484.5141.7683l.7625.7616c.4447.4441 1.0479.6937 1.6769.6937s1.2322-.2496 1.6769-.6937l14.7899-14.7708 14.79 14.7708c.4447.4441 1.0479.6937 1.6769.6937s1.2322-.2496 1.6769-.6937l.7625-.7616c.4448-.4441.6946-1.0466.6946-1.6747 0-.6282-.2498-1.2306-.6946-1.6748l-14.7899-14.7707 14.7899-14.7708c.4448-.4442.6946-1.0466.6946-1.6748 0-.6281-.2498-1.2305-.6946-1.6747z" fill="#ff6584"/><g fill="#000"><path d="m41.0723 67.7474 14.3507-14.3321-.1382-.138-13.6847 13.6671c-.2293.2287-.4089.502-.5278.803z" opacity=".1"/><path d="m41.3956 34.533c.4447-.4441 1.0479-.6937 1.6769-.6937s1.2322.2496 1.6769.6937l14.79 14.7708 14.7899-14.7708c.4447-.4441 1.0479-.6937 1.6769-.6937s1.2322.2496 1.6769.6937l.7625.7615c.3271.3268.5514.742.6452 1.1945.0938.4524.053.9224-.1174 1.352l.4392-.4386c.2202-.2199.3949-.481.5141-.7684.1192-.2873.1805-.5953.1805-.9064 0-.311-.0613-.619-.1805-.9063-.1192-.2874-.2939-.5485-.5141-.7684l-.7625-.7615c-.4447-.4442-1.0479-.6937-1.6769-.6937s-1.2322.2495-1.677.6937l-14.7899 14.7707-14.7899-14.7707c-.4447-.4442-1.0479-.6937-1.6769-.6937s-1.2322.2495-1.6769.6937l-.7625.7615c-.2293.2287-.4089.502-.5278.803z" opacity=".1"/><path d="m64.7609 52.3125-1.1051 1.1037 14.7898 14.7708c.3272.3267.5514.7419.6452 1.1944s.053.9224-.1173 1.352l.4391-.4386c.2203-.2199.3949-.481.5141-.7684.1192-.2873.1806-.5953.1806-.9063 0-.3111-.0614-.6191-.1806-.9064-.1192-.2874-.2938-.5485-.5141-.7684z" opacity=".1"/></g><path d="m17.2215 62.1611c0 6.2385-3.7135 8.4167-8.29433 8.4167-4.58082 0-8.294296-2.1782-8.294296-8.4167s8.294296-14.1748 8.294296-14.1748 8.29433 7.9363 8.29433 14.1748z" fill="#0c97f0"/><path d="m8.70996 64.4025 3.53524-6.4592-3.52191 5.6402.03822-2.3476 2.43649-4.6732-2.42638 4.0519.06866-4.2222 2.60902-3.7205-2.59824 3.0566.04289-7.7422-.2581 9.8102-2.64199-4.0388 2.60999 4.8666-.2471 4.7155-.00733-.1251-3.05798-4.2673 3.04864 4.7095-.03088.5897-.00556.0089.00256.0484-.62709 6.2925h.83785l.10056-.5083 3.04118-4.6979-3.03363 4.2333z" fill="#3f3d56"/></g></svg>