<svg fill="none" height="117" viewBox="0 0 267 117" width="267" xmlns="http://www.w3.org/2000/svg"><clipPath id="a"><path d="m0 0h267v117h-267z"/></clipPath><g clip-path="url(#a)"><path d="m79.4328 96.335c-.9179 7.161-4.2933 13.713-7.8941 20.024-.1191.215-.2416.427-.3671.642h-37.4251c-.7569-.196-1.5041-.411-2.2481-.642-4.227-1.281-8.2177-3.236-11.8169-5.788-13.76869-9.878-19.066888-28.5423-16.67381-45.2668 1.48802-10.3906 6.06784-20.9993 14.98611-26.5954 4.7087-2.9601 10.7572-3.9222 16.1778-2.8222.1418.0257.2835.0577.4284.0866 4.6636 1.0455 8.8183 3.6431 11.1825 7.8282 4.2513 7.5204 1.7198 16.8367-.3704 25.2069-2.0839 8.3702-3.2144 18.3888 2.8342 24.5623-1.9969-5.8528-.0258-12.8344 4.7442-16.7918 3.604-2.9857 8.6219-4.1049 13.1986-3.1781.438.093.8697.1988 1.2947.3271 1.0275.2996 2.0181.7127 2.9534 1.2315 7.134 3.967 10.023 13.1037 8.9956 21.1757z" fill="#f2f2f2"/><path d="m57.2427 116.358c1.037.241 2.0773.452 3.124.642h-5.6588c-.7408-.199-1.4784-.411-2.2093-.642-1.6073-.5-3.1898-1.074-4.7475-1.722-6.2482-2.61-12.0037-6.529-16.3582-11.744-2.1296-2.526-3.8686-5.355-5.1596-8.3926-1.3999-3.4332-2.2896-7.0513-2.6409-10.7402-.7892-7.5684.016-15.3454 1.5201-22.7792 1.5521-7.7047 4.0577-15.1881 7.4593-22.2789.409-.8498.832-1.6943 1.2689-2.5335.0301-.069.0756-.1304.1331-.1793.0574-.0489.1254-.0841.1986-.1029.1487-.0287.3027.0025.4284.0866.1508.0862.2626.2267.3124.3926.0497.1659.0336.3445-.0451.4989-3.5072 6.8103-6.1657 14.0217-7.9166 21.474-1.7134 7.2702-2.6861 14.8772-2.3544 22.3527.3156 6.9848 2.1484 13.8541 6.3063 19.5658 3.7972 5.214 9.0405 9.326 14.8412 12.126 3.6715 1.749 7.5282 3.083 11.4981 3.976z" fill="#fff"/><path d="m69.6618 117h-1.6684c-.1868-.212-.3672-.427-.5443-.642-3.8001-4.597-6.3745-10.075-7.4851-15.926-1.3486-7.3011-.2995-14.841 2.9921-21.5024.9183-1.8679 2.0004-3.6515 3.2336-5.33.438.093.8697.1988 1.2948.3271-3.2438 4.2794-5.4256 9.2617-6.3674 14.5405-.8402 4.9464-.5609 10.0172.8176 14.8428 1.3786 4.825 3.8215 9.283 7.1506 13.048.1867.215.38.43.5765.642z" fill="#fff"/><path d="m219.955 111.546c.242 1.89 1.133 3.619 2.083 5.285.031.057.064.113.097.169h9.877c.2-.051.397-.108.593-.169 1.116-.338 2.169-.854 3.119-1.528 3.634-2.607 5.032-7.533 4.4-11.946-.392-2.743-1.601-5.5426-3.955-7.0195-1.278-.7751-2.803-1.0411-4.269-.7448-.038.0068-.075.0152-.113.0228-.611.1176-1.189.3624-1.698.7185s-.936.8153-1.254 1.3476c-1.122 1.9847-.453 4.4434.098 6.6524.55 2.209.849 4.853-.748 6.483.234-.682.282-1.413.138-2.119-.144-.705-.474-1.36-.956-1.897s-1.099-.936-1.788-1.156c-.688-.221-1.423-.255-2.129-.099-.116.025-.23.053-.342.086-.271.08-.533.189-.779.325-1.883 1.047-2.646 3.459-2.374 5.589z" fill="#f2f2f2"/><path d="m225.811 116.831c-.274.063-.548.119-.825.169h1.494c.195-.052.39-.108.583-.169.424-.132.842-.284 1.253-.455 1.667-.674 3.148-1.737 4.317-3.099.562-.667 1.021-1.413 1.362-2.215.369-.906.604-1.861.697-2.835.169-2.012.034-4.039-.401-6.011-.41-2.034-1.071-4.0089-1.969-5.8803-.108-.2243-.22-.4472-.335-.6686-.008-.0183-.02-.0344-.035-.0474-.015-.0129-.033-.0221-.053-.0271-.039-.0076-.079.0006-.113.0228-.039.0228-.069.0599-.082.1037-.013.0437-.009.0909.012.1316.925 1.7974 1.627 3.7006 2.089 5.6673.476 1.929.685 3.914.622 5.899-.034 1.847-.613 3.643-1.665 5.164-1.022 1.37-2.367 2.469-3.917 3.2-.969.462-1.986.814-3.034 1.05z" fill="#fff"/><path d="m222.533 117.001h.441c.049-.056.096-.113.143-.169 1.003-1.214 1.683-2.659 1.976-4.203.356-1.927.079-3.917-.79-5.675-.242-.493-.528-.964-.853-1.407-.116.024-.23.052-.342.086.856 1.13 1.432 2.445 1.68 3.838.222 1.305.148 2.643-.215 3.917-.364 1.273-1.009 2.45-1.888 3.444-.049.056-.1.113-.152.169z" fill="#fff"/><path d="m130.926 68.1511h-30.913l-.3277-9.4641c-.0142-.4102.0611-.8187.2206-1.1972.1591-.3785.3991-.7181.7031-.9954s.665-.4858 1.058-.611c.392-.1252.808-.1642 1.217-.1143l17.989 2.1934h.002c2.667.0071 5.223 1.0666 7.107 2.9463s2.942 4.4263 2.944 7.0819z" fill="#0c97f0"/><path d="m117.149 34.5801h-21.5604c-.2867-.0001-.5707.0561-.8356.1653s-.5057.2694-.7084.4713c-.2028.2018-.3636.4415-.4733.7053s-.1661.5466-.166.8321v21.4682c-.0001.2855.0563.5682.166.832s.2705.5035.4733.7054c.2027.2019.4435.362.7084.4713.2649.1092.5489.1654.8356.1653h21.5604c.287.0001.571-.0561.836-.1653.265-.1093.505-.2694.708-.4713s.364-.4416.473-.7054c.11-.2638.166-.5465.166-.832v-21.4682c0-.2855-.056-.5683-.166-.8321-.109-.2638-.27-.5035-.473-.7054-.203-.2018-.443-.362-.708-.4712s-.549-.1654-.836-.1653z" fill="#ccc"/><path d="m112.293 50.6344-10.179 1.9739c-.604.1164-1.23-.0105-1.74-.3528-.5097-.3422-.8626-.872-.9808-1.473l-.7825-4.001c-.1169-.6013.0105-1.2241.3543-1.732.3437-.5078.8757-.8591 1.479-.9768l10.18-1.9739c.604-.1164 1.229.0105 1.739.3528.51.3422.863.872.981 1.473l.783 4.001c.117.6013-.011 1.2241-.354 1.732-.344.5078-.876.8591-1.48.9768z" fill="#3f3d56"/><path d="m110.256 45.9071-7.769 1.5063c-.142.0276-.289-.0022-.409-.0828-.12-.0805-.203-.2053-.231-.3468-.028-.1414.002-.2881.083-.4076s.206-.2022.348-.2297l7.769-1.5064c.142-.0276.289.0022.409.0828.121.0806.203.2053.231.3468s-.002.2881-.083.4077c-.081.1195-.206.2021-.348.2297z" fill="#fff"/><path d="m108.747 48.1375-4.019.7792c-.142.0275-.289-.0022-.409-.0828s-.203-.2053-.231-.3468c-.027-.1415.002-.2881.083-.4077.081-.1195.207-.2021.349-.2297l4.018-.7791c.07-.0137.143-.0134.213.0008s.137.0421.196.082c.06.0398.111.091.15.1505.04.0595.067.1262.081.1963.014.07.013.1421-.001.212-.014.07-.042.1364-.082.1956s-.092.1099-.151.1494c-.06.0394-.127.0667-.197.0803z" fill="#fff"/><path d="m119.332 36.7541v2.8534h-25.9267v-2.8534c-.0001-.2855.0563-.5683.166-.8321s.2705-.5035.4733-.7053c.2027-.2019.4435-.3621.7084-.4713s.5489-.1654.8356-.1653h21.5604c.287-.0001.571.0561.836.1653s.505.2694.708.4713c.203.2018.364.4415.473.7053.11.2638.166.5466.166.8321z" fill="#b3b3b3"/><path d="m171.106 40.5012c-.15-.4811-.404-.9237-.744-1.2965-.34-.3729-.758-.667-1.224-.8616-.467-.1946-.97-.285-1.476-.2648-.505.0202-1 .1505-1.449.3817l-29.662-10.5967-1.307 7.3784 29.568 8.0961c.44.726 1.132 1.2659 1.945 1.5176.814.2516 1.691.1975 2.467-.1521.776-.3497 1.396-.9706 1.743-1.745.347-.7745.396-1.6487.139-2.4571z" fill="#ffb8b8"/><path d="m171.106 40.5012c-.15-.4811-.404-.9237-.744-1.2965-.34-.3729-.758-.667-1.224-.8616-.467-.1946-.97-.285-1.476-.2648-.505.0202-1 .1505-1.449.3817l-29.662-10.5967-1.307 7.3784 29.568 8.0961c.44.726 1.132 1.2659 1.945 1.5176.814.2516 1.691.1975 2.467-.1521.776-.3497 1.396-.9706 1.743-1.745.347-.7745.396-1.6487.139-2.4571z" fill="#000" opacity=".2"/><path d="m141.815 29.2081-2.801 7.2864c-.079.2073-.203.3951-.362.5505-.159.1555-.35.2749-.56.3503-.21.0753-.433.1048-.655.0863-.223-.0184-.438-.0843-.632-.1931l-6.808-3.8152c-1.063-.4121-1.918-1.227-2.378-2.266-.461-1.0391-.489-2.2176-.078-3.277.411-1.0595 1.227-1.9135 2.269-2.3748 1.042-.4614 2.226-.4924 3.291-.0863l7.602 1.6787c.217.0482.422.1424.6.2764.177.134.324.3046.43.5001.105.1955.167.4114.182.6329.014.2215-.02.4435-.1.6508z" fill="#0c97f0"/><path d="m173.44 47.248-10.628 4.8105 1.395 5.2309c2.695 10.1013 3.41 20.6248 2.106 30.9954l7.771 1.6161 6.442-16.3556-2.255-18.6005z" fill="#0c97f0"/><g fill="#3f3d56"><path d="m194.295 71.4609c-6.983 0-12.674 5.0549-12.95 11.3848h25.9c-.276-6.3299-5.967-11.3848-12.95-11.3848z"/><path d="m188.859 72.5514c-.364-28.5737-16.707-25.9449-16.707-25.9449s.306 8.894.453 9.1706c10.414 19.6202-6.774 42.622-28.652 38.3904-.413-.0798-.809-.1607-1.189-.2428-2.772-.5763-5.22-2.1824-6.845-4.4917s-2.306-5.1483-1.904-7.9395c2.156-17.2329-8.564-16.928-8.564-16.928h-15.674l-8.14-7.2945c-.287-.2575-.634-.441-1.009-.5344-.374-.0934-.7668-.0939-1.142-.0015-.3753.0924-.722.275-1.0101.5317-.288.2567-.5084.5798-.6421.9409l-1.0472 2.8302s-15.4596 1.6035-14.1713 16.6763h4.7796c-.0116.4283.0057.8568.0516 1.2828l35.6705-.2888c2.09-.0169 3.936 1.6701 3.945 3.7521.002.5069-.099 1.009-.296 1.4762-.197.4673-.487.8902-.852 1.2434-.365.3531-.798.6293-1.273.812s-.982.2682-1.491.2513l-5.751-.1909c-1.771 7.8571 2.577 13.1487 7.368 16.4757 4.511 3.087 9.863 4.724 15.336 4.69h15.623c20.291 0 23.834-16.9966 23.834-16.9966 10.628-4.4898 9.299-17.67 9.299-17.67z"/><path d="m193.329 116.518c10.005 0 18.116-8.076 18.116-18.0393 0-9.9628-8.111-18.0392-18.116-18.0392-10.006 0-18.117 8.0764-18.117 18.0392 0 9.9633 8.111 18.0393 18.117 18.0393z"/></g><path d="m193.328 102.901c2.452 0 4.44-1.979 4.44-4.421 0-2.4419-1.988-4.4214-4.44-4.4214s-4.44 1.9795-4.44 4.4214c0 2.442 1.988 4.421 4.44 4.421z" fill="#fff"/><path d="m101.859 116.519c11.518 0 20.855-9.297 20.855-20.7655 0-11.4683-9.337-20.7652-20.855-20.7652-11.5173 0-20.8541 9.2969-20.8541 20.7652 0 11.4685 9.3368 20.7655 20.8541 20.7655z" fill="#3f3d56"/><path d="m101.859 100.843c2.823 0 5.112-2.2786 5.112-5.0894 0-2.8109-2.289-5.0895-5.112-5.0895-2.8225 0-5.111 2.2786-5.111 5.0895 0 2.8108 2.2885 5.0894 5.111 5.0894z" fill="#fff"/><path d="m162.842 53.4802-3.824-10.3424c-.2-.539-.29-1.1118-.267-1.6858.023-.5739.159-1.1377.401-1.6592.242-.5214.584-.9903 1.008-1.3799.424-.3897.921-.6923 1.462-.8908l10.964-4.0187c.952-.3492 1.964-.5083 2.979-.468 1.014.0403 2.01.2791 2.932.7028.921.4236 1.75 1.0239 2.438 1.7665.689.7425 1.224 1.6129 1.574 2.5613.317.8512.478 1.7517.477 2.6594-.004 1.1524-.266 2.2895-.766 3.3285-.501 1.039-1.228 1.9539-2.128 2.6781-.651.5195-1.382.93-2.165 1.2152z" fill="#3f3d56"/><path d="m182.825 40.7248c-.001 1.129-.256 2.2434-.746 3.2613-.491 1.0178-1.204 1.9133-2.088 2.6203-1.356-.3561-2.618-1.0021-3.698-1.893-1.08-.8908-1.952-2.0052-2.556-3.2657-.604-1.2604-.925-2.6367-.941-4.0331-.015-1.3964.275-2.7794.85-4.053 1.105-.2392 2.249-.229 3.35.0298 1.1.2589 2.128.7598 3.008 1.466.881.7062 1.591 1.5998 2.079 2.6151s.742 2.1266.742 3.2523z" fill="#0c97f0"/><path d="m85.3528 79.7983c2.4903 0 4.509-2.4409 4.509-5.4519s-2.0187-5.4519-4.509-5.4519-4.509 2.4409-4.509 5.4519 2.0187 5.4519 4.509 5.4519z" fill="#0c97f0"/><path d="m144.957 93.6445h3.948l1.879-10.1972-5.828.0003z" fill="#ffb8b8"/><path d="m143.949 92.3617 7.776-.0004h.001c.65 0 1.295.1276 1.896.3756s1.148.6114 1.608 1.0696.825 1.0022 1.074 1.6009c.249.5986.377 1.2403.377 1.8883v.1603l-12.732.0005z" fill="#2f2e41"/><path d="m149.54 89.46c-.046 0-.092-.0022-.138-.0065l-5.465-.3962c-.221-.0204-.434-.0911-.623-.2066-.19-.1155-.35-.2727-.468-.4596-.119-.1868-.193-.3982-.216-.618-.024-.2197.004-.4419.08-.6494l7.313-16.3603c.053-.1458.074-.3009.063-.4554-.011-.1544-.054-.305-.126-.4422-.072-.1388-.172-.2608-.295-.3581-.123-.0972-.265-.1675-.417-.2062-3.439-.8951-12.262-3.2784-19.9-6.067-3.272-1.1948-5.333-2.9213-6.125-5.1318-1.045-2.9141.5-5.5718.567-5.6833l.052-.0874 7.187.6505 7.791.6599 17.074 9.1167c1.431.7704 2.518 2.0491 3.044 3.5815s.454 3.206-.204 4.6874l-7.871 17.5767c-.114.2546-.3.4708-.534.6226-.235.1518-.509.2326-.789.2327z" fill="#2f2e41"/><path d="m132.278 20.6147c4.369 0 7.91-3.5265 7.91-7.8767 0-4.35016-3.541-7.87667-7.91-7.87667s-7.911 3.52651-7.911 7.87667c0 4.3502 3.542 7.8767 7.911 7.8767z" fill="#ffb8b8"/><path d="m142.702 94.6074h3.948l1.879-10.1972-5.828.0003z" fill="#ffb8b8"/><path d="m141.694 93.3246 7.776-.0004h.001c.651 0 1.295.1276 1.896.3756s1.148.6114 1.608 1.0696.825 1.0022 1.074 1.6008c.249.5987.377 1.2404.377 1.8884v.1603l-12.731.0005z" fill="#2f2e41"/><path d="m147.285 90.4229c-.046 0-.092-.0022-.138-.0065l-5.465-.3962c-.221-.0204-.434-.0911-.623-.2066-.19-.1155-.35-.2727-.468-.4595-.119-.1869-.193-.3983-.216-.6181-.024-.2197.004-.4419.08-.6494l7.314-16.3603c.052-.1458.073-.3009.062-.4554-.011-.1544-.053-.305-.126-.4422-.072-.1388-.172-.2608-.295-.3581-.123-.0972-.265-.1675-.417-.2062-3.439-.8951-12.262-3.2784-19.9-6.067-3.272-1.1948-5.333-2.9214-6.125-5.1318-1.045-2.9141.501-5.5718.567-5.6833l.052-.0874 7.187.6505 7.791.6599 17.074 9.1167c1.431.7704 2.518 2.0491 3.044 3.5815s.454 3.206-.203 4.6874l-7.872 17.5767c-.114.2546-.3.4708-.534.6226-.235.1518-.509.2326-.789.2327z" fill="#2f2e41"/><path d="m134.718 25.0816-8.374-2.8863s-5.257 4.0216-2.732 13.998c1.319 5.1483.935 10.5826-1.095 15.4962-.244.608-.526 1.2004-.843 1.7739 0 0 9.34 11.2244 18.036 2.8863l-3.382-16.1953s5.314-10.7434-1.61-15.0728z" fill="#0c97f0"/><path d="m133.26 20.8827c-1.126-1.6779-2.014-4.0047-.775-5.6012 1.224-1.576 3.637-1.3438 5.511-2.0412 2.61-.9713 4.124-4.02451 3.652-6.75889s-2.677-5.0011-5.303-5.928566c-2.626-.927468-5.587-.6258337-8.159.442203-3.166 1.314763-5.882 3.858093-7.02 7.079813-1.139 3.22174-.53 7.09004 1.832 9.56634 2.533 2.6548 6.508 3.3623 10.185 3.3194" fill="#2f2e41"/><path d="m125.901 6.56963c-1.418 1.14998-3.583.63921-5.106-.37004s-2.758-2.44637-4.406-3.23766c-2.905-1.39502-6.417-.46766-9.244 1.07758-2.827 1.54523-5.333 3.68-8.3197 4.89262-2.9863 1.21257-6.7971 1.27257-9.0583-1.01714-.5565 1.60536-.602 3.34261-.1303 4.97461.4717 1.6321 1.4376 3.0795 2.766 4.1447 1.3283 1.0653 2.9544 1.6965 4.6563 1.8076s3.397-.3034 4.853-1.1868c3.273-1.9846 5.08-6.1458 8.75-7.2412 2.031-.60613 4.211-.1179 6.264.4108 2.053.5288 4.193 1.1002 6.264.65 2.071-.4501 4.009-2.30359 3.745-4.39827z" fill="#2f2e41"/><path d="m170.712 40.1808c-.208-.459-.515-.867-.898-1.1953-.384-.3282-.835-.5687-1.322-.7045s-.998-.1636-1.498-.0815c-.499.0822-.973.2723-1.391.5569l-30.748-6.8716-.382 7.4825 30.345 4.4017c.526.6664 1.28 1.1171 2.118 1.267.839.1498 1.703-.0117 2.429-.454.727-.4423 1.265-1.1347 1.514-1.9458.248-.8112.189-1.6848-.167-2.4554z" fill="#ffb8b8"/><path d="m140.246 32.5722-1.877 7.5748c-.053.2155-.153.417-.291.5908-.139.1738-.314.3158-.513.4164-.198.1005-.416.1572-.639.1662s-.445-.0299-.651-.114l-7.229-2.9497c-1.106-.2777-2.057-.9811-2.643-1.956-.586-.9748-.76-2.1414-.484-3.2437.277-1.1024.982-2.0505 1.959-2.6363.978-.5857 2.149-.7614 3.257-.4883l7.751.732c.222.021.437.0894.63.2005.193.1112.36.2624.489.4435.129.181.217.3876.259.6057.041.2181.035.4425-.018.6581z" fill="#0c97f0"/><path d="m167.16 46.1265c1.245 0 2.254-1.0051 2.254-2.2449s-1.009-2.2449-2.254-2.2449-2.255 1.0051-2.255 2.2449 1.01 2.2449 2.255 2.2449z" fill="#0c97f0"/><path d="m267 116.68c0 .085-.034.166-.095.227-.06.06-.142.094-.227.094h-266.355925c-.08542 0-.167341-.034-.2277417-.094-.0604008-.06-.0943333-.142-.0943333-.227s.0339325-.167.0943333-.227c.0604007-.06.1423217-.094.2277417-.094h266.355925c.085.001.167.035.227.095.061.06.095.141.095.226z" fill="#3f3d56"/></g></svg>