<svg fill="none" height="187" viewBox="0 0 232 187" width="232" xmlns="http://www.w3.org/2000/svg"><clipPath id="a"><path d="m0 0h232v187h-232z"/></clipPath><g clip-path="url(#a)"><path d="m132.166 165.434c-1.604-2.246-3.776-3.889-6.506-4.504-2.381-.536-4.829-.445-7.249-.426l-30.5997.236c-2.6207.02-5.1334 2.29-5.0116 5.01.1208 2.697 2.2025 5.032 5.0116 5.01 8.9637-.069 17.9277-.138 26.8907-.207 2.113-.016 4.228-.054 6.341-.048.475.002.947.027 1.422.032.114.002.197.001.256-.002.015.005.027.009.046.014.247.068.501.115.75.179-.087.003.161.158.286.21.017.034.054.094.115.187.085.159.337.644.348.629.378.958.691 1.941.935 2.941.583 2.207.711 2.668.794 4.739.106 2.615 2.23 5.135 5.012 5.01 2.624-.117 5.125-2.205 5.012-5.01-.192-4.727-1.022-10.036-3.853-14z" fill="#e6e6e6"/><path d="m89.6104 176.742c-.5748-3.482-1.1385-6.967-1.7244-10.447-.5945-3.53-1.8087-6.763-4.5568-9.08-.7343-.619-1.4956-1.197-2.2602-1.773-.2689-.203-.5373-.406-.8029-.613-.016-.012-.0261-.02-.0398-.03-.0292-.026-.0643-.055-.1114-.095-1.1454-.969-2.2521-1.982-3.3063-3.057-.9362-.956-1.8314-1.952-2.6858-2.989-.2135-.259-.4243-.521-.6323-.784-.0358-.046-.2285-.295-.3554-.457-.1181-.163-.3339-.456-.3702-.508-.243-.343-.4817-.69-.716-1.04-1.5963-2.391-2.9785-4.918-4.1306-7.552-.1142-.261-.2258-.523-.3346-.788-.0292-.08-.067-.184-.1172-.322-.2321-.638-.4639-1.276-.6761-1.922-.4511-1.371-.8388-2.763-1.1633-4.176-.1605-.697-.3049-1.398-.4333-2.102-.0662-.363-.1282-.726-.1858-1.089-.0095-.061-.0658-.453-.099-.675-.0245-.223-.07-.617-.0761-.678-.0368-.367-.0693-.734-.0978-1.101-.0641-.827-.1074-1.655-.13-2.485-.0385-1.474-.0121-2.948.0793-4.422.052-.828.126-1.654.2171-2.478.0056-.051.0098-.091.0138-.128.0055-.036.0119-.078.0196-.13.0674-.456.1384-.911.2178-1.365.3006-1.722.6915-3.427 1.1712-5.108.2271-.795.4738-1.584.7401-2.366.1187-.347.2411-.693.3674-1.037-.0083.022.3703-.945.3753-.977 1.5019-3.548 3.9585-6.782 3.9618-10.812.0023-2.7285-2.3067-5.3422-5.0116-5.2161-1.3486.0508-2.6249.623-3.5598 1.596-.9349.9731-1.4554 2.2709-1.4518 3.6201 0 .0613-.0004.1136-.0005.1643-.0252.085-.0463.1558-.0653.2185-.2929.6363-.6517 1.241-.9732 1.8614-.8803 1.6984-1.6317 3.4524-2.3455 5.2318-1.1686 2.899-2.063 5.9-2.6716 8.965-1.323 6.716-1.4256 13.615-.3032 20.367 1.9432 11.84 8.3512 23.175 17.2598 30.794.7731.661 1.5651 1.3 2.3645 1.926.3308.259.6644.513.9996.766.1585.119.8149.637.5262.386.6209.53.8823.796 1.0418 1.187.0231.09.0546.212.0973.379.1124.44.2192.879.3079 1.325.7754 3.899 1.3144 7.864 1.9621 11.788.4452 2.696 3.7656 4.451 6.165 3.643 2.7927-.941 3.9772-3.527 3.5002-6.416z" fill="#e6e6e6"/><path d="m132.673 186.853c-2.105.005-4.126-.824-5.619-2.307-1.494-1.482-2.339-3.496-2.349-5.6v-5.715c-5.986.669-26.4816.514-32.3566-.429v5.915c-.0158 2.103-.8623 4.114-2.355 5.595s-3.5105 2.312-5.6136 2.312-4.121-.831-5.6136-2.312c-1.4927-1.481-2.3392-3.492-2.355-5.595v-11.615c-7.9573-4.419-14.5909-10.881-19.2161-18.719s-7.0744-16.768-7.095-25.868c0-15.604 7.0736-30.1602 19.4072-39.9363 8.0191-6.3778 17.7624-10.2134 27.9783-11.0142 1.3866-.1087 2.7814-.1637 4.1464-.1637 4.809 0 26.505.7426 31.949 2.3083l12.412-12.3132c.183-.1835.416-.3085.67-.3591.254-.0505.517-.0244.756.0751.24.0958.446.262.591.477.144.215.22.4686.218.7276v1.9577l2.417-2.393c.182-.1837.415-.3088.669-.3595.253-.0507.516-.0245.755.0751.241.0957.447.262.592.477.145.2151.221.4689.219.728v21.8775c6.228 5.6135 10.975 12.6763 13.82 20.5627 2.845 7.886 3.701 16.352 2.49 24.648-1.21 8.296-4.448 16.165-9.428 22.91s-11.548 12.158-19.12 15.759v10.387c-.011 2.104-.855 4.118-2.349 5.6-1.494 1.483-3.515 2.312-5.62 2.307zm-7.342-14.333v6.426c.016 1.936.796 3.788 2.172 5.151 1.375 1.364 3.233 2.129 5.17 2.129s3.796-.765 5.171-2.129c1.375-1.363 2.155-3.215 2.171-5.151v-10.782l.179-.085c8.497-4.031 15.711-10.338 20.839-18.219 6.536-10.058 9.254-22.122 7.662-34.01-1.591-11.887-7.387-22.8124-16.338-30.7979l-.104-.0935v-22.1568c.002-.1346-.037-.2667-.112-.3784-.075-.1118-.183-.1978-.308-.2465-.125-.0534-.263-.0678-.396-.0413-.133.0264-.255.0925-.35.1894l-3.485 3.451v-3.4595c.002-.1346-.037-.2667-.112-.3784-.076-.1118-.183-.1978-.309-.2465-.125-.0533-.263-.0675-.396-.0409-.134.0266-.256.0929-.351.1901l-12.678 12.5769-.18-.0565c-5.061-1.5834-27.098-2.3341-31.944-2.3341-1.348 0-2.7271.0544-4.0972.1619-10.0918.7909-19.7166 4.58-27.6383 10.8804-12.1828 9.6566-19.17 24.0336-19.17 39.4456.0208 9.019 2.457 17.869 7.0555 25.629 4.5984 7.761 11.1914 14.148 19.0941 18.5l.1616.09v11.983c.0161 1.936.7968 3.788 2.1719 5.151 1.3752 1.363 3.2335 2.128 5.1702 2.128s3.795-.765 5.1701-2.128c1.3752-1.363 2.1558-3.215 2.172-5.151v-6.665l.3711.07c5.2797.993 27.511 1.149 32.884.445z" fill="#3f3d56"/><path d="m90.2088 37.3005-34.6869 10.4213c-1.1032.3328-2.0292 1.0898-2.5746 2.1047-.5453 1.015-.6653 2.2048-.3336 3.3081.3316 1.1034 1.0878 2.03 2.1024 2.5763s2.2046.6676 3.3086.3373l30.3548-9.1218.6359-.191c.1287-3.2759 1.0177-6.477 2.5967-9.3504-.1982-.0891-.41-.1442-.6265-.1628-.2616-.0253-.5255.0013-.7768.0783z" fill="#0c97f0"/><path d="m57.425 58.2703c-.4605-.0011-.909-.1469-1.282-.4167-.3731-.2698-.652-.6499-.7972-1.0868l-2.169-6.5434c-.0906-.2732-.1265-.5616-.1056-.8488.0209-.2871.0982-.5673.2275-.8245.1292-.2573.3079-.4865.5257-.6747.2179-.1882.4708-.3317.7441-.4222l28.2316-9.3536c.2733-.0906.5618-.1264.8489-.1055.2872.0208.5675.0981.8248.2272.2573.1292.4866.3078.6749.5255.1883.2178.3318.4705.4224.7438l2.1691 6.5433c.1804.5382.1443 1.1255-.1009 1.6375s-.68.9085-1.2125 1.1054c-.0261.0098-.0524.0191-.079.0277l-28.231 9.3533c-.2231.0743-.4567.1123-.6918.1125z" fill="#2f2e41"/><path d="m110.296 25.6797c-5.698.0022-11.1714 2.2208-15.2619 6.1863-4.0906 3.9656-6.4772 9.3667-6.6547 15.0603-.0062.2223-.0093.4478-.0093.6733 0 4.3353 1.2859 8.5733 3.6952 12.178 2.4092 3.6047 5.8336 6.4142 9.8397 8.0733 4.007 1.659 8.415 2.0931 12.669 1.2473 4.253-.8457 8.16-2.9334 11.226-5.999 3.066-3.0655 5.155-6.9713 6.001-11.2233s.411-8.6594-1.248-12.6647c-1.66-4.0053-4.47-7.4288-8.076-9.8373-3.605-2.4086-7.844-3.6942-12.181-3.6942zm0 43.2134c-5.647-.0058-11.0613-2.2512-15.0545-6.2432-3.9931-3.9921-6.239-9.4047-6.2449-15.0503 0-.2913.0062-.5794.0188-.8643.1696-4.1711 1.5619-8.2004 4.0037-11.5867 2.4419-3.3864 5.8256-5.9805 9.7299-7.4597 3.905-1.4793 8.159-1.7784 12.232-.8603 4.074.9182 7.787 3.0131 10.679 6.0244 2.892 3.0112 4.835 6.8059 5.587 10.9122.752 4.1062.28 8.3429-1.357 12.1833-1.637 3.8403-4.367 7.1148-7.851 9.4163s-7.567 3.5285-11.743 3.5283z" fill="#3f3d56"/><path d="m128.777 47.6003c0 4.8999-1.947 9.5992-5.413 13.064s-8.166 5.4113-13.068 5.4113c-4.901 0-9.602-1.9465-13.0673-5.4113-3.4657-3.4648-5.4128-8.1641-5.4128-13.064 0-.5856.0282-1.1618.0814-1.7317.4453-4.729 2.6954-9.1048 6.283-12.2189 3.5877-3.1141 8.2367-4.7272 12.9827-4.5043 4.746.2228 9.224 2.2645 12.504 5.701 3.28 3.4366 5.11 8.004 5.11 12.7539z" fill="#e6e6e6"/><path d="m58.4314 84.7903c-.4842-.0008-.9546-.1613-1.3383-.4566s-.6592-.7089-.7838-1.1767l-1.1809-4.4685c-.1479-.5617-.0668-1.159.2253-1.661.2922-.502.7715-.8676 1.333-1.0167l37.2555-9.842c.5622-.1466 1.1596-.0647 1.6616.2278.5019.2926.8675.772 1.0168 1.3333l1.0004 3.7859-.1874.0145c-9.5549.7427-18.697 4.206-26.3448 9.9801l-.0543.0263-12.0468 3.1814c-.1816.0479-.3685.0722-.5563.0722z" fill="#2f2e41"/><path d="m52.2615 106.861c-4.3702-.645-8.5499-2.225-12.2541-4.632-1.8351-1.191-3.534-2.5801-5.0661-4.1419-1.5123-1.542-2.9589-3.2946-3.708-5.3482-.7206-1.8999-.6835-4.0041.1038-5.8774.7765-1.8619 2.2599-3.34 4.1248-4.1101 1.8761-.748 4.1428-.828 5.9687-.0089.8701.3813 1.623.9872 2.1814 1.7554.2596.3542.4518.7532.567 1.1769.107.3839.1167.7885.0283 1.1771-.107.388-.2958.7487-.5537 1.0577-.2579.3091-.5789.5595-.9416.7344-.798.4093-1.6627.673-2.5534.7786-.8959.1221-2.1828.2332-2.903-.4857-.1483-.1423-.2649-.3141-.3423-.5044-.0541-.1457-.0726-.3023-.054-.4566-.0105.068.0435-.1479.0404-.1393-.0114.0319-.0607.1097.0094-.0098.0219-.0394.0463-.0774.073-.1137-.0238.0308-.076.0821.0173-.006.0772-.0844.1763-.1456.2864-.1767.0433-.0126.0873-.0227.1308-.0346.1105-.0301-.1101.0017.0029-.0019.0436-.0014.0878-.0004.1313-.0023.1108-.005-.1094-.0303-.0032-.0035.0413.0103.0822.0205.1228.0333.0884.0278-.0626-.0648-.0027.0045.0702.0812-.0737-.079.0061-.0004.0397.039.0771.0802.112.1235.1383.1365.3249.213.5192.213.1944 0 .3809-.0765.5192-.213.1336-.1398.2081-.3257.2081-.519 0-.1934-.0745-.3793-.2081-.5191-.724-.8972-2.1541-.6755-2.8865.0828-.934.9671-.5642 2.4999.3444 3.3437 1.0285.9553 2.4853 1.0217 3.8083.8615 1.1182-.1071 2.2078-.4149 3.2166-.9087 1.0024-.4924 1.7864-1.3391 2.2001-2.3762.1868-.5535.2539-1.1403.1969-1.7216-.0571-.5813-.2369-1.1439-.5278-1.6506-1.1681-2.1955-3.5869-3.3211-5.9777-3.516-1.2309-.0964-2.4687.0522-3.6418.4372s-2.2582.9987-3.1925 1.8057c-1.8007 1.6207-2.9096 3.8713-3.0972 6.2863-.2087 2.5039.763 4.9355 2.1798 6.9563 1.4832 2.0531 3.2531 3.8827 5.2558 5.4337 3.9151 3.125 8.5076 5.29 13.4099 6.323.5831.12 1.1693.223 1.7587.309.1875.046.3853.018.5531-.077.1678-.096.293-.251.35-.436.0504-.187.0248-.387-.0712-.556-.0959-.169-.2546-.294-.4416-.347z" fill="#3f3d56"/><path d="m122.232 74.9598c-6.403-.0904-12.786.0721-19.149.4873-2.174.142-4.0561.9105-4.0561 2.202 0 1.0799 1.8671 2.345 4.0561 2.202 6.36-.4151 12.743-.5776 19.149-.4873 5.223.0737 5.22-4.3304 0-4.404z" fill="#ccc"/><path d="m112.768 79.1465c-.692 0-16.9472-.0259-16.9472-2.2706 0-2.2446 16.2552-2.2704 16.9472-2.2704s16.948.0258 16.948 2.2704c0 2.2447-16.256 2.2706-16.948 2.2706zm-16.3116-2.2706c.4449.6806 6.4196 1.6443 16.3116 1.6443s15.867-.9637 16.312-1.6443c-.445-.6804-6.42-1.6441-16.312-1.6441s-15.8667.9637-16.3116 1.6441z" fill="#3f3d56"/><path d="m164.342 138.158c3.599-.1 8.077-.224 11.527-2.744 1.028-.781 1.872-1.777 2.474-2.919.601-1.141.946-2.401 1.01-3.689.07-1.99-.649-3.727-2.025-4.89-1.802-1.522-4.434-1.879-7.269-1.046l2.938-21.465-2.157-.296-3.454 25.235 1.801-.826c2.088-.957 4.954-1.445 6.735.06.438.394.779.883.996 1.429.218.547.306 1.136.259 1.722-.053.959-.311 1.896-.759 2.746-.447.85-1.072 1.594-1.833 2.181-2.685 1.961-6.255 2.214-10.303 2.327z" fill="#3f3d56"/><path d="m158.379 103.256h-11.725v2.176h11.725z" fill="#3f3d56"/><path d="m63.7373 94.7998c-.5219-.0016-1.0261-.189-1.4224-.5286-.3962-.3395-.6586-.809-.7401-1.3244l-.7157-4.566c-.0894-.5743.0528-1.1606.3952-1.6302.3425-.4696.8574-.7842 1.4316-.8748l38.0671-5.963c.574-.0893 1.161.0528 1.63.3952.47.3423.785.857.875 1.431l.716 4.5663c.089.5742-.053 1.1605-.395 1.6301-.343.4697-.857.7843-1.432.8748l-38.0666 5.9629c-.1135.0177-.2282.0267-.3431.0267z" fill="#2f2e41"/><path d="m47.9829 41.29c8.8225 0 15.9746-7.1501 15.9746-15.9702s-7.1521-15.97019-15.9746-15.97019-15.9746 7.15009-15.9746 15.97019 7.1521 15.9702 15.9746 15.9702z" fill="#0c97f0"/><g fill="#2f2e41"><path d="m57.0278 29.4511c.5105-.1785.9769-.4642 1.3678-.838.2586-.2664.4558-.5862.5778-.9369s.1659-.7238.1284-1.0932c-.0217-.2632-.104-.5179-.2405-.7441s-.3235-.4178-.5463-.5598c-.5781-.3555-1.3421-.342-2.1133.0154l-.0891-6.234-.6263.009.1046 7.3286.4768-.3126c.553-.362 1.3475-.6244 1.9191-.2729.1413.093.2593.2174.3448.3635.0854.1461.136.3099.1478.4787.0264.2752-.0069.5528-.0975.814s-.2364.4998-.4275.6996c-.6791.6736-1.6842.8993-2.8314 1.1057l.1111.6163c.6098-.0925 1.2101-.2396 1.7937-.4393z"/><path d="m62.563 18.6238-3.3359.5051.0937.6192 3.336-.5051z"/><path d="m52.0332 20.2176-3.3359.5051.0938.6191 3.3359-.5051z"/><path d="m58.5399 94.5199c-.5745-.0012-1.135-.1773-1.607-.5048-.4719-.3275-.8329-.791-1.0349-1.3286l-11.0141-29.4882c-1.3462-3.6165-1.2024-7.6192.3997-11.1299 1.6022-3.5107 4.5319-6.2427 8.1465-7.5966l8.9557-3.3432c.3463-.1301.7149-.1905 1.0846-.1777.3698.0128.7333.0987 1.0698.2525.3356.1499.638.3652.8894.6333.2515.268.4469.5835.575.928l20.4026 38.5112c.1324.3473.1949.7173.1838 1.0888-.0112.3715-.0957.7372-.2487 1.0759s-.3716.6438-.643.8978c-.2714.2539-.5904.4517-.9386.5819l-25.2356 9.4206c-.3151.1181-.6488.1787-.9852.179z"/></g><path d="m59.6685 42.1426 20.2435 27.0634-13.6979-26.7794c-.1131-.3124-.2867-.5995-.5109-.8449-.2241-.2454-.4944-.4442-.7955-.5851-.301-.141-.6268-.2212-.9589-.2362-.332-.015-.6638.0355-.9763.1488z" fill="#e6e6e6"/><path d="m91.7218 62.6966-36.145-2.3276c-.5698-.0367-1.1267-.1852-1.639-.437-.5123-.2519-.97-.6022-1.3469-1.0309s-.6657-.9274-.8498-1.4676c-.1841-.5403-.26-1.1115-.2233-1.6811s.1852-1.1263.4372-1.6385c.2519-.5122.6023-.9697 1.0311-1.3466.4288-.3768.9276-.6654 1.468-.8495s1.1118-.26 1.6815-.2233l36.145 2.3275c.2669.0171.5277.0867.7676.2046.24.1179.4543.282.6308.4827.1765.2008.3118.4344.398.6874s.1218.5205.1046.7872l-.2971 4.6124c-.0348.5387-.2821 1.0415-.6877 1.3979s-.9362.5371-1.475.5024z" fill="#0c97f0"/><path d="m82.0635 64.1887c-.0477 0-.0955-.0015-.1435-.0046h-.0001l-29.6802-1.9112c-.2874-.0185-.5683-.0934-.8266-.2204-.2584-.127-.4893-.3036-.6794-.5198s-.3357-.4677-.4286-.7402c-.0928-.2725-.1311-.5606-.1126-.8478l.5076-7.8781c.0185-.2873.0934-.5681.2205-.8264s.3038-.4891.5201-.6791c.2162-.19.4679-.3356.7404-.4284.2726-.0928.5608-.1311.8481-.1125l29.6802 1.9111c.5801.038 1.1213.3044 1.5051.7409s.5787 1.0073.542 1.5873l-.5075 7.8782c-.0279.4221-.1772.8272-.4298 1.1667-.2525.3394-.5978.5987-.9942.7469-.2435.091-.5014.1376-.7615.1374z" fill="#2f2e41"/><path d="m47.8003 14.699c2.1015-1.8069 4.9874-.1905 7.3974-.4735 2.3057-.2707 4.1263-2.3384 4.5914-4.53501.5427-2.56274-.7879-5.13024-2.749-6.72807-2.148-1.75001-4.9967-2.2524-7.6962-1.92863-3.0939.37107-5.9235 1.81288-8.4624 3.55682-2.4508 1.63119-4.7045 3.54039-6.7162 5.68949-1.8014 1.989-3.3276 4.3598-3.815 7.0362-.4429 2.4323-.1047 5.1277 1.3336 7.1882.7627 1.0561 1.7847 1.8979 2.9676 2.4442 1.2333.6054 2.5489 1.0382 3.7437 1.7228 1.8066 1.035 3.5625 3.1811 2.9966 5.4145-.1214.4879-.3608.9384-.6973 1.312-.4042.4487-1.1334-.1442-.7281-.594.7119-.7901.6839-1.8438.3045-2.787-.4512-1.063-1.25-1.9412-2.2658-2.4909-1.2507-.7148-2.6315-1.1561-3.9134-1.8073-1.227-.5948-2.2921-1.4772-3.1046-2.5721-1.5342-2.1315-1.9931-4.9056-1.6452-7.4718.3766-2.7771 1.8038-5.3006 3.5929-7.4153 1.9471-2.30144 4.3388-4.24952 6.7822-5.99961 2.6217-1.87786 5.5182-3.465461 8.7234-4.03967 2.7784-.49775 5.7899-.1913041 8.2195 1.32237 2.2678 1.41292 4.0069 3.84342 4.1799 6.55927.0621 1.2357-.2063 2.46564-.7776 3.56324-.5712 1.0975-1.4247 2.0231-2.4726 2.6814-1.0752.6433-2.3253.9328-3.5739.8278-1.3348-.0854-2.671-.4941-4.0143-.3806-.6079.0369-1.1872.2708-1.6502.6665-.4591.3948-1.0063-.3697-.5509-.7613z" fill="#2f2e41"/><path d="m231.627 187h-231.254147c-.098727-.001-.19331-.04-.263019-.11-.0697095-.07-.10885744-.165-.10885744-.263 0-.099.03914794-.194.10885744-.264.069709-.069.164292-.109.263019-.109h231.254147c.099 0 .194.039.264.109s.109.165.109.264-.039.193-.109.263-.165.11-.264.11z" fill="#3f3d56"/></g><path d="m108.596 55-4.111-7.1724v-1.6903h1.37c.807 0 1.485-.1751 2.033-.5253.548-.3655.899-.868 1.051-1.5076h-4.454v-1.6903h4.431c-.137-.5787-.419-1.0584-.845-1.4391-.426-.3959-1.02-.5938-1.782-.5938h-1.804v-1.6904h10.301v1.6904h-3.586c.533.5786.868 1.2563 1.005 2.0329h2.581v1.6903h-2.535c-.152 1.1269-.586 2.0101-1.302 2.6497-.716.6243-1.637 1.0507-2.764 1.2791l4.477 6.9668z" fill="#0c97f0"/></svg>