<svg width="261" height="161" viewBox="0 0 261 161" fill="none" xmlns="http://www.w3.org/2000/svg">
<g filter="url(#filter0_d_588_1823)">
<g filter="url(#filter1_d_588_1823)">
<rect x="17" y="17" width="218.616" height="118" rx="8.42857" fill="white"/>
</g>
<path d="M63.6014 39.0529C63.6014 39.4997 63.4961 39.9211 63.2854 40.3172C63.0746 40.7134 62.7375 41.0379 62.2739 41.2907C61.8104 41.5352 61.2161 41.6574 60.4913 41.6574H58.8983V45.2227H57.457V36.4359H60.4913C61.1656 36.4359 61.7345 36.5539 62.1981 36.7899C62.6701 37.0174 63.0199 37.3293 63.2474 37.7254C63.4834 38.1216 63.6014 38.5641 63.6014 39.0529ZM60.4913 40.4816C61.0391 40.4816 61.4479 40.3594 61.7176 40.1149C61.9874 39.8621 62.1222 39.5081 62.1222 39.0529C62.1222 38.0921 61.5786 37.6117 60.4913 37.6117H58.8983V40.4816H60.4913ZM66.4173 39.2679C66.628 38.9139 66.9062 38.6399 67.2518 38.4461C67.6058 38.2438 68.023 38.1427 68.5034 38.1427V39.6345H68.1368C67.572 39.6345 67.1422 39.7778 66.8472 40.0644C66.5606 40.3509 66.4173 40.8482 66.4173 41.5562V45.2227H64.976V38.2564H66.4173V39.2679ZM72.8499 45.3364C72.1925 45.3364 71.5982 45.1889 71.0672 44.8939C70.5362 44.5905 70.119 44.1691 69.8156 43.6297C69.5122 43.0818 69.3605 42.4497 69.3605 41.7332C69.3605 41.0252 69.5164 40.3973 69.8282 39.8494C70.1401 39.3016 70.5657 38.8802 71.1052 38.5852C71.6446 38.2902 72.2472 38.1427 72.9131 38.1427C73.579 38.1427 74.1816 38.2902 74.721 38.5852C75.2605 38.8802 75.6861 39.3016 75.998 39.8494C76.3098 40.3973 76.4657 41.0252 76.4657 41.7332C76.4657 42.4412 76.3056 43.0692 75.9853 43.617C75.665 44.1649 75.2267 44.5905 74.6705 44.8939C74.1226 45.1889 73.5157 45.3364 72.8499 45.3364ZM72.8499 44.0848C73.2207 44.0848 73.5663 43.9963 73.8866 43.8193C74.2153 43.6423 74.4808 43.3768 74.6831 43.0228C74.8854 42.6688 74.9865 42.2389 74.9865 41.7332C74.9865 41.2275 74.8896 40.8019 74.6957 40.4563C74.5019 40.1023 74.2448 39.8368 73.9245 39.6598C73.6042 39.4828 73.2587 39.3943 72.8878 39.3943C72.517 39.3943 72.1714 39.4828 71.8511 39.6598C71.5392 39.8368 71.2906 40.1023 71.1052 40.4563C70.9197 40.8019 70.827 41.2275 70.827 41.7332C70.827 42.4834 71.0167 43.0649 71.396 43.4779C71.7837 43.8825 72.2683 44.0848 72.8499 44.0848ZM80.811 39.4322H79.5215V45.2227H78.0675V39.4322H77.2457V38.2564H78.0675V37.7634C78.0675 36.9627 78.2782 36.3811 78.6997 36.0187C79.1295 35.6478 79.7996 35.4624 80.7099 35.4624V36.6634C80.2716 36.6634 79.964 36.7477 79.787 36.9163C79.61 37.0764 79.5215 37.3588 79.5215 37.7634V38.2564H80.811V39.4322ZM82.8216 37.3335C82.5604 37.3335 82.3412 37.245 82.1642 37.068C81.9872 36.891 81.8987 36.6719 81.8987 36.4106C81.8987 36.1493 81.9872 35.9302 82.1642 35.7532C82.3412 35.5762 82.5604 35.4877 82.8216 35.4877C83.0745 35.4877 83.2894 35.5762 83.4664 35.7532C83.6434 35.9302 83.7319 36.1493 83.7319 36.4106C83.7319 36.6719 83.6434 36.891 83.4664 37.068C83.2894 37.245 83.0745 37.3335 82.8216 37.3335ZM83.5296 38.2564V45.2227H82.0884V38.2564H83.5296ZM87.1034 39.4322V43.2883C87.1034 43.5496 87.1624 43.7392 87.2804 43.8572C87.4068 43.9668 87.6176 44.0216 87.9126 44.0216H88.7976V45.2227H87.6597C87.0107 45.2227 86.5134 45.0709 86.1678 44.7675C85.8223 44.4641 85.6495 43.971 85.6495 43.2883V39.4322H84.8277V38.2564H85.6495V36.5244H87.1034V38.2564H88.7976V39.4322H87.1034ZM95.0916 39.4322V43.2883C95.0916 43.5496 95.1506 43.7392 95.2686 43.8572C95.3951 43.9668 95.6058 44.0216 95.9008 44.0216H96.7858V45.2227H95.6479C94.9989 45.2227 94.5016 45.0709 94.1561 44.7675C93.8105 44.4641 93.6377 43.971 93.6377 43.2883V39.4322H92.8159V38.2564H93.6377V36.5244H95.0916V38.2564H96.7858V39.4322H95.0916ZM99.5554 39.2679C99.7662 38.9139 100.044 38.6399 100.39 38.4461C100.744 38.2438 101.161 38.1427 101.642 38.1427V39.6345H101.275C100.71 39.6345 100.28 39.7778 99.9853 40.0644C99.6987 40.3509 99.5554 40.8482 99.5554 41.5562V45.2227H98.1142V38.2564H99.5554V39.2679ZM103.7 37.3335C103.438 37.3335 103.219 37.245 103.042 37.068C102.865 36.891 102.777 36.6719 102.777 36.4106C102.777 36.1493 102.865 35.9302 103.042 35.7532C103.219 35.5762 103.438 35.4877 103.7 35.4877C103.952 35.4877 104.167 35.5762 104.344 35.7532C104.521 35.9302 104.61 36.1493 104.61 36.4106C104.61 36.6719 104.521 36.891 104.344 37.068C104.167 37.245 103.952 37.3335 103.7 37.3335ZM104.408 38.2564V45.2227H102.966V38.2564H104.408ZM109.107 38.1427C109.646 38.1427 110.122 38.2522 110.535 38.4714C110.957 38.6821 111.285 38.9476 111.521 39.2679V38.2564H112.975V45.3364C112.975 45.977 112.84 46.5459 112.571 47.0432C112.301 47.5489 111.909 47.9451 111.395 48.2317C110.889 48.5182 110.282 48.6615 109.574 48.6615C108.63 48.6615 107.847 48.4382 107.223 47.9914C106.599 47.5532 106.245 46.9547 106.161 46.1962H107.589C107.699 46.5586 107.931 46.8494 108.285 47.0685C108.647 47.2961 109.077 47.4099 109.574 47.4099C110.156 47.4099 110.624 47.2329 110.978 46.8789C111.34 46.5249 111.521 46.0107 111.521 45.3364V44.1733C111.277 44.502 110.944 44.7802 110.523 45.0077C110.11 45.2269 109.638 45.3364 109.107 45.3364C108.5 45.3364 107.943 45.1847 107.438 44.8813C106.94 44.5694 106.544 44.1396 106.249 43.5917C105.963 43.0354 105.819 42.4075 105.819 41.7079C105.819 41.0084 105.963 40.3889 106.249 39.8494C106.544 39.31 106.94 38.8928 107.438 38.5978C107.943 38.2944 108.5 38.1427 109.107 38.1427ZM111.521 41.7332C111.521 41.2528 111.42 40.8356 111.218 40.4816C111.024 40.1276 110.767 39.8579 110.447 39.6724C110.126 39.487 109.781 39.3943 109.41 39.3943C109.039 39.3943 108.694 39.487 108.373 39.6724C108.053 39.8494 107.792 40.1149 107.589 40.4689C107.396 40.8145 107.299 41.2275 107.299 41.7079C107.299 42.1884 107.396 42.6098 107.589 42.9722C107.792 43.3347 108.053 43.6128 108.373 43.8067C108.702 43.9921 109.048 44.0848 109.41 44.0848C109.781 44.0848 110.126 43.9921 110.447 43.8067C110.767 43.6212 111.024 43.3515 111.218 42.9975C111.42 42.6351 111.521 42.2137 111.521 41.7332ZM117.675 38.1427C118.215 38.1427 118.691 38.2522 119.104 38.4714C119.525 38.6821 119.854 38.9476 120.09 39.2679V38.2564H121.544V45.3364C121.544 45.977 121.409 46.5459 121.139 47.0432C120.87 47.5489 120.478 47.9451 119.963 48.2317C119.458 48.5182 118.851 48.6615 118.143 48.6615C117.199 48.6615 116.415 48.4382 115.791 47.9914C115.168 47.5532 114.814 46.9547 114.729 46.1962H116.158C116.268 46.5586 116.499 46.8494 116.853 47.0685C117.216 47.2961 117.646 47.4099 118.143 47.4099C118.724 47.4099 119.192 47.2329 119.546 46.8789C119.909 46.5249 120.09 46.0107 120.09 45.3364V44.1733C119.845 44.502 119.513 44.7802 119.091 45.0077C118.678 45.2269 118.206 45.3364 117.675 45.3364C117.068 45.3364 116.512 45.1847 116.006 44.8813C115.509 44.5694 115.113 44.1396 114.818 43.5917C114.531 43.0354 114.388 42.4075 114.388 41.7079C114.388 41.0084 114.531 40.3889 114.818 39.8494C115.113 39.31 115.509 38.8928 116.006 38.5978C116.512 38.2944 117.068 38.1427 117.675 38.1427ZM120.09 41.7332C120.09 41.2528 119.989 40.8356 119.786 40.4816C119.593 40.1276 119.336 39.8579 119.015 39.6724C118.695 39.487 118.349 39.3943 117.979 39.3943C117.608 39.3943 117.262 39.487 116.942 39.6724C116.622 39.8494 116.36 40.1149 116.158 40.4689C115.964 40.8145 115.867 41.2275 115.867 41.7079C115.867 42.1884 115.964 42.6098 116.158 42.9722C116.36 43.3347 116.622 43.6128 116.942 43.8067C117.271 43.9921 117.616 44.0848 117.979 44.0848C118.349 44.0848 118.695 43.9921 119.015 43.8067C119.336 43.6212 119.593 43.3515 119.786 42.9975C119.989 42.6351 120.09 42.2137 120.09 41.7332ZM129.822 41.5689C129.822 41.8302 129.805 42.0662 129.771 42.2769H124.448C124.49 42.8332 124.697 43.2799 125.068 43.617C125.439 43.9542 125.894 44.1227 126.433 44.1227C127.209 44.1227 127.757 43.7982 128.077 43.1492H129.632C129.421 43.7898 129.038 44.3166 128.481 44.7296C127.934 45.1342 127.251 45.3364 126.433 45.3364C125.767 45.3364 125.169 45.1889 124.638 44.8939C124.115 44.5905 123.702 44.1691 123.399 43.6297C123.104 43.0818 122.956 42.4497 122.956 41.7332C122.956 41.0168 123.1 40.3889 123.386 39.8494C123.681 39.3016 124.09 38.8802 124.613 38.5852C125.144 38.2902 125.751 38.1427 126.433 38.1427C127.091 38.1427 127.676 38.2859 128.191 38.5725C128.705 38.8591 129.105 39.2637 129.392 39.7862C129.678 40.3004 129.822 40.8946 129.822 41.5689ZM128.317 41.1137C128.309 40.5827 128.119 40.1571 127.748 39.8368C127.377 39.5165 126.918 39.3564 126.37 39.3564C125.873 39.3564 125.447 39.5165 125.093 39.8368C124.739 40.1487 124.528 40.5743 124.461 41.1137H128.317ZM132.681 39.2679C132.892 38.9139 133.17 38.6399 133.516 38.4461C133.87 38.2438 134.287 38.1427 134.767 38.1427V39.6345H134.401C133.836 39.6345 133.406 39.7778 133.111 40.0644C132.825 40.3509 132.681 40.8482 132.681 41.5562V45.2227H131.24V38.2564H132.681V39.2679ZM138.621 45.3364C138.073 45.3364 137.58 45.2395 137.141 45.0457C136.712 44.8434 136.37 44.5737 136.117 44.2365C135.865 43.8909 135.73 43.5074 135.713 43.086H137.205C137.23 43.381 137.369 43.6297 137.622 43.8319C137.883 44.0258 138.208 44.1227 138.595 44.1227C139 44.1227 139.312 44.0469 139.531 43.8952C139.759 43.735 139.872 43.5327 139.872 43.2883C139.872 43.027 139.746 42.8332 139.493 42.7067C139.249 42.5803 138.857 42.4412 138.317 42.2895C137.795 42.1462 137.369 42.0072 137.04 41.8723C136.712 41.7374 136.425 41.5309 136.181 41.2528C135.945 40.9747 135.827 40.608 135.827 40.1529C135.827 39.782 135.936 39.4449 136.155 39.1414C136.374 38.8296 136.686 38.5852 137.091 38.4082C137.504 38.2312 137.976 38.1427 138.507 38.1427C139.299 38.1427 139.936 38.3449 140.416 38.7495C140.905 39.1457 141.166 39.6893 141.2 40.3804H139.759C139.733 40.0686 139.607 39.8199 139.379 39.6345C139.152 39.4491 138.844 39.3564 138.456 39.3564C138.077 39.3564 137.786 39.428 137.584 39.5713C137.382 39.7146 137.281 39.9042 137.281 40.1402C137.281 40.3257 137.348 40.4816 137.483 40.608C137.618 40.7344 137.782 40.8356 137.976 40.9114C138.17 40.9789 138.456 41.0674 138.836 41.1769C139.341 41.3118 139.754 41.4509 140.075 41.5942C140.403 41.729 140.686 41.9313 140.922 42.201C141.158 42.4707 141.28 42.8289 141.288 43.2757C141.288 43.6718 141.179 44.0258 140.96 44.3377C140.74 44.6495 140.429 44.8939 140.024 45.0709C139.628 45.2479 139.16 45.3364 138.621 45.3364Z" fill="#272727"/>
<path d="M32.488 61.7593L30.5494 65.4932V67.6172H29.5886V65.4932L27.6416 61.7593H28.712L30.069 64.6335L31.426 61.7593H32.488ZM35.2649 67.693C34.8267 67.693 34.4305 67.5947 34.0765 67.398C33.7225 67.1958 33.4444 66.9148 33.2421 66.5552C33.0398 66.1899 32.9387 65.7685 32.9387 65.2909C32.9387 64.8189 33.0426 64.4003 33.2505 64.035C33.4584 63.6698 33.7422 63.3889 34.1018 63.1922C34.4614 62.9955 34.8632 62.8972 35.3071 62.8972C35.751 62.8972 36.1528 62.9955 36.5124 63.1922C36.872 63.3889 37.1558 63.6698 37.3637 64.035C37.5716 64.4003 37.6755 64.8189 37.6755 65.2909C37.6755 65.7629 37.5688 66.1815 37.3552 66.5468C37.1417 66.912 36.8495 67.1958 36.4787 67.398C36.1134 67.5947 35.7088 67.693 35.2649 67.693ZM35.2649 66.8586C35.5122 66.8586 35.7426 66.7996 35.9561 66.6816C36.1752 66.5636 36.3522 66.3866 36.4871 66.1506C36.6219 65.9146 36.6894 65.628 36.6894 65.2909C36.6894 64.9538 36.6248 64.67 36.4955 64.4396C36.3663 64.2036 36.1949 64.0266 35.9814 63.9086C35.7678 63.7906 35.5375 63.7316 35.2902 63.7316C35.043 63.7316 34.8126 63.7906 34.5991 63.9086C34.3912 64.0266 34.2254 64.2036 34.1018 64.4396C33.9782 64.67 33.9164 64.9538 33.9164 65.2909C33.9164 65.791 34.0428 66.1787 34.2957 66.454C34.5541 66.7238 34.8772 66.8586 35.2649 66.8586ZM42.8312 62.973V67.6172H41.8704V67.0693C41.7187 67.2604 41.5192 67.4121 41.2719 67.5245C41.0303 67.6312 40.7719 67.6846 40.4965 67.6846C40.1313 67.6846 39.8026 67.6088 39.5104 67.457C39.2238 67.3053 38.9962 67.0806 38.8277 66.7828C38.6647 66.4849 38.5832 66.1253 38.5832 65.7039V62.973H39.5357V65.5606C39.5357 65.9764 39.6396 66.2967 39.8475 66.5215C40.0554 66.7406 40.3392 66.8502 40.6988 66.8502C41.0584 66.8502 41.3422 66.7406 41.5501 66.5215C41.7636 66.2967 41.8704 65.9764 41.8704 65.5606V62.973H42.8312ZM45.0599 63.6473C45.2003 63.4113 45.3858 63.2287 45.6162 63.0995C45.8522 62.9646 46.1303 62.8972 46.4506 62.8972V63.8918H46.2062C45.8297 63.8918 45.5431 63.9873 45.3464 64.1783C45.1554 64.3694 45.0599 64.7009 45.0599 65.1729V67.6172H44.099V62.973H45.0599V63.6473ZM49.38 62.9899C49.4137 62.4673 49.6132 62.0599 49.9784 61.7678C50.3493 61.4756 50.8213 61.3295 51.3944 61.3295C51.7877 61.3295 52.1277 61.3997 52.4143 61.5402C52.7008 61.6807 52.9172 61.8717 53.0633 62.1133C53.2094 62.3549 53.2824 62.6275 53.2824 62.9309C53.2824 63.2793 53.1897 63.5771 53.0043 63.8243C52.8188 64.0716 52.5969 64.2373 52.3384 64.3216V64.3553C52.6699 64.4565 52.9284 64.6419 53.1138 64.9116C53.2993 65.1757 53.392 65.5157 53.392 65.9315C53.392 66.263 53.3161 66.558 53.1644 66.8165C53.0127 67.0749 52.7879 67.28 52.4901 67.4318C52.1923 67.5779 51.8355 67.6509 51.4197 67.6509C50.8128 67.6509 50.3127 67.4964 49.9194 67.1873C49.5317 66.8727 49.3238 66.4231 49.2957 65.8388H50.2228C50.2453 66.1366 50.3605 66.381 50.5684 66.572C50.7763 66.7575 51.0573 66.8502 51.4113 66.8502C51.754 66.8502 52.0181 66.7575 52.2035 66.572C52.389 66.381 52.4817 66.1366 52.4817 65.8388C52.4817 65.4454 52.3553 65.1673 52.1024 65.0043C51.8552 64.8358 51.4731 64.7515 50.9561 64.7515H50.737V63.9592H50.9645C51.4197 63.9536 51.7653 63.8777 52.0013 63.7316C52.2429 63.5855 52.3637 63.3551 52.3637 63.0405C52.3637 62.7708 52.2766 62.5572 52.1024 62.3999C51.9282 62.2369 51.681 62.1555 51.3607 62.1555C51.046 62.1555 50.8016 62.2369 50.6274 62.3999C50.4532 62.5572 50.3493 62.7539 50.3155 62.9899H49.38ZM62.339 62.8972C62.7043 62.8972 63.0302 62.973 63.3167 63.1248C63.6089 63.2765 63.8365 63.5012 63.9995 63.799C64.168 64.0969 64.2523 64.4565 64.2523 64.8779V67.6172H63.2999V65.0212C63.2999 64.6054 63.1959 64.2879 62.988 64.0688C62.7801 63.844 62.4964 63.7316 62.1367 63.7316C61.7771 63.7316 61.4906 63.844 61.277 64.0688C61.0691 64.2879 60.9652 64.6054 60.9652 65.0212V67.6172H60.0127V65.0212C60.0127 64.6054 59.9088 64.2879 59.7009 64.0688C59.493 63.844 59.2092 63.7316 58.8496 63.7316C58.49 63.7316 58.2034 63.844 57.9899 64.0688C57.782 64.2879 57.678 64.6054 57.678 65.0212V67.6172H56.7172V62.973H57.678V63.504C57.8354 63.313 58.0348 63.1641 58.2765 63.0573C58.5181 62.9506 58.7766 62.8972 59.0519 62.8972C59.4227 62.8972 59.7543 62.9759 60.0465 63.1332C60.3387 63.2905 60.5634 63.5181 60.7207 63.8159C60.8612 63.5349 61.0804 63.313 61.3782 63.15C61.676 62.9815 61.9963 62.8972 62.339 62.8972ZM69.6808 62.973V67.6172H68.72V67.0693C68.5683 67.2604 68.3688 67.4121 68.1216 67.5245C67.8799 67.6312 67.6215 67.6846 67.3461 67.6846C66.9809 67.6846 66.6522 67.6088 66.36 67.457C66.0734 67.3053 65.8458 67.0806 65.6773 66.7828C65.5143 66.4849 65.4328 66.1253 65.4328 65.7039V62.973H66.3853V65.5606C66.3853 65.9764 66.4892 66.2967 66.6971 66.5215C66.905 66.7406 67.1888 66.8502 67.5484 66.8502C67.908 66.8502 68.1918 66.7406 68.3997 66.5215C68.6132 66.2967 68.72 65.9764 68.72 65.5606V62.973H69.6808ZM72.0696 63.7569V66.3276C72.0696 66.5018 72.109 66.6282 72.1876 66.7069C72.2719 66.7799 72.4124 66.8165 72.609 66.8165H73.199V67.6172H72.4405C72.0078 67.6172 71.6763 67.516 71.4459 67.3138C71.2155 67.1115 71.1003 66.7828 71.1003 66.3276V63.7569H70.5525V62.973H71.1003V61.8183H72.0696V62.973H73.199V63.7569H72.0696ZM78.2905 62.973V67.6172H77.3296V67.0693C77.1779 67.2604 76.9785 67.4121 76.7312 67.5245C76.4896 67.6312 76.2311 67.6846 75.9558 67.6846C75.5905 67.6846 75.2618 67.6088 74.9696 67.457C74.6831 67.3053 74.4555 67.0806 74.2869 66.7828C74.124 66.4849 74.0425 66.1253 74.0425 65.7039V62.973H74.9949V65.5606C74.9949 65.9764 75.0989 66.2967 75.3068 66.5215C75.5147 66.7406 75.7985 66.8502 76.1581 66.8502C76.5177 66.8502 76.8015 66.7406 77.0094 66.5215C77.2229 66.2967 77.3296 65.9764 77.3296 65.5606V62.973H78.2905ZM79.238 65.274C79.238 64.8077 79.3335 64.3947 79.5246 64.035C79.7212 63.6754 79.9853 63.3973 80.3168 63.2006C80.654 62.9983 81.0248 62.8972 81.4294 62.8972C81.7947 62.8972 82.1121 62.9702 82.3818 63.1163C82.6572 63.2568 82.8763 63.4338 83.0393 63.6473V62.973H84.0086V67.6172H83.0393V66.926C82.8763 67.1452 82.6544 67.3278 82.3734 67.4739C82.0925 67.62 81.7722 67.693 81.4126 67.693C81.0136 67.693 80.6484 67.5919 80.3168 67.3896C79.9853 67.1817 79.7212 66.8951 79.5246 66.5299C79.3335 66.159 79.238 65.7404 79.238 65.274ZM83.0393 65.2909C83.0393 64.9706 82.9718 64.6925 82.837 64.4565C82.7078 64.2205 82.5364 64.0407 82.3228 63.917C82.1093 63.7934 81.8789 63.7316 81.6317 63.7316C81.3845 63.7316 81.1541 63.7934 80.9406 63.917C80.727 64.035 80.5528 64.212 80.418 64.448C80.2888 64.6784 80.2241 64.9538 80.2241 65.274C80.2241 65.5943 80.2888 65.8753 80.418 66.1169C80.5528 66.3585 80.727 66.5439 80.9406 66.6732C81.1597 66.7968 81.3901 66.8586 81.6317 66.8586C81.8789 66.8586 82.1093 66.7968 82.3228 66.6732C82.5364 66.5496 82.7078 66.3698 82.837 66.1338C82.9718 65.8921 83.0393 65.6112 83.0393 65.2909ZM86.2315 61.38V67.6172H85.2706V61.38H86.2315ZM91.6294 63.7569H90.7697V67.6172H89.8004V63.7569H89.2526V62.973H89.8004V62.6443C89.8004 62.1105 89.9409 61.7228 90.2219 61.4812C90.5084 61.2339 90.9552 61.1103 91.562 61.1103V61.911C91.2698 61.911 91.0647 61.9672 90.9467 62.0796C90.8287 62.1864 90.7697 62.3746 90.7697 62.6443V62.973H91.6294V63.7569ZM96.6868 62.973V67.6172H95.726V67.0693C95.5743 67.2604 95.3748 67.4121 95.1276 67.5245C94.8859 67.6312 94.6275 67.6846 94.3521 67.6846C93.9869 67.6846 93.6582 67.6088 93.366 67.457C93.0794 67.3053 92.8518 67.0806 92.6833 66.7828C92.5203 66.4849 92.4388 66.1253 92.4388 65.7039V62.973H93.3913V65.5606C93.3913 65.9764 93.4952 66.2967 93.7031 66.5215C93.911 66.7406 94.1948 66.8502 94.5544 66.8502C94.914 66.8502 95.1978 66.7406 95.4057 66.5215C95.6192 66.2967 95.726 65.9764 95.726 65.5606V62.973H96.6868ZM100.298 62.8972C100.663 62.8972 100.989 62.973 101.275 63.1248C101.568 63.2765 101.795 63.5012 101.958 63.799C102.121 64.0969 102.203 64.4565 102.203 64.8779V67.6172H101.25V65.0212C101.25 64.6054 101.146 64.2879 100.938 64.0688C100.73 63.844 100.447 63.7316 100.087 63.7316C99.7274 63.7316 99.4409 63.844 99.2273 64.0688C99.0194 64.2879 98.9155 64.6054 98.9155 65.0212V67.6172H97.9546V62.973H98.9155V63.504C99.0728 63.313 99.2723 63.1641 99.5139 63.0573C99.7611 62.9506 100.022 62.8972 100.298 62.8972ZM103.108 65.274C103.108 64.8077 103.203 64.3947 103.395 64.035C103.591 63.6754 103.855 63.3973 104.187 63.2006C104.524 62.9983 104.898 62.8972 105.308 62.8972C105.611 62.8972 105.909 62.9646 106.201 63.0995C106.499 63.2287 106.735 63.4029 106.909 63.622V61.38H107.879V67.6172H106.909V66.9176C106.752 67.1424 106.533 67.3278 106.252 67.4739C105.976 67.62 105.659 67.693 105.299 67.693C104.895 67.693 104.524 67.5919 104.187 67.3896C103.855 67.1817 103.591 66.8951 103.395 66.5299C103.203 66.159 103.108 65.7404 103.108 65.274ZM106.909 65.2909C106.909 64.9706 106.842 64.6925 106.707 64.4565C106.578 64.2205 106.406 64.0407 106.193 63.917C105.979 63.7934 105.749 63.7316 105.502 63.7316C105.254 63.7316 105.024 63.7934 104.811 63.917C104.597 64.035 104.423 64.212 104.288 64.448C104.159 64.6784 104.094 64.9538 104.094 65.274C104.094 65.5943 104.159 65.8753 104.288 66.1169C104.423 66.3585 104.597 66.5439 104.811 66.6732C105.03 66.7968 105.26 66.8586 105.502 66.8586C105.749 66.8586 105.979 66.7968 106.193 66.6732C106.406 66.5496 106.578 66.3698 106.707 66.1338C106.842 65.8921 106.909 65.6112 106.909 65.2909ZM110.826 67.693C110.461 67.693 110.132 67.6284 109.84 67.4992C109.554 67.3643 109.326 67.1845 109.157 66.9598C108.989 66.7294 108.899 66.4737 108.888 66.1928H109.882C109.899 66.3894 109.992 66.5552 110.16 66.69C110.335 66.8193 110.551 66.8839 110.809 66.8839C111.079 66.8839 111.287 66.8333 111.433 66.7322C111.585 66.6254 111.661 66.4906 111.661 66.3276C111.661 66.1534 111.576 66.0242 111.408 65.9399C111.245 65.8556 110.984 65.7629 110.624 65.6618C110.276 65.5662 109.992 65.4735 109.773 65.3836C109.554 65.2937 109.363 65.156 109.2 64.9706C109.042 64.7852 108.964 64.5408 108.964 64.2373C108.964 63.9901 109.037 63.7653 109.183 63.563C109.329 63.3551 109.537 63.1922 109.806 63.0742C110.082 62.9562 110.396 62.8972 110.75 62.8972C111.279 62.8972 111.703 63.032 112.023 63.3018C112.349 63.5659 112.523 63.9283 112.546 64.389H111.585C111.568 64.1811 111.484 64.0154 111.332 63.8918C111.18 63.7681 110.975 63.7063 110.717 63.7063C110.464 63.7063 110.27 63.7541 110.135 63.8496C110 63.9451 109.933 64.0716 109.933 64.2289C109.933 64.3525 109.978 64.4565 110.068 64.5408C110.158 64.625 110.267 64.6925 110.396 64.743C110.526 64.788 110.717 64.847 110.97 64.92C111.307 65.0099 111.582 65.1027 111.796 65.1982C112.015 65.2881 112.203 65.4229 112.36 65.6028C112.518 65.7826 112.599 66.0214 112.605 66.3192C112.605 66.5833 112.532 66.8193 112.386 67.0272C112.239 67.2351 112.032 67.398 111.762 67.516C111.498 67.634 111.186 67.693 110.826 67.693ZM116.321 62.3578C116.147 62.3578 116.001 62.2988 115.883 62.1808C115.765 62.0628 115.706 61.9167 115.706 61.7425C115.706 61.5683 115.765 61.4222 115.883 61.3042C116.001 61.1862 116.147 61.1272 116.321 61.1272C116.49 61.1272 116.633 61.1862 116.751 61.3042C116.869 61.4222 116.928 61.5683 116.928 61.7425C116.928 61.9167 116.869 62.0628 116.751 62.1808C116.633 62.2988 116.49 62.3578 116.321 62.3578ZM116.793 62.973V67.6172H115.832V62.973H116.793ZM119.741 67.693C119.375 67.693 119.047 67.6284 118.754 67.4992C118.468 67.3643 118.24 67.1845 118.072 66.9598C117.903 66.7294 117.813 66.4737 117.802 66.1928H118.797C118.813 66.3894 118.906 66.5552 119.075 66.69C119.249 66.8193 119.465 66.8839 119.724 66.8839C119.993 66.8839 120.201 66.8333 120.347 66.7322C120.499 66.6254 120.575 66.4906 120.575 66.3276C120.575 66.1534 120.491 66.0242 120.322 65.9399C120.159 65.8556 119.898 65.7629 119.538 65.6618C119.19 65.5662 118.906 65.4735 118.687 65.3836C118.468 65.2937 118.277 65.156 118.114 64.9706C117.956 64.7852 117.878 64.5408 117.878 64.2373C117.878 63.9901 117.951 63.7653 118.097 63.563C118.243 63.3551 118.451 63.1922 118.721 63.0742C118.996 62.9562 119.311 62.8972 119.665 62.8972C120.193 62.8972 120.617 63.032 120.937 63.3018C121.263 63.5659 121.437 63.9283 121.46 64.389H120.499C120.482 64.1811 120.398 64.0154 120.246 63.8918C120.095 63.7681 119.889 63.7063 119.631 63.7063C119.378 63.7063 119.184 63.7541 119.049 63.8496C118.915 63.9451 118.847 64.0716 118.847 64.2289C118.847 64.3525 118.892 64.4565 118.982 64.5408C119.072 64.625 119.181 64.6925 119.311 64.743C119.44 64.788 119.631 64.847 119.884 64.92C120.221 65.0099 120.496 65.1027 120.71 65.1982C120.929 65.2881 121.117 65.4229 121.275 65.6028C121.432 65.7826 121.513 66.0214 121.519 66.3192C121.519 66.5833 121.446 66.8193 121.3 67.0272C121.154 67.2351 120.946 67.398 120.676 67.516C120.412 67.634 120.1 67.693 119.741 67.693ZM130.368 62.8972C130.734 62.8972 131.06 62.973 131.346 63.1248C131.638 63.2765 131.866 63.5012 132.029 63.799C132.197 64.0969 132.282 64.4565 132.282 64.8779V67.6172H131.329V65.0212C131.329 64.6054 131.225 64.2879 131.017 64.0688C130.81 63.844 130.526 63.7316 130.166 63.7316C129.807 63.7316 129.52 63.844 129.306 64.0688C129.099 64.2879 128.995 64.6054 128.995 65.0212V67.6172H128.042V65.0212C128.042 64.6054 127.938 64.2879 127.73 64.0688C127.522 63.844 127.239 63.7316 126.879 63.7316C126.519 63.7316 126.233 63.844 126.019 64.0688C125.811 64.2879 125.707 64.6054 125.707 65.0212V67.6172H124.747V62.973H125.707V63.504C125.865 63.313 126.064 63.1641 126.306 63.0573C126.548 62.9506 126.806 62.8972 127.081 62.8972C127.452 62.8972 127.784 62.9759 128.076 63.1332C128.368 63.2905 128.593 63.5181 128.75 63.8159C128.891 63.5349 129.11 63.313 129.408 63.15C129.705 62.9815 130.026 62.8972 130.368 62.8972ZM133.184 65.274C133.184 64.8077 133.28 64.3947 133.471 64.035C133.667 63.6754 133.931 63.3973 134.263 63.2006C134.6 62.9983 134.971 62.8972 135.376 62.8972C135.741 62.8972 136.058 62.9702 136.328 63.1163C136.603 63.2568 136.822 63.4338 136.985 63.6473V62.973H137.955V67.6172H136.985V66.926C136.822 67.1452 136.601 67.3278 136.32 67.4739C136.039 67.62 135.718 67.693 135.359 67.693C134.96 67.693 134.595 67.5919 134.263 67.3896C133.931 67.1817 133.667 66.8951 133.471 66.5299C133.28 66.159 133.184 65.7404 133.184 65.274ZM136.985 65.2909C136.985 64.9706 136.918 64.6925 136.783 64.4565C136.654 64.2205 136.483 64.0407 136.269 63.917C136.055 63.7934 135.825 63.7316 135.578 63.7316C135.331 63.7316 135.1 63.7934 134.887 63.917C134.673 64.035 134.499 64.212 134.364 64.448C134.235 64.6784 134.17 64.9538 134.17 65.274C134.17 65.5943 134.235 65.8753 134.364 66.1169C134.499 66.3585 134.673 66.5439 134.887 66.6732C135.106 66.7968 135.336 66.8586 135.578 66.8586C135.825 66.8586 136.055 66.7968 136.269 66.6732C136.483 66.5496 136.654 66.3698 136.783 66.1338C136.918 65.8921 136.985 65.6112 136.985 65.2909ZM140.338 63.7569V66.3276C140.338 66.5018 140.377 66.6282 140.456 66.7069C140.54 66.7799 140.681 66.8165 140.877 66.8165H141.467V67.6172H140.709C140.276 67.6172 139.944 67.516 139.714 67.3138C139.484 67.1115 139.368 66.7828 139.368 66.3276V63.7569H138.821V62.973H139.368V61.8183H140.338V62.973H141.467V63.7569H140.338ZM146.559 62.973V67.6172H145.598V67.0693C145.446 67.2604 145.247 67.4121 144.999 67.5245C144.758 67.6312 144.499 67.6846 144.224 67.6846C143.859 67.6846 143.53 67.6088 143.238 67.457C142.951 67.3053 142.724 67.0806 142.555 66.7828C142.392 66.4849 142.311 66.1253 142.311 65.7039V62.973H143.263V65.5606C143.263 65.9764 143.367 66.2967 143.575 66.5215C143.783 66.7406 144.067 66.8502 144.426 66.8502C144.786 66.8502 145.07 66.7406 145.277 66.5215C145.491 66.2967 145.598 65.9764 145.598 65.5606V62.973H146.559ZM148.787 63.6473C148.928 63.4113 149.113 63.2287 149.344 63.0995C149.58 62.9646 149.858 62.8972 150.178 62.8972V63.8918H149.934C149.557 63.8918 149.271 63.9873 149.074 64.1783C148.883 64.3694 148.787 64.7009 148.787 65.1729V67.6172H147.826V62.973H148.787V63.6473ZM151.55 62.3578C151.376 62.3578 151.23 62.2988 151.112 62.1808C150.994 62.0628 150.935 61.9167 150.935 61.7425C150.935 61.5683 150.994 61.4222 151.112 61.3042C151.23 61.1862 151.376 61.1272 151.55 61.1272C151.719 61.1272 151.862 61.1862 151.98 61.3042C152.098 61.4222 152.157 61.5683 152.157 61.7425C152.157 61.9167 152.098 62.0628 151.98 62.1808C151.862 62.2988 151.719 62.3578 151.55 62.3578ZM152.022 62.973V67.6172H151.061V62.973H152.022ZM155.627 62.8972C155.992 62.8972 156.318 62.973 156.604 63.1248C156.897 63.2765 157.124 63.5012 157.287 63.799C157.45 64.0969 157.532 64.4565 157.532 64.8779V67.6172H156.579V65.0212C156.579 64.6054 156.475 64.2879 156.267 64.0688C156.059 63.844 155.776 63.7316 155.416 63.7316C155.056 63.7316 154.77 63.844 154.556 64.0688C154.348 64.2879 154.244 64.6054 154.244 65.0212V67.6172H153.284V62.973H154.244V63.504C154.402 63.313 154.601 63.1641 154.843 63.0573C155.09 62.9506 155.351 62.8972 155.627 62.8972ZM160.628 62.8972C160.988 62.8972 161.305 62.9702 161.581 63.1163C161.862 63.2568 162.081 63.4338 162.238 63.6473V62.973H163.208V67.693C163.208 68.1201 163.118 68.4994 162.938 68.8309C162.758 69.168 162.497 69.4321 162.154 69.6232C161.817 69.8142 161.412 69.9098 160.94 69.9098C160.311 69.9098 159.788 69.7609 159.373 69.463C158.957 69.1709 158.721 68.7719 158.665 68.2662H159.617C159.69 68.5078 159.845 68.7017 160.081 68.8478C160.322 68.9995 160.609 69.0753 160.94 69.0753C161.328 69.0753 161.64 68.9573 161.876 68.7213C162.117 68.4853 162.238 68.1426 162.238 67.693V66.9176C162.075 67.1368 161.853 67.3222 161.572 67.4739C161.297 67.62 160.982 67.693 160.628 67.693C160.224 67.693 159.853 67.5919 159.516 67.3896C159.184 67.1817 158.92 66.8951 158.724 66.5299C158.532 66.159 158.437 65.7404 158.437 65.274C158.437 64.8077 158.532 64.3947 158.724 64.035C158.92 63.6754 159.184 63.3973 159.516 63.2006C159.853 62.9983 160.224 62.8972 160.628 62.8972ZM162.238 65.2909C162.238 64.9706 162.171 64.6925 162.036 64.4565C161.907 64.2205 161.735 64.0407 161.522 63.917C161.308 63.7934 161.078 63.7316 160.831 63.7316C160.583 63.7316 160.353 63.7934 160.14 63.917C159.926 64.035 159.752 64.212 159.617 64.448C159.488 64.6784 159.423 64.9538 159.423 65.274C159.423 65.5943 159.488 65.8753 159.617 66.1169C159.752 66.3585 159.926 66.5439 160.14 66.6732C160.359 66.7968 160.589 66.8586 160.831 66.8586C161.078 66.8586 161.308 66.7968 161.522 66.6732C161.735 66.5496 161.907 66.3698 162.036 66.1338C162.171 65.8921 162.238 65.6112 162.238 65.2909ZM165.523 66.4625L164.503 68.7888H163.88L164.478 66.4625H165.523ZM169.513 63.6642C169.676 63.4394 169.898 63.2568 170.179 63.1163C170.465 62.9702 170.783 62.8972 171.131 62.8972C171.541 62.8972 171.912 62.9955 172.244 63.1922C172.575 63.3889 172.837 63.6698 173.028 64.035C173.219 64.3947 173.314 64.8077 173.314 65.274C173.314 65.7404 173.219 66.159 173.028 66.5299C172.837 66.8951 172.573 67.1817 172.235 67.3896C171.904 67.5919 171.536 67.693 171.131 67.693C170.772 67.693 170.451 67.6228 170.17 67.4823C169.895 67.3419 169.676 67.162 169.513 66.9429V67.6172H168.552V61.38H169.513V63.6642ZM172.337 65.274C172.337 64.9538 172.269 64.6784 172.134 64.448C172.005 64.212 171.831 64.035 171.612 63.917C171.398 63.7934 171.168 63.7316 170.921 63.7316C170.679 63.7316 170.449 63.7934 170.229 63.917C170.016 64.0407 169.842 64.2205 169.707 64.4565C169.578 64.6925 169.513 64.9706 169.513 65.2909C169.513 65.6112 169.578 65.8921 169.707 66.1338C169.842 66.3698 170.016 66.5496 170.229 66.6732C170.449 66.7968 170.679 66.8586 170.921 66.8586C171.168 66.8586 171.398 66.7968 171.612 66.6732C171.831 66.5439 172.005 66.3585 172.134 66.1169C172.269 65.8753 172.337 65.5943 172.337 65.274ZM176.279 67.693C175.841 67.693 175.444 67.5947 175.09 67.398C174.736 67.1958 174.458 66.9148 174.256 66.5552C174.054 66.1899 173.953 65.7685 173.953 65.2909C173.953 64.8189 174.057 64.4003 174.264 64.035C174.472 63.6698 174.756 63.3889 175.116 63.1922C175.475 62.9955 175.877 62.8972 176.321 62.8972C176.765 62.8972 177.167 62.9955 177.526 63.1922C177.886 63.3889 178.17 63.6698 178.378 64.035C178.586 64.4003 178.689 64.8189 178.689 65.2909C178.689 65.7629 178.583 66.1815 178.369 66.5468C178.156 66.912 177.863 67.1958 177.493 67.398C177.127 67.5947 176.723 67.693 176.279 67.693ZM176.279 66.8586C176.526 66.8586 176.757 66.7996 176.97 66.6816C177.189 66.5636 177.366 66.3866 177.501 66.1506C177.636 65.9146 177.703 65.628 177.703 65.2909C177.703 64.9538 177.639 64.67 177.509 64.4396C177.38 64.2036 177.209 64.0266 176.995 63.9086C176.782 63.7906 176.551 63.7316 176.304 63.7316C176.057 63.7316 175.827 63.7906 175.613 63.9086C175.405 64.0266 175.239 64.2036 175.116 64.4396C174.992 64.67 174.93 64.9538 174.93 65.2909C174.93 65.791 175.057 66.1787 175.31 66.454C175.568 66.7238 175.891 66.8586 176.279 66.8586ZM181.654 67.693C181.215 67.693 180.819 67.5947 180.465 67.398C180.111 67.1958 179.833 66.9148 179.631 66.5552C179.429 66.1899 179.327 65.7685 179.327 65.2909C179.327 64.8189 179.431 64.4003 179.639 64.035C179.847 63.6698 180.131 63.3889 180.491 63.1922C180.85 62.9955 181.252 62.8972 181.696 62.8972C182.14 62.8972 182.542 62.9955 182.901 63.1922C183.261 63.3889 183.545 63.6698 183.752 64.035C183.96 64.4003 184.064 64.8189 184.064 65.2909C184.064 65.7629 183.958 66.1815 183.744 66.5468C183.531 66.912 183.238 67.1958 182.867 67.398C182.502 67.5947 182.098 67.693 181.654 67.693ZM181.654 66.8586C181.901 66.8586 182.131 66.7996 182.345 66.6816C182.564 66.5636 182.741 66.3866 182.876 66.1506C183.011 65.9146 183.078 65.628 183.078 65.2909C183.078 64.9538 183.014 64.67 182.884 64.4396C182.755 64.2036 182.584 64.0266 182.37 63.9086C182.157 63.7906 181.926 63.7316 181.679 63.7316C181.432 63.7316 181.201 63.7906 180.988 63.9086C180.78 64.0266 180.614 64.2036 180.491 64.4396C180.367 64.67 180.305 64.9538 180.305 65.2909C180.305 65.791 180.432 66.1787 180.684 66.454C180.943 66.7238 181.266 66.8586 181.654 66.8586ZM186.852 65.2993L188.992 67.6172H187.694L185.975 65.6196V67.6172H185.014V61.38H185.975V65.0043L187.661 62.973H188.992L186.852 65.2993ZM196.051 62.973L193.202 69.8002H192.208L193.152 67.5413L191.323 62.973H192.393L193.7 66.513L195.057 62.973H196.051ZM198.791 67.693C198.352 67.693 197.956 67.5947 197.602 67.398C197.248 67.1958 196.97 66.9148 196.768 66.5552C196.566 66.1899 196.464 65.7685 196.464 65.2909C196.464 64.8189 196.568 64.4003 196.776 64.035C196.984 63.6698 197.268 63.3889 197.628 63.1922C197.987 62.9955 198.389 62.8972 198.833 62.8972C199.277 62.8972 199.679 62.9955 200.038 63.1922C200.398 63.3889 200.682 63.6698 200.889 64.035C201.097 64.4003 201.201 64.8189 201.201 65.2909C201.201 65.7629 201.095 66.1815 200.881 66.5468C200.668 66.912 200.375 67.1958 200.004 67.398C199.639 67.5947 199.235 67.693 198.791 67.693ZM198.791 66.8586C199.038 66.8586 199.268 66.7996 199.482 66.6816C199.701 66.5636 199.878 66.3866 200.013 66.1506C200.148 65.9146 200.215 65.628 200.215 65.2909C200.215 64.9538 200.151 64.67 200.021 64.4396C199.892 64.2036 199.721 64.0266 199.507 63.9086C199.294 63.7906 199.063 63.7316 198.816 63.7316C198.569 63.7316 198.338 63.7906 198.125 63.9086C197.917 64.0266 197.751 64.2036 197.628 64.4396C197.504 64.67 197.442 64.9538 197.442 65.2909C197.442 65.791 197.569 66.1787 197.821 66.454C198.08 66.7238 198.403 66.8586 198.791 66.8586ZM206.357 62.973V67.6172H205.396V67.0693C205.244 67.2604 205.045 67.4121 204.798 67.5245C204.556 67.6312 204.298 67.6846 204.022 67.6846C203.657 67.6846 203.328 67.6088 203.036 67.457C202.75 67.3053 202.522 67.0806 202.353 66.7828C202.191 66.4849 202.109 66.1253 202.109 65.7039V62.973H203.061V65.5606C203.061 65.9764 203.165 66.2967 203.373 66.5215C203.581 66.7406 203.865 66.8502 204.225 66.8502C204.584 66.8502 204.868 66.7406 205.076 66.5215C205.289 66.2967 205.396 65.9764 205.396 65.5606V62.973H206.357ZM208.586 63.6473C208.726 63.4113 208.912 63.2287 209.142 63.0995C209.378 62.9646 209.656 62.8972 209.976 62.8972V63.8918H209.732C209.355 63.8918 209.069 63.9873 208.872 64.1783C208.681 64.3694 208.586 64.7009 208.586 65.1729V67.6172H207.625V62.973H208.586V63.6473ZM29.1081 76.6558C29.2711 76.4422 29.493 76.2624 29.774 76.1163C30.0549 75.9702 30.3724 75.8972 30.7264 75.8972C31.131 75.8972 31.499 75.9983 31.8306 76.2006C32.1677 76.3973 32.4318 76.6754 32.6229 77.035C32.8139 77.3947 32.9094 77.8077 32.9094 78.274C32.9094 78.7404 32.8139 79.159 32.6229 79.5299C32.4318 79.8951 32.1677 80.1817 31.8306 80.3896C31.499 80.5919 31.131 80.693 30.7264 80.693C30.3724 80.693 30.0578 80.6228 29.7824 80.4823C29.5071 80.3362 29.2823 80.1564 29.1081 79.9429V82.8255H28.1473V75.973H29.1081V76.6558ZM31.9317 78.274C31.9317 77.9538 31.8643 77.6784 31.7294 77.448C31.6002 77.212 31.426 77.035 31.2069 76.917C30.9933 76.7934 30.7629 76.7316 30.5157 76.7316C30.2741 76.7316 30.0437 76.7934 29.8246 76.917C29.611 77.0407 29.4369 77.2205 29.302 77.4565C29.1728 77.6925 29.1081 77.9706 29.1081 78.2909C29.1081 78.6112 29.1728 78.8921 29.302 79.1338C29.4369 79.3698 29.611 79.5496 29.8246 79.6732C30.0437 79.7968 30.2741 79.8586 30.5157 79.8586C30.7629 79.8586 30.9933 79.7968 31.2069 79.6732C31.426 79.5439 31.6002 79.3585 31.7294 79.1169C31.8643 78.8753 31.9317 78.5943 31.9317 78.274ZM34.8205 76.6473C34.9609 76.4113 35.1464 76.2287 35.3768 76.0995C35.6128 75.9646 35.8909 75.8972 36.2112 75.8972V76.8918H35.9668C35.5903 76.8918 35.3037 76.9873 35.107 77.1783C34.916 77.3694 34.8205 77.7009 34.8205 78.1729V80.6172H33.8596V75.973H34.8205V76.6473ZM39.1088 80.693C38.6705 80.693 38.2744 80.5947 37.9204 80.398C37.5664 80.1958 37.2883 79.9148 37.086 79.5552C36.8837 79.1899 36.7825 78.7685 36.7825 78.2909C36.7825 77.8189 36.8865 77.4003 37.0944 77.035C37.3023 76.6698 37.5861 76.3889 37.9457 76.1922C38.3053 75.9955 38.7071 75.8972 39.151 75.8972C39.5949 75.8972 39.9966 75.9955 40.3563 76.1922C40.7159 76.3889 40.9996 76.6698 41.2075 77.035C41.4155 77.4003 41.5194 77.8189 41.5194 78.2909C41.5194 78.7629 41.4126 79.1815 41.1991 79.5468C40.9856 79.912 40.6934 80.1958 40.3225 80.398C39.9573 80.5947 39.5527 80.693 39.1088 80.693ZM39.1088 79.8586C39.3561 79.8586 39.5865 79.7996 39.8 79.6816C40.0191 79.5636 40.1961 79.3866 40.331 79.1506C40.4658 78.9146 40.5333 78.628 40.5333 78.2909C40.5333 77.9538 40.4686 77.67 40.3394 77.4396C40.2102 77.2036 40.0388 77.0266 39.8253 76.9086C39.6117 76.7906 39.3814 76.7316 39.1341 76.7316C38.8869 76.7316 38.6565 76.7906 38.443 76.9086C38.2351 77.0266 38.0693 77.2036 37.9457 77.4396C37.8221 77.67 37.7603 77.9538 37.7603 78.2909C37.7603 78.791 37.8867 79.1787 38.1395 79.454C38.398 79.7238 38.7211 79.8586 39.1088 79.8586ZM44.4163 76.7569H43.5566V80.6172H42.5873V76.7569H42.0394V75.973H42.5873V75.6443C42.5873 75.1105 42.7277 74.7228 43.0087 74.4812C43.2953 74.2339 43.742 74.1103 44.3488 74.1103V74.911C44.0566 74.911 43.8516 74.9672 43.7336 75.0796C43.6156 75.1864 43.5566 75.3746 43.5566 75.6443V75.973H44.4163V76.7569ZM45.7567 75.3578C45.5825 75.3578 45.4364 75.2988 45.3184 75.1808C45.2004 75.0628 45.1414 74.9167 45.1414 74.7425C45.1414 74.5683 45.2004 74.4222 45.3184 74.3042C45.4364 74.1862 45.5825 74.1272 45.7567 74.1272C45.9252 74.1272 46.0685 74.1862 46.1865 74.3042C46.3045 74.4222 46.3635 74.5683 46.3635 74.7425C46.3635 74.9167 46.3045 75.0628 46.1865 75.1808C46.0685 75.2988 45.9252 75.3578 45.7567 75.3578ZM46.2287 75.973V80.6172H45.2678V75.973H46.2287ZM48.6112 76.7569V79.3276C48.6112 79.5018 48.6505 79.6282 48.7292 79.7069C48.8135 79.7799 48.954 79.8165 49.1506 79.8165H49.7406V80.6172H48.9821C48.5494 80.6172 48.2179 80.516 47.9875 80.3138C47.7571 80.1115 47.6419 79.7828 47.6419 79.3276V76.7569H47.0941V75.973H47.6419V74.8183H48.6112V75.973H49.7406V76.7569H48.6112ZM52.3119 80.693C51.9467 80.693 51.618 80.6284 51.3258 80.4992C51.0392 80.3643 50.8116 80.1845 50.6431 79.9598C50.4745 79.7294 50.3846 79.4737 50.3734 79.1928H51.3679C51.3848 79.3894 51.4775 79.5552 51.6461 79.69C51.8203 79.8193 52.0366 79.8839 52.2951 79.8839C52.5648 79.8839 52.7727 79.8333 52.9188 79.7322C53.0705 79.6254 53.1464 79.4906 53.1464 79.3276C53.1464 79.1534 53.0621 79.0242 52.8935 78.9399C52.7305 78.8556 52.4693 78.7629 52.1096 78.6618C51.7613 78.5662 51.4775 78.4735 51.2584 78.3836C51.0392 78.2937 50.8482 78.156 50.6852 77.9706C50.5279 77.7852 50.4492 77.5408 50.4492 77.2373C50.4492 76.9901 50.5223 76.7653 50.6684 76.563C50.8145 76.3551 51.0224 76.1922 51.2921 76.0742C51.5674 75.9562 51.8821 75.8972 52.2361 75.8972C52.7643 75.8972 53.1885 76.032 53.5088 76.3018C53.8347 76.5659 54.0089 76.9283 54.0314 77.389H53.0705C53.0536 77.1811 52.9694 77.0154 52.8176 76.8918C52.6659 76.7681 52.4608 76.7063 52.2024 76.7063C51.9495 76.7063 51.7556 76.7541 51.6208 76.8496C51.4859 76.9451 51.4185 77.0716 51.4185 77.2289C51.4185 77.3525 51.4635 77.4565 51.5534 77.5408C51.6433 77.625 51.7528 77.6925 51.8821 77.743C52.0113 77.788 52.2024 77.847 52.4552 77.92C52.7924 78.0099 53.0677 78.1027 53.2812 78.1982C53.5004 78.2881 53.6886 78.4229 53.8459 78.6028C54.0033 78.7826 54.0847 79.0214 54.0904 79.3192C54.0904 79.5833 54.0173 79.8193 53.8712 80.0272C53.7251 80.2351 53.5172 80.398 53.2475 80.516C52.9834 80.634 52.6715 80.693 52.3119 80.693ZM59.6612 75.8972C60.0264 75.8972 60.3523 75.973 60.6389 76.1248C60.9311 76.2765 61.1587 76.5012 61.3216 76.799C61.4846 77.0969 61.566 77.4565 61.566 77.8779V80.6172H60.6136V78.0212C60.6136 77.6054 60.5097 77.2879 60.3018 77.0688C60.0938 76.844 59.8101 76.7316 59.4505 76.7316C59.0908 76.7316 58.8043 76.844 58.5908 77.0688C58.3828 77.2879 58.2789 77.6054 58.2789 78.0212V80.6172H57.318V75.973H58.2789V76.504C58.4362 76.313 58.6357 76.1641 58.8773 76.0573C59.1246 75.9506 59.3858 75.8972 59.6612 75.8972ZM64.8061 80.693C64.3678 80.693 63.9717 80.5947 63.6177 80.398C63.2637 80.1958 62.9855 79.9148 62.7832 79.5552C62.581 79.1899 62.4798 78.7685 62.4798 78.2909C62.4798 77.8189 62.5838 77.4003 62.7917 77.035C62.9996 76.6698 63.2833 76.3889 63.643 76.1922C64.0026 75.9955 64.4043 75.8972 64.8482 75.8972C65.2921 75.8972 65.6939 75.9955 66.0535 76.1922C66.4131 76.3889 66.6969 76.6698 66.9048 77.035C67.1127 77.4003 67.2167 77.8189 67.2167 78.2909C67.2167 78.7629 67.1099 79.1815 66.8964 79.5468C66.6829 79.912 66.3907 80.1958 66.0198 80.398C65.6546 80.5947 65.25 80.693 64.8061 80.693ZM64.8061 79.8586C65.0533 79.8586 65.2837 79.7996 65.4972 79.6816C65.7164 79.5636 65.8934 79.3866 66.0282 79.1506C66.1631 78.9146 66.2305 78.628 66.2305 78.2909C66.2305 77.9538 66.1659 77.67 66.0367 77.4396C65.9074 77.2036 65.7361 77.0266 65.5225 76.9086C65.309 76.7906 65.0786 76.7316 64.8314 76.7316C64.5841 76.7316 64.3538 76.7906 64.1402 76.9086C63.9323 77.0266 63.7666 77.2036 63.643 77.4396C63.5193 77.67 63.4575 77.9538 63.4575 78.2909C63.4575 78.791 63.584 79.1787 63.8368 79.454C64.0953 79.7238 64.4184 79.8586 64.8061 79.8586ZM74.4037 75.973L72.9624 80.6172H71.951L71.0154 77.1868L70.0798 80.6172H69.0684L67.6187 75.973H68.5964L69.5657 79.7069L70.5518 75.973H71.5548L72.4988 79.69L73.4597 75.973H74.4037ZM76.327 74.7593L76.2175 78.8472H75.4168L75.3072 74.7593H76.327ZM75.8466 80.6762C75.6724 80.6762 75.5263 80.6172 75.4083 80.4992C75.2903 80.3812 75.2313 80.2351 75.2313 80.0609C75.2313 79.8867 75.2903 79.7406 75.4083 79.6226C75.5263 79.5046 75.6724 79.4456 75.8466 79.4456C76.0152 79.4456 76.1585 79.5046 76.2765 79.6226C76.3945 79.7406 76.4535 79.8867 76.4535 80.0609C76.4535 80.2351 76.3945 80.3812 76.2765 80.4992C76.1585 80.6172 76.0152 80.6762 75.8466 80.6762Z" fill="#AFAFAF"/>
<ellipse cx="37.4769" cy="39.1228" rx="9.96178" ry="9.48214" fill="#F2AF1A"/>
<path d="M40.7971 36.5936C40.7971 35.5877 40.4472 34.623 39.8245 33.9117C39.2018 33.2004 38.3572 32.8008 37.4765 32.8008C36.5958 32.8008 35.7512 33.2004 35.1285 33.9117C34.5057 34.623 34.1559 35.5877 34.1559 36.5936C34.1559 41.0186 32.4956 42.2829 32.4956 42.2829H42.4574C42.4574 42.2829 40.7971 41.0186 40.7971 36.5936Z" fill="#F2AF1A" stroke="white" stroke-width="1.05357" stroke-linecap="round" stroke-linejoin="round"/>
<path d="M38.4339 44.8125C38.3366 45.0041 38.197 45.1631 38.0289 45.2737C37.8609 45.3842 37.6704 45.4424 37.4765 45.4424C37.2826 45.4424 37.0921 45.3842 36.924 45.2737C36.756 45.1631 36.6163 45.0041 36.519 44.8125" fill="#F2AF1A"/>
<path d="M38.4339 44.8125C38.3366 45.0041 38.197 45.1631 38.0289 45.2737C37.8609 45.3842 37.6704 45.4424 37.4765 45.4424C37.2826 45.4424 37.0921 45.3842 36.924 45.2737C36.756 45.1631 36.6163 45.0041 36.519 44.8125" stroke="white" stroke-width="1.05357" stroke-linecap="round" stroke-linejoin="round"/>
<rect x="27.5356" y="96.5469" width="184.902" height="21.0714" rx="4.21429" fill="#272727"/>
<g style="mix-blend-mode:soft-light">
<path d="M39.4389 117.617H48.3203L42.3994 96.5458H33.5181L39.4389 117.617Z" fill="white"/>
</g>
<g style="mix-blend-mode:soft-light">
<path d="M65.8852 117.617H74.7665L68.8457 96.5458H59.9644L65.8852 117.617Z" fill="white"/>
</g>
<g style="mix-blend-mode:soft-light">
<path d="M92.332 117.617H101.213L95.2924 96.5458H86.4111L92.332 117.617Z" fill="white"/>
</g>
<g style="mix-blend-mode:soft-light">
<path d="M118.779 117.617H127.66L121.739 96.5458H112.858L118.779 117.617Z" fill="white"/>
</g>
<g style="mix-blend-mode:soft-light">
<path d="M145.226 117.617H154.107L148.186 96.5458H139.305L145.226 117.617Z" fill="white"/>
</g>
<g style="mix-blend-mode:soft-light">
<path d="M171.672 117.617H180.553L174.632 96.5458H165.751L171.672 117.617Z" fill="white"/>
</g>
<g style="mix-blend-mode:soft-light">
<path d="M198.118 117.617H206.999L201.079 96.5458H192.197L198.118 117.617Z" fill="white"/>
</g>
<path d="M97.1156 109.431C96.8698 109.431 96.6485 109.389 96.4518 109.305C96.2552 109.217 96.1006 109.094 95.9883 108.936C95.8759 108.778 95.8197 108.594 95.8197 108.383H96.4624C96.4764 108.541 96.5379 108.671 96.6467 108.773C96.7591 108.875 96.9154 108.926 97.1156 108.926C97.3228 108.926 97.4843 108.877 97.6002 108.778C97.7161 108.676 97.7741 108.546 97.7741 108.388C97.7741 108.265 97.7372 108.165 97.6634 108.088C97.5932 108.011 97.5037 107.951 97.3948 107.909C97.2894 107.867 97.1419 107.821 96.9523 107.772C96.7135 107.709 96.5186 107.646 96.3676 107.582C96.2201 107.516 96.0936 107.414 95.9883 107.277C95.8829 107.14 95.8302 106.957 95.8302 106.729C95.8302 106.518 95.8829 106.334 95.9883 106.176C96.0936 106.018 96.2411 105.897 96.4308 105.812C96.6204 105.728 96.8399 105.686 97.0892 105.686C97.444 105.686 97.7337 105.776 97.9584 105.955C98.1867 106.13 98.3131 106.373 98.3377 106.682H97.674C97.6634 106.548 97.6002 106.434 97.4843 106.339C97.3684 106.244 97.2157 106.197 97.026 106.197C96.854 106.197 96.7135 106.241 96.6046 106.329C96.4957 106.416 96.4413 106.543 96.4413 106.708C96.4413 106.82 96.4747 106.913 96.5414 106.987C96.6116 107.057 96.6994 107.114 96.8048 107.156C96.9101 107.198 97.0541 107.243 97.2367 107.293C97.4791 107.359 97.6757 107.426 97.8267 107.493C97.9813 107.56 98.1112 107.663 98.2166 107.804C98.3254 107.941 98.3799 108.125 98.3799 108.357C98.3799 108.543 98.329 108.718 98.2271 108.884C98.1288 109.049 97.983 109.182 97.7899 109.284C97.6002 109.382 97.3755 109.431 97.1156 109.431ZM102.987 106.492L102.086 109.395H101.454L100.869 107.251L100.284 109.395H99.6521L98.7461 106.492H99.3571L99.9629 108.826L100.579 106.492H101.206L101.796 108.815L102.397 106.492H102.987ZM103.741 106.107C103.632 106.107 103.541 106.071 103.467 105.997C103.393 105.923 103.356 105.832 103.356 105.723C103.356 105.614 103.393 105.523 103.467 105.449C103.541 105.375 103.632 105.338 103.741 105.338C103.846 105.338 103.936 105.375 104.01 105.449C104.083 105.523 104.12 105.614 104.12 105.723C104.12 105.832 104.083 105.923 104.01 105.997C103.936 106.071 103.846 106.107 103.741 106.107ZM104.036 106.492V109.395H103.435V106.492H104.036ZM105.425 106.919C105.527 106.785 105.666 106.673 105.841 106.581C106.017 106.49 106.215 106.445 106.436 106.445C106.689 106.445 106.919 106.508 107.127 106.634C107.337 106.757 107.502 106.931 107.622 107.156C107.741 107.38 107.801 107.639 107.801 107.93C107.801 108.222 107.741 108.483 107.622 108.715C107.502 108.943 107.337 109.122 107.127 109.252C106.919 109.379 106.689 109.442 106.436 109.442C106.215 109.442 106.019 109.398 105.846 109.31C105.674 109.219 105.534 109.107 105.425 108.973V110.775H104.824V106.492H105.425V106.919ZM107.19 107.93C107.19 107.73 107.148 107.558 107.063 107.414C106.983 107.266 106.874 107.156 106.737 107.082C106.603 107.005 106.459 106.966 106.305 106.966C106.154 106.966 106.01 107.005 105.873 107.082C105.739 107.159 105.63 107.272 105.546 107.419C105.465 107.567 105.425 107.74 105.425 107.941C105.425 108.141 105.465 108.316 105.546 108.467C105.63 108.615 105.739 108.727 105.873 108.805C106.01 108.882 106.154 108.92 106.305 108.92C106.459 108.92 106.603 108.882 106.737 108.805C106.874 108.724 106.983 108.608 107.063 108.457C107.148 108.306 107.19 108.13 107.19 107.93ZM111.055 107.872C111.055 107.981 111.048 108.079 111.034 108.167H108.816C108.834 108.399 108.92 108.585 109.074 108.726C109.229 108.866 109.418 108.936 109.643 108.936C109.966 108.936 110.195 108.801 110.328 108.531H110.976C110.888 108.798 110.728 109.017 110.497 109.189C110.268 109.358 109.984 109.442 109.643 109.442C109.366 109.442 109.116 109.38 108.895 109.258C108.677 109.131 108.505 108.956 108.379 108.731C108.256 108.503 108.195 108.239 108.195 107.941C108.195 107.642 108.254 107.38 108.374 107.156C108.497 106.927 108.667 106.752 108.885 106.629C109.106 106.506 109.359 106.445 109.643 106.445C109.917 106.445 110.161 106.504 110.375 106.624C110.59 106.743 110.756 106.912 110.876 107.129C110.995 107.344 111.055 107.591 111.055 107.872ZM110.428 107.682C110.425 107.461 110.346 107.284 110.191 107.15C110.037 107.017 109.845 106.95 109.617 106.95C109.41 106.95 109.232 107.017 109.085 107.15C108.937 107.28 108.849 107.458 108.821 107.682H110.428ZM113.615 106.913C113.703 106.766 113.819 106.652 113.963 106.571C114.11 106.487 114.284 106.445 114.484 106.445V107.066H114.331C114.096 107.066 113.917 107.126 113.794 107.245C113.675 107.365 113.615 107.572 113.615 107.867V109.395H113.014V106.492H113.615V106.913ZM115.342 106.107C115.233 106.107 115.141 106.071 115.068 105.997C114.994 105.923 114.957 105.832 114.957 105.723C114.957 105.614 114.994 105.523 115.068 105.449C115.141 105.375 115.233 105.338 115.342 105.338C115.447 105.338 115.537 105.375 115.61 105.449C115.684 105.523 115.721 105.614 115.721 105.723C115.721 105.832 115.684 105.923 115.61 105.997C115.537 106.071 115.447 106.107 115.342 106.107ZM115.637 106.492V109.395H115.036V106.492H115.637ZM117.595 106.445C117.819 106.445 118.018 106.49 118.19 106.581C118.365 106.669 118.502 106.78 118.601 106.913V106.492H119.207V109.442C119.207 109.709 119.15 109.946 119.038 110.153C118.926 110.364 118.762 110.529 118.548 110.648C118.337 110.768 118.084 110.827 117.789 110.827C117.396 110.827 117.07 110.734 116.81 110.548C116.55 110.366 116.402 110.116 116.367 109.8H116.962C117.008 109.951 117.105 110.072 117.252 110.164C117.403 110.258 117.582 110.306 117.789 110.306C118.032 110.306 118.227 110.232 118.374 110.085C118.525 109.937 118.601 109.723 118.601 109.442V108.957C118.499 109.094 118.36 109.21 118.185 109.305C118.012 109.396 117.816 109.442 117.595 109.442C117.342 109.442 117.11 109.379 116.899 109.252C116.692 109.122 116.527 108.943 116.404 108.715C116.285 108.483 116.225 108.222 116.225 107.93C116.225 107.639 116.285 107.38 116.404 107.156C116.527 106.931 116.692 106.757 116.899 106.634C117.11 106.508 117.342 106.445 117.595 106.445ZM118.601 107.941C118.601 107.74 118.559 107.567 118.474 107.419C118.394 107.272 118.286 107.159 118.153 107.082C118.019 107.005 117.876 106.966 117.721 106.966C117.566 106.966 117.422 107.005 117.289 107.082C117.156 107.156 117.047 107.266 116.962 107.414C116.882 107.558 116.841 107.73 116.841 107.93C116.841 108.13 116.882 108.306 116.962 108.457C117.047 108.608 117.156 108.724 117.289 108.805C117.426 108.882 117.57 108.92 117.721 108.92C117.876 108.92 118.019 108.882 118.153 108.805C118.286 108.727 118.394 108.615 118.474 108.467C118.559 108.316 118.601 108.141 118.601 107.941ZM121.497 106.445C121.718 106.445 121.915 106.492 122.087 106.587C122.262 106.682 122.399 106.822 122.498 107.008C122.599 107.194 122.65 107.419 122.65 107.682V109.395H122.055V107.772C122.055 107.512 121.99 107.314 121.86 107.177C121.73 107.036 121.553 106.966 121.328 106.966C121.103 106.966 120.924 107.036 120.791 107.177C120.661 107.314 120.596 107.512 120.596 107.772V109.395H119.995V105.496H120.596V106.829C120.698 106.706 120.826 106.611 120.98 106.545C121.138 106.478 121.311 106.445 121.497 106.445ZM124.117 106.982V108.589C124.117 108.697 124.142 108.776 124.191 108.826C124.243 108.871 124.331 108.894 124.454 108.894H124.823V109.395H124.349C124.078 109.395 123.871 109.331 123.727 109.205C123.583 109.078 123.511 108.873 123.511 108.589V106.982H123.169V106.492H123.511V105.77H124.117V106.492H124.823V106.982H124.117ZM127.445 106.982V108.589C127.445 108.697 127.47 108.776 127.519 108.826C127.572 108.871 127.66 108.894 127.783 108.894H128.151V109.395H127.677C127.407 109.395 127.2 109.331 127.056 109.205C126.912 109.078 126.84 108.873 126.84 108.589V106.982H126.497V106.492H126.84V105.77H127.445V106.492H128.151V106.982H127.445ZM129.964 109.442C129.69 109.442 129.442 109.38 129.221 109.258C129 109.131 128.826 108.956 128.699 108.731C128.573 108.503 128.51 108.239 128.51 107.941C128.51 107.646 128.575 107.384 128.705 107.156C128.835 106.927 129.012 106.752 129.237 106.629C129.462 106.506 129.713 106.445 129.99 106.445C130.268 106.445 130.519 106.506 130.743 106.629C130.968 106.752 131.146 106.927 131.275 107.156C131.405 107.384 131.47 107.646 131.47 107.941C131.47 108.236 131.404 108.497 131.27 108.726C131.137 108.954 130.954 109.131 130.722 109.258C130.494 109.38 130.241 109.442 129.964 109.442ZM129.964 108.92C130.118 108.92 130.262 108.884 130.396 108.81C130.533 108.736 130.643 108.625 130.728 108.478C130.812 108.33 130.854 108.151 130.854 107.941C130.854 107.73 130.814 107.553 130.733 107.409C130.652 107.261 130.545 107.15 130.412 107.077C130.278 107.003 130.134 106.966 129.98 106.966C129.825 106.966 129.681 107.003 129.548 107.077C129.418 107.15 129.314 107.261 129.237 107.409C129.16 107.553 129.121 107.73 129.121 107.941C129.121 108.253 129.2 108.495 129.358 108.668C129.52 108.836 129.721 108.92 129.964 108.92ZM134.486 109.442C134.258 109.442 134.052 109.402 133.87 109.321C133.691 109.236 133.548 109.124 133.443 108.984C133.338 108.84 133.281 108.68 133.274 108.504H133.896C133.907 108.627 133.965 108.731 134.07 108.815C134.179 108.896 134.314 108.936 134.475 108.936C134.644 108.936 134.774 108.905 134.865 108.841C134.96 108.775 135.008 108.69 135.008 108.589C135.008 108.48 134.955 108.399 134.85 108.346C134.748 108.294 134.584 108.236 134.36 108.172C134.142 108.113 133.965 108.055 133.828 107.999C133.691 107.942 133.571 107.856 133.469 107.74C133.371 107.625 133.322 107.472 133.322 107.282C133.322 107.128 133.367 106.987 133.459 106.861C133.55 106.731 133.68 106.629 133.849 106.555C134.021 106.481 134.217 106.445 134.439 106.445C134.769 106.445 135.034 106.529 135.234 106.697C135.438 106.862 135.547 107.089 135.561 107.377H134.96C134.95 107.247 134.897 107.143 134.802 107.066C134.707 106.989 134.579 106.95 134.418 106.95C134.26 106.95 134.138 106.98 134.054 107.04C133.97 107.1 133.928 107.179 133.928 107.277C133.928 107.354 133.956 107.419 134.012 107.472C134.068 107.524 134.137 107.567 134.217 107.598C134.298 107.626 134.418 107.663 134.576 107.709C134.786 107.765 134.958 107.823 135.092 107.883C135.229 107.939 135.346 108.023 135.445 108.136C135.543 108.248 135.594 108.397 135.598 108.583C135.598 108.748 135.552 108.896 135.461 109.026C135.369 109.156 135.239 109.258 135.071 109.331C134.906 109.405 134.711 109.442 134.486 109.442ZM138.907 107.872C138.907 107.981 138.9 108.079 138.886 108.167H136.668C136.685 108.399 136.771 108.585 136.926 108.726C137.081 108.866 137.27 108.936 137.495 108.936C137.818 108.936 138.046 108.801 138.18 108.531H138.828C138.74 108.798 138.58 109.017 138.348 109.189C138.12 109.358 137.836 109.442 137.495 109.442C137.217 109.442 136.968 109.38 136.747 109.258C136.529 109.131 136.357 108.956 136.231 108.731C136.108 108.503 136.046 108.239 136.046 107.941C136.046 107.642 136.106 107.38 136.225 107.156C136.348 106.927 136.519 106.752 136.736 106.629C136.958 106.506 137.21 106.445 137.495 106.445C137.769 106.445 138.013 106.504 138.227 106.624C138.441 106.743 138.608 106.912 138.728 107.129C138.847 107.344 138.907 107.591 138.907 107.872ZM138.28 107.682C138.276 107.461 138.197 107.284 138.043 107.15C137.888 107.017 137.697 106.95 137.469 106.95C137.261 106.95 137.084 107.017 136.937 107.15C136.789 107.28 136.701 107.458 136.673 107.682H138.28ZM140.098 105.496V109.395H139.498V105.496H140.098ZM141.487 105.496V109.395H140.887V105.496H141.487Z" fill="white"/>
<rect x="27.5356" y="96.5469" width="21.7532" height="21.0714" rx="4.21429" fill="#326CF9"/>
<path d="M37.7808 103.867L38.1509 103.508C38.1879 103.472 38.232 103.444 38.2805 103.424C38.329 103.405 38.381 103.395 38.4335 103.395C38.486 103.395 38.538 103.405 38.5865 103.424C38.635 103.444 38.679 103.472 38.7161 103.508L41.9561 106.647C41.9934 106.683 42.023 106.725 42.0431 106.772C42.0633 106.819 42.0737 106.87 42.0737 106.921C42.0737 106.972 42.0633 107.022 42.0431 107.069C42.023 107.116 41.9934 107.159 41.9561 107.194L38.7158 110.333C38.6788 110.369 38.6347 110.398 38.5862 110.417C38.5377 110.437 38.4857 110.447 38.4332 110.447C38.3807 110.447 38.3287 110.437 38.2802 110.417C38.2317 110.398 38.1876 110.369 38.1506 110.333L37.7805 109.975C37.743 109.938 37.7133 109.895 37.6933 109.847C37.6733 109.799 37.6633 109.748 37.6639 109.696C37.6645 109.645 37.6758 109.594 37.6969 109.547C37.7181 109.499 37.7488 109.457 37.7873 109.421L39.7958 107.569H35.0056C34.9529 107.569 34.9007 107.559 34.852 107.539C34.8033 107.52 34.7591 107.491 34.7219 107.455C34.6847 107.419 34.6553 107.376 34.6353 107.329C34.6153 107.281 34.6052 107.231 34.6055 107.18V106.663C34.6053 106.612 34.6156 106.562 34.6356 106.515C34.6557 106.468 34.6851 106.425 34.7223 106.389C34.7595 106.353 34.8037 106.324 34.8523 106.305C34.9009 106.285 34.953 106.275 35.0056 106.276H39.7961L37.7876 104.423C37.7484 104.388 37.717 104.345 37.6953 104.297C37.6737 104.25 37.6622 104.198 37.6615 104.146C37.6609 104.094 37.6711 104.043 37.6916 103.995C37.7121 103.947 37.7425 103.903 37.7808 103.867V103.867Z" fill="white"/>
</g>
<defs>
<filter id="filter0_d_588_1823" x="6.46429" y="6.46429" width="243.902" height="143.286" filterUnits="userSpaceOnUse" color-interpolation-filters="sRGB">
<feFlood flood-opacity="0" result="BackgroundImageFix"/>
<feColorMatrix in="SourceAlpha" type="matrix" values="0 0 0 0 0 0 0 0 0 0 0 0 0 0 0 0 0 0 127 0" result="hardAlpha"/>
<feOffset dx="2.10714" dy="2.10714"/>
<feGaussianBlur stdDeviation="6.32143"/>
<feComposite in2="hardAlpha" operator="out"/>
<feColorMatrix type="matrix" values="0 0 0 0 0.152941 0 0 0 0 0.152941 0 0 0 0 0.152941 0 0 0 0.04 0"/>
<feBlend mode="normal" in2="BackgroundImageFix" result="effect1_dropShadow_588_1823"/>
<feBlend mode="normal" in="SourceGraphic" in2="effect1_dropShadow_588_1823" result="shape"/>
</filter>
<filter id="filter1_d_588_1823" x="0.142854" y="0.142854" width="260.759" height="160.143" filterUnits="userSpaceOnUse" color-interpolation-filters="sRGB">
<feFlood flood-opacity="0" result="BackgroundImageFix"/>
<feColorMatrix in="SourceAlpha" type="matrix" values="0 0 0 0 0 0 0 0 0 0 0 0 0 0 0 0 0 0 127 0" result="hardAlpha"/>
<feOffset dx="4.21429" dy="4.21429"/>
<feGaussianBlur stdDeviation="10.5357"/>
<feComposite in2="hardAlpha" operator="out"/>
<feColorMatrix type="matrix" values="0 0 0 0 1 0 0 0 0 1 0 0 0 0 1 0 0 0 0.04 0"/>
<feBlend mode="normal" in2="BackgroundImageFix" result="effect1_dropShadow_588_1823"/>
<feBlend mode="normal" in="SourceGraphic" in2="effect1_dropShadow_588_1823" result="shape"/>
</filter>
</defs>
</svg>
