<svg fill="none" height="191" viewBox="0 0 196 191" width="196" xmlns="http://www.w3.org/2000/svg">
    <clipPath id="a">
        <path d="m34.936 10.5195h133.857v144.88h-133.857z"/>
    </clipPath>
    <path d="m31.1441 113.45c-7.7918-21.3432-8.6915-44.9699 2.205-61.9486 10.9309-17.067 33.6323-27.6994 57.0992-28.5801 23.4067-1.0059 47.7087 7.6888 63.1867 23.6031 15.538 16.0396 22.279 39.5121 19.223 60.9816-3.09 21.557-16.104 41.163-35.202 51.783-19.226 10.67-44.5343 12.355-64.4315 3.554s-34.4177-27.999-42.0804-49.393z"
          fill="#0c97f0" fill-opacity=".23"/>
    <g clip-path="url(#a)">
        <path d="m92.8573 57.0016c-.1003-1.0054-.4266-1.975-.9545-2.8357-.5278-.8607-1.2435-1.5902-2.093-2.1335-.8495-.5432-1.8108-.8863-2.8116-1.0032s-2.015-.0046-2.9663.3283l.4831.0495c-2.1664.4346-4.0915 1.668-5.3953 3.4568-.6369.8941-1.0746 1.9152-1.2836 2.9939s-.1843 2.1898.0724 3.2581c.5475 2.1216 2.1636 3.9622 4.2322 4.6684 1.1502.3927 2.3849.4407 3.5994.4821.7883.0269 1.5911.0509 2.3511-.1609.9776-.3038 1.837-.9046 2.4593-1.7194.6164-.8119 1.1069-1.7126 1.4548-2.6715.589-1.4998 1.012-3.1089.852-4.7129z"
              fill="#2f2e41"/>
        <g fill="#f0f0f0">
            <path d="m110.033 154.753c-1.718-6.479 2.096-12.793 6.553-17.164 2.375-2.33 5.02-4.355 7.599-6.447 2.476-1.985 4.833-4.114 7.059-6.375 4.3-4.414 8.051-9.459 10.535-15.129 2.363-5.393 3.479-11.2665 2.926-17.15-.524-5.5801-2.519-11.069-6.187-15.3502-.457-.5335-.938-1.0448-1.443-1.534-.271-.2635-.685.1515-.414.4154 4.096 3.9895 6.481 9.3958 7.288 15.0203.832 5.8004-.025 11.7135-2.188 17.1365-2.304 5.777-5.967 10.932-10.216 15.43-2.14 2.251-4.416 4.367-6.815 6.337-2.563 2.117-5.226 4.118-7.666 6.38-4.497 4.17-8.539 9.906-7.984 16.362.065.751.195 1.495.388 2.224.023.072.073.134.139.17.067.036.145.046.218.025.074-.02.136-.068.175-.134.039-.065.05-.143.033-.217z"/>
            <path d="m128.018 117.872c-2.706-4.654-4.776-9.651-6.153-14.858-1.382-5.2061-2.074-10.572-2.056-15.959.019-5.3869.672-10.9086 2.337-16.0456 1.58-4.8754 4.412-9.5249 8.907-12.1854 2.292-1.3487 4.91-2.0418 7.567-2.0042 2.807.0267 5.575.7677 8.105 1.9676 2.477 1.1751 4.742 2.7587 6.834 4.5241 1.995 1.6803 3.857 3.5137 5.568 5.4836 3.391 3.9108 6.161 8.439 7.709 13.4041 1.612 5.1743 1.895 10.8341.398 16.071-1.437 5.0298-4.586 9.3168-8.452 12.7608-4.178 3.722-9.127 6.427-14.118 8.881-1.249.615-2.504 1.215-3.76 1.815-.34.163-.044.67.295.508 5.263-2.516 10.577-5.053 15.268-8.565 4.139-3.098 7.828-6.988 10.023-11.726 2.321-5.0104 2.797-10.7076 1.835-16.1135-.941-5.2833-3.299-10.2281-6.456-14.5347-1.569-2.1305-3.312-4.1259-5.212-5.9654-1.949-1.9304-4.077-3.6701-6.356-5.1953-4.67-3.0617-10.511-4.9106-16.046-3.3335-4.92 1.402-8.708 5.3562-10.961 9.8374-1.261 2.5081-2.112 5.2055-2.716 7.9426-.59 2.6974-.987 5.4336-1.188 8.1877-.804 10.99 1.344 21.9957 6.22 31.8707.594 1.197 1.228 2.373 1.903 3.528.04.065.104.111.178.129s.152.007.217-.032c.066-.038.114-.101.135-.174.02-.074.012-.152-.025-.219z"/>
            <path d="m124.308 112.192c-2.706-4.653-4.776-9.651-6.153-14.858-1.382-5.2058-2.074-10.5716-2.056-15.9587.02-5.3869.672-10.9086 2.337-16.0456 1.58-4.8754 4.412-9.5249 8.907-12.1853 2.293-1.3487 4.91-2.0419 7.567-2.0043 2.807.0267 5.575.7677 8.105 1.9676 2.477 1.1751 4.742 2.7587 6.834 4.5241 1.995 1.6803 3.857 3.5137 5.568 5.4836 3.391 3.9108 6.161 8.439 7.709 13.4041 1.612 5.1744 1.895 10.8341.398 16.071-1.437 5.03-4.586 9.3175-8.452 12.7615-4.178 3.721-9.127 6.426-14.117 8.881-1.25.614-2.505 1.214-3.761 1.815-.34.162-.044.669.295.507 5.263-2.515 10.577-5.052 15.268-8.564 4.139-3.099 7.828-6.989 10.023-11.7266 2.321-5.0105 2.797-10.7077 1.835-16.1136-.941-5.2833-3.299-10.2281-6.456-14.5347-1.569-2.1305-3.312-4.1259-5.212-5.9654-1.949-1.9304-4.077-3.6701-6.356-5.1953-4.67-3.0617-10.511-4.9106-16.046-3.3335-4.92 1.402-8.708 5.3562-10.961 9.8374-1.261 2.5081-2.111 5.2055-2.716 7.9426-.59 2.6974-.987 5.4336-1.187 8.1877-.805 10.9901 1.343 21.9954 6.219 31.8704.594 1.197 1.228 2.374 1.903 3.529.04.064.104.11.178.128s.152.007.217-.032c.066-.038.114-.101.135-.174.02-.073.012-.152-.025-.219z"/>
        </g>
        <path d="m70.981 101.182c-.2066-.292-.3469-.626-.4108-.979-.0639-.352-.05-.7143.0408-1.0608.0907-.3465.2561-.6688.4846-.9443.2284-.2755.5142-.4973.8374-.65l6.7711-21.2627 4.7156 2.4567-8.1385 20.1281c.2198.5615.2265 1.184.019 1.75-.2076.567-.615 1.037-1.145 1.322-.5301.285-1.146.365-1.731.225s-1.0985-.49-1.4432-.985z"
              fill="#ffb6b6"/>
        <path d="m76.5126 79.2254c-.0648-.1439-.0979-.3002-.0971-.4581.0009-.1579.0358-.3137.1022-.4569l2.3192-5.0006c.2288-.7745.7545-1.4265 1.4618-1.8129.7073-.3865 1.5386-.4759 2.3115-.2487.773.2272 1.4246.7525 1.812 1.4608.3874.7082.4789 1.5416.2547 2.3175l-.7752 5.4781c-.0221.1563-.0776.306-.1626.4389s-.1976.2459-.3301.3312-.2818.141-.4376.1633c-.1559.0222-.3147.0105-.4657-.0343l-5.3057-1.5766c-.151-.0448-.2906-.1217-.4092-.2256-.1187-.1038-.2136-.2321-.2782-.3761z"
              fill="#2f2e41"/>
        <path d="m96.074 80.0703c-1.6115 4.2319-1.1997 8.6706.7849 13.2702h-14.059c.565-3.2726.3358-6.314-1.7574-8.8125z"
              fill="#ffb6b6"/>
        <path d="m79.6196 72.291 4.1608-3.0348 6.8086-1.8968 5.6739 1.138.3335 3.1445c.4057 3.8248.2295 7.6892-.5226 11.4608l-14.752 3.4143-1.5131-2.6555s-3.4043-3.4143-.7565-7.2079z"
              fill="#2f2e41"/>
        <path d="m115.758 51.0654c.093.346.109.7081.047 1.061-.061.3529-.2.6879-.404.9814-.205.2935-.472.5384-.781.7174-.31.1791-.654.2879-1.01.3188l-13.6972 17.5931-3.5749-3.9431 14.5881-16.0536c-.013-.6031.196-1.1897.586-1.6486.391-.459.935-.7585 1.531-.8417s1.201.0557 1.702.3902c.5.3346.861.8417 1.013 1.4251z"
              fill="#ffb6b6"/>
        <path d="m102.985 69.739c.011.1575-.012.3155-.068.4634-.055.1478-.142.2819-.253.3931l-3.9033 3.8851c-.4822.6471-1.2005 1.0762-1.9976 1.193s-1.6078-.0881-2.2545-.5699c-.6466-.4817-1.0764-1.201-1.1951-2.0001-.1187-.799.0834-1.6127.5619-2.2626l2.6196-4.8694c.0747-.139.1785-.2602.3042-.3553.1256-.0951.2703-.162.424-.196.1538-.034.313-.0344.4669-.0011s.2989.0995.425.194l4.4329 3.3224c.126.0945.23.2152.306.3538.075.1387.12.292.131.4496z"
              fill="#2f2e41"/>
        <path d="m79.6381 150.9h2.1543l1.025-8.334h-3.1797z" fill="#ffb6b6"/>
        <path d="m78.9084 149.833 3.4057-.204v1.463l3.2379 2.243c.1599.111.2804.27.3438.454.0633.184.0663.384.0085.57s-.1735.349-.33.465c-.1566.115-.3459.177-.5402.177h-4.0546l-.6989-1.447-.2728 1.447h-1.5288z"
              fill="#2f2e41"/>
        <path d="m94.869 150.9h2.1544l1.0249-8.334h-3.1796z" fill="#ffb6b6"/>
        <path d="m94.1394 149.833 3.4057-.204v1.463l3.2379 2.243c.16.111.28.27.344.454.063.184.066.384.008.57s-.173.349-.33.465c-.156.115-.346.177-.54.177h-4.0545l-.6989-1.447-.2729 1.447h-1.5287z"
              fill="#2f2e41"/>
        <path d="m100.592 104.206v4.25l-.414 5.191s-.131 4.534-.2889 8.11c-.0956 2.174-.2031 3.993-.2968 4.228-.1152.288-.0879 1.073-.0214 1.897.0781.954.207 1.961.2284 2.298.041.628-.291 3.329-.291 3.329s-.371 6.772-.9098 7.312c-.539.541 0 2.078 0 2.078-2.5268 1.868-5.7174-.415-5.7174-.415.7049-1.126-.414-8.813-.414-8.813s-.164-2.624-.4959-3.329c-.332-.705-.416-5.109-.416-5.109v-6.523s-.8709-1.336-.9939-1.959c-.123-.622 0-2.824 0-2.824l-.9099-3.074-.6229 2.409s-1.6129 6.73-1.9038 7.561c-.2909.83.164 1.662.164 1.662s.4159 1.281 0 1.869c-.2584.368-.4562.775-.5858 1.206 0 0-.2129 2.452-.5857 3.329-.373.877-.703 1.958-.703 1.958s.0878 1.657-.2851 2.031c-.373.374-.496 2.244-.496 2.244s.082 2.117-.416 2.865c-.4979.749-.4978 4.986-.4978 4.986-.8636.556-1.8587.872-2.8838.916-1.0251.043-2.0433-.187-2.9507-.667 0 0 .492-.462.1191-2.616s.2675-8.02.2675-8.02-.082-1.488.3319-2.154c.414-.666-.2089-1.952-.0429-2.534.166-.581.6639-3.74.6639-3.74s-.207-7.769-.207-8.184c-.049-.739-.2484-1.46-.5858-2.119-.3729-.664 0-5.483 0-5.483s.8787-2.491.5858-3.032c-.2929-.54.1952-1.496.1952-1.496s-.455-1.122 0-1.33c.455-.207.539-1.038.539-1.038l.3163-4.0299s.1191-1.8291.4979-1.9114c.3788-.0822.2129-.7872.5858-1.2866.1818-.3376.3071-.7028.371-1.081.0527-.2311.1016-.472.1426-.7031.1171-.6266.1894-1.1671.1894-1.1671 2.4447 2.0366 15.2989.609 15.3126.609.8162.1782 1.7867 3.0198 2.4877 5.4971.6232 2.2136.9382 4.503.9372 6.803z"
              fill="#2f2e41"/>
        <path d="m91.2427 62.0129c.9369-3.0911-.8021-6.3587-3.8842-7.2984-3.0822-.9397-6.3403.8044-7.2772 3.8956-.937 3.0911.802 6.3587 3.8842 7.2984 3.0821.9397 6.3402-.8044 7.2772-3.8956z"
              fill="#ffb6b6"/>
        <path d="m79.069 61.3295 2.2586-.4713.4159-3.0061.7798 2.7566 1.0795-.2253.2426-1.7536.4549 1.608 8.0215-1.6739c-.1652-.7962-.4852-1.5519-.9416-2.2241s-1.0403-1.2476-1.7185-1.6934c-.6781-.4459-1.4372-.7534-2.2338-.905-.7967-.1516-1.6153-.1444-2.4091.0213l-1.1626.2426c-1.6032.3346-3.0083 1.2942-3.9061 2.6677-.8978 1.3736-1.2147 3.0486-.8811 4.6565z"
              fill="#2f2e41"/>
        <path d="m102.176 17.3447-.015.0285c-2.946-1.361-6.3009-1.5335-9.3699-.4816-3.0691 1.052-5.617 3.2476-7.116 6.1321s-1.8342 6.2368-.936 9.3624c.8981 3.1255 2.9606 5.7848 5.7603 7.4269l-.0148.0286 22.4314 11.725 11.691-22.4969c.77-1.4773 1.241-3.0923 1.388-4.7526s-.034-3.3333-.532-4.9234-1.304-3.0662-2.371-4.3438c-1.068-1.2776-2.376-2.3318-3.849-3.1021-1.474-.7704-3.085-1.2419-4.741-1.3875-1.655-.1457-3.323.0373-4.908.5385s-3.056 1.3108-4.329 2.3825-2.323 2.3845-3.089 3.8634z"
              fill="#0c97f0"/>
        <path d="m122.161 146.438-.004.007c-.744-.344-1.592-.387-2.368-.121s-1.42.821-1.799 1.55-.463 1.576-.236 2.366.748 1.462 1.456 1.877l-.004.007 5.67 2.964 2.954-5.686c.195-.374.314-.782.351-1.202.037-.419-.008-.842-.134-1.244s-.33-.775-.599-1.098c-.27-.323-.601-.589-.973-.784-.373-.195-.78-.314-1.199-.351-.418-.037-.84.01-1.24.136-.401.127-.773.332-1.094.603-.322.271-.587.602-.781.976z"
              fill="#ff6584"/>
        <path d="m46.9513 74.3413v.0322c-3.2395.1584-6.294 1.5606-8.5308 3.916s-3.4845 5.4835-3.4845 8.7363 1.2477 6.3809 3.4845 8.7363 5.2913 3.7575 8.5308 3.916v.0322h25.2954v-25.369c.0016-1.6668-.3244-3.3176-.9593-4.8579-.6349-1.5404-1.5663-2.9402-2.7409-4.1193-1.1746-1.1792-2.5694-2.1146-4.1047-2.7529-1.5352-.6382-3.1809-.9667-4.8428-.9667-1.662 0-3.3076.3285-4.8429.9667-1.5353.6383-2.9301 1.5737-4.1047 2.7529-1.1746 1.1791-2.106 2.5789-2.7409 4.1193-.6348 1.5403-.9608 3.1911-.9592 4.8579z"
              fill="#0c97f0"/>
        <path d="m138.359 155.401h-74.6416c-.0364 0-.0714-.029-.0971-.081-.0258-.052-.0402-.123-.0402-.196s.0144-.144.0402-.195c.0257-.052.0607-.081.0971-.081h74.6416c.036 0 .071.029.097.081.025.051.04.122.04.195s-.015.144-.04.196c-.026.052-.061.081-.097.081z"
              fill="#cacaca"/>
        <path d="m144.714 98.3074c2.583-.0162 5.081-.9308 7.068-2.5877 2.022-1.7056 3.353-4.0937 3.742-6.7149.229-1.4818.155-2.9947-.216-4.4472-.023-.0727-.073-.1337-.14-.1702-.066-.0365-.145-.0455-.218-.0253-.073.0203-.136.0683-.174.1339-.039.0656-.051.1437-.033.2178.626 2.4662.344 5.0762-.796 7.3502-.875 1.7004-2.199 3.127-3.827 4.1244s-3.498 1.5271-5.406 1.5315c-.076.0026-.148.0347-.201.0895s-.082.128-.082.2042.029.1495.082.2043.125.0869.201.0895z"
              fill="#f0f0f0"/>
        <path d="m99.481 21.9983c-1.6667-1.5867-4.2985-1.5826-6.2233-.478-2.1601 1.2396-3.1394 3.8011-3.0899 6.2062.0557 2.7068 1.3753 5.1577 3.0792 7.1876 1.816 2.1092 3.9293 3.9413 6.2731 5.4382 2.3369 1.5266 4.8659 2.7353 7.5209 3.5944.326.1056.655.2057.985.3003.074.0177.152.0059.217-.0328.066-.0388.113-.1015.134-.175.02-.0735.011-.1519-.026-.2188-.036-.0669-.097-.1171-.169-.1399-5.098-1.4609-9.7324-4.2186-13.4539-8.0055-1.7716-1.8199-3.346-4.007-3.8303-6.5526-.4276-2.2481.045-4.8584 1.7824-6.4597 1.6889-1.5567 4.6448-1.9072 6.3865-.2489.2734.2602.6883-.1545.4143-.4155z"
              fill="#fff"/>
        <path d="m46.518 80.5206c-2.2513-.2808-4.3656 1.3073-5.2425 3.3132-.9833 2.2495-.3203 4.8425 1.106 6.7436 1.5709 2.0938 3.9502 3.3143 6.4375 3.9622 2.6698.6954 5.504.8832 8.2523.7547 3.2489-.151 6.455-.8046 9.5048-1.9377.3503-.1304.1988-.6985-.1557-.5665-5.077 1.8906-10.729 2.4871-16.0678 1.4889-2.3865-.4461-4.8169-1.2973-6.5953-3.0193-1.6114-1.5603-2.7513-3.9233-2.2664-6.2053.4819-2.2676 2.6316-4.2451 5.0271-3.9463.3732.0465.3699-.5414 0-.5875z"
              fill="#fff"/>
        <path d="m83.9734 51.7428c.5445-2.1831-.5101-4.5247-2.1432-6.068-1.633-1.5433-3.764-2.4303-5.8731-3.1982-1.6819-.6125-3.652-1.1452-5.1743-.2019-1.2232.7579-1.7538 2.2301-2.453 3.4901-1.3325 2.4011-3.4823 4.2408-6.0562 5.1828-2.5739.9419-5.3999.9232-7.9611-.0528.9028 2.6283 4.0124 3.914 6.7785 3.7354 2.7661-.1785 5.321-1.4561 7.8978-2.4806s5.4431-1.816 8.0915-.9955c1.1178.3462 2.1344.9643 3.2412 1.3446 1.1067.3803 2.4019.4935 3.3883-.1374"
              fill="#2f2e41"/>
        <path d="m122.717 131.7-1.886-3.329c-.041-.064-.105-.11-.178-.128-.074-.018-.152-.007-.218.032-.065.038-.114.101-.134.174-.021.073-.012.152.024.219l1.886 3.329c.04.064.104.11.178.128s.152.007.218-.032c.065-.038.113-.101.134-.174.02-.073.012-.152-.024-.219z"
              fill="#f0f0f0"/>
    </g>
</svg>