<svg width="43" height="48" viewBox="0 0 43 48" fill="none" xmlns="http://www.w3.org/2000/svg">
<g opacity="0.23">
<path opacity="0.038" d="M36.4562 38.1718C36.4597 35.7303 30.1093 33.742 22.2723 33.7308C14.4352 33.7196 8.07916 35.6897 8.07566 38.1312C8.07217 40.5727 14.4225 42.561 22.2596 42.5722C30.0967 42.5834 36.4527 40.6133 36.4562 38.1718Z" fill="#4A0101"/>
<path opacity="0.077" d="M36.0805 38.1714C36.0839 35.7945 29.9016 33.8588 22.2719 33.8479C14.6422 33.837 8.45439 35.7549 8.45098 38.1318C8.44758 40.5087 14.6299 42.4444 22.2596 42.4553C29.8893 42.4662 36.0771 40.5482 36.0805 38.1714Z" fill="#480202"/>
<path opacity="0.115" d="M35.7055 38.1709C35.7089 35.8587 29.6944 33.9756 22.2719 33.9649C14.8494 33.9543 8.82961 35.8202 8.8263 38.1325C8.823 40.4447 14.8374 42.3278 22.2599 42.3384C29.6824 42.3491 35.7022 40.4832 35.7055 38.1709Z" fill="#460303"/>
<path opacity="0.154" d="M35.3305 38.1702C35.3337 35.9224 29.4871 34.0917 22.2718 34.0814C15.0565 34.0711 9.20472 35.885 9.2015 38.1328C9.19829 40.3807 15.0448 42.2114 22.2602 42.2217C29.4755 42.232 35.3272 40.4181 35.3305 38.1702Z" fill="#440404"/>
<path opacity="0.192" d="M34.9555 38.1698C34.9586 35.9865 29.2799 34.2085 22.2718 34.1985C15.2637 34.1884 9.57995 35.9502 9.57682 38.1335C9.5737 40.3168 15.2524 42.0948 22.2605 42.1048C29.2686 42.1149 34.9524 40.3531 34.9555 38.1698Z" fill="#420505"/>
<path opacity="0.231" d="M34.5799 38.1692C34.583 36.0506 29.0722 34.3251 22.2712 34.3154C15.4703 34.3057 9.95457 36.0153 9.95154 38.134C9.9485 40.2527 15.4593 41.9781 22.2602 41.9878C29.0612 41.9976 34.5769 40.2879 34.5799 38.1692Z" fill="#400606"/>
<path opacity="0.269" d="M34.205 38.1688C34.2079 36.1147 28.865 34.4419 22.2712 34.4325C15.6775 34.423 10.3298 36.0806 10.3269 38.1346C10.3239 40.1887 15.6668 41.8615 22.2606 41.871C28.8543 41.8804 34.202 40.2229 34.205 38.1688Z" fill="#3E0606"/>
<path opacity="0.308" d="M33.8299 38.1682C33.8327 36.1786 28.6577 34.5582 22.2711 34.549C15.8846 34.5399 10.7049 36.1455 10.7021 38.1351C10.6992 40.1248 15.8742 41.7452 22.2608 41.7543C28.6474 41.7635 33.827 40.1579 33.8299 38.1682Z" fill="#3C0707"/>
<path opacity="0.346" d="M33.4549 38.1678C33.4577 36.2427 28.4505 34.675 22.2711 34.6661C16.0917 34.6573 11.0801 36.2107 11.0774 38.1358C11.0746 40.0609 16.0818 41.6286 22.2612 41.6375C28.4405 41.6463 33.4522 40.0929 33.4549 38.1678Z" fill="#3A0808"/>
<path opacity="0.385" d="M33.0792 38.1673C33.0819 36.3068 28.2428 34.7916 22.2708 34.7831C16.2988 34.7745 11.4554 36.2758 11.4527 38.1363C11.45 39.9968 16.2891 41.5119 22.2611 41.5205C28.2331 41.529 33.0765 40.0277 33.0792 38.1673Z" fill="#380909"/>
<path opacity="0.423" d="M32.7036 38.1668C32.7062 36.3709 28.035 34.9084 22.2702 34.9001C16.5054 34.8919 11.83 36.3411 11.8274 38.1369C11.8248 39.9328 16.4961 41.3954 22.2609 41.4036C28.0257 41.4119 32.7011 39.9627 32.7036 38.1668Z" fill="#360A0A"/>
<path opacity="0.462" d="M32.3285 38.1661C32.331 36.4346 27.8277 35.0245 22.2701 35.0166C16.7124 35.0086 12.2051 36.4058 12.2026 38.1373C12.2001 39.8688 16.7035 41.2789 22.2611 41.2869C27.8187 41.2948 32.3261 39.8976 32.3285 38.1661Z" fill="#340B0B"/>
<path opacity="0.5" d="M31.9536 38.1656C31.956 36.4987 27.6205 35.1412 22.2701 35.1335C16.9196 35.1259 12.5803 36.4709 12.5779 38.1378C12.5755 39.8047 16.911 41.1622 22.2614 41.1699C27.6119 41.1775 31.9512 39.8325 31.9536 38.1656Z" fill="#330C0C"/>
<path opacity="0.538" d="M31.5786 38.1648C31.5809 36.5625 27.4133 35.2576 22.2701 35.2502C17.1268 35.2429 12.9555 36.5358 12.9532 38.1381C12.951 39.7404 17.1185 41.0453 22.2618 41.0526C27.405 41.06 31.5763 39.7671 31.5786 38.1648Z" fill="#310D0D"/>
<path opacity="0.577" d="M31.2036 38.1647C31.2058 36.627 27.2062 35.3747 22.2701 35.3677C17.334 35.3606 13.3308 36.6014 13.3286 38.1391C13.3264 39.6768 17.3261 40.9291 22.2621 40.9361C27.1982 40.9432 31.2014 39.7024 31.2036 38.1647Z" fill="#2F0E0E"/>
<path opacity="0.615" d="M30.8286 38.1639C30.8307 36.6908 26.9989 35.4912 22.27 35.4844C17.5411 35.4776 13.7059 36.6663 13.7038 38.1394C13.7017 39.6125 17.5335 40.8121 22.2623 40.8189C26.9912 40.8257 30.8265 39.637 30.8286 38.1639Z" fill="#2D0F0F"/>
<path opacity="0.654" d="M30.453 38.1634C30.455 36.7548 26.7911 35.6075 22.2694 35.6011C17.7477 35.5946 14.0805 36.7313 14.0785 38.14C14.0765 39.5487 17.7404 40.6959 22.2621 40.7024C26.7838 40.7089 30.451 39.5721 30.453 38.1634Z" fill="#2B1010"/>
<path opacity="0.692" d="M30.0779 38.1628C30.0798 36.8187 26.5839 35.7241 22.2696 35.7179C17.9553 35.7117 14.4563 36.7963 14.4544 38.1404C14.4525 39.4845 17.9484 40.5791 22.2627 40.5853C26.577 40.5915 30.076 39.5069 30.0779 38.1628Z" fill="#291111"/>
<path opacity="0.731" d="M29.7028 38.1623C29.7046 36.8828 26.3766 35.8408 22.2695 35.835C18.1624 35.8291 14.8314 36.8616 14.8296 38.141C14.8278 39.4205 18.1558 40.4625 22.2629 40.4684C26.37 40.4743 29.701 39.4418 29.7028 38.1623Z" fill="#271212"/>
<path opacity="0.769" d="M29.3273 38.1619C29.3291 36.947 26.169 35.9576 22.269 35.952C18.3691 35.9465 15.2062 36.9268 15.2044 38.1417C15.2027 39.3566 18.3628 40.346 22.2627 40.3515C26.1627 40.3571 29.3256 39.3768 29.3273 38.1619Z" fill="#251212"/>
<path opacity="0.808" d="M28.9523 38.1614C28.9539 37.011 25.9617 36.074 22.2689 36.0687C18.5762 36.0634 15.5813 36.9918 15.5796 38.1423C15.578 39.2928 18.5702 40.2297 22.263 40.235C25.9557 40.2403 28.9506 39.3119 28.9523 38.1614Z" fill="#231313"/>
<path opacity="0.846" d="M28.5773 38.1608C28.5788 37.0749 25.7545 36.1905 22.2689 36.1856C18.7834 36.1806 15.9565 37.0568 15.955 38.1427C15.9534 39.2286 18.7778 40.1129 22.2633 40.1179C25.7489 40.1229 28.5757 39.2467 28.5773 38.1608Z" fill="#211414"/>
<path opacity="0.885" d="M28.2023 38.1603C28.2038 37.139 25.5473 36.3073 22.269 36.3026C18.9906 36.2979 16.3317 37.1221 16.3303 38.1433C16.3288 39.1646 18.9853 39.9964 22.2637 40.001C25.542 40.0057 28.2009 39.1816 28.2023 38.1603Z" fill="#1F1515"/>
<path opacity="0.923" d="M27.8268 38.1597C27.8281 37.203 25.3395 36.4239 22.2684 36.4195C19.1972 36.4151 16.7064 37.187 16.705 38.1437C16.7036 39.1004 19.1922 39.8795 22.2634 39.8839C25.3346 39.8883 27.8254 39.1163 27.8268 38.1597Z" fill="#1D1616"/>
<path opacity="0.962" d="M27.4517 38.1592C27.453 37.2669 25.1323 36.5402 22.2682 36.5361C19.4042 36.532 17.0815 37.2521 17.0802 38.1444C17.0789 39.0367 19.3996 39.7633 22.2636 39.7674C25.1276 39.7715 27.4504 39.0515 27.4517 38.1592Z" fill="#1B1717"/>
<path d="M27.0767 38.1588C27.0779 37.3311 24.9251 36.657 22.2683 36.6532C19.6114 36.6494 17.4567 37.3173 17.4555 38.145C17.4543 38.9727 19.6071 39.6468 22.264 39.6506C24.9208 39.6544 27.0755 38.9865 27.0767 38.1588Z" fill="#191818"/>
</g>
<path d="M35.617 28.7384C32.9842 35.6405 25.908 39.4823 19.8118 37.3201C13.7156 35.1574 10.9079 27.8094 13.5404 20.9073C16.1732 14.0052 23.2494 10.1633 29.3456 12.3256C35.4417 14.4879 38.2494 21.8367 35.617 28.7384Z" fill="url(#paint0_linear_150_13957)"/>
<path d="M34.0514 27.7033C31.4186 34.6054 24.3424 38.4473 18.2462 36.285C12.1501 34.1224 9.34236 26.7744 11.9752 19.8723C14.608 12.9702 21.6842 9.1283 27.7804 11.2906C33.8765 13.4532 36.6842 20.8012 34.0514 27.7033Z" fill="url(#paint1_linear_150_13957)"/>
<path d="M31.7714 26.8943C29.6826 32.3708 24.0679 35.4192 19.2308 33.7033C14.3937 31.9873 12.166 26.1569 14.2548 20.6808C16.3436 15.2043 21.9583 12.1559 26.7954 13.8718C31.6325 15.5878 33.8606 21.4182 31.7714 26.8943Z" fill="url(#paint2_linear_150_13957)"/>
<path d="M29.8061 26.1975C28.1859 30.4452 23.8311 32.8096 20.0793 31.479C16.3275 30.148 14.5998 25.6259 16.22 21.3782C17.8402 17.1305 22.195 14.7661 25.9468 16.0967C29.6986 17.4276 31.4263 21.9498 29.8061 26.1975Z" fill="url(#paint3_linear_150_13957)"/>
<path d="M27.614 25.4196C26.5166 28.2965 23.5673 29.8978 21.0265 28.9965C18.4857 28.0951 17.3152 25.0323 18.4126 22.1557C19.51 19.2787 22.4593 17.6775 25.0001 18.5788C27.5409 19.4801 28.7114 22.543 27.614 25.4196Z" fill="url(#paint4_linear_150_13957)"/>
<path d="M25.5917 24.7022C24.9769 26.3144 23.3238 27.2116 21.9 26.7066C20.4763 26.2016 19.8203 24.4853 20.4354 22.873C21.0502 21.2608 22.7033 20.3636 24.127 20.8686C25.5508 21.3736 26.2064 23.0899 25.5917 24.7022Z" fill="url(#paint5_linear_150_13957)"/>
<path d="M31.5876 13.6833C34.8117 16.9877 35.8898 22.404 33.9187 27.5708C31.2859 34.4729 24.21 38.3148 18.1135 36.1525C16.6424 35.6309 15.3637 34.8064 14.3057 33.7597C15.3883 34.8692 16.7129 35.741 18.2456 36.285C24.3418 38.4473 31.418 34.6054 34.0508 27.7033C36.0488 22.4668 34.9139 16.9741 31.5876 13.6833Z" fill="url(#paint6_linear_150_13957)"/>
<path d="M11.6345 9.20775L11.8272 4.9873L15.6661 10.5467L15.3046 13.7761L11.6345 9.20775Z" fill="url(#paint7_linear_150_13957)"/>
<path d="M10.7765 10.3858L6.33191 10.0031L10.7765 14.5165L14.49 14.7175L10.7765 10.3858Z" fill="url(#paint8_linear_150_13957)"/>
<path d="M22.644 24.2297L10.7769 10.3858L11.6343 9.20813L23.7403 23.5578C23.7403 23.5578 24.0257 24.1514 23.696 24.3993C23.2853 24.7086 23.2853 24.7086 22.644 24.2297Z" fill="url(#paint9_linear_150_13957)"/>
<g opacity="0.3">
<path opacity="0.038" d="M20.9377 28.5418C25.7034 26.1224 29.0123 23.0692 28.3286 21.7223C27.6448 20.3755 23.2272 21.2449 18.4616 23.6643C13.6959 26.0837 10.387 29.1369 11.0707 30.4838C11.7545 31.8307 16.1721 30.9612 20.9377 28.5418Z" fill="#4A0101"/>
<path opacity="0.077" d="M21.0079 28.412C25.6475 26.0566 28.8689 23.0841 28.2032 21.7728C27.5375 20.4616 23.2367 21.308 18.5971 23.6635C13.9575 26.0189 10.7361 28.9913 11.4018 30.3026C12.0675 31.6139 16.3683 30.7674 21.0079 28.412Z" fill="#480202"/>
<path opacity="0.115" d="M21.0783 28.2824C25.5918 25.991 28.7258 23.0993 28.0782 21.8236C27.4305 20.5479 23.2466 21.3714 18.733 23.6628C14.2194 25.9543 11.0854 28.846 11.7331 30.1217C12.3807 31.3974 16.5647 30.5739 21.0783 28.2824Z" fill="#460303"/>
<path opacity="0.154" d="M21.1473 28.1525C25.5348 25.925 28.5813 23.1141 27.9518 21.874C27.3222 20.6339 23.255 21.4344 18.8675 23.6619C14.4799 25.8893 11.4334 28.7003 12.063 29.9404C12.6926 31.1805 16.7597 30.38 21.1473 28.1525Z" fill="#440404"/>
<path opacity="0.192" d="M21.218 28.0227C25.4796 25.8592 28.4385 23.129 27.827 21.9245C27.2156 20.7201 23.2652 21.4975 19.0037 23.661C14.7421 25.8245 11.7832 28.5548 12.3947 29.7592C13.0061 30.9637 16.9565 30.1862 21.218 28.0227Z" fill="#420505"/>
<path opacity="0.231" d="M21.2878 27.8927C25.4233 25.7932 28.2948 23.1436 27.7014 21.9748C27.108 20.8059 23.2744 21.5604 19.1389 23.6599C15.0034 25.7594 12.1319 28.409 12.7253 29.5778C13.3187 30.7467 17.1523 29.9922 21.2878 27.8927Z" fill="#400606"/>
<path opacity="0.269" d="M21.3576 27.763C25.3671 25.7275 28.151 23.1586 27.5757 22.0254C27.0004 20.8922 23.2836 21.6236 19.2741 23.6592C15.2646 25.6947 12.4807 28.2635 13.056 29.3968C13.6313 30.53 17.3481 29.7985 21.3576 27.763Z" fill="#3E0606"/>
<path opacity="0.308" d="M21.4277 27.6331C25.3112 25.6615 28.0076 23.1734 27.4504 22.0758C26.8931 20.9782 23.2932 21.6866 19.4097 23.6582C15.5262 25.6298 12.8298 28.1178 13.387 29.2155C13.9443 30.3131 17.5442 29.6046 21.4277 27.6331Z" fill="#3C0707"/>
<path opacity="0.346" d="M21.4968 27.503C25.2543 25.5955 27.8632 23.1881 27.3241 22.1261C26.7849 21.064 23.3018 21.7495 19.5443 23.6571C15.7869 25.5647 13.1779 27.972 13.7171 29.0341C14.2563 30.0961 17.7394 29.4106 21.4968 27.503Z" fill="#3A0808"/>
<path opacity="0.385" d="M21.5669 27.3737C25.1986 25.53 27.7202 23.2033 27.1991 22.1768C26.678 21.1504 23.3115 21.813 19.6799 23.6567C16.0483 25.5004 13.5267 27.8271 14.0478 28.8535C14.5689 29.8799 17.9353 29.2174 21.5669 27.3737Z" fill="#380909"/>
<path opacity="0.423" d="M21.6371 27.2436C25.1427 25.4639 27.5768 23.2179 27.0738 22.2271C26.5707 21.2363 23.3211 21.8758 19.8155 23.6556C16.3099 25.4353 13.8758 27.6813 14.3788 28.6721C14.8818 29.6629 18.1315 29.0234 21.6371 27.2436Z" fill="#360A0A"/>
<path opacity="0.462" d="M21.7067 27.1135C25.0863 25.3977 27.4329 23.2325 26.9479 22.2773C26.463 21.3221 23.3302 21.9386 19.9506 23.6543C16.571 25.3701 14.2244 27.5353 14.7094 28.4905C15.1943 29.4458 18.3271 28.8292 21.7067 27.1135Z" fill="#340B0B"/>
<path opacity="0.5" d="M21.7766 26.9837C25.0302 25.3319 27.2892 23.2474 26.8224 22.3278C26.3555 21.4082 23.3395 22.0017 20.0859 23.6535C16.8324 25.3053 14.5733 27.3898 15.0402 28.3094C15.507 29.229 18.523 28.6354 21.7766 26.9837Z" fill="#330C0C"/>
<path opacity="0.538" d="M21.847 26.854C24.9745 25.2662 27.1461 23.2624 26.6973 22.3784C26.2485 21.4944 23.3493 22.065 20.2218 23.6528C17.0942 25.2405 14.9227 27.2443 15.3714 28.1283C15.8202 29.0123 18.7194 28.4418 21.847 26.854Z" fill="#310D0D"/>
<path opacity="0.577" d="M21.9167 26.7242C24.9183 25.2004 27.0023 23.2773 26.5716 22.4289C26.1409 21.5805 23.3585 22.1281 20.357 23.6519C17.3555 25.1757 15.2714 27.0988 15.7021 27.9472C16.1328 28.7956 18.9152 28.248 21.9167 26.7242Z" fill="#2F0E0E"/>
<path opacity="0.615" d="M21.9861 26.5944C24.8617 25.1346 26.8582 23.2922 26.4456 22.4794C26.0329 21.6667 23.3674 22.1912 20.4919 23.651C17.6163 25.1109 15.6198 26.9532 16.0324 27.766C16.4451 28.5788 19.1106 28.0542 21.9861 26.5944Z" fill="#2D0F0F"/>
<path opacity="0.654" d="M22.0565 26.4646C24.806 25.0687 26.7151 23.3071 26.3205 22.53C25.9259 21.7528 23.3772 22.2543 20.6277 23.6502C17.8782 25.046 15.9691 26.8076 16.3637 27.5848C16.7583 28.362 19.307 27.8605 22.0565 26.4646Z" fill="#2B1010"/>
<path opacity="0.692" d="M22.1263 26.3347C24.7498 25.0028 26.5713 23.3219 26.1948 22.5803C25.8183 21.8388 23.3864 22.3173 20.7629 23.6492C18.1394 24.9811 16.3179 26.662 16.6944 27.4035C17.0709 28.1451 19.5028 27.6666 22.1263 26.3347Z" fill="#291111"/>
<path opacity="0.731" d="M22.1958 26.2048C24.6933 24.9368 26.4273 23.3367 26.0689 22.6307C25.7105 21.9248 23.3954 22.3803 20.8979 23.6482C18.4004 24.9161 16.6664 26.5163 17.0248 27.2222C17.3832 27.9282 19.6983 27.4727 22.1958 26.2048Z" fill="#271212"/>
<path opacity="0.769" d="M22.2656 26.075C24.637 24.871 26.2835 23.3516 25.9432 22.6813C25.6029 22.0109 23.4046 22.4434 21.0331 23.6474C18.6617 24.8513 17.0152 26.3707 17.3555 27.0411C17.6958 27.7114 19.8941 27.2789 22.2656 26.075Z" fill="#251212"/>
<path opacity="0.808" d="M22.3357 25.9454C24.5813 24.8053 26.1405 23.3665 25.8182 22.7318C25.496 22.097 23.4143 22.5067 21.1687 23.6467C18.9231 24.7867 17.3639 26.2255 17.6862 26.8603C18.0084 27.495 20.0901 27.0854 22.3357 25.9454Z" fill="#231313"/>
<path opacity="0.846" d="M22.4051 25.8151C24.5247 24.7391 25.9964 23.3812 25.6923 22.7822C25.3883 22.1832 23.4235 22.57 21.3039 23.6461C19.1843 24.7222 17.7126 26.08 18.0167 26.679C18.3207 27.278 20.2855 26.8912 22.4051 25.8151Z" fill="#211414"/>
<path opacity="0.885" d="M22.4751 25.6851C24.4687 24.673 25.8529 23.3958 25.5669 22.8325C25.2809 22.2691 23.4329 22.6329 21.4394 23.645C19.4458 24.6571 18.0616 25.9342 18.3476 26.4976C18.6336 27.0609 20.4815 26.6972 22.4751 25.6851Z" fill="#1F1515"/>
<path opacity="0.923" d="M22.5449 25.5557C24.4124 24.6075 25.7092 23.4111 25.4412 22.8834C25.1733 22.3556 23.4421 22.6964 21.5746 23.6445C19.7071 24.5926 18.4103 25.789 18.6782 26.3168C18.9462 26.8445 20.6773 26.5038 22.5449 25.5557Z" fill="#1D1616"/>
<path opacity="0.962" d="M22.6146 25.4256C24.3562 24.5415 25.5654 23.4258 25.3155 22.9336C25.0657 22.4415 23.4514 22.7592 21.7098 23.6434C19.9683 24.5275 18.7591 25.6432 19.0089 26.1354C19.2588 26.6275 20.8731 26.3097 22.6146 25.4256Z" fill="#1B1717"/>
<path d="M22.6854 25.2954C24.3009 24.4753 25.4226 23.4403 25.1908 22.9838C24.9591 22.5272 23.4615 22.822 21.846 23.6422C20.2305 24.4623 19.1088 25.4973 19.3406 25.9538C19.5723 26.4104 21.0699 26.1156 22.6854 25.2954Z" fill="#191818"/>
</g>
<defs>
<linearGradient id="paint0_linear_150_13957" x1="22.5748" y1="30.155" x2="28.1749" y2="15.4882" gradientUnits="userSpaceOnUse">
<stop stop-color="#B92222"/>
<stop offset="0.247" stop-color="#DD2F2F"/>
<stop offset="0.855" stop-color="#FF6757"/>
</linearGradient>
<linearGradient id="paint1_linear_150_13957" x1="10.5989" y1="23.6089" x2="36.4491" y2="23.9813" gradientUnits="userSpaceOnUse">
<stop stop-color="#B92222"/>
<stop offset="0.247" stop-color="#DD2F2F"/>
<stop offset="0.855" stop-color="#FF6757"/>
</linearGradient>
<linearGradient id="paint2_linear_150_13957" x1="15.5178" y1="18.236" x2="31.1243" y2="28.394" gradientUnits="userSpaceOnUse">
<stop stop-color="#EBEBEB"/>
<stop offset="1" stop-color="white"/>
</linearGradient>
<linearGradient id="paint3_linear_150_13957" x1="10.5987" y1="23.6089" x2="36.449" y2="23.9813" gradientUnits="userSpaceOnUse">
<stop stop-color="#B92222"/>
<stop offset="0.247" stop-color="#DD2F2F"/>
<stop offset="0.855" stop-color="#FF6757"/>
</linearGradient>
<linearGradient id="paint4_linear_150_13957" x1="19.0757" y1="20.8713" x2="27.2739" y2="26.2074" gradientUnits="userSpaceOnUse">
<stop stop-color="#EBEBEB"/>
<stop offset="1" stop-color="white"/>
</linearGradient>
<linearGradient id="paint5_linear_150_13957" x1="10.599" y1="23.6088" x2="36.4492" y2="23.9812" gradientUnits="userSpaceOnUse">
<stop stop-color="#B92222"/>
<stop offset="0.247" stop-color="#DD2F2F"/>
<stop offset="0.855" stop-color="#FF6757"/>
</linearGradient>
<linearGradient id="paint6_linear_150_13957" x1="38.949" y1="23.3388" x2="20.8439" y2="26.3203" gradientUnits="userSpaceOnUse">
<stop stop-color="#FFDDD9"/>
<stop offset="1" stop-color="#FF6757"/>
</linearGradient>
<linearGradient id="paint7_linear_150_13957" x1="13.0686" y1="10.7681" x2="14.5276" y2="6.94704" gradientUnits="userSpaceOnUse">
<stop stop-color="#303030"/>
<stop offset="1" stop-color="#727272"/>
</linearGradient>
<linearGradient id="paint8_linear_150_13957" x1="10.1669" y1="13.0836" x2="10.9746" y2="10.9681" gradientUnits="userSpaceOnUse">
<stop stop-color="#303030"/>
<stop offset="1" stop-color="#727272"/>
</linearGradient>
<linearGradient id="paint9_linear_150_13957" x1="17.8028" y1="16.6777" x2="16.9145" y2="17.4976" gradientUnits="userSpaceOnUse">
<stop stop-color="#303030"/>
<stop offset="1" stop-color="#727272"/>
</linearGradient>
</defs>
</svg>
