<svg fill="none" height="178" viewBox="0 0 191 178" width="191" xmlns="http://www.w3.org/2000/svg"><clipPath id="a"><path d="m0 0h190.594v177.717h-190.594z"/></clipPath><g clip-path="url(#a)"><g fill="#f2f2f2"><path d="m128.473 125.986h-68.3709c-5.747 0-10.4224-4.676-10.4224-10.423v-68.371c0-5.747 4.6754-10.4225 10.4224-10.4225h68.3709c5.747 0 10.423 4.6755 10.423 10.4225v68.371c0 5.747-4.676 10.423-10.423 10.423zm-68.3709-87.5489c-4.8351 0-8.7548 3.9197-8.7548 8.7549v68.371c0 4.835 3.9197 8.755 8.7548 8.755h47.8929c16.145 0 29.233-13.088 29.233-29.2336v-47.8924c0-4.8352-3.919-8.7549-8.755-8.7549z"/><path d="m67.4739 45.5469c-3.236 0-5.8684 2.6324-5.8684 5.8684v9.1854c0 3.2359 2.6324 5.8684 5.8684 5.8684h9.1854c3.2359 0 5.8684-2.6325 5.8684-5.8684v-9.1854c0-3.236-2.6325-5.8684-5.8684-5.8684z"/><path d="m67.4739 71.4043c-3.236 0-5.8684 2.6325-5.8684 5.8684v9.1854c0 3.236 2.6324 5.8684 5.8684 5.8684h9.1854c3.2359 0 5.8684-2.6324 5.8684-5.8684v-9.1854c0-3.2359-2.6325-5.8684-5.8684-5.8684z"/><path d="m67.4739 97.2637c-3.236 0-5.8684 2.6324-5.8684 5.8683v9.185c0 3.236 2.6324 5.869 5.8684 5.869h9.1854c3.2359 0 5.8684-2.633 5.8684-5.869v-9.185c0-3.2359-2.6325-5.8683-5.8684-5.8683z"/></g><path d="m73.5643 23.1367c-4.0774 0-7.3944 3.317-7.3944 7.3944v11.5739c0 4.0774 3.317 7.3944 7.3944 7.3944h11.5739c4.0774 0 7.3944-3.317 7.3944-7.3944v-11.5739c0-4.0774-3.317-7.3944-7.3944-7.3944z" fill="#0c97f0"/><path d="m111.669 55.4805c-4.078 0-7.395 3.317-7.395 7.3944v11.5738c0 4.0774 3.317 7.3944 7.395 7.3944h11.574c4.077 0 7.394-3.317 7.394-7.3944v-11.5738c0-4.0774-3.317-7.3944-7.394-7.3944z" fill="#0c97f0"/><path d="m95.103 171.976-2.3512-.02-1.0409-9.28 3.4702.029z" fill="#a0616a"/><path d="m87.5713 175.715c-.0051.579.4614 1.055 1.0422 1.061l4.6749.039.8184-1.659.3005 1.667 1.764.016-.4455-5.947-.6136-.04-2.5032-.173-.8076-.054-.0141 1.683-3.7553 2.547c-.2858.194-.4578.515-.4607.86z" fill="#2f2e41"/><path d="m107.066 171.976-2.351-.02-1.041-9.28 3.47.029z" fill="#a0616a"/><path d="m99.5342 175.715c-.0051.579.4614 1.055 1.0418 1.061l4.675.039.819-1.659.3 1.667 1.764.016-.445-5.947-.614-.04-2.503-.173-.808-.054-.014 1.683-3.7552 2.547c-.2857.194-.4577.515-.4606.86z" fill="#2f2e41"/><path d="m85.8765 96.9434 9.5308.3009 9.0287 2.0065s-.903 1.1032 2.107 4.1132c0 0 4.013 7.023 1.204 13.845l-1.204 27.288s3.51 19.236.828 25.358l-3.544.222-5.998-25.358-2.9233-27.31-1.4046 26.887s5.3733 18.455 1.9803 25.781l-3.839-.222-6.5684-25.559s-2.8091-29.495-2.4078-35.113 3.2103-12.2396 3.2103-12.2396z" fill="#2f2e41"/><path d="m117.882 53.8245c-1.303.3373-2.085 1.667-1.748 2.9699.155.597.519 1.0827.992 1.4035v.0034l-.185 4.4768 3.426 1.5854.274-6.8891-.024.0008c.297-.5293.399-1.1686.235-1.8025-.337-1.3029-1.667-2.0856-2.97-1.7482z" fill="#a0616a"/><path d="m98.7353 69.8018c-.7197-.7134-1.1372-1.6806-1.1528-2.7323-.021-1.4109.6861-2.6915 1.8913-3.4255 1.3882-.8453 3.1232-.7598 4.4212.2176l10.758 8.1 1.917-11.6686 4.116 1.3248-.982 15.1942c-.069 1.0628-.67 1.9991-1.607 2.5045-.938.5054-2.05.4928-2.975-.0339l-15.5473-8.8452c-.3123-.1777-.5936-.3919-.8394-.6357z" fill="#3f3d56"/><path d="m82.331 47.2975c.6877 1.1569.3074 2.6522-.8495 3.3399-.5301.3152-1.1307.4036-1.6927.2983l-.0022.0024-3.0207 3.3094-3.5491-1.2862 4.6561-5.0848.0164.0174c.1617-.585.5389-1.1113 1.1017-1.4459 1.1569-.6877 2.6523-.3074 3.34.8495z" fill="#a0616a"/><path d="m83.6361 71.986-17.268-4.6645c-1.0282-.2778-1.8269-1.0518-2.1368-2.0708-.31-1.019-.0773-2.1067.6222-2.9099l10.0002-11.4814 3.8553 1.9567-6.854 9.636 13.3424 1.822c1.6101.2199 2.9028 1.3812 3.2933 2.9586.3391 1.3698-.0603 2.777-1.0686 3.7642-.7516.7358-1.729 1.1287-2.7424 1.1286-.3461 0-.6967-.0458-1.0436-.1395z" fill="#3f3d56"/><path d="m108.255 100.958-24.1476 1.108c-.6632-1.007-.4836-2.5219.4452-4.4182 3.5067-7.16.8435-20.7052-.9481-27.7583-.5027-1.9789.8467-3.9463 2.8783-4.1494l2.2768-.2277 2.1046-6.4245h7.3708l3.058 3.4935 5.189 3.1525c-.944 9.7298-4.969 23.469.765 30.3591 1.254 1.507 1.609 3.1365 1.008 4.865z" fill="#3f3d56"/><path d="m93.612 59.2358c3.9651 0 7.179-3.2143 7.179-7.1794s-3.2139-7.1794-7.179-7.1794-7.1794 3.2143-7.1794 7.1794 3.2143 7.1794 7.1794 7.1794z" fill="#a0616a"/><path d="m101.736 47.4616c.999-3.6418-9.8877-6.7647-12.0034-3.832-.2941-.4169-1.3813-.6702-1.8801-.5423s-.9184.4477-1.3277.7572c-.5627.4323-1.146.88-1.4913 1.5016-.3479.619-.4016 1.4632.0665 2.0004.3709.4271 1.0227 2.6972 1.5804 2.8098.3888.0793.7162.1432.9976.1893.2507-.3658.89-.8253.8439-1.2679.3786.2507.2403.6918.164 1.1425-.2542 1.501-5.9806 13.1205-2.7008 9.6965.3249.1919.7265.3709 1.1895.5346.7853-1.1844 1.4299-2.581 1.8546-4.0417l.003.027c.1462 1.2693 1.0738 2.3109 2.3011 2.6664 4.9232 1.4263 8.9057-.6665 10.2757-4.4406-.502-1.0182-.72-.9076-.675-.9378.626-.422 1.486-.146 1.755.5593.079.208.152.3855.214.5191.714-2.5529 1.563-2.1844-1.167-7.3414z" fill="#2f2e41"/><path d="m98.3402 44.8194-.5029-2.571c-.0423-.2161-.0824-.4506.015-.6481.1252-.2537.4471-.3589.7271-.3184.2801.0404.4895.2962.7682.3455.9684.1712 2.2494-.7856 2.5964 1.635.145 1.0093 1.755 1.1159 2.293 1.982.538.8662.604 2.1165-.13 2.8241-.586.5652-1.528.6304-2.289.3417-.762-.2887-1.373-.8718-1.9065-1.4868-.5338-.6149-1.0171-1.2804-1.6328-1.8133" fill="#2f2e41"/><path d="m102.12 48.7286c-1.965-.2744-3.3036-.9889-3.98-2.1234-.8853-1.4851-.2923-3.1203-.2666-3.1892l.4152.1544c-.0055.015-.5434 1.5119.2343 2.8118.605 1.0112 1.8361 1.6531 3.6581 1.9077z" fill="#0c97f0"/><path d="m111.339 20.9492c-5.775 0-10.475-4.6992-10.475-10.4746 0-5.77534 4.7-10.4746 10.475-10.4746s10.474 4.69926 10.474 10.4746c0 5.7754-4.699 10.4746-10.474 10.4746zm0-16.75935c-3.466 0-6.285 2.81914-6.285 6.28475 0 3.4656 2.819 6.2848 6.285 6.2848 3.465 0 6.285-2.8192 6.285-6.2848 0-3.46561-2.82-6.28475-6.285-6.28475z" fill="#0c97f0"/><path d="m127.455 28.0685c-.514 0-1.028-.1872-1.433-.5667l-9.831-9.2134c-.845-.7907-.888-2.1164-.096-2.9603.79-.8469 2.115-.8889 2.96-.0961l9.832 9.2133c.845.7908.888 2.1164.096 2.9604-.412.4408-.97.6628-1.528.6628z" fill="#0c97f0"/><path d="m171.888 171.741c.712.045 1.106-.84.567-1.356l-.054-.213c.007-.017.014-.034.021-.051.721-1.718 3.162-1.706 3.876.014.634 1.527 1.441 3.056 1.64 4.67.089.713.049 1.439-.109 2.138 1.485-3.245 2.267-6.787 2.267-10.35 0-.896-.049-1.791-.15-2.684-.082-.73-.195-1.456-.342-2.175-.795-3.889-2.517-7.592-5-10.685-1.193-.652-2.189-1.672-2.79-2.895-.216-.441-.385-.915-.465-1.398.135.018.512-2.051.409-2.178.19-.287.528-.43.735-.71 1.028-1.394 2.445-1.151 3.185.743 1.579.798 1.595 2.12.625 3.392-.616.809-.701 1.904-1.242 2.77.055.071.113.14.169.212 1.021 1.309 1.904 2.716 2.648 4.195-.21-1.643.1-3.623.63-4.899.603-1.454 1.732-2.679 2.727-3.936 1.195-1.51 3.646-.851 3.856 1.063.002.019.004.037.006.056-.148.083-.292.172-.434.265-.806.534-.528 1.784.428 1.932l.022.003c-.054.532-.145 1.06-.279 1.579 1.277 4.936-1.479 6.733-5.413 6.814-.087.045-.172.089-.258.131.398 1.123.717 2.274.953 3.441.211 1.031.358 2.073.441 3.12.102 1.32.093 2.647-.018 3.966l.007-.047c.282-1.452 1.071-2.808 2.215-3.748 1.705-1.4 4.114-1.916 5.954-3.042.885-.542 2.02.158 1.866 1.185l-.008.049c-.274.111-.541.241-.799.385-.148.084-.293.172-.434.266-.807.533-.528 1.784.428 1.931l.021.003c.016.003.029.005.045.007-.47 1.116-1.125 2.151-1.944 3.044-.798 4.309-4.226 4.718-7.892 3.463h-.003c-.4 1.746-.986 3.452-1.739 5.077h-6.213c-.022-.069-.042-.14-.062-.209.575.035 1.154.002 1.719-.103-.461-.565-.922-1.135-1.383-1.701-.011-.011-.02-.022-.029-.033-.233-.29-.469-.577-.703-.867-.015-.889.091-1.774.303-2.634z" fill="#f2f2f2"/><path d="m0 177.307c0 .227.18274.41.410301.41h189.725699c.227 0 .41-.183.41-.41 0-.228-.183-.411-.41-.411h-189.725699c-.227561 0-.410301.183-.410301.411z" fill="#ccc"/></g></svg>