<svg fill="none" height="84" viewBox="0 0 80 84" width="80" xmlns="http://www.w3.org/2000/svg"><path d="m39.8496 83.9989c-1.3015-.0044-2.5974-.172-3.8572-.499l-.2483-.0687-.2303-.1154c-8.3275-4.1752-15.3529-9.6901-20.8812-16.3916-4.5763-5.5799-8.14417-11.9154-10.5432-18.7214-2.86886-8.1486-4.249067-16.7466-4.074724-25.3836.0035179-.1813.0064952-.3213.0064952-.4177 0-4.1986 2.3304988-7.8825 5.9372188-9.3853 2.7604-1.1502 27.82351-11.44457 29.63441-12.188375 3.4104-1.708811 7.0486-.28254 7.6308-.033123 1.306.533948 24.4753 10.010498 29.4822 12.394598 5.1601 2.4572 6.5368 6.8714 6.5368 9.0923 0 10.0546-1.7413 19.4514-5.1757 27.9295-2.7736 6.8624-6.7046 13.1977-11.6219 18.7299-9.4873 10.6765-18.9771 14.4614-19.0687 14.4948-1.1341.3902-2.3274.5808-3.5267.5631zm-2.2317-5.528c.8228.1844 2.717.4611 3.9516.0107 1.5684-.572 9.5112-4.6908 16.9335-13.0435 10.2551-11.5405 15.4586-26.048 15.4662-43.1194-.0183-.3458-.2639-2.8126-3.5306-4.3681-4.9098-2.338-28.9924-12.18536-29.235-12.28461l-.0666-.02821c-.5047-.21149-2.1108-.65695-3.218-.07677l-.2217.10335c-.2684.11025-26.8732 11.03744-29.71063 12.21964-1.98486.827-2.69206 2.8758-2.69206 4.5175 0 .1199-.0031.2944-.00749.52-.22677 11.6809 2.47626 40.4239 32.33078 55.5494z" fill="#3f3d56"/><path d="m36.6954 3.22266s-26.84656 11.02624-29.72299 12.22484c-2.87643 1.1985-4.31464 4.0749-4.31464 6.9513s-2.157309 40.4099 34.03763 58.5572c0 0 3.2851.909 5.7774 0 2.4924-.9089 34.133-16.2498 34.133-58.677 0 0 0-4.3147-5.0337-6.7117-5.0338-2.397-29.3711-12.34464-29.3711-12.34464s-2.9887-1.31836-5.5056 0z" fill="#0c97f0"/><path d="m39.5718 11.8555v58.8213s-27.0863-13.0383-26.8466-47.3156z" fill="#000" opacity=".1"/><path d="m39.9255 54.1298-8.6284-11.0942 5.0178-3.9026 4.0855 5.2529 13.8015-14.5695 4.6153 4.3727z" fill="#fff"/></svg>