<svg width="20" height="20" viewBox="0 0 20 20" fill="none" xmlns="http://www.w3.org/2000/svg">
<path d="M15 1.33989C16.5202 2.21758 17.7826 3.47997 18.6603 5.00017C19.538 6.52038 20 8.24483 20 10.0002C20 11.7556 19.5379 13.48 18.6602 15.0002C17.7825 16.5204 16.5201 17.7828 14.9999 18.6605C13.4797 19.5381 11.7552 20.0002 9.99984 20.0001C8.24446 20.0001 6.52002 19.538 4.99984 18.6603C3.47965 17.7826 2.21729 16.5202 1.33963 15C0.46198 13.4797 -4.45897e-05 11.7553 3.22765e-09 9.99989L0.00500012 9.67589C0.0610032 7.94888 0.563548 6.26585 1.46364 4.79089C2.36373 3.31592 3.63065 2.09934 5.14089 1.25977C6.65113 0.420205 8.35315 -0.0137108 10.081 0.000330246C11.8089 0.0143713 13.5036 0.47589 15 1.33989ZM13 4.99989H7C5.713 4.99989 5.668 6.86389 6.867 6.99289L7 6.99989H8C8.35106 6.9999 8.69594 7.09232 8.99997 7.26785C9.304 7.44339 9.55647 7.69586 9.732 7.99989H7C6.73478 7.99989 6.48043 8.10525 6.29289 8.29279C6.10536 8.48032 6 8.73468 6 8.99989C6 9.26511 6.10536 9.51946 6.29289 9.707C6.48043 9.89454 6.73478 9.99989 7 9.99989L9.732 10.0009C9.55634 10.3047 9.30382 10.557 8.9998 10.7324C8.69578 10.9077 8.35097 11 8 10.9999H7C6.11 10.9999 5.663 12.0769 6.293 12.7069L9.293 15.7069C9.48053 15.8944 9.73484 15.9997 10 15.9997C10.2652 15.9997 10.5195 15.8944 10.707 15.7069L10.79 15.6129C10.9393 15.4205 11.0132 15.1802 10.9979 14.9372C10.9826 14.6942 10.8792 14.4651 10.707 14.2929L9.223 12.8079L9.336 12.7709C9.95312 12.5516 10.5071 12.1845 10.9496 11.7016C11.392 11.2187 11.7094 10.6348 11.874 10.0009L13 9.99989C13.2652 9.99989 13.5196 9.89454 13.7071 9.707C13.8946 9.51946 14 9.26511 14 8.99989C14 8.73468 13.8946 8.48032 13.7071 8.29279C13.5196 8.10525 13.2652 7.99989 13 7.99989H11.874C11.7973 7.70312 11.6866 7.41621 11.544 7.14489L11.465 6.99989H13C13.2652 6.99989 13.5196 6.89454 13.7071 6.707C13.8946 6.51946 14 6.26511 14 5.99989L13.993 5.88289C13.9643 5.63964 13.8474 5.41537 13.6644 5.25261C13.4813 5.08985 13.2449 4.99993 13 4.99989Z" fill="#B0B0B0"/>
</svg>
