<svg width="20" height="21" viewBox="0 0 20 21" fill="none" xmlns="http://www.w3.org/2000/svg">
<path d="M1.293 7.293C1 7.586 1 8.057 1 9V15C1 15.943 1 16.414 1.293 16.707C1.586 17 2.057 17 3 17C3.943 17 4.414 17 4.707 16.707C5 16.414 5 15.943 5 15V9C5 8.057 5 7.586 4.707 7.293C4.414 7 3.943 7 3 7C2.057 7 1.586 7 1.293 7.293Z" fill="#B0B0B0"/>
<path opacity="0.4" d="M15.293 0.293C15 0.586 15 1.057 15 2V15C15 15.943 15 16.414 15.293 16.707C15.586 17 16.057 17 17 17C17.943 17 18.414 17 18.707 16.707C19 16.414 19 15.943 19 15V2C19 1.057 19 0.586 18.707 0.293C18.414 -2.98023e-08 17.943 0 17 0C16.057 0 15.586 -2.98023e-08 15.293 0.293Z" fill="#B0B0B0"/>
<path opacity="0.7" d="M8 5C8 4.057 8 3.586 8.293 3.293C8.586 3 9.057 3 10 3C10.943 3 11.414 3 11.707 3.293C12 3.586 12 4.057 12 5V15C12 15.943 12 16.414 11.707 16.707C11.414 17 10.943 17 10 17C9.057 17 8.586 17 8.293 16.707C8 16.414 8 15.943 8 15V5Z" fill="#B0B0B0"/>
<path d="M1 19.25C0.801088 19.25 0.610322 19.329 0.46967 19.4697C0.329018 19.6103 0.25 19.8011 0.25 20C0.25 20.1989 0.329018 20.3897 0.46967 20.5303C0.610322 20.671 0.801088 20.75 1 20.75H19C19.1989 20.75 19.3897 20.671 19.5303 20.5303C19.671 20.3897 19.75 20.1989 19.75 20C19.75 19.8011 19.671 19.6103 19.5303 19.4697C19.3897 19.329 19.1989 19.25 19 19.25H1Z" fill="#B0B0B0"/>
</svg>
