<svg fill="none" height="173" viewBox="0 0 245 173" width="245" xmlns="http://www.w3.org/2000/svg"><clipPath id="a"><path d="m0 0h245v173h-245z"/></clipPath><g clip-path="url(#a)"><path d="m125.127 172.632c7.368 0 13.342-5.985 13.342-13.369 0-7.383-5.974-13.368-13.342-13.368-7.369 0-13.343 5.985-13.343 13.368 0 7.384 5.974 13.369 13.343 13.369z" fill="#0c97f0"/><g fill="#f2f2f2"><path d="m204.835 171.882c7.464-2.246 15.4-4.589 21.319-9.928 5.29-4.772 8.862-12.058 6.67-19.214-2.187-7.141-8.737-11.903-15.501-14.272-3.836-1.343-7.849-2.088-11.86-2.674-4.361-.636-8.741-1.157-13.119-1.659-17.728-2.032-35.522-3.273-53.383-3.723-8.813-.223-17.624-.217-26.439-.089-7.872.114-16.1621.112-23.4647-3.241-5.6788-2.607-10.8329-7.349-12.4152-13.582-1.8266-7.1943 1.5425-14.5208 6.3753-19.7312 2.5474-2.7465 5.5247-5.0581 8.5961-7.1836 3.3319-2.3059 6.78-4.4485 10.3025-6.4485 6.939-3.9372 14.193-7.288 21.687-10.0175 3.696-1.3469 7.448-2.509 11.233-3.581 3.195-.9052 6.401-1.8117 9.489-3.0451 5.97-2.3842 11.649-6.4228 13.167-13.0438 1.438-6.2751-.987-13.0872-5.24-17.7488-4.92-5.3932-12.339-7.7574-19.451-8.1399-7.985-.4295-15.785 1.5728-23.29 4.114-8.005 2.7104-15.8367 5.8269-24.0102 8.0223-8.1053 2.1749-16.3674 3.7138-24.7113 4.6026-4.0846.4358-8.2926.9279-12.4015.5942-3.4436-.2796-6.8697-1.2943-9.4076-3.7431-2.1761-2.0998-3.4725-4.9855-3.0268-8.0308.081-.5531.9196-.318.8391.2318-.5425 3.707 1.9723 7.1229 5.0713 8.8727 3.5816 2.0222 7.9399 2.025 11.9275 1.7937 8.6461-.5232 17.2338-1.7671 25.6738-3.7187 8.2934-1.898 16.2905-4.6113 24.2787-7.5096 7.586-2.7527 15.343-5.4394 23.448-6.0356 7.032-.5173 14.43.5093 20.557 4.1918 5.384 3.2364 9.344 8.6338 10.606 14.8273 1.232 6.0522-.475 12.1439-5.047 16.3674-4.734 4.3729-11.226 6.2424-17.275 7.9643-7.672 2.1839-15.18 4.7367-22.448 8.0513-7.366 3.3503-14.4308 7.3299-21.1156 11.8948-6.4526 4.4183-12.8205 9.9775-14.8613 17.8595-.9506 3.6716-.7751 7.5655.8155 11.0335 1.4144 3.084 3.7436 5.677 6.4571 7.678 6.4742 4.774 14.6339 5.754 22.4543 5.851 8.783.11 17.567-.187 26.353-.043 17.905.295 35.774 1.387 53.607 3.276 4.468.474 8.931.998 13.388 1.572 4.009.516 8.031 1.029 11.973 1.945 7.008 1.63 13.828 4.764 18.184 10.718 1.933 2.581 3.131 5.639 3.465 8.849.305 3.349-.513 6.704-2.025 9.684-3.345 6.594-9.61 10.789-16.264 13.544-3.564 1.476-7.26 2.594-10.95 3.705-.537.161-.767-.68-.231-.841z"/><path d="m36.5155 27.1728c3.8445 0 6.9612-3.1228 6.9612-6.9751 0-3.8522-3.1167-6.975-6.9612-6.975-3.8446 0-6.9613 3.1228-6.9613 6.975 0 3.8523 3.1167 6.9751 6.9613 6.9751z"/><path d="m84.8094 40.3955c3.8446 0 6.9613-3.1229 6.9613-6.9751s-3.1167-6.9751-6.9613-6.9751-6.9613 3.1229-6.9613 6.9751 3.1167 6.9751 6.9613 6.9751z"/><path d="m125.706 13.9502c3.845 0 6.962-3.1229 6.962-6.97511 0-3.85224-3.117-6.97509-6.962-6.97509-3.844 0-6.961 3.12285-6.961 6.97509 0 3.85221 3.117 6.97511 6.961 6.97511z"/><path d="m151.231 43.5947c3.845 0 6.962-3.1228 6.962-6.9751 0-3.8522-3.117-6.9751-6.962-6.9751-3.844 0-6.961 3.1229-6.961 6.9751 0 3.8523 3.117 6.9751 6.961 6.9751z"/><path d="m116.715 77.8877c3.845 0 6.961-3.1229 6.961-6.9751s-3.116-6.9751-6.961-6.9751c-3.844 0-6.961 3.1229-6.961 6.9751s3.117 6.9751 6.961 6.9751z"/><path d="m72.9168 94.4541c3.8446 0 6.9613-3.1229 6.9613-6.9751s-3.1167-6.9751-6.9613-6.9751-6.9612 3.1229-6.9612 6.9751 3.1166 6.9751 6.9612 6.9751z"/><path d="m119.326 120.321c3.844 0 6.961-3.123 6.961-6.975s-3.117-6.975-6.961-6.975c-3.845 0-6.962 3.123-6.962 6.975s3.117 6.975 6.962 6.975z"/><path d="m169.214 134.853c3.845 0 6.961-3.123 6.961-6.976 0-3.852-3.116-6.975-6.961-6.975-3.844 0-6.961 3.123-6.961 6.975 0 3.853 3.117 6.976 6.961 6.976z"/><path d="m227.515 131.653c3.845 0 6.961-3.123 6.961-6.975s-3.116-6.975-6.961-6.975-6.961 3.123-6.961 6.975 3.116 6.975 6.961 6.975z"/></g><path d="m123.697 19.7627c-20.852.1476-37.9257 17.1267-38.222 38.019-.0027.1929-.004 1.5492-.0038 3.3231.0001 2.601 1.0314 5.0954 2.8668 6.9346 1.8355 1.8392 4.3249 2.8727 6.9207 2.873 1.2868-.0003 2.5609-.2547 3.7496-.7485 1.1887-.4939 2.2687-1.2176 3.1777-2.1298.91-.9122 1.631-1.995 2.122-3.1865.492-1.1916.744-2.4685.743-3.7578-.001-1.2068-.001-2.0419-.001-2.0932-.001-3.2289.837-6.4023 2.432-9.2082 1.594-2.8058 3.89-5.1474 6.662-6.7943 2.772-1.647 5.924-2.5427 9.146-2.5989s6.403.7289 9.23 2.2782 5.204 3.8093 6.895 6.5578 2.639 5.8908 2.75 9.1177c.112 3.2269-.617 6.4274-2.114 9.2865-1.497 2.8592-3.712 5.2785-6.425 7.0201l.003.0041s-13.931 8.9861-18.178 21.3134l.004.0009c-.747 2.5253-1.125 5.1451-1.124 7.7791 0 1.083.064 10.556.187 18.245.043 2.653 1.125 5.183 3.013 7.044 1.887 1.86 4.43 2.903 7.078 2.902 1.33 0 2.648-.263 3.876-.776 1.229-.512 2.344-1.262 3.282-2.208.938-.945 1.68-2.068 2.183-3.302.504-1.234.759-2.556.751-3.889-.043-7.041-.066-15.241-.066-15.836 0-7.5692 7.288-15.1111 13.274-20.0293 6.893-5.6634 11.854-13.3814 13.846-22.0875.441-1.7924.684-3.6279.725-5.4735 0-5.09-1.005-10.1297-2.958-14.8287-1.952-4.699-4.813-8.9644-8.418-12.5505-3.605-3.5862-7.883-6.4221-12.586-8.3444-4.704-1.9224-9.741-2.8931-14.821-2.8564z" fill="#0c97f0"/><path d="m244.655 173.001h-244.309662c-.091422-.001-.179007-.037-.243558-.102-.064552-.065-.10080344-.153-.10080344-.244 0-.092.03625144-.18.10080344-.245.064551-.065.152136-.101.243558-.101h244.309662c.091 0 .179.036.244.101s.101.153.101.245c0 .091-.036.179-.101.244s-.153.102-.244.102z" fill="#3f3d56"/><path d="m182.283 79.3401c4.806 0 8.702-3.9036 8.702-8.7189s-3.896-8.7189-8.702-8.7189-8.701 3.9036-8.701 8.7189 3.895 8.7189 8.701 8.7189z" fill="#2f2e41"/><path d="m166.203 169.185h-3.556l-1.691-13.744h5.248z" fill="#a0616a"/><path d="m160.108 168.164h6.857v4.327h-11.175c0-.569.111-1.131.328-1.656s.535-1.002.936-1.404c.401-.401.877-.72 1.401-.938.524-.217 1.085-.329 1.653-.329z" fill="#2f2e41"/><path d="m193.758 169.185h-3.555l-1.692-13.744h5.248z" fill="#a0616a"/><path d="m187.663 168.164h6.858v4.327h-11.176c0-.569.111-1.131.328-1.656s.535-1.002.936-1.404c.401-.401.877-.72 1.401-.938.524-.217 1.086-.329 1.653-.329z" fill="#2f2e41"/><path d="m180.96 79.3896c3.935 0 7.124-3.1959 7.124-7.1382s-3.189-7.1381-7.124-7.1381c-3.934 0-7.124 3.1958-7.124 7.1381s3.19 7.1382 7.124 7.1382z" fill="#a0616a"/><path d="m185.207 102.421 3.187-7.3384c.775-1.7215.997-3.6414.635-5.4946-.361-1.8532-1.287-3.5485-2.65-4.8518-.28-.2774-.578-.5366-.891-.776-1.573-1.2329-3.511-1.9048-5.508-1.9094-1.343.0052-2.668.3006-3.887.8661-.104.0465-.206.0959-.31.1453-.2.0959-.397.2005-.589.308-1.248.7184-2.311 1.7208-3.102 2.9263-.791 1.2056-1.288 2.5805-1.452 4.0139l-1.406 11.8116c-.354.927-12.977 34.407-8.563 59.968.047.273.18.524.38.715.199.192.454.315.728.351l4.476.611c.327.045.658-.036.928-.227.269-.19.457-.476.525-.799l7.509-35.867c.047-.222.167-.423.341-.57.174-.146.392-.23.619-.238.228-.007.451.062.634.196.184.134.317.326.379.546l10.61 37.717c.076.274.239.516.465.688.225.172.501.266.785.266.085-.001.169-.009.252-.024l5.468-1.055c.318-.059.602-.236.797-.494.194-.259.286-.581.256-.904-.804-8.977-5.073-53.946-10.616-60.581z" fill="#2f2e41"/><path d="m153.275 78.1947c-.049.4243-.005.8544.129 1.2599s.356.7765.649 1.0869c.293.3105.65.5527 1.047.7098.396.1571.822.2252 1.248.1994l3.982 9.5885 3.012-4.474-4.243-8.4195c-.091-.7136-.439-1.3691-.98-1.8423s-1.236-.7312-1.954-.7252c-.718.0061-1.408.2757-1.941.758-.533.4822-.87 1.1435-.949 1.8585z" fill="#a0616a"/><path d="m180.565 112.072c.424-.05.831-.193 1.193-.419.362-.225.671-.527.904-.885s.385-.763.445-1.186.027-.854-.097-1.262l8.378-6.115-5.044-1.893-7.183 6.097c-.672.255-1.226.747-1.56 1.384-.333.637-.421 1.375-.248 2.073s.595 1.308 1.188 1.715c.592.407 1.312.581 2.024.491z" fill="#a0616a"/><path d="m166.907 97.4297c-.321-.0003-.641-.0319-.956-.0945-.762-.1453-1.477-.4763-2.081-.9636-.605-.4874-1.08-1.1162-1.385-1.8311l-5.579-6.8162c-.118-.1441-.203-.3118-.251-.4919-.048-.18-.057-.3683-.027-.5521.031-.1839.1-.359.204-.5138.103-.1548.238-.2857.397-.3838l3.969-2.4618c.146-.0909.309-.1519.48-.1793.17-.0274.344-.0208.511.0194.168.0403.326.1134.465.2152s.257.2302.347.3778l3.932 6.4909 7.53-5.5762c.599-.315 1.292-.4033 1.951-.2488.659.1544 1.241.5413 1.639 1.09s.586 1.2226.529 1.8985c-.057.676-.355 1.3088-.839 1.783l-7.516 6.8695c-.883.8772-2.076 1.3692-3.32 1.3688z" fill="#2f2e41"/><path d="m187.255 107.682c-.01 0-.02 0-.031 0-.183-.004-.363-.047-.528-.126-.166-.078-.313-.191-.432-.33l-3.529-4.125c-.12-.141-.209-.305-.261-.483-.052-.177-.066-.364-.041-.547s.089-.359.187-.516.228-.291.382-.394l6.608-4.4135-5.986-7.2112c-.348-.5817-.476-1.2695-.36-1.9378.116-.6682.468-1.2723.992-1.7019s1.185-.656 1.861-.6378c.677.0182 1.325.2798 1.825.7369l7.275 7.1241c.573.5241 1.01 1.1796 1.274 1.9103s.348 1.5146.243 2.2846-.395 1.503-.845 2.1361c-.449.6332-1.046 1.1472-1.738 1.4982l-5.946 6.323c-.122.129-.269.233-.433.303-.163.071-.339.107-.517.107z" fill="#2f2e41"/><path d="m179.149 92.4839c-.056 0-.113-.0036-.169-.0108-.246-.0299-.478-.1299-.669-.2879-.19-.1581-.332-.3677-.407-.604l-2.652-8.1461c-.067-.2059-.056-.429.029-.628s.239-.3604.433-.4545l.086-.0407c.078-.0372.156-.0739.234-.1091 1.237-.5746 2.583-.8743 3.946-.8786 1.769.0033 3.499.5242 4.978 1.4987.198.1322.336.337.385.5705.049.2334.005.4768-.124.6776l-4.974 7.8085c-.117.1854-.279.3381-.47.4438-.192.1057-.407.161-.626.1606z" fill="#e6e6e6"/><path d="m189.143 66.7295c1.573 0 2.848-1.2774 2.848-2.8531 0-1.5756-1.275-2.853-2.848-2.853-1.572 0-2.847 1.2774-2.847 2.853 0 1.5757 1.275 2.8531 2.847 2.8531z" fill="#2f2e41"/><path d="m179.383 60.7383c-2 0-3.919.7961-5.333 2.2132s-2.209 3.339-2.209 5.3431v3.1969h3.925l1.876-3.1969.563 3.1969h11.91l-3.191-3.1969c0-2.0041-.795-3.926-2.209-5.3431s-3.332-2.2132-5.332-2.2132z" fill="#2f2e41"/><path d="m190.607 61.9212c.315-.9866.967-1.8303 1.841-2.3829.874-.5525 1.915-.7786 2.939-.6384 1.815.304 3.249 1.7655 4.104 3.3978s1.25 3.4592 1.825 5.2103c.574 1.7512 1.389 3.5119 2.84 4.6455 1.451 1.1335 3.677 1.441 5.102.2749-.163 1.2153-.703 2.3485-1.544 3.2395-.84.8909-1.939 1.4944-3.141 1.7252s-2.446.0771-3.556-.4393-2.03-1.3694-2.629-2.4383c-.752-1.3403-.946-2.9112-1.169-4.4324s-.513-3.0951-1.41-4.3421c-.898-1.247-2.578-2.0614-4.004-1.4934z" fill="#2f2e41"/><path d="m98.0221 66.2762c-2.5958-.0003-5.0853-1.0337-6.9207-2.8729-1.8355-1.8392-2.8667-4.3336-2.8669-6.9346-.0001-1.7739.0011-3.1302.0038-3.3231.0825-6.0761 1.6097-12.0449 4.4549-17.4112-4.6746 6.4121-7.2449 14.1213-7.3554 22.0612-.0027.1929-.0039 1.5492-.0038 3.3231.0001 2.601 1.0314 5.0954 2.8668 6.9347 1.8355 1.8392 4.3249 2.8726 6.9208 2.8729 2.133-.0008 4.2075-.6992 5.9084-1.9891 1.701-1.2899 2.935-3.1009 3.515-5.1576-1.792 1.6103-4.116 2.4995-6.5229 2.4966z" fill="#3f3d56"/><path d="m124.361 40.4293c3.001.1436 5.922 1.0148 8.513 2.5389 2.591 1.524 4.774 3.6554 6.361 6.211 1.588 2.5556 2.533 5.4592 2.754 8.4613.221 3.0022-.288 6.0133-1.484 8.7747 1.73-2.0359 3.002-4.4218 3.728-6.9948.727-2.573.891-5.2728.482-7.9152-.41-2.6424-1.383-5.1653-2.853-7.3967-1.471-2.2315-3.404-4.119-5.669-5.5338-2.264-1.4149-4.807-2.3239-7.454-2.6649-2.647-.3411-5.336-.1063-7.884.6883-2.548.7947-4.895 2.1306-6.881 3.9165-1.987 1.786-3.565 3.9801-4.628 6.4328 1.837-2.166 4.147-3.8801 6.75-5.0102s5.431-1.646 8.265-1.5079z" fill="#3f3d56"/><path d="m127.372 127.307c-2.648.001-5.19-1.042-7.078-2.902-1.888-1.861-2.97-4.391-3.013-7.044-.123-7.689-.186-17.162-.186-18.2448-.002-2.6339.377-5.2542 1.123-7.7796l-.003-.0008c.441-1.2676.973-2.5013 1.593-3.6913-1.903 2.5414-3.417 5.3527-4.494 8.3413l.004.0009c-.747 2.5254-1.125 5.1453-1.124 7.7793 0 1.083.064 10.556.187 18.245.043 2.653 1.125 5.183 3.013 7.044 1.887 1.86 4.43 2.903 7.078 2.902 2.183 0 4.307-.71 6.054-2.022 1.747-1.313 3.022-3.158 3.634-5.258-1.855 1.696-4.277 2.634-6.788 2.63z" fill="#3f3d56"/><path d="m36.7035 169.318 3.5558-.001 1.6918-13.743-5.2485.001z" fill="#ffb8b8"/><path d="m47.1177 172.625-11.1759.001-.0002-4.327h6.8579c1.1452 0 2.2435.455 3.0533 1.267.8098.811 1.2648 1.912 1.2649 3.059z" fill="#2f2e41"/><path d="m23.9413 169.318 3.5558-.001 1.6918-13.743-5.2485.001z" fill="#ffb8b8"/><path d="m34.355 172.625-11.1759.001-.0002-4.327h6.8579c1.1452 0 2.2435.455 3.0533 1.267.8098.811 1.2648 1.912 1.2649 3.059z" fill="#2f2e41"/><path d="m27.0488 165.088-3.4734-.183c-.1791-.01-.3545-.055-.5162-.133-.1616-.078-.3062-.187-.4254-.321s-.2107-.291-.269-.461c-.0584-.17-.0825-.35-.071-.529l4.1514-46.055 19.1177 5.169 1.8419-.503-5.76 40.771c-.0491.306-.2011.587-.4309.795-.2298.209-.5237.333-.8332.351l-3.7442.175c-.1873.01-.3746-.018-.5502-.084s-.3357-.168-.4702-.299c-.1344-.131-.2402-.288-.3108-.462s-.1044-.361-.0992-.549l.6784-24.47c.0032-.113-.0361-.223-.11-.309-.0739-.085-.1771-.14-.2893-.153s-.2253.016-.3169.082-.1551.165-.1781.275l-6.5427 25.812c-.0617.306-.2276.581-.4692.779-.2417.197-.5442.305-.8561.304-.0243 0-.0488-.001-.0734-.002z" fill="#2f2e41"/><path d="m37.3418 79.7255c3.9344 0 7.1239-3.1959 7.1239-7.1381 0-3.9423-3.1895-7.1382-7.1239-7.1382-3.9345 0-7.124 3.1959-7.124 7.1382 0 3.9422 3.1895 7.1381 7.124 7.1381z" fill="#ffb8b8"/><path d="m25.4807 93.5593.7834 16.9347.2831 6.16c.0113.269.1022.527.261.744.1589.216.3785.379.6307.47l18.3708 6.668c.1484.055.3056.083.4639.081.181.001.3602-.034.5271-.104.1669-.071.318-.174.4443-.303.1262-.13.2251-.284.2906-.453s.0964-.35.0907-.531l-.7531-30.4485c-.0495-2.4981-.9672-4.9007-2.5951-6.7935-1.6278-1.8928-3.8637-3.1572-6.3222-3.5753-.1777-.0271-.3585-.0543-.5392-.0785-1.5245-.1896-3.072-.0422-4.5335.4319-1.4615.474-2.8015 1.2632-3.9259 2.312-1.1643 1.073-2.0791 2.3891-2.6799 3.8553-.6007 1.4662-.8727 3.0468-.7967 4.6299z" fill="#ccc"/><path d="m54.5858 121.157c-.4345-.135-.8315-.37-1.1592-.687-.3278-.316-.5773-.704-.7285-1.134-.1513-.43-.2002-.889-.1428-1.342.0573-.452.2194-.884.4733-1.263l-6.2298-8.3 5.3759-.333 5.0917 7.933c.5451.422.9244 1.023 1.0714 1.698.147.674.0523 1.379-.2675 1.991-.3198.611-.8443 1.09-1.4814 1.353-.6372.263-1.3463.292-2.0031.084z" fill="#ffb8b8"/><path d="m50.2052 115.227c-.165-.067-.3151-.166-.4417-.292-.1265-.126-.2269-.275-.2953-.44l-9.3856-22.4058c-.1842-.4387-.2802-.9095-.2827-1.3854s.0886-.9476.2681-1.3882.444-.8415.7782-1.1796c.3342-.3382.7316-.6071 1.1696-.7912.4379-.1842.9078-.2801 1.3828-.2823.475-.0021.9457.0896 1.3853.2698s.8394.4455 1.1766.7806c.3373.3352.6053.7336.7888 1.1726l9.3855 22.4065c.1388.332.1403.706.0043 1.039-.1359.333-.3983.599-.7295.739l-4.1668 1.752c-.164.069-.3402.106-.5183.107-.1781 0-.3546-.034-.5193-.102z" fill="#ccc"/><path d="m35.0516 114.438 9.0146-17.2952c.1739-.3326.4723-.5825.8298-.6949.3575-.1125.7449-.0782 1.0773.0952l13.0847 6.8469c.3319.175.5814.474.6936.832s.078.746-.0951 1.079l-9.0146 17.295c-.1739.333-.4723.583-.8298.695-.3575.113-.745.078-1.0773-.095l-13.0847-6.847c-.3319-.175-.5814-.474-.6936-.832s-.078-.746.0951-1.079z" fill="#3f3d56"/><path d="m41.0971 106.537c-.1603-.426-.4179-.809-.7522-1.119-.3343-.309-.7361-.535-1.1733-.661-.4373-.126-.8978-.148-1.3449-.064-.4472.084-.8685.272-1.2304.548l-8.6373-5.741-.0147 5.397 8.2044 4.624c.4529.521 1.0742.864 1.7548.972.6807.107 1.3773-.029 1.9676-.385.5904-.356 1.0368-.909 1.2609-1.562.2242-.653.2118-1.364-.0349-2.009z" fill="#ffb8b8"/><path d="m30.1767 107.751-7.059-5.603c-.7636-.257-1.4536-.695-2.0108-1.278-.5571-.583-.9648-1.2931-1.1879-2.0686-.2232-.7756-.2552-1.5938-.0933-2.3845.1619-.7906.5129-1.5301 1.0228-2.1549l6.4093-8.4165c.4454-.5454 1.0718-.9119 1.7647-1.0326s1.406.0125 2.009.3752c.6029.3627 1.0555.9308 1.2749 1.6003.2193.6695.1909 1.3958-.0801 2.046l-5.0712 8.312 7.4526 3.5416c.1733.083.3272.201.4515.347.1243.147.2162.318.2696.502.0534.185.0671.379.0402.569s-.0938.373-.1962.535l-3.0084 4.771c-.1017.161-.236.298-.3942.404s-.3369.177-.5243.209c-.0074.001-.0149.003-.0224.004-.1842.028-.3721.017-.5522-.031-.18-.047-.3484-.132-.4946-.247z" fill="#ccc"/><path d="m31.959 77.3656c-.0306-.0896-.0403-.185-.0284-.2789.012-.094.0452-.1839.0972-.263.0519-.0791.1213-.1452.2027-.1933s.1727-.0768.2669-.0841c.193.0105.3818.0601.5551.1458.1733.0856.3274.2056.4532.3526.2578.2979.5579.5561.8908.7664.3446.1741.812.1493 1.0084-.1825.1845-.3117.0581-.7289-.0536-1.0909-.2842-.9209-.4432-1.876-.4727-2.8394-.0322-1.0755.1192-2.1978.7134-3.0366.7669-1.0825 2.1381-1.4934 3.4358-1.4636s2.5744.4311 3.8598.6849c.4437.0876.9653.1323 1.2622-.2123.3155-.3664.1996-.9594.0654-1.4542-.3483-1.2838-.7179-2.6112-1.5272-3.648-.8751-1.0774-2.1251-1.7826-3.4983-1.9735-1.3183-.1636-2.6566-.0113-3.9048.4442-2.0336.6423-3.823 1.8913-5.1289 3.5802-1.3462 1.796-1.9279 4.053-1.618 6.2776.3029 1.9375 1.3276 3.6879 2.8674 4.8984z" fill="#2f2e41"/><path d="m122.187 169.374c-1.896-.827-3.573-2.084-4.901-3.672-1.327-1.588-2.268-3.463-2.748-5.478s-.486-4.114-.018-6.132c.468-2.017 1.398-3.898 2.716-5.494-1.529 1.118-2.802 2.548-3.736 4.197s-1.507 3.477-1.682 5.365c-.174 1.888.054 3.791.669 5.584.616 1.792 1.605 3.433 2.902 4.813 1.296 1.381 2.871 2.469 4.62 3.193 1.749.723 3.631 1.066 5.522 1.005 1.891-.06 3.747-.524 5.446-1.358 1.699-.835 3.201-2.022 4.407-3.483-1.881 1.377-4.089 2.237-6.404 2.493-2.316.256-4.658-.1-6.793-1.033z" fill="#3f3d56"/></g></svg>