<svg width="16" height="16" viewBox="0 0 16 16" fill="none" xmlns="http://www.w3.org/2000/svg">
<path d="M8 16C3.58698 16 0 12.413 0 8C0 3.58698 3.58698 0 8 0C12.413 0 16 3.58698 16 8C16 12.413 12.413 16 8 16ZM8 1.11628C4.20465 1.11628 1.11628 4.20465 1.11628 8C1.11628 11.7953 4.20465 14.8837 8 14.8837C11.7953 14.8837 14.8837 11.7953 14.8837 8C14.8837 4.20465 11.7953 1.11628 8 1.11628Z" fill="#11CE66"/>
<path d="M6.94361 10.665C6.79478 10.665 6.65338 10.6055 6.54919 10.5013L4.44311 8.39524C4.2273 8.17943 4.2273 7.82222 4.44311 7.6064C4.65892 7.39059 5.01613 7.39059 5.23195 7.6064L6.94361 9.31803L10.7687 5.49292C10.9845 5.2771 11.3418 5.2771 11.5576 5.49292C11.7734 5.70873 11.7734 6.06594 11.5576 6.28175L7.33803 10.5013C7.23385 10.6055 7.09245 10.665 6.94361 10.665Z" fill="#11CE66"/>
</svg>
