<svg width="28" height="28" viewBox="0 0 28 28" fill="none" xmlns="http://www.w3.org/2000/svg">
<g clip-path="url(#clip0_390_23330)">
<path d="M13.9997 7.74891V0.0319061C10.9146 0.0319061 8.28664 0.885578 5.78955 2.69874L10.3264 8.94307C11.3568 8.19221 12.6259 7.74891 13.9997 7.74891Z" fill="#60DE98"/>
<path d="M7.74912 13.9994C7.74912 13.3255 7.85598 12.6755 8.05461 12.0674C8.46498 10.7994 9.2708 9.71006 10.3261 8.94225L5.78923 2.69792C3.29313 4.51212 1.66858 6.74764 0.715107 9.68212C-0.238369 12.6175 -0.238369 15.3813 0.715107 18.3157L8.05368 15.9314C7.85598 15.3234 7.74912 14.6733 7.74912 13.9994Z" fill="#07572B"/>
<path d="M27.2847 9.68288C26.3312 6.74841 24.7066 4.51289 22.2105 2.69869C19.7134 0.885578 17.0854 0.0319061 13.9992 0.0319061V7.74891C15.3731 7.74891 16.6422 8.19221 17.6736 8.94307C18.7289 9.71088 19.5347 10.8002 19.9451 12.0682C20.1437 12.6763 20.2506 13.3263 20.2506 14.0002C20.2506 14.6742 20.1437 15.3242 19.9461 15.9322C19.5347 17.1992 18.7289 18.2896 17.6737 19.0574C16.6423 19.8083 15.3732 20.2516 13.9993 20.2516C12.6255 20.2516 11.3554 19.8083 10.325 19.0574C9.26961 18.2886 8.46494 17.1993 8.05352 15.9322L0.714844 18.3165C1.66832 21.2509 3.29287 23.4865 5.78897 25.3006C8.28605 27.1148 10.914 27.9685 13.9991 27.9685C17.0854 27.9685 19.7133 27.1149 22.2104 25.3006C24.7065 23.4865 26.3311 21.2509 27.2845 18.3165C28.2381 15.382 28.2381 12.6183 27.2847 9.68288Z" fill="#11CE66"/>
</g>
<defs>
<clipPath id="clip0_390_23330">
<rect width="28" height="28" fill="white"/>
</clipPath>
</defs>
</svg>
