<svg fill="none" height="111" viewBox="0 0 124 111" width="124" xmlns="http://www.w3.org/2000/svg"><clipPath id="a"><path d="m0 0h123.678v111h-123.678z"/></clipPath><g clip-path="url(#a)"><path d="m63.3396.241217-4.0243 1.037773-49.57966 12.78561-4.02425 1.0378c-1.95333.506-3.62615 1.7663-4.65147 3.5042-1.0253186 1.7379-1.319399 3.8115-.817722 5.766l17.450102 67.6674c.506 1.9533 1.7663 3.6261 3.5042 4.6515 1.7379 1.0253 3.8115 1.3194 5.766.8177l.0104-.0027 57.6073-14.8558.0104-.0027c1.9534-.506 3.6262-1.7662 4.6515-3.5042 1.0253-1.7379 1.3194-3.8115.8177-5.766l-17.45-67.66736c-.5061-1.95333-1.7663-3.62616-3.5042-4.65148-1.7379-1.0253294-3.8116-1.319416-5.766-.817743z" fill="#f2f2f2"/><path d="m63.8867 2.36373-4.7664 1.22917-48.0954 12.4028-4.7664 1.2292c-1.39101.3604-2.58227 1.2578-3.31243 2.4954-.73015 1.2376-.93958 2.7143-.58232 4.1061l17.45005 67.6674c.3604 1.391 1.2578 2.5823 2.4954 3.3124 1.2376.7302 2.7143.9396 4.1061.5823l.0104-.0026 57.6074-14.8558.0105-.0027c1.3909-.3604 2.5822-1.2578 3.3123-2.4954.7302-1.2376.9396-2.7143.5823-4.1061l-17.45-67.66741c-.3604-1.39099-1.2578-2.58224-2.4954-3.3124s-2.7143-.9396-4.1061-.58236z" fill="#fff"/><g fill="#f2f2f2"><path d="m60.2876 24.2756-29.1422 7.5152c-.3255.084-.671.0351-.9605-.1357s-.4993-.4496-.5832-.7751c-.084-.3254-.0352-.6709.1356-.9605.1708-.2895.4497-.4993.7751-.5832l29.1422-7.5152c.3254-.0836.6706-.0346.9599.1363.2893.1708.4989.4495.5828.7748.0838.3253.0352.6706-.1354.96s-.4491.4993-.7743.5834z"/><path d="m66.4179 27.1118-34.2046 8.8207c-.3255.084-.671.0352-.9605-.1356s-.4993-.4497-.5833-.7751c-.0839-.3255-.0351-.671.1357-.9605s.4496-.4993.7751-.5833l34.2046-8.8207c.3255-.0839.671-.0351.9605.1357s.4993.4496.5832.7751c.084.3255.0352.671-.1356.9605s-.4496.4993-.7751.5832z"/><path d="m65.0742 42.8384-29.1422 7.5152c-.1611.0416-.3289.051-.4937.0277s-.3234-.0788-.4668-.1634c-.1433-.0845-.2686-.1965-.3687-.3295-.1-.133-.1729-.2844-.2145-.4456-.0416-.1611-.051-.3289-.0277-.4937s.0788-.3234.1634-.4668c.0845-.1433.1965-.2686.3295-.3687s.2844-.173.4456-.2145l29.1421-7.5152c.1612-.0416.329-.051.4938-.0277s.3234.0788.4667.1634c.1434.0845.2687.1965.3688.3295.1.133.1729.2844.2145.4456.0416.1611.051.3289.0277.4937s-.0788.3234-.1634.4668c-.0846.1433-.1965.2686-.3295.3687s-.2844.173-.4456.2145z"/><path d="m71.205 45.6744-34.2046 8.8206c-.1612.0416-.3289.051-.4938.0277-.1648-.0233-.3234-.0788-.4667-.1633-.1434-.0846-.2686-.1966-.3687-.3296s-.173-.2844-.2145-.4455c-.0416-.1612-.051-.329-.0277-.4938.0232-.1648.0787-.3234.1633-.4667.0846-.1434.1966-.2687.3296-.3687.133-.1001.2844-.173.4455-.2146l34.2046-8.8207c.3255-.0839.671-.0351.9605.1357s.4993.4496.5833.7751c.0839.3255.0351.671-.1357.9605s-.4496.4993-.7751.5833z"/><path d="m69.861 61.4009-29.1422 7.5152c-.3254.0837-.6707.0347-.96-.1361-.2894-.1708-.499-.4495-.5829-.7749-.0839-.3253-.0352-.6707.1354-.9601.1707-.2894.4492-.4993.7745-.5834l29.1422-7.5152c.3255-.0839.671-.0351.9605.1357s.4993.4496.5832.7751c.084.3255.0352.671-.1356.9605s-.4497.4993-.7751.5832z"/><path d="m75.9917 64.2369-34.2046 8.8206c-.1612.0418-.3291.0513-.494.0281s-.3236-.0786-.4671-.1632c-.1434-.0845-.2688-.1965-.369-.3296-.1002-.133-.1731-.2845-.2147-.4458-.0416-.1612-.051-.3291-.0277-.494.0234-.1649.079-.3235.1637-.4669.0846-.1434.1968-.2687.3299-.3688.1331-.1.2847-.1728.446-.2143l34.2046-8.8207c.3254-.0839.6709-.0351.9605.1357.2895.1708.4993.4496.5832.7751s.0351.671-.1357.9605-.4496.4993-.7751.5833z"/></g><path d="m26.1703 39.4973-10.3131 2.6595c-.1561.0401-.3217.0166-.4604-.0653-.1388-.0818-.2394-.2154-.2799-.3714l-2.3673-9.1801c-.0401-.1561-.0166-.3217.0653-.4604.0818-.1388.2154-.2394.3714-.2798l10.3131-2.6596c.1561-.0401.3217-.0166.4604.0653.1388.0819.2394.2154.2799.3714l2.3673 9.1802c.0401.156.0166.3216-.0653.4604-.0818.1387-.2154.2394-.3714.2798z" fill="#e6e6e6"/><path d="m30.9569 58.0598-10.3131 2.6595c-.1561.0401-.3217.0166-.4604-.0653-.1388-.0819-.2394-.2154-.2798-.3714l-2.3674-9.1801c-.0401-.1561-.0166-.3217.0653-.4604.0819-.1388.2154-.2394.3714-.2798l10.3131-2.6596c.1561-.0401.3217-.0166.4605.0653.1387.0819.2394.2154.2798.3714l2.3673 9.1801c.0401.1561.0166.3217-.0653.4605-.0818.1387-.2154.2393-.3714.2798z" fill="#e6e6e6"/><path d="m35.744 76.6223-10.3131 2.6595c-.1561.0401-.3216.0166-.4604-.0653-.1388-.0818-.2394-.2154-.2798-.3714l-2.3674-9.1801c-.0401-.1561-.0166-.3217.0653-.4604.0819-.1388.2154-.2394.3714-.2798l10.3132-2.6596c.156-.0401.3216-.0166.4604.0653s.2394.2154.2798.3714l2.3674 9.1802c.04.156.0165.3216-.0653.4604-.0819.1388-.2155.2394-.3715.2798z" fill="#e6e6e6"/><path d="m103.532 17.3945h-59.5135c-2.0178.0023-3.9523.8049-5.3791 2.2317s-2.2294 3.3613-2.2317 5.3792v69.8812c.0023 2.0178.8049 3.9523 2.2317 5.3794 1.4268 1.427 3.3613 2.229 5.3791 2.231h59.5135c2.018-.002 3.952-.804 5.379-2.231 1.427-1.4271 2.23-3.3616 2.232-5.3794v-69.8812c-.002-2.0179-.805-3.9524-2.232-5.3792s-3.361-2.2294-5.379-2.2317z" fill="#e6e6e6"/><path d="m103.532 19.5859h-59.5135c-1.437.0016-2.8146.5732-3.8306 1.5893-1.0161 1.016-1.5877 2.3936-1.5893 3.8306v69.8812c.0016 1.4369.5732 2.8145 1.5893 3.8306 1.016 1.016 2.3936 1.5874 3.8306 1.5894h59.5135c1.437-.002 2.815-.5734 3.831-1.5894 1.016-1.0161 1.587-2.3937 1.589-3.8306v-69.8812c-.002-1.437-.573-2.8146-1.589-3.8306-1.016-1.0161-2.394-1.5876-3.831-1.5893z" fill="#fff"/><path d="m109.784 110.999c7.673 0 13.894-6.22 13.894-13.8929 0-7.673-6.221-13.8932-13.894-13.8932s-13.8929 6.2202-13.8929 13.8932c0 7.6729 6.2199 13.8929 13.8929 13.8929z" fill="#0c97f0"/><path d="m116.429 95.295h-4.832v-4.8324c0-.4807-.191-.9416-.531-1.2814-.34-.3399-.801-.5308-1.282-.5308-.48 0-.941.1909-1.281.5308-.34.3398-.531.8007-.531 1.2814v4.8324h-4.832c-.481 0-.942.1909-1.282.5308-.339.3398-.53.8007-.53 1.2813 0 .4807.191.9416.53 1.2814.34.3399.801.5308 1.282.5308h4.832v4.8327c0 .48.191.941.531 1.281s.801.531 1.281.531c.481 0 .942-.191 1.282-.531s.531-.801.531-1.281v-4.8327h4.832c.481 0 .942-.1909 1.281-.5308.34-.3398.531-.8007.531-1.2814 0-.4806-.191-.9415-.531-1.2813-.339-.3399-.8-.5308-1.281-.5308z" fill="#fff"/><path d="m94.5753 57.986h-30.0955c-.1666.0002-.3316-.0325-.4855-.0961s-.2938-.1569-.4116-.2746c-.1179-.1177-.2114-.2575-.2752-.4114-.0637-.1538-.0966-.3188-.0966-.4853 0-.1666.0329-.3315.0966-.4854.0638-.1538.1573-.2936.2752-.4113.1178-.1177.2577-.2111.4116-.2747s.3189-.0962.4855-.096h30.0955c.3359.0003.6579.134.8953.3717.2374.2376.3707.5598.3707.8957s-.1333.658-.3707.8957c-.2374.2376-.5594.3713-.8953.3717z" fill="#e6e6e6"/><path d="m99.8034 62.2633h-35.3236c-.1666.0002-.3316-.0324-.4855-.0961-.1539-.0636-.2938-.1569-.4116-.2746-.1179-.1177-.2114-.2575-.2752-.4113-.0637-.1539-.0966-.3188-.0966-.4854 0-.1665.0329-.3315.0966-.4853.0638-.1539.1573-.2937.2752-.4114.1178-.1177.2577-.211.4116-.2746s.3189-.0963.4855-.0961h35.3236c.3366 0 .6586.1335.8966.3712.237.2377.371.5601.371.8962s-.134.6585-.371.8962c-.238.2377-.56.3712-.8966.3712z" fill="#e6e6e6"/><path d="m94.5753 77.1539h-30.0955c-.1666.0002-.3316-.0324-.4855-.096s-.2938-.157-.4116-.2747c-.1179-.1177-.2114-.2575-.2752-.4113-.0637-.1539-.0966-.3188-.0966-.4854 0-.1665.0329-.3314.0966-.4853.0638-.1539.1573-.2936.2752-.4113.1178-.1178.2577-.2111.4116-.2747s.3189-.0962.4855-.0961h30.0955c.3362 0 .6585.1336.8962.3713.2377.2376.3712.56.3712.8961 0 .3362-.1335.6585-.3712.8962s-.56.3712-.8962.3712z" fill="#e6e6e6"/><path d="m99.8034 81.4333h-35.3236c-.1666.0002-.3316-.0325-.4855-.0961s-.2938-.1569-.4116-.2747c-.1179-.1177-.2114-.2574-.2752-.4113-.0637-.1539-.0966-.3188-.0966-.4853 0-.1666.0329-.3315.0966-.4854.0638-.1539.1573-.2936.2752-.4113.1178-.1178.2577-.2111.4116-.2747s.3189-.0962.4855-.0961h35.3236c.1666-.0001.3316.0325.4856.0961s.294.1569.412.2747c.117.1177.211.2574.275.4113.063.1539.096.3188.096.4854 0 .1665-.033.3314-.096.4853-.064.1539-.158.2936-.275.4113-.118.1178-.258.2111-.412.2747s-.319.0963-.4856.0961z" fill="#e6e6e6"/><path d="m57.7382 64.2037h-10.6505c-.1611-.0002-.3156-.0642-.4295-.1782-.114-.1139-.178-.2684-.1782-.4295v-9.4805c.0002-.1611.0642-.3156.1782-.4295.1139-.1139.2684-.178.4295-.1782h10.6505c.1612.0002.3156.0643.4296.1782.1139.1139.178.2684.1782.4295v9.4805c-.0002.1611-.0643.3156-.1782.4295-.114.114-.2684.178-.4296.1782z" fill="#e6e6e6"/><path d="m57.7382 83.3736h-10.6505c-.1611-.0001-.3156-.0642-.4295-.1781-.114-.114-.178-.2684-.1782-.4296v-9.4804c.0002-.1612.0642-.3156.1782-.4296.1139-.1139.2684-.178.4295-.1782h10.6505c.1612.0002.3156.0643.4296.1782.1139.114.178.2684.1782.4296v9.4804c-.0002.1612-.0643.3156-.1782.4296-.114.1139-.2684.178-.4296.1781z" fill="#e6e6e6"/><path d="m94.609 36.6461h-22.1883c-.3361 0-.6585-.1335-.8962-.3712-.2376-.2377-.3712-.56-.3712-.8962 0-.3361.1336-.6585.3712-.8962.2377-.2376.5601-.3712.8962-.3712h22.1883c.3361 0 .6585.1336.8962.3712.2377.2377.3712.5601.3712.8962 0 .3362-.1335.6585-.3712.8962s-.5601.3712-.8962.3712z" fill="#ccc"/><path d="m99.837 40.9235h-27.4163c-.1664 0-.3312-.0328-.485-.0965s-.2935-.157-.4112-.2747-.211-.2574-.2747-.4112-.0965-.3186-.0965-.485c0-.1665.0328-.3313.0965-.485.0637-.1538.157-.2935.2747-.4112s.2574-.2111.4112-.2748c.1538-.0636.3186-.0964.485-.0964h27.4163c.336 0 .659.1335.896.3712.238.2377.371.56.371.8962 0 .3361-.133.6585-.371.8962-.237.2376-.56.3712-.896.3712z" fill="#ccc"/><path d="m67.5096 46.1077h-20.4556c-.1611-.0002-.3156-.0643-.4295-.1782-.1139-.114-.178-.2684-.1782-.4296v-15.9644c.0002-.1612.0643-.3156.1782-.4296.1139-.1139.2684-.178.4295-.1782h20.4556c.1612.0002.3156.0643.4296.1782.1139.114.178.2684.1782.4296v15.9644c-.0002.1612-.0643.3156-.1782.4296-.114.1139-.2684.178-.4296.1782z" fill="#0c97f0"/></g></svg>