<svg fill="none" height="152" viewBox="0 0 151 152" width="151" xmlns="http://www.w3.org/2000/svg"><clipPath id="a"><path d="m0 0h151v152h-151z"/></clipPath><g clip-path="url(#a)"><path d="m47.4067 136.915-46.16671-87.5885.19473-.0895 107.15428-49.237.087.174541 42.324 84.277559-.18.0915zm-45.60906-87.3984 45.78096 86.8564 102.8784-52.1005-42.054-83.740654z" fill="#f0f0f0"/><path d="m101.01 64.8161c-.879 0-1.7389-.2619-2.4702-.7526s-1.3012-1.1881-1.6378-2.0041-.4247-1.7139-.2531-2.5802c.1716-.8662.5951-1.6619 1.2171-2.2865.6219-.6245 1.4143-1.0498 2.277-1.2221.863-.1723 1.757-.0839 2.569.2541.813.338 1.507.9104 1.996 1.6447.489.7344.749 1.5978.749 2.481-.001 1.184-.47 2.3191-1.304 3.1563-.833.8371-1.964 1.3081-3.143 1.3094zm0-8.5254c-.799 0-1.5807.2381-2.2456.6842-.6648.4461-1.1829 1.0801-1.4889 1.822-.306.7418-.3861 1.558-.2301 2.3455s.541 1.5109 1.1064 2.0787c.5654.5677 1.2858.9544 2.0702 1.111.784.1567 1.597.0763 2.336-.231.738-.3073 1.37-.8276 1.814-1.4952s.681-1.4525.681-2.2555c0-1.0767-.426-2.1093-1.184-2.8706s-1.786-1.1891-2.859-1.1891z" fill="#3f3d56"/><path d="m24.8058 52.027c-.8795 0-1.7393-.2619-2.4705-.7526-.7313-.4907-1.3013-1.1881-1.6379-2.0041s-.4247-1.7139-.2531-2.5801c.1716-.8663.5952-1.662 1.2171-2.2865.6219-.6246 1.4143-1.0499 2.2769-1.2222s1.7567-.0839 2.5693.2541 1.5071.9104 1.9958 1.6448c.4886.7344.7494 1.5977.7494 2.481-.0013 1.1839-.4703 2.319-1.3039 3.1562-.8337.8372-1.9641 1.3081-3.1431 1.3094zm0-8.5253c-.7995 0-1.5811.2381-2.2459.6842-.6649.446-1.183 1.0801-1.489 1.8219s-.386 1.5581-.2301 2.3456c.156.7875.5411 1.5109 1.1064 2.0786.5654.5678 1.2858.9544 2.07 1.1111.7842.1566 1.597.0762 2.3357-.2311.7387-.3072 1.3701-.8276 1.8143-1.4952s.6813-1.4525.6813-2.2554c0-1.0767-.4259-2.1093-1.184-2.8707-.7582-.7613-1.7865-1.189-2.8587-1.189z" fill="#3f3d56"/><path d="m1.0271 70.0036c-.00003-.0797.00818-.1591.0245-.2371l.1888-11.2321.27809-.0246.01198.0004 23.04653.932c.2355.0104.4666.0673.6801.1674.2136.1002.4054.2416.5645.4162s.2824.379.3629.6014c.0804.2225.1164.4587.1059.6952l-.3995 8.9966c-.0105.2364-.0672.4684-.167.6827-.0998.2144-.2406.4069-.4144.5666-.1739.1597-.3774.2834-.5988.3641-.2215.0807-.4567.1168-.692.1063l-21.89047-.8851c-.2958-.0121-.57552-.1385-.78071-.3528-.2052-.2143-.31999-.4999-.32041-.7972z" fill="#0c97f0"/><path d="m.00000308 69.1864c0-.0287.00072722-.0574.00199865-.0862l.39153327-8.8194c.022828-.5007.242486-.9718.610795-1.3101.3683-.3383.85518-.5161 1.35383-.4943l21.04304.9421c.4752.0218.9223.2321 1.2434.5845.321.3525.4896.8185.469 1.2957l-.3994 8.9966c-.0218.4772-.2311.9263-.5821 1.2487-.351.3223-.8151.4917-1.2903.471l-21.04309-.9421c-.4839-.0217-.940855-.2299-1.275849-.5813-.334994-.3513-.52225913-.8188-.522861-1.3052z" fill="#2f2e41"/><path d="m19.6173 66.5252c.7083 0 1.2826-.5767 1.2826-1.288s-.5743-1.288-1.2826-1.288c-.7084 0-1.2826.5767-1.2826 1.288s.5742 1.288 1.2826 1.288z" fill="#0c97f0"/><path d="m96.5373 132.35-2.1471-29.914.4084-9.9848-8.3687 1.8699 3.0826 39.1979c-.3492.722-.4937 1.527-.4179 2.327s.3691 1.563.8477 2.206c.4787.644 1.1244 1.143 1.8664 1.442.742.3 1.5518.389 2.3409.258s1.527-.478 2.1331-1.002 1.0571-1.205 1.3035-1.969c.2465-.765.279-1.582.094-2.363-.185-.782-.5804-1.497-1.1429-2.068z" fill="#9e616a"/><path d="m21.971 74.3244-8.0042-5.2244c-.2428-.8005-.7088-1.5143-1.3429-2.0572-.6341-.5428-1.4098-.8919-2.2353-1.0059-.82543-.114-1.66615.0119-2.42264.3627-.75649.3507-1.39708.9118-1.846 1.6167-.44891.7049-.68735 1.5242-.6871 2.361.00025.8367.23917 1.6559.6885 2.3606.44933.7046 1.09026 1.2653 1.84696 1.6156.7567.3504 1.59748.4757 2.42288.3612.0582-.0081.1139-.0223.1711-.0326l8.5803 6.2671z" fill="#9e616a"/><path d="m32.7865 92.3222-19.026-14.117 6.8979-5.3696 8.3788 6.371 30.9014-12.5875c.4548-.0777.9206-.0625 1.3695.0447.4488.1072.8715.3043 1.2428.5793.3668.2693.6757.61.9082 1.0019.2326.3919.3841.8269.4455 1.2789l.0149.1067-5.6641 8.8886z" fill="#0c97f0"/><path d="m88.6338 123.12-5.3604-37.4169.0089-.0346 5.5051-21.732.5158-.0603c1.4873-.1647 2.9824.2337 4.1927 1.1173 1.2104.8837 2.0489 2.1889 2.3517 3.6606l.4079 55.6139z" fill="#0c97f0"/><path d="m90.3252 58.0675h-27.8611v-12.6408c0-1.8371.3603-3.6562 1.0604-5.3534.7001-1.6973 1.7262-3.2394 3.0198-4.5385 1.2936-1.299 2.8292-2.3294 4.5194-3.0324 1.6901-.7031 3.5016-1.0649 5.331-1.0649s3.6408.3618 5.331 1.0649c1.6901.703 3.2258 1.7334 4.5194 3.0324 1.2935 1.2991 2.3197 2.8412 3.0197 4.5385.7001 1.6972 1.0604 3.5163 1.0604 5.3534z" fill="#2f2e41"/><path d="m84.1252 55.099c4.4466-4.4654 4.4466-11.7052 0-16.1706-4.4467-4.4654-11.6562-4.4654-16.1028 0-4.4467 4.4654-4.4467 11.7052 0 16.1706 4.4466 4.4653 11.6561 4.4653 16.1028 0z" fill="#9e616a"/><g fill="#2f2e41"><path d="m81.5708 37.3129c4.1862 0 7.5797-3.4078 7.5797-7.6115 0-4.2038-3.3935-7.6116-7.5797-7.6116-4.1861 0-7.5796 3.4078-7.5796 7.6116 0 4.2037 3.3935 7.6115 7.5796 7.6115z"/><path d="m88.7912 47.6187h-29.6335v-.1686c0-7.7137 6.6467-13.9892 14.8168-13.9892 8.17 0 14.8167 6.2755 14.8167 13.9892z"/><path d="m93.5502 65.3137-.004-.0365c-.0248-.3312-.1154-.654-.2665-.9493-.1511-.2954-.3596-.5574-.6133-.7705-.2536-.213-.5472-.3729-.8634-.4701s-.6486-.1297-.9776-.0957l-29.7299 3.0529c-.4745.0489-.9248.2343-1.2969.5338-.3722.2996-.6504.7006-.8012 1.155l-2.1892 6.5889c-.5113.5684-7.299 8.3873-3.2583 19.0765l1.5139 8.7363-2.7651 5.193c-5.6759 6.111-8.9809 20.412-9.8197 41.652 6.6582 2.01 13.5742 3.028 20.5267 3.021.0567 0 .1132 0 .1698-.003l1.8738-13.547 4.0386 13.29c6.6112-.557 13.1112-2.048 19.3079-4.427l-4.7441-32.914-.95-12.403 10.8384-36.6508z"/></g></g></svg>