<svg fill="none" height="132" viewBox="0 0 112 132" width="112" xmlns="http://www.w3.org/2000/svg"><clipPath id="a"><path d="m0 0h112v132h-112z"/></clipPath><g clip-path="url(#a)"><path d="m32.3506 110.771-1.1079 21.228s46.8623-44.5113 52.7005-57.5348c5.8383-13.0235-5.1513-45.2396-5.1513-45.2396l-24.3832 13.3662z" fill="#9f616a"/><path d="m104.205 20.3145 7.212.6854s3.777 8.2254-7.899 8.9108z" fill="#9f616a"/><path d="m104.205 32.9961 7.212.6854s3.777 8.2254-7.899 8.9109z" fill="#9f616a"/><path d="m104.205 46.7051 7.212.6854s3.777 8.2254-7.899 8.9109z" fill="#9f616a"/><path d="m102.144 60.4141 7.212.6854s3.778 8.2254-7.898 8.9108z" fill="#9f616a"/><path d="m107.716 23.6191h-.547v-14.96042c0-1.13708-.225-2.26302-.661-3.31353-.436-1.05052-1.075-2.00505-1.88-2.80908-.806-.80403-1.763-1.44182-2.815-1.876964-1.053-.43514-2.1812-.65910513-3.3206-.659106h-31.7604c-1.1394-.00000232-2.2676.223959-3.3203.659096-1.0526.435134-2.0091 1.072924-2.8148 1.876954s-1.4447 1.75855-1.8808 2.80907c-.436 1.05052-.6604 2.17645-.6604 3.31352v82.07386c0 1.1371.2244 2.263.6604 3.3135s1.0751 2.0051 1.8808 2.8091 1.7622 1.4418 2.8148 1.877c1.0527.4351 2.1809.6591 3.3203.6591h31.7604c2.3006 0 4.5076-.9122 6.1346-2.5361 1.628-1.6238 2.542-3.8261 2.542-6.1225v-56.4645h.547z" fill="#3f3d56"/><path d="m105.321 8.71962v81.95368c0 .8491-.167 1.6899-.493 2.4744-.325.7845-.802 1.4973-1.404 2.0977-.602.6005-1.316 1.0767-2.102 1.4016s-1.6287.4921-2.4795.492h-31.9139c-.8509 0-1.6934-.1672-2.4794-.4921-.7861-.3249-1.5004-.8012-2.102-1.4016s-1.0788-1.3132-1.4044-2.0977c-.3256-.7844-.4931-1.6252-.4931-2.4743v-81.95368c0-.8491.1675-1.68989.4931-2.47437.3256-.78447.8028-1.49726 1.4044-2.09767.6016-.6004 1.3159-1.07666 2.102-1.40158.786-.32492 1.6285-.49213 2.4794-.49209h3.8732c-.1908.46642-.2636.97249-.2122 1.47364.0514.50114.2256.98197.5071 1.40011.2816.41815.6618.76077 1.1073.99769s.9425.36086 1.4473.3609h18.1959c.5047-.00037 1.0015-.12452 1.4468-.36153s.8254-.57961 1.1069-.99765c.2815-.41805.4556-.89873.5072-1.39974s-.021-1.00699-.2113-1.47342h4.1457c.8508-.00004 1.6935.16717 2.4795.49209s1.5.80118 2.102 1.40159c.601.6004 1.079 1.31319 1.404 2.09767.326.78447.493 1.62526.493 2.47436z" fill="#f1f1f1"/><path d="m111.379 20.8955-4.248 1.5615.076.2076 4.248-1.5616z" fill="#000" opacity=".2"/><path d="m111.379 33.7216-4.248 1.5616.076.2075 4.248-1.5615z" fill="#000" opacity=".2"/><path d="m111.379 47.4306-4.248 1.5616.076.2075 4.248-1.5616z" fill="#000" opacity=".2"/><path d="m109.153 61.1442-2.068.9906.096.1993 2.068-.9906z" fill="#000" opacity=".2"/><path d="m67.7507 57.7517-2.5814 5.6851-4.7196 10.3951v-18.3866z" fill="#9f616a"/><path d="m96.433 34.4838c0 7.7846-7.2129 6.6072-16.1103 6.6072-8.8975 0-16.1103 1.1774-16.1103-6.6072s3.5233-21.5834 16.1103-21.5834c13.0206 0 16.1103 13.7988 16.1103 21.5834z" fill="#2f2e41"/><path d="m104.735 61.7639.587 3.6618v25.2459c.002 1.1163-.287 2.2138-.84 3.1842l-5.8983-10.3199-2.125-21.6128-.5295-5.3977 7.9918.168z" fill="#9f616a"/><path d="m105.321 60.8764c-.283-.9199-.764-2.4744-1.316-4.208-.97-3.0537-2.158-6.6691-2.863-8.3917-1.3445-3.2882-8.1979-1.9702-8.1979-1.9702l-23.4806-.8779s-.8752-.115-4.8127-.6369c-1.6507-.2189-3.0888 2.0897-4.2011 4.8471v8.6792l5.4708.4157c-.4401 1.5317-.6923 3.111-.7512 4.7034-.062 2.1781.3235 4.6126 1.9876 6.1229 3.5873 3.2639 4.7417 17.9555 4.7417 17.9555l-2.5237 9.6233h29.4676c.8508.0002 1.6935-.167 2.4795-.4919s1.5-.8011 2.102-1.4016c.602-.6004 1.079-1.3132 1.404-2.0977.326-.7845.494-1.6254.493-2.4745v-3.5645c-1.859-3.0029-3.385-4.5132-3.385-4.5132l-5.2716-20.6907 8.0696-.1393.587-.0111z" fill="#2f2e41"/><path d="m88.6972 37.1225c4.2336-4.2249 4.2336-11.0748.0001-15.2997-4.2336-4.225-11.0975-4.225-15.3311 0-4.2335 4.2249-4.2335 11.0748 0 15.2997 4.2336 4.225 11.0975 4.225 15.331 0z" fill="#9f616a"/><path d="m67.7437 29.1985h4.2877l1.8915-5.2857.3783 5.2857h2.0493l1.1035-3.0833.2206 3.0833h15.2276c0-3.0374-1.2091-5.9503-3.3612-8.0981-2.1521-2.1477-5.0711-3.3543-8.1146-3.3543h-2.2069c-3.0436 0-5.9625 1.2066-8.1147 3.3543-2.1521 2.1478-3.3611 5.0607-3.3611 8.0981z" fill="#2f2e41"/><path d="m0 121.828 38.4393-43.7647 1.3737-28.1034 14.4238-23.9907 4.1211-10.2817s9.6159 1.0282 1.7171 20.5634l-3.2625 10.4531c2.9409 6.3214 2.2487 13.2069 2.2487 20.1764v23.9532c0 5.6402-24.717 36.3624-27.852 41.0554z" fill="#9f616a"/><path d="m57.2275 28.0021-2.8676-1.4063.0977-.1986 2.6494 1.2996 3.9995-10.4644.2069.079z" fill="#000" opacity=".2"/><path d="m83.1906 93.1693c3.3041 0 5.9826-2.673 5.9826-5.9704 0-3.2973-2.6785-5.9704-5.9826-5.9704s-5.9826 2.6731-5.9826 5.9704c0 3.2974 2.6785 5.9704 5.9826 5.9704z" fill="#0c97f0"/><path d="m69.2308 91.4453c2.2283 0 4.0346-1.8027 4.0346-4.0264s-1.8063-4.0263-4.0346-4.0263c-2.2282 0-4.0345 1.8026-4.0345 4.0263s1.8063 4.0264 4.0345 4.0264z" fill="#fff"/><path d="m69.231 91.6215c-.8327 0-1.6466-.2464-2.339-.708-.6923-.4617-1.2319-1.1179-1.5505-1.8856-.3187-.7677-.402-1.6124-.2396-2.4274s.5634-1.5636 1.1522-2.1512c.5887-.5876 1.3389-.9877 2.1555-1.1498.8167-.1621 1.6632-.0789 2.4325.2391.7692.318 1.4267.8565 1.8893 1.5474s.7095 1.5032.7095 2.3341c-.0012 1.1139-.4452 2.1818-1.2344 2.9695-.7893.7876-1.8594 1.2307-2.9755 1.2319zm0-8.0526c-.7633 0-1.5094.2258-2.1441.649-.6346.4232-1.1292 1.0247-1.4213 1.7284s-.3685 1.4781-.2196 2.2252.5164 1.4333 1.0561 1.9719c.5398.5386 1.2274.9054 1.976 1.054s1.5245.0723 2.2297-.2191c.7052-.2915 1.3079-.7852 1.7319-1.4185.4241-.6333.6504-1.3779.6504-2.1397-.0011-1.021-.4081-1.9999-1.1316-2.7219s-1.7044-1.1282-2.7275-1.1293z" fill="#cbcbcb"/><path d="m70.0961 88.8208h-3.932c-.0049.0001-.0098-.0003-.0147-.0012l1.8598-3.2146c.0113-.02.0278-.0367.0477-.0482.0199-.0116.0425-.0177.0656-.0177.023 0 .0457.0061.0656.0177.0199.0115.0364.0282.0477.0482l1.2481 2.1573.0598.1032z" fill="#e5e5e5"/><path d="m72.2852 88.8207h-3.4009l.659-.9552.0474-.0688.8588-1.2449c.0151-.0191.0342-.0347.0558-.0459.0217-.0113.0454-.0178.0698-.0193.0243-.0014.0487.0023.0715.0108.0229.0086.0436.0219.061.039.0044.0049.0085.01.0123.0154z" fill="#e5e5e5"/><path d="m96.9281 91.4453c2.2282 0 4.0349-1.8027 4.0349-4.0264s-1.8067-4.0263-4.0349-4.0263-4.0345 1.8026-4.0345 4.0263 1.8063 4.0264 4.0345 4.0264z" fill="#fff"/><path d="m96.9282 91.6215c-.8326 0-1.6466-.2464-2.3389-.708-.6923-.4617-1.2319-1.1179-1.5506-1.8856-.3186-.7677-.402-1.6124-.2395-2.4274.1624-.815.5634-1.5636 1.1521-2.1512.5888-.5876 1.339-.9877 2.1556-1.1498.8167-.1621 1.6632-.0789 2.4324.2391.7693.318 1.4268.8565 1.8897 1.5474.462.6909.709 1.5032.709 2.3341-.001 1.1139-.445 2.1818-1.2343 2.9695-.7892.7876-1.8593 1.2307-2.9755 1.2319zm0-8.0526c-.7632 0-1.5093.2258-2.144.649-.6346.4232-1.1293 1.0247-1.4213 1.7284-.2921.7037-.3686 1.4781-.2197 2.2252s.5165 1.4333 1.0562 1.9719 1.2274.9054 1.976 1.054 1.5245.0723 2.2297-.2191c.7051-.2915 1.3079-.7852 1.7319-1.4185s.65-1.3779.65-2.1397c-.001-1.021-.408-1.9999-1.1312-2.7219-.7235-.722-1.7044-1.1282-2.7276-1.1293z" fill="#cbcbcb"/><path d="m98.5947 86.9909-.1312.131v-.9479c0-.0508-.0202-.0996-.0562-.1355s-.0848-.0561-.1357-.0561h-2.8788c-.0253-.0001-.0503.0048-.0737.0144-.0233.0096-.0446.0237-.0625.0415s-.032.0389-.0417.0622-.0147.0482-.0147.0735c0 .0252.005.0501.0147.0734s.0238.0444.0417.0622.0392.0319.0625.0415c.0234.0096.0484.0145.0737.0144h2.6869v.7564l-.1311-.131c-.0268-.0268-.0611-.045-.0983-.0524s-.0758-.0036-.1109.0108c-.0351.0145-.0651.0391-.0862.0706s-.0323.0685-.0323.1064v.0095c0 .0508.0202.0995.0562.1354l.4588.4579c.0178.0178.039.0319.0623.0416.0233.0096.0482.0145.0734.0145s.0502-.0049.0734-.0145c.0233-.0097.0445-.0238.0623-.0416l.4588-.4579c.036-.0359.0562-.0846.0562-.1354v-.0095c.0001-.0379-.0112-.0749-.0323-.1064s-.0511-.056-.0861-.0705c-.0351-.0145-.0737-.0183-.1109-.0109s-.0714.0256-.0983.0524z" fill="#e5e5e5"/><path d="m98.4637 88.4725h-2.687v-.7564l.1312.1309c.0269.0268.0611.0451.0983.0525s.0758.0036.1109-.0109.065-.039.0861-.0705.0324-.0686.0324-.1065v-.0095c0-.0508-.0203-.0995-.0563-.1354l-.4588-.4579c-.0178-.0178-.039-.0319-.0622-.0415-.0233-.0096-.0483-.0146-.0735-.0146s-.0501.005-.0734.0146-.0445.0237-.0623.0415l-.4588.4579c-.036.0359-.0562.0847-.0562.1354v.0096c0 .0378.0112.0749.0323.1064s.0511.056.0862.0705.0737.0183.1109.0109c.0373-.0074.0715-.0257.0983-.0525l.1311-.1309v.9479c0 .0508.0202.0995.0562.1355.036.0359.0848.056.1357.0561h2.8789c.0252 0 .0503-.0048.0736-.0144.0234-.0096.0446-.0237.0625-.0415s.0321-.0389.0418-.0622.0146-.0483.0146-.0735-.0049-.0501-.0146-.0734-.0239-.0445-.0418-.0622c-.0179-.0178-.0391-.0319-.0625-.0415-.0233-.0096-.0484-.0145-.0736-.0144z" fill="#e5e5e5"/><g fill="#fff"><path d="m72.7686 10.0762h-9.9004v.4422h9.9004z"/><path d="m87.836 10.0762h-9.9005v.4422h9.9005z"/><path d="m102.903 10.0762h-9.9001v.4422h9.9001z"/><path d="m72.7686 77.7402h-9.9004v.4423h9.9004z"/><path d="m87.836 77.7402h-9.9005v.4423h9.9005z"/><path d="m102.903 77.7402h-9.9001v.4423h9.9001z"/></g></g></svg>