<svg width="20" height="20" viewBox="0 0 20 20" fill="none" xmlns="http://www.w3.org/2000/svg">
<path fill-rule="evenodd" clip-rule="evenodd" d="M7.59175 1.20001C7.43448 1.34232 7.26921 1.47553 7.09675 1.59901C6.79875 1.79901 6.46375 1.93701 6.11175 2.00701C5.95875 2.03701 5.79875 2.05001 5.47975 2.07501C4.67875 2.13901 4.27775 2.17101 3.94375 2.28901C3.56185 2.42385 3.21498 2.64248 2.9286 2.92886C2.64222 3.21524 2.42359 3.56211 2.28875 3.94401C2.17075 4.27801 2.13875 4.67901 2.07475 5.48001C2.06384 5.69177 2.04114 5.90277 2.00675 6.11201C1.93675 6.46401 1.79875 6.79901 1.59875 7.09701C1.51175 7.22701 1.40775 7.34901 1.19975 7.59201C0.67875 8.20401 0.41775 8.51001 0.26475 8.83001C-0.08825 9.57001 -0.08825 10.43 0.26475 11.17C0.41775 11.49 0.67875 11.796 1.19975 12.408C1.40775 12.651 1.51175 12.773 1.59875 12.903C1.79875 13.201 1.93675 13.536 2.00675 13.888C2.03675 14.041 2.04975 14.201 2.07475 14.52C2.13875 15.321 2.17075 15.722 2.28875 16.056C2.42359 16.4379 2.64222 16.7848 2.9286 17.0712C3.21498 17.3575 3.56185 17.5762 3.94375 17.711C4.27775 17.829 4.67875 17.861 5.47975 17.925C5.79875 17.95 5.95875 17.963 6.11175 17.993C6.46375 18.063 6.79875 18.202 7.09675 18.401C7.22675 18.488 7.34875 18.592 7.59175 18.8C8.20375 19.321 8.50975 19.582 8.82975 19.735C9.56975 20.088 10.4298 20.088 11.1698 19.735C11.4897 19.582 11.7957 19.321 12.4078 18.8C12.6508 18.592 12.7727 18.488 12.9028 18.401C13.2008 18.201 13.5357 18.063 13.8877 17.993C14.0407 17.963 14.2008 17.95 14.5198 17.925C15.3208 17.861 15.7218 17.829 16.0557 17.711C16.4377 17.5762 16.7845 17.3575 17.0709 17.0712C17.3573 16.7848 17.5759 16.4379 17.7108 16.056C17.8288 15.722 17.8608 15.321 17.9247 14.52C17.9497 14.201 17.9627 14.041 17.9928 13.888C18.0627 13.536 18.2017 13.201 18.4007 12.903C18.4877 12.773 18.5917 12.651 18.7997 12.408C19.3207 11.796 19.5818 11.49 19.7348 11.17C20.0878 10.43 20.0878 9.57001 19.7348 8.83001C19.5818 8.51001 19.3207 8.20401 18.7997 7.59201C18.6574 7.43473 18.5242 7.26947 18.4007 7.09701C18.2009 6.79889 18.0623 6.4641 17.9928 6.11201C17.9584 5.90277 17.9357 5.69177 17.9247 5.48001C17.8608 4.67901 17.8288 4.27801 17.7108 3.94401C17.5759 3.56211 17.3573 3.21524 17.0709 2.92886C16.7845 2.64248 16.4377 2.42385 16.0557 2.28901C15.7218 2.17101 15.3208 2.13901 14.5198 2.07501C14.308 2.0641 14.097 2.0414 13.8877 2.00701C13.5357 1.9375 13.2009 1.79882 12.9028 1.59901C12.7305 1.47527 12.5652 1.34207 12.4078 1.20001C11.7957 0.679008 11.4897 0.418008 11.1698 0.265008C10.8044 0.090389 10.4047 -0.000244141 9.99975 -0.000244141C9.59484 -0.000244141 9.19507 0.090389 8.82975 0.265008C8.50975 0.418008 8.20375 0.679008 7.59175 1.20001ZM14.3727 7.86301C14.5141 7.70832 14.5903 7.50508 14.5856 7.2956C14.5809 7.08612 14.4956 6.88653 14.3474 6.73837C14.1992 6.5902 13.9996 6.50488 13.7902 6.50016C13.5807 6.49543 13.3774 6.57167 13.2227 6.71301L8.37275 11.563L6.77675 9.96801C6.62206 9.82667 6.41882 9.75043 6.20934 9.75516C5.99986 9.75988 5.80027 9.8452 5.65211 9.99337C5.50394 10.1415 5.41862 10.3411 5.4139 10.5506C5.40918 10.7601 5.48541 10.9633 5.62675 11.118L7.79675 13.288C7.94936 13.4403 8.15615 13.5258 8.37175 13.5258C8.58735 13.5258 8.79414 13.4403 8.94675 13.288L14.3738 7.86301H14.3727Z" fill="#42C196"/>
</svg>
