<svg fill="none" height="291" viewBox="0 0 98 291" width="98" xmlns="http://www.w3.org/2000/svg"><g stroke-width="1.42255"><path d="m250.238 234.93s-2.613-34.251-18.866-51.054-32.369 1.435-46.145-16.16c-13.777-17.595 8.561-33.337-8.962-54.22-17.522-20.8832-42.34-6.919-61.129-29.3108-18.7896-22.3922.12-40.8316-14.028-60.2585-14.1484-19.42694-29.0117.7621-42.5643-17.44869-13.5526-18.21071-11.6477-55.39601-11.6477-55.39601" stroke="#326cf9"/><path d="m240.256 243.305s-2.614-34.251-18.866-51.054c-16.253-16.803-32.369 1.435-46.145-16.16-13.777-17.595 8.561-33.337-8.962-54.22s-42.34-6.919-61.13-29.3108c-18.7888-22.3922.121-40.8316-14.0274-60.2585-14.1481-19.4269-29.0115.7621-42.5641-17.4487-13.5526-18.21074-11.6477-55.396-11.6477-55.396" stroke="#326cf9"/><g stroke="#f3c04f"><path d="m244.693 239.582s-2.613-34.25-18.866-51.054c-16.252-16.803-32.368 1.435-46.145-16.16s8.562-33.337-8.961-54.22c-17.523-20.8829-42.341-6.918-61.13-29.3104-18.7893-22.3922.12-40.8317-14.0279-60.2586-14.1481-19.42689-29.0115.7621-42.5641-17.4486-13.5526-18.2108-11.6477-55.396-11.6477-55.396"/><path d="m234.71 247.959s-2.613-34.25-18.866-51.054c-16.252-16.803-32.368 1.435-46.145-16.16s8.562-33.337-8.961-54.22-42.341-6.918-61.1299-29.3105c-18.7893-22.3922.1202-40.8317-14.0279-60.2585-14.1481-19.4269-29.0115.7621-42.5641-17.4487-13.5526-18.21075-11.6477-55.396-11.6477-55.396"/></g></g></svg>