<svg fill="none" height="168" viewBox="0 0 259 168" width="259" xmlns="http://www.w3.org/2000/svg"><g stroke-width="1.42255"><path d="m70.7511 275.219s33.8599-5.785 49.0809-23.528c15.22-17.744-4.436-32.095 11.803-47.447s33.988 5.427 53.153-13.96 2.955-42.8 23.504-63.588c20.55-20.789 40.667-3.674 58.695-19.566 18.029-15.8914-3.454-28.8149 13.419-44.0007s54.074-16.7438 54.074-16.7438" stroke="#326cf9"/><path d="m61.4842 266.058s33.8598-5.784 49.0808-23.527c15.221-17.744-4.436-32.095 11.803-47.447s33.989 5.427 53.153-13.96c19.165-19.387 2.955-42.8 23.505-63.588 20.549-20.7887 40.666-3.674 58.694-19.5658 18.029-15.8918-3.454-28.8153 13.419-44.0011s54.074-16.7437 54.074-16.7437" stroke="#326cf9"/><g stroke="#f3c04f"><path d="m65.6036 270.131s33.8598-5.785 49.0804-23.528c15.221-17.743-4.436-32.095 11.803-47.447s33.989 5.427 53.154-13.96c19.164-19.387 2.954-42.8 23.504-63.588s40.666-3.674 58.695-19.566c18.028-15.8913-3.454-28.8148 13.419-44.0006s54.074-16.7438 54.074-16.7438"/><path d="m56.3363 260.969s33.8598-5.785 49.0807-23.528c15.221-17.744-4.436-32.095 11.803-47.447s33.989 5.427 53.153-13.96c19.165-19.387 2.955-42.8 23.505-63.588 20.549-20.7886 40.666-3.674 58.694-19.5657 18.029-15.8917-3.454-28.8152 13.419-44.001s54.075-16.7438 54.075-16.7438"/></g></g></svg>