<svg fill="none" height="216" viewBox="0 0 240 216" width="240" xmlns="http://www.w3.org/2000/svg"><g stroke-width="2.1082"><path d="m-245.162 180.158s50.032 9.397 80.32-7.424c30.288-16.82 10.361-46.886 40.833-59.858 30.4713-12.9721 44.4384 25.043 81.0533 7.969 36.61488-17.073 26.1438-57.9561 65.4051-76.2639 39.2612-18.3079 58.4041 15.8338 91.6406 3.0324 33.236-12.8015 10.037-41.82211 41.304-54.23747 31.266-12.41533 83.766 4.5745 83.766 4.5745" stroke="#326cf9"/><path d="m-253.323 162.656s50.032 9.397 80.32-7.424c30.288-16.82 10.361-46.886 40.833-59.8578 30.471-12.9723 44.4383 25.0428 81.0532 7.9688 36.6148-17.0734 26.1438-57.9561 65.405-76.2639 39.2613-18.30782 58.4042 15.8339 91.6408 3.0324 33.236-12.8014 10.036-41.8221 41.303-54.2374 31.267-12.4154 83.767 4.5745 83.767 4.5745" stroke="#326cf9"/><g stroke="#f3c04f"><path d="m-249.695 170.438s50.032 9.396 80.32-7.424c30.288-16.821 10.361-46.886 40.832-59.859 30.4718-12.9718 44.439 25.043 81.0539 7.97 36.6148-17.0742 26.1437-57.9568 65.405-76.2646 39.2613-18.3079 58.4041 15.8338 91.6401 3.0324 33.236-12.8015 10.037-41.82212 41.304-54.2375 31.267-12.4153 83.767 4.5745 83.767 4.5745"/><path d="m-257.856 152.934s50.032 9.396 80.32-7.424c30.288-16.821 10.361-46.8862 40.832-59.8585 30.472-12.9722 44.4388 25.0435 81.0537 7.9692 36.6149-17.0738 26.1438-57.9564 65.40507-76.2643 39.26123-18.307781 58.40413 15.8339 91.64023 3.0325 33.236-12.80148 10.037-41.8221 41.304-54.2375 31.267-12.4153 83.767 4.5745 83.767 4.5745"/></g></g></svg>