<svg fill="none" height="187" viewBox="0 0 178 187" width="178" xmlns="http://www.w3.org/2000/svg"><g stroke-width="1.42255"><path d="m-43.3252 38.2938s-.931 34.3377 13.503 52.727c14.434 18.3892 32.34403 1.9091 44.2335 20.8302 11.8896 18.922-11.9524 32.278 3.3244 54.856 15.2769 22.578 41.4018 11.246 57.7828 35.455 16.381 24.21-4.3287 40.602 7.7416 61.384 12.0702 20.782 28.9359 2.232 40.5389 21.743s5.875 56.302 5.875 56.302" stroke="#326cf9"/><path d="m-32.5329 30.9911s-.9311 34.3377 13.5029 52.7269c14.43399 18.389 32.3441 1.9091 44.2336 20.831 11.8895 18.921-11.9525 32.277 3.3244 54.855 15.2768 22.578 41.4017 11.246 57.7827 35.456 16.3813 24.209-4.3286 40.601 7.7416 61.383 12.0697 20.782 28.9357 2.233 40.5387 21.743 11.603 19.511 5.875 56.302 5.875 56.302" stroke="#326cf9"/><g stroke="#f3c04f"><path d="m-37.3305 34.2372s-.9311 34.3377 13.5029 52.7269c14.43398 18.3889 32.34406 1.9091 44.2336 20.8309 11.8895 18.921-11.95247 32.277 3.3244 54.855 15.2768 22.578 41.4017 11.246 57.7827 35.456 16.381 24.209-4.3286 40.601 7.7416 61.383 12.0703 20.782 28.9353 2.233 40.5383 21.744 11.604 19.51 5.876 56.301 5.876 56.301"/><path d="m-26.5371 26.9345s-.931 34.3376 13.503 52.7269c14.43394 18.3892 32.344 1.9091 44.2335 20.8306 11.8896 18.921-11.9524 32.277 3.3244 54.855s41.4018 11.246 57.7828 35.456c16.3814 24.21-4.3287 40.602 7.7414 61.384 12.07 20.781 28.936 2.232 40.539 21.743s5.875 56.301 5.875 56.301"/></g></g></svg>