<svg width="32" height="32" viewBox="0 0 32 32" fill="none" xmlns="http://www.w3.org/2000/svg">
<path d="M4.39052 11.3905C4 11.781 4 12.4096 4 13.6667V21.6667C4 22.9237 4 23.5523 4.39052 23.9428C4.78105 24.3333 5.40959 24.3333 6.66667 24.3333C7.92375 24.3333 8.55229 24.3333 8.94281 23.9428C9.33333 23.5523 9.33333 22.9237 9.33333 21.6667V13.6667C9.33333 12.4096 9.33333 11.781 8.94281 11.3905C8.55229 11 7.92375 11 6.66667 11C5.40959 11 4.78105 11 4.39052 11.3905Z" fill="#13CE66"/>
<path d="M23.3661 2.39052C23 2.78105 23 3.40959 23 4.66667V22C23 23.2571 23 23.8856 23.3661 24.2761C23.7322 24.6667 24.3215 24.6667 25.5 24.6667C26.6785 24.6667 27.2678 24.6667 27.6339 24.2761C28 23.8856 28 23.2571 28 22V4.66667C28 3.40959 28 2.78105 27.6339 2.39052C27.2678 2 26.6785 2 25.5 2C24.3215 2 23.7322 2 23.3661 2.39052Z" fill="#13CE66"/>
<path d="M13 7C13 6.05719 13 5.58579 13.3661 5.29289C13.7322 5 14.3215 5 15.5 5C16.6785 5 17.2678 5 17.6339 5.29289C18 5.58579 18 6.05719 18 7V17C18 17.9428 18 18.4142 17.6339 18.7071C17.2678 19 16.6785 19 15.5 19C14.3215 19 13.7322 19 13.3661 18.7071C13 18.4142 13 17.9428 13 17V7Z" fill="#FF4949"/>
<path d="M15 4.66667C15 3.40959 15 2.78105 15.0732 2.39052C15.1464 2 15.2643 2 15.5 2C15.7357 2 15.8536 2 15.9268 2.39052C16 2.78105 16 3.40959 16 4.66667V18C16 19.2571 16 19.8856 15.9268 20.2761C15.8536 20.6667 15.7357 20.6667 15.5 20.6667C15.2643 20.6667 15.1464 20.6667 15.0732 20.2761C15 19.8856 15 19.2571 15 18V4.66667Z" fill="#FF4949"/>
<path d="M25 3.71429C25 1.96335 25 1.08789 25.0732 0.543944C25.1464 0 25.2643 0 25.5 0C25.7357 0 25.8536 0 25.9268 0.543944C26 1.08789 26 1.96335 26 3.71429V22.2857C26 24.0366 26 24.9121 25.9268 25.4561C25.8536 26 25.7357 26 25.5 26C25.2643 26 25.1464 26 25.0732 25.4561C25 24.9121 25 24.0366 25 22.2857V3.71429Z" fill="#11CE66"/>
<path d="M6 4.71429C6 2.96335 6 2.08789 6.07322 1.54394C6.14645 1 6.2643 1 6.5 1C6.7357 1 6.85355 1 6.92678 1.54394C7 2.08789 7 2.96335 7 4.71429V23.2857C7 25.0366 7 25.9121 6.92678 26.4561C6.85355 27 6.7357 27 6.5 27C6.2643 27 6.14645 27 6.07322 26.4561C6 25.9121 6 25.0366 6 23.2857V4.71429Z" fill="#11CE66"/>
<path d="M4 28.334C3.44772 28.334 3 28.7817 3 29.334C3 29.8863 3.44772 30.334 4 30.334H28C28.5523 30.334 29 29.8863 29 29.334C29 28.7817 28.5523 28.334 28 28.334H4Z" fill="#B5F0D0"/>
</svg>
