<svg width="32" height="32" viewBox="0 0 32 32" fill="none" xmlns="http://www.w3.org/2000/svg">
<g opacity="0.5">
<path d="M29.3327 17.0907L28.788 16.546C27.6164 15.3744 25.7169 15.3744 24.5454 16.546L23.4768 17.6146C23.0504 16.477 21.9531 15.6673 20.6667 15.6673C19.0098 15.6673 17.6667 17.0105 17.6667 18.6673V21.0191C17.0135 21.0917 16.3796 21.3785 15.8787 21.8793C14.7071 23.0509 14.7071 24.9504 15.8787 26.122L16.424 26.6673H13.3334C8.30504 26.6673 5.79088 26.6673 4.22878 25.1052C2.66669 23.5431 2.66669 21.029 2.66669 16.0007C2.66669 15.4114 2.6692 13.8567 2.67171 13.334H29.3334C29.3359 13.8567 29.3334 15.4114 29.3334 16.0007C29.3334 16.3779 29.3334 16.7411 29.3327 17.0907Z" fill="#BEBFC1"/>
</g>
<path d="M7 21.334C7 20.7817 7.44772 20.334 8 20.334H13.3333C13.8856 20.334 14.3333 20.7817 14.3333 21.334C14.3333 21.8863 13.8856 22.334 13.3333 22.334H8C7.44772 22.334 7 21.8863 7 21.334Z" fill="#BEBFC1"/>
<path d="M13.3265 5.33398H18.6736C23.7148 5.33398 26.2355 5.33398 27.8016 6.8217C28.9292 7.89286 29.245 9.43408 29.3334 12.0007V13.334H2.66669V12.0007C2.75509 9.43408 3.07081 7.89286 4.19843 6.8217C5.76456 5.33398 8.2852 5.33398 13.3265 5.33398Z" fill="#BEBFC1"/>
<path d="M25.9596 17.9589C26.3501 17.5684 26.9833 17.5684 27.3738 17.9589L30.0404 20.6256C30.431 21.0161 30.431 21.6493 30.0404 22.0398C29.6499 22.4303 29.0168 22.4303 28.6262 22.0398L27.6667 21.0802V26.666C27.6667 27.2183 27.219 27.666 26.6667 27.666C26.1144 27.666 25.6667 27.2183 25.6667 26.666V21.0802L24.7071 22.0398C24.3166 22.4303 23.6834 22.4303 23.2929 22.0398C22.9024 21.6493 22.9024 21.0161 23.2929 20.6256L25.9596 17.9589Z" fill="#BEBFC1"/>
<path fill-rule="evenodd" clip-rule="evenodd" d="M20.6667 17.666C21.219 17.666 21.6667 18.1137 21.6667 18.666V24.2518L22.6262 23.2922C23.0167 22.9017 23.6499 22.9017 24.0404 23.2922C24.431 23.6828 24.431 24.3159 24.0404 24.7065L21.3738 27.3731C20.9832 27.7636 20.3501 27.7636 19.9596 27.3731L17.2929 24.7065C16.9024 24.3159 16.9024 23.6828 17.2929 23.2922C17.6834 22.9017 18.3166 22.9017 18.7071 23.2922L19.6667 24.2518V18.666C19.6667 18.1137 20.1144 17.666 20.6667 17.666Z" fill="#BEBFC1"/>
</svg>
