<svg width="32" height="32" viewBox="0 0 32 32" fill="none" xmlns="http://www.w3.org/2000/svg">
<path opacity="0.5" d="M4.22878 10.5621C2.66669 12.1242 2.66669 14.6384 2.66669 19.6667C2.66669 24.695 2.66669 27.2091 4.22878 28.7712C5.79088 30.3333 8.30504 30.3333 13.3334 30.3333H18.6667C23.695 30.3333 26.2092 30.3333 27.7713 28.7712C29.3334 27.2091 29.3334 24.695 29.3334 19.6667C29.3334 14.6384 29.3334 12.1242 27.7713 10.5621C26.2092 9 23.695 9 18.6667 9H13.3334C8.30504 9 5.79088 9 4.22878 10.5621Z" fill="#2D8EFF"/>
<path d="M21.3333 14.3327C22.0697 14.3327 22.6666 13.7357 22.6666 12.9993C22.6666 12.263 22.0697 11.666 21.3333 11.666C20.5969 11.666 20 12.263 20 12.9993C20 13.7357 20.5969 14.3327 21.3333 14.3327Z" fill="#2D8EFF"/>
<path d="M12 12.9993C12 13.7357 11.403 14.3327 10.6666 14.3327C9.93027 14.3327 9.33331 13.7357 9.33331 12.9993C9.33331 12.263 9.93027 11.666 10.6666 11.666C11.403 11.666 12 12.263 12 12.9993Z" fill="#2D8EFF"/>
<path d="M16.0694 2.66602H15.9307C14.7327 2.66598 13.7338 2.66595 12.9407 2.77257C12.1037 2.88511 11.3479 3.13267 10.7406 3.73996C10.1333 4.34726 9.88578 5.10299 9.77324 5.94005C9.66662 6.73308 9.66665 7.73202 9.66669 8.92997L9.66669 9.03364C10.2761 9.0137 10.9405 9.00536 11.6667 9.00186V8.99935C11.6667 7.714 11.6688 6.85059 11.7554 6.20654C11.8381 5.59126 11.9811 5.32793 12.1548 5.15418C12.3286 4.98042 12.5919 4.83746 13.2072 4.75473C13.8513 4.66814 14.7147 4.66602 16 4.66602C17.2854 4.66602 18.1488 4.66814 18.7928 4.75473C19.4081 4.83746 19.6714 4.98042 19.8452 5.15418C20.019 5.32793 20.1619 5.59126 20.2446 6.20654C20.3312 6.85059 20.3334 7.714 20.3334 8.99935V9.00186C21.0596 9.00536 21.724 9.0137 22.3334 9.03364V8.93003C22.3334 7.73207 22.3334 6.73308 22.2268 5.94005C22.1143 5.10299 21.8667 4.34726 21.2594 3.73996C20.6521 3.13267 19.8964 2.88511 19.0593 2.77257C18.2663 2.66595 17.2673 2.66598 16.0694 2.66602Z" fill="#2D8EFF"/>
<path fill-rule="evenodd" clip-rule="evenodd" d="M27.4188 7L28.6154 9.80341L30.8376 11L28.6154 12.1966L27.4188 15L26.2222 12.1966L24 11L26.2222 9.80341L27.4188 7Z" fill="#FFD600"/>
<path fill-rule="evenodd" clip-rule="evenodd" d="M24.4189 5L25.0173 6.40171L26.1284 7L25.0173 7.59829L24.4189 9L23.8206 7.59829L22.7095 7L23.8206 6.40171L24.4189 5Z" fill="#FFD600"/>
<path fill-rule="evenodd" clip-rule="evenodd" d="M29.8547 6L30.1539 6.70085L30.7095 7L30.1539 7.29915L29.8547 8L29.5556 7.29915L29 7L29.5556 6.70085L29.8547 6Z" fill="#FFD600"/>
</svg>
