<svg fill="none" height="21" viewBox="0 0 19 21" width="19" xmlns="http://www.w3.org/2000/svg"><g fill="#fff"><path d="m7.38134.00995541c-2.48555.30761759-4.4338 2.14511459-4.86036 4.58554459-.08203.47989-.08203 1.37813.0041 1.87442.34043 1.98516 1.79649 3.67908 3.70372 4.29848.65625.2173.98847.2666 1.74726.2707.75469 0 1.23047-.078 1.84161-.2954 1.87443-.6685 3.28123-2.33784 3.61343-4.29429.1272-.73828.0657-1.78418-.1476-2.49785-.4225-1.41914-1.4356-2.65371-2.7399-3.32637-.82437-.426563-1.48472-.5947268-2.40347-.61523459-.33633-.01230526-.68086-.00820351-.75879 0zm1.46836 1.71445459c1.5053.36914 2.6209 1.52168 2.9408 3.03106.1272.57832.0656 1.46015-.1353 2.03847-.4348 1.25098-1.4971 2.20664-2.8055 2.52247-.14356.03691-.45118.07382-.68907.08613-1.69804.09844-3.30176-.98848-3.86367-2.6086-.2666-.77519-.2666-1.76777 0-2.54297.45527-1.3125 1.61191-2.30097 2.99824-2.56347.38145-.07383 1.18125-.05333 1.5545.03691z"/><path d="m6.64299 12.7401c-.89004.1025-1.80879.3814-2.62501.8039-1.72265.89-3.035153 2.4199-3.646286 4.2615-.229688.6891-.3322268 1.2223-.3609378 1.8703-.0287109.6727-.0082031.8162.1640628 1.009.34043.3856.914651.3897 1.234571.0082.16816-.1969.18867-.283.22969-.8982.18457-2.6496 2.01797-4.7578 4.65527-5.3403.30352-.0697.57422-.0861 1.53809-.1025 1.32481-.0246 1.75137.0164 2.52656.2379.5045.1435.6604.1435.9352-.0205.2461-.1436.4142-.4717.3814-.7465-.0287-.2666-.2133-.5455-.4389-.6562-.2132-.1067-.8039-.2708-1.31246-.3692-.40195-.0738-2.75215-.1189-3.28125-.0574z"/><path d="m14.1284 12.8589c-.1887.0862-.3609.2584-.4388.4348-.037.0902-.0534.4922-.0657 1.4438l-.0123 1.3248h-1.3002c-1.1771 0-1.3166.0082-1.4642.0779-.3159.1476-.4717.3896-.4717.7424 0 .3527.1558.5947.4717.7424.1476.0697.2871.0779 1.4642.0779h1.3002l.0123 1.3207c.0164 1.415.0246 1.4683.2297 1.6898.4635.4963 1.2756.2543 1.4028-.4224.0205-.1231.041-.7547.041-1.4028v-1.1853h1.3043c1.2714 0 1.3084-.0041 1.4847-.0944.0985-.0492.2379-.1599.3035-.246.119-.1477.1272-.1846.1272-.4799s-.0082-.3323-.1272-.4799c-.0656-.0861-.205-.1969-.3035-.2502-.1763-.0861-.2133-.0902-1.4847-.0902h-1.3043v-1.1854c0-.648-.0205-1.2797-.041-1.4027-.1026-.5332-.6563-.8326-1.128-.6153z"/></g></svg>