<svg fill="none" height="473" viewBox="0 0 473 473" width="473" xmlns="http://www.w3.org/2000/svg">
    <g fill="#fff">
        <path d="m4.05088 4.21055-3.400001 3.4v49.19995 49.2005l3.400001 3.4c2.8 2.8 4.2 3.4 7.60002 3.4 3.4 0 4.8-.6 7.6-3.4l3.4-3.4v-41.6005-41.6h41.6 41.6001l3.4-3.4c2.8-2.8 3.4-4.2 3.4-7.6 0-3.39995-.6-4.79995-3.4-7.59995l-3.4-3.400005h-49.2001-49.20002z"/>
        <path d="m364.051 4.21055c-2.8 2.8-3.4 4.2-3.4 7.59995 0 3.4.6 4.8 3.4 7.6l3.4 3.4h41.6 41.6v41.6 41.6005l3.4 3.4c2.8 2.8 4.2 3.4 7.6 3.4s4.8-.6 7.6-3.4l3.4-3.4v-49.2005-49.19995l-3.4-3.4-3.4-3.400005h-49.2-49.2z"/>
        <path d="m215.351 93.3106c-4.2.8-9.3 2.1-11.1 2.9-7.2 3-9.3 12.1004-4.1 17.6004 3.8 4 7.1 4.5 16.2 2.3 11.4-2.6 30.9-2.4 42.8.6 32.2 7.9 58.3 31.9 69.2 63.6 2.5 7.4 5.3 23.1 5.3 30.3 0 3.7.6 5 3.4 7.8s4.2 3.4 7.6 3.4 4.8-.6 7.6-3.4c3.3-3.3 3.4-3.7 3.4-10.8 0-4.1-.7-11.7-1.6-16.8-8-46.5-42.2-83.6-88.4-95.7004-12.1-3.2-37.9-4.1-50.3-1.8z"/>
        <path d="m159.151 121.211c-3.7 1.6-13.9 12.4-20.4 21.7-6 8.5-12 20.7-15.5 31.4-4.9 15.1-5.6 22.8-5.6 60.2v34.5l3.4 3.4c2.8 2.8 4.2 3.4 7.6 3.4s4.8-.6 7.6-3.4l3.4-3.4v-31.3c0-34.1 1-44.9 5.3-57.4 4.9-14.3 13.1-27.7 22.2-36.5 7.5-7.2 9.1-12 6-17.9-1.4-2.7-6.8-6.1-9.7-6.1-.7.1-2.6.7-4.3 1.4z"/>
        <path d="m219.851 147.811c-22.6 5.9-40.4 24-46.3 46.8-1.5 5.9-1.9 11-1.9 23.9v16.5l2.9 2.8c5.1 5.2 11.1 5.2 16.2 0l2.9-2.8v-13.6c0-7.4.5-15.9 1.1-18.8 5.6-26.7 33-41.4 58.5-31.2 6.9 2.8 10.4 3 14.3 1 5.2-2.7 6.8-11.2 3-16-7-8.9-32.8-13.3-50.7-8.6z"/>
        <path d="m229.151 203.11-3.3 3.3-.5 28.9c-.7 35.7-2.2 43.6-12.2 64-6 12.1-12 19.8-29.6 38-13.1 13.5-14.9 15.8-14.9 18.7 0 7.2 6.5 12.7 13.3 11.4 4.8-.9 35.1-31.7 43-43.7 7.3-11 13.9-25 17.2-36.4 4.6-15.9 5.5-24.8 5.5-53.9v-26.8l-3.4-3.4c-2.8-2.8-4.2-3.4-7.6-3.4s-4.8.6-7.5 3.3z"/>
        <path d="m283.151 203.111-3.3 3.3-.5 29.9c-.3 20.8-1 32.8-2.1 39-5.4 31.2-18.7 59.3-39.4 83.1-3.8 4.4-7.5 9-8.1 10.2-3.5 6.5 2.5 15.2 10.4 15.2 4.4 0 7.7-2.4 15-11 20-23.5 33.3-48.5 40.5-76.5 4.8-18.5 6-31.2 6-62.2v-27.5l-3.4-3.4c-2.8-2.8-4.2-3.4-7.6-3.4s-4.8.6-7.5 3.3z"/>
        <path d="m337.551 256.61c-3.1 2.8-3.3 3.3-4.5 15.3-2.7 25.1-10.7 42.6-27.6 60.6-4.3 4.5-8 9.3-8.4 10.7-.9 3.9 1.4 9.5 5 11.7 6.5 4 11.3 2.2 20.5-7.6 20.5-22 33.1-52.1 33.1-79.2 0-7.2-.1-7.6-3.4-10.9-4.5-4.5-10.1-4.8-14.7-.6z"/>
        <path d="m166.551 275.51c-1.5.9-3.5 3-4.5 4.7-.9 1.7-8.2 9.7-16.1 17.8-14.1 14.4-14.3 14.7-14.3 19.1 0 8.3 7.6 13.7 14.9 10.7 3.6-1.4 28.4-26.6 33.2-33.5 2.7-4 3.4-6 3.4-9.8 0-4.2-.4-5.2-3.3-7.8-3.8-3.4-9.1-3.9-13.3-1.2z"/>
        <path d="m4.05088 364.211-3.400001 3.4v49.2 49.2l3.400001 3.4 3.4 3.4h49.20002 49.2001l3.4-3.4c2.8-2.8 3.4-4.2 3.4-7.6s-.6-4.8-3.4-7.6l-3.4-3.4h-41.6001-41.6v-41.6-41.6l-3.4-3.4c-2.8-2.8-4.2-3.4-7.6-3.4-3.40002 0-4.80002.6-7.60002 3.4z"/>
        <path d="m454.051 364.211-3.4 3.4v41.6 41.6h-41.6-41.6l-3.4 3.4c-2.8 2.8-3.4 4.2-3.4 7.6s.6 4.8 3.4 7.6l3.4 3.4h49.2 49.2l3.4-3.4 3.4-3.4v-49.2-49.2l-3.4-3.4c-2.8-2.8-4.2-3.4-7.6-3.4s-4.8.6-7.6 3.4z"/>
    </g>
</svg>