<svg xmlns="http://www.w3.org/2000/svg" data-name="Layer 1" viewBox="0 0 64 64">
    <path d="M57,16.956H7a1,1,0,0,0-1,1V44.044a1,1,0,0,0,1,1H57a1,1,0,0,0,1-1V17.956A1,1,0,0,0,57,16.956ZM56,43.044H8V18.956H56Z"/>
    <path d="M11 28H25a1 1 0 001-1V22a1 1 0 00-1-1H11a1 1 0 00-1 1v5A1 1 0 0011 28zm1-5H24v3H12zM41 24H53a1 1 0 000-2H41A1 1 0 0041 24zM29 24h6a1 1 0 000-2H29A1 1 0 0029 24zM29 27h6a1 1 0 000-2H29A1 1 0 0029 27zM11 33H53a1 1 0 000-2H11A1 1 0 0011 33zM11 37H53a1 1 0 000-2H11A1 1 0 0011 37zM44 39a1 1 0 000 2H54a1 1 0 000-2z"/>
</svg>