<svg fill="none" height="20" viewBox="0 0 21 20" width="21" xmlns="http://www.w3.org/2000/svg"><clipPath id="a"><path d="m.992188 0h20v20h-20z"/></clipPath><g clip-path="url(#a)"><path d="m10.9453.550783c-.082.03125-3.96092 2.058597-9.53905 4.988277-.38281.19922-.421875.27735-.40625.78907.01172.27343.03516.4414.07031.5.08985.13281.27735.20312.5625.20312h.25781v.38672c0 .33203.01172.39844.08985.51562.14453.22266.29297.26954.82031.26954h.45703v.375c0 .26953.01953.41406.06641.51171.0664.14063.2539.28516.37109.28516.0625 0 .07031.14063.07813 2.0117.01172 1.9922.01172 2.0117.09375 2.0938.10547.1015.33984.1093.44922.0117.07031-.0625.07421-.1367.07421-2.0742v-2.00394h.46876.46874v2.94924 2.9492h-.46874-.46876v-.4023c0-.3711-.00781-.4102-.08984-.4883-.10156-.0977-.28516-.1094-.38672-.0313-.10937.0821-.14844.2422-.14844.6133 0 .2969-.00781.3477-.0625.3477-.11328 0-.3164.1562-.38281.289-.04297.0938-.0625.2461-.0625.5078v.375h-.4375c-.5039 0-.67969.0391-.85156.1836-.17969.1485-.24219.3047-.26563.6602l-.01953.3203-.13281.0195c-.16406.0274-.38281.1875-.48437.3555-.0625.1016-.074222.1992-.074222.6328 0 .586.039062.6836.304692.7578.20312.0547 19.18752.0547 19.39062 0 .2656-.0742.3047-.1718.3047-.7578 0-.4336-.0117-.5312-.0742-.6328-.1016-.168-.3203-.3281-.4844-.3555l-.1328-.0195-.0196-.3203c-.0234-.3555-.0859-.5117-.2656-.6602-.1718-.1445-.3476-.1836-.8476-.1836h-.4414v-.375c0-.2617-.0196-.414-.0625-.5078-.0664-.1328-.2696-.289-.3829-.289-.0585 0-.0624-.25-.0624-2.9883 0-2.82033.0039-2.9883.0703-2.9883.1171 0 .3047-.14062.3711-.28516.0468-.09765.0664-.24218.0664-.51171v-.375h.4609c.5234 0 .6719-.04688.8164-.26954.0781-.11718.0899-.18359.0899-.51562v-.38672h.2578c.2851 0 .4726-.07031.5625-.20312.0351-.0586.0625-.23047.0703-.48438.0195-.46875-.0274-.58984-.2774-.73437-.7734-.44922-6.7148-3.62891-6.8125-3.64453-.2656-.04688-.4414.33984-.2343.52343.0468.04297 1.5742.88282 3.3984 1.86719l3.3086 1.78906v.12891.13281h-9.375-9.37501v-.1289-.13282l4.73828-2.48437c2.60937-1.3711 4.75783-2.48828 4.78123-2.48828.0195 0 .3477.16797.7266.37109.4258.23047.7305.37109.8008.37109.1523 0 .2734-.10546.3047-.26171.0351-.1875-.0938-.28907-.9063-.726567-.7187-.382812-.918-.449219-1.1172-.375zm8.5235 6.753907v.27344h-8.4766-8.47658v-.27344-.27344h8.47658 8.4766zm-13.63286 1.1914v.29297h-.97656-.97657v-.29297-.29296h.97657.97656zm1.49218.08594c.01172.25391.04297.42578.08594.51172.07032.13672.26953.28125.38672.28125.0625 0 .06641.16797.06641 2.9883 0 2.8203-.00391 2.9883-.06641 2.9883-.11719 0-.3164.1445-.38672.2812-.04297.086-.07422.2578-.08594.5117l-.01953.3789h-.42187-.42578v-.375c0-.2695-.01953-.414-.06641-.5117-.06641-.1445-.25391-.2851-.37109-.2851-.06641 0-.07032-.168-.07032-2.9883 0-2.82033.00391-2.9883.07032-2.9883.11718 0 .30468-.14062.37109-.28516.04688-.09765.06641-.24218.06641-.51171v-.375h.42578.42187zm2.60938-.08594v.29297h-.99609-.9961v-.29297-.29296h.9961.99609zm1.4844.0586c0 .21094.0234.40625.0547.48047.0664.16406.2734.33984.3984.33984h.0938v2.9883 2.9883h-.0938c-.125 0-.332.1757-.3984.3398-.0313.0742-.0547.2695-.0547.4805v.3515h-.4297-.4297v-.3515c0-.211-.0234-.4063-.0547-.4805-.0664-.1641-.2734-.3398-.3984-.3398h-.0938v-2.9883-2.9883h.0938c.125 0 .332-.17578.3984-.33984.0313-.07422.0547-.26953.0547-.48047v-.35156h.4297.4297zm2.6172-.0586v.29297h-.9961-.9961v-.29297-.29296h.9961.9961zm1.4843.08204c0 .26953.0196.41406.0664.51171.0664.14454.254.28516.375.28516.0625 0 .0664.16797.0664 2.9883 0 2.8203-.0039 2.9883-.0664 2.9883-.121 0-.3086.1406-.375.2851-.0468.0977-.0664.2422-.0664.5117v.375h-.4257-.4219l-.0196-.3828c-.0117-.25-.0429-.4218-.0859-.5078-.0703-.1367-.2695-.2812-.3828-.2812-.0664 0-.0703-.168-.0703-2.9883 0-2.82033.0039-2.9883.0703-2.9883.1133 0 .3125-.14453.3828-.28125.043-.08594.0742-.25781.0859-.51172l.0196-.3789h.4219.4257zm2.5782-.08204v.29297h-.9766-.9766v-.29297-.29296h.9766.9766zm-8.71098 3.86721v2.9492h-.44921-.44922v-2.9492-2.94924h.44922.44921zm4.10158 0v2.9492h-.4492-.4492v-2.9492-2.94924h.4492.4492zm4.1016 0v2.9492h-.4688-.4688v-2.9492-2.94924h.4688.4688zm-11.75786 3.8672v.2929h-.97656-.97657v-.2929-.293h.97657.97656zm4.10156 0v.2929h-.99609-.9961v-.2929-.293h.9961.99609zm4.1016 0v.2929h-.9961-.9961v-.2929-.293h.9961.9961zm4.0625 0v.2929h-.9766-.9766v-.2929-.293h.9766.9766zm1.5.9804c.0429.0391.0625.1329.0625.2735v.2109h-8.6719-8.67189v-.2109c0-.1406.01953-.2344.0625-.2735.05469-.0546.89063-.0625 8.60939-.0625 7.7187 0 8.5547.0079 8.6094.0625zm.7578 1.3907.0117.2656h-9.3789-9.37501v-.2461c0-.1367.01172-.2617.02734-.2734.01172-.0157 4.22656-.0235 9.36327-.0196l9.3399.0117z" fill="#fff"/></g></svg>