<svg fill="none" height="23" viewBox="0 0 24 23" width="24" xmlns="http://www.w3.org/2000/svg"><g fill="#272727"><path d="m5.88822.0462151c-.22025.0764119-.41352.2472149-.51241.4539779-.08091.161813-.09439.278679-.09439.714677v.5169l-.71018.02697c-.98437.04045-1.49229.15732-2.17999.50792-1.1327.57533-1.946262 1.60465-2.2923639 2.91264l-.0988861.36408v6.83212 6.8321l.103381.4001c.107876.436.409029 1.1057.638265 1.4428.206762.2967.692204.8046.997854 1.0428.57533.4405 1.37991.7731 2.10807.8675.26519.036 2.63397.0449 7.88393.036l7.5063-.0135.3461-.0989c.8046-.2292 1.4024-.5529 1.9283-1.0383.7821-.7282 1.2361-1.5462 1.4114-2.5531.1034-.5888.1034-13.2507 0-13.83952-.1618-.91694-.5708-1.69454-1.2586-2.38225-.9439-.94391-1.9552-1.32148-3.5554-1.32597h-.4135l-.0135-.57983c-.0179-.561857-.0224-.588825-.1528-.773113-.391-.552862-1.2046-.507916-1.5147.089897-.1169.220245-.1259.278677-.1259.750636v.51241h-4.4049-4.40495v-.51241c0-.471959-.00899-.530391-.12586-.750636-.20227-.3910504-.66074-.5753384-1.06527-.4359989zm-.6068 4.4633549c0 1.03381.02247 1.17764.23822 1.40688.45848.49443 1.33497.29666 1.51476-.34161.02247-.08989.04495-.58432.04495-1.10123v-.93043h4.40495 4.4049v.93043c0 .51691.0225 1.01134.0449 1.10123.1798.63827 1.0563.83604 1.5148.34161.2158-.22924.2382-.37307.2382-1.41137v-.97538l.6428.02697c.3551.01348.7551.05843.9035.09889.7146.19327 1.3574.72815 1.69 1.40238.1933.40453.2697.79109.2697 1.43834v.55286h-9.7088-9.70884v-.55286c0-.64725.07641-1.03381.26968-1.43834.39555-.80008 1.1372-1.33496 2.04515-1.46981.12136-.01798.44049-.03596.71018-.04045l.48095-.0045zm15.91168 9.34023c0 4.8634-.0045 5.0162-.0899 5.3578-.2247.872-.8945 1.5867-1.7575 1.8699l-.3326.1078h-7.5288-7.52886l-.33261-.1078c-.40004-.1304-.91695-.4675-1.17315-.7597-.26969-.3011-.48095-.7056-.58433-1.1102-.0854-.3416-.08989-.4989-.08989-5.3578v-5.00273h9.70884 9.7088z"/><path d="m4.9443 11.5843c-.30565.1349-.56185.508-.56185.8136 0 .3057.2562.6787.56185.8136.15732.0719.31014.0854 1.22709.0854 1.15517 0 1.25405-.018 1.52824-.2832.08989-.0899.1753-.2337.21575-.3776.06293-.2157.06293-.2607 0-.4764-.04045-.1438-.12586-.2877-.21575-.3776-.27419-.2652-.37307-.2832-1.52824-.2832-.91695 0-1.06977.0135-1.22709.0854z"/><path d="m10.1898 11.6158c-.52144.2562-.64729.917-.26523 1.353.26973.3056.36853.3281 1.55973.3281 1.1686 0 1.281-.0225 1.5462-.3057.3955-.4225.2382-1.1551-.3102-1.4069-.1573-.0719-.3056-.0854-1.2405-.0854-1.0473 0-1.0563 0-1.29.1169z"/><path d="m15.5746 11.5709c-.7462.3236-.7417 1.3439.009 1.6541.1348.0584.3685.0719 1.2136.0719.9169 0 1.0697-.0135 1.227-.0854.3057-.1349.5619-.5079.5619-.8136 0-.3056-.2562-.6787-.5619-.8135-.1573-.072-.3101-.0854-1.236-.0809-.8451 0-1.0878.0134-1.2136.0674z"/><path d="m4.88587 16.9205c-.5214.2562-.64726.9169-.2652 1.3529.2652.3057.37307.3282 1.55072.3282.84502 0 1.07875-.0135 1.2136-.072.6113-.2517.76412-1.0203.29216-1.4653-.25171-.2427-.36857-.2607-1.51026-.2607-1.0383 0-1.05179 0-1.28102.1169z"/><path d="m10.2931 16.8621c-.31909.1258-.52135.3686-.58428.7102-.06742.355.1753.782.53938.9439.1573.0719.3101.0854 1.2361.0854 1.1956 0 1.3035-.027 1.5642-.3371.373-.454.2112-1.1237-.3282-1.3754-.1573-.072-.3011-.081-1.236-.081-.6967 0-1.1013.0225-1.1912.054z"/><path d="m15.5746 16.8756c-.7462.3236-.7417 1.3439.009 1.654.1348.0585.3685.072 1.2136.072 1.1776 0 1.2855-.0225 1.5507-.3282.3865-.4405.2517-1.0967-.2742-1.3574-.2202-.1079-.2472-.1124-1.281-.1124-.8451.0045-1.0923.018-1.2181.072z"/></g></svg>