<svg fill="none" height="24" viewBox="0 0 24 24" width="24" xmlns="http://www.w3.org/2000/svg"><path d="m8.29289 4.29289c.18754-.18753.44189-.29289.70711-.29289h6c.2652 0 .5196.10536.7071.29289l1.7071 1.70711h2.5858c1.1046 0 2 .89543 2 2v10c0 1.1046-.8954 2-2 2h-16c-1.10457 0-2-.8954-2-2v-10c0-1.10457.89543-2 2-2h2.58579zm1.12132 1.70711-1.7071 1.70711c-.18754.18753-.44189.29289-.70711.29289h-3v10h16v-10h-3c-.2652 0-.5196-.10536-.7071-.29289l-1.7071-1.70711zm2.58579 4.5c-1.1046 0-2 .8954-2 2s.8954 2 2 2 2-.8954 2-2-.8954-2-2-2zm-4 2c0-2.2091 1.79086-4 4-4 2.2091 0 4 1.7909 4 4s-1.7909 4-4 4c-2.20914 0-4-1.7909-4-4z" fill="#fff"/></svg>