<svg width="22" height="22" viewBox="0 0 22 22" fill="none" xmlns="http://www.w3.org/2000/svg">
<path d="M6.5 1.625C6.5 1.32663 6.38147 1.04048 6.1705 0.829505C5.95952 0.618526 5.67337 0.5 5.375 0.5C5.07663 0.5 4.79048 0.618526 4.5795 0.829505C4.36853 1.04048 4.25 1.32663 4.25 1.625V4.25H1.625C1.32663 4.25 1.04048 4.36853 0.829505 4.5795C0.618526 4.79048 0.5 5.07663 0.5 5.375C0.5 5.67337 0.618526 5.95952 0.829505 6.1705C1.04048 6.38147 1.32663 6.5 1.625 6.5H4.25V13.25C4.25 14.4435 4.72411 15.5881 5.56802 16.432C6.41193 17.2759 7.55653 17.75 8.75 17.75H15.5V20.375C15.5 20.6734 15.6185 20.9595 15.8295 21.1705C16.0405 21.3815 16.3266 21.5 16.625 21.5C16.9234 21.5 17.2095 21.3815 17.4205 21.1705C17.6315 20.9595 17.75 20.6734 17.75 20.375V17.75H20.375C20.6734 17.75 20.9595 17.6315 21.1705 17.4205C21.3815 17.2095 21.5 16.9234 21.5 16.625C21.5 16.3266 21.3815 16.0405 21.1705 15.8295C20.9595 15.6185 20.6734 15.5 20.375 15.5H8.75C8.15326 15.5 7.58097 15.2629 7.15901 14.841C6.73705 14.419 6.5 13.8467 6.5 13.25V1.625ZM15.5 8.75V14H17.75V8.75C17.75 7.55653 17.2759 6.41193 16.432 5.56802C15.5881 4.72411 14.4435 4.25 13.25 4.25H8V6.5H13.25C13.8467 6.5 14.419 6.73705 14.841 7.15901C15.2629 7.58097 15.5 8.15326 15.5 8.75Z" fill="#EBF0FE"/>
</svg>
