<svg width="32" height="28" viewBox="0 0 32 28" fill="none" xmlns="http://www.w3.org/2000/svg">
<path d="M15.475 0.43125C15.3812 0.49375 15.2438 0.63125 15.1812 0.725C15.075 0.89375 15.0625 1.05 15.0625 2.90625C15.0625 4.7625 15.075 4.91875 15.1812 5.0875C15.375 5.375 15.6125 5.5 16 5.5C16.3875 5.5 16.625 5.375 16.8188 5.0875C16.925 4.91875 16.9375 4.7625 16.9375 2.90625C16.9375 1.05 16.925 0.89375 16.8188 0.725C16.625 0.4375 16.3875 0.3125 16 0.3125C15.7688 0.3125 15.6 0.35 15.475 0.43125Z" fill="#050C1B"/>
<path d="M8.69971 3.23082C8.24346 3.45582 8.05596 4.06832 8.29971 4.53707C8.45596 4.84332 10.8435 7.21832 11.081 7.30582C11.9247 7.62457 12.6872 6.86207 12.3685 6.01832C12.281 5.78707 9.90596 3.39957 9.61221 3.24332C9.33096 3.09957 8.97471 3.09332 8.69971 3.23082Z" fill="#050C1B"/>
<path d="M22.4059 3.22457C22.1872 3.33707 20.0122 5.47457 19.7434 5.83707C19.3247 6.39957 19.6434 7.26832 20.2997 7.35582C20.8809 7.43082 20.9309 7.39957 22.2997 6.04332C22.9997 5.34957 23.6309 4.66832 23.6997 4.53707C23.8559 4.23082 23.8309 3.78707 23.6372 3.51832C23.3809 3.15582 22.8059 3.01832 22.4059 3.22457Z" fill="#050C1B"/>
<path d="M10.4563 9.94375C10.35 10.0125 10.2063 10.1875 10.1375 10.3312C10.0688 10.475 9.5125 12.2188 8.9 14.2L7.78125 17.8125H5.44375C3.225 17.8125 3.1 17.8187 2.90625 17.9375C2.8 18.0062 2.6625 18.15 2.60625 18.2625C2.54375 18.375 1.9375 20.275 1.25 22.475C0.34375 25.3812 0 26.5688 0 26.7875C0 27.1312 0.1375 27.3875 0.4125 27.5688C0.5875 27.6812 1.0125 27.6875 16 27.6875C30.9875 27.6875 31.4125 27.6812 31.5875 27.5688C31.8625 27.3875 32 27.1312 32 26.7875C32 26.5688 31.6562 25.3812 30.75 22.475C30.0625 20.275 29.4563 18.375 29.3938 18.2625C29.3375 18.15 29.2 18.0062 29.0938 17.9375C28.9 17.8187 28.775 17.8125 26.5562 17.8125H24.2188L23.1 14.2C22.4875 12.2188 21.9312 10.475 21.8625 10.3312C21.7938 10.1812 21.65 10.0125 21.5375 9.9375C21.3313 9.8125 21.2563 9.8125 15.9938 9.8125C10.725 9.8125 10.6562 9.81875 10.4563 9.94375ZM21.2125 14.675C21.725 16.3125 22.1562 17.6937 22.1688 17.7312C22.1938 17.7937 20.9312 17.8125 16 17.8125C11.0688 17.8125 9.80625 17.7937 9.83125 17.7312C9.84375 17.6937 10.275 16.3125 10.7875 14.675L11.7188 11.6875H16H20.2812L21.2125 14.675ZM13.7125 22.675C14.225 24.3125 14.6562 25.6938 14.6687 25.7312C14.6938 25.7937 13.425 25.8125 8.46875 25.8125C3.14375 25.8125 2.24375 25.8 2.26875 25.725C2.2875 25.675 2.71875 24.3187 3.21875 22.7062C3.725 21.1 4.15 19.7625 4.16875 19.7312C4.18125 19.7062 6.125 19.6875 8.4875 19.6875H12.7812L13.7125 22.675ZM17.1625 19.7875C17.1438 19.8438 16.8813 20.6687 16.5813 21.6312C16.2812 22.5875 16.0188 23.375 16 23.375C15.9812 23.375 15.7188 22.5812 15.4125 21.6062C15.1062 20.6375 14.8438 19.8063 14.8313 19.7625C14.8063 19.7062 15.0688 19.6875 16 19.6875C17.0688 19.6875 17.1938 19.7 17.1625 19.7875ZM28.775 22.675C29.2875 24.3125 29.7188 25.6938 29.7313 25.7312C29.7563 25.7937 28.4875 25.8125 23.5312 25.8125C18.575 25.8125 17.3062 25.7937 17.3313 25.7312C17.3438 25.6938 17.775 24.3125 18.2875 22.675L19.2188 19.6875H23.5312H27.8438L28.775 22.675Z" fill="#050C1B"/>
</svg>
