<svg width="32" height="32" viewBox="0 0 32 32" fill="none" xmlns="http://www.w3.org/2000/svg">
<path d="M15.475 2.43125C15.375 2.5 15.2375 2.64375 15.1625 2.7625C15.0375 2.9625 15.0312 3.04375 15.0312 4.90625C15.0312 6.73125 15.0375 6.85625 15.1562 7.05C15.3438 7.35625 15.6125 7.5 16.0063 7.5C16.3813 7.5 16.625 7.375 16.8188 7.0875C16.925 6.91875 16.9375 6.7625 16.9375 4.90625C16.9375 3.05 16.925 2.89375 16.8188 2.725C16.7563 2.63125 16.6187 2.49375 16.525 2.43125C16.275 2.26875 15.7188 2.26875 15.475 2.43125Z" fill="#151A20"/>
<path d="M8.68762 5.24332C8.38762 5.40582 8.23762 5.63082 8.20637 5.98082C8.18137 6.21207 8.20637 6.34957 8.30012 6.53707C8.45637 6.84332 10.8439 9.21832 11.0814 9.30582C11.9251 9.62457 12.6876 8.86207 12.3689 8.01832C12.2814 7.78707 9.90637 5.39957 9.61262 5.24332C9.31887 5.09332 8.96887 5.09332 8.68762 5.24332Z" fill="#151A20"/>
<path d="M22.4059 5.22457C22.1872 5.33707 20.0122 7.47457 19.7434 7.83707C19.3247 8.39957 19.6434 9.26832 20.2997 9.35582C20.8809 9.43082 20.9309 9.39957 22.2997 8.04332C22.9997 7.34957 23.6309 6.66832 23.6997 6.53707C23.8559 6.23082 23.8309 5.78707 23.6372 5.51832C23.3809 5.15582 22.8059 5.01832 22.4059 5.22457Z" fill="#151A20"/>
<path d="M10.4811 11.9313C10.3873 11.9938 10.2623 12.1062 10.2061 12.1813C10.1561 12.2625 9.58105 14.0062 8.9373 16.0687L7.76855 19.8125H15.9748C21.5623 19.8125 24.1873 19.7937 24.1873 19.75C24.1873 19.6187 21.9373 12.4625 21.8311 12.2625C21.7748 12.15 21.6373 12.0062 21.5311 11.9375C21.3311 11.8125 21.1998 11.8125 15.9936 11.8125C10.9061 11.8125 10.6498 11.8187 10.4811 11.9313Z" fill="#151A20"/>
<path d="M2.09375 21.7625C2.08125 21.8063 1.6 23.3375 1.03125 25.1562C0.28125 27.575 0 28.5562 0 28.7812C0 29.1312 0.13125 29.3812 0.4125 29.5688C0.5875 29.6812 0.84375 29.6875 7.64375 29.6875H14.7L14.8813 29.5062C15.025 29.3562 15.0625 29.2687 15.0625 29.05C15.0625 28.875 14.675 27.5375 13.9563 25.2312L12.85 21.6875H7.4875C3.25 21.6875 2.1125 21.7062 2.09375 21.7625Z" fill="#151A20"/>
<path d="M18.0436 25.2312C17.4374 27.1875 16.9374 28.825 16.9311 28.875C16.8999 29.1687 16.9561 29.3375 17.1186 29.5062L17.2999 29.6875H24.3561C31.1561 29.6875 31.4124 29.6812 31.5874 29.5688C31.8624 29.3812 31.9999 29.1312 31.9999 28.7875C31.9999 28.5063 31.6124 27.1937 30.1811 22.6687L29.8686 21.6875H24.5061H19.1499L18.0436 25.2312Z" fill="#151A20"/>
</svg>
