<svg fill="none" height="33" viewBox="0 0 39 33" width="39" xmlns="http://www.w3.org/2000/svg"><g fill="#c4c4c4"><path d="m19.1607.142132c-.1734.090453-.3467.263824-.4372.444732-.1432.278899-.1507.437196-.1507 2.525176 0 2.08797.0075 2.24627.1507 2.52517.1734.3392.603.60302.9799.60302.3618 0 .7764-.24874.9649-.58795.1583-.29397.1658-.36181.1658-2.53271 0-2.09551-.0075-2.253807-.1508-2.532706-.2789-.550262-.9573-.746245-1.5226-.444732z"/><path d="m11.0725 3.48823c-.5654.20352-.8593.76886-.7086 1.35681.0679.24875.3543.57287 1.6357 1.86938 1.6734 1.6734 1.9222 1.85431 2.4649 1.75632.3618-.06785.7689-.44474.8744-.80655.1809-.58795.0603-.7764-1.5754-2.42718-.8216-.82163-1.583-1.5528-1.7111-1.62817-.3317-.20353-.6407-.24121-.9799-.12061z"/><path d="m27.588 3.49021c-.2186.07538-.701.50504-1.8015 1.59802-1.4699 1.46988-1.7865 1.86185-1.7865 2.24627 0 .4975.4523 1.04022.9422 1.13822.5277.09799.7463-.05277 2.3217-1.62064.8216-.81408 1.5603-1.59048 1.6432-1.72616.5578-.88192-.3392-1.98999-1.3191-1.63571z"/><path d="m13.1605 11.5715c-.1357.0679-.309.2111-.3844.3166s-.7613 2.1784-1.5151 4.6056-1.39452 4.4549-1.40959 4.5001c-.03015.0754 1.96739.098 9.85199.098 8.6835 0 9.882-.0151 9.8444-.1131-.0227-.0603-.6332-2.0201-1.3569-4.3493-.7311-2.3367-1.3945-4.387-1.4774-4.5604-.098-.2186-.2412-.3618-.4447-.4749-.3015-.1507-.4146-.1507-6.5805-.1507-5.6308 0-6.3016.0151-6.5278.1281z"/><path d="m1.6956 27.5498c-1.394493 4.4925-1.402031 4.5152-1.070367 4.9825.34674.4975-.188446.4673 8.977557.4673 7.27401 0 8.32931-.015 8.51771-.113.2337-.1206.4523-.4598.4523-.6935 0-.1206-.7689-2.6156-2.4196-7.8846l-.3016-.9573h-6.42218-6.42223z"/><path d="m23.1782 24.535c-1.2211 3.8594-2.3442 7.5228-2.3442 7.6509 0 .2412.2186.5804.4523.701.1884.098 1.2437.1131 8.5177.1131 8.171 0 8.2991 0 8.5931-.1508.3166-.1583.603-.5954.603-.9196.0076-.098-.5804-2.0653-1.2965-4.3719l-1.304-4.2061h-6.4222-6.4223z"/></g></svg>