<svg width="16" height="110" viewBox="0 0 16 110" fill="none" xmlns="http://www.w3.org/2000/svg">
<path d="M7.29289 109.707C7.68341 110.098 8.31658 110.098 8.7071 109.707L15.0711 103.343C15.4616 102.953 15.4616 102.319 15.0711 101.929C14.6805 101.538 14.0474 101.538 13.6568 101.929L8 107.586L2.34314 101.929C1.95262 101.538 1.31945 101.538 0.928928 101.929C0.538403 102.319 0.538403 102.953 0.928928 103.343L7.29289 109.707ZM7 -4.37114e-08L7 1.94643L9 1.94643L9 4.37114e-08L7 -4.37114e-08ZM7 5.83929L7 9.73214L9 9.73214L9 5.83929L7 5.83929ZM7 13.625L7 17.5179L9 17.5179L9 13.625L7 13.625ZM7 21.4107L7 25.3036L9 25.3036L9 21.4107L7 21.4107ZM7 29.1964L7 33.0893L9 33.0893L9 29.1964L7 29.1964ZM7 36.9821L7 40.875L9 40.875L9 36.9821L7 36.9821ZM7 44.7679L7 48.6607L9 48.6607L9 44.7679L7 44.7679ZM7 52.5536L7 56.4464L9 56.4464L9 52.5536L7 52.5536ZM7 60.3393L7 64.2321L9 64.2321L9 60.3393L7 60.3393ZM7 68.125L7 72.0179L9 72.0179L9 68.125L7 68.125ZM7 75.9107L7 79.8036L9 79.8036L9 75.9107L7 75.9107ZM7 83.6964L7 87.5893L9 87.5893L9 83.6964L7 83.6964ZM7 91.4822L7 95.375L9 95.375L9 91.4822L7 91.4822ZM7 99.2679L7 103.161L9 103.161L9 99.2679L7 99.2679ZM7 107.054L7 109L9 109L9 107.054L7 107.054Z" fill="#C4C4C4"/>
</svg>
