<svg width="18" height="18" viewBox="0 0 18 18" fill="none" xmlns="http://www.w3.org/2000/svg">
<path fill-rule="evenodd" clip-rule="evenodd" d="M11.2972 1.18438C12.821 -0.339454 15.2916 -0.339454 16.8154 1.18438C18.3393 2.70821 18.3393 5.17883 16.8154 6.70266L8.91102 14.6071C8.45942 15.0587 8.19358 15.3246 7.89783 15.5552C7.54925 15.8271 7.17208 16.0602 6.77301 16.2504C6.43443 16.4118 6.07774 16.5307 5.47182 16.7326L2.69589 17.6579L2.02749 17.8807C1.48535 18.0614 0.887644 17.9203 0.48356 17.5163C0.0794764 17.1122 -0.0616222 16.5145 0.11909 15.9723L1.26719 12.528C1.46915 11.9221 1.58803 11.5654 1.74939 11.2268C1.93958 10.8277 2.17268 10.4506 2.44457 10.102C2.67525 9.80623 2.94112 9.54038 3.39276 9.08877L11.2972 1.18438ZM2.66705 16.3499L5.03498 15.5606C5.69425 15.3409 5.97435 15.2463 6.23523 15.122C6.55235 14.9709 6.85206 14.7857 7.12906 14.5696C7.35694 14.3919 7.56673 14.1836 8.05812 13.6922L14.366 7.38431C13.7088 7.15251 12.8622 6.72286 12.0696 5.93026C11.277 5.13766 10.8473 4.291 10.6155 3.63379L4.3076 9.94169C3.81622 10.4331 3.60795 10.6429 3.43021 10.8708C3.21416 11.1477 3.02893 11.4475 2.8778 11.7646C2.75346 12.0255 2.65896 12.3056 2.4392 12.9648L1.64989 15.3328L2.66705 16.3499ZM11.6294 2.61987C11.6579 2.76567 11.7061 2.96387 11.7865 3.19557C11.9674 3.71719 12.3093 4.40224 12.9534 5.04638C13.5976 5.69051 14.2826 6.03236 14.8042 6.21334C15.0359 6.29372 15.2341 6.34189 15.3799 6.37039L15.9316 5.81877C16.9672 4.7831 16.9672 3.10394 15.9316 2.06826C14.8959 1.03258 13.2167 1.03258 12.181 2.06826L11.6294 2.61987Z" fill="#326CF9"/>
</svg>
