<svg width="32" height="32" viewBox="0 0 32 32" fill="none" xmlns="http://www.w3.org/2000/svg">
<path d="M4.39052 12.3905C4 12.781 4 13.4096 4 14.6667V22.6667C4 23.9237 4 24.5523 4.39052 24.9428C4.78105 25.3333 5.40959 25.3333 6.66667 25.3333C7.92375 25.3333 8.55229 25.3333 8.94281 24.9428C9.33333 24.5523 9.33333 23.9237 9.33333 22.6667V14.6667C9.33333 13.4096 9.33333 12.781 8.94281 12.3905C8.55229 12 7.92375 12 6.66667 12C5.40959 12 4.78105 12 4.39052 12.3905Z" fill="#2E8EFF"/>
<path opacity="0.4" d="M23.0573 3.05727C22.6667 3.4478 22.6667 4.07634 22.6667 5.33341V22.6667C22.6667 23.9238 22.6667 24.5524 23.0573 24.9429C23.4478 25.3334 24.0763 25.3334 25.3334 25.3334C26.5905 25.3334 27.219 25.3334 27.6096 24.9429C28.0001 24.5524 28.0001 23.9238 28.0001 22.6667V5.33341C28.0001 4.07634 28.0001 3.4478 27.6096 3.05727C27.219 2.66675 26.5905 2.66675 25.3334 2.66675C24.0763 2.66675 23.4478 2.66675 23.0573 3.05727Z" fill="#2E8EFF"/>
<path opacity="0.7" d="M13.3333 9.33341C13.3333 8.07634 13.3333 7.4478 13.7238 7.05727C14.1143 6.66675 14.7428 6.66675 15.9999 6.66675C17.257 6.66675 17.8855 6.66675 18.2761 7.05727C18.6666 7.4478 18.6666 8.07634 18.6666 9.33341V22.6667C18.6666 23.9238 18.6666 24.5524 18.2761 24.9429C17.8855 25.3334 17.257 25.3334 15.9999 25.3334C14.7428 25.3334 14.1143 25.3334 13.7238 24.9429C13.3333 24.5524 13.3333 23.9238 13.3333 22.6667V9.33341Z" fill="#2E8EFF"/>
<path d="M4 28.3333C3.44772 28.3333 3 28.781 3 29.3333C3 29.8855 3.44772 30.3333 4 30.3333H28C28.5523 30.3333 29 29.8855 29 29.3333C29 28.781 28.5523 28.3333 28 28.3333H4Z" fill="#2E8EFF"/>
</svg>
