<svg width="32" height="32" viewBox="0 0 32 32" fill="none" xmlns="http://www.w3.org/2000/svg">
<path opacity="0.5" d="M4.22885 10.5621C2.66675 12.1242 2.66675 14.6384 2.66675 19.6667C2.66675 24.695 2.66675 27.2091 4.22885 28.7712C5.79094 30.3333 8.3051 30.3333 13.3334 30.3333H18.6667C23.6951 30.3333 26.2092 30.3333 27.7713 28.7712C29.3334 27.2091 29.3334 24.695 29.3334 19.6667C29.3334 14.6384 29.3334 12.1242 27.7713 10.5621C26.2092 9 23.6951 9 18.6667 9H13.3334C8.3051 9 5.79094 9 4.22885 10.5621Z" fill="#9EA0A3"/>
<path d="M21.3333 14.3334C22.0696 14.3334 22.6666 13.7365 22.6666 13.0001C22.6666 12.2637 22.0696 11.6667 21.3333 11.6667C20.5969 11.6667 19.9999 12.2637 19.9999 13.0001C19.9999 13.7365 20.5969 14.3334 21.3333 14.3334Z" fill="#9EA0A3"/>
<path d="M11.9999 13.0001C11.9999 13.7365 11.403 14.3334 10.6666 14.3334C9.93021 14.3334 9.33325 13.7365 9.33325 13.0001C9.33325 12.2637 9.93021 11.6667 10.6666 11.6667C11.403 11.6667 11.9999 12.2637 11.9999 13.0001Z" fill="#9EA0A3"/>
<path d="M16.0694 2.66675H15.9308C14.7328 2.66671 13.7338 2.66668 12.9408 2.7733C12.1037 2.88584 11.348 3.1334 10.7407 3.74069C10.1334 4.34799 9.88584 5.10372 9.7733 5.94078C9.66668 6.73381 9.66671 7.73275 9.66675 8.93071L9.66675 9.03437C10.2761 9.01443 10.9405 9.00609 11.6668 9.0026V9.00009C11.6668 7.71474 11.6689 6.85132 11.7555 6.20728C11.8382 5.59199 11.9812 5.32866 12.1549 5.15491C12.3287 4.98115 12.592 4.83819 13.2073 4.75547C13.8513 4.66888 14.7147 4.66675 16.0001 4.66675C17.2854 4.66675 18.1488 4.66888 18.7929 4.75547C19.4082 4.83819 19.6715 4.98115 19.8453 5.15491C20.019 5.32866 20.162 5.59199 20.2447 6.20728C20.3313 6.85132 20.3334 7.71474 20.3334 9.00009V9.0026C21.0596 9.00609 21.724 9.01443 22.3334 9.03437V8.93076C22.3335 7.7328 22.3335 6.73381 22.2269 5.94078C22.1143 5.10372 21.8668 4.34799 21.2595 3.74069C20.6522 3.1334 19.8965 2.88584 19.0594 2.7733C18.2664 2.66668 17.2674 2.66671 16.0694 2.66675Z" fill="#9EA0A3"/>
</svg>
