<svg width="32" height="32" viewBox="0 0 32 32" fill="none" xmlns="http://www.w3.org/2000/svg">
<g opacity="0.5">
<path d="M29.3328 17.09L28.7881 16.5453C27.6165 15.3737 25.717 15.3737 24.5454 16.5453L23.4768 17.6138C23.0505 16.4763 21.9532 15.6666 20.6667 15.6666C19.0099 15.6666 17.6667 17.0097 17.6667 18.6666V21.0184C17.0135 21.091 16.3796 21.3777 15.8788 21.8786C14.7072 23.0502 14.7072 24.9497 15.8788 26.1212L16.4241 26.6666H13.3334C8.3051 26.6666 5.79094 26.6666 4.22885 25.1045C2.66675 23.5424 2.66675 21.0282 2.66675 15.9999C2.66675 15.4107 2.66926 13.856 2.67177 13.3333H29.3334C29.3359 13.856 29.3334 15.4107 29.3334 15.9999C29.3334 16.3772 29.3334 16.7403 29.3328 17.09Z" fill="#9EA0A3"/>
</g>
<path d="M7 21.3333C7 20.781 7.44772 20.3333 8 20.3333H13.3333C13.8856 20.3333 14.3333 20.781 14.3333 21.3333C14.3333 21.8855 13.8856 22.3333 13.3333 22.3333H8C7.44772 22.3333 7 21.8855 7 21.3333Z" fill="#9EA0A3"/>
<path d="M13.3265 5.33325H18.6736C23.7149 5.33325 26.2355 5.33325 27.8017 6.82096C28.9293 7.89213 29.245 9.43334 29.3334 11.9999V13.3333H2.66675V11.9999C2.75515 9.43334 3.07088 7.89213 4.1985 6.82096C5.76462 5.33325 8.28526 5.33325 13.3265 5.33325Z" fill="#9EA0A3"/>
<path d="M25.9596 17.9596C26.3501 17.5691 26.9833 17.5691 27.3738 17.9596L30.0404 20.6263C30.431 21.0168 30.431 21.65 30.0404 22.0405C29.6499 22.431 29.0168 22.431 28.6262 22.0405L27.6667 21.081V26.6667C27.6667 27.219 27.219 27.6667 26.6667 27.6667C26.1144 27.6667 25.6667 27.219 25.6667 26.6667V21.081L24.7071 22.0405C24.3166 22.431 23.6834 22.431 23.2929 22.0405C22.9024 21.65 22.9024 21.0168 23.2929 20.6263L25.9596 17.9596Z" fill="#9EA0A3"/>
<path fill-rule="evenodd" clip-rule="evenodd" d="M20.6667 17.6667C21.219 17.6667 21.6667 18.1145 21.6667 18.6667V24.2525L22.6262 23.293C23.0167 22.9024 23.6499 22.9024 24.0404 23.293C24.431 23.6835 24.431 24.3167 24.0404 24.7072L21.3738 27.3739C20.9832 27.7644 20.3501 27.7644 19.9596 27.3739L17.2929 24.7072C16.9024 24.3167 16.9024 23.6835 17.2929 23.293C17.6834 22.9024 18.3166 22.9024 18.7071 23.293L19.6667 24.2525V18.6667C19.6667 18.1145 20.1144 17.6667 20.6667 17.6667Z" fill="#9EA0A3"/>
</svg>
