<svg fill="none" height="18" viewBox="0 0 18 18" width="18" xmlns="http://www.w3.org/2000/svg"><path clip-rule="evenodd" d="m6.47946.680366c-1.77704.241032-3.33715 1.154274-4.40604 2.579184-1.490282 1.98666-1.728599 4.61003-.62179 6.84405l.2117.4272-.4355 1.572c-.239495.8646-.428533 1.579-.420052 1.5874.008481.0085.725482-.1807 1.593362-.4204l1.57795-.4358.31153.1623c.75498.3934 1.61747.6434 2.49729.7237l.24136.0221.07342.223c.57104 1.7349 1.9873 3.1032 3.73481 3.6083.5747.1661.8535.2014 1.5756.1993.5632-.0015.7267-.0139 1.0224-.0772.4943-.1057 1.0283-.2892 1.435-.4931l.3474-.1741 1.3251.3669c.7288.2018 1.3319.3601 1.3402.3518.0083-.0084-.15-.6114-.3519-1.3402l-.3671-1.325.1741-.3472c.2038-.4066.3873-.9406.493-1.4348.0633-.2957.0756-.4592.0772-1.0225.002-.7221-.0332-1.0008-.1993-1.5756-.4994-1.72783-1.87-3.15978-3.5588-3.71811l-.2741-.09061-.0214-.22437c-.0887-.93189-.3489-1.8233-.7453-2.55421-1.0529-1.94107-2.9135-3.203193-5.08807-3.451433-.40644-.046396-1.13215-.038217-1.54207.017399zm.25142.990484c-3.39796.38484-5.64928 3.67952-4.75978 6.96554.13574.50145.39907 1.10165.66347 1.51221.0653.1014.11679.207.11441.2347-.00238.0276-.11743.457-.25565.9542-.13825.4972-.24754.9077-.24288.9124.0047.0047.41502-.1049.91191-.2434.49688-.1386.92605-.2538.9537-.2562.02766-.0024.13326.0492.23467.1145 1.1711.7542 2.677 1.028 4.08984.7437 1.61783-.3256 3.08313-1.459 3.84343-2.97278.4312-.85843.6425-1.95803.5549-2.88726-.051-.54077-.1143-.84787-.2744-1.33017-.3807-1.14724-1.1708-2.17641-2.1948-2.85901-1.04371-.69571-2.40523-1.02816-3.63882-.88843zm.07094 2.04274c-.80071.20969-1.39303.91019-1.494 1.76688l-.02075.176h.52078.52075v-.0946c0-.29732.26876-.67587.57731-.81311.39219-.17446.86198-.07506 1.14777.24281.18988.21116.26416.4301.2473.72873-.02122.37529-.09306.47435-.84113 1.15977l-.65854.60342-.00171.6118-.00167.6118h.51961.51961v-.39772-.39772l.48502-.44281c.26678-.24354.53825-.51528.60325-.60385.59822-.81496.52203-1.90493-.1831-2.61942-.50664-.51341-1.24188-.71495-1.9405-.53198zm7.02218 4.30105c-.0075.03975-.0458.24576-.0851.45779-.1969 1.06236-.7489 2.17557-1.5081 3.04167-.9272 1.0578-2.28567 1.8412-3.62261 2.089-.21204.0393-.41804.0776-.4578.0851l-.07224.0136.0646.17c.24673.6493.73983 1.3516 1.25874 1.7927 1.55501 1.322 3.73671 1.4811 5.43431.3965.0972-.0621.2028-.1126.2346-.1123.032.0003.352.0823.7111.1822.3592.0999.6567.1781.6611.1738.0043-.0044-.0745-.3014-.1751-.66-.1007-.3586-.1831-.6781-.1833-.71s.0505-.1375.1126-.2347c.7661-1.1991.9244-2.6618.4353-4.0233-.4255-1.18466-1.444-2.2222-2.6184-2.66753l-.1762-.06678zm-7.02607 2.20096v.5029h.51961.51961v-.5029-.50281h-.51961-.51961z" fill="#0c97f0" fill-rule="evenodd"/></svg>