<svg fill="none" height="255" viewBox="0 0 254 255" width="254" xmlns="http://www.w3.org/2000/svg"><g fill="#fff"><path d="m10.1873 1.2543c-4.90673 1.68512-8.62391 5.7988-9.664716 10.6559-.3965 1.8338-.4956245 34.7433-.3965 116.8188l.148688 114.241 1.040808 2.28c1.38775 2.974 4.60931 6.195 7.58305 7.583l2.27987 1.041 115.5795.149c115.48.099 115.58.099 118.305-.893 3.519-1.338 6.394-4.212 7.732-7.781.991-2.676.991-3.172.892-62.498l-.148-59.822-1.091-2.032c-1.387-2.627-3.667-4.907-6.294-6.294l-2.032-1.091h-42.872-42.871l-2.032 1.091c-2.627 1.387-4.907 3.667-6.295 6.294l-1.09 2.032v60.615 60.565l-67.9996-.099-68.0492-.149-1.3382-1.387-1.3877-1.339v-113.993-113.9936l1.3877-1.3382 1.3382-1.3877 71.122-.1487 71.0728-.0992.148 16.9504c.149 19.4285.199 19.6267 4.61 23.8891 4.163 4.0641 5.204 4.2623 24.037 4.2623h16.356v20.8163c0 22.2535.099 22.9969 2.429 24.2853 1.239.645 3.816.645 5.055 0 2.379-1.2884 2.429-1.8336 2.429-27.0113 0-20.0728-.1-23.8891-.744-25.2273-.991-2.0816-45.696-46.68773-47.481-47.332045-.991-.396499-24.384-.545189-75.3345-.545189-68.7926.049562-74.0958.099134-76.4252.892134zm169.0077 30.3322 13.878 13.8775h-12.242-12.292l-1.586-1.4374-1.635-1.4373-.149-12.4401c-.099-6.8396-.099-12.4402 0-12.4402s6.393 6.2449 14.026 13.8775zm63.638 92.9795c1.041 1.338 1.041 1.387 1.041 59.276v57.939l-1.239 1.189-1.19 1.239h-40.195-40.195l-1.189-1.239-1.239-1.189v-57.939c0-57.889 0-57.938 1.04-59.276l.992-1.289h40.591 40.592z"/><path d="m171.166 133.785c-.545.248-1.437 1.189-1.883 2.081-.694 1.339-.793 3.024-.645 12.788l.149 11.3 1.388 1.338 1.338 1.388h29.737 29.738l1.338-1.388 1.388-1.338.148-11.3c.199-12.292-.049-13.729-2.676-14.919-1.636-.743-58.434-.694-60.02.05zm52.883 14.274v4.956h-22.799-22.798v-4.956-4.956h22.798 22.799z"/><path d="m171.215 177.349c-2.874 1.388-3.32 5.65-.892 7.93 1.14 1.091 1.685 1.19 6.146 1.19s5.006-.099 6.146-1.19c2.478-2.379 1.933-6.592-1.041-7.93-1.487-.694-8.971-.644-10.359 0z"/><path d="m195.997 177.349c-2.875 1.388-3.321 5.65-.893 7.93 1.14 1.091 1.686 1.19 6.146 1.19 4.461 0 5.006-.099 6.146-1.19 2.478-2.379 1.933-6.592-1.041-7.93-1.487-.694-8.971-.644-10.358 0z"/><path d="m220.778 177.349c-2.875 1.388-3.321 5.65-.892 7.93 1.14 1.091 1.685 1.19 6.145 1.19 4.461 0 5.006-.099 6.146-1.19 2.478-2.379 1.933-6.592-1.041-7.93-1.487-.694-8.97-.644-10.358 0z"/><path d="m171.215 201.138c-2.874 1.388-3.32 5.65-.892 7.93 1.14 1.091 1.685 1.19 6.146 1.19s5.006-.099 6.146-1.19c2.478-2.379 1.933-6.591-1.041-7.93-1.487-.694-8.971-.644-10.359 0z"/><path d="m195.997 201.138c-2.875 1.388-3.321 5.65-.893 7.93 1.14 1.091 1.686 1.19 6.146 1.19 4.461 0 5.006-.099 6.146-1.19 2.478-2.379 1.933-6.591-1.041-7.93-1.487-.694-8.971-.644-10.358 0z"/><path d="m220.778 201.138c-2.875 1.388-3.321 5.65-.892 7.93 1.14 1.091 1.685 1.19 6.145 1.19 4.461 0 5.006-.099 6.146-1.19 2.478-2.379 1.933-6.591-1.041-7.93-1.487-.694-8.97-.644-10.358 0z"/><path d="m171.215 224.929c-2.874 1.388-3.32 5.65-.892 7.93 1.14 1.091 1.685 1.19 6.146 1.19s5.006-.099 6.146-1.19c2.478-2.379 1.933-6.591-1.041-7.93-1.487-.694-8.971-.644-10.359 0z"/><path d="m195.997 224.929c-2.875 1.388-3.321 5.65-.893 7.93 1.14 1.091 1.686 1.19 6.146 1.19 4.461 0 5.006-.099 6.146-1.19 2.478-2.379 1.933-6.591-1.041-7.93-1.487-.694-8.971-.644-10.358 0z"/><path d="m220.778 224.929c-2.875 1.388-3.321 5.65-.892 7.93 1.14 1.091 1.685 1.19 6.145 1.19 4.461 0 5.006-.099 6.146-1.19 2.478-2.379 1.933-6.591-1.041-7.93-1.487-.694-8.97-.644-10.358 0z"/><path d="m29.2196 60.5798c-2.726 1.4869-3.0233 5.4519-.6443 7.7317 1.1399 1.0904 1.7842 1.1895 6.4431 1.3382l5.1545.1983v19.2797 19.2803l1.3877 1.536c1.4869 1.685 3.965 2.082 6.0466.942 2.3294-1.239 2.4781-2.627 2.4781-22.5513v-18.5859h4.1633c2.2303 0 4.8075-.2478 5.6501-.5452 3.2711-1.1399 4.1632-5.4023 1.6355-7.9299l-1.4373-1.4373h-14.8191c-11.7959.0495-15.0174.1982-16.0582.7434z"/><path d="m114.467 61.2754c-2.677 2.6764-2.28 4.0145 4.51 14.6705 3.271 5.1544 5.947 9.5655 5.947 9.7637 0 .2479-2.329 4.1137-5.154 8.5743-6.294 9.8131-6.741 10.7051-6.741 12.6381 0 2.231.793 3.47 2.826 4.263 1.338.594 2.081.644 3.419.198 1.438-.496 2.379-1.735 6.741-8.475l5.055-7.9302 2.974 4.7084c1.685 2.6268 3.866 6.0958 4.907 7.7318 2.874 4.609 6.393 5.551 9.02 2.379 1.487-1.735 1.586-4.015.297-6.096-.495-.843-3.221-5.2043-6.096-9.7144l-5.253-8.277 3.766-5.8483c7.336-11.5481 8.525-13.6792 8.525-15.3644 0-3.6676-4.659-5.9475-7.533-3.7171-.744.5947-3.371 4.3119-5.898 8.2769-3.618 5.6501-4.709 7.0378-5.155 6.5422-.297-.3469-2.329-3.4198-4.46-6.8396-2.132-3.4198-4.511-6.79-5.304-7.583-1.982-1.8834-4.411-1.8339-6.393.0991z"/><path d="m82.5979 61.4236c-.8921.793-4.0641 7.6821-10.1603 22.1048-4.9067 11.4985-9.0204 21.5596-9.2186 22.3526-.4461 2.082.8921 4.411 3.0233 5.303 1.586.694 1.9329.645 3.5685-.148 1.8834-.893 2.7755-2.231 4.9067-7.484l1.0903-2.578h9.8629 9.9125l1.0904 2.578c2.3294 5.451 3.0729 6.691 4.2124 7.335 3.42 1.834 7.435-.545 7.286-4.312-.049-1.19-15.8103-39.1544-18.1398-43.615-.446-.8921-1.239-1.8338-1.7346-2.1312-1.6852-.8921-4.3615-.5947-5.6997.5948zm6.0962 23.3439c1.3877 3.2215 2.5276 5.997 2.5276 6.0961 0 .0992-2.4285.1983-5.4518.1983-2.9738 0-5.4519-.1487-5.4519-.347 0-.9912 5.2041-12.4897 5.551-12.1427.1982.1982 1.4869 2.9737 2.8251 6.1953z"/><path d="m30.4581 134.627c-1.586.694-3.172 2.974-3.172 4.56 0 .842.5452 2.032 1.4373 3.023 2.9738 3.321 8.2274 1.388 8.2274-3.073 0-3.271-3.5685-5.749-6.4927-4.51z"/><path d="m52.3155 134.627c-3.172 1.339-4.0146 5.452-1.586 7.831l1.3382 1.388 40.8889.149 40.8394.099 1.636-1.438c1.338-1.189 1.635-1.784 1.635-3.518 0-1.735-.297-2.33-1.635-3.519l-1.586-1.438-40.2946.05c-22.1048 0-40.6907.198-41.2359.396z"/><path d="m30.0122 162.381c-3.1719 1.338-4.0145 5.452-1.5859 7.831l1.3381 1.388 52.0406.149 51.991.099 1.635-1.438c1.339-1.189 1.636-1.784 1.636-3.519 0-1.734-.297-2.329-1.636-3.519l-1.586-1.437-51.4453.05c-28.2506 0-51.8423.198-52.3875.396z"/><path d="m30.4581 190.137c-1.586.693-3.172 2.973-3.172 4.559 0 .843.5452 2.032 1.4373 3.024 2.9738 3.32 8.2274 1.387 8.2274-3.073 0-3.271-3.5685-5.75-6.4927-4.51z"/><path d="m52.3155 190.137c-3.172 1.338-4.0146 5.452-1.586 7.831l1.3382 1.388 40.8889.148 40.8394.1 1.636-1.438c1.338-1.189 1.635-1.784 1.635-3.519 0-1.734-.297-2.329-1.635-3.519l-1.586-1.437-40.2946.05c-22.1048 0-40.6907.198-41.2359.396z"/><path d="m30.5079 217.891c-3.172 1.338-4.0146 5.452-1.586 7.831l1.3381 1.388 51.7928.148 51.7432.099 1.635-1.437c1.339-1.189 1.636-1.784 1.636-3.519s-.297-2.329-1.636-3.519l-1.586-1.437-51.1975.05c-28.1019 0-51.5945.198-52.1396.396z"/></g></svg>