<svg width="28" height="28" viewBox="0 0 28 28" fill="none" xmlns="http://www.w3.org/2000/svg">
<path fill-rule="evenodd" clip-rule="evenodd" d="M1.35926 8.43065C0.666992 9.69536 0.666992 11.221 0.666992 14.2722V16.3003C0.666992 21.5015 0.666992 24.1021 2.22909 25.7179C3.79119 27.3337 6.30534 27.3337 11.3337 27.3337H16.667C21.6953 27.3337 24.2095 27.3337 25.7716 25.7179C27.3337 24.1021 27.3337 21.5015 27.3337 16.3003V14.2722C27.3337 11.221 27.3337 9.69536 26.6414 8.43065C25.9491 7.16594 24.6844 6.38101 22.1549 4.81116L19.4883 3.15615C16.8145 1.49671 15.4776 0.666992 14.0003 0.666992C12.5231 0.666992 11.1862 1.49671 8.51237 3.15615L5.8457 4.81116C3.31625 6.38101 2.05153 7.16594 1.35926 8.43065ZM10.0003 21.0003C9.44804 21.0003 9.00033 21.448 9.00033 22.0003C9.00033 22.5526 9.44804 23.0003 10.0003 23.0003H18.0003C18.5526 23.0003 19.0003 22.5526 19.0003 22.0003C19.0003 21.448 18.5526 21.0003 18.0003 21.0003H10.0003Z" fill="#151A20"/>
</svg>
