<svg width="30" height="30" viewBox="0 0 30 30" fill="none" xmlns="http://www.w3.org/2000/svg">
<path d="M11.0003 22.0003C10.448 22.0003 10.0003 22.448 10.0003 23.0003C10.0003 23.5526 10.448 24.0003 11.0003 24.0003H19.0003C19.5526 24.0003 20.0003 23.5526 20.0003 23.0003C20.0003 22.448 19.5526 22.0003 19.0003 22.0003H11.0003Z" fill="#050C1B"/>
<path fill-rule="evenodd" clip-rule="evenodd" d="M15.0003 0.666992C14.0562 0.666992 13.1984 0.937418 12.2677 1.38998C11.3681 1.82745 10.3289 2.47245 9.0308 3.27809L6.27537 4.98819C5.04711 5.75047 4.06358 6.36086 3.30553 6.9414C2.52052 7.54258 1.91759 8.15485 1.48207 8.9505C1.04746 9.74449 0.851749 10.5893 0.757912 11.5879C0.666973 12.5557 0.666982 13.7391 0.666993 15.2233V17.3735C0.666974 19.912 0.666959 21.9158 0.870597 23.4825C1.07949 25.0896 1.51841 26.3871 2.51014 27.4129C3.50644 28.4435 4.77427 28.9039 6.3438 29.1222C7.86498 29.3337 9.80774 29.3337 12.2561 29.3337H17.7445C20.1928 29.3337 22.1357 29.3337 23.6569 29.1222C25.2264 28.9039 26.4942 28.4435 27.4905 27.4129C28.4822 26.3871 28.9212 25.0896 29.1301 23.4825C29.3337 21.9158 29.3337 19.912 29.3337 17.3735V15.2233C29.3337 13.7392 29.3337 12.5557 29.2427 11.5879C29.1489 10.5893 28.9532 9.74449 28.5186 8.9505C28.0831 8.15485 27.4801 7.54258 26.6951 6.9414C25.9371 6.36087 24.9536 5.75048 23.7253 4.98821L20.9698 3.27808C19.6718 2.47244 18.6325 1.82745 17.7329 1.38998C16.8023 0.937418 15.9445 0.666992 15.0003 0.666992ZM10.0397 5.00582C11.394 4.16527 12.3463 3.5757 13.1424 3.18859C13.918 2.81143 14.4672 2.66699 15.0003 2.66699C15.5334 2.66699 16.0827 2.81143 16.8583 3.18859C17.6543 3.5757 18.6066 4.16527 19.961 5.00581L22.6276 6.66082C23.9087 7.45592 24.8082 8.01546 25.4791 8.52926C26.1319 9.02918 26.5075 9.44174 26.7642 9.9108C27.0219 10.3815 27.1723 10.9319 27.2515 11.775C27.3326 12.6384 27.3337 13.7281 27.3337 15.2722V17.3003C27.3337 19.9282 27.3317 21.8019 27.1467 23.2247C26.9651 24.6221 26.623 25.4328 26.0526 26.0228C25.4868 26.608 24.7165 26.9555 23.3814 27.1412C22.0139 27.3314 20.2104 27.3337 17.667 27.3337H12.3337C9.79029 27.3337 7.98677 27.3314 6.61929 27.1412C5.28414 26.9555 4.51384 26.608 3.94804 26.0228C3.37767 25.4328 3.03555 24.6221 2.85391 23.2247C2.66898 21.8019 2.66699 19.9282 2.66699 17.3003V15.2722C2.66699 13.7281 2.66801 12.6384 2.74914 11.775C2.82837 10.9319 2.97879 10.3815 3.23645 9.9108C3.4932 9.44174 3.86876 9.02918 4.52155 8.52926C5.19246 8.01546 6.09192 7.45592 7.37303 6.66082L10.0397 5.00582Z" fill="#050C1B"/>
</svg>
