<svg fill="none" height="23" viewBox="0 0 23 23" width="23" xmlns="http://www.w3.org/2000/svg"><clipPath id="a"><path d="m.958008.878906h21.1565v21.1565h-21.1565z"/></clipPath><g clip-path="url(#a)" fill="#fff"><path d="m2.66458 3.58091c-.78924.19008-1.45864.86362-1.64459 1.64046-.090904.40081-.090904 12.06993 0 12.47073.14463.6116.61156 1.1942 1.17766 1.4587.16942.0826.40908.1694.52891.1942.15289.033 2.73961.0454 8.82214.0454 9.4543 0 8.8469.0166 9.3758-.252.5372-.2728 1.0206-.9091 1.1446-1.5165.062-.3099.062-12.02038 0-12.33029-.124-.60742-.6074-1.24377-1.1446-1.51649-.5289-.26859.0868-.25206-9.4089-.24793-6.82214.00414-8.6816.0124-8.85102.05372zm17.75582.93799c.3305.15289.5165.33471.6694.64875l.1363.27685v6.0122 6.0123l-.1363.2768c-.1529.3141-.3389.4959-.6694.6488l-.2273.1074h-8.6568-8.65685l-.27685-.1363c-.31404-.1529-.49586-.3389-.64874-.6694l-.10744-.2273v-6.0123-6.0122l.10744-.22727c.19421-.40908.47932-.657.9008-.76857.14876-.04132 2.0578-.04959 8.76424-.04546l8.5742.00827z"/><path d="m7.25537 7.07724c-.90493.13636-1.65285.83882-1.83879 1.72723-.06612.32231-.02893.88428.07851 1.18592.33057.90491 1.25203 1.51651 2.19828 1.45451 1.12807-.0744 1.99582-.9421 2.0578-2.05367.02066-.43387-.03719-.72725-.21487-1.09915-.40908-.85122-1.35947-1.35534-2.28093-1.21484zm.88427.98758c.26859.13636.48759.35949.61569.61568.09917.19835.1157.28512.1157.56611-.00413.43387-.11157.69006-.41735.96689-.51651.4711-1.25203.4711-1.76854 0-.63635-.57847-.56197-1.57018.15702-2.05364.27272-.18182.40081-.21488.78923-.19835.2438.00827.37603.03306.50825.10331z"/><path d="m13.4329 8.06396c-.2025.20248-.1488.55371.1033.68594.1157.05785.3926.06612 2.9049.05372l2.7727-.0124.1074-.09917c.2107-.19834.1653-.58676-.0826-.70247-.0744-.03305-.9256-.04545-2.8925-.04545h-2.7934z"/><path d="m13.5114 11.5267c-.2314.1447-.2727.4835-.0785.6777l.1198.1198h2.7933c1.9669 0 2.8181-.0124 2.8925-.0454.2479-.1157.2934-.5041.0827-.7025l-.1075-.0992-2.7933-.0082c-2.5536-.0083-2.8057-.0041-2.909.0578z"/><path d="m5.44138 12.3692c-.31405.0455-.85122.3058-1.10328.5289-.2438.2149-.4752.5661-.60742.9132-.08678.2356-.10331.3554-.11983.9752-.01653.6033-.00827.7231.05371.8388.09091.1818.30991.2728.49586.2108.26859-.0868.28511-.1405.30991-.905.02066-.628.03305-.7065.13222-.9173.13223-.2851.36363-.5248.63635-.6611l.20248-.0992 2.07019-.0124c2.01647-.0083 2.07846-.0083 2.30572.0744.29341.1116.57441.3843.71901.6942.0992.2149.1074.2975.1281.9214.0289.7645.0454.8182.314.905.186.062.405-.029.4959-.2108.1074-.2024.0702-1.4462-.0537-1.7809-.248-.6777-.7273-1.157-1.42149-1.4049-.2562-.0909-.29338-.0951-2.28507-.0992-1.11154-.0041-2.1363.0083-2.27266.0289z"/><path d="m13.5775 15.0263c-.1694.0744-.2645.2149-.2645.3967 0 .1859.0951.3223.2728.3967.2066.0868 5.4089.0868 5.6155 0 .1447-.062.2686-.2438.2686-.3967s-.1239-.3347-.2686-.3967c-.2066-.0826-5.4296-.0826-5.6238 0z"/></g></svg>