<svg fill="none" height="21" viewBox="0 0 22 21" width="22" xmlns="http://www.w3.org/2000/svg"><g fill="#272727"><path d="m1.74753.0627987c-.828641.2010073-1.489092.8655613-1.6859972 1.7024113-.0492262.21331-.0615328.58251-.0615328 1.91572 0 1.57523.00410218 1.66138.0820437 1.81316.0943503.1846.3281743.32818.5332843.32818.205109 0 .438932-.14358.533282-.32818.07794-.15178.08205-.23793.08205-1.77624 0-1.1158.0164-1.66139.04922-1.75574.09435-.27895.26664-.47585.53329-.60712l.25023-.12717h1.63677c1.55883 0 1.64498-.0041 1.79676-.08204.1846-.09435.32817-.328179.32817-.533289 0-.205109-.14357-.438933-.32817-.5332836-.15178-.07794149-.23383-.08204368-1.83368-.07794149-1.30039 0-1.72702.01640869-1.91572.06153279z"/><path d="m15.4981.0833096c-.1764.0902484-.32.3322774-.32.5291814 0 .184599.1436.438939.2994.520979.119.06563.3077.07794 1.8337.09435 1.887.02461 1.8624.02051 2.1537.30766.2871.29126.283.26664.3076 2.15365.0164 1.52601.0287 1.71471.0944 1.83368.082.15588.3364.29946.521.29946.2051 0 .4389-.14358.5332-.32818.078-.15178.0821-.23793.0821-1.81316 0-1.82548-.0164-1.95675-.2584-2.44901-.1764-.360991-.6154-.799925-.9764-.976319-.4963-.24613072-.6194-.25843728-2.4572-.25433509-1.5752 0-1.6696.00410218-1.8131.08204369z"/><path d="m4.60675 3.34111c-.32407.09025-.53738.21331-.77531.44714-.45124.45534-.50867.69327-.50867 2.15775 0 .99273.0082 1.14451.07384 1.27167.21741.43894.86556.43894 1.08297 0 .06564-.12716.07384-.27894.07384-1.22245 0-1.57934-.09435-1.48499 1.48499-1.48499 1.20604 0 1.27988-.0123 1.45628-.28305.1969-.29125.08204-.71788-.23383-.87376-.12717-.06564-.27895-.07384-1.29219-.06974-.85325 0-1.20193.01641-1.36192.05743z"/><path d="m13.7423 3.34931c-.2051.10666-.3282.31177-.3282.5456 0 .23382.1231.43893.3282.54148.1272.06564.279.07384 1.2225.07384 1.5793 0 1.485-.09435 1.485 1.48499 0 .94351.0082 1.09529.0738 1.22245.2174.43894.8615.43894 1.0871 0 .0656-.13127.0697-.25843.0615-1.37423-.0123-1.1363-.0205-1.24706-.0984-1.43986-.1928-.47176-.5456-.82865-.9887-1.00914-.2256-.08615-.2953-.09435-1.4686-.10666-1.1157-.0082-1.2429-.0041-1.3742.06153z"/><path d="m.360986 9.96877c-.176394.09023-.3199704.33223-.3199704.52923 0 .2051.1435764.4389.3281744.5332.159986.0821.221518.0821 10.13241.0821 9.9109 0 9.9724 0 10.1324-.0821.1846-.0943.3282-.3281.3282-.5332 0-.2052-.1436-.439-.3282-.53333-.16-.08204-.2174-.08204-10.1406-.08204-9.857568.0041-9.980633.0041-10.132414.08614z"/><path d="m3.60581 13.464c-.27895.1846-.28715.2298-.27485 1.6081.01231 1.1732.02052 1.243.10666 1.4686.1805.443.53739.7958 1.00914.9886.1928.0779.30356.0861 1.43987.0985 1.11579.0082 1.24296.0041 1.37423-.0616.43893-.2256.43893-.8696 0-1.0871-.12717-.0656-.27895-.0738-1.22245-.0738-1.57934 0-1.48499.0943-1.48499-1.485 0-.9435-.00821-1.0953-.07384-1.2224-.10256-.2052-.30767-.3282-.54149-.3282-.13127 0-.23793.0287-.33228.0943z"/><path d="m16.7328 13.464c-.2707.1764-.2831.2503-.2831 1.4563 0 1.2102-.0164 1.3004-.2666 1.4194-.1108.0533-.3159.0656-1.2183.0656-.9435 0-1.0953.0082-1.2225.0738-.4389.2175-.4389.8615 0 1.0871.1313.0657.2584.0698 1.3742.0616 1.1651-.0124 1.243-.0206 1.4563-.1067.4636-.1887.804-.5292.9927-.9927.0862-.2133.0944-.2913.1067-1.4563.0082-1.1158.0041-1.243-.0615-1.3742-.1067-.2052-.3118-.3282-.5456-.3282-.1313 0-.238.0287-.3323.0943z"/><path d="m.31997 15.261c-.09435.0493-.1887.1436-.2379263.2421-.07794152.1517-.0820437.2379-.0820437 1.8131 0 1.8255.0164087 1.9568.258438 2.449.176394.361.615327.8.976322.9764.49226.242.62353.2584 2.449.2584 1.57524 0 1.66139-.0041 1.81317-.082.1846-.0944.32817-.3282.32817-.5333s-.14357-.439-.32817-.5333c-.15178-.078-.23793-.0821-1.79676-.0821h-1.63677l-.25023-.1271c-.26665-.1313-.43894-.3282-.53329-.6071-.03282-.0944-.04922-.64-.04922-1.7558 0-1.5383-.00411-1.6245-.08205-1.7762-.151779-.2995-.520976-.4062-.82864-.2421z"/><path d="m20.0925 15.261c-.2995.1559-.2954.1395-.32 2.047-.0246 1.887-.0205 1.8624-.3076 2.1537-.2913.2871-.2667.283-2.1537.3076-1.526.0165-1.7147.0288-1.8337.0944-.1558.082-.2994.3364-.2994.521 0 .2051.1436.4389.3282.5333.1517.0779.2379.082 1.8131.082 1.8255 0 1.9568-.0164 2.449-.2584.361-.1764.8-.6154.9764-.9764.242-.4922.2584-.6235.2584-2.449 0-1.5752-.0041-1.6614-.0821-1.8131-.1517-.2995-.5209-.4062-.8286-.2421z"/></g></svg>