<svg fill="none" height="20" viewBox="0 0 20 20" width="20" xmlns="http://www.w3.org/2000/svg"><path clip-rule="evenodd" d="m9.024.324045c-2.26336.235159-4.32106 1.212355-5.9201 2.811395-1.48974 1.4897-2.438083 3.37439-2.759311 5.4835-.097951.64303-.097951 2.12846 0 2.77146.321228 2.1091 1.269571 3.9938 2.759311 5.4835 1.4897 1.4898 3.37439 2.4381 5.4835 2.7593.64302.098 2.1285.098 2.7715 0 2.1091-.3212 3.9938-1.2695 5.4835-2.7593 1.2833-1.2833 2.1639-2.8534 2.5856-4.6103.1217-.5066.2264-1.1709.2264-1.4358 0-.0953.0171-.1838.038-.1967.0229-.0141.0379-.2795.0379-.66886 0-.42062-.0132-.63725-.0379-.62195-.0233.01435-.038-.04545-.038-.15425 0-.26895-.104-.93043-.2264-1.44031-.4217-1.7569-1.3023-3.32693-2.5856-4.61029-1.2834-1.28339-2.8537-2.16408-4.6103-2.585613-.2506-.060138-.635-.136639-.8542-.17001-.4695-.071452-1.88119-.1049-2.3539-.055772zm.58847.861445c-3.25316.12547-6.19494 2.07285-7.61607 5.04161-.39143.81775-.68501 1.84214-.79401 2.77074-.0571.48664-.0571 1.52706 0 2.01366.30482 2.5967 1.73378 4.915 3.93013 6.3761 1.07261.7135 2.50418 1.2318 3.83378 1.3878.48664.0571 1.5271.0571 2.0137 0 3.0273-.3553 5.6488-2.2333 6.9699-4.9931.3914-.8178.685-1.8422.794-2.7708.0571-.4866.0571-1.52702 0-2.01366-.2281-1.94346-1.0692-3.71586-2.4287-5.11789-.7654-.78931-1.4843-1.31498-2.4506-1.79168-1.3094-.64606-2.7852-.95939-4.25213-.90278zm.90363 4.028c-.5209.186-.80906.56493-.80833 1.06285.00064.45563.24719.80894.71643 1.0266.3046.1413.7304.14089 1.0363-.00099.2893-.13421.5353-.36842.6382-.6076.104-.24166.0954-.64842-.0188-.88362-.2516-.51857-.9921-.80138-1.5638-.59724zm-1.43515 3.28776c-.18793.05045-.52905.15934-.75806.24195l-.41633.1502-.06936.27559c-.03816.15156-.06364.28129-.05661.28831.00702.00706.12305-.02153.25786-.06348.34238-.10657.77689-.11242.94941-.01276.20547.11869.27248.28494.25129.62364-.02046.3272-.08367.5872-.44298 1.8223-.27772.9548-.32464 1.16-.36022 1.5756-.05751.6718.27681 1.153.96133 1.3836.18098.061.32563.0778.66012.0767.499-.0015.6786-.0393 1.3731-.2889l.5129-.1843.0635-.258c.0349-.142.0556-.2659.0462-.2754-.0095-.0094-.1013.0087-.2039.0404-.3061.0945-.7252.1073-.9428.0289-.4921-.1775-.4826-.4796.0762-2.4289.3527-1.2304.4226-1.64619.3486-2.07342-.0468-.27039-.2101-.52484-.455-.7092-.2899-.21815-.4829-.2743-.99797-.2904-.39127-.01222-.5038-.00125-.79728.07757zm-8.811419 1.50345c0 .3654.005695.5149.012681.3322.006948-.1827.006948-.48172 0-.66441-.006986-.18269-.012681-.03322-.012681.33221z" fill="#0c97f0" fill-rule="evenodd"/></svg>