<svg fill="none" height="20" viewBox="0 0 14 20" width="14" xmlns="http://www.w3.org/2000/svg"><path clip-rule="evenodd" d="m6.43481.836468c-3.03506.383102-5.35451 2.715452-5.699281 5.730972-.189305 1.65582.337261 3.59456 1.585691 5.83836.64509 1.1593 1.41255 2.3279 2.96134 4.5089.53321.7509 1.08654 1.5376 1.22961 1.7482.28994.4268.37961.503.61591.5236.24895.0216.37667-.0697.64552-.4616.12719-.1854.60367-.8625 1.05881-1.5048 1.19269-1.6829 1.84169-2.6274 2.28619-3.3274 2.3101-3.6379 2.9592-6.13216 2.2225-8.54042-.6928-2.26506-2.656-4.01106-4.99879-4.44568-.45514-.084432-1.4922-.122551-1.9075-.070132zm.26318 1.066562c-.64075.06485-1.40102.27959-1.92812.5446-1.00879.5072-1.91803 1.41643-2.42523 2.42522-.18643.37078-.40476 1.03064-.48345 1.46106-.08486.46419-.08568 1.40216-.00165 1.86826.31926 1.77061 1.23557 3.65133 3.09837 6.35933.78097 1.1352 2.17732 3.0898 2.20743 3.0898.03909 0 1.90017-2.6289 2.57034-3.6307.74792-1.1181 1.24512-1.9611 1.70462-2.8903.5625-1.13758.8569-1.9746 1.0299-2.92813.0844-.46559.0838-1.40289-.0013-1.86826-.3282-1.79512-1.5328-3.30036-3.22508-4.02996-.74012-.31907-1.76285-.48014-2.54583-.40092zm-.12575 2.18547c-1.52188.28757-2.64072 1.6347-2.64072 3.17954 0 1.77445 1.45879 3.23296 3.23353 3.23296 1.7746 0 3.23295-1.45836 3.23295-3.23296 0-2.00885-1.8564-3.55168-3.82576-3.17954zm.13178 1.07893c-.95353.20698-1.6934 1.12476-1.6934 2.10061 0 .98468.7422 1.89711 1.70996 2.10215.7218.15291 1.42132-.05903 1.95446-.59216.85879-.85879.85782-2.15957-.00219-3.02332-.52865-.53095-1.24455-.74447-1.96883-.58728z" fill="#0c97f0" fill-rule="evenodd"/></svg>