<svg fill="none" height="18" viewBox="0 0 14 18" width="14" xmlns="http://www.w3.org/2000/svg"><path clip-rule="evenodd" d="m7.65878.723899c.56596.089607.93709.205886 1.37728.431391.78988.40473 1.40254 1.03391 1.79974 1.84821.3615.74114.4108 1.05417.4109 2.61295l.0002 1.18279h.3318c.5992 0 .8904.10758 1.2416.45876.2393.23936.3609.45261.4227.74147.051.23821.051 7.52223 0 7.76043-.1183.5531-.6149 1.05-1.1642 1.165-.2376.0498-9.555.0498-9.79264 0-.54497-.1141-1.04826-.6176-1.1645-1.165-.05005-.2356-.05049-7.52162-.00048-7.76043.05636-.2692.23421-.57438.45521-.78109.33534-.31372.63969-.41914 1.20988-.41914h.33185l.00012-1.18279c.00016-1.55878.04941-1.87181.41092-2.61295.41558-.85206 1.03771-1.47419 1.88977-1.88977.41066-.20033.69221-.289873 1.14437-.363952.25866-.04239.8961-.057441 1.09548-.025879zm-.0576 1.026891c.81281.12923 1.52623.54773 2.00237 1.1746.2068.27228.44965.77569.53615 1.11135.0643.24983.0705.36259.0828 1.5162l.0134 1.2463h-3.05342-3.05338l.01333-1.2463c.01239-1.15361.01855-1.26637.08288-1.5162.08646-.33566.32931-.83907.53611-1.11135.40838-.53767 1.04127-.95284 1.69415-1.11135.30505-.07405.87853-.10574 1.14561-.06325zm4.37722 6.13599c.1035.0522.1609.10961.2131.21312l.0714.14168v3.63812 3.6381l-.0714.1417c-.0522.1035-.1096.1609-.2131.2131l-.1417.0715h-4.65422-4.6542l-.14168-.0715c-.10352-.0522-.16093-.1096-.21313-.2131l-.07144-.1417v-3.6381-3.63812l.07144-.14168c.0522-.10351.10961-.16092.21313-.21312l.14168-.07145h4.6542 4.65422zm-4.49426 1.65657c.25802.06456.45952.17782.65068.36573.53884.52972.53773 1.38052-.00251 1.91152-.10018.0985-.24056.2048-.31197.2363l-.12981.0573v.8755c0 .7911-.00565.8862-.05881.9862-.17467.3287-.62899.3663-.85462.0706l-.08679-.1137-.00987-.9075-.00991-.9075-.13298-.0616c-.18629-.0862-.47099-.3816-.56987-.5913-.25526-.5412-.15501-1.1409.26009-1.55601.33779-.33778.8138-.47626 1.25637-.36554zm-.06945 1.09175c.06611.069.08532.1205.08532.2285 0 .198-.11672.3175-.31003.3175-.19706 0-.32502-.1279-.32502-.325 0-.1949.11929-.31.32127-.31.11539 0 .15969.0173.22846.089z" fill="#0c97f0" fill-rule="evenodd" stroke="#0c97f0" stroke-width=".2"/></svg>