<svg fill="none" height="18" viewBox="0 0 16 18" width="16" xmlns="http://www.w3.org/2000/svg"><path clip-rule="evenodd" d="m2.63096.463806c-.08769.087728-.08881.094803-.08881.572724v.48392h-.74286c-.77402 0-.903624.02079-.954394.15312-.011488.02999-.020921 3.59393-.020921 7.91987v7.86536l.082708.0827.082675.0827h6.145322 6.14532l.0888-.0888.0888-.0889v-.7702-.7703h.7429c.774 0 .9036-.0208.9544-.1531.0115-.03.0209-2.5587.0209-5.6194v-5.56486l-2.0978-2.09682-2.0978-2.09682h-4.1302-4.1302zm.48392 7.676694v7.1928h5.74411 5.74411v-5.1703-5.17038l-1.9176-.00946-1.9176-.0095-.087-.08167-.0869-.0817v-1.93126-1.931304h-3.73955-3.73957zm8.05182-5.25561v1.49919h1.5075 1.5075l-1.4989-1.49919c-.8244-.82456-1.5028-1.4992-1.5075-1.4992s-.0086.67464-.0086 1.4992zm-9.77 6.68742v7.47909h5.74411 5.74409v-.5727-.5727h-5.0677-5.06775l-.10363-.0872-.10367-.0873v-6.81914-6.81918h-.57272-.57273zm2.99546-6.56001c-.12233.09393-.13183.17337-.13183 1.10227 0 .92889.0095 1.00833.13183 1.10226.03911.03002.31412.04134 1.02356.04211l.97014.00108.08267-.08271.08271-.08267v-.98007-.98007l-.08271-.08268-.08267-.08271-.97014.00108c-.70944.00078-.98445.0121-1.02356.04211zm.4409 1.10227v.57272h.57273.57272v-.57272-.57273h-.57272-.57273zm-.47425 1.81665c-.10511.10511-.12246.19779-.0593.31645.07432.13951.13011.15561.54349.15672.37773.00101.40151-.00303.48008-.08163.05511-.05508.08234-.11973.08163-.19371-.00226-.23421-.12563-.2963-.58887-.2963-.35138 0-.36051.00198-.45703.09847zm1.73276-.01863c-.12202.10494-.12771.28549-.01286.40775l.08001.08513h3.56677 3.56681l.0826-.08271c.1391-.139.1029-.35603-.0751-.45083-.0546-.02908-.9823-.03918-3.59446-.03918h-3.52092zm-1.65076 1.67027c-.18203.07715-.23566.32022-.1005.45539.09828.09827.30527.13351.65331.11117.22579-.01448.26524-.02715.33411-.1072.10706-.12448.10342-.28724-.0088-.39279-.07937-.07462-.11778-.08233-.44639-.08941-.19776-.00428-.39201.00603-.43173.02284zm1.70238.01833c-.22842.12479-.19008.4505.06125.52027.08567.02379 1.25319.03558 3.53998.03568 3.65128.0002 3.58788.00303 3.67688-.1632.0631-.11798.0427-.25681-.0506-.34451l-.0869-.08166-3.5263-.00735c-3.00079-.00623-3.53942-.00013-3.61431.04077zm-1.70332 1.71515c-.19281.08729-.23661.28693-.09824.4478.08072.09383.08439.09454.4858.09454.38171 0 .40937-.00459.4914-.08167.11337-.10653.11603-.2682.0065-.39555-.07704-.08955-.09534-.09396-.42954-.10353-.24957-.00714-.37955.00381-.45592.03841zm1.72127.00023c-.24613.10794-.21794.44929.0434.52509.09022.02614 1.15003.0341 3.60912.02702l3.48134-.01.0814-.09454c.1039-.12081.1039-.26285 0-.38366l-.0813-.09453-3.51513-.00745c-2.89001-.0061-3.53356.00068-3.61883.03807zm-1.75833 1.72693c-.05697.023-.14248.1919-.14248.2816 0 .0394.04431.116.09848.1701.09652.0965.10565.0985.45703.0985.46324 0 .58661-.0621.58887-.2963.00071-.074-.02652-.1386-.08163-.1937-.0788-.0789-.10134-.0826-.48008-.0801-.21855.0015-.41664.0104-.44019.0199zm1.7019.0245c-.03251.0247-.07543.0916-.09534.1487-.04494.1289.01358.2707.13759.3334.06627.0335.83231.0427 3.59379.0431l3.50965.0005.1036-.0872c.1339-.1127.1427-.2811.0209-.4028l-.0826-.0827-3.56428.0011c-2.91464.0008-3.57499.0092-3.62331.0459zm-1.71255 1.7143c-.15453.1187-.16828.2962-.03335.4311.09736.0974.10282.0985.48392.0985.3715 0 .38861-.0032.47425-.0888.11768-.1177.12024-.2871.0061-.4012-.07857-.0786-.10235-.0827-.48008-.0817-.25911.0007-.41597.0154-.45084.0421zm1.69941.0367c-.07071.0608-.09284.1101-.09284.2065 0 .0965.02213.1457.09284.2065l.09285.0799h3.54777 3.54781l.0888-.0888c.0593-.0593.0888-.125.0888-.1976s-.0295-.1382-.0888-.1975l-.0888-.0888h-3.54781-3.54777z" fill="#0c97f0" fill-rule="evenodd" stroke="#0c97f0" stroke-width=".2"/></svg>