<svg fill="none" height="32" viewBox="0 0 31 32" width="31" xmlns="http://www.w3.org/2000/svg"><g fill="#c4c4c4"><path d="m16.0293 5.98619v5.97861l4.2259-4.22589 4.226-4.22594-.2217-.19397c-2.2862-1.9467-4.7317-2.972012-7.7591-3.2699068l-.4711-.04849429z"/><path d="m11.8378 2.30652c-2.03675.21476-4.12201.96296-5.85395 2.10604-3.20062 2.11296-5.285878 5.37594-5.895521 9.21394-.117772.7205-.117772 3.0898 0 3.8102.86597 5.4522 4.731661 9.6851 10.052171 11.0152.6443.1593 1.2539.2563 2.1338.3464l.4295.0415v-13.3082-13.30129l-.1524.00693c-.0901.00693-.4088.03464-.7136.06928z"/><path d="m23.2684 10.7506-4.2259 4.226h5.9786 5.9787l-.0416-.4365c-.284-2.9096-1.2123-5.23737-2.9651-7.41269-.2701-.33253-.4918-.60272-.4918-.60272-.0069 0-1.9121 1.89821-4.2329 4.22591z"/><path d="m16.5835 24.6762v6.3804l.4711-.0485c3.263-.2909 6.1103-1.6072 8.3618-3.8656 2.2654-2.2724 3.5816-5.1266 3.8795-8.3757l.0416-.4642h-6.3805-6.3735z"/></g></svg>