<svg width="32" height="32" viewBox="0 0 32 32" fill="none" xmlns="http://www.w3.org/2000/svg">
<path d="M8.29644 6.13408C8.88919 5.73801 9.51158 5.3945 10.1565 5.10569C11.9856 4.28653 12.9002 3.87695 14.1169 4.66522C15.3337 5.45349 15.3337 6.74656 15.3337 9.33269V11.3327C15.3337 13.8468 15.3337 15.1039 16.1147 15.885C16.8958 16.666 18.1528 16.666 20.667 16.666H22.667C25.2531 16.666 26.5462 16.666 27.3345 17.8827C28.1227 19.0995 27.7132 20.0141 26.894 21.8432C26.6052 22.4881 26.2617 23.1105 25.8656 23.7032C24.4738 25.7863 22.4955 27.4098 20.181 28.3685C17.8665 29.3272 15.3196 29.578 12.8625 29.0893C10.4054 28.6006 8.14844 27.3942 6.37698 25.6227C4.60551 23.8512 3.39913 21.5943 2.91038 19.1372C2.42164 16.6801 2.67248 14.1332 3.63119 11.8187C4.5899 9.50417 6.21342 7.52591 8.29644 6.13408Z" fill="#151A20"/>
<path d="M28.595 9.42502C27.5126 6.67743 25.3226 4.48739 22.575 3.40498C20.5196 2.59526 18.667 4.45722 18.667 6.66636V11.9997C18.667 12.7361 19.2639 13.333 20.0003 13.333H25.3337C27.5428 13.333 29.4048 11.4804 28.595 9.42502Z" fill="#151A20"/>
</svg>
