<svg width="29" height="29" viewBox="0 0 29 29" fill="none" xmlns="http://www.w3.org/2000/svg">
<path fill-rule="evenodd" clip-rule="evenodd" d="M21.9415 0.47508C20.5245 -0.0831648 19.155 0.294739 18.1857 1.15687C17.2401 1.99781 16.667 3.29335 16.667 4.66687V10.0002C16.667 11.2889 17.7117 12.3335 19.0003 12.3335H24.3337C25.7072 12.3335 27.0027 11.7604 27.8437 10.8149C28.7058 9.84549 29.0837 8.47604 28.5254 7.05899C27.3414 4.05339 24.9471 1.65913 21.9415 0.47508ZM18.667 10.0002V4.66687C18.667 3.83124 19.0202 3.09123 19.5148 2.65133C19.9856 2.23263 20.5701 2.08442 21.2085 2.33589C23.6981 3.31666 25.6839 5.30247 26.6646 7.79205C26.9161 8.4304 26.7679 9.01495 26.3492 9.48573C25.9093 9.98035 25.1693 10.3335 24.3337 10.3335H19.0003C18.8162 10.3335 18.667 10.1843 18.667 10.0002Z" fill="#050C1B"/>
<path fill-rule="evenodd" clip-rule="evenodd" d="M13.6607 1.82679C12.8467 1.29942 12.0592 1.14759 11.1946 1.29836C10.4603 1.42639 9.67437 1.77861 8.83787 2.15348L8.74774 2.19386C8.05194 2.50547 7.38041 2.87611 6.74087 3.30344C4.4934 4.80515 2.74171 6.93959 1.70731 9.43684C0.672914 11.9341 0.402268 14.682 0.9296 17.3331C1.45693 19.9842 2.75855 22.4193 4.66987 24.3306C6.58119 26.242 9.01636 27.5436 11.6674 28.0709C14.3185 28.5982 17.0664 28.3276 19.5637 27.2932C22.0609 26.2588 24.1954 24.5071 25.6971 22.2596C26.1244 21.6201 26.495 20.9486 26.8067 20.2528L26.847 20.1626C27.2219 19.3261 27.5741 18.5402 27.7022 17.8059C27.8529 16.9413 27.7011 16.1539 27.1737 15.3399C26.6052 14.4623 25.8268 14.0335 24.8749 13.8391C24.0298 13.6666 22.9737 13.6667 21.7632 13.6668L19.667 13.6669C18.3816 13.6669 17.5182 13.6647 16.8742 13.5781C16.2589 13.4954 15.9956 13.3525 15.8218 13.1787C15.6481 13.0049 15.5051 12.7416 15.4224 12.1263C15.3358 11.4823 15.3337 10.6189 15.3337 9.33352L15.3337 7.23728C15.3338 6.02686 15.3339 4.97076 15.1614 4.12558C14.9671 3.17371 14.5382 2.39533 13.6607 1.82679ZM9.56518 4.01918C10.5241 3.58974 11.08 3.34852 11.5381 3.26863C11.8923 3.20688 12.1705 3.2444 12.5732 3.50531C12.9124 3.72504 13.0919 3.98733 13.2018 4.52559C13.3289 5.14822 13.3337 5.9981 13.3337 7.33352L13.3337 9.40284C13.3336 10.6008 13.3336 11.5998 13.4402 12.3928C13.5528 13.2299 13.8003 13.9856 14.4076 14.5929C15.0149 15.2002 15.7706 15.4478 16.6077 15.5603C17.4007 15.6669 18.3997 15.6669 19.5976 15.6669L21.667 15.6669C23.0024 15.6669 23.8523 15.6716 24.4749 15.7987C25.0132 15.9086 25.2755 16.0881 25.4952 16.4273C25.7561 16.83 25.7936 17.1082 25.7319 17.4624C25.652 17.9206 25.4108 18.4764 24.9813 19.4353C24.7153 20.0293 24.3989 20.6025 24.0341 21.1485C22.7522 23.0671 20.9301 24.5624 18.7983 25.4454C16.6665 26.3285 14.3207 26.5595 12.0576 26.1093C9.7945 25.6592 7.7157 24.548 6.08409 22.9164C4.45247 21.2848 3.34133 19.206 2.89117 16.9429C2.44101 14.6798 2.67205 12.334 3.55507 10.2022C4.43809 8.07041 5.93344 6.24832 7.85201 4.96637C8.39798 4.60157 8.97122 4.28518 9.56518 4.01918Z" fill="#050C1B"/>
</svg>
