<svg fill="none" height="31" viewBox="0 0 31 31" width="31" xmlns="http://www.w3.org/2000/svg"><path clip-rule="evenodd" d="m13.771 0c-7.74611.856286-13.771 7.42345-13.771 15.3978 0 4.0561 1.55878 7.7482 4.10998 10.5098l5.57664-6.8064c-.68355-1.0693-1.07976-2.3401-1.07976-3.7034 0-3.2084 2.19434-5.90421 5.16414-6.66857zm1.7213 30.8901c-3.2598 0-6.28449-1.0068-8.78002-2.7264l5.49852-6.7112c.9755.5298 2.0934.8308 3.2815.8308 3.2084 0 5.9042-2.1944 6.6686-5.1641h8.7292c-.8563 7.7461-7.4234 13.7709-15.3978 13.7709zm15.3978-17.2136c-.7937-7.18096-6.4955-12.882688-13.6764-13.6765v8.72923c2.4196.62276 4.3245 2.52767 4.9472 4.94727z" fill="#c4c4c4" fill-rule="evenodd"/></svg>