<svg width="32" height="32" viewBox="0 0 32 32" fill="none" xmlns="http://www.w3.org/2000/svg">
<path fill-rule="evenodd" clip-rule="evenodd" d="M13.169 5.66593C13.5813 4.49939 14.6939 3.66602 15.9986 3.66602C17.3032 3.66602 18.4158 4.49939 18.8281 5.66593C19.0122 6.18665 19.5835 6.45957 20.1042 6.27552C20.6249 6.09148 20.8979 5.52015 20.7138 4.99944C20.0279 3.0588 18.1772 1.66602 15.9986 1.66602C13.82 1.66602 11.9693 3.0588 11.2833 4.99944C11.0993 5.52015 11.3722 6.09148 11.8929 6.27552C12.4137 6.45957 12.985 6.18665 13.169 5.66593ZM3.66229 10.7873C3.59118 10.7411 3.51638 10.7051 3.43961 10.6789C3.64381 10.2554 3.9019 9.88766 4.22811 9.56145C5.79021 7.99935 8.30437 7.99935 13.3327 7.99935H18.666C23.6943 7.99935 26.2085 7.99935 27.7706 9.56145C28.0968 9.8877 28.3549 10.2555 28.5592 10.679C28.4825 10.7052 28.4078 10.7412 28.3369 10.7873C25.5363 12.6077 23.7768 13.7463 22.3148 14.4766C22.2263 14.0149 21.8202 13.666 21.3327 13.666C20.7804 13.666 20.3327 14.1137 20.3327 14.666V15.2768C17.5068 16.1295 14.4919 16.1294 11.666 15.2766V14.666C11.666 14.1137 11.2183 13.666 10.666 13.666C10.1786 13.666 9.77255 14.0148 9.68396 14.4764C8.22203 13.746 6.4626 12.6075 3.66229 10.7873ZM2.66602 18.666C2.66602 16.0654 2.66602 14.1373 2.88212 12.6656C5.9177 14.6387 7.86332 15.8971 9.66602 16.6721V17.3327C9.66602 17.885 10.1137 18.3327 10.666 18.3327C11.211 18.3327 11.6541 17.8968 11.6658 17.3546C14.5061 18.1035 17.4925 18.1035 20.3329 17.3547C20.3446 17.8968 20.7878 18.3327 21.3327 18.3327C21.885 18.3327 22.3327 17.885 22.3327 17.3327V16.6723C24.1354 15.8974 26.081 14.639 29.1166 12.6659C29.3327 14.1375 29.3327 16.0656 29.3327 18.666C29.3327 23.6943 29.3327 26.2085 27.7706 27.7706C26.2085 29.3327 23.6943 29.3327 18.666 29.3327H13.3327C8.30437 29.3327 5.79021 29.3327 4.22811 27.7706C2.66602 26.2085 2.66602 23.6943 2.66602 18.666Z" fill="#151A20"/>
</svg>
