<svg width="30" height="30" viewBox="0 0 30 30" fill="none" xmlns="http://www.w3.org/2000/svg">
<path fill-rule="evenodd" clip-rule="evenodd" d="M12.2584 6.00032H17.7422C20.1926 6.0003 22.1334 6.00029 23.6524 6.2045C25.2156 6.41468 26.4809 6.8575 27.4787 7.85532C28.4765 8.85313 28.9193 10.1184 29.1295 11.6816C29.3337 13.2006 29.3337 15.1414 29.3337 17.5918V17.7422C29.3337 20.1926 29.3337 22.1334 29.1295 23.6524C28.9193 25.2156 28.4765 26.4809 27.4787 27.4787C26.4809 28.4765 25.2156 28.9193 23.6524 29.1295C22.1334 29.3337 20.1926 29.3337 17.7422 29.3337H12.2584C9.8081 29.3337 7.86725 29.3337 6.3483 29.1295C4.78507 28.9193 3.5198 28.4765 2.52198 27.4787C1.52417 26.4809 1.08134 25.2156 0.871172 23.6524C0.666955 22.1334 0.666971 20.1926 0.666993 17.7422V17.5918C0.666971 15.1414 0.666955 13.2006 0.871172 11.6816C1.08134 10.1184 1.52417 8.85313 2.52198 7.85532C3.5198 6.8575 4.78507 6.41468 6.3483 6.2045C7.86725 6.00029 9.80809 6.0003 12.2584 6.00032ZM6.61479 8.18667C5.27334 8.36702 4.50048 8.70525 3.9362 9.26953C3.67968 9.52604 3.46988 9.82566 3.30039 10.2022C5.73647 11.7837 7.33714 12.804 8.68495 13.4774C8.77356 13.0158 9.17955 12.667 9.66699 12.667C10.2193 12.667 10.667 13.1147 10.667 13.667V14.2775C13.4929 15.1303 16.5077 15.1303 19.3337 14.2776V13.667C19.3337 13.1147 19.7814 12.667 20.3337 12.667C20.8211 12.667 21.2271 13.0158 21.3157 13.4775C22.6635 12.8041 24.2642 11.7839 26.7003 10.2023C26.5308 9.82572 26.321 9.52607 26.0645 9.26953C25.5002 8.70525 24.7273 8.36702 23.3859 8.18667C22.0156 8.00245 20.2094 8.00033 17.667 8.00033H12.3337C9.79123 8.00033 7.98501 8.00245 6.61479 8.18667ZM27.1866 12.2711C24.6705 13.9015 22.945 14.9804 21.3337 15.6731V16.3337C21.3337 16.8859 20.8859 17.3337 20.3337 17.3337C19.7887 17.3337 19.3455 16.8977 19.3339 16.3555C16.4935 17.1043 13.5071 17.1043 10.6668 16.3555C10.6552 16.8977 10.212 17.3337 9.66699 17.3337C9.11471 17.3337 8.66699 16.8859 8.66699 16.3337V15.673C7.05565 14.9803 5.33014 13.9014 2.81411 12.271C2.6688 13.5996 2.66699 15.3194 2.66699 17.667C2.66699 20.2094 2.66912 22.0156 2.85334 23.3859C3.03369 24.7273 3.37192 25.5002 3.9362 26.0645C4.50048 26.6287 5.27334 26.967 6.61479 27.1473C7.98501 27.3315 9.79123 27.3337 12.3337 27.3337H17.667C20.2094 27.3337 22.0156 27.3315 23.3859 27.1473C24.7273 26.967 25.5002 26.6287 26.0645 26.0645C26.6287 25.5002 26.967 24.7273 27.1473 23.3859C27.3315 22.0156 27.3337 20.2094 27.3337 17.667C27.3337 15.3195 27.3318 13.5997 27.1866 12.2711Z" fill="#050C1B"/>
<path fill-rule="evenodd" clip-rule="evenodd" d="M15.0003 2.66699C13.6956 2.66699 12.583 3.50036 12.1707 4.6669C11.9867 5.18762 11.4153 5.46055 10.8946 5.2765C10.3739 5.09245 10.101 4.52113 10.285 4.00041C10.9709 2.05977 12.8217 0.666992 15.0003 0.666992C17.1789 0.666992 19.0296 2.05977 19.7155 4.00041C19.8995 4.52113 19.6266 5.09245 19.1059 5.2765C18.5852 5.46055 18.0139 5.18762 17.8298 4.66691C17.4175 3.50036 16.3049 2.66699 15.0003 2.66699Z" fill="#050C1B"/>
</svg>
