<svg fill="none" height="17" viewBox="0 0 16 17" width="16" xmlns="http://www.w3.org/2000/svg"><path clip-rule="evenodd" d="m7.8094.899083c-.05351.029615-.16295.134257-.24317.232457-.26796.3281-.78443.7043-1.36291.99269-1.21804.60723-2.81017.98573-4.43873 1.05521-.47479.02029-.58556.03399-.66812.08278-.20192.11927-.192345-.03309-.192345 3.05639 0 1.72276.012375 2.92395.032139 3.12002.267336 2.65077 2.064126 4.95817 4.970406 6.38287.74903.3672 1.86939.7856 2.1036.7856.04941 0 .298-.0692.55243-.1537 2.3236-.7716 4.271-2.1813 5.4017-3.9099.5893-.9009.9815-2.0015 1.0991-3.08501.0204-.18751.0325-1.35648.0325-3.13643 0-2.772-.0014-2.83975-.0608-2.93586-.0957-.15479-.1808-.17739-.7704-.20439-2.54-.1163-4.89396-.94691-5.83687-2.05954-.07894-.09312-.17979-.19348-.22412-.222972-.10331-.068773-.27038-.068866-.39441-.000215zm.11021 1.012977c-.11609.12523-.54265.44918-.81583.61961-1.24134.77433-3.136 1.31122-5.0837 1.44058l-.31555.02096v2.59046c0 1.61867.0121 2.68832.03223 2.85133.08158.6598.27119 1.3281.54022 1.9037.88337 1.8904 2.82947 3.4697 5.33481 4.3295l.38139.1309.2497-.0763c.6278-.1917 1.65309-.6545 2.26612-1.023 1.9268-1.1582 3.1836-2.7246 3.6196-4.5114.1603-.65695.167-.80072.167-3.5994v-2.59579l-.3156-.02118c-1.7447-.11707-3.4315-.5528-4.66818-1.2059-.39318-.20765-.87977-.53606-1.13054-.76301l-.18819-.17033zm-.18123 3.67455c-.34403.05981-.7337.2819-.95021.54154-.13887.16654-.30095.5158-.34042.73348-.01823.10045-.03313.38099-.03313.62339v.44072h-.23242c-.2557 0-.36973.04168-.47292.17286-.06342.08065-.06428.1043-.06428 1.78768 0 1.46462.00662 1.71872.0467 1.79622.09799.1895.02491.1837 2.30835.1837 2.29555 0 2.20655.0074 2.31605-.1929.0501-.0917.0544-.2315.0544-1.77868 0-1.56662-.0037-1.68483-.0556-1.76392-.0996-.15201-.2259-.20472-.49085-.20484l-.23858-.00012-.00052-.45408c-.00034-.27497-.01798-.53627-.0447-.66249-.1716-.80971-.98844-1.36396-1.80187-1.22256zm.07696.79613c-.2166.05686-.41292.21869-.52735.43474-.04722.08915-.05889.1941-.06766.608l-.01059.50026h.79031.79031l-.01059-.50026c-.01161-.54815-.02956-.61452-.22135-.81851-.18341-.19508-.49548-.28925-.74308-.22423zm-1.39339 3.52093.00807 1.17753h1.57003 1.57003l.00806-1.17753.00807-1.17752h-1.58616-1.58616z" fill="#0c97f0" fill-rule="evenodd"/></svg>