<svg fill="none" height="24" viewBox="0 0 27 24" width="27" xmlns="http://www.w3.org/2000/svg"><g fill="#fff"><path d="m7.62298.0289707c-.38616.0594101-1.13373.2326873-1.2971.2970463-.30695.123768-.38616.401011-.17328.599041.14358.133672.23764.133672.71786.014853.61885-.158424 1.01986-.207932 1.72782-.207932.78717 0 1.42582.099017 2.12392.326751.495.16338 1.1386.46042 1.5248.70796.6733.43071 1.505 1.19808 1.8664 1.72287l.1436.21288-.1832.0297c-.1039.01485-.3614.06436-.5792.10397l-.3862.07426-.4802-.46042c-.703-.68321-1.3516-1.08422-2.2229-1.37631-1.44066-.48023-2.9556-.37626-4.34676.29704-1.24264.604-2.30706 1.73277-2.82194 2.98531-.39606.98025-.46537 1.53969-.46537 3.82199 0 1.86152-.0099 1.92582-.28714 2.21792-.16833.1783-.37131.2822-.89114.4555-.22774.0743-.45547.1782-.50993.2376-.198031.2179-.03961.5793.25744.5793.23269 0 1.15848-.3416 1.41097-.5199.12377-.0891.3119-.2772.42081-.4208.32675-.4356.34161-.5347.34161-2.52486 0-.9654.02475-1.9506.0495-2.17834.14853-1.20303.67826-2.2724 1.52484-3.07938.6733-.64359 1.3367-1.01985 2.22784-1.26739.43072-.11882.56439-.13367 1.27235-.13367.6733 0 .85648.0198 1.21294.11387.55948.15347 1.10898.39606 1.53968.6832.3664.24259.9555.75747.9159.80202-.0149.00991-.2475.11883-.5149.23269-.6089.26239-1.1931.59904-1.6981.97035l-.38616.28715-.23763-.10397c-.3317-.14852-1.02976-.18318-1.43077-.06436-1.00501.2921-1.60405 1.14858-1.60405 2.30706 0 .50992.09406.68815.36636.68815.28714 0 .3614-.14357.38615-.74261.01486-.41092.03961-.56934.12872-.74757.25249-.51983.74757-.83668 1.30701-.83668.52478 0 .52478.0099.15842.41092-.63865.70796-1.2872 1.74762-1.609 2.58925l-.11386.30199-.19804-.0198c-.39111-.04456-.49507.26734-.27229.85648.12872.3466.12872.3466.04456 1.01-.07426.6139-.03961 1.9605.06436 2.5248.03961.203.06436.3763.05941.3862-.02971.0347-.57924-.2525-.95055-.4951-.46537-.302-.68815-.3861-1.03966-.3861-.15347 0-.84163.1287-1.57929.297-.71786.1634-1.31691.2971-1.32681.2971-.01485 0-.06931.0495-.12872.1089-.10891.1188-.12872.2871-.04455.4406.11386.2129.22773.2079 1.58424-.104.71291-.1633 1.38621-.297 1.50503-.297.16833 0 .28715.0495.59905.2574.39606.2575 1.01985.5694 1.38126.6882.25249.0841.28714.1188.39606.4158.04951.1337.15347.3763.23269.5397.07921.1584.13367.297.12376.3119-.06931.0643-1.14857-.2575-1.71296-.5149-.21288-.0941-.44557-.1634-.55449-.1634-.18317 0-1.40106.2921-1.69316.406-.23268.0891-.30694.3564-.15347.5743.10892.1534.3119.1435 1.10402-.0693.36636-.0991.71291-.1634.76737-.1535.05941.0148.31685.1139.57924.2228.55448.2327 1.3169.4356 1.81693.4851l.35645.0347.17823.2525c.10397.1386.29705.3862.43567.5446l.25249.2921-.66836-.0297c-.80202-.0347-1.33175-.1238-2.10902-.3565-.6535-.198-.80203-.1881-.91094.0743-.09902.2426.01485.401.39606.5347.9654.3515 2.00011.5099 3.19324.5l.84163-.005.43567.3268c.2376.1782.505.3614.5891.4059.208.109.1387.1436-.5297.2426-1.10401.1733-2.73776.099-3.85664-.1683-.40596-.099-.48517-.0941-.6337.0347-.11881.1039-.11881.4158.00496.5247.09901.0892.94064.2822 1.68821.3813.6634.0891 2.17338.0742 2.84667-.0248.7278-.1139 1.3664-.2624 1.4605-.3515.0693-.0644.1238-.0545.4505.0743 1.8714.7277 3.9012.7772 5.837.1435.5891-.1931 1.4406-.599 1.9357-.9258l.3812-.2475.2872.2921c.2376.2376.3168.2921.4505.2921.2129 0 .3614-.1485.3614-.3565 0-.1287-.0545-.2178-.2575-.4208l-.2574-.2624.4703-.4703.4704-.4703 1.911 1.9209c1.6684 1.6733 1.9159 1.9407 1.9456 2.0991.0198.104.0198.2426.005.3119-.0496.1931-.2822.4208-.4803.4654-.3564.0792-.4752-.005-1.7278-1.2526-1.2674-1.2674-1.3119-1.2971-1.5595-1.0446-.2525.2476-.2277.2872 1.0793 1.5942 1.3664 1.3763 1.4753 1.4505 2.0348 1.4505.4505 0 .7723-.1435 1.0594-.4703.3713-.4208.4555-1.0248.2079-1.5149-.0742-.1485-.7475-.8565-2.0644-2.1784l-1.9605-1.9654.2079-.3119c.2574-.3911.802-1.4951.9407-1.9061.3564-1.0792.4703-1.8862.4356-3.0892-.0297-1.0397-.1188-1.5447-.4307-2.48036-.7426-2.2328-2.51-4.1834-4.6488-5.12404-.9753-.42577-1.9506-.6634-3.0496-.73767l-.4951-.03465-.2723-.40596c-.3268-.49013-1.3268-1.50504-1.8318-1.85654-.9753-.683206-2.0645-1.123822-3.24274-1.3169032-.41091-.06931113-1.81693-.0940647-2.15358-.0396061zm8.30742 4.4210293c1.8961.20298 3.614 1.04461 4.9309 2.43083 1.0149 1.06441 1.6932 2.35161 2.015 3.81707.1485.6782.1832 2.0595.0693 2.7823-.2772 1.7724-1.0793 3.2923-2.4011 4.5497-2.4209 2.3022-6.0251 2.8121-9.0104 1.2674-1.79219-.9257-3.22791-2.5942-3.86161-4.4853-.30695-.9308-.36636-1.317-.36636-2.515 0-1.1981.05941-1.5843.36636-2.51502.6733-2.00011 2.18328-3.69822 4.10911-4.60916 1.307-.61885 2.7477-.87134 4.1488-.72282z"/><path d="m14.2323 5.4157c-1.8467.25249-3.525 1.24264-4.65872 2.74767-.39111.51488-.91589 1.55454-1.08421 2.15363-.36636 1.2872-.36636 2.6783 0 3.9606.16832.5842.62874 1.5248 1.0149 2.0694.37131.5149 1.22283 1.3515 1.71293 1.6783 2.8368 1.8912 6.4657 1.5545 8.8421-.8218 1.0694-1.0644 1.8516-2.6388 1.9556-3.9161.0247-.3119.0148-.3564-.0793-.4406-.1336-.1238-.3812-.1238-.5 0-.0643.0594-.1238.2426-.1733.5198-.2227 1.2773-.797 2.3665-1.7525 3.317-.5545.5545-.9654.8516-1.6189 1.1783-2.1932 1.0892-4.8617.7624-6.743-.8268-.1435-.1188-.2525-.2326-.2376-.2425.0148-.0149.2772-.1288.5842-.2476l.5594-.2277.604.1138.609.1189.1237-.1189c.1535-.1435.1684-.3911.0248-.5198-.1188-.1039-1.01-.3168-1.3565-.3218-.1733 0-.3515.0495-.6436.1832-.2179.099-.5644.2327-.7575.2921l-.3614.1089-.1634-.2277c-.23762-.3218-.4307-.6436-.4307-.703 0-.0248.04456-.0495.09407-.0495.15842 0 .89113-.2476 1.26743-.4209.193-.094.5346-.2921.7673-.4406.3218-.2079.4654-.2772.609-.2772.1039 0 .7178.1337 1.3713.297 1.2773.3218 1.3615.3268 1.4803.0644.0792-.1733.0693-.2426-.0544-.3812-.0941-.104-.302-.1733-1.312-.4258-1.2377-.3069-1.6535-.3564-1.9308-.2376-.0743.0346-.302.1683-.505.3069-.203.1337-.5545.3268-.7772.4357-.4555.2129-1.19317.4208-1.31694.3762-.06931-.0297-.20793-.4158-.30695-.8416-.02475-.1188-.01485-.1386.10397-.1634 1.01492-.2079 1.76242-.6138 2.37142-1.2822.4555-.4951.7327-1.0149.9406-1.7427.109-.3762.1585-2.82686.0693-3.39125-.0495-.32675-.0445-.3713.0298-.42576.1089-.07921.8614-.3317.8911-.29705.0495.04951.1634.81193.1683 1.10897 0 .24754.0198.33171.1139.43072.1584.17823.3663.19308.5297.02971.1287-.12872.1337-.55944.0198-1.2476-.0445-.26734-.0693-.50002-.0594-.51488.0149-.0099.2575-.0297.5396-.03465l.51-.0099.0643.34655c.0347.19308.0792.98025.0941 1.79713l.0347 1.45057.1237.09407c.1634.12872.2723.12376.4406-.01981l.1387-.11882-.005-1.35651c-.0049-.77231-.0297-1.50998-.0643-1.71791-.0298-.19803-.0446-.37626-.0347-.39111.0396-.03961.5941.08416 1.01.22278.2128.06931.599.23764.8713.37626 1.7229.88124 2.9407 2.53479 3.2724 4.45069.0941.5298.1634.6337.4209.6337.3861 0 .4406-.3168.2029-1.2426-.8713-3.46058-4.1586-5.70328-7.6538-5.2181zm-2.3616 3.34177-.0198 1.36143-.1485.4258c-.4109 1.1535-1.3862 1.9902-2.55458 2.1932l-.18813.0346v-.5346-.5347l.28714-.0842c.65846-.1931 1.24267-.7624 1.45057-1.4159.0891-.27725.1089-.49509.1287-1.34662.0297-1.16343-.0148-1.04461.5842-1.49513l.3911-.29705.0446.16338c.0247.09406.0346.78222.0247 1.52979zm-1.7872.54458c-.0396.77725-.21287 1.12385-.7228 1.46045-.11387.0743-.21783.1238-.23268.1089-.04951-.0495.3317-1.09408.53468-1.47034.21783-.40596.3763-.64359.4208-.64359.0149 0 .0149.24753 0 .54458z"/><path d="m13.7671 9.08518c-.0941.12377-.104.19803-.104.93072 0 .911.0643 1.2526.302 1.6239.2772.4307.5842.6386 1.3268.8862.4901.1683.698.1782.8119.0544.1089-.1237.1089-.4208 0-.5198-.0495-.0396-.3218-.1535-.599-.2525-.6139-.2129-.7575-.3069-.9357-.6139-.1337-.2277-.1386-.2574-.1634-1.1634-.0248-.85155-.0347-.94067-.1188-1.00503-.1634-.11386-.406-.08911-.5198.05941z"/><path d="m4.53377 1.15739c-1.41097.85153-2.64866 2.44568-3.17344 4.08438-.28715.91589-.3317 1.24264-.35646 2.86154-.029701 1.63376-.019799 1.69316.25744 1.76248.16338.0396.41092-.08912.44062-.23269.01485-.05941.03466-.75747.04951-1.54464.01485-1.21789.03465-1.50503.11882-1.89119.41091-1.82683 1.44067-3.33682 2.94075-4.33192.40596-.26734.50498-.41586.42577-.62875-.10397-.292091-.3119-.316846-.70301-.07921z"/><path d="m7.98933 3.61328c-.61884.09407-1.44562.45547-1.79713.78222-.18813.17823-.20298.38616-.0396.53964.15347.14852.30199.13862.57429-.03466.90104-.57924 1.85158-.72776 2.81203-.44557.41587.12377.57928.09902.68318-.09901.099-.20298.0198-.41587-.1931-.51983-.43562-.20793-1.44063-.31685-2.03967-.22279z"/><path d="m5.13792 5.62249c-.11882.13367-.26239.44557-.39111.83173-.10892.32675-.11387.43567-.13367 1.89614-.01486 1.30206-.00495 1.6189.06436 1.95554.09901.5.31685 1.0298.55943 1.3763.22279.3218.36141.401.55944.3317.28219-.099.3119-.3416.09901-.6782-.20298-.3169-.3812-.7179-.47527-1.0694-.05941-.2327-.07426-.58913-.07426-1.708 0-1.51989.0297-1.75753.27229-2.30211.14852-.3416.15348-.49012.02476-.61885-.12377-.12376-.40102-.13367-.50498-.01485z"/></g></svg>