<svg width="24" height="24" viewBox="0 0 24 24" fill="none" xmlns="http://www.w3.org/2000/svg">
<path d="M9.5 19.7498C9.69891 19.7498 9.88968 19.6708 10.0303 19.5302C10.171 19.3895 10.25 19.1988 10.25 18.9998C10.25 18.8009 10.171 18.6102 10.0303 18.4695C9.88968 18.3289 9.69891 18.2498 9.5 18.2498V19.7498ZM11 4.99985V5.74985C11.1482 5.74972 11.2931 5.70566 11.4163 5.62324C11.5395 5.54082 11.6356 5.42373 11.6923 5.28677C11.749 5.14981 11.7638 4.99911 11.735 4.85371C11.7061 4.70831 11.6348 4.57473 11.53 4.46985L11 4.99985ZM9.53 2.46985C9.38783 2.33737 9.19978 2.26524 9.00548 2.26867C8.81118 2.2721 8.62579 2.35081 8.48838 2.48822C8.35097 2.62564 8.27225 2.81102 8.26882 3.00532C8.2654 3.19963 8.33752 3.38767 8.47 3.52985L9.53 2.46985ZM9.5 18.2498H9V19.7498H9.5V18.2498ZM9 5.74985H11V4.24985H9V5.74985ZM11.53 4.46985L9.53 2.46985L8.47 3.52985L10.47 5.52985L11.53 4.46985ZM1.25 11.9998C1.25 14.0553 2.06652 16.0265 3.51992 17.4799C4.97333 18.9333 6.94457 19.7498 9 19.7498V18.2498C7.3424 18.2498 5.75269 17.5914 4.58058 16.4193C3.40848 15.2472 2.75 13.6574 2.75 11.9998H1.25ZM2.75 11.9998C2.75 10.3422 3.40848 8.75253 4.58058 7.58043C5.75269 6.40833 7.3424 5.74985 9 5.74985V4.24985C6.94457 4.24985 4.97333 5.06636 3.51992 6.51977C2.06652 7.97318 1.25 9.94442 1.25 11.9998H2.75Z" fill="#EBF0FE"/>
<path opacity="0.5" d="M12.9998 19V18.25C12.8516 18.2501 12.7067 18.2942 12.5835 18.3766C12.4603 18.459 12.3643 18.5761 12.3075 18.7131C12.2508 18.85 12.236 19.0007 12.2649 19.1461C12.2937 19.2915 12.3651 19.4251 12.4698 19.53L12.9998 19ZM14.4698 21.53C14.5385 21.6037 14.6213 21.6628 14.7133 21.7038C14.8053 21.7448 14.9046 21.7668 15.0053 21.7686C15.106 21.7704 15.206 21.7518 15.2994 21.7141C15.3928 21.6764 15.4776 21.6203 15.5489 21.549C15.6201 21.4778 15.6762 21.393 15.714 21.2996C15.7517 21.2062 15.7702 21.1062 15.7684 21.0055C15.7666 20.9048 15.7446 20.8055 15.7036 20.7135C15.6626 20.6215 15.6035 20.5387 15.5298 20.47L14.4698 21.53ZM14.4998 4.25C14.3009 4.25 14.1102 4.32902 13.9695 4.46967C13.8288 4.61032 13.7498 4.80109 13.7498 5C13.7498 5.19891 13.8288 5.38968 13.9695 5.53033C14.1102 5.67098 14.3009 5.75 14.4998 5.75V4.25ZM14.9998 18.25H12.9998V19.75H14.9998V18.25ZM12.4698 19.53L14.4698 21.53L15.5298 20.47L13.5298 18.47L12.4698 19.53ZM14.4998 5.75H14.9998V4.25H14.4998V5.75ZM21.2498 12C21.2498 13.6576 20.5913 15.2473 19.4192 16.4194C18.2471 17.5915 16.6574 18.25 14.9998 18.25V19.75C17.0553 19.75 19.0265 18.9335 20.4799 17.4801C21.9333 16.0267 22.7498 14.0554 22.7498 12H21.2498ZM22.7498 12C22.7498 9.94457 21.9333 7.97333 20.4799 6.51992C19.0265 5.06652 17.0553 4.25 14.9998 4.25V5.75C16.6574 5.75 18.2471 6.40848 19.4192 7.58058C20.5913 8.75269 21.2498 10.3424 21.2498 12H22.7498Z" fill="#EBF0FE"/>
</svg>
