<svg fill="none" height="18" viewBox="0 0 14 18" width="14" xmlns="http://www.w3.org/2000/svg"><path clip-rule="evenodd" d="m1.35627.0586358c-.460636.1231732-.921688.5209202-1.141698.9849242-.2300643.48521-.21434479-.097579-.21434479 7.95835 0 8.05589-.01571951 7.47309.21434479 7.95839.223669.4717.682462.8632 1.156278.9865.17724.0462.90498.053 5.62901.053 6.02244 0 5.62244.0157 6.05864-.2369.2924-.1693.5733-.4796.7265-.8026.2288-.4821.2145-.0284.215-6.8019.0003-4.28619-.0098-6.13492-.034-6.21155-.0438-.13871-3.4366-3.826592-3.5842-3.8958422-.1549-.0727299-8.75222-.0654534-9.02553.007628zm.15895 1.0562542c-.10457.03547-.20426.10728-.30787.2217-.276109.30502-.253452-.379746-.253452 7.66532 0 8.04409-.022561 7.36039.253042 7.66489.27391.3026-.20366.2795 5.79292.2795 5.99654 0 5.51904.0231 5.79294-.2795.2737-.3024.253.2086.253-6.2652v-5.72341h-1.1548c-.9379 0-1.1903-.01019-1.3444-.05427-.3311-.09474-.56704-.31683-.72668-.68392l-.09938-.22849-.01002-1.327-.01003-1.32699-4.01531.00246c-3.46574.00211-4.03647.00963-4.16996.05491zm9.17588 1.57179c0 .81841.0032.86608.0615.90057.0376.02221.3623.03638.8336.03638h.772l-.1096-.1262c-.0603-.06942-.4355-.47466-.8336-.90056l-.7239-.77433zm-7.31818 5.74408c-.34064.18905-.34064.74234 0 .93139.10338.0574.34051.06148 3.57921.06148 3.23937 0 3.47567-.00408 3.57757-.06148.1741-.09804.2409-.22722.2409-.4657 0-.23847-.0668-.36765-.2409-.46569-.1019-.05741-.3382-.06148-3.57757-.06148-3.2387 0-3.47583.00407-3.57921.06148zm0 2.10914c-.34064.189-.34064.7423 0 .9314.10297.0571.31082.0615 2.95921.0615 2.71155.0001 2.85372-.0031 2.95829-.065.17676-.1047.23919-.2254.23919-.4622 0-.2385-.06682-.3677-.24091-.4657-.10148-.0572-.3085-.0615-2.95708-.0615-2.64794 0-2.85573.0043-2.9587.0615zm0 2.1091c-.34064.1891-.34064.7424 0 .9314.10323.0573.32686.0615 3.29333.0615 3.03806.0001 3.18759-.0029 3.29345-.0651.1347-.0792.253-.2952.253-.4621s-.1183-.3829-.253-.4621c-.10586-.0622-.25539-.0652-3.29345-.0651-2.96647 0-3.1901.0042-3.29333.0615z" fill="#0c97f0" fill-rule="evenodd"/></svg>