<svg fill="none" height="23" viewBox="0 0 22 23" width="22" xmlns="http://www.w3.org/2000/svg"><clipPath id="a"><path d="m.805298.957031h21.1565v21.1565h-21.1565z"/></clipPath><g clip-path="url(#a)" fill="#fff"><path d="m1.65238 1.0323c-.40908.14049-.71899.48346-.805765.88841-.033057.15289-.041321 2.89662-.033057 9.73939l.012397 9.5246.086774.1901c.115701.2479.384291.5165.632211.6322l.19008.0868h7.83038 7.8304l.1901-.0868c.2479-.1157.5165-.3843.6322-.6322.0826-.1819.0867-.248.0991-1.905.0083-1.8925.0124-1.8677-.2479-1.9958-.1322-.0661-.1653-.0661-.2892-.0165-.2686.1116-.2604.0413-.281 1.8967l-.0207 1.6941-.1363.1199-.1323.1198-7.66506-.0083-7.66509-.0124-.11157-.1157-.1157-.1115v-9.5039-9.50392l.1157-.11157.11157-.1157 7.66509-.0124 7.66506-.00826.1323.11983.1363.11983.0207 2.42143.0206 2.42142.1116.10744c.1529.15289.4091.15289.562 0l.1115-.10744v-2.49167c0-2.45861 0-2.49167-.0867-2.67762-.1157-.24792-.3843-.51651-.6322-.63221l-.1901-.086776-7.76842-.008264c-7.28493-.008265-7.78079-.004133-7.975.06198z"/><path d="m8.88775 3.25216c-1.49583.30991-2.60324 1.34707-3.00819 2.81811-.1281.45867-.1281 1.376.00413 1.85119.37189 1.38013 1.44211 2.42974 2.83877 2.77684.39255.095 1.29334.095 1.68594 0 1.157-.2893 2.0743-1.03308 2.5867-2.09917.2727-.57023.3471-.90907.3471-1.6074 0-.48759-.0207-.66114-.0909-.92146-.3802-1.376-1.405-2.40077-2.7644-2.76026-.4215-.11157-1.20247-.14049-1.59915-.05785zm1.56605.90493c.467.14876.8141.36363 1.1983.74792.3885.38842.5992.73139.7521 1.21898.0992.30164.1116.42147.1116.84708-.0042.5661-.0703.87601-.2893 1.32228-.2479.49999-.2149.49173-.5661.11984-.2562-.26859-.6735-.58263-.8719-.64875-.0206-.00826.0248-.14049.1033-.29751.1199-.2438.1405-.33057.1529-.66114.0207-.4628-.0537-.77271-.2644-1.08262-.281-.41321-.6984-.63221-1.21488-.63221-.9256 0-1.52889.71072-1.47931 1.73962.0124.30165.03719.40082.15702.64048.07438.15289.11984.28512.09918.29338-.19835.06612-.61569.38016-.87188.64875-.35123.37189-.31818.38015-.5661-.11984-.22314-.45866-.28925-.75204-.28512-1.34294 0-.46693.00826-.54957.12396-.87601.17355-.50412.35123-.7851.73552-1.16939s.73552-.60329 1.19832-.74378c.44214-.13223.50825-.1405 1.01237-.12397.31402.0124.52482.04546.76442.11983zm-.5041 1.86359c.1736.1281.2769.38016.2769.67354 0 .32644-.0744.50412-.27276.65288-.1281.09917-.19421.11983-.38842.11983-.41735 0-.66115-.28099-.66115-.76031 0-.37189.1405-.64048.39256-.75205.14049-.06198.52891-.02066.65287.06611zm.0909 2.35532c.5.12809.9959.46693 1.2231.83469l.0909.14875-.0991.07438c-.1695.1281-.6612.35536-.9463.43387-.1859.05372-.41321.07438-.74378.07438s-.55784-.02066-.74379-.07438c-.28511-.07851-.77684-.30577-.94625-.43387l-.09918-.07438.09091-.14875c.04959-.08265.19008-.23967.31404-.35537.50412-.45866 1.21898-.64461 1.85945-.47932z"/><path d="m19.7966 6.16927c-.2769.06611-.6446.29338-.8389.50825-.2272.26446-5.413 9.23118-5.4709 9.46668-.0496.2108-.3678 3.0537-.3678 3.3016 0 .2438.124.3926.3513.4256.1818.0207.1983.0083 2.4793-1.6818l.5413-.3966 2.6073-4.5247c1.4339-2.4876 2.6446-4.59496 2.6901-4.69.4173-.83469.0247-1.88838-.8595-2.30573-.2232-.1033-.3265-.12396-.6199-.13636-.1942-.00413-.4214.00827-.5123.03306zm.7727.84296c.2272.09503.3843.24792.4834.48345.1405.33057.1033.55371-.1859 1.06609-.1322.22727-.2521.41322-.2727.41322-.0248 0-.3843-.19835-.8017-.43801l-.7644-.438.0785-.13223c.0413-.07025.1281-.22314.1942-.33471.186-.33057.3347-.49998.5248-.59502.2066-.10331.533-.1157.7438-.02479zm-1.1074 2.2892c.4132.23966.6983.42974.69.46279-.0124.05372-4.0371 7.04528-4.1073 7.13208-.0289.033-.2479-.0744-.8016-.3926-.4174-.2438-.7603-.4628-.7603-.4834 0-.0248.5123-.9339 1.1446-2.0248 3.1156-5.40067 2.9875-5.18993 3.0619-5.14448.0371.02066.3884.22314.7727.45041zm-4.0743 8.26427c0 .0289-1.3264 1-1.343.9834-.0124-.0124.1447-1.4462.1736-1.5867.0165-.0826.0537-.0703.595.2438.3182.1859.5785.3471.5744.3595z"/><path d="m3.98707 12.1693c-.15702.0744-.26033.3182-.20661.467.06612.1735.16116.2603.30991.2892.45867.0868.65701-.5496.23967-.7644-.1157-.0579-.21488-.0579-.34297.0082z"/><path d="m5.7845 12.1522c-.26445.1115-.3347.4545-.13223.6528l.11157.1157 3.07843.0124 3.07433.0083.1363-.1198c.1116-.0992.1364-.1488.1364-.2934s-.0248-.1942-.1364-.2934l-.1322-.1198-3.02884.0041c-1.66112 0-3.0619.0165-3.10736.0331z"/><path d="m3.98707 14.4838c-.15702.0744-.26033.3182-.20661.4669.06612.1736.16116.2603.30991.2893.45867.0867.65701-.5496.23967-.7645-.1157-.0578-.21488-.0578-.34297.0083z"/><path d="m5.7845 14.4666c-.26445.1116-.3347.4546-.13223.6529l.11157.1157 3.07843.0124 3.07433.0083.1363-.1199c.1116-.0991.1364-.1487.1364-.2934 0-.1446-.0248-.1942-.1364-.2933l-.1322-.1199-3.02884.0042c-1.66112 0-3.0619.0165-3.10736.033z"/><path d="m3.98707 16.7963c-.15702.0744-.26033.3182-.20661.4669.06612.1736.16116.2603.30991.2893.45867.0867.65701-.5496.23967-.7645-.1157-.0578-.21488-.0578-.34297.0083z"/><path d="m5.7845 16.7791c-.26445.1116-.3347.4546-.13223.6529l.11157.1157 3.07843.0124 3.07433.0083.1363-.1199c.1116-.0991.1364-.1487.1364-.2934 0-.1446-.0248-.1942-.1364-.2933l-.1322-.1199-3.02884.0042c-1.66112 0-3.0619.0165-3.10736.033z"/><path d="m9.41668 19.0975c-.13223.0537-.26446.2438-.26446.376 0 .0744.04546.1694.11983.2521l.11984.1363 1.26441.0124 1.2603.0124.1364-.1239c.1115-.0992.1363-.1488.1363-.2934 0-.1447-.0248-.1942-.1363-.2934l-.1323-.1198-1.2107.0041c-.6611 0-1.24787.0165-1.29332.0372z"/></g></svg>