<svg fill="none" height="22" viewBox="0 0 19 22" width="19" xmlns="http://www.w3.org/2000/svg"><g fill="#fff"><path d="m.999266.0725269c-.313843.1074811-.546002.2751501-.717971.5116081-.3095437.421325-.28804752-.326742-.27514985 9.402405l.01289765 8.77046.1031812.1934c.159071.301.262253.4213.494411.5804.434225.2967.184866.2838 5.816845.2666 4.96562-.0129 5.07312-.0129 5.45142-.1032.5159-.1204 1.0275-.3139 1.4746-.5546l.3655-.1978 1.4445 1.4446c1.0748 1.0705 1.4961 1.4617 1.638 1.5262.4084.1849.9415.0688 1.2425-.2752.1978-.2278.2708-.4256.2708-.7351-.0043-.4515-.0687-.5374-1.6337-2.0981l-1.4144-1.4101.2278-.4385c.2451-.4643.4429-1.0189.5375-1.509.0515-.2494.0601-1.5091.0601-7.33023v-7.02923l-.1117-.240754c-.1462-.309544-.4128-.576096-.7223-.722269l-.2408-.1117803-6.90022-.0085983c-6.54342-.00859832-6.91315-.00859832-7.123814.0687885zm13.929534.7093711c.1676.068787.3525.262252.4127.425622.0344.08169.0473 1.75838.0473 5.34824v5.22354l-.1591-.2407c-.7911-1.1694-1.9862-1.97339-3.3663-2.26573-.5761-.12038-1.4746-.12898-2.03353-.0215-1.39725.27085-2.66982 1.11353-3.44798 2.28293-1.59931 2.4032-.96732 5.6964 1.40585 7.3172l.30095.2064-3.28031.0129c-1.80568.0086-3.36629 0-3.46948-.0129-.12037-.0172-.23645-.0731-.33533-.1591-.300951-.2622-.275155.5159-.275155-9.00685v-8.63284l.098882-.16767c.060189-.107479.16767-.20636.283753-.270849l.18916-.098881h6.74548c5.63201 0 6.76701.008599 6.88311.060188zm-3.1987 9.213242c1.6982.33966 3.0568 1.63796 3.5168 3.35766.1032.3698.1161.4987.1161 1.1264s-.0129.7567-.1161 1.1264c-.4299 1.6036-1.6165 2.8246-3.1857 3.276-1.0748.3139-2.20553.2193-3.22875-.2708-2.84608-1.3586-3.49527-5.1591-1.25537-7.3732 1.1049-1.092 2.63542-1.54771 4.15302-1.24246zm4.4884 9.37656c1.2339 1.2382 1.3629 1.3801 1.3629 1.5091 0 .0774-.0172.1719-.043.2149-.0516.1032-.2752.1935-.3955.1591-.0559-.0129-.7137-.6406-1.4704-1.3929l-1.3671-1.3758.2278-.2322c.129-.1289.2537-.2407.2752-.2407.0258-.0043.6578.6062 1.4101 1.3585z"/><path d="m3.93992 1.49885c-.82545.15907-1.53482.87274-1.71109 1.71539-.10748.50731.0258 1.19519.30525 1.61651l.12038.18057-.24506.26225c-.46431.50301-.79536 1.16509-.91143 1.83577-.06449.36113-.0258 1.16079.06448 1.50043.0387.14187.11608.30094.16767.35253.10319.10319.73087.31385 1.24678.41703 1.03611.21496 2.13241.18487 3.16853-.08169.46001-.12037.79105-.24075.88564-.33104.15047-.13327.23645-.5159.26225-1.13069.0172-.46862.0086-.61909-.06879-.93293-.15047-.62769-.42562-1.1479-.88564-1.65951-.20636-.23215-.20636-.23215-.13327-.34393.58039-.89424.46431-2.06793-.27945-2.8031-.52881-.5202-1.25108-.73516-1.98625-.59759zm.97163.79536c.28375.09458.67928.46861.80825.75666.08169.18487.10319.30095.10319.61479 0 .33964-.0172.41702-.12038.63199-.15048.30954-.47292.60189-.79536.72227-.19346.07308-.31814.09028-.58899.07738-.5589-.02149-.95873-.27515-1.22528-.77386-.13758-.24935-.15047-.30094-.15047-.65778 0-.46432.08168-.67928.38693-1.00602.40842-.43422.98882-.5718 1.58211-.36543zm-1.35856 3.39209c.61909.25365 1.17799.21926 1.97765-.13758.07308-.03009.47291.39553.65348.69217.07739.13328.19347.37404.25365.53311.10319.25795.11178.34824.11608.88994 0 .39123-.01719.63198-.05159.69217-.03439.06019-.15907.12038-.37833.18487-.58469.17627-.99742.23216-1.71969.23216-.73947.0043-1.21668-.06019-1.78848-.24076-.31814-.09888-.31814-.09888-.36973-.28805-.06879-.27085-.06449-.82545.0086-1.17798.09028-.43423.37403-.97163.67068-1.28117.14617-.15907.27085-.25366.30524-.23646.0301.0129.17627.07739.32244.13758z"/><path d="m8.26061 2.22619c-.11608.04729-.23646.30524-.19347.41702.0129.04299.06449.12038.11178.17197.08598.09458.11178.09888.97592.09888.86416 0 .88996-.0043.97596-.09888.0473-.05159.0989-.12898.1117-.17197.043-.12038-.0816-.36973-.2063-.41702-.14189-.05159-1.64232-.05159-1.77559 0z"/><path d="m11.197 2.23479c-.2235.12037-.2665.39552-.0859.57179l.1031.10748h1.4145c1.3671 0 1.4187-.0043 1.5305-.09028.0817-.06449.1118-.12898.1118-.23216 0-.39983-.0301-.40843-1.6423-.40843-.89.0043-1.3758.0172-1.4317.0516z"/><path d="m8.18328 4.13599c-.16338.13757-.16338.38693.00429.5288l.11608.09888 2.90195-.0086 2.902-.01289.0817-.10319c.1161-.14187.1075-.36973-.0258-.49871l-.1032-.10748h-2.8805-2.88045z"/><path d="m8.17899 5.97481c-.12898.14617-.14618.23646-.08169.39983.09888.22786.21066.24505 1.71539.22786l1.32851-.0129.1031-.12038c.1247-.14617.1333-.32674.0129-.47721l-.086-.11178h-1.45309c-1.44884 0-1.45314 0-1.53912.09458z"/><path d="m12.2074 5.967c-.1204.12038-.1462.27085-.0688.42562.1032.19776.2751.22786 1.1522.21066.7352-.0129.761-.0172.8684-.11608.1462-.13757.1548-.37833.0129-.5116-.0946-.09029-.1375-.09459-.9888-.09459-.8297 0-.8942.0043-.9759.08599z"/><path d="m8.2606 7.73009c-.11607.04729-.23645.30525-.19346.41703.0129.04299.06449.12038.11178.17197l.08598.09888h2.8891c2.859 0 2.8934 0 3.0051-.09029.1118-.09028.1505-.27945.086-.44712-.0731-.19346-.1075-.19346-3.0782-.18916-1.60363 0-2.85041.01719-2.9063.03869z"/><path d="m1.94936 11.1008c-.09029.0774-.12038.1376-.12038.2623s.03009.1848.12038.2622l.11608.1032h1.58641 1.58642l.11608-.1032c.16767-.1418.16767-.3826 0-.5245l-.11608-.1032h-1.58642-1.58641z"/><path d="m1.94511 12.9399c-.12898.1419-.15478.2708-.08169.4127.10748.2107.19347.2236 1.42734.2236 1.25967 0 1.34566-.0172 1.42734-.258.05589-.1505.0344-.2407-.09028-.3783-.08598-.0946-.09458-.0946-1.34136-.0946-1.24677 0-1.25537 0-1.34135.0946z"/><path d="m2.01384 14.7164c-.21926.1204-.25365.3698-.06879.5675.08599.0989.09459.0989 1.34136.0989 1.24678 0 1.25538 0 1.34136-.0989.12468-.1332.14617-.2235.09028-.374-.08168-.2451-.16767-.258-1.44024-.258-.89853.0043-1.17798.0172-1.26397.0645z"/><path d="m1.94936 16.6028c-.09029.0774-.12038.1376-.12038.2622 0 .1247.03009.1849.12038.2623l.11608.1032h1.41014 1.41015l.11608-.1118c.12038-.1247.15047-.3311.05589-.4514-.12038-.1591-.21496-.1677-1.61651-.1677h-1.37575z"/><path d="m10.3887 10.6614c-.98448.0859-2.012.6577-2.62249 1.466-1.51763 1.9905-.81685 4.8108 1.45744 5.8598.59329.2752 1.37145.3999 2.00775.3182 1.9088-.2365 3.3018-1.724 3.4136-3.6329.0602-1.0619-.3182-2.055-1.0748-2.8461-.8513-.8899-1.9132-1.2768-3.1815-1.165zm1.1909.8082c.5503.1419.9802.3912 1.4231.8384.3181.3138.4256.4557.5675.7523.2579.5245.331.8341.331 1.4188.0043.8512-.2494 1.5004-.8254 2.1109-.6965.7438-1.6295 1.092-2.6097.9802-1.10058-.1247-1.99912-.7696-2.47633-1.7799-.82545-1.7541.15477-3.8263 2.03783-4.3207.4299-.1118 1.1135-.1118 1.552 0z"/></g></svg>