<svg fill="none" height="18" viewBox="0 0 18 18" width="18" xmlns="http://www.w3.org/2000/svg"><path clip-rule="evenodd" d="m8.15195.364951c-.6992.072374-1.32701.213771-2.02052.454997-.49126.170882-.58604.244612-.58604.455672 0 .30138.23622.40426.60361.26286.93636-.36038 1.7887-.51231 2.86616-.51089 1.62524.00217 3.01204.41461 4.37514 1.30132.3186.2073.3879.22728.5388.15534.1982-.09451.2555-.34454.1167-.50868-.0731-.08636-.5923-.427-.9386-.61583-.8236-.448901-1.859-.791579-2.8565-.9454-.41657-.06425-1.67026-.093768-2.09875-.049389zm-5.3993 1.536519c-.8145.20182-1.23636 1.12146-.84432 1.8405l.07897.14481-.27118.41374c-.50395.76883-.895879 1.66934-1.122921 2.58018-.199114.79873-.242613 1.17803-.242613 2.11572 0 .93768.043499 1.31698.242613 2.11568.664301 2.6649 2.610651 4.9011 5.156451 5.9245.95982.3858 1.89663.5804 2.96085.6149 1.06337.0346 1.999-.096 2.9721-.4148.6761-.2215.7685-.2846.7685-.5251 0-.1615-.105-.293-.2566-.3214-.0885-.0166-.1885.0039-.3963.0812-2.07761.7725-4.3509.6568-6.32732-.3221-.82218-.4072-1.47687-.8787-2.12624-1.5312-1.2503-1.2564-2.02292-2.8339-2.27251-4.63999-.06506-.47081-.05579-1.61695.01703-2.09879.18398-1.2179.59581-2.30037 1.24932-3.28359.09282-.13963.17125-.25703.1743-.26085.00304-.00383.07352.01652.15656.04522.23615.08162.67591.05196.92066-.06208.24772-.11544.51237-.37985.62882-.62828.07976-.17018.09099-.23602.09099-.53269 0-.29583-.01137-.36275-.09004-.53062-.17085-.36441-.47795-.62151-.86186-.72151-.23056-.06005-.37351-.06087-.60526-.00345zm.18618.66362c-.43638.07691-.63478.57889-.37372.9455.20084.28209.63428.31885.89412.0759.43161-.40354.06428-1.12448-.5204-1.0214zm11.77767.36932c-.1056.10565-.1331.28171-.0641.41068.0436.08152.2059.1674.3163.1674.1142 0 .2821-.14864.3097-.27396.0704-.32081-.329-.53702-.5619-.30412zm-6.24831.25348c-1.21973.233-2.15339 1.09709-2.49052 2.30491-.04983.1786-.07054.38851-.08402.85234l-.0179.61535-.10173.04215c-.15548.06438-.414.34291-.52151.56183l-.09641.19637v2.53886 2.5389l.09004.1921c.12654.2699.3351.4826.60029.6124l.22366.1094h2.92886 2.92885l.2235-.11c.2649-.1304.4729-.3429.599-.6118l.0901-.1921v-2.5389-2.53886l-.0964-.19637c-.1086-.22115-.3665-.49762-.5256-.56352l-.1058-.04384-.0003-.47826c-.0001-.26305-.0163-.5773-.0359-.69832-.1982-1.22308-1.1179-2.22691-2.33076-2.54393-.33428-.08737-.9518-.11093-1.27745-.04871zm.17582.66494c-.78877.12265-1.48015.63119-1.81951 1.33842-.19461.4055-.23263.57876-.25375 1.1563l-.01889.51623h.35998.35997l.00051-.39776c.00081-.64442.13439-1.039.46668-1.37829.70631-.72131 1.77699-.74199 2.4713-.04773.377.37704.513.75445.5138 1.42602l.0006.39776h.3599.36l-.0177-.51623c-.0196-.5702-.073-.80052-.2818-1.21551-.2933-.58272-.8947-1.06005-1.54648-1.22745-.25886-.06648-.70444-.09065-.95461-.05176zm7.08219.20399c-.0744.04333-.1608.20731-.1608.3052 0 .0409.0899.22065.1997.39945.623 1.01429.9914 2.04872 1.1587 3.25326.0652.46955.0561 1.58154-.017 2.08187-.1786 1.223-.5892 2.308-1.2488 3.3005-.0928.1396-.1713.257-.1743.2609-.0031.0038-.0735-.0166-.1566-.0453-.2361-.0816-.6759-.0519-.9206.0621-.2478.1155-.5124.3799-.6289.6283-.0797.1702-.0909.236-.0909.5327 0 .295.0114.3629.0892.5287.174.3712.4915.6311.8918.7298.5696.1406 1.1851-.1631 1.4416-.7112.174-.3718.1662-.7886-.0212-1.1322l-.0789-.1448.2688-.4111c.3153-.4821.6818-1.2119.8721-1.7366.1695-.4673.3527-1.1976.4331-1.7264.0872-.57341.0884-1.90455.0023-2.45423-.1973-1.25867-.6188-2.40288-1.2505-3.39428-.0922-.14465-.1998-.28554-.2392-.31313-.0818-.05724-.2819-.06459-.3696-.01354zm-7.00043 1.19235c-.30595.08649-.55395.30222-.68675.59734-.05463.12139-.07237.24563-.08375.58566l-.01442.43161h1.05739 1.05736l-.0144-.43161c-.0164-.48962-.06594-.64578-.2805-.88325-.23983-.26546-.69249-.3966-1.03493-.29975zm-2.59208 2.34028c-.05808.02529-.14948.10345-.2031.17373l-.09746.12775-.00914 2.36867c-.00891 2.3116-.00752 2.372.05873 2.5076.03734.0765.12413.1771.19285.2237l.12495.0846h2.79524 2.79524l.1245-.0774c.0737-.0458.1536-.1374.1955-.2241.0704-.1453.071-.1697.0617-2.5149l-.0094-2.36817-.0975-.12789c-.1778-.23307-.0292-.22237-3.07494-.22091-2.24154.00108-2.77108.00985-2.85717.04732zm2.43199.72703c-.3723.13801-.69669.47338-.80454.83169-.10288.3418-.04553.79724.13459 1.06943.08507.1285.08696.1444.08696.7233 0 .6947.0434.8659.28188 1.1112.21533.2216.42599.3108.73367.3108.30767 0 .51833-.0892.73366-.3108.23831-.2452.2819-.4167.2819-1.1093v-.59l.0987-.1556c.2064-.32545.231-.85824.0561-1.21564-.1211-.24749-.371-.49566-.61869-.61441-.26522-.12718-.71531-.15036-.98423-.05067zm.15511.68133c-.37487.19796-.43499.61589-.14543 1.01069.08291.113.08436.1262.08487.7617.00054.725.01412.7813.21133.8779.12282.0601.13054.0601.25335 0 .19722-.0966.21079-.1529.21133-.8779.00051-.6355.00197-.6487.08487-.7617.14955-.20388.19471-.33668.17897-.52625-.0351-.42348-.50479-.68224-.87929-.48444zm5.98081 5.29279c-.1436.0625-.3135.2676-.3404.4109-.0747.3983.2003.7349.5977.7319.4895-.0038.7597-.5478.4725-.9512-.1493-.2096-.4858-.298-.7298-.1916z" fill="#0c97f0" fill-rule="evenodd" stroke="#0c97f0" stroke-width=".2"/></svg>