<svg fill="none" height="23" viewBox="0 0 28 23" width="28" xmlns="http://www.w3.org/2000/svg"><g fill="#fff"><path d="m23.5142 1.0858c-.5852.60256-2.0782 2.1179-3.3144 3.37075-2.138 2.16563-2.2514 2.29091-2.2514 2.49972 0 .27443.2388.50114.5195.50114.1672 0 .4181-.22671 2.3231-2.12984l2.138-2.1358.8241.8233.8182.81733-4.1685 4.15825-4.1624 4.16425-.8182-.8174-.8241-.8233.9077-.9068c.4957-.5011.9316-.97243.9675-1.04402.1075-.21477.0776-.37585-.1135-.56676-.1612-.15511-.215-.17898-.4061-.14915-.1851.0358-.3882.20881-1.3616 1.18123l-1.1466 1.1455-.7286 1.9508-.7226 1.9449-.8898.889c-.4897.4892-.9018.8769-.9197.865-.012-.0179-.38819-.7577-.83011-1.6406-.44193-.8889-.84802-1.6466-.88983-1.6884-.04777-.0358-.17319-.0895-.26874-.1074-.1493-.0298-.21499 0-.36429.1373-.15527.1431-.30457.5429-1.15856 3.1082-.53151 1.6108-.98538 2.9352-1.00329 2.9352-.04181 0-.72261-1.4914-1.08093-2.3744l-.31054-.7696.50762-1.1872c1.18842-2.7682 1.97672-5.2083 2.29921-7.15317.14332-.87699.14332-2.45199 0-3.03069-.28666-1.15142-1.02718-1.92103-2.06034-2.1358-.44789-.08949-1.33772-.04176-1.68409.09545-.97343.38779-1.60049 1.24688-1.89312 2.59518-.16721.78154-.15527 3.17984.02986 4.3432.27471 1.76593.80622 3.88983 1.43328 5.73923l.2329.6861-.91371 1.8196c-.50164 1.0023-1.21231 2.3386-1.5766 2.971-.6987214 1.229-.758441 1.4199-.54345 1.6884.131383.161.519562.1968.686777.0596.155271-.1312 1.110783-1.8494 2.036443-3.6571l.84205-1.6525.43595 1.0858c.23888.5965.62109 1.4616.84205 1.9269.3404.704.43596.8532.58525.9128.19708.0836.40013.0478.56137-.0954.05972-.0537.53748-1.402 1.09884-3.0844.54942-1.6406 1.00927-3.0128 1.02718-3.0426.01792-.0299.34041.5608.71664 1.3125s.72261 1.4139.77636 1.4676c.05972.0716.17916.1074.33442.1074.2389 0 .2747-.0298 1.4691-1.223l1.2243-1.2171 1.911-.7159 1.9051-.7159 4.4073-4.40286c4.1863-4.18212 4.4133-4.39689 4.5088-4.29547.1015.09545.012.19091-1.702 1.9091-1.7259 1.72415-1.8035 1.81364-1.8035 2.02841 0 .31023.209.51902.5195.51902.215 0 .3046-.0775 2.2694-2.0463 1.9827-1.97472 2.0484-2.05227 2.0484-2.27301 0-.20285-.0478-.27444-.3882-.62643l-.3822-.39375.8301-.84119c.7465-.74574.8361-.8591.8361-1.04404 0-.17898-.1195-.31619-1.3318-1.52728-1.284-1.2826723-1.3377-1.3303997-1.5646-1.3303997-.227 0-.2748.0417615-1.296 1.0857997zm2.1619.97245.8062.8054-.5972.59659-.5972.59659-.8181-.81733-.8242-.8233.5793-.57869c.3225-.32216.5972-.58466.6151-.58466s.3942.36392.8361.8054zm-20.43013 2.03438c.40012.21477.62706.51903.80024 1.06193.11347.35796.13139.55483.13139 1.28864-.01195 1.95086-.60317 4.1523-2.01853 7.5171-.22096.519-.4061.8829-.42401.8352-.1493-.4057-.50762-1.6406-.72261-2.4878-.46581-1.8017-.68678-3.34688-.68678-4.79063 0-1.34233.16125-2.1537.54942-2.79802.38221-.62642.81816-.85313 1.57063-.8233.39415.0179.53748.04773.80025.19688zm10.03893 9.56937c0 .0238-.43.2028-.9556.3997-.5255.1969-.9555.3401-.9555.3162 0-.0477.651-1.7898.6987-1.8673.0299-.0478 1.2124 1.0738 1.2124 1.1514z"/><path d="m16.8516 7.75389c-.1266.09274-.1568.1681-.1568.37097 0 .20288.0302.27824.1568.37098.3497.26664.8201.05217.8201-.37098 0-.42314-.4704-.63761-.8201-.37097z"/></g></svg>