<svg fill="none" height="15" viewBox="0 0 14 15" width="14" xmlns="http://www.w3.org/2000/svg"><path d="m10.77.65625c-.033 0-.0656.011982-.0923.039316-.0542.055416-.0542.132176 0 .187592l2.4376 2.492252h-12.301208c-.075808 0-.131475.05729-.131475.13442s.056033.13442.131475.13442h12.302308l-2.4384 2.48626c-.0542.05542-.0542.13218 0 .18759.0268.02734.0579.03932.0938.03932s.0652-.01123.0937-.04044l2.6577-2.71728c.0484-.04943.0502-.13368-.0025-.1876l-.063-.0644v-.00075l-2.5966-2.651384c-.0274-.028083-.0582-.039316-.0911-.039316zm-7.29564 7.93094c-.03296 0-.06555.01198-.09229.03931l-2.658802 2.7184c-.054201.0554-.054201.1322 0 .1876l2.658802 2.7192c.02674.0273.05786.0393.09375.0393s.06483-.012.09303-.0405c.05346-.0554.05383-.1318 0-.1868l-2.43761-2.4923h12.30116c.0692 0 .1264-.0539.1264-.131s-.0572-.1356-.1326-.1356h-12.29789l2.43651-2.49108c.0542-.05541.0542-.13217 0-.18759-.02747-.02808-.05823-.03932-.09119-.03932z" fill="#000"/></svg>