<svg fill="none" height="18" viewBox="0 0 18 18" width="18" xmlns="http://www.w3.org/2000/svg"><path clip-rule="evenodd" d="m4.3805.639682c-.72474.175225-1.32292.774008-1.56544 1.566968l-.08414.27517-.01024 6.24905-.01024 6.24903h-1.00728c-1.190848 0-1.174584-.005-1.174584.3627 0 .5523.219482 1.0984.620044 1.5431.30852.3425.54223.4926.9455.6073.28269.0804.43106.0828 5.07575.0822 5.22023-.0007 5.01233.0085 5.47393-.2404.1172-.0631.3374-.2457.4893-.4057.2271-.2391.3055-.3584.4406-.6699.0903-.2085.1822-.4909.2042-.6275.0271-.168.04-2.2261.04-6.35376v-6.10527h1.7636c2.0239 0 1.8882.02743 1.8882-.38181 0-.54522-.2216-1.09083-.6208-1.52879-.3083-.338219-.6214-.528558-1.0264-.624021-.3656-.086126-11.08518-.084618-11.442.001633zm.18895.525628c-.56836.08236-1.04023.51291-1.24947 1.14016l-.08082.2423v6.21609 6.21604h3.38238c3.90746 0 3.50016-.0535 3.55006.4664.0731.7605.5555 1.3598 1.2287 1.5264.2371.0587.3326.0632.5478.0262.68-.1171 1.2187-.6901 1.3426-1.428.0243-.1449.0378-2.5087.0378-6.60941 0-7.03335-.0134-6.62056.2322-7.13459.062-.12997.1975-.34191.301-.47104l.1881-.2348-4.62412.00532c-2.54332.00293-4.72861.02043-4.85623.03893zm10.59015.00285c-.1214.01914-.312.08131-.4236.13813-.3963.20177-.7896.7341-.8628 1.16766l-.026.15442h1.5143 1.5142l-.0264-.15702c-.1011-.60087-.6472-1.21195-1.1513-1.28837-.0919-.01394-.201-.03077-.2424-.03747-.0414-.00666-.1746.00352-.296.02265zm-10.0378 3.39944c-.07232.02563-.21895.14144-.32587.25742-.28694.31126-.31446.45047-.3142 1.5897.00011.50818.01751.99328.03866 1.07794.06626.26537.26316.53957.48817.67992l.20706.12913.89046.01319c.55688.0082.94697-.00377 1.04124-.03199.24836-.07441.4963-.29087.62374-.5446.09957-.19834.1167-.27965.12999-.61733.01841-.46789-.03204-.59915-.22983-.59811-.20804.00113-.22988.04171-.25879.48117-.0282.42912-.07307.55234-.24734.6795-.08753.0639-.21331.07549-.93123.08579-.91584.01319-1.00111-.00552-1.16616-.25574-.07356-.11154-.07796-.17309-.07796-1.08861 0-1.41155-.0358-1.36817 1.12926-1.36817h.77533l.096-.10677c.07503-.08345.09047-.13147.07055-.21961-.04954-.21956-.04367-.21822-.95574-.21366-.51008.00256-.90462.02295-.98334.05083zm4.42536.03798c-.0861.1367-.07168.26625.04059.36443.09521.08332.14336.0868 1.19755.0868 1.0534 0 1.1018-.00352 1.1808-.08538.0969-.10032.1057-.23589.0238-.36585-.0584-.09279-.0624-.09308-1.2214-.09308-1.15888 0-1.16295.00029-1.22134.09308zm-2.4167 1.00223-.79978.88596-.29899-.29978c-.16444-.16489-.3311-.29979-.37033-.29979-.13105 0-.23868.12017-.23868.26646 0 .11774.05526.19666.4085.58383.28605.31348.43505.44767.49709.44767.06547 0 .33224-.27018 1.02208-1.03514.99847-1.10725 1.0313-1.15891.8582-1.35143-.16715-.1859-.22486-.14299-1.07809.80222zm7.97504-.66824c-.0249.02764-.0452.12075-.0452.20696 0 .26207.0681.2871.7801.2871.5626 0 .619-.00686.6881-.08374.0941-.10463.0973-.29982.0065-.39127-.0586-.05891-.1674-.06929-.7266-.06929-.4614 0-.6712.01499-.7029.05024zm-6.42422.75462c-.08609.1367-.07168.26625.04059.36443.09667.08458.13824.0868 1.63763.0868 1.4883 0 1.5409-.00272 1.6137-.08374.0941-.10463.0973-.29983.0065-.39127-.0618-.06218-.2318-.0693-1.6543-.0693h-1.58554zm6.37852.24238c-.0751.08357-.0756.12272-.0658 5.24413l.0098 5.16.351.5152c.3464.5085.3528.5151.4894.5025.129-.012.1623-.0481.4867-.5271l.3482-.5142v-5.1221c0-5.11842 0-5.1221-.078-5.23234l-.078-.11033h-.6938c-.6448 0-.6991.00595-.7695.08424zm.423 5.33073.0104 4.8706.1612.2375c.0887.1306.1743.2374.1903.2374.0159 0 .1001-.1121.187-.2491l.158-.2492v-1.7118c0-.9415-.0113-3.128-.025-4.85893l-.025-3.14713h-.3337-.3337zm-6.80152-4.4845c-.08609.13671-.07168.26625.04059.36443.09667.08458.13824.0868 1.63763.0868 1.4883 0 1.5409-.00272 1.6137-.08374.0941-.10463.0973-.29983.0065-.39127-.0618-.06218-.2318-.0693-1.6543-.0693h-1.58554zm.01668 1.07928c-.09995.11116-.09525.25762.01182.36954.08655.09039.09754.09102 1.63762.09102 1.5004 0 1.553-.00272 1.6258-.08374.0941-.10463.0973-.29983.0065-.39127-.0618-.06213-.2307-.06929-1.6377-.06929-1.51856 0-1.57115.00268-1.64404.08374zm-3.4136 1.67545c-.21507.04895-.34556.13139-.50695.32039-.27693.32428-.27708.32508-.27708 1.56308v1.1095l.10959.22c.11083.2225.2339.3513.47394.4961.11979.0723.22064.0795 1.11058.0795.93797 0 .9853-.0039 1.13445-.0926.19983-.1189.37192-.3113.47398-.5299.09709-.208.14181-.8756.06882-1.0273-.06065-.1261-.21034-.1847-.315-.1234-.12171.0712-.13745.1155-.13906.3915-.00219.3724-.0547.5699-.18651.7013l-.11554.1151h-.92551-.92551l-.12435-.1383c-.16026-.1782-.18078-.3536-.16305-1.394.01469-.8625.02903-.9284.23146-1.0657.10857-.0736.19403-.0813.90281-.0815.78095-.0001.78313-.0004.87529-.10292.11106-.12347.11712-.23083.02052-.3636-.07085-.09739-.08283-.09894-.81882-.10593-.41081-.00389-.81762.009-.90406.02868zm4.30339.04426c-.13331.11656-.13331.29602 0 .41258.09513.08323.14358.08683 1.18075.08683 1.0373 0 1.0857-.0036 1.1808-.08683.0658-.05753.0992-.12703.0992-.20629s-.0334-.14876-.0992-.20629c-.0951-.08324-.1435-.0868-1.1808-.0868-1.03717 0-1.08562.00356-1.18075.0868zm-2.45857 1.05181-.80106.8874-.2793-.3012c-.21835-.2355-.30355-.3012-.3904-.3012-.13809 0-.23574.1144-.23574.2762 0 .1006.07021.1999.38588.5458.21221.2325.4166.4346.45413.449.03758.0145.11381-.0004.16941-.0331.05565-.0326.49506-.4997.97645-1.038.75784-.8473.87529-.9957.87529-1.1062 0-.15622-.10142-.26609-.24568-.26609-.09028 0-.23928.14546-.90898.88739zm1.65593-.0085c-.17438.0796-.20754.289-.07002.4419l.09239.1028h1.52132c1.4821 0 1.5239-.0022 1.6205-.0868.1225-.1072.1315-.2864.02-.3987-.0748-.0753-.1631-.0802-1.5906-.0883-.8312-.0047-1.54833.0084-1.59359.0291zm.03795 1.0756c-.10052.0226-.14889.084-.18213.2313-.01992.0882-.00448.1362.07055.2196l.096.1068h1.52132c1.4821 0 1.5239-.0022 1.6205-.0868.1225-.1071.1315-.2864.02-.3987-.0749-.0754-.1606-.08-1.5717-.0852-.82092-.003-1.52948.0029-1.57454.013zm-.00241 1.0887c-.09645.0218-.19798.1631-.19798.2757 0 .042.0416.1226.09242.1791l.09239.1028h1.52132c1.4821 0 1.5239-.0022 1.6205-.0868.1225-.1071.1315-.2864.02-.3987-.0749-.0754-.1608-.08-1.5717-.0854-.82092-.0031-1.53057.0029-1.57695.0133zm-7.67188 2.8918c.04375.2619.27976.7109.47767.9089.22057.2205.43523.3418.70621.3989.12823.0271 1.63143.0425 4.1345.0425h3.93305l-.2093-.2514c-.23188-.2785-.4066-.649-.47869-1.0151l-.0474-.2408h-4.27112-4.27116z" fill="#0c97f0" fill-rule="evenodd"/></svg>