<svg fill="none" height="205" viewBox="0 0 205 205" width="205" xmlns="http://www.w3.org/2000/svg"><g fill="#f1f1f1"><path d="m72.2705.400391c-8.5683 1.321289-17.2168 5.765629-23.4629 11.971709-7.0068 7.0468-11.4111 16.5361-12.2119 26.3457l-.2803 3.3232h6.086 6.0459v-1.4014c0-2.2822 1.1611-7.4072 2.3623-10.2099 2.8828-6.8867 9.0488-13.0527 15.9756-16.0156 11.291-4.80472 24.2236-2.2022 32.872 6.5263 5.1648 5.2451 7.9678 11.1309 8.6888 18.378l.28 2.7226h6.006 6.006l-.281-3.4433c-1.241-15.1348-11.17-29.02836-25.064-35.03422-5.2852-2.28223-9.4492-3.203128-15.4151-3.363285-2.8427-.080078-6.2861 0-7.6074.200196z"/><path d="m74.2727 24.5839c-3.3633.8408-5.8857 2.2822-8.4482 4.8447-2.6026 2.6026-4.2041 5.4453-4.9248 8.9287-.2803 1.4014-.4405 9.6094-.4405 24.584v22.4219l-1.2812-.2402c-6.9268-1.4815-12.7324.1201-17.377 4.7646-2.6025 2.6025-4.2041 5.4453-4.9248 8.9287-.6006 2.8027-.6006 41.5207 0 46.8457 2.4824 22.662 16.1758 42.281 36.6758 52.531 24.5039 12.212 54.333 7.648 74.152-11.411 11.732-11.291 18.699-25.305 20.42-41.12.601-5.325.561-32.111 0-34.834-.76-3.443-2.362-6.326-4.965-8.929-4.164-4.1637-9.809-6.0456-15.335-5.0846-1.521.2402-3.002.5605-3.323.6806-.4.1602-.761-.2402-1.121-1.2812-2.803-7.8076-11.411-12.8125-19.579-11.4112-1.521.2403-3.003.5606-3.323.6807-.401.1602-.761-.2402-1.121-1.2812-.881-2.4024-2.963-5.4053-5.045-7.2471-4.405-3.8838-10.13-5.2051-16.4963-3.8438l-1.3213.2403v-16.416c0-10.7706-.1602-17.1768-.4404-18.5782-.7608-3.4433-2.3623-6.3261-4.9649-8.9687-4.4844-4.5244-10.7705-6.3262-16.8164-4.8047zm7.0068 12.2519c1.0411.5206 1.8819 1.3614 2.4024 2.4024.8008 1.5615.8008 2.2822.8008 41.4404v39.8384h6.0058 6.0059v-15.615c0-14.8943.04-15.7351.8008-17.2165.9209-1.8018 3.2028-3.2032 5.2048-3.2032s4.284 1.4014 5.205 3.2032c.761 1.4814.801 2.3222.801 17.2165v15.615h6.006 6.006v-9.609c0-8.889.08-9.769.801-11.2108.921-1.8018 3.203-3.2032 5.205-3.2032s4.284 1.4014 5.205 3.2032c.72 1.4418.801 2.3218.801 11.2108v9.609h6.005 6.006v-3.603c0-2.763.16-4.004.761-5.125.881-1.722 3.363-3.283 5.205-3.283 2.042 0 4.324 1.401 5.285 3.243.801 1.642.841 2.002.641 17.937-.16 14.455-.24 16.657-.961 19.86-3.243 14.374-11.331 26.386-23.023 34.233-6.005 4.044-12.292 6.647-19.979 8.288-4.685 1.001-15.2549 1.001-19.9795 0-21.9014-4.644-37.9571-20.54-42.9619-42.521-.7608-3.363-.8409-5.205-.961-25.905-.1601-21.942-.1601-22.302.6407-23.9038.9609-1.8418 3.2431-3.2432 5.2451-3.2432 2.0019 0 4.2841 1.4014 5.205 3.2032.7608 1.5218.8008 2.3218.8008 23.2228v21.621h6.0059 6.0058v-51.9708c.0401-49.248.0801-52.0107.7608-53.292.8808-1.6416 3.4033-3.2431 5.165-3.2431.7207 0 2.042.3603 2.8828.8007z"/></g></svg>