<svg fill="none" height="19" viewBox="0 0 19 19" width="19" xmlns="http://www.w3.org/2000/svg"><path d="m17.021 4.82982c-.2375-.15834-.5542-.15834-.7917 0l-3.4833 2.375v-1.6625c0-.87084-.7125-1.58334-1.5833-1.58334h-7.99587c-.87083 0-1.58333.7125-1.58333 1.58334v7.91668c0 .8708.7125 1.5833 1.58333 1.5833h7.91667c.8708 0 1.5833-.7125 1.5833-1.5833v-1.6625l3.4834 2.375c.1583.0792.3166.1583.475.1583.1583 0 .2375 0 .3958-.0791.2375-.1584.3958-.3959.3958-.7125v-7.99588c0-.31667-.1583-.55417-.3958-.7125zm-5.9375 8.62918h-7.91667v-7.91668h7.91667v3.16666 1.58332zm4.75-1.5042-3.1667-2.13748v-.7125l3.1667-2.1375z" fill="#fff"/></svg>